<?xml version="1.0" encoding="UTF-8" standalone="no"?><svg xmlns="http://www.w3.org/2000/svg" xmlns:xlink="http://www.w3.org/1999/xlink" clip-rule="evenodd" stroke-miterlimit="4.00" viewBox="0 0 1024 768"><desc>SVG generated by Keynote</desc><defs></defs><g transform="matrix(1.00, 0.00, -0.00, -1.00, 0.0, 768.0)"><g><clipPath id="clip-63"><path d="M 0.0 768.0 L 1024.0 768.0 L 1024.0 0.0 L 0.0 0.0 Z M 0.0 768.0 "></path></clipPath><g clip-path="url(#clip-63)"><image xlink:href="../../BE108FEC-AE24-47A3-996A-49D14F0D22C7/assets/DE78B55DDE70D88C6FF874E8D33A46A3.jpeg" width="1024.00" height="768.00" transform="matrix(1.00, 0.00, -0.00, -1.00, 0.0, 768.0)"></image></g></g><text xml:space="preserve" font-family="Chalkduster" font-size="42.0" fill="#FEFFFE" transform="matrix(1.00, 0.00, -0.00, -1.00, 43.0, 666.0)">I</text><text xml:space="preserve" font-family="Chalkduster" font-size="42.0" fill="#FEFFFE" transform="matrix(1.00, 0.00, -0.00, -1.00, 68.0, 666.0)">t</text><text xml:space="preserve" font-family="Chalkduster" font-size="42.0" fill="#FEFFFE" transform="matrix(1.00, 0.00, -0.00, -1.00, 87.2, 666.0)">’</text><text xml:space="preserve" font-family="Chalkduster" font-size="42.0" fill="#FEFFFE" transform="matrix(1.00, 0.00, -0.00, -1.00, 92.4, 666.0)">s</text><text xml:space="preserve" font-family="Chalkduster" font-size="42.0" fill="#FEFFFE" transform="matrix(1.00, 0.00, -0.00, -1.00, 113.7, 666.0)"> </text><text xml:space="preserve" font-family="Chalkduster" font-size="42.0" fill="#FEFFFE" transform="matrix(1.00, 0.00, -0.00, -1.00, 134.5, 666.0)">o</text><text xml:space="preserve" font-family="Chalkduster" font-size="42.0" fill="#FEFFFE" transform="matrix(1.00, 0.00, -0.00, -1.00, 163.9, 666.0)">k</text><text xml:space="preserve" font-family="Chalkduster" font-size="42.0" fill="#FEFFFE" transform="matrix(1.00, 0.00, -0.00, -1.00, 194.7, 666.0)">a</text><text xml:space="preserve" font-family="Chalkduster" font-size="42.0" fill="#FEFFFE" transform="matrix(1.00, 0.00, -0.00, -1.00, 223.7, 666.0)">y</text><text xml:space="preserve" font-family="Chalkduster" font-size="42.0" fill="#FEFFFE" transform="matrix(1.00, 0.00, -0.00, -1.00, 249.2, 666.0)"> </text><text xml:space="preserve" font-family="Chalkduster" font-size="42.0" fill="#FEFFFE" transform="matrix(1.00, 0.00, -0.00, -1.00, 270.1, 666.0)">t</text><text xml:space="preserve" font-family="Chalkduster" font-size="42.0" fill="#FEFFFE" transform="matrix(1.00, 0.00, -0.00, -1.00, 287.5, 666.0)">o</text><text xml:space="preserve" font-family="Chalkduster" font-size="42.0" fill="#FEFFFE" transform="matrix(1.00, 0.00, -0.00, -1.00, 317.6, 666.0)"> </text><text xml:space="preserve" font-family="Chalkduster" font-size="42.0" fill="#FEFFFE" transform="matrix(1.00, 0.00, -0.00, -1.00, 338.5, 666.0)">s</text><text xml:space="preserve" font-family="Chalkduster" font-size="42.0" fill="#FEFFFE" transform="matrix(1.00, 0.00, -0.00, -1.00, 359.7, 666.0)">a</text><text xml:space="preserve" font-family="Chalkduster" font-size="42.0" fill="#FEFFFE" transform="matrix(1.00, 0.00, -0.00, -1.00, 388.7, 666.0)">y</text><text xml:space="preserve" font-family="Chalkduster" font-size="42.0" fill="#FEFFFE" transform="matrix(1.00, 0.00, -0.00, -1.00, 414.0, 666.0)">:</text></g></svg>