<?xml version="1.0" encoding="UTF-8" standalone="no"?><svg xmlns="http://www.w3.org/2000/svg" xmlns:xlink="http://www.w3.org/1999/xlink" clip-rule="evenodd" stroke-miterlimit="4.00" viewBox="0 0 911 181"><desc>SVG generated by Keynote</desc><defs></defs><g transform="matrix(1.00, 0.00, -0.00, -1.00, 0.0, 181.0)"><text xml:space="preserve" font-family="Chalkduster" font-size="70.0" fill="#FEFFFE" transform="matrix(1.00, 0.00, -0.00, -1.00, 229.0, 128.0)">E</text><text xml:space="preserve" font-family="Chalkduster" font-size="70.0" fill="#FEFFFE" transform="matrix(1.00, 0.00, -0.00, -1.00, 280.8, 128.0)">v</text><text xml:space="preserve" font-family="Chalkduster" font-size="70.0" fill="#FEFFFE" transform="matrix(1.00, 0.00, -0.00, -1.00, 323.8, 128.0)">e</text><text xml:space="preserve" font-family="Chalkduster" font-size="70.0" fill="#FEFFFE" transform="matrix(1.00, 0.00, -0.00, -1.00, 366.5, 128.0)">r</text><text xml:space="preserve" font-family="Chalkduster" font-size="70.0" fill="#FEFFFE" transform="matrix(1.00, 0.00, -0.00, -1.00, 405.9, 128.0)">y</text><text xml:space="preserve" font-family="Chalkduster" font-size="70.0" fill="#FEFFFE" transform="matrix(1.00, 0.00, -0.00, -1.00, 448.5, 128.0)"> </text><text xml:space="preserve" font-family="Chalkduster" font-size="70.0" fill="#FEFFFE" transform="matrix(1.00, 0.00, -0.00, -1.00, 483.3, 128.0)">w</text><text xml:space="preserve" font-family="Chalkduster" font-size="70.0" fill="#FEFFFE" transform="matrix(1.00, 0.00, -0.00, -1.00, 540.5, 128.0)">e</text><text xml:space="preserve" font-family="Chalkduster" font-size="70.0" fill="#FEFFFE" transform="matrix(1.00, 0.00, -0.00, -1.00, 583.9, 128.0)">e</text><text xml:space="preserve" font-family="Chalkduster" font-size="70.0" fill="#FEFFFE" transform="matrix(1.00, 0.00, -0.00, -1.00, 627.3, 128.0)">k</text><text xml:space="preserve" font-family="Chalkduster" font-size="70.0" fill="#FEFFFE" transform="matrix(1.00, 0.00, -0.00, -1.00, 681.7, 128.0)"> </text><text xml:space="preserve" font-family="Chalkduster" font-size="70.0" fill="#FEFFFE" transform="matrix(1.00, 0.00, -0.00, -1.00, 716.6, 128.0)"> </text><text xml:space="preserve" font-family="Chalkduster" font-size="70.0" fill="#FEFFFE" transform="matrix(1.00, 0.00, -0.00, -1.00, -1.0, 38.0)">W</text><text xml:space="preserve" font-family="Chalkduster" font-size="70.0" fill="#FEFFFE" transform="matrix(1.00, 0.00, -0.00, -1.00, 60.0, 38.0)">r</text><text xml:space="preserve" font-family="Chalkduster" font-size="70.0" fill="#FEFFFE" transform="matrix(1.00, 0.00, -0.00, -1.00, 98.7, 38.0)">i</text><text xml:space="preserve" font-family="Chalkduster" font-size="70.0" fill="#FEFFFE" transform="matrix(1.00, 0.00, -0.00, -1.00, 127.2, 38.0)">t</text><text xml:space="preserve" font-family="Chalkduster" font-size="70.0" fill="#FEFFFE" transform="matrix(1.00, 0.00, -0.00, -1.00, 158.4, 38.0)">e</text><text xml:space="preserve" font-family="Chalkduster" font-size="70.0" fill="#FEFFFE" transform="matrix(1.00, 0.00, -0.00, -1.00, 201.8, 38.0)"> </text><text xml:space="preserve" font-family="Chalkduster" font-size="70.0" fill="#FEFFFE" transform="matrix(1.00, 0.00, -0.00, -1.00, 236.7, 38.0)">d</text><text xml:space="preserve" font-family="Chalkduster" font-size="70.0" fill="#FEFFFE" transform="matrix(1.00, 0.00, -0.00, -1.00, 291.4, 38.0)">o</text><text xml:space="preserve" font-family="Chalkduster" font-size="70.0" fill="#FEFFFE" transform="matrix(1.00, 0.00, -0.00, -1.00, 343.4, 38.0)">w</text><text xml:space="preserve" font-family="Chalkduster" font-size="70.0" fill="#FEFFFE" transform="matrix(1.00, 0.00, -0.00, -1.00, 402.2, 38.0)">n</text><text xml:space="preserve" font-family="Chalkduster" font-size="70.0" fill="#FEFFFE" transform="matrix(1.00, 0.00, -0.00, -1.00, 453.5, 38.0)"> </text><text xml:space="preserve" font-family="Chalkduster" font-size="70.0" fill="#FEFFFE" transform="matrix(1.00, 0.00, -0.00, -1.00, 488.4, 38.0)">a</text><text xml:space="preserve" font-family="Chalkduster" font-size="70.0" fill="#FEFFFE" transform="matrix(1.00, 0.00, -0.00, -1.00, 536.6, 38.0)"> </text><text xml:space="preserve" font-family="Chalkduster" font-size="70.0" fill="#FEFFFE" transform="matrix(1.00, 0.00, -0.00, -1.00, 571.5, 38.0)">q</text><text xml:space="preserve" font-family="Chalkduster" font-size="70.0" fill="#FEFFFE" transform="matrix(1.00, 0.00, -0.00, -1.00, 616.7, 38.0)">u</text><text xml:space="preserve" font-family="Chalkduster" font-size="70.0" fill="#FEFFFE" transform="matrix(1.00, 0.00, -0.00, -1.00, 664.8, 38.0)">e</text><text xml:space="preserve" font-family="Chalkduster" font-size="70.0" fill="#FEFFFE" transform="matrix(1.00, 0.00, -0.00, -1.00, 709.8, 38.0)">s</text><text xml:space="preserve" font-family="Chalkduster" font-size="70.0" fill="#FEFFFE" transform="matrix(1.00, 0.00, -0.00, -1.00, 747.3, 38.0)">t</text><text xml:space="preserve" font-family="Chalkduster" font-size="70.0" fill="#FEFFFE" transform="matrix(1.00, 0.00, -0.00, -1.00, 779.7, 38.0)">i</text><text xml:space="preserve" font-family="Chalkduster" font-size="70.0" fill="#FEFFFE" transform="matrix(1.00, 0.00, -0.00, -1.00, 807.3, 38.0)">o</text><text xml:space="preserve" font-family="Chalkduster" font-size="70.0" fill="#FEFFFE" transform="matrix(1.00, 0.00, -0.00, -1.00, 859.4, 38.0)">n</text></g></svg>