<?xml version="1.0" encoding="UTF-8" standalone="no"?><svg xmlns="http://www.w3.org/2000/svg" xmlns:xlink="http://www.w3.org/1999/xlink" clip-rule="evenodd" stroke-miterlimit="4.00" viewBox="0 0 269 145"><desc>SVG generated by Keynote</desc><defs></defs><g transform="matrix(1.00, 0.00, -0.00, -1.00, 0.0, 145.0)"><path d="M 250.3 7.1 C 250.7 6.9 251.6 7.2 251.9 7.0 M 250.3 7.1 C 251.2 8.4 252.9 8.5 255.1 8.8 C 257.5 8.9 255.0 7.6 255.3 7.0 C 258.5 6.6 258.5 7.6 258.0 8.9 C 259.2 8.0 262.8 9.8 262.1 8.1 C 257.0 7.9 265.7 7.8 261.5 6.6 C 261.0 6.3 262.3 5.9 262.7 6.0 C 261.3 5.2 263.8 4.5 261.5 3.8 C 261.3 2.7 261.7 3.2 260.2 2.3 C 259.6 2.2 259.9 2.6 259.9 2.8 C 259.6 4.1 258.2 2.0 256.9 2.8 C 255.9 1.1 254.7 3.0 255.7 3.8 C 254.6 3.5 253.3 1.8 252.2 3.0 C 251.6 2.1 248.7 2.6 250.4 3.7 C 251.7 4.4 250.3 4.9 250.1 5.2 C 250.5 5.6 252.3 5.1 252.5 5.4 C 252.0 5.7 249.7 6.3 252.1 6.2 C 251.4 6.8 252.5 7.2 250.3 7.1 C 250.3 7.1 250.3 7.1 250.3 7.1 Z M 258.9 8.2 C 258.9 8.7 258.1 8.2 258.9 8.2 C 258.9 8.2 258.9 8.2 258.9 8.2 Z M 253.2 2.1 C 253.2 2.6 252.3 2.1 253.2 2.1 C 253.2 2.1 253.2 2.1 253.2 2.1 Z M 259.5 2.8 C 259.5 3.2 258.7 2.7 259.5 2.8 C 259.5 2.8 259.5 2.8 259.5 2.8 Z M 256.6 7.9 C 255.3 7.4 257.8 7.3 258.0 7.7 C 257.7 7.6 257.0 8.2 256.6 7.9 C 256.6 7.9 256.6 7.9 256.6 7.9 Z M 256.5 5.3 C 256.4 5.4 255.9 5.5 255.9 5.0 C 256.3 4.9 256.6 5.1 256.5 5.3 C 256.5 5.3 256.5 5.3 256.5 5.3 Z M 263.2 7.4 C 263.1 7.5 262.5 7.6 262.6 7.1 C 263.0 7.0 263.3 7.2 263.2 7.4 C 263.2 7.4 263.2 7.4 263.2 7.4 Z M 255.1 6.6 C 254.8 6.6 254.7 6.1 255.1 6.1 C 255.3 6.3 256.2 6.4 255.1 6.6 C 255.1 6.6 255.1 6.6 255.1 6.6 Z M 253.0 8.1 C 251.9 7.8 254.2 7.2 254.1 7.4 C 254.5 7.7 253.6 8.4 253.0 8.1 C 253.0 8.1 253.0 8.1 253.0 8.1 Z M 254.5 6.0 C 253.6 5.8 254.9 5.7 254.5 6.0 C 254.5 6.0 254.5 6.0 254.5 6.0 Z M 262.4 4.0 C 261.5 3.8 262.9 3.7 262.4 4.0 C 262.4 4.0 262.4 4.0 262.4 4.0 Z M 257.5 2.5 C 256.5 2.2 257.9 2.2 257.5 2.5 C 257.5 2.5 257.5 2.5 257.5 2.5 Z M 259.2 7.1 C 260.8 7.1 259.4 8.2 259.2 7.1 C 259.2 7.1 259.2 7.1 259.2 7.1 Z M 250.4 8.1 C 252.0 8.2 250.6 9.3 250.4 8.1 C 250.4 8.1 250.4 8.1 250.4 8.1 Z M 19.9 122.9 C 19.2 124.2 23.7 120.4 21.1 121.2 C 19.5 120.8 21.9 117.8 22.4 119.4 C 23.2 118.5 23.3 118.6 23.1 117.7 C 24.1 118.2 26.1 116.4 26.2 115.3 C 25.9 114.3 25.1 116.6 25.2 114.9 C 27.0 112.1 24.3 114.4 24.1 112.7 C 24.2 112.6 24.7 112.9 24.6 112.4 C 23.8 111.7 22.0 112.7 21.9 111.6 C 21.7 112.1 19.3 113.3 20.7 113.0 C 21.7 113.4 18.1 114.4 19.6 115.3 C 18.5 115.4 18.8 116.8 17.6 116.8 C 17.1 117.2 17.8 117.7 18.0 117.8 C 18.7 118.2 16.2 117.3 16.7 118.9 C 16.3 118.7 14.9 121.1 16.6 119.8 C 16.1 120.2 14.0 122.5 16.2 122.1 C 18.1 120.7 16.2 124.8 17.8 122.8 C 19.0 121.3 19.0 120.8 18.8 122.4 C 18.5 122.8 17.3 124.7 19.0 123.5 C 19.0 123.1 19.7 122.4 19.9 122.9 C 19.9 122.9 19.9 122.9 19.9 122.9 Z M 17.8 121.9 C 18.4 120.9 18.3 122.1 17.8 121.9 C 17.8 121.9 17.8 121.9 17.8 121.9 Z M 17.4 116.5 C 18.0 115.5 17.9 116.7 17.4 116.5 C 17.4 116.5 17.4 116.5 17.4 116.5 Z M 22.3 120.2 C 22.2 119.5 23.6 120.3 22.3 120.2 C 22.3 120.2 22.3 120.2 22.3 120.2 Z M 17.3 118.8 C 17.4 118.7 17.4 119.0 17.3 119.3 C 17.3 119.2 17.3 118.9 17.3 118.8 C 17.3 118.8 17.3 118.8 17.3 118.8 Z M 23.4 118.7 C 23.8 116.9 24.6 119.2 23.4 118.7 C 23.4 118.7 23.4 118.7 23.4 118.7 Z M 24.2 115.1 C 23.1 114.0 25.5 113.9 24.2 115.1 C 24.2 115.1 24.2 115.1 24.2 115.1 Z M 20.0 114.9 C 20.1 115.3 19.7 115.0 20.0 114.9 C 20.0 114.9 20.0 114.9 20.0 114.9 Z M 15.4 120.7 C 15.5 121.2 15.1 120.8 15.4 120.7 C 15.4 120.7 15.4 120.7 15.4 120.7 Z M 21.4 113.3 C 21.8 113.7 20.8 113.6 21.4 113.3 C 21.4 113.3 21.4 113.3 21.4 113.3 Z M 21.9 119.6 C 22.1 121.6 19.3 120.0 21.9 119.6 C 21.9 119.6 21.9 119.6 21.9 119.6 Z M 20.4 121.9 C 20.0 122.9 19.9 121.3 20.3 121.0 C 20.4 121.1 20.5 121.7 20.4 121.9 C 20.4 121.9 20.4 121.9 20.4 121.9 Z M 22.8 118.2 C 22.7 119.5 21.9 118.8 22.8 118.2 C 22.8 118.2 22.8 118.2 22.8 118.2 Z M 21.8 120.8 C 21.3 121.1 21.9 120.3 21.8 120.8 C 21.8 120.8 21.8 120.8 21.8 120.8 Z M 25.1 117.4 C 24.7 117.7 25.2 116.9 25.1 117.4 C 25.1 117.4 25.1 117.4 25.1 117.4 Z M 20.2 123.3 C 19.8 123.7 20.3 122.9 20.2 123.3 C 20.2 123.3 20.2 123.3 20.2 123.3 Z M 24.2 117.2 C 23.8 116.7 21.9 117.2 24.4 115.7 C 25.0 115.6 24.9 116.9 24.2 117.2 C 24.2 117.2 24.2 117.2 24.2 117.2 Z M 245.9 7.0 C 252.3 8.8 250.8 5.7 251.1 5.1 C 252.0 4.3 251.1 3.7 249.9 3.1 C 248.5 1.1 247.8 5.1 246.8 3.2 C 245.1 0.5 244.9 5.5 244.1 2.7 C 244.4 1.9 241.9 2.6 242.1 2.7 C 240.9 1.4 239.1 3.8 239.1 4.1 C 238.3 3.7 238.1 1.2 235.6 3.2 C 233.6 3.9 232.7 1.4 233.3 3.1 C 231.8 1.3 232.3 3.7 230.9 3.1 C 229.8 2.1 230.9 4.8 229.0 2.8 C 228.3 4.4 229.7 1.7 225.0 3.1 C 227.3 3.1 222.8 4.5 223.7 3.4 C 225.2 2.2 221.4 4.0 219.2 3.5 C 218.7 4.1 216.2 5.8 216.5 4.1 C 214.1 2.5 214.3 5.5 213.2 4.1 C 212.4 3.5 212.3 4.9 211.8 4.8 C 210.9 3.8 210.2 4.6 207.4 4.6 C 201.4 4.7 206.9 7.6 204.7 8.3 C 204.4 8.8 208.1 12.2 206.5 9.5 C 207.0 10.2 211.5 6.8 209.4 10.1 C 211.1 8.7 209.1 11.4 212.7 9.6 C 207.4 7.9 218.4 8.1 213.6 9.7 C 214.5 10.2 216.5 9.9 215.0 9.5 C 214.3 7.6 218.6 10.1 216.4 7.9 C 219.6 8.3 218.6 6.2 219.6 7.6 C 220.5 10.2 219.4 7.0 221.1 7.6 C 224.8 7.4 222.1 10.5 224.3 8.4 C 228.0 9.5 225.0 7.2 226.3 6.8 C 226.5 5.0 230.1 8.0 227.3 8.4 C 228.8 7.4 227.6 9.2 229.2 8.0 C 227.9 6.4 231.5 9.7 231.0 8.4 C 232.5 7.9 231.6 6.9 232.1 6.9 C 234.4 6.8 233.8 8.4 234.2 7.2 C 234.7 6.5 235.8 8.6 236.1 8.1 C 233.7 8.1 238.0 6.3 238.3 7.2 C 236.8 7.3 239.1 9.3 240.0 8.0 C 238.7 4.4 242.0 8.9 243.1 7.6 C 242.1 5.6 248.3 7.4 246.0 8.3 C 246.1 8.1 245.9 7.0 245.9 7.0 M 236.8 7.8 C 234.8 7.7 238.9 7.3 236.8 7.8 M 236.9 8.3 C 236.0 7.6 238.7 8.7 236.8 8.5 C 236.8 8.5 237.0 8.3 236.9 8.3 M 228.9 8.7 C 229.1 8.1 230.0 8.9 228.9 8.7 M 227.3 7.5 C 226.0 7.0 229.0 7.3 227.3 7.5 M 210.1 9.3 C 211.5 6.1 212.1 10.8 210.1 9.3 M 221.5 8.9 C 223.6 8.3 220.9 10.2 221.5 8.9 M 222.1 8.1 C 223.0 7.5 222.3 8.8 222.1 8.1 M 213.4 9.0 C 213.2 8.9 213.2 8.9 213.4 9.0 C 213.4 9.0 213.4 9.0 213.4 9.0 Z M 208.3 9.4 C 208.3 9.5 208.3 9.5 208.3 9.4 C 208.3 9.4 208.3 9.4 208.3 9.4 Z M 218.3 8.2 C 219.9 8.8 215.7 8.7 218.3 8.2 C 218.3 8.2 218.3 8.2 218.3 8.2 Z M 210.2 4.6 C 210.3 4.6 210.3 4.6 210.2 4.6 C 210.2 4.6 210.2 4.6 210.2 4.6 Z M 238.3 6.4 C 238.4 6.3 238.4 6.3 238.3 6.4 C 238.3 6.4 238.3 6.4 238.3 6.4 Z M 244.3 7.4 C 244.3 7.0 245.4 7.7 244.3 7.4 C 244.3 7.4 244.3 7.4 244.3 7.4 Z M 249.3 4.0 C 249.4 4.0 249.4 4.0 249.3 4.0 C 249.3 4.0 249.3 4.0 249.3 4.0 Z M 240.3 4.7 C 240.4 4.7 240.4 4.7 240.3 4.7 C 240.3 4.7 240.3 4.7 240.3 4.7 Z M 239.5 7.0 C 240.5 8.6 237.2 6.6 239.5 7.0 C 239.5 7.0 239.5 7.0 239.5 7.0 Z M 219.9 3.9 C 219.9 4.6 218.5 3.8 219.9 3.9 C 219.9 3.9 219.9 3.9 219.9 3.9 Z M 227.1 6.9 C 226.9 7.2 226.2 6.7 227.1 6.9 C 227.1 6.9 227.1 6.9 227.1 6.9 Z M 230.4 8.9 C 230.2 9.3 229.6 8.8 230.4 8.9 C 230.4 8.9 230.4 8.9 230.4 8.9 Z M 244.2 7.9 C 244.1 8.0 244.1 8.0 244.2 7.9 C 244.2 7.9 244.2 7.9 244.2 7.9 Z M 242.1 6.6 C 243.6 8.2 239.7 5.8 242.1 6.6 C 242.1 6.6 242.1 6.6 242.1 6.6 Z M 244.6 6.2 C 243.8 5.6 246.6 6.4 244.6 6.2 M 243.1 3.8 C 241.3 4.5 244.8 1.0 243.1 3.8 C 243.1 3.8 243.1 3.8 243.1 3.8 Z M 233.8 3.4 C 233.7 3.3 233.7 3.3 233.8 3.4 C 233.8 3.4 233.8 3.4 233.8 3.4 Z M 234.9 7.9 C 233.3 7.9 235.9 7.5 234.9 7.9 C 234.9 7.9 234.9 7.9 234.9 7.9 Z M 248.9 8.1 C 247.2 8.0 249.9 7.7 248.9 8.1 C 248.9 8.1 248.9 8.1 248.9 8.1 Z M 228.5 5.1 C 225.9 5.5 230.0 4.2 228.5 5.1 C 228.5 5.1 228.5 5.1 228.5 5.1 Z M 219.1 7.5 C 219.0 7.5 219.0 7.5 219.1 7.5 C 219.1 7.5 219.1 7.5 219.1 7.5 Z M 217.4 8.3 C 217.4 8.3 217.4 8.3 217.4 8.3 C 217.4 8.3 217.4 8.3 217.4 8.3 Z M 210.1 7.4 C 209.9 7.4 209.9 7.4 210.1 7.4 C 210.1 7.4 210.1 7.4 210.1 7.4 Z M 215.9 9.2 C 215.9 9.2 215.9 9.2 215.9 9.2 C 215.9 9.2 215.9 9.2 215.9 9.2 Z M 210.9 9.3 C 210.8 9.2 210.8 9.2 210.9 9.3 C 210.9 9.3 210.9 9.3 210.9 9.3 Z M 211.7 10.5 C 211.6 10.5 211.6 10.5 211.7 10.5 C 211.7 10.5 211.7 10.5 211.7 10.5 Z M 222.3 2.8 C 222.2 2.8 222.2 2.8 222.3 2.8 C 222.3 2.8 222.3 2.8 222.3 2.8 Z M 241.4 8.4 C 241.3 8.3 241.3 8.3 241.4 8.4 C 241.4 8.4 241.4 8.4 241.4 8.4 Z M 211.2 8.6 C 211.2 8.6 211.2 8.6 211.2 8.6 C 211.2 8.6 211.2 8.6 211.2 8.6 Z M 223.4 6.4 C 223.3 5.1 224.6 8.0 223.1 6.5 C 223.1 6.4 223.5 6.6 223.4 6.4 M 221.6 4.3 C 221.6 4.3 221.6 4.3 221.6 4.3 C 221.6 4.3 221.6 4.3 221.6 4.3 Z M 227.2 3.1 C 227.3 3.1 227.3 3.1 227.2 3.1 C 227.2 3.1 227.2 3.1 227.2 3.1 Z M 216.8 9.4 C 217.1 10.1 215.4 8.9 217.0 9.3 M 209.8 5.1 C 210.1 5.8 208.3 4.7 210.0 5.1 M 250.7 7.6 C 251.0 7.0 251.8 7.9 250.7 7.6 M 228.4 2.4 C 228.6 1.8 229.5 2.7 228.4 2.4 M 225.9 4.2 C 226.2 4.9 224.4 3.7 226.1 4.1 M 213.6 4.8 C 213.5 4.8 213.5 4.8 213.6 4.8 C 213.6 4.8 213.6 4.8 213.6 4.8 Z M 232.5 7.8 C 232.4 7.8 232.4 7.8 232.5 7.8 C 232.5 7.8 232.5 7.8 232.5 7.8 Z M 225.5 6.6 C 226.5 7.5 224.2 6.0 225.5 6.6 M 234.4 6.0 C 235.8 7.2 232.2 5.6 234.4 6.0 M 206.8 5.2 C 208.5 6.5 205.6 4.5 206.8 5.2 M 214.7 8.1 C 216.3 9.5 213.5 7.4 214.7 8.1 M 231.0 7.2 C 231.2 8.0 229.5 6.8 231.0 7.2 M 247.1 7.7 C 248.5 7.8 245.1 8.3 247.1 7.7 M 217.3 4.4 C 217.2 4.4 217.2 4.4 217.3 4.4 C 217.3 4.4 217.3 4.4 217.3 4.4 Z M 242.1 1.9 C 242.0 1.9 242.0 1.9 242.1 1.9 C 242.1 1.9 242.1 1.9 242.1 1.9 Z M 205.5 10.3 C 205.5 10.3 205.5 10.3 205.5 10.3 C 205.5 10.3 205.5 10.3 205.5 10.3 Z M 215.5 7.4 C 215.4 7.3 215.4 7.3 215.5 7.4 C 215.5 7.4 215.5 7.4 215.5 7.4 Z M 208.4 10.2 C 208.3 10.1 208.3 10.1 208.4 10.2 C 208.4 10.2 208.4 10.2 208.4 10.2 Z M 220.1 5.8 C 220.1 5.8 220.1 5.8 220.1 5.8 C 220.1 5.8 220.1 5.8 220.1 5.8 Z M 221.4 9.6 C 221.3 9.5 221.3 9.5 221.4 9.6 C 221.4 9.6 221.4 9.6 221.4 9.6 Z M 226.4 7.6 C 226.4 7.6 226.4 7.6 226.4 7.6 C 226.4 7.6 226.4 7.6 226.4 7.6 Z M 219.0 9.4 C 216.0 9.9 220.5 8.0 219.0 9.4 C 219.0 9.4 219.0 9.4 219.0 9.4 Z M 224.1 5.2 C 224.0 5.2 224.0 5.2 224.1 5.2 C 224.1 5.2 224.1 5.2 224.1 5.2 Z M 224.7 7.9 C 222.8 9.1 223.5 6.1 224.7 7.9 M 233.4 8.4 C 232.8 9.0 233.1 7.5 233.4 8.4 M 236.8 3.2 C 236.8 3.2 236.8 3.2 236.8 3.2 C 236.8 3.2 236.8 3.2 236.8 3.2 Z M 235.8 3.6 C 235.7 3.6 235.7 3.6 235.8 3.6 C 235.8 3.6 235.8 3.6 235.8 3.6 Z M 235.5 8.5 C 235.5 8.5 235.5 8.5 235.5 8.5 C 235.5 8.5 235.5 8.5 235.5 8.5 Z M 235.7 2.2 C 235.6 2.2 235.6 2.2 235.7 2.2 C 235.7 2.2 235.7 2.2 235.7 2.2 Z M 222.5 9.4 C 222.5 9.4 222.5 9.4 222.5 9.4 C 222.5 9.4 222.5 9.4 222.5 9.4 Z M 207.0 10.9 C 206.9 10.9 206.9 10.9 207.0 10.9 C 207.0 10.9 207.0 10.9 207.0 10.9 Z M 246.6 3.6 C 246.5 3.6 246.5 3.6 246.6 3.6 C 246.6 3.6 246.6 3.6 246.6 3.6 Z M 220.8 8.0 C 220.7 7.9 220.7 7.9 220.8 8.0 C 220.8 8.0 220.8 8.0 220.8 8.0 Z M 239.1 3.4 C 239.0 3.3 239.0 3.3 239.1 3.4 C 239.1 3.4 239.1 3.4 239.1 3.4 Z M 221.8 8.2 C 221.8 8.2 221.8 8.2 221.8 8.2 C 221.8 8.2 221.8 8.2 221.8 8.2 Z M 217.7 4.1 C 217.7 4.0 217.7 4.0 217.7 4.1 C 217.7 4.1 217.7 4.1 217.7 4.1 Z M 214.3 3.5 C 214.2 3.5 214.2 3.5 214.3 3.5 C 214.3 3.5 214.3 3.5 214.3 3.5 Z M 218.2 6.7 C 218.1 6.7 218.1 6.7 218.2 6.7 C 218.2 6.7 218.2 6.7 218.2 6.7 Z M 240.3 5.0 C 246.7 6.3 235.2 5.7 240.3 5.0 M 217.1 6.5 C 221.5 6.4 213.8 8.3 217.1 6.5 C 216.7 6.9 217.1 6.5 217.1 6.5 M 204.1 11.1 C 205.7 9.5 205.5 8.2 204.6 6.8 C 203.6 6.2 204.0 9.0 203.7 6.6 C 205.6 5.9 202.3 3.2 202.8 6.2 C 200.2 7.0 202.1 4.3 200.7 5.8 C 197.9 6.5 199.2 5.3 197.1 5.9 C 196.1 7.7 195.7 5.2 195.4 6.9 C 196.2 5.0 193.2 7.7 193.0 7.0 C 194.7 5.6 185.6 8.2 190.7 7.9 C 188.8 9.0 189.0 7.5 188.2 7.5 C 187.5 8.6 184.7 7.3 183.6 8.5 C 183.9 8.7 184.6 8.7 184.8 9.0 C 185.3 9.5 183.4 9.1 183.5 9.1 C 182.8 9.6 179.7 11.3 182.9 8.8 C 182.9 8.0 180.1 9.8 180.0 9.1 C 177.0 9.7 179.6 10.8 178.0 9.9 C 175.8 10.4 174.3 10.7 174.4 10.9 C 173.0 11.0 172.5 10.2 171.6 11.4 C 168.5 10.2 170.6 15.2 168.7 12.0 C 168.2 13.0 166.9 11.0 167.6 13.1 C 168.2 11.9 162.7 12.6 165.4 13.5 C 164.9 14.2 160.9 12.4 162.0 14.5 C 161.2 16.4 161.9 17.9 164.9 18.7 C 164.2 17.5 167.9 19.3 165.4 17.7 C 163.0 17.5 169.3 15.8 168.1 16.9 C 168.5 19.6 170.8 14.5 172.5 16.0 C 171.2 15.3 176.2 13.6 175.2 15.8 C 176.2 15.8 176.2 14.8 177.5 15.7 C 174.4 16.2 178.2 13.4 178.3 14.6 C 177.9 15.4 182.7 15.0 182.0 14.0 C 179.8 11.7 183.3 14.3 183.9 13.1 C 186.3 12.0 183.9 15.5 185.5 13.1 C 186.0 13.4 189.5 12.7 187.4 13.7 C 186.5 13.6 188.9 10.4 189.7 12.6 C 186.2 14.5 194.1 12.6 192.7 12.1 C 186.8 11.8 198.5 9.6 194.2 11.6 C 197.0 12.5 193.6 12.2 196.7 11.2 C 196.1 10.5 198.5 9.5 198.1 11.0 C 199.0 13.1 198.6 8.0 201.0 10.7 C 201.4 11.9 204.7 9.2 203.5 10.8 C 203.5 11.0 204.0 11.2 204.1 11.1 M 202.9 11.0 C 203.3 10.5 203.7 11.5 202.9 11.0 M 203.3 10.5 C 203.4 10.5 203.4 10.5 203.3 10.5 C 203.3 10.5 203.3 10.5 203.3 10.5 Z M 197.1 11.0 C 197.2 11.1 197.2 11.1 197.1 11.0 C 197.1 11.0 197.1 11.0 197.1 11.0 Z M 191.3 6.4 C 191.4 6.4 191.4 6.4 191.3 6.4 C 191.3 6.4 191.3 6.4 191.3 6.4 Z M 193.0 11.6 C 193.1 11.6 193.1 11.6 193.0 11.6 C 193.0 11.6 193.0 11.6 193.0 11.6 Z M 199.3 10.4 C 199.3 10.4 199.3 10.4 199.3 10.4 C 199.3 10.4 199.3 10.4 199.3 10.4 Z M 193.5 12.3 C 193.1 11.5 195.0 12.7 193.5 12.4 C 193.4 12.4 193.7 12.4 193.5 12.3 M 188.3 13.6 C 188.2 13.5 188.2 13.5 188.3 13.6 M 175.4 9.6 C 175.3 9.5 175.3 9.5 175.4 9.6 M 175.9 16.2 C 175.8 16.2 175.8 16.2 175.9 16.2 M 182.9 13.8 C 181.3 14.2 182.5 13.4 182.9 13.8 M 171.7 16.8 C 173.8 16.8 169.7 17.7 171.7 16.8 M 169.9 17.7 C 169.7 17.7 169.7 17.7 169.9 17.7 M 178.7 15.3 C 178.8 15.2 178.8 15.2 178.7 15.3 C 178.7 15.3 178.7 15.3 178.7 15.3 Z M 183.7 14.0 C 185.9 14.0 181.7 15.1 183.7 14.0 M 196.5 11.9 C 195.4 12.5 196.4 10.9 196.5 11.9 M 198.9 11.1 C 198.9 11.1 198.9 11.1 198.9 11.1 C 198.9 11.1 198.9 11.1 198.9 11.1 Z M 174.9 16.1 C 174.9 16.0 174.9 16.0 174.9 16.1 C 174.9 16.1 174.9 16.1 174.9 16.1 Z M 172.6 16.7 C 172.7 16.7 172.7 16.7 172.6 16.7 C 172.6 16.7 172.6 16.7 172.6 16.7 Z M 167.3 11.8 C 167.4 11.8 167.4 11.8 167.3 11.8 C 167.3 11.8 167.3 11.8 167.3 11.8 Z M 196.7 8.9 C 198.3 9.1 195.4 11.1 195.4 9.6 C 195.2 9.0 196.5 9.1 196.7 8.9 M 184.8 11.8 C 184.0 9.9 186.9 14.3 184.8 11.8 M 169.3 16.5 C 167.2 14.5 171.7 17.7 169.3 16.5 M 166.3 17.7 C 165.3 17.5 172.0 15.9 167.5 17.8 C 167.2 18.3 166.7 17.9 166.3 17.7 M 188.0 12.6 C 187.4 11.6 190.6 12.6 188.0 12.6 M 177.7 11.2 C 177.1 12.1 175.2 13.2 175.8 11.8 C 175.5 10.2 178.5 10.4 177.7 11.2 M 202.3 9.9 C 201.2 11.9 202.1 8.4 202.3 9.9 M 196.0 10.7 C 196.0 10.8 196.0 10.8 196.0 10.7 C 196.0 10.7 196.0 10.7 196.0 10.7 Z M 193.6 11.4 C 193.5 11.3 193.5 11.3 193.6 11.4 M 201.5 11.7 C 201.4 11.5 201.4 11.5 201.5 11.7 M 178.1 13.1 C 178.0 12.9 178.0 12.9 178.1 13.1 M 183.3 13.2 C 180.6 11.9 184.5 12.6 183.3 13.2 M 188.4 8.6 C 187.5 7.9 189.9 8.3 188.4 8.6 M 179.6 14.7 C 177.6 13.4 181.5 12.6 179.6 14.7 M 184.5 13.1 C 184.4 13.2 184.4 13.2 184.5 13.1 C 184.5 13.1 184.5 13.1 184.5 13.1 Z M 177.0 11.2 C 177.1 11.1 177.1 11.1 177.0 11.2 C 177.0 11.2 177.0 11.2 177.0 11.2 Z M 176.3 11.4 C 176.4 11.3 176.4 11.3 176.3 11.4 C 176.3 11.4 176.3 11.4 176.3 11.4 Z M 177.6 15.3 C 177.7 15.3 177.7 15.3 177.6 15.3 C 177.6 15.3 177.6 15.3 177.6 15.3 Z M 198.3 6.4 C 196.6 6.5 199.7 5.9 198.3 6.4 C 198.3 6.4 198.3 6.4 198.3 6.4 Z M 191.6 12.6 C 188.6 11.8 193.3 11.0 191.6 12.6 C 191.6 12.6 191.6 12.6 191.6 12.6 Z M 188.0 11.0 C 188.0 10.9 188.0 10.9 188.0 11.0 C 188.0 11.0 188.0 11.0 188.0 11.0 Z M 180.9 15.5 C 180.9 15.4 180.9 15.4 180.9 15.5 C 180.9 15.5 180.9 15.5 180.9 15.5 Z M 197.4 6.3 C 197.4 6.2 197.4 6.2 197.4 6.3 C 197.4 6.3 197.4 6.3 197.4 6.3 Z M 172.8 15.5 C 172.8 15.4 172.8 15.4 172.8 15.5 C 172.8 15.5 172.8 15.5 172.8 15.5 Z M 181.5 9.9 C 181.0 10.7 181.3 9.4 181.5 9.9 C 181.5 9.9 181.5 9.9 181.5 9.9 Z M 179.0 10.4 C 178.9 10.5 178.9 10.5 179.0 10.4 C 179.0 10.4 179.0 10.4 179.0 10.4 Z M 169.4 18.0 C 169.3 18.0 169.3 18.0 169.4 18.0 C 169.4 18.0 169.4 18.0 169.4 18.0 Z M 172.3 10.3 C 172.2 10.3 172.2 10.3 172.3 10.3 C 172.3 10.3 172.3 10.3 172.3 10.3 Z M 170.7 12.8 C 170.7 12.8 170.7 12.8 170.7 12.8 C 170.7 12.8 170.7 12.8 170.7 12.8 Z M 178.0 14.8 C 175.6 15.7 178.4 13.9 178.0 14.8 C 178.0 14.8 178.0 14.8 178.0 14.8 Z M 164.8 14.9 C 164.7 14.8 164.7 14.8 164.8 14.9 C 164.8 14.9 164.8 14.9 164.8 14.9 Z M 164.2 17.5 C 164.1 17.4 164.1 17.4 164.2 17.5 C 164.2 17.5 164.2 17.5 164.2 17.5 Z M 163.9 18.9 C 163.8 18.8 163.8 18.8 163.9 18.9 C 163.9 18.9 163.9 18.9 163.9 18.9 Z M 193.2 8.9 C 193.3 9.0 193.3 9.0 193.2 8.9 C 193.2 8.9 193.2 8.9 193.2 8.9 Z M 194.9 12.5 C 194.9 12.5 194.9 12.5 194.9 12.5 C 194.9 12.5 194.9 12.5 194.9 12.5 Z M 191.5 13.2 C 191.5 13.3 191.5 13.3 191.5 13.2 C 191.5 13.2 191.5 13.2 191.5 13.2 Z M 193.5 6.5 C 193.5 6.5 193.5 6.5 193.5 6.5 C 193.5 6.5 193.5 6.5 193.5 6.5 Z M 181.2 12.1 C 181.3 12.1 181.3 12.1 181.2 12.1 C 181.2 12.1 181.2 12.1 181.2 12.1 Z M 179.7 10.8 C 179.8 10.9 179.8 10.9 179.7 10.8 C 179.7 10.8 179.7 10.8 179.7 10.8 Z M 182.3 8.2 C 182.3 8.2 182.3 8.2 182.3 8.2 C 182.3 8.2 182.3 8.2 182.3 8.2 Z M 178.5 9.7 C 178.6 9.7 178.6 9.7 178.5 9.7 C 178.5 9.7 178.5 9.7 178.5 9.7 Z M 202.4 5.9 C 202.4 5.8 202.4 5.8 202.4 5.9 C 202.4 5.9 202.4 5.9 202.4 5.9 Z M 203.0 8.8 C 203.1 8.7 203.1 8.7 203.0 8.8 C 203.0 8.8 203.0 8.8 203.0 8.8 Z M 181.3 14.3 C 180.9 15.0 180.0 13.7 181.3 14.3 M 186.0 12.9 C 186.0 12.9 186.0 12.9 186.0 12.9 C 186.0 12.9 186.0 12.9 186.0 12.9 Z M 173.3 16.0 C 172.4 15.0 175.7 16.0 173.3 16.0 C 173.3 16.0 173.3 16.0 173.3 16.0 Z M 174.7 10.6 C 174.6 10.6 174.6 10.6 174.7 10.6 C 174.7 10.6 174.7 10.6 174.7 10.6 Z M 173.5 11.4 C 173.4 11.3 173.4 11.3 173.5 11.4 C 173.5 11.4 173.5 11.4 173.5 11.4 Z M 167.5 16.2 C 167.3 16.1 167.3 16.1 167.5 16.2 M 186.8 13.8 C 186.0 13.5 186.2 13.5 186.8 13.8 M 171.7 16.3 C 171.8 16.3 171.8 16.3 171.7 16.3 C 171.7 16.3 171.7 16.3 171.7 16.3 Z M 166.2 17.2 C 166.2 17.2 166.2 17.2 166.2 17.2 C 166.2 17.2 166.2 17.2 166.2 17.2 Z M 190.1 12.4 C 189.7 11.0 190.5 11.2 190.1 12.4 M 199.8 10.4 C 199.7 10.3 199.7 10.3 199.8 10.4 C 199.8 10.4 199.8 10.4 199.8 10.4 Z M 159.1 20.3 C 162.1 21.0 161.4 18.9 161.4 18.9 C 162.0 21.8 163.3 17.1 162.7 16.7 C 162.7 16.3 159.2 11.9 158.3 15.4 C 158.0 15.9 157.4 15.1 157.1 15.2 C 154.0 16.2 159.7 16.0 155.9 17.2 C 155.1 17.0 155.1 14.4 153.5 16.8 C 153.3 16.6 150.5 16.5 151.8 17.3 C 150.3 16.6 149.9 18.1 148.9 18.8 C 147.7 18.5 149.1 16.8 146.0 19.3 C 143.8 17.9 144.5 21.5 142.4 19.9 C 141.5 20.1 141.4 24.1 142.7 21.4 C 142.5 21.7 144.4 22.9 141.4 23.3 C 141.7 22.8 141.8 18.6 138.1 22.0 C 137.4 22.2 136.1 23.7 135.6 23.5 C 137.6 22.2 131.9 23.2 132.9 24.1 C 129.1 24.8 131.8 25.5 128.8 25.4 C 126.8 26.3 130.2 26.7 127.3 26.9 C 125.5 27.9 126.4 26.5 126.6 26.5 C 124.9 27.0 124.6 27.9 124.0 28.1 C 123.6 28.1 122.5 27.8 122.5 28.8 C 121.5 31.2 123.8 32.0 123.8 33.9 C 125.4 34.0 123.8 32.4 125.2 33.2 C 125.3 31.9 125.3 33.2 128.6 31.5 C 128.4 31.3 127.2 31.0 128.0 30.5 C 129.4 30.0 129.6 33.1 131.0 30.3 C 128.1 30.8 134.2 27.8 131.6 28.3 C 134.4 26.7 132.5 28.2 135.0 27.9 C 134.1 26.1 135.9 29.7 136.1 28.0 C 136.7 28.6 140.0 26.9 137.0 26.8 C 140.4 24.9 138.6 26.8 140.2 27.3 C 141.9 26.7 139.2 24.3 141.1 26.1 C 143.7 26.3 140.8 25.0 143.0 26.1 C 141.7 24.8 144.6 25.5 143.4 24.1 C 147.0 22.5 143.6 26.0 145.8 23.9 C 144.9 24.1 146.1 26.3 147.1 24.2 C 145.5 21.8 150.1 25.9 147.7 22.7 C 152.5 19.8 149.0 23.9 151.9 22.9 C 152.7 22.6 150.7 22.0 151.4 21.7 C 155.3 21.0 152.5 23.0 153.9 20.6 C 157.4 18.9 155.4 21.7 157.3 21.3 C 157.2 20.4 158.2 18.5 159.1 20.3 M 155.6 20.5 C 155.0 21.3 154.9 20.0 155.6 20.5 M 163.3 19.0 C 162.7 19.8 162.7 18.6 163.3 19.0 M 152.7 22.0 C 151.8 22.9 152.0 21.1 152.7 22.0 M 132.9 28.5 C 134.2 27.9 132.4 29.2 132.9 28.5 M 160.4 20.0 C 159.5 21.0 159.8 19.1 160.4 20.0 M 161.3 18.2 C 161.2 18.2 161.2 18.2 161.3 18.2 M 131.6 30.7 C 131.5 30.7 131.5 30.7 131.6 30.7 M 136.7 28.6 C 135.6 29.0 137.2 28.0 136.7 28.6 M 134.5 22.7 C 133.4 23.1 135.0 22.1 134.5 22.7 M 128.9 32.0 C 128.0 32.9 128.3 31.5 128.9 32.0 M 125.5 32.0 C 124.8 33.0 124.6 31.8 125.5 32.0 M 155.6 18.2 C 155.6 18.1 155.6 18.1 155.6 18.2 C 155.6 18.2 155.6 18.2 155.6 18.2 Z M 145.2 20.0 C 146.6 20.2 143.5 19.8 145.2 20.0 M 148.4 23.2 C 147.2 22.3 149.9 22.8 148.4 23.2 C 148.4 23.2 148.4 23.2 148.4 23.2 Z M 149.9 22.1 C 149.9 22.0 149.9 22.0 149.9 22.1 C 149.9 22.1 149.9 22.1 149.9 22.1 Z M 144.4 24.0 C 144.4 23.9 144.4 23.9 144.4 24.0 C 144.4 24.0 144.4 24.0 144.4 24.0 Z M 145.5 23.5 C 145.8 23.0 146.2 23.5 145.5 23.5 C 145.5 23.5 145.5 23.5 145.5 23.5 Z M 136.1 22.7 C 136.5 22.3 136.8 22.7 136.1 22.7 C 136.1 22.7 136.1 22.7 136.1 22.7 Z M 147.1 22.4 C 146.8 21.2 148.1 22.9 147.1 22.4 C 147.1 22.4 147.1 22.4 147.1 22.4 Z M 140.1 21.8 C 139.8 22.3 138.7 21.0 140.1 21.8 M 130.4 31.0 C 130.1 31.5 129.0 30.3 130.4 31.0 M 141.8 26.7 C 141.4 27.2 140.4 25.9 141.8 26.7 M 155.1 21.2 C 154.9 21.1 154.9 21.1 155.1 21.2 M 146.8 18.1 C 146.2 18.9 146.2 17.7 146.8 18.1 M 158.2 14.9 C 157.5 15.6 157.6 14.5 158.2 14.9 M 129.7 24.9 C 129.8 25.2 128.4 25.2 129.7 24.9 M 139.7 25.3 C 138.7 25.5 137.4 25.3 139.5 24.6 C 139.7 24.8 139.2 25.2 139.7 25.3 C 139.7 25.3 139.7 25.3 139.7 25.3 Z M 135.0 24.0 C 134.9 24.0 134.9 24.0 135.0 24.0 M 138.4 27.1 C 138.2 27.0 138.2 27.0 138.4 27.1 M 132.6 29.4 C 132.4 29.2 132.4 29.2 132.6 29.4 M 132.0 30.0 C 132.0 29.9 132.0 29.9 132.0 30.0 C 132.0 30.0 132.0 30.0 132.0 30.0 Z M 126.0 33.3 C 126.0 33.2 126.0 33.2 126.0 33.3 C 126.0 33.3 126.0 33.3 126.0 33.3 Z M 134.4 28.4 C 134.3 28.4 134.3 28.4 134.4 28.4 C 134.4 28.4 134.4 28.4 134.4 28.4 Z M 127.2 26.2 C 127.2 26.2 127.2 26.2 127.2 26.2 C 127.2 26.2 127.2 26.2 127.2 26.2 Z M 128.2 26.6 C 128.1 26.6 128.1 26.6 128.2 26.6 C 128.2 26.6 128.2 26.6 128.2 26.6 Z M 158.6 20.5 C 158.0 21.6 157.5 18.5 158.6 20.5 M 125.4 27.9 C 124.2 27.5 126.8 27.1 125.4 27.9 C 125.4 27.9 125.4 27.9 125.4 27.9 Z M 134.6 27.2 C 134.5 27.0 134.5 27.0 134.6 27.2 M 131.6 30.0 C 131.5 29.9 131.5 29.9 131.6 30.0 M 148.8 24.3 C 148.7 24.2 148.7 24.2 148.8 24.3 M 127.1 31.8 C 124.4 32.7 127.6 29.6 127.1 31.8 M 149.7 22.7 C 149.8 22.8 149.8 22.8 149.7 22.7 M 142.7 22.7 C 140.8 23.5 143.1 21.8 142.7 22.7 M 138.6 26.0 C 138.6 26.0 138.6 26.0 138.6 26.0 C 138.6 26.0 138.6 26.0 138.6 26.0 Z M 141.3 25.0 C 142.5 24.3 141.7 25.2 141.3 25.0 C 141.3 25.0 141.3 25.0 141.3 25.0 Z M 156.9 19.7 C 155.1 20.1 158.6 18.8 156.9 19.7 C 156.9 19.7 156.9 19.7 156.9 19.7 Z M 127.1 28.5 C 127.2 28.4 127.2 28.4 127.1 28.5 C 127.1 28.5 127.1 28.5 127.1 28.5 Z M 135.0 29.1 C 135.7 28.5 135.5 29.3 135.0 29.1 C 135.0 29.1 135.0 29.1 135.0 29.1 Z M 125.1 33.7 C 125.7 33.0 125.6 33.9 125.1 33.7 C 125.1 33.7 125.1 33.7 125.1 33.7 Z M 159.1 19.3 C 152.0 19.3 168.0 17.2 159.1 19.3 C 159.1 19.3 159.1 19.3 159.1 19.3 Z M 140.5 26.2 C 140.5 26.1 140.5 26.1 140.5 26.2 C 140.5 26.2 140.5 26.2 140.5 26.2 Z M 152.5 22.8 C 152.6 22.7 152.6 22.7 152.5 22.8 C 152.5 22.8 152.5 22.8 152.5 22.8 Z M 154.2 21.0 C 154.2 20.9 154.2 20.9 154.2 21.0 C 154.2 21.0 154.2 21.0 154.2 21.0 Z M 152.1 16.5 C 152.1 16.4 152.1 16.4 152.1 16.5 C 152.1 16.5 152.1 16.5 152.1 16.5 Z M 152.1 18.9 C 152.1 18.7 152.1 18.7 152.1 18.9 C 152.1 18.9 152.1 18.9 152.1 18.9 Z M 156.1 16.7 C 156.1 16.6 156.1 16.6 156.1 16.7 C 156.1 16.7 156.1 16.7 156.1 16.7 Z M 155.8 16.1 C 155.8 16.0 155.8 16.0 155.8 16.1 C 155.8 16.1 155.8 16.1 155.8 16.1 Z M 131.0 28.8 C 131.1 28.6 131.1 28.6 131.0 28.8 C 131.0 28.8 131.0 28.8 131.0 28.8 Z M 132.4 25.9 C 131.2 27.2 132.4 24.8 132.4 25.9 C 132.4 25.9 132.4 25.9 132.4 25.9 Z M 145.9 21.7 C 144.6 22.5 146.5 20.8 145.9 21.7 C 145.9 21.7 145.9 21.7 145.9 21.7 Z M 143.5 19.7 C 143.4 19.7 143.4 19.7 143.5 19.7 C 143.5 19.7 143.5 19.7 143.5 19.7 Z M 154.6 22.2 C 154.6 22.0 154.6 22.0 154.6 22.2 C 154.6 22.2 154.6 22.2 154.6 22.2 Z M 156.8 20.5 C 156.6 19.5 157.8 20.8 156.8 20.5 M 144.4 25.5 C 144.3 25.3 144.3 25.3 144.4 25.5 C 144.4 25.5 144.4 25.5 144.4 25.5 Z M 135.9 27.0 C 135.9 26.9 135.9 26.9 135.9 27.0 C 135.9 27.0 135.9 27.0 135.9 27.0 Z M 128.4 31.0 C 128.4 30.8 128.4 30.8 128.4 31.0 C 128.4 31.0 128.4 31.0 128.4 31.0 Z M 139.4 27.2 C 139.4 27.1 139.4 27.1 139.4 27.2 C 139.4 27.2 139.4 27.2 139.4 27.2 Z M 142.8 24.9 C 142.8 24.7 142.8 24.7 142.8 24.9 C 142.8 24.9 142.8 24.9 142.8 24.9 Z M 126.1 30.4 C 126.2 30.3 126.2 30.3 126.1 30.4 C 126.1 30.4 126.1 30.4 126.1 30.4 Z M 138.6 27.7 C 138.6 27.7 138.6 27.7 138.6 27.7 C 138.6 27.7 138.6 27.7 138.6 27.7 Z M 135.1 25.5 C 135.1 25.4 135.1 25.4 135.1 25.5 C 135.1 25.5 135.1 25.5 135.1 25.5 Z M 156.9 22.1 C 156.9 22.0 156.9 22.0 156.9 22.1 C 156.9 22.1 156.9 22.1 156.9 22.1 Z M 126.7 31.7 C 126.7 31.6 126.7 31.6 126.7 31.7 C 126.7 31.7 126.7 31.7 126.7 31.7 Z M 126.6 32.7 C 126.6 32.7 126.6 32.7 126.6 32.7 C 126.6 32.7 126.6 32.7 126.6 32.7 Z M 130.0 25.7 C 133.0 25.1 127.6 27.0 130.1 27.2 C 126.2 29.2 129.4 26.0 130.0 25.7 C 130.0 25.7 130.0 25.7 130.0 25.7 Z M 123.2 34.8 C 124.0 32.8 123.5 31.5 122.2 30.5 C 121.1 30.2 122.4 32.8 121.3 30.6 C 122.8 29.4 119.0 27.8 120.4 30.5 C 118.3 32.0 119.1 28.9 118.3 30.7 C 116.1 32.2 116.9 30.7 115.1 31.8 C 114.8 33.9 113.7 31.6 114.0 33.3 C 114.1 31.3 112.2 34.8 111.8 34.1 C 113.0 32.3 105.5 37.5 110.1 35.6 C 108.7 37.3 108.3 35.8 107.6 36.0 C 107.4 37.3 104.4 36.9 103.8 38.4 C 104.1 38.4 104.7 38.2 105.0 38.4 C 105.6 38.8 103.7 39.0 103.9 38.9 C 103.4 39.7 101.1 42.2 103.2 38.9 C 102.9 38.1 101.0 40.6 100.7 39.9 C 98.1 41.5 100.9 41.7 99.1 41.4 C 97.3 42.5 95.9 43.3 96.1 43.5 C 94.9 44.0 94.1 43.3 93.6 44.7 C 90.4 44.6 94.0 48.7 91.2 46.2 C 91.0 47.4 89.1 45.8 90.5 47.6 C 90.7 46.3 85.8 48.7 88.6 48.7 C 88.4 49.5 84.0 49.1 85.7 50.7 C 85.6 52.7 86.8 53.9 89.8 53.8 C 88.8 52.9 92.8 53.3 90.0 52.6 C 87.7 53.2 92.9 49.6 92.3 51.1 C 93.4 53.4 93.9 48.0 96.1 48.8 C 94.6 48.6 98.6 45.4 98.4 47.8 C 99.3 47.4 99.0 46.5 100.5 47.0 C 97.8 48.4 100.4 44.6 100.9 45.7 C 100.8 46.6 105.1 44.8 104.1 44.1 C 101.3 42.5 105.4 43.9 105.5 42.6 C 107.4 40.8 106.3 44.8 107.0 42.1 C 107.6 42.2 110.5 40.6 108.9 42.1 C 108.1 42.2 109.2 38.5 110.7 40.4 C 108.1 43.2 114.6 39.0 113.2 39.0 C 107.7 40.5 117.7 35.0 114.5 38.1 C 117.2 38.1 114.0 38.9 116.5 37.0 C 115.8 36.5 117.6 34.8 117.8 36.4 C 119.2 38.1 117.2 33.4 120.2 35.2 C 121.0 36.3 123.1 32.7 122.5 34.6 C 122.5 34.8 123.1 34.8 123.2 34.8 M 122.1 35.0 C 122.2 34.4 123.0 35.3 122.1 35.0 M 122.3 34.4 C 122.3 34.4 122.3 34.4 122.3 34.4 C 122.3 34.4 122.3 34.4 122.3 34.4 Z M 116.9 36.7 C 116.9 36.8 116.9 36.8 116.9 36.7 C 116.9 36.7 116.9 36.7 116.9 36.7 Z M 110.1 34.0 C 110.2 34.0 110.2 34.0 110.1 34.0 C 110.1 34.0 110.1 34.0 110.1 34.0 Z M 113.3 38.4 C 113.4 38.4 113.4 38.4 113.3 38.4 C 113.3 38.4 113.3 38.4 113.3 38.4 Z M 118.6 35.4 C 118.6 35.4 118.6 35.4 118.6 35.4 C 118.6 35.4 118.6 35.4 118.6 35.4 Z M 114.0 39.0 C 113.4 38.4 115.5 38.9 114.0 39.1 C 114.0 39.1 114.2 39.0 114.0 39.0 M 109.7 41.7 C 109.6 41.6 109.6 41.6 109.7 41.7 M 96.6 41.9 C 96.5 41.8 96.5 41.8 96.6 41.9 M 99.3 48.0 C 99.1 47.9 99.1 47.9 99.3 48.0 M 104.9 43.5 C 103.6 44.4 104.3 43.3 104.9 43.5 M 95.5 49.8 C 97.5 49.2 94.0 51.3 95.5 49.8 M 94.2 51.2 C 94.0 51.3 94.0 51.3 94.2 51.2 M 101.5 46.2 C 101.5 46.1 101.5 46.1 101.5 46.2 C 101.5 46.2 101.5 46.2 101.5 46.2 Z M 105.6 43.5 C 107.6 42.8 104.2 45.2 105.6 43.5 M 116.6 37.7 C 115.8 38.6 116.1 36.8 116.6 37.7 M 118.5 36.3 C 118.5 36.2 118.5 36.2 118.5 36.3 C 118.5 36.3 118.5 36.3 118.5 36.3 Z M 98.2 48.1 C 98.3 48.1 98.3 48.1 98.2 48.1 C 98.2 48.1 98.2 48.1 98.2 48.1 Z M 96.4 49.5 C 96.4 49.4 96.4 49.4 96.4 49.5 C 96.4 49.5 96.4 49.5 96.4 49.5 Z M 89.8 46.5 C 89.9 46.4 89.9 46.4 89.8 46.5 C 89.8 46.5 89.8 46.5 89.8 46.5 Z M 115.8 34.8 C 117.3 34.5 115.3 37.3 114.9 35.8 C 114.4 35.4 115.7 35.0 115.8 34.8 M 106.0 41.1 C 104.6 39.5 108.7 42.8 106.0 41.1 M 93.2 50.3 C 90.6 49.1 95.8 50.6 93.2 50.3 M 90.9 52.4 C 89.8 52.5 95.5 48.9 92.0 52.1 C 91.8 52.6 91.3 52.4 90.9 52.4 M 109.2 40.9 C 108.2 40.1 111.5 40.1 109.2 40.9 M 99.2 42.7 C 99.0 43.7 97.6 45.3 97.7 43.8 C 96.9 42.4 99.7 41.7 99.2 42.7 M 121.2 34.2 C 120.8 36.4 120.5 32.7 121.2 34.2 M 115.7 36.7 C 115.8 36.8 115.8 36.8 115.7 36.7 C 115.7 36.7 115.7 36.7 115.7 36.7 Z M 113.8 38.1 C 113.6 38.0 113.6 38.0 113.8 38.1 M 121.0 36.0 C 120.8 36.0 120.8 36.0 121.0 36.0 M 100.3 44.3 C 100.1 44.2 100.1 44.2 100.3 44.3 M 105.0 42.9 C 102.1 42.4 105.9 41.9 105.0 42.9 M 108.2 37.0 C 107.2 36.6 109.5 36.3 108.2 37.0 M 102.1 45.4 C 99.9 44.8 103.2 42.8 102.1 45.4 M 106.1 42.4 C 106.0 42.5 106.0 42.5 106.1 42.4 C 106.1 42.4 106.1 42.4 106.1 42.4 Z M 98.6 42.8 C 98.6 42.8 98.6 42.8 98.6 42.8 C 98.6 42.8 98.6 42.8 98.6 42.8 Z M 98.0 43.3 C 98.1 43.2 98.1 43.2 98.0 43.3 C 98.0 43.3 98.0 43.3 98.0 43.3 Z M 100.5 46.6 C 100.6 46.5 100.6 46.5 100.5 46.6 C 100.5 46.6 100.5 46.6 100.5 46.6 Z M 116.5 32.0 C 114.9 32.6 117.5 31.1 116.5 32.0 C 116.5 32.0 116.5 32.0 116.5 32.0 Z M 112.4 39.8 C 109.4 39.9 113.4 37.8 112.4 39.8 C 112.4 39.8 112.4 39.8 112.4 39.8 Z M 108.6 39.3 C 108.6 39.3 108.6 39.3 108.6 39.3 C 108.6 39.3 108.6 39.3 108.6 39.3 Z M 103.6 45.8 C 103.5 45.7 103.5 45.7 103.6 45.8 C 103.6 45.8 103.6 45.8 103.6 45.8 Z M 115.6 32.1 C 115.6 32.0 115.6 32.0 115.6 32.1 C 115.6 32.1 115.6 32.1 115.6 32.1 Z M 96.1 48.3 C 96.1 48.2 96.1 48.2 96.1 48.3 C 96.1 48.3 96.1 48.3 96.1 48.3 Z M 102.3 40.3 C 102.1 41.2 101.9 39.9 102.3 40.3 C 102.3 40.3 102.3 40.3 102.3 40.3 Z M 100.2 41.6 C 100.1 41.6 100.1 41.6 100.2 41.6 C 100.2 41.6 100.2 41.6 100.2 41.6 Z M 93.8 51.7 C 93.7 51.7 93.7 51.7 93.8 51.7 C 93.8 51.7 93.8 51.7 93.8 51.7 Z M 93.9 43.5 C 93.9 43.6 93.9 43.6 93.9 43.5 C 93.9 43.5 93.9 43.5 93.9 43.5 Z M 93.3 46.3 C 93.3 46.3 93.3 46.3 93.3 46.3 C 93.3 46.3 93.3 46.3 93.3 46.3 Z M 100.7 46.0 C 98.8 47.6 100.8 45.1 100.7 46.0 C 100.7 46.0 100.7 46.0 100.7 46.0 Z M 88.5 50.2 C 88.4 50.2 88.4 50.2 88.5 50.2 C 88.5 50.2 88.5 50.2 88.5 50.2 Z M 88.8 52.9 C 88.7 52.8 88.7 52.8 88.8 52.9 C 88.8 52.9 88.8 52.9 88.8 52.9 Z M 89.0 54.2 C 88.9 54.2 88.9 54.2 89.0 54.2 C 89.0 54.2 89.0 54.2 89.0 54.2 Z M 112.7 35.8 C 112.7 35.9 112.7 35.9 112.7 35.8 C 112.7 35.8 112.7 35.8 112.7 35.8 Z M 115.3 38.7 C 115.3 38.8 115.3 38.8 115.3 38.7 C 115.3 38.7 115.3 38.7 115.3 38.7 Z M 112.5 40.4 C 112.5 40.5 112.5 40.5 112.5 40.4 C 112.5 40.4 112.5 40.4 112.5 40.4 Z M 112.1 33.5 C 112.2 33.5 112.2 33.5 112.1 33.5 C 112.1 33.5 112.1 33.5 112.1 33.5 Z M 102.8 42.4 C 102.9 42.5 102.9 42.5 102.8 42.4 C 102.8 42.4 102.8 42.4 102.8 42.4 Z M 101.0 41.7 C 101.1 41.7 101.1 41.7 101.0 41.7 C 101.0 41.7 101.0 41.7 101.0 41.7 Z M 102.4 38.5 C 102.5 38.5 102.5 38.5 102.4 38.5 C 102.4 38.5 102.4 38.5 102.4 38.5 Z M 99.5 41.0 C 99.5 41.0 99.5 41.0 99.5 41.0 C 99.5 41.0 99.5 41.0 99.5 41.0 Z M 119.9 30.3 C 119.9 30.3 119.9 30.3 119.9 30.3 C 119.9 30.3 119.9 30.3 119.9 30.3 Z M 121.5 32.8 C 121.5 32.7 121.5 32.7 121.5 32.8 C 121.5 32.8 121.5 32.8 121.5 32.8 Z M 103.5 44.5 C 103.4 45.3 102.2 44.3 103.5 44.5 M 107.4 41.8 C 107.4 41.7 107.4 41.7 107.4 41.8 C 107.4 41.8 107.4 41.8 107.4 41.8 Z M 96.8 48.5 C 95.6 47.9 98.9 47.8 96.8 48.5 C 96.8 48.5 96.8 48.5 96.8 48.5 Z M 96.3 43.0 C 96.2 43.0 96.2 43.0 96.3 43.0 C 96.3 43.0 96.3 43.0 96.3 43.0 Z M 95.5 44.1 C 95.3 44.1 95.3 44.1 95.5 44.1 C 95.5 44.1 95.5 44.1 95.5 44.1 Z M 91.4 50.5 C 91.2 50.5 91.2 50.5 91.4 50.5 M 108.5 42.4 C 107.6 42.3 107.8 42.3 108.5 42.4 M 95.4 49.4 C 95.4 49.3 95.4 49.3 95.4 49.4 C 95.4 49.4 95.4 49.4 95.4 49.4 Z M 90.5 51.9 C 90.6 51.9 90.6 51.9 90.5 51.9 C 90.5 51.9 90.5 51.9 90.5 51.9 Z M 111.0 40.1 C 110.2 38.9 110.9 38.9 111.0 40.1 M 119.0 35.3 C 119.0 35.2 119.0 35.2 119.0 35.3 C 119.0 35.3 119.0 35.3 119.0 35.3 Z M 85.0 57.1 C 87.9 56.9 86.7 55.1 86.6 55.0 C 88.1 57.6 87.8 52.7 87.1 52.5 C 86.9 52.2 82.3 49.1 82.6 52.7 C 82.4 53.3 81.7 52.8 81.3 52.9 C 78.8 54.9 84.1 52.9 80.9 55.2 C 80.1 55.3 79.3 52.8 78.4 55.6 C 78.2 55.5 75.6 56.3 77.0 56.6 C 75.4 56.5 75.5 58.1 74.8 59.0 C 73.5 59.1 74.4 57.0 72.2 60.5 C 69.7 59.9 71.5 63.0 68.9 62.2 C 68.1 62.8 69.4 66.6 69.7 63.5 C 69.6 63.9 71.8 64.4 69.1 65.8 C 69.2 65.2 68.0 61.2 65.5 65.6 C 64.9 66.1 64.1 68.0 63.6 68.0 C 65.1 66.0 60.0 68.9 61.1 69.4 C 57.8 71.3 60.6 71.1 57.7 72.1 C 55.9 73.6 59.3 72.8 56.6 74.0 C 55.2 75.6 55.6 73.9 55.8 73.8 C 54.3 74.9 54.3 75.9 53.8 76.3 C 53.4 76.5 52.2 76.5 52.6 77.5 C 52.3 80.1 54.8 80.0 55.4 81.9 C 57.0 81.5 54.9 80.5 56.5 80.7 C 56.3 79.5 56.6 80.7 59.3 77.9 C 59.0 77.8 57.8 77.9 58.4 77.2 C 59.6 76.3 60.8 79.1 61.2 75.9 C 58.7 77.4 63.6 72.5 61.2 73.9 C 63.5 71.4 62.1 73.4 64.4 72.3 C 63.0 70.9 65.9 73.7 65.5 72.0 C 66.2 72.4 68.9 69.7 66.0 70.6 C 68.7 67.6 67.5 70.1 69.2 69.9 C 70.7 68.9 67.3 67.4 69.7 68.5 C 72.2 67.8 69.0 67.6 71.5 67.9 C 69.9 67.1 72.9 66.8 71.2 65.8 C 74.2 63.2 72.0 67.6 73.4 64.9 C 72.7 65.4 74.5 67.0 74.9 64.7 C 72.5 63.0 78.2 65.3 74.9 63.1 C 78.6 58.8 76.6 63.8 79.0 61.9 C 79.6 61.4 77.6 61.4 78.1 61.0 C 81.6 59.0 79.5 61.8 80.1 59.1 C 82.9 56.3 81.9 59.7 83.5 58.6 C 83.1 57.8 83.5 55.7 85.0 57.1 M 81.6 58.4 C 81.3 59.4 80.9 58.2 81.6 58.4 M 88.5 54.6 C 88.1 55.5 87.7 54.3 88.5 54.6 M 79.4 60.8 C 78.9 61.9 78.5 60.2 79.4 60.8 M 62.5 73.6 C 63.6 72.6 62.3 74.4 62.5 73.6 M 86.0 56.5 C 85.5 57.7 85.2 55.8 86.0 56.5 M 86.3 54.4 C 86.2 54.4 86.2 54.4 86.3 54.4 M 62.0 76.1 C 61.9 76.2 61.9 76.2 62.0 76.1 M 66.3 72.4 C 65.3 73.1 66.5 71.6 66.3 72.4 M 62.3 67.5 C 61.3 68.3 62.6 66.8 62.3 67.5 M 59.7 78.3 C 59.2 79.5 59.0 78.1 59.7 78.3 M 56.5 79.5 C 56.1 80.7 55.5 79.6 56.5 79.5 M 80.9 56.2 C 80.9 56.2 80.9 56.2 80.9 56.2 C 80.9 56.2 80.9 56.2 80.9 56.2 Z M 71.7 61.4 C 73.0 61.1 70.0 61.7 71.7 61.4 M 75.7 63.4 C 74.3 62.9 77.0 62.5 75.7 63.4 C 75.7 63.4 75.7 63.4 75.7 63.4 Z M 76.8 61.8 C 76.8 61.7 76.8 61.7 76.8 61.8 C 76.8 61.8 76.8 61.8 76.8 61.8 Z M 72.2 65.4 C 72.2 65.4 72.2 65.4 72.2 65.4 C 72.2 65.4 72.2 65.4 72.2 65.4 Z M 73.0 64.6 C 73.2 64.1 73.7 64.3 73.0 64.6 C 73.0 64.6 73.0 64.6 73.0 64.6 Z M 63.8 67.0 C 64.0 66.5 64.5 66.8 63.8 67.0 C 63.8 67.0 63.8 67.0 63.8 67.0 Z M 74.2 63.1 C 73.5 62.0 75.4 63.2 74.2 63.1 C 74.2 63.1 74.2 63.1 74.2 63.1 Z M 67.4 64.7 C 67.2 65.3 65.8 64.5 67.4 64.7 M 61.0 76.8 C 60.8 77.4 59.3 76.7 61.0 76.8 M 70.5 68.8 C 70.4 69.4 68.9 68.6 70.5 68.8 M 81.4 59.2 C 81.2 59.2 81.2 59.2 81.4 59.2 M 72.6 59.1 C 72.2 60.0 71.9 58.9 72.6 59.1 M 82.3 52.3 C 81.9 53.2 81.6 52.1 82.3 52.3 M 58.3 71.2 C 58.6 71.5 57.2 72.0 58.3 71.2 M 68.1 68.2 C 67.2 68.8 65.9 69.0 67.7 67.6 C 68.0 67.7 67.6 68.3 68.1 68.2 C 68.1 68.2 68.1 68.2 68.1 68.2 Z M 63.2 68.6 C 63.0 68.6 63.0 68.6 63.2 68.6 M 67.4 70.4 C 67.2 70.4 67.2 70.4 67.4 70.4 M 62.5 74.5 C 62.3 74.5 62.3 74.5 62.5 74.5 M 62.2 75.3 C 62.1 75.3 62.1 75.3 62.2 75.3 C 62.2 75.3 62.2 75.3 62.2 75.3 Z M 57.4 80.5 C 57.3 80.5 57.3 80.5 57.4 80.5 C 57.4 80.5 57.4 80.5 57.4 80.5 Z M 63.9 73.0 C 63.9 73.0 63.9 73.0 63.9 73.0 C 63.9 73.0 63.9 73.0 63.9 73.0 Z M 56.3 73.4 C 56.3 73.3 56.3 73.3 56.3 73.4 C 56.3 73.4 56.3 73.4 56.3 73.4 Z M 57.4 73.4 C 57.4 73.4 57.4 73.4 57.4 73.4 C 57.4 73.4 57.4 73.4 57.4 73.4 Z M 84.5 57.4 C 84.3 58.7 82.8 55.9 84.5 57.4 M 55.1 75.6 C 53.8 75.6 56.2 74.3 55.1 75.6 C 55.1 75.6 55.1 75.6 55.1 75.6 Z M 63.8 71.7 C 63.6 71.7 63.6 71.7 63.8 71.7 M 61.8 75.5 C 61.6 75.4 61.6 75.4 61.8 75.5 M 76.5 64.3 C 76.3 64.2 76.3 64.2 76.5 64.3 M 58.0 78.7 C 55.6 80.5 57.7 76.4 58.0 78.7 M 76.8 62.5 C 76.9 62.5 76.9 62.5 76.8 62.5 M 70.1 64.8 C 68.6 66.1 70.2 63.8 70.1 64.8 M 67.3 69.3 C 67.2 69.2 67.2 69.2 67.3 69.3 C 67.3 69.3 67.3 69.3 67.3 69.3 Z M 69.5 67.4 C 70.5 66.3 70.0 67.4 69.5 67.4 C 69.5 67.4 69.5 67.4 69.5 67.4 Z M 82.7 57.3 C 81.1 58.2 84.0 55.8 82.7 57.3 C 82.7 57.3 82.7 57.3 82.7 57.3 Z M 57.0 75.6 C 57.0 75.5 57.0 75.5 57.0 75.6 C 57.0 75.6 57.0 75.6 57.0 75.6 Z M 64.8 73.5 C 65.2 72.6 65.4 73.5 64.8 73.5 C 64.8 73.5 64.8 73.5 64.8 73.5 Z M 56.6 81.2 C 57.0 80.4 57.2 81.2 56.6 81.2 C 56.6 81.2 56.6 81.2 56.6 81.2 Z M 84.6 56.1 C 77.9 58.4 92.3 51.3 84.6 56.1 C 84.6 56.1 84.6 56.1 84.6 56.1 Z M 69.2 68.8 C 69.1 68.7 69.1 68.7 69.2 68.8 C 69.2 68.8 69.2 68.8 69.2 68.8 Z M 79.5 61.6 C 79.5 61.5 79.5 61.5 79.5 61.6 C 79.5 61.6 79.5 61.6 79.5 61.6 Z M 80.5 59.4 C 80.5 59.3 80.5 59.3 80.5 59.4 C 80.5 59.4 80.5 59.4 80.5 59.4 Z M 77.0 55.8 C 77.0 55.7 77.0 55.7 77.0 55.8 C 77.0 55.8 77.0 55.8 77.0 55.8 Z M 77.8 58.0 C 77.8 57.8 77.8 57.8 77.8 58.0 C 77.8 58.0 77.8 58.0 77.8 58.0 Z M 80.9 54.7 C 80.9 54.6 80.9 54.6 80.9 54.7 C 80.9 54.7 80.9 54.7 80.9 54.7 Z M 80.4 54.2 C 80.4 54.2 80.4 54.2 80.4 54.2 C 80.4 54.2 80.4 54.2 80.4 54.2 Z M 60.8 74.5 C 60.8 74.4 60.8 74.4 60.8 74.5 C 60.8 74.5 60.8 74.5 60.8 74.5 Z M 61.2 71.3 C 60.5 73.0 60.9 70.2 61.2 71.3 C 61.2 71.3 61.2 71.3 61.2 71.3 Z M 72.9 62.8 C 71.9 63.9 73.2 61.7 72.9 62.8 C 72.9 62.8 72.9 62.8 72.9 62.8 Z M 69.9 61.7 C 69.9 61.7 69.9 61.7 69.9 61.7 C 69.9 61.7 69.9 61.7 69.9 61.7 Z M 81.2 60.3 C 81.2 60.2 81.2 60.2 81.2 60.3 C 81.2 60.3 81.2 60.3 81.2 60.3 Z M 82.9 58.1 C 82.3 57.2 83.8 58.0 82.9 58.1 M 72.6 66.8 C 72.5 66.7 72.5 66.7 72.6 66.8 C 72.6 66.8 72.6 66.8 72.6 66.8 Z M 65.0 71.2 C 64.9 71.1 64.9 71.1 65.0 71.2 C 65.0 71.2 65.0 71.2 65.0 71.2 Z M 59.0 77.5 C 58.9 77.3 58.9 77.3 59.0 77.5 C 59.0 77.5 59.0 77.5 59.0 77.5 Z M 68.4 70.2 C 68.4 70.0 68.4 70.0 68.4 70.2 C 68.4 70.2 68.4 70.2 68.4 70.2 Z M 70.9 66.8 C 70.9 66.7 70.9 66.7 70.9 66.8 C 70.9 66.8 70.9 66.8 70.9 66.8 Z M 56.6 77.7 C 56.6 77.6 56.6 77.6 56.6 77.7 C 56.6 77.7 56.6 77.7 56.6 77.7 Z M 67.8 70.9 C 67.8 70.9 67.8 70.9 67.8 70.9 C 67.8 70.9 67.8 70.9 67.8 70.9 Z M 63.7 70.0 C 63.7 69.9 63.7 69.9 63.7 70.0 C 63.7 70.0 63.7 70.0 63.7 70.0 Z M 83.5 59.5 C 83.5 59.4 83.5 59.4 83.5 59.5 C 83.5 59.5 83.5 59.5 83.5 59.5 Z M 57.5 78.8 C 57.5 78.7 57.5 78.7 57.5 78.8 C 57.5 78.8 57.5 78.8 57.5 78.8 Z M 57.7 79.8 C 57.7 79.8 57.7 79.8 57.7 79.8 C 57.7 79.8 57.7 79.8 57.7 79.8 Z M 58.9 72.0 C 61.6 70.3 57.0 74.0 59.4 73.3 C 56.3 76.5 58.4 72.4 58.9 72.0 C 58.9 72.0 58.9 72.0 58.9 72.0 Z M 55.0 83.0 C 55.3 80.7 54.3 79.8 52.8 79.2 C 51.7 79.3 53.7 81.3 52.0 79.6 C 53.1 77.9 48.8 77.7 51.0 79.8 C 49.5 82.0 49.3 78.7 49.1 80.7 C 47.3 82.9 47.7 81.2 46.3 82.9 C 46.6 85.0 44.8 83.3 45.6 84.8 C 45.1 82.8 44.3 86.8 43.7 86.3 C 44.3 84.1 38.5 91.8 42.4 88.4 C 41.6 90.5 40.8 89.2 40.2 89.6 C 40.3 90.9 37.2 91.6 37.1 93.3 C 37.4 93.3 37.9 92.8 38.3 92.9 C 39.0 93.0 37.2 93.9 37.3 93.8 C 37.1 94.7 35.5 98.0 36.6 94.0 C 36.1 93.3 34.9 96.5 34.4 95.9 C 32.3 98.3 35.2 97.6 33.3 97.9 C 31.8 99.6 30.7 100.9 30.9 101.0 C 29.8 102.0 28.9 101.6 28.8 103.2 C 25.6 104.2 30.3 106.9 26.8 105.5 C 27.0 106.7 24.6 105.8 26.4 107.1 C 26.3 105.7 22.1 109.9 24.9 108.9 C 24.9 109.8 20.4 111.0 22.5 111.9 C 23.0 114.0 24.5 114.8 27.5 113.5 C 26.3 112.9 30.4 111.9 27.3 112.3 C 25.2 113.7 29.5 108.3 29.2 109.9 C 31.0 111.8 30.0 106.3 32.4 106.3 C 30.8 106.6 34.0 102.0 34.4 104.5 C 35.2 103.8 34.7 103.0 36.3 102.9 C 34.0 105.3 35.5 100.6 36.3 101.5 C 36.5 102.4 40.2 99.1 39.0 98.7 C 35.8 98.2 40.3 98.1 40.0 96.8 C 41.4 94.4 41.5 98.7 41.3 95.8 C 41.9 95.7 44.3 93.0 43.2 95.1 C 42.5 95.5 42.5 91.5 44.4 92.8 C 42.8 96.5 47.9 90.1 46.5 90.5 C 41.6 93.9 49.8 85.1 47.5 89.2 C 50.2 88.2 47.3 90.1 49.2 87.4 C 48.4 87.2 49.6 85.0 50.2 86.4 C 52.2 87.6 48.8 83.7 52.3 84.4 C 53.4 85.2 54.4 81.0 54.4 83.0 C 54.4 83.2 55.0 83.0 55.0 83.0 M 54.1 83.6 C 54.0 82.9 55.0 83.5 54.1 83.6 M 54.1 82.9 C 54.1 82.9 54.1 82.9 54.1 82.9 C 54.1 82.9 54.1 82.9 54.1 82.9 Z M 49.5 87.0 C 49.5 87.1 49.5 87.1 49.5 87.0 C 49.5 87.0 49.5 87.0 49.5 87.0 Z M 42.0 86.8 C 42.1 86.8 42.1 86.8 42.0 86.8 C 42.0 86.8 42.0 86.8 42.0 86.8 Z M 46.5 90.0 C 46.5 89.9 46.5 89.9 46.5 90.0 C 46.5 90.0 46.5 90.0 46.5 90.0 Z M 50.8 85.2 C 50.8 85.2 50.8 85.2 50.8 85.2 C 50.8 85.2 50.8 85.2 50.8 85.2 Z M 47.3 90.2 C 46.5 89.9 48.8 89.6 47.4 90.4 C 47.3 90.4 47.5 90.2 47.3 90.2 M 43.9 94.4 C 43.8 94.4 43.8 94.4 43.9 94.4 M 30.9 99.3 C 30.8 99.3 30.8 99.3 30.9 99.3 M 35.3 104.3 C 35.2 104.4 35.2 104.4 35.3 104.3 M 39.6 97.9 C 38.6 99.2 39.0 97.9 39.6 97.9 M 32.1 107.5 C 33.9 106.1 31.0 109.5 32.1 107.5 M 31.2 109.4 C 31.0 109.5 31.0 109.5 31.2 109.4 M 37.1 101.8 C 37.0 101.7 37.0 101.7 37.1 101.8 C 37.1 101.8 37.1 101.8 37.1 101.8 Z M 40.3 97.6 C 42.1 96.3 39.4 99.8 40.3 97.6 M 49.5 88.1 C 49.0 89.3 48.8 87.4 49.5 88.1 M 50.9 86.1 C 50.9 86.0 50.9 86.0 50.9 86.1 C 50.9 86.1 50.9 86.1 50.9 86.1 Z M 34.3 104.8 C 34.4 104.8 34.4 104.8 34.3 104.8 C 34.3 104.8 34.3 104.8 34.3 104.8 Z M 32.9 106.8 C 32.9 106.8 32.9 106.8 32.9 106.8 C 32.9 106.8 32.9 106.8 32.9 106.8 Z M 25.5 106.2 C 25.6 106.2 25.6 106.2 25.5 106.2 C 25.5 106.2 25.5 106.2 25.5 106.2 Z M 47.8 85.6 C 49.2 84.7 48.1 88.2 47.2 86.9 C 46.7 86.6 47.8 85.8 47.8 85.6 M 40.0 95.2 C 38.2 94.1 43.2 95.9 40.0 95.2 M 29.9 108.8 C 27.0 108.5 32.6 108.2 29.9 108.8 M 28.1 111.7 C 27.1 112.2 31.8 106.6 29.2 111.0 C 29.2 111.6 28.6 111.6 28.1 111.7 M 43.1 93.8 C 41.9 93.4 45.2 92.2 43.1 93.8 M 33.8 99.2 C 33.8 100.2 32.9 102.3 32.6 100.7 C 31.4 99.7 34.0 98.0 33.8 99.2 M 52.9 83.1 C 53.3 85.3 51.8 81.9 52.9 83.1 M 48.4 87.4 C 48.4 87.5 48.4 87.5 48.4 87.4 C 48.4 87.4 48.4 87.4 48.4 87.4 Z M 46.9 89.4 C 46.7 89.4 46.7 89.4 46.9 89.4 M 53.3 84.9 C 53.1 84.9 53.1 84.9 53.3 84.9 M 35.3 100.3 C 35.1 100.3 35.1 100.3 35.3 100.3 M 39.6 97.2 C 36.6 97.9 40.2 96.0 39.6 97.2 M 41.0 90.4 C 39.9 90.4 42.0 89.2 41.0 90.4 M 37.4 100.7 C 35.0 100.9 37.8 97.9 37.4 100.7 M 40.5 96.4 C 40.4 96.5 40.4 96.5 40.5 96.4 C 40.5 96.4 40.5 96.4 40.5 96.4 Z M 33.2 99.5 C 33.2 99.5 33.2 99.5 33.2 99.5 C 33.2 99.5 33.2 99.5 33.2 99.5 Z M 32.8 100.2 C 32.8 100.1 32.8 100.1 32.8 100.2 C 32.8 100.2 32.8 100.2 32.8 100.2 Z M 36.2 102.5 C 36.2 102.4 36.2 102.4 36.2 102.5 C 36.2 102.5 36.2 102.5 36.2 102.5 Z M 47.6 82.6 C 46.3 83.8 48.4 81.4 47.6 82.6 C 47.6 82.6 47.6 82.6 47.6 82.6 Z M 46.0 91.6 C 43.0 92.8 46.4 89.3 46.0 91.6 C 46.0 91.6 46.0 91.6 46.0 91.6 Z M 42.1 92.5 C 42.0 92.4 42.0 92.4 42.1 92.5 C 42.1 92.5 42.1 92.5 42.1 92.5 Z M 39.0 100.6 C 38.9 100.5 38.9 100.5 39.0 100.6 C 39.0 100.6 39.0 100.6 39.0 100.6 Z M 46.9 83.1 C 46.8 83.0 46.8 83.0 46.9 83.1 C 46.9 83.1 46.9 83.1 46.9 83.1 Z M 32.3 105.8 C 32.2 105.7 32.2 105.7 32.3 105.8 C 32.3 105.8 32.3 105.8 32.3 105.8 Z M 36.2 95.7 C 36.2 96.6 35.7 95.5 36.2 95.7 C 36.2 95.7 36.2 95.7 36.2 95.7 Z M 34.4 97.7 C 34.4 97.8 34.4 97.8 34.4 97.7 C 34.4 97.7 34.4 97.7 34.4 97.7 Z M 30.9 110.0 C 30.8 110.1 30.8 110.1 30.9 110.0 C 30.9 110.0 30.9 110.0 30.9 110.0 Z M 28.8 101.9 C 28.7 101.9 28.7 101.9 28.8 101.9 C 28.8 101.9 28.8 101.9 28.8 101.9 Z M 28.9 104.9 C 28.9 104.8 28.9 104.8 28.9 104.9 C 28.9 104.9 28.9 104.9 28.9 104.9 Z M 36.2 101.9 C 34.7 104.1 36.0 100.9 36.2 101.9 C 36.2 101.9 36.2 101.9 36.2 101.9 Z M 25.2 110.4 C 25.1 110.4 25.1 110.4 25.2 110.4 C 25.2 110.4 25.2 110.4 25.2 110.4 Z M 26.2 113.0 C 26.1 112.9 26.1 112.9 26.2 113.0 C 26.2 113.0 26.2 113.0 26.2 113.0 Z M 26.8 114.3 C 26.7 114.2 26.7 114.2 26.8 114.3 C 26.8 114.3 26.8 114.3 26.8 114.3 Z M 45.1 87.7 C 45.2 87.7 45.2 87.7 45.1 87.7 C 45.1 87.7 45.1 87.7 45.1 87.7 Z M 48.5 89.6 C 48.6 89.6 48.6 89.6 48.5 89.6 C 48.5 89.6 48.5 89.6 48.5 89.6 Z M 46.3 92.2 C 46.3 92.2 46.3 92.2 46.3 92.2 C 46.3 92.2 46.3 92.2 46.3 92.2 Z M 43.8 85.6 C 43.9 85.6 43.9 85.6 43.8 85.6 C 43.8 85.6 43.8 85.6 43.8 85.6 Z M 37.2 97.6 C 37.3 97.6 37.3 97.6 37.2 97.6 C 37.2 97.6 37.2 97.6 37.2 97.6 Z M 35.3 97.6 C 35.4 97.6 35.4 97.6 35.3 97.6 C 35.3 97.6 35.3 97.6 35.3 97.6 Z M 35.7 93.9 C 35.8 93.9 35.8 93.9 35.7 93.9 C 35.7 93.9 35.7 93.9 35.7 93.9 Z M 33.6 97.4 C 33.6 97.4 33.6 97.4 33.6 97.4 C 33.6 97.4 33.6 97.4 33.6 97.4 Z M 50.5 79.8 C 50.5 79.8 50.5 79.8 50.5 79.8 C 50.5 79.8 50.5 79.8 50.5 79.8 Z M 52.8 81.7 C 52.7 81.6 52.7 81.6 52.8 81.7 C 52.8 81.7 52.8 81.7 52.8 81.7 Z M 38.6 99.3 C 38.7 100.2 37.2 99.7 38.6 99.3 M 41.6 95.3 C 41.6 95.3 41.6 95.3 41.6 95.3 C 41.6 95.3 41.6 95.3 41.6 95.3 Z M 33.0 105.8 C 31.7 105.5 35.0 104.3 33.0 105.8 C 33.0 105.8 33.0 105.8 33.0 105.8 Z M 30.9 100.6 C 30.9 100.6 30.9 100.6 30.9 100.6 C 30.9 100.6 30.9 100.6 30.9 100.6 Z M 30.5 101.9 C 30.3 101.9 30.3 101.9 30.5 101.9 C 30.5 101.9 30.5 101.9 30.5 101.9 Z M 28.2 109.7 C 28.0 109.7 28.0 109.7 28.2 109.7 M 42.8 95.5 C 42.0 95.7 42.1 95.7 42.8 95.5 M 31.8 107.1 C 31.9 107.0 31.9 107.0 31.8 107.1 C 31.8 107.1 31.8 107.1 31.8 107.1 Z M 27.7 111.4 C 27.7 111.3 27.7 111.3 27.7 111.4 C 27.7 111.4 27.7 111.4 27.7 111.4 Z M 44.7 92.4 C 43.5 91.5 44.2 91.2 44.7 92.4 M 51.2 84.9 C 51.1 84.9 51.1 84.9 51.2 84.9 C 51.2 84.9 51.2 84.9 51.2 84.9 Z M 51.2 84.9 " fill="#FEFFFE"></path><path d="M 4.9 113.4 C 4.4 113.0 4.9 111.1 5.2 112.8 C 5.2 112.9 5.0 113.6 4.9 113.4 Z M 4.7 116.6 C 4.7 116.4 4.7 116.2 4.9 116.0 C 5.5 115.7 4.6 117.5 4.7 116.6 Z M 5.6 112.0 C 5.5 111.9 5.6 110.9 5.7 111.1 C 5.9 111.3 5.6 112.0 5.6 112.0 Z M 5.8 119.6 C 5.5 119.5 5.6 118.5 5.7 118.3 C 6.1 117.8 6.3 119.7 5.8 119.6 Z M 13.8 115.9 C 13.9 115.9 14.0 116.0 14.1 116.0 C 14.0 116.0 13.9 116.0 13.8 115.9 Z M 4.3 134.4 C 4.3 134.3 4.6 133.9 4.8 134.0 C 5.0 134.1 4.4 135.1 4.3 134.4 Z M 29.2 125.6 C 29.2 125.6 29.0 125.2 29.2 125.1 C 29.5 125.1 29.4 125.5 29.2 125.6 Z M 29.4 125.3 C 29.4 125.1 29.8 125.2 29.7 125.3 C 29.5 125.5 29.3 125.5 29.4 125.3 Z M 18.0 135.4 C 17.9 135.4 17.8 135.5 17.9 135.4 C 17.9 135.2 18.2 135.2 18.0 135.4 Z M 18.3 134.9 C 18.3 134.6 18.7 134.8 18.6 134.9 C 18.3 135.1 18.2 135.2 18.3 134.9 Z M 21.8 134.8 C 21.7 134.9 21.6 134.9 21.6 134.8 C 21.7 134.6 22.0 134.6 21.8 134.8 Z M 23.4 120.8 C 23.6 120.8 24.0 121.2 23.8 121.3 C 23.6 121.6 23.2 120.8 23.4 120.8 Z M 24.1 121.1 C 24.2 120.9 24.6 121.0 24.4 121.2 C 24.2 121.2 24.1 121.3 24.1 121.1 Z M 22.0 120.1 C 21.8 120.4 21.3 120.0 21.2 119.9 C 21.1 119.8 20.9 119.5 20.8 119.3 C 20.8 119.3 22.2 119.8 22.0 120.1 Z M 17.8 117.7 C 17.8 117.6 17.9 117.6 18.0 117.8 C 18.2 118.0 17.7 117.8 17.8 117.7 Z M 20.2 119.1 C 20.2 119.0 20.3 119.0 20.4 119.2 C 20.5 119.4 20.1 119.2 20.2 119.1 Z M 4.8 125.6 C 4.6 125.6 4.8 124.8 4.8 124.8 C 4.9 124.7 4.9 125.0 5.0 124.9 C 5.1 124.6 5.6 125.2 4.8 125.6 Z M 4.7 118.4 C 4.7 118.2 4.8 118.2 5.0 118.3 C 5.0 118.3 4.8 118.9 4.7 118.4 Z M 5.8 124.5 C 5.7 124.5 5.7 124.4 5.8 124.4 C 5.9 124.3 5.9 124.5 5.8 124.5 Z M 5.9 125.1 C 5.9 124.9 6.2 124.5 6.4 124.6 C 6.7 124.8 6.0 125.7 5.9 125.1 Z M 4.4 126.5 C 4.5 126.3 4.5 126.3 4.5 126.4 C 4.6 126.6 4.4 126.5 4.4 126.5 Z M 4.3 122.4 C 4.3 122.1 4.3 122.1 4.4 122.3 C 4.5 122.4 4.3 122.4 4.3 122.4 Z M 4.8 128.5 C 4.8 128.5 4.6 127.9 5.0 127.8 C 5.7 127.7 4.9 128.4 4.8 128.5 Z M 5.3 131.4 C 5.3 131.2 5.5 131.3 5.4 131.5 C 5.4 131.6 5.2 131.6 5.3 131.4 Z M 6.2 132.5 C 6.1 132.8 5.8 133.0 5.9 132.5 C 6.0 132.0 6.4 132.2 6.2 132.5 Z M 6.0 131.9 C 6.1 131.9 6.1 132.1 6.0 132.1 C 5.9 132.1 5.9 131.9 6.0 131.9 Z M 5.4 129.5 C 5.3 129.2 5.6 128.9 5.7 129.3 C 5.7 129.7 5.6 129.7 5.4 129.5 Z M 12.4 113.5 C 12.3 113.4 12.5 113.2 12.6 113.2 C 12.8 113.2 12.7 113.5 12.4 113.5 Z M 20.6 120.2 C 20.5 120.0 20.6 120.0 20.8 120.3 C 21.0 120.5 20.6 120.4 20.6 120.2 Z M 25.8 124.4 C 25.7 124.1 25.8 124.2 26.0 124.4 C 26.2 124.6 25.8 124.6 25.8 124.4 Z M 18.3 118.7 C 18.3 118.6 19.2 118.6 19.2 119.2 C 19.3 119.8 18.3 119.2 18.3 118.7 Z M 10.0 119.5 C 9.8 119.5 10.0 119.3 10.0 119.3 C 10.1 119.5 10.1 119.5 10.0 119.5 Z M 19.1 120.2 C 19.0 120.2 19.1 120.0 19.3 119.9 C 19.5 119.9 19.3 120.3 19.1 120.2 Z M 25.0 123.4 C 24.8 123.1 25.2 122.8 25.4 122.8 C 26.1 122.7 26.2 123.4 26.3 123.9 C 26.4 124.2 25.1 123.5 25.0 123.4 Z M 10.6 113.4 C 10.7 113.6 10.8 113.7 10.9 113.8 C 11.0 113.7 11.0 113.8 11.1 113.9 C 11.7 114.2 12.3 114.0 12.8 114.1 C 13.8 114.3 13.4 115.5 13.8 115.9 C 13.7 115.8 13.6 115.7 13.4 115.8 C 13.0 116.0 15.1 117.1 15.2 117.2 C 17.0 118.0 15.2 116.4 15.6 115.9 C 15.7 115.6 16.4 117.0 16.5 117.1 C 16.9 117.7 17.3 117.2 17.6 117.7 C 17.7 117.9 17.5 119.6 17.8 119.6 C 18.1 119.5 18.5 120.0 18.7 120.1 C 19.0 120.3 19.6 120.7 19.6 120.0 C 19.6 119.5 19.7 119.2 19.9 119.8 C 20.1 120.1 21.5 122.2 22.0 121.2 C 22.1 121.2 21.8 120.6 21.8 120.6 C 22.5 120.7 23.9 122.2 24.5 122.0 C 26.0 121.8 23.9 122.4 24.2 122.9 C 24.7 123.8 24.9 124.4 26.0 124.8 C 26.2 124.9 27.1 125.5 27.0 124.7 C 26.9 124.2 27.3 124.1 26.8 123.7 C 27.8 123.6 27.6 124.7 27.8 124.7 C 28.2 124.5 27.9 124.1 28.3 124.5 C 28.8 124.9 28.7 124.6 28.5 125.1 C 28.4 125.3 28.8 125.7 28.8 125.7 C 28.8 125.8 28.8 125.8 28.7 125.9 C 29.2 126.1 30.5 125.7 30.5 126.0 C 30.5 126.2 29.8 126.6 29.7 126.8 C 29.7 126.9 29.8 126.9 29.8 126.9 C 30.0 127.0 30.7 127.0 30.7 127.1 C 30.8 127.2 29.9 127.8 30.2 127.7 C 30.6 127.6 31.4 128.6 31.3 128.9 C 31.2 129.1 30.7 130.4 30.8 130.6 C 31.0 130.8 30.2 131.1 30.1 131.2 C 29.9 131.3 29.3 131.2 29.2 131.1 C 29.1 131.1 28.7 131.4 28.7 131.4 C 28.7 131.4 28.5 131.7 28.1 131.9 C 27.7 132.1 27.3 132.0 26.7 132.1 C 26.1 132.2 26.1 132.6 25.6 132.9 C 25.2 133.1 24.4 132.6 23.9 132.7 C 23.5 132.8 23.8 133.4 23.3 133.7 C 22.8 134.0 22.4 134.0 22.5 133.8 C 22.7 133.6 22.4 133.5 22.3 133.6 C 22.1 133.6 21.4 133.7 21.3 134.0 C 21.1 134.2 22.9 134.0 20.9 134.8 C 19.9 135.2 19.0 134.9 19.2 134.8 C 19.9 134.4 17.9 134.2 18.1 134.5 C 18.2 134.8 16.5 135.5 17.2 135.8 C 17.4 135.9 15.8 136.9 15.5 136.9 C 15.2 136.9 14.5 137.5 14.1 137.0 C 13.8 136.8 13.2 138.0 13.0 138.1 C 12.8 138.2 11.4 138.7 11.1 138.7 C 10.8 138.7 11.4 138.4 11.7 138.2 C 12.0 138.1 12.5 138.2 12.7 138.0 C 13.0 137.8 12.3 137.8 12.0 138.0 C 11.6 138.1 11.4 137.8 11.1 137.9 C 11.0 138.0 10.8 138.1 10.5 138.2 C 10.4 138.2 10.3 138.3 10.4 138.4 C 10.4 138.6 10.7 138.6 10.7 138.7 C 10.7 138.8 10.5 139.1 10.1 139.2 C 9.7 139.4 9.3 139.5 8.7 139.6 C 8.1 139.7 8.1 140.0 7.7 140.2 C 7.4 140.4 7.0 140.5 6.9 140.4 C 6.9 140.3 7.3 140.0 7.3 139.9 C 7.3 139.7 6.6 139.7 6.4 139.8 C 5.4 140.1 5.8 138.9 4.7 139.3 C 4.1 139.5 4.6 138.9 4.8 138.4 C 4.6 138.4 4.6 138.3 4.5 137.8 C 4.3 137.8 4.5 137.1 4.5 136.8 C 4.5 136.6 4.3 135.2 4.6 136.0 C 4.7 136.1 4.7 136.2 4.7 136.2 C 4.7 136.2 4.7 136.2 4.7 136.2 C 4.7 136.2 5.3 136.6 5.3 136.6 C 5.3 136.6 4.8 136.2 4.8 136.2 C 5.0 136.0 5.2 135.9 5.3 135.8 C 5.3 135.7 5.2 135.7 5.2 135.6 C 5.2 135.6 5.2 135.6 5.1 135.5 C 5.1 135.5 5.1 135.5 5.1 135.5 C 4.9 135.6 4.9 135.5 5.0 135.3 C 4.8 134.8 5.2 133.7 5.4 133.2 C 6.5 134.6 6.6 132.4 6.4 131.7 C 6.3 130.9 4.9 130.9 4.9 131.3 C 4.9 130.7 5.1 130.6 5.5 130.5 C 5.5 130.5 6.4 130.0 6.4 130.0 C 6.9 128.8 5.7 129.0 5.6 128.7 C 5.4 128.4 5.4 128.0 5.4 127.6 C 5.3 127.3 5.0 127.6 4.9 127.4 C 4.3 127.0 5.5 126.2 5.6 125.8 C 5.6 126.1 5.7 126.5 5.9 126.8 C 5.6 126.3 6.3 126.1 6.4 126.0 C 6.6 125.6 6.5 125.1 6.5 124.7 C 6.5 124.0 6.4 123.3 6.3 122.7 C 6.2 122.9 5.4 123.8 5.4 123.9 C 5.4 123.7 5.6 123.0 5.1 123.3 C 4.2 123.6 4.7 121.9 4.7 121.7 C 4.9 120.8 4.1 119.8 5.1 118.9 C 5.1 118.9 5.3 120.3 5.4 120.2 C 6.2 120.0 6.6 119.6 6.5 118.7 C 6.5 118.5 5.9 117.2 5.9 117.2 C 6.0 117.2 4.1 118.4 4.7 117.3 C 4.9 117.1 5.1 117.6 5.3 117.3 C 5.5 116.9 5.4 116.3 5.5 115.9 C 5.5 115.8 5.8 115.1 5.7 115.1 C 5.5 114.9 5.1 114.9 5.0 114.6 C 4.9 114.3 5.1 114.0 5.4 114.0 C 5.4 114.0 5.5 114.0 5.5 114.1 C 5.5 114.0 5.6 113.9 5.8 113.9 C 5.7 113.8 5.7 113.6 5.9 113.5 C 6.0 113.4 6.0 113.8 5.9 114.0 C 6.0 114.0 6.1 114.0 6.2 114.0 C 6.1 113.7 6.1 113.3 6.1 113.2 C 5.7 112.6 5.4 112.6 6.2 111.7 C 6.8 111.1 8.9 111.8 9.8 112.7 C 10.1 112.8 10.3 113.0 10.6 113.4 Z M 9.7 138.1 C 9.7 138.1 9.7 138.1 9.8 138.1 C 9.7 138.0 9.7 137.8 9.6 137.7 C 9.3 137.8 9.8 137.9 9.5 138.0 C 9.1 138.1 9.2 138.2 9.7 138.1 Z M 7.3 136.3 C 7.1 136.4 7.2 136.5 7.4 136.5 C 7.4 136.4 7.4 136.3 7.3 136.3 Z M 5.9 136.1 C 6.0 136.5 6.6 135.9 6.5 135.2 C 6.1 135.6 6.0 135.9 5.9 136.1 Z M 5.4 135.0 C 5.5 135.0 5.5 135.1 5.6 135.1 C 5.8 135.2 5.6 134.7 5.8 134.8 C 5.9 134.8 6.1 135.3 6.2 135.0 C 6.2 134.9 6.3 134.8 6.3 134.8 C 6.3 134.7 6.3 134.7 6.2 134.6 C 6.0 134.4 5.5 134.7 5.4 135.0 Z M 11.0 136.4 C 10.9 136.5 11.1 136.5 11.2 136.4 C 11.3 136.3 11.2 136.2 11.0 136.4 Z M 13.8 136.4 C 13.6 136.4 13.4 136.5 13.7 136.6 C 13.9 136.7 14.1 136.4 13.8 136.4 Z M 12.8 131.8 C 12.7 131.9 12.8 131.9 12.9 131.8 C 13.1 131.7 12.8 131.6 12.8 131.8 Z M 10.9 130.3 C 10.8 130.1 10.4 130.2 10.5 130.3 C 10.6 130.4 10.9 130.5 10.9 130.3 Z M 15.3 133.7 C 15.5 133.5 15.3 133.4 15.2 133.6 C 15.1 133.8 15.2 133.8 15.3 133.7 Z M 12.3 132.2 C 12.6 132.2 12.6 132.1 12.6 132.0 C 12.6 131.9 12.4 131.8 12.1 132.0 C 11.9 132.1 11.9 132.2 12.3 132.2 Z M 10.5 131.2 C 10.5 130.6 10.2 130.5 10.3 131.4 C 10.4 132.2 10.4 131.7 10.5 131.2 Z M 15.9 136.3 C 15.8 136.3 15.5 136.5 15.5 136.5 C 15.5 136.5 16.5 136.2 15.9 136.3 Z M 5.9 128.0 C 5.9 128.2 6.1 128.4 6.2 128.0 C 6.3 127.7 6.0 127.7 5.9 128.0 Z M 7.4 127.5 C 6.9 127.7 6.7 128.2 6.7 128.2 C 6.8 128.1 7.2 128.3 7.2 128.5 C 7.4 128.9 6.8 129.5 7.2 129.9 C 7.5 130.4 7.6 129.4 7.6 129.2 C 7.6 129.4 7.7 129.4 7.8 129.5 C 8.0 129.4 8.1 129.3 8.0 129.1 C 7.8 128.9 8.1 127.3 7.4 127.5 Z M 12.3 130.8 C 12.1 131.0 12.1 131.3 12.4 131.3 C 12.7 131.3 13.0 131.2 12.9 131.0 C 12.9 130.9 12.5 130.7 12.3 130.8 Z M 13.9 131.7 C 13.9 131.9 14.0 131.9 14.2 131.8 C 14.5 131.5 14.0 131.4 13.9 131.7 Z M 22.3 133.2 C 22.4 133.0 22.0 133.2 22.0 133.3 C 22.1 133.4 22.2 133.3 22.3 133.2 Z M 19.7 131.6 C 20.0 131.2 19.5 131.3 19.4 131.4 C 19.3 131.5 19.5 131.8 19.7 131.6 Z M 17.2 132.1 C 17.4 131.9 17.0 131.9 16.9 132.1 C 16.9 132.2 17.1 132.1 17.2 132.1 Z M 16.1 131.6 C 16.3 131.5 16.0 131.3 15.8 131.5 C 15.7 131.7 15.9 131.7 16.1 131.6 Z M 8.3 125.3 C 8.3 125.3 8.8 125.4 8.6 125.0 C 8.4 124.7 8.4 124.7 8.3 125.3 Z M 10.8 127.9 C 10.8 128.3 10.9 128.7 11.9 129.0 C 12.9 129.2 12.7 128.9 12.3 128.4 C 11.9 127.9 13.5 128.5 12.7 127.6 C 12.3 127.3 10.8 127.6 10.8 127.9 Z M 17.0 130.0 C 16.3 130.0 15.9 130.8 16.5 130.6 C 17.2 130.4 17.6 130.1 17.0 130.0 Z M 17.4 130.2 C 17.3 130.3 17.4 130.3 17.6 130.2 C 17.8 130.1 17.5 130.1 17.4 130.2 Z M 5.0 122.5 C 5.2 123.8 6.0 122.5 6.0 122.5 C 6.4 121.2 4.8 121.2 5.0 122.5 Z M 28.0 126.0 C 28.0 126.0 27.9 125.9 27.9 125.9 C 27.9 125.9 27.9 125.9 27.8 125.9 C 27.6 125.9 27.8 126.3 27.8 126.3 C 28.0 126.3 28.0 126.1 28.0 126.0 Z M 22.9 122.2 C 23.1 122.4 23.3 122.5 23.5 122.4 C 23.7 121.9 22.2 120.8 22.2 122.0 C 22.2 122.2 22.8 123.6 23.1 123.3 C 23.4 123.1 22.4 121.9 22.9 122.2 Z M 24.1 124.0 C 23.5 123.5 24.2 125.0 24.3 124.5 C 24.3 124.3 24.3 124.1 24.1 124.0 Z M 27.8 128.6 C 28.9 128.8 29.5 127.4 27.8 127.2 C 26.0 127.0 25.6 127.5 26.4 127.7 C 27.2 128.0 26.2 128.3 27.8 128.6 Z M 21.0 124.0 C 21.7 123.2 21.2 123.2 20.5 123.7 C 20.3 123.8 20.5 124.5 21.0 124.0 Z M 19.0 122.8 C 18.8 122.6 18.8 122.6 18.8 122.8 C 18.9 123.2 19.2 123.1 19.0 122.8 Z M 28.3 130.7 C 28.7 130.8 29.2 130.6 29.0 130.8 C 28.9 131.0 29.0 131.0 29.3 130.9 C 29.7 130.9 29.3 130.6 29.1 130.5 C 28.8 130.4 27.9 130.7 28.3 130.7 Z M 19.0 128.9 C 19.1 128.8 18.9 128.7 18.8 128.8 C 18.7 128.9 18.8 129.0 19.0 128.9 Z M 11.1 125.0 C 11.1 125.0 11.3 125.1 11.2 124.8 C 11.1 124.6 11.1 124.6 11.1 125.0 Z M 5.5 120.8 C 5.5 121.0 5.9 120.6 6.1 120.9 C 6.2 121.0 5.9 121.0 5.9 121.1 C 6.0 121.1 6.7 121.4 6.5 120.8 C 6.3 120.6 5.4 120.1 5.5 120.8 Z M 17.1 127.3 C 16.6 127.4 17.7 128.4 17.3 128.5 C 17.0 128.6 17.1 128.7 17.5 128.6 C 18.0 128.5 17.6 127.2 17.1 127.3 Z M 20.3 129.2 C 20.1 129.0 19.2 129.3 19.6 129.4 C 20.0 129.5 20.5 129.2 20.3 129.5 C 20.2 129.7 20.3 129.6 20.6 129.6 C 21.0 129.6 20.5 129.3 20.3 129.2 Z M 25.6 132.4 C 25.5 132.4 25.0 132.6 25.4 132.6 C 25.6 132.7 25.7 132.4 25.6 132.4 Z M 11.5 122.5 C 11.7 122.7 11.8 122.7 11.8 122.3 C 11.7 122.0 11.4 122.2 11.5 122.5 Z M 25.7 131.2 C 25.2 131.3 25.9 131.4 25.5 131.5 C 25.2 131.6 25.3 131.7 25.7 131.6 C 26.1 131.5 26.2 131.2 25.7 131.2 Z M 7.4 118.6 C 7.5 118.7 7.8 118.7 7.7 118.5 C 7.6 118.3 7.3 118.4 7.4 118.6 Z M 9.8 119.1 C 9.8 119.2 9.7 119.3 9.7 119.4 C 9.8 121.2 10.6 118.5 9.8 119.1 Z M 12.6 121.3 C 12.2 121.1 12.5 121.6 12.6 121.6 C 12.7 121.5 12.7 121.4 12.6 121.3 Z M 15.9 123.4 C 16.1 123.3 15.7 123.1 15.7 123.3 C 15.6 123.5 15.8 123.5 15.9 123.4 Z M 5.8 115.8 C 5.7 116.0 5.9 116.1 6.0 115.9 C 6.0 115.8 5.9 115.6 5.8 115.8 Z M 14.0 121.1 C 13.9 121.2 13.9 121.2 14.1 121.3 C 14.2 121.3 14.1 121.1 14.0 121.1 Z M 23.9 127.7 C 23.8 127.7 23.6 127.8 23.5 127.8 C 23.5 128.0 24.0 128.5 23.9 128.7 C 23.9 128.7 23.9 128.7 23.9 128.7 C 23.8 128.7 23.9 128.7 23.8 128.8 C 23.7 128.9 23.6 128.9 23.6 128.8 C 23.5 128.8 23.4 128.7 23.2 128.7 C 23.3 129.0 23.5 129.3 23.7 129.2 C 24.0 129.2 24.4 128.8 24.6 128.4 C 24.5 128.2 24.4 128.1 24.3 128.0 C 24.3 128.0 24.3 128.0 24.2 128.0 C 24.0 128.2 23.7 128.1 23.9 128.0 C 23.9 127.9 24.0 127.8 24.1 127.8 C 24.0 127.7 24.0 127.7 23.9 127.7 Z M 15.5 121.5 C 15.2 121.4 15.3 121.7 15.6 122.0 C 15.8 122.2 15.9 121.5 15.5 121.5 Z M 6.4 115.8 C 6.5 115.8 6.6 115.8 6.7 115.8 C 6.7 115.7 6.7 115.7 6.6 115.6 C 6.5 115.5 6.3 115.3 6.2 115.2 C 6.0 115.4 6.0 115.6 6.4 115.8 Z M 9.9 116.7 C 9.7 116.7 8.6 115.8 8.6 116.2 C 8.7 116.9 7.9 117.0 8.9 117.4 C 9.3 117.6 10.1 117.2 10.6 117.4 C 13.0 118.3 10.4 116.4 9.9 115.9 C 9.8 115.8 10.0 116.7 9.9 116.7 Z M 13.0 117.9 C 13.2 117.8 13.1 117.3 12.9 117.3 C 12.4 117.0 12.7 118.1 13.0 117.9 Z M 7.4 113.7 C 7.4 113.7 7.3 113.7 7.3 113.8 C 7.4 113.8 7.4 113.8 7.5 113.7 C 7.5 113.7 7.4 113.7 7.4 113.7 Z M 6.1 112.5 C 6.2 113.5 6.9 112.3 7.0 112.0 C 7.1 111.4 6.0 112.0 6.1 112.5 Z M 12.1 115.9 C 12.5 116.2 13.8 115.3 13.0 114.9 C 12.3 114.4 11.2 115.2 12.1 115.9 Z M 17.5 117.3 C 17.3 117.3 17.0 116.8 17.3 116.8 C 17.5 116.8 17.6 117.2 17.5 117.3 Z M 11.5 112.3 C 11.6 112.4 11.4 112.4 11.4 112.4 C 11.4 112.1 11.4 112.1 11.5 112.3 Z M 11.5 113.5 C 11.3 113.3 11.1 113.1 11.0 112.9 C 10.9 112.8 11.4 113.0 11.4 113.0 C 11.6 113.1 11.4 113.5 11.5 113.5 Z M 14.9 116.0 C 14.8 115.7 15.1 115.9 15.2 116.0 C 15.3 116.1 14.9 116.2 14.9 116.0 Z M 14.2 115.1 C 14.4 115.2 14.1 115.3 14.0 115.2 C 13.8 115.0 14.1 115.0 14.2 115.1 Z M 15.2 116.8 C 14.8 116.7 14.2 116.4 14.5 116.1 C 14.6 116.0 16.1 117.1 15.2 116.8 Z M 15.2 116.8 " fill="#FEFFFE"></path></g></svg>