<?xml version="1.0" encoding="UTF-8" standalone="no"?><svg xmlns="http://www.w3.org/2000/svg" xmlns:xlink="http://www.w3.org/1999/xlink" clip-rule="evenodd" stroke-miterlimit="4.00" viewBox="0 0 380 369"><desc>SVG generated by Keynote</desc><defs></defs><g transform="matrix(1.00, 0.00, -0.00, -1.00, 0.0, 369.0)"><g><clipPath id="clip-45"><path d="M 1.4 44.7 L 379.2 44.7 L 379.2 368.8 L 1.4 368.8 Z M 1.4 44.7 "></path></clipPath><g clip-path="url(#clip-45)"><image xlink:href="1C0AF8594A8F5E6FE094C4F79CD9ED2B.jpeg" width="378.00" height="324.00" transform="matrix(1.00, 0.00, -0.00, -1.00, 1.0, 369.0)"></image></g></g><g><clipPath id="clip-46"><path d="M -7.8 -8.5 L 192.3 -8.5 L 192.3 72.1 L -7.8 72.1 Z M -7.8 -8.5 "></path></clipPath><g clip-path="url(#clip-46)"><text xml:space="preserve" font-family="Chalkduster" font-size="42.0" fill="#FEFFFE" transform="matrix(1.00, 0.00, -0.00, -1.00, 5.0, 17.0)">S</text><text xml:space="preserve" font-family="Chalkduster" font-size="42.0" fill="#FEFFFE" transform="matrix(1.00, 0.00, -0.00, -1.00, 25.9, 17.0)">c</text><text xml:space="preserve" font-family="Chalkduster" font-size="42.0" fill="#FEFFFE" transform="matrix(1.00, 0.00, -0.00, -1.00, 52.3, 17.0)">i</text><text xml:space="preserve" font-family="Chalkduster" font-size="42.0" fill="#FEFFFE" transform="matrix(1.00, 0.00, -0.00, -1.00, 68.8, 17.0)">e</text><text xml:space="preserve" font-family="Chalkduster" font-size="42.0" fill="#FEFFFE" transform="matrix(1.00, 0.00, -0.00, -1.00, 95.3, 17.0)">n</text><text xml:space="preserve" font-family="Chalkduster" font-size="42.0" fill="#FEFFFE" transform="matrix(1.00, 0.00, -0.00, -1.00, 126.1, 17.0)">c</text><text xml:space="preserve" font-family="Chalkduster" font-size="42.0" fill="#FEFFFE" transform="matrix(1.00, 0.00, -0.00, -1.00, 151.5, 17.0)">e</text></g></g></g></svg>