<?xml version="1.0" encoding="UTF-8" standalone="no"?><svg xmlns="http://www.w3.org/2000/svg" xmlns:xlink="http://www.w3.org/1999/xlink" clip-rule="evenodd" stroke-miterlimit="4.00" viewBox="0 0 188 100"><desc>SVG generated by Keynote</desc><defs></defs><g transform="matrix(1.00, 0.00, -0.00, -1.00, 0.0, 100.0)"><path d="M 14.8 93.6 C 14.5 93.8 13.8 93.5 13.6 93.7 M 14.8 93.6 C 14.0 92.5 12.7 92.4 11.0 92.2 C 9.1 92.2 11.1 93.3 10.9 93.7 C 8.4 94.1 8.4 93.3 8.7 92.2 C 7.8 93.0 5.0 91.5 5.5 93.0 C 9.5 93.0 2.7 93.4 6.1 94.2 C 6.5 94.5 5.5 94.9 5.1 94.9 C 6.2 95.5 4.3 96.2 6.1 96.6 C 6.4 97.6 6.1 97.2 7.2 97.9 C 7.7 98.0 7.5 97.7 7.5 97.5 C 7.6 96.4 8.9 98.1 9.8 97.4 C 10.7 98.8 11.5 97.1 10.8 96.5 C 11.6 96.7 12.7 98.2 13.5 97.2 C 14.1 97.9 16.3 97.4 14.9 96.5 C 13.9 95.9 15.0 95.5 15.1 95.2 C 14.7 94.9 13.4 95.3 13.1 95.0 C 13.5 94.8 15.3 94.3 13.4 94.3 C 14.0 93.8 13.0 93.5 14.8 93.6 C 14.8 93.6 14.8 93.6 14.8 93.6 Z M 8.0 92.8 C 8.0 92.4 8.7 92.8 8.0 92.8 C 8.0 92.8 8.0 92.8 8.0 92.8 Z M 12.8 97.9 C 12.8 97.5 13.5 97.9 12.8 97.9 C 12.8 97.9 12.8 97.9 12.8 97.9 Z M 7.8 97.5 C 7.8 97.1 8.4 97.5 7.8 97.5 C 7.8 97.5 7.8 97.5 7.8 97.5 Z M 9.8 93.0 C 10.8 93.4 8.9 93.6 8.8 93.2 C 9.0 93.3 9.5 92.7 9.8 93.0 C 9.8 93.0 9.8 93.0 9.8 93.0 Z M 10.0 95.2 C 10.1 95.1 10.5 95.1 10.5 95.4 C 10.2 95.5 9.9 95.4 10.0 95.2 C 10.0 95.2 10.0 95.2 10.0 95.2 Z M 4.7 93.7 C 4.8 93.5 5.2 93.5 5.2 93.9 C 4.9 94.0 4.6 93.8 4.7 93.7 C 4.7 93.7 4.7 93.7 4.7 93.7 Z M 11.0 94.0 C 11.3 94.1 11.4 94.5 11.1 94.5 C 10.9 94.3 10.2 94.3 11.0 94.0 C 11.0 94.0 11.0 94.0 11.0 94.0 Z M 12.6 92.8 C 13.5 93.0 11.7 93.5 11.8 93.4 C 11.5 93.1 12.1 92.5 12.6 92.8 C 12.6 92.8 12.6 92.8 12.6 92.8 Z M 11.6 94.6 C 12.3 94.8 11.3 94.8 11.6 94.6 C 11.6 94.6 11.6 94.6 11.6 94.6 Z M 5.4 96.5 C 6.2 96.7 5.1 96.8 5.4 96.5 C 5.4 96.5 5.4 96.5 5.4 96.5 Z M 9.4 97.7 C 10.1 97.9 9.1 98.0 9.4 97.7 C 9.4 97.7 9.4 97.7 9.4 97.7 Z M 7.8 93.8 C 6.6 93.8 7.7 92.8 7.8 93.8 C 7.8 93.8 7.8 93.8 7.8 93.8 Z M 14.7 92.7 C 13.4 92.7 14.4 91.7 14.7 92.7 C 14.7 92.7 14.7 92.7 14.7 92.7 Z M 6.5 93.4 C 6.7 94.6 7.9 90.2 6.5 91.8 C 5.2 92.2 5.3 89.1 6.5 90.0 C 6.6 89.1 6.7 89.1 6.1 88.6 C 7.0 88.5 7.5 86.4 7.0 85.6 C 6.2 85.1 6.9 87.0 6.1 85.7 C 5.8 83.0 5.2 85.8 4.2 84.7 C 4.2 84.6 4.7 84.6 4.4 84.3 C 3.5 84.1 2.8 85.6 2.1 84.8 C 2.2 85.2 1.2 87.2 2.0 86.4 C 2.9 86.2 0.9 88.5 2.4 88.4 C 1.7 89.1 2.7 89.8 1.8 90.4 C 1.7 90.9 2.4 90.9 2.6 90.9 C 3.3 90.8 1.1 91.4 2.3 92.2 C 2.0 92.3 2.1 94.5 2.6 92.9 C 2.5 93.3 2.2 95.9 3.5 94.6 C 4.1 92.8 4.9 96.4 5.0 94.3 C 5.1 92.8 4.8 92.4 5.5 93.6 C 5.5 94.0 5.6 95.8 6.2 94.3 C 6.0 93.9 6.1 93.2 6.5 93.4 C 6.5 93.4 6.5 93.4 6.5 93.4 Z M 4.5 93.7 C 4.5 92.8 5.1 93.6 4.5 93.7 C 4.5 93.7 4.5 93.7 4.5 93.7 Z M 1.6 90.2 C 1.5 89.3 2.1 90.2 1.6 90.2 C 1.6 90.2 1.6 90.2 1.6 90.2 Z M 6.8 90.6 C 6.4 90.2 7.8 90.1 6.8 90.6 C 6.8 90.6 6.8 90.6 6.8 90.6 Z M 2.6 91.9 C 2.6 91.8 2.8 92.0 2.9 92.2 C 2.8 92.2 2.7 91.9 2.6 91.9 C 2.6 91.9 2.6 91.9 2.6 91.9 Z M 6.8 89.1 C 6.2 87.8 7.9 89.0 6.8 89.1 C 6.8 89.1 6.8 89.1 6.8 89.1 Z M 5.5 86.3 C 4.1 86.0 5.8 85.0 5.5 86.3 C 5.5 86.3 5.5 86.3 5.5 86.3 Z M 2.5 88.0 C 2.8 88.3 2.3 88.2 2.5 88.0 C 2.5 88.0 2.5 88.0 2.5 88.0 Z M 2.3 94.1 C 2.6 94.3 2.1 94.3 2.3 94.1 C 2.3 94.1 2.3 94.1 2.3 94.1 Z M 2.6 86.3 C 3.1 86.4 2.4 86.8 2.6 86.3 C 2.6 86.3 2.6 86.3 2.6 86.3 Z M 6.3 90.4 C 7.4 91.6 4.7 91.8 6.3 90.4 C 6.3 90.4 6.3 90.4 6.3 90.4 Z M 6.4 92.6 C 6.6 93.4 5.7 92.4 5.9 92.0 C 6.0 92.1 6.3 92.4 6.4 92.6 C 6.4 92.6 6.4 92.6 6.4 92.6 Z M 6.1 89.1 C 6.7 89.9 5.9 89.8 6.1 89.1 C 6.1 89.1 6.1 89.1 6.1 89.1 Z M 6.7 91.2 C 6.6 91.6 6.6 90.9 6.7 91.2 C 6.7 91.2 6.7 91.2 6.7 91.2 Z M 7.3 87.5 C 7.2 87.9 7.1 87.2 7.3 87.5 C 7.3 87.5 7.3 87.5 7.3 87.5 Z M 6.9 93.6 C 6.8 94.0 6.8 93.2 6.9 93.6 C 6.9 93.6 6.9 93.6 6.9 93.6 Z M 6.6 87.8 C 6.1 87.6 5.0 88.7 5.9 86.7 C 6.3 86.3 7.0 87.3 6.6 87.8 C 6.6 87.8 6.6 87.8 6.6 87.8 Z M 18.9 93.6 C 13.0 92.1 14.5 94.8 14.3 95.3 C 13.5 96.0 14.3 96.5 15.5 97.0 C 16.9 98.7 17.3 95.3 18.3 96.9 C 20.1 99.2 19.9 95.0 20.8 97.4 C 20.6 98.0 22.9 97.5 22.7 97.3 C 24.0 98.5 25.4 96.4 25.4 96.2 C 26.2 96.5 26.5 98.7 28.7 97.1 C 30.5 96.5 31.6 98.6 30.9 97.2 C 32.5 98.8 31.8 96.7 33.2 97.2 C 34.3 98.1 33.0 95.8 35.0 97.6 C 35.5 96.2 34.3 98.5 38.8 97.5 C 36.5 97.4 40.7 96.4 40.0 97.3 C 38.6 98.3 42.1 97.0 44.3 97.6 C 44.7 97.0 46.9 95.8 46.8 97.2 C 49.4 98.7 48.8 96.2 50.0 97.5 C 50.9 98.0 50.9 96.9 51.4 97.0 C 52.4 97.9 52.9 97.3 55.6 97.6 C 61.7 98.1 55.8 95.1 57.9 94.7 C 58.1 94.3 54.0 91.1 56.0 93.5 C 55.4 92.8 51.4 95.3 53.0 92.7 C 51.5 93.7 53.1 91.6 49.8 92.8 C 55.3 94.7 44.5 93.6 48.9 92.7 C 48.0 92.1 46.1 92.2 47.6 92.7 C 48.6 94.4 44.1 91.9 46.5 94.0 C 43.4 93.4 44.6 95.3 43.4 94.0 C 42.2 91.7 43.7 94.5 42.0 93.9 C 38.5 93.9 40.7 91.3 38.9 93.0 C 35.2 91.9 38.3 94.0 37.2 94.3 C 37.1 95.8 33.4 93.1 36.0 92.9 C 34.7 93.7 35.6 92.1 34.2 93.1 C 35.6 94.5 31.9 91.6 32.6 92.7 C 31.2 93.1 32.1 94.0 31.6 94.0 C 29.5 94.0 30.0 92.6 29.7 93.6 C 29.3 94.2 28.0 92.4 27.8 92.8 C 30.0 92.9 26.2 94.3 25.9 93.6 C 27.2 93.5 25.0 91.7 24.2 92.8 C 25.7 95.9 22.3 92.0 21.4 93.1 C 22.5 94.8 16.7 93.3 18.7 92.5 C 18.6 92.7 18.9 93.7 18.9 93.6 M 27.2 93.1 C 29.0 93.2 25.3 93.4 27.2 93.1 M 27.1 92.6 C 27.9 93.2 25.3 92.2 27.1 92.4 C 27.2 92.5 27.0 92.6 27.1 92.6 M 34.5 92.6 C 34.3 93.1 33.4 92.3 34.5 92.6 M 36.1 93.6 C 37.3 94.1 34.5 93.7 36.1 93.6 M 52.4 93.3 C 51.4 95.9 50.3 91.9 52.4 93.3 M 41.5 92.8 C 39.5 93.1 41.9 91.7 41.5 92.8 M 41.0 93.4 C 40.2 93.8 40.7 92.8 41.0 93.4 M 49.3 93.3 C 49.5 93.3 49.5 93.3 49.3 93.3 C 49.3 93.3 49.3 93.3 49.3 93.3 Z M 54.2 93.4 C 54.2 93.3 54.2 93.3 54.2 93.4 C 54.2 93.4 54.2 93.4 54.2 93.4 Z M 44.6 93.6 C 43.0 93.0 47.0 93.3 44.6 93.6 C 44.6 93.6 44.6 93.6 44.6 93.6 Z M 52.9 97.3 C 52.8 97.3 52.8 97.3 52.9 97.3 C 52.9 97.3 52.9 97.3 52.9 97.3 Z M 25.9 94.3 C 25.9 94.3 25.9 94.3 25.9 94.3 C 25.9 94.3 25.9 94.3 25.9 94.3 Z M 20.3 93.3 C 20.4 93.6 19.3 93.0 20.3 93.3 C 20.3 93.3 20.3 93.3 20.3 93.3 Z M 16.0 96.2 C 15.9 96.3 15.9 96.3 16.0 96.2 C 16.0 96.2 16.0 96.2 16.0 96.2 Z M 24.2 95.6 C 24.2 95.7 24.2 95.7 24.2 95.6 C 24.2 95.6 24.2 95.6 24.2 95.6 Z M 24.8 93.7 C 23.7 92.3 27.0 94.1 24.8 93.7 C 24.8 93.7 24.8 93.7 24.8 93.7 Z M 43.5 97.1 C 43.5 96.5 44.9 97.3 43.5 97.1 C 43.5 97.1 43.5 97.1 43.5 97.1 Z M 36.4 94.2 C 36.6 93.9 37.2 94.4 36.4 94.2 C 36.4 94.2 36.4 94.2 36.4 94.2 Z M 33.0 92.3 C 33.2 92.0 33.8 92.4 33.0 92.3 C 33.0 92.3 33.0 92.3 33.0 92.3 Z M 20.3 92.9 C 20.4 92.8 20.4 92.8 20.3 92.9 C 20.3 92.9 20.3 92.9 20.3 92.9 Z M 22.4 94.0 C 20.9 92.6 24.6 94.7 22.4 94.0 C 22.4 94.0 22.4 94.0 22.4 94.0 Z M 20.1 94.4 C 20.9 94.9 18.3 94.1 20.1 94.4 M 21.6 96.4 C 23.3 95.8 20.3 98.8 21.6 96.4 C 21.6 96.4 21.6 96.4 21.6 96.4 Z M 30.4 96.9 C 30.5 97.0 30.5 97.0 30.4 96.9 C 30.4 96.9 30.4 96.9 30.4 96.9 Z M 28.9 93.0 C 30.4 93.1 28.0 93.4 28.9 93.0 C 28.9 93.0 28.9 93.0 28.9 93.0 Z M 16.1 92.7 C 17.6 92.8 15.2 93.1 16.1 92.7 C 16.1 92.7 16.1 92.7 16.1 92.7 Z M 35.2 95.6 C 37.7 95.4 33.8 96.3 35.2 95.6 C 35.2 95.6 35.2 95.6 35.2 95.6 Z M 43.9 94.1 C 44.0 94.1 44.0 94.1 43.9 94.1 C 43.9 94.1 43.9 94.1 43.9 94.1 Z M 45.4 93.5 C 45.5 93.6 45.5 93.6 45.4 93.5 C 45.4 93.5 45.4 93.5 45.4 93.5 Z M 52.7 94.9 C 52.8 94.9 52.8 94.9 52.7 94.9 C 52.7 94.9 52.7 94.9 52.7 94.9 Z M 46.8 92.9 C 46.9 92.9 46.9 92.9 46.8 92.9 C 46.8 92.9 46.8 92.9 46.8 92.9 Z M 51.7 93.2 C 51.8 93.3 51.8 93.3 51.7 93.2 C 51.7 93.2 51.7 93.2 51.7 93.2 Z M 50.7 92.1 C 50.8 92.1 50.8 92.1 50.7 92.1 C 50.7 92.1 50.7 92.1 50.7 92.1 Z M 41.3 97.9 C 41.4 97.9 41.4 97.9 41.3 97.9 C 41.3 97.9 41.3 97.9 41.3 97.9 Z M 22.9 92.5 C 23.0 92.6 23.0 92.6 22.9 92.5 C 22.9 92.5 22.9 92.5 22.9 92.5 Z M 51.4 93.8 C 51.5 93.8 51.5 93.8 51.4 93.8 C 51.4 93.8 51.4 93.8 51.4 93.8 Z M 39.9 94.8 C 40.2 95.9 38.6 93.3 40.2 94.8 C 40.2 94.8 39.8 94.6 39.9 94.8 M 41.9 96.7 C 41.8 96.7 41.8 96.7 41.9 96.7 C 41.9 96.7 41.9 96.7 41.9 96.7 Z M 36.6 97.4 C 36.6 97.4 36.6 97.4 36.6 97.4 C 36.6 97.4 36.6 97.4 36.6 97.4 Z M 45.9 92.7 C 45.6 92.0 47.3 93.2 45.7 92.7 M 53.3 96.9 C 52.9 96.2 54.8 97.4 53.1 96.9 M 14.4 93.2 C 14.3 93.7 13.4 92.9 14.4 93.2 M 35.5 98.0 C 35.4 98.5 34.5 97.7 35.5 98.0 M 37.8 96.5 C 37.5 95.9 39.2 97.0 37.6 96.6 M 49.6 96.8 C 49.7 96.8 49.7 96.8 49.6 96.8 C 49.6 96.8 49.6 96.8 49.6 96.8 Z M 31.2 93.2 C 31.3 93.2 31.3 93.2 31.2 93.2 C 31.2 93.2 31.2 93.2 31.2 93.2 Z M 37.9 94.5 C 36.9 93.6 39.2 95.1 37.9 94.5 M 29.6 94.7 C 28.1 93.6 31.7 95.0 29.6 94.7 M 56.2 97.1 C 54.4 95.8 57.5 97.8 56.2 97.1 M 48.1 93.9 C 46.4 92.6 49.4 94.6 48.1 93.9 M 32.6 93.7 C 32.4 93.0 34.1 94.1 32.6 93.7 M 17.8 93.1 C 16.4 92.9 19.5 92.5 17.8 93.1 M 46.0 96.9 C 46.1 96.9 46.1 96.9 46.0 96.9 C 46.0 96.9 46.0 96.9 46.0 96.9 Z M 22.7 98.0 C 22.8 98.1 22.8 98.1 22.7 98.0 C 22.7 98.0 22.7 98.0 22.7 98.0 Z M 56.8 92.9 C 56.9 92.9 56.9 92.9 56.8 92.9 C 56.8 92.9 56.8 92.9 56.8 92.9 Z M 47.4 94.5 C 47.5 94.6 47.5 94.6 47.4 94.5 C 47.4 94.5 47.4 94.5 47.4 94.5 Z M 54.0 92.7 C 54.1 92.8 54.1 92.8 54.0 92.7 C 54.0 92.7 54.0 92.7 54.0 92.7 Z M 43.1 95.5 C 43.2 95.5 43.2 95.5 43.1 95.5 C 43.1 95.5 43.1 95.5 43.1 95.5 Z M 41.5 92.2 C 41.6 92.2 41.6 92.2 41.5 92.2 C 41.5 92.2 41.5 92.2 41.5 92.2 Z M 36.9 93.6 C 37.0 93.6 37.0 93.6 36.9 93.6 C 36.9 93.6 36.9 93.6 36.9 93.6 Z M 43.8 92.5 C 46.6 92.3 42.5 93.6 43.8 92.5 C 43.8 92.5 43.8 92.5 43.8 92.5 Z M 39.4 95.8 C 39.4 95.8 39.4 95.8 39.4 95.8 C 39.4 95.8 39.4 95.8 39.4 95.8 Z M 38.5 93.4 C 40.2 92.5 39.8 95.0 38.5 93.4 M 30.3 92.6 C 30.8 92.1 30.7 93.4 30.3 92.6 M 27.6 97.0 C 27.6 97.0 27.6 97.0 27.6 97.0 C 27.6 97.0 27.6 97.0 27.6 97.0 Z M 28.4 96.6 C 28.5 96.7 28.5 96.7 28.4 96.6 C 28.4 96.6 28.4 96.6 28.4 96.6 Z M 28.3 92.4 C 28.3 92.5 28.3 92.5 28.3 92.4 C 28.3 92.4 28.3 92.4 28.3 92.4 Z M 28.7 97.9 C 28.8 97.9 28.8 97.9 28.7 97.9 C 28.7 97.9 28.7 97.9 28.7 97.9 Z M 40.4 92.3 C 40.5 92.3 40.5 92.3 40.4 92.3 C 40.4 92.3 40.4 92.3 40.4 92.3 Z M 55.3 92.2 C 55.3 92.3 55.3 92.3 55.3 92.2 C 55.3 92.2 55.3 92.2 55.3 92.2 Z M 18.5 96.5 C 18.6 96.6 18.6 96.6 18.5 96.5 C 18.5 96.5 18.5 96.5 18.5 96.5 Z M 42.3 93.6 C 42.3 93.6 42.3 93.6 42.3 93.6 C 42.3 93.6 42.3 93.6 42.3 93.6 Z M 25.4 96.8 C 25.5 96.8 25.5 96.8 25.4 96.8 C 25.4 96.8 25.4 96.8 25.4 96.8 Z M 41.2 93.3 C 41.3 93.3 41.3 93.3 41.2 93.3 C 41.2 93.3 41.2 93.3 41.2 93.3 Z M 45.6 97.2 C 45.7 97.2 45.7 97.2 45.6 97.2 C 45.6 97.2 45.6 97.2 45.6 97.2 Z M 49.1 97.9 C 49.1 97.9 49.1 97.9 49.1 97.9 C 49.1 97.9 49.1 97.9 49.1 97.9 Z M 44.9 94.9 C 44.9 94.9 44.9 94.9 44.9 94.9 C 44.9 94.9 44.9 94.9 44.9 94.9 Z M 24.2 95.4 C 18.2 94.2 28.9 94.8 24.2 95.4 M 45.9 95.1 C 41.7 94.9 48.9 93.8 45.9 95.1 C 46.3 94.8 46.0 95.1 45.9 95.1 M 58.1 92.4 C 56.7 93.6 57.1 94.7 58.2 96.0 C 59.2 96.6 58.5 94.2 59.2 96.2 C 57.3 96.6 61.0 99.3 60.1 96.7 C 62.6 96.3 61.0 98.4 62.3 97.3 C 65.0 97.0 63.8 97.9 65.9 97.7 C 66.6 96.2 67.4 98.4 67.4 97.0 C 66.9 98.5 69.6 96.6 69.9 97.3 C 68.3 98.2 77.3 97.3 72.0 96.9 C 73.8 96.2 73.9 97.4 74.7 97.6 C 75.3 96.7 78.4 98.3 79.3 97.4 C 79.0 97.2 78.3 97.1 78.0 96.9 C 77.4 96.3 79.5 97.0 79.3 96.9 C 80.0 96.6 83.0 95.7 80.1 97.3 C 80.2 98.0 82.8 96.9 83.0 97.6 C 86.1 97.6 83.2 96.2 85.0 97.2 C 87.2 97.3 88.8 97.3 88.7 97.1 C 90.2 97.3 90.8 98.1 91.7 97.3 C 95.2 98.9 92.1 94.2 94.6 97.3 C 95.0 96.6 96.8 98.6 95.7 96.7 C 95.2 97.6 101.1 98.2 98.0 96.8 C 98.4 96.3 103.2 98.8 101.6 96.8 C 102.1 95.4 101.1 94.0 97.7 92.7 C 98.6 93.8 94.3 91.5 97.3 93.4 C 99.9 94.0 93.4 94.1 94.5 93.4 C 93.7 91.1 92.0 94.8 89.9 93.2 C 91.4 94.1 86.3 94.5 87.1 92.8 C 86.0 92.7 86.2 93.5 84.7 92.5 C 87.9 92.7 84.2 94.3 84.0 93.3 C 84.2 92.6 79.3 92.1 80.2 93.1 C 82.9 95.4 78.8 92.6 78.4 93.5 C 76.0 94.0 77.9 91.5 76.7 93.2 C 76.1 92.9 72.6 92.9 74.6 92.5 C 75.5 92.7 73.6 95.0 72.4 93.0 C 75.7 91.9 68.0 92.4 69.4 93.0 C 75.6 94.1 63.8 94.2 67.9 93.2 C 65.0 92.1 68.5 92.7 65.5 93.2 C 66.2 93.8 63.9 94.4 64.1 93.2 C 63.0 91.3 64.1 95.7 61.3 93.1 C 60.6 92.0 57.7 93.9 58.7 92.7 C 58.8 92.6 58.2 92.3 58.1 92.4 M 59.3 92.6 C 59.0 93.0 58.4 92.0 59.3 92.6 M 58.9 93.0 C 58.9 93.0 58.9 93.0 58.9 93.0 C 58.9 93.0 58.9 93.0 58.9 93.0 Z M 65.1 93.3 C 65.0 93.2 65.0 93.2 65.1 93.3 C 65.1 93.3 65.1 93.3 65.1 93.3 Z M 71.7 98.0 C 71.6 98.0 71.6 98.0 71.7 98.0 C 71.7 98.0 71.7 98.0 71.7 98.0 Z M 69.2 93.4 C 69.1 93.4 69.1 93.4 69.2 93.4 C 69.2 93.4 69.2 93.4 69.2 93.4 Z M 63.0 93.6 C 63.0 93.6 63.0 93.6 63.0 93.6 C 63.0 93.6 63.0 93.6 63.0 93.6 Z M 68.6 92.7 C 69.1 93.4 67.0 92.2 68.6 92.6 C 68.7 92.6 68.4 92.6 68.6 92.7 M 73.7 92.4 C 73.8 92.5 73.8 92.5 73.7 92.4 M 87.8 98.0 C 87.9 98.1 87.9 98.1 87.8 98.0 M 86.2 92.4 C 86.4 92.4 86.4 92.4 86.2 92.4 M 79.2 93.1 C 80.8 93.0 79.8 93.5 79.2 93.1 M 90.6 92.8 C 88.4 92.3 92.6 92.4 90.6 92.8 M 92.4 92.3 C 92.6 92.4 92.6 92.4 92.4 92.3 M 83.4 92.6 C 83.4 92.7 83.4 92.7 83.4 92.6 C 83.4 92.6 83.4 92.6 83.4 92.6 Z M 78.4 92.8 C 76.2 92.5 80.3 92.2 78.4 92.8 M 65.6 92.6 C 66.6 92.2 65.9 93.5 65.6 92.6 M 63.3 93.0 C 63.3 93.0 63.3 93.0 63.3 93.0 C 63.3 93.0 63.3 93.0 63.3 93.0 Z M 87.4 92.7 C 87.3 92.7 87.3 92.7 87.4 92.7 C 87.4 92.7 87.4 92.7 87.4 92.7 Z M 89.7 92.6 C 89.6 92.6 89.6 92.6 89.7 92.6 C 89.7 92.6 89.7 92.6 89.7 92.6 Z M 96.2 97.8 C 96.1 97.8 96.1 97.8 96.2 97.8 C 96.2 97.8 96.2 97.8 96.2 97.8 Z M 65.8 95.2 C 64.1 94.8 66.9 93.5 67.0 94.7 C 67.4 95.3 66.0 95.0 65.8 95.2 M 77.6 94.4 C 78.7 96.2 75.0 92.0 77.6 94.4 M 93.3 93.5 C 95.9 95.6 90.6 92.0 93.3 93.5 M 96.3 93.1 C 97.4 93.6 90.5 93.4 95.0 92.8 C 95.3 92.5 95.8 92.9 96.3 93.1 M 74.1 93.3 C 75.0 94.2 71.5 92.8 74.1 93.3 M 85.2 96.2 C 85.6 95.6 87.4 95.0 87.0 96.1 C 87.6 97.5 84.4 96.7 85.2 96.2 M 60.1 93.6 C 60.8 92.0 60.4 94.9 60.1 93.6 M 66.3 93.7 C 66.3 93.6 66.3 93.6 66.3 93.7 C 66.3 93.7 66.3 93.7 66.3 93.7 Z M 68.6 93.5 C 68.8 93.6 68.8 93.6 68.6 93.5 M 60.6 92.2 C 60.8 92.3 60.8 92.3 60.6 92.2 M 84.4 94.6 C 84.6 94.7 84.6 94.7 84.4 94.6 M 79.0 93.5 C 82.0 95.1 77.8 93.9 79.0 93.5 M 74.3 96.5 C 75.3 97.3 72.8 96.6 74.3 96.5 M 82.6 92.9 C 84.9 94.4 80.9 94.3 82.6 92.9 M 77.7 93.4 C 77.8 93.4 77.8 93.4 77.7 93.4 C 77.7 93.4 77.7 93.4 77.7 93.4 Z M 85.9 96.4 C 85.8 96.4 85.8 96.4 85.9 96.4 C 85.9 96.4 85.9 96.4 85.9 96.4 Z M 86.6 96.3 C 86.5 96.3 86.5 96.3 86.6 96.3 C 86.6 96.3 86.6 96.3 86.6 96.3 Z M 84.6 92.8 C 84.5 92.8 84.5 92.8 84.6 92.8 C 84.6 92.8 84.6 92.8 84.6 92.8 Z M 64.5 97.1 C 66.3 97.2 63.3 97.3 64.5 97.1 C 64.5 97.1 64.5 97.1 64.5 97.1 Z M 70.5 92.7 C 73.7 93.9 69.0 93.8 70.5 92.7 C 70.5 92.7 70.5 92.7 70.5 92.7 Z M 74.4 94.6 C 74.4 94.7 74.4 94.7 74.4 94.6 C 74.4 94.6 74.4 94.6 74.4 94.6 Z M 81.1 92.0 C 81.2 92.1 81.2 92.1 81.1 92.0 C 81.1 92.0 81.1 92.0 81.1 92.0 Z M 65.4 97.3 C 65.5 97.3 65.5 97.3 65.4 97.3 C 65.4 97.3 65.4 97.3 65.4 97.3 Z M 89.7 93.6 C 89.7 93.7 89.7 93.7 89.7 93.6 C 89.7 93.6 89.7 93.6 89.7 93.6 Z M 81.3 96.6 C 81.7 96.0 81.7 97.1 81.3 96.6 C 81.3 96.6 81.3 96.6 81.3 96.6 Z M 83.9 96.6 C 84.0 96.6 84.0 96.6 83.9 96.6 C 83.9 96.6 83.9 96.6 83.9 96.6 Z M 93.0 92.2 C 93.0 92.2 93.0 92.2 93.0 92.2 C 93.0 92.2 93.0 92.2 93.0 92.2 Z M 91.1 98.0 C 91.1 98.0 91.1 98.0 91.1 98.0 C 91.1 98.0 91.1 98.0 91.1 98.0 Z M 92.4 96.3 C 92.4 96.3 92.4 96.3 92.4 96.3 C 92.4 96.3 92.4 96.3 92.4 96.3 Z M 84.3 93.1 C 86.6 92.9 84.0 93.8 84.3 93.1 C 84.3 93.1 84.3 93.1 84.3 93.1 Z M 98.4 95.8 C 98.5 95.9 98.5 95.9 98.4 95.8 C 98.4 95.8 98.4 95.8 98.4 95.8 Z M 98.6 93.8 C 98.8 93.9 98.8 93.9 98.6 93.8 C 98.6 93.8 98.6 93.8 98.6 93.8 Z M 98.7 92.7 C 98.8 92.8 98.8 92.8 98.7 92.7 C 98.7 92.7 98.7 92.7 98.7 92.7 Z M 69.3 95.6 C 69.3 95.6 69.3 95.6 69.3 95.6 C 69.3 95.6 69.3 95.6 69.3 95.6 Z M 67.2 92.3 C 67.1 92.3 67.1 92.3 67.2 92.3 C 67.2 92.3 67.2 92.3 67.2 92.3 Z M 70.5 92.2 C 70.5 92.2 70.5 92.2 70.5 92.2 C 70.5 92.2 70.5 92.2 70.5 92.2 Z M 69.4 97.6 C 69.4 97.6 69.4 97.6 69.4 97.6 C 69.4 97.6 69.4 97.6 69.4 97.6 Z M 81.3 94.8 C 81.2 94.8 81.2 94.8 81.3 94.8 C 81.3 94.8 81.3 94.8 81.3 94.8 Z M 83.0 96.2 C 83.0 96.1 83.0 96.1 83.0 96.2 C 83.0 96.2 83.0 96.2 83.0 96.2 Z M 80.8 97.9 C 80.8 97.9 80.8 97.9 80.8 97.9 C 80.8 97.9 80.8 97.9 80.8 97.9 Z M 84.5 97.3 C 84.5 97.3 84.5 97.3 84.5 97.3 C 84.5 97.3 84.5 97.3 84.5 97.3 Z M 60.5 97.0 C 60.5 97.0 60.5 97.0 60.5 97.0 C 60.5 97.0 60.5 97.0 60.5 97.0 Z M 59.5 94.5 C 59.4 94.6 59.4 94.6 59.5 94.5 C 59.5 94.5 59.5 94.5 59.5 94.5 Z M 80.9 93.0 C 81.2 92.5 82.3 93.7 80.9 93.0 M 76.2 93.3 C 76.2 93.4 76.2 93.4 76.2 93.3 C 76.2 93.3 76.2 93.3 76.2 93.3 Z M 89.1 93.1 C 90.2 94.1 86.5 92.6 89.1 93.1 C 89.1 93.1 89.1 93.1 89.1 93.1 Z M 88.4 97.3 C 88.5 97.3 88.5 97.3 88.4 97.3 C 88.4 97.3 88.4 97.3 88.4 97.3 Z M 89.5 96.9 C 89.7 97.0 89.7 97.0 89.5 96.9 C 89.5 96.9 89.5 96.9 89.5 96.9 Z M 95.3 94.2 C 95.5 94.2 95.5 94.2 95.3 94.2 M 75.2 92.4 C 76.1 92.9 75.9 92.8 75.2 92.4 M 90.7 93.1 C 90.6 93.2 90.6 93.2 90.7 93.1 C 90.7 93.1 90.7 93.1 90.7 93.1 Z M 96.6 93.6 C 96.5 93.6 96.5 93.6 96.6 93.6 C 96.6 93.6 96.6 93.6 96.6 93.6 Z M 72.0 93.1 C 72.6 94.3 71.8 94.0 72.0 93.1 M 62.5 93.5 C 62.6 93.6 62.6 93.6 62.5 93.5 C 62.5 93.5 62.5 93.5 62.5 93.5 Z M 103.8 92.7 C 100.4 91.4 101.4 93.3 101.5 93.3 C 100.4 90.8 99.7 94.3 100.5 94.8 C 100.6 95.2 105.1 99.6 105.5 96.9 C 105.8 96.6 106.5 97.4 106.9 97.4 C 110.2 97.3 103.9 96.1 107.9 96.1 C 108.8 96.4 109.2 98.5 110.7 97.1 C 110.9 97.3 114.1 98.1 112.5 97.1 C 114.4 98.1 114.5 96.9 115.5 96.7 C 117.0 97.2 115.6 98.2 118.7 97.0 C 121.5 98.8 120.1 95.7 122.9 97.7 C 123.9 97.7 123.2 94.5 122.2 96.3 C 122.4 96.1 120.0 94.6 123.4 95.2 C 123.2 95.6 123.6 98.8 127.4 97.3 C 128.3 97.3 129.5 96.5 130.2 96.9 C 128.0 97.2 134.6 98.3 133.3 97.3 C 137.6 98.0 134.3 96.5 137.9 97.6 C 140.2 97.6 136.1 96.1 139.5 97.0 C 141.5 96.8 140.7 97.6 140.4 97.6 C 142.4 97.7 142.6 97.1 143.3 97.2 C 143.8 97.4 145.2 98.0 145.0 97.2 C 145.8 95.7 142.9 94.3 142.6 92.8 C 140.7 92.1 142.9 93.9 141.1 92.8 C 141.1 93.8 140.9 92.8 137.2 93.0 C 137.5 93.2 138.9 93.8 138.1 93.9 C 136.5 93.8 135.7 91.3 134.6 93.1 C 137.8 93.6 131.1 93.9 134.2 94.4 C 131.0 94.7 133.0 94.2 130.2 93.6 C 131.5 95.3 128.7 91.8 128.8 93.1 C 128.1 92.5 124.5 92.8 127.9 93.8 C 124.3 94.2 126.1 93.3 124.1 92.4 C 122.2 92.3 125.8 95.1 123.3 93.0 C 120.3 92.1 123.9 94.1 121.1 92.5 C 122.8 93.9 119.3 92.4 121.0 94.0 C 117.0 94.1 120.4 92.4 118.3 93.4 C 119.2 93.5 117.5 91.4 116.6 92.8 C 118.9 95.2 113.0 90.6 116.3 93.8 C 111.2 94.8 114.5 92.5 111.4 92.5 C 110.6 92.5 112.9 93.5 112.2 93.6 C 107.9 93.1 110.8 92.3 109.6 93.8 C 105.9 94.3 107.7 92.5 105.7 92.4 C 106.0 93.1 105.1 94.4 103.8 92.7 M 107.7 93.5 C 108.3 93.0 108.6 94.0 107.7 93.5 M 99.4 92.7 C 99.9 92.2 100.2 93.3 99.4 92.7 M 110.7 93.0 C 111.5 92.5 111.6 93.9 110.7 93.0 M 132.6 93.8 C 131.1 93.8 133.0 93.4 132.6 93.8 M 102.5 92.6 C 103.3 92.0 103.3 93.5 102.5 92.6 M 101.7 93.9 C 101.8 93.9 101.8 93.9 101.7 93.9 M 133.7 92.5 C 133.8 92.5 133.8 92.5 133.7 92.5 M 128.0 92.5 C 129.3 92.5 127.6 92.8 128.0 92.5 M 131.6 97.9 C 132.9 97.9 131.1 98.2 131.6 97.9 M 136.8 92.4 C 137.7 92.0 137.6 93.0 136.8 92.4 M 140.8 93.6 C 141.6 93.1 142.0 94.2 140.8 93.6 M 108.1 95.4 C 108.1 95.4 108.1 95.4 108.1 95.4 C 108.1 95.4 108.1 95.4 108.1 95.4 Z M 119.5 96.7 C 117.9 96.2 121.5 97.4 119.5 96.7 M 115.4 93.2 C 116.9 94.3 113.7 93.1 115.4 93.2 C 115.4 93.2 115.4 93.2 115.4 93.2 Z M 113.9 93.7 C 113.9 93.7 113.9 93.7 113.9 93.7 C 113.9 93.7 113.9 93.7 113.9 93.7 Z M 119.8 93.8 C 119.8 93.8 119.8 93.8 119.8 93.8 C 119.8 93.8 119.8 93.8 119.8 93.8 Z M 118.7 93.8 C 118.3 94.1 117.8 93.6 118.7 93.8 C 118.7 93.8 118.7 93.8 118.7 93.8 Z M 129.7 97.3 C 129.3 97.5 128.8 97.1 129.7 97.3 C 129.7 97.3 129.7 97.3 129.7 97.3 Z M 117.0 94.2 C 117.6 95.3 115.7 93.5 117.0 94.2 C 117.0 94.2 117.0 94.2 117.0 94.2 Z M 125.1 96.8 C 125.5 96.5 127.0 97.9 125.1 96.8 M 135.1 92.7 C 135.4 92.4 136.9 93.7 135.1 92.7 M 122.4 92.4 C 122.7 92.1 124.2 93.4 122.4 92.4 M 108.1 93.0 C 108.3 93.2 108.3 93.2 108.1 93.0 M 118.0 97.8 C 118.6 97.4 118.8 98.2 118.0 97.8 M 105.8 97.4 C 106.4 97.0 106.4 97.9 105.8 97.4 M 137.0 97.7 C 136.7 97.5 138.4 97.9 137.0 97.7 M 125.0 94.1 C 126.2 94.3 127.8 94.9 125.4 94.8 C 125.1 94.5 125.7 94.4 125.0 94.1 C 125.0 94.1 125.0 94.1 125.0 94.1 Z M 130.7 96.6 C 131.0 96.7 131.0 96.7 130.7 96.6 M 126.3 93.1 C 126.5 93.2 126.5 93.2 126.3 93.1 M 132.8 93.2 C 133.0 93.4 133.0 93.4 132.8 93.2 M 133.3 92.9 C 133.4 93.0 133.4 93.0 133.3 92.9 C 133.3 92.9 133.3 92.9 133.3 92.9 Z M 140.0 92.5 C 140.0 92.5 140.0 92.5 140.0 92.5 C 140.0 92.5 140.0 92.5 140.0 92.5 Z M 130.8 93.4 C 130.8 93.4 130.8 93.4 130.8 93.4 C 130.8 93.4 130.8 93.4 130.8 93.4 Z M 139.7 97.5 C 139.8 97.6 139.8 97.6 139.7 97.5 C 139.7 97.5 139.7 97.5 139.7 97.5 Z M 138.5 96.9 C 138.5 96.9 138.5 96.9 138.5 96.9 C 138.5 96.9 138.5 96.9 138.5 96.9 Z M 104.3 92.7 C 104.9 92.0 105.9 94.6 104.3 92.7 M 141.7 96.9 C 143.2 97.6 140.1 97.0 141.7 96.9 C 141.7 96.9 141.7 96.9 141.7 96.9 Z M 130.7 94.3 C 130.9 94.4 130.9 94.4 130.7 94.3 M 133.8 93.0 C 134.0 93.2 134.0 93.2 133.8 93.0 M 114.7 92.2 C 114.9 92.3 114.9 92.3 114.7 92.2 M 138.9 93.2 C 142.1 93.5 138.7 94.8 138.9 93.2 M 114.0 93.2 C 113.9 93.1 113.9 93.1 114.0 93.2 M 122.0 95.3 C 124.0 95.2 121.7 95.9 122.0 95.3 M 126.2 93.9 C 126.2 94.0 126.2 94.0 126.2 93.9 C 126.2 93.9 126.2 93.9 126.2 93.9 Z M 123.3 93.9 C 121.9 94.1 122.7 93.6 123.3 93.9 C 123.3 93.9 123.3 93.9 123.3 93.9 Z M 106.3 93.7 C 108.3 93.9 104.6 94.1 106.3 93.7 C 106.3 93.7 106.3 93.7 106.3 93.7 Z M 139.4 95.8 C 139.4 95.8 139.4 95.8 139.4 95.8 C 139.4 95.8 139.4 95.8 139.4 95.8 Z M 129.9 92.6 C 129.2 92.9 129.3 92.3 129.9 92.6 C 129.9 92.6 129.9 92.6 129.9 92.6 Z M 141.0 92.5 C 140.4 92.8 140.4 92.2 141.0 92.5 C 141.0 92.5 141.0 92.5 141.0 92.5 Z M 103.9 93.5 C 112.0 95.4 94.4 93.1 103.9 93.5 C 103.9 93.5 103.9 93.5 103.9 93.5 Z M 124.0 93.2 C 124.0 93.2 124.0 93.2 124.0 93.2 C 124.0 93.2 124.0 93.2 124.0 93.2 Z M 110.7 92.4 C 110.7 92.5 110.7 92.5 110.7 92.4 C 110.7 92.4 110.7 92.4 110.7 92.4 Z M 109.2 93.4 C 109.2 93.5 109.2 93.5 109.2 93.4 C 109.2 93.4 109.2 93.4 109.2 93.4 Z M 112.3 97.7 C 112.3 97.7 112.3 97.7 112.3 97.7 C 112.3 97.7 112.3 97.7 112.3 97.7 Z M 111.9 95.7 C 111.9 95.8 111.9 95.8 111.9 95.7 C 111.9 95.7 111.9 95.7 111.9 95.7 Z M 107.8 96.4 C 107.8 96.5 107.8 96.5 107.8 96.4 C 107.8 96.4 107.8 96.4 107.8 96.4 Z M 108.2 97.0 C 108.2 97.1 108.2 97.1 108.2 97.0 C 108.2 97.0 108.2 97.0 108.2 97.0 Z M 134.7 94.2 C 134.7 94.3 134.7 94.3 134.7 94.2 C 134.7 94.2 134.7 94.2 134.7 94.2 Z M 133.6 96.0 C 134.7 95.4 133.7 96.9 133.6 96.0 C 133.6 96.0 133.6 96.0 133.6 96.0 Z M 118.5 95.1 C 119.9 94.9 117.9 95.7 118.5 95.1 C 118.5 95.1 118.5 95.1 118.5 95.1 Z M 121.6 97.5 C 121.7 97.5 121.7 97.5 121.6 97.5 C 121.6 97.5 121.6 97.5 121.6 97.5 Z M 108.6 92.4 C 108.6 92.5 108.6 92.5 108.6 92.4 C 108.6 92.4 108.6 92.4 108.6 92.4 Z M 106.3 93.1 C 106.7 94.0 105.2 92.7 106.3 93.1 M 119.6 92.6 C 119.7 92.7 119.7 92.7 119.6 92.6 C 119.6 92.6 119.6 92.6 119.6 92.6 Z M 129.3 94.0 C 129.3 94.1 129.3 94.1 129.3 94.0 C 129.3 94.0 129.3 94.0 129.3 94.0 Z M 137.5 93.4 C 137.5 93.5 137.5 93.5 137.5 93.4 C 137.5 93.4 137.5 93.4 137.5 93.4 Z M 125.1 92.7 C 125.1 92.8 125.1 92.8 125.1 92.7 C 125.1 92.7 125.1 92.7 125.1 92.7 Z M 121.5 93.5 C 121.6 93.6 121.6 93.6 121.5 93.5 C 121.5 93.5 121.5 93.5 121.5 93.5 Z M 140.3 94.7 C 140.3 94.7 140.3 94.7 140.3 94.7 C 140.3 94.7 140.3 94.7 140.3 94.7 Z M 126.0 92.6 C 125.9 92.6 125.9 92.6 126.0 92.6 C 126.0 92.6 126.0 92.6 126.0 92.6 Z M 130.4 95.4 C 130.4 95.5 130.4 95.5 130.4 95.4 C 130.4 95.4 130.4 95.4 130.4 95.4 Z M 105.9 91.8 C 105.9 91.9 105.9 91.9 105.9 91.8 C 105.9 91.8 105.9 91.8 105.9 91.8 Z M 139.5 93.5 C 139.5 93.5 139.5 93.5 139.5 93.5 C 139.5 93.5 139.5 93.5 139.5 93.5 Z M 139.4 92.7 C 139.4 92.7 139.4 92.7 139.4 92.7 C 139.4 92.7 139.4 92.7 139.4 92.7 Z M 136.5 97.0 C 133.0 96.4 139.1 96.8 136.1 95.8 C 140.4 95.5 137.1 97.0 136.5 97.0 C 136.5 97.0 136.5 97.0 136.5 97.0 Z M 143.2 92.4 C 142.5 93.6 143.4 94.7 145.1 96.0 C 146.4 96.6 144.5 94.2 146.2 96.2 C 144.5 96.6 149.5 99.3 147.3 96.7 C 149.6 96.3 149.1 98.4 149.8 97.3 C 152.4 97.0 151.6 97.9 153.6 97.7 C 153.6 96.2 155.4 98.4 154.8 97.0 C 155.0 98.5 156.8 96.6 157.4 97.3 C 156.2 98.2 164.8 97.3 159.4 96.9 C 160.8 96.2 161.5 97.4 162.4 97.6 C 162.5 96.7 166.4 98.3 166.9 97.4 C 166.5 97.2 165.8 97.1 165.3 96.9 C 164.5 96.3 166.9 97.0 166.7 96.9 C 167.2 96.6 169.7 95.7 167.6 97.3 C 168.1 98.0 170.2 96.9 170.7 97.6 C 173.8 97.6 170.1 96.2 172.5 97.2 C 174.7 97.3 176.3 97.3 176.2 97.1 C 177.7 97.3 178.7 98.1 179.2 97.3 C 183.4 98.9 178.1 94.2 182.2 97.3 C 182.2 96.6 185.0 98.6 183.0 96.7 C 182.9 97.2 185.1 97.7 186.1 97.6 C 186.1 96.9 185.8 96.4 185.3 96.8 C 184.8 95.7 187.2 94.4 185.3 93.1 C 183.9 90.6 182.5 89.5 181.1 90.8 C 182.2 91.6 180.0 92.4 181.9 92.4 C 182.2 91.5 182.4 92.7 182.4 93.9 C 181.2 93.9 179.8 93.7 180.1 93.4 C 178.2 91.1 178.3 94.8 175.4 93.2 C 177.4 94.1 172.5 94.5 172.5 92.8 C 171.3 92.7 171.9 93.5 169.9 92.5 C 173.2 92.7 170.3 94.3 169.6 93.3 C 169.5 92.6 164.3 92.1 165.7 93.1 C 169.5 95.4 164.0 92.6 164.0 93.5 C 161.9 94.0 162.7 91.5 162.3 93.2 C 161.5 92.9 158.0 92.9 159.8 92.5 C 160.8 92.7 160.0 95.0 157.9 93.0 C 160.6 91.9 153.1 92.4 154.9 93.0 C 161.5 94.1 149.9 94.2 153.4 93.2 C 150.0 92.1 153.8 92.7 151.1 93.2 C 152.0 93.8 150.1 94.4 149.6 93.2 C 147.6 91.3 150.8 95.7 146.8 93.1 C 145.6 92.0 143.6 93.9 144.0 92.7 C 144.0 92.6 143.3 92.3 143.2 92.4 M 144.5 92.6 C 144.4 93.0 143.4 92.0 144.5 92.6 M 144.4 93.0 C 144.3 93.0 144.3 93.0 144.4 93.0 C 144.4 93.0 144.4 93.0 144.4 93.0 Z M 150.7 93.3 C 150.6 93.2 150.6 93.2 150.7 93.3 C 150.7 93.3 150.7 93.3 150.7 93.3 Z M 159.5 98.0 C 159.4 98.0 159.4 98.0 159.5 98.0 C 159.5 98.0 159.5 98.0 159.5 98.0 Z M 154.8 93.4 C 154.8 93.4 154.8 93.4 154.8 93.4 C 154.8 93.4 154.8 93.4 154.8 93.4 Z M 148.8 93.6 C 148.7 93.6 148.7 93.6 148.8 93.6 C 148.8 93.6 148.8 93.6 148.8 93.6 Z M 153.9 92.7 C 154.8 93.4 152.0 92.2 153.8 92.6 C 153.9 92.6 153.7 92.6 153.9 92.7 M 158.9 92.4 C 159.0 92.5 159.0 92.5 158.9 92.4 M 175.7 98.0 C 175.8 98.1 175.8 98.1 175.7 98.0 M 171.4 92.4 C 171.6 92.4 171.6 92.4 171.4 92.4 M 164.7 93.1 C 166.3 93.0 165.5 93.5 164.7 93.1 M 176.0 92.8 C 173.5 92.3 177.8 92.4 176.0 92.8 M 177.5 92.3 C 177.8 92.4 177.8 92.4 177.5 92.3 M 168.7 92.6 C 168.7 92.7 168.7 92.7 168.7 92.6 C 168.7 92.6 168.7 92.6 168.7 92.6 Z M 163.8 92.8 C 161.4 92.5 165.3 92.2 163.8 92.8 M 150.8 92.6 C 151.7 92.2 151.6 93.5 150.8 92.6 M 148.8 93.0 C 148.8 93.0 148.8 93.0 148.8 93.0 C 148.8 93.0 148.8 93.0 148.8 93.0 Z M 172.7 92.7 C 172.6 92.7 172.6 92.7 172.7 92.7 C 172.7 92.7 172.7 92.7 172.7 92.7 Z M 174.9 92.6 C 174.8 92.6 174.8 92.6 174.9 92.6 C 174.9 92.6 174.9 92.6 174.9 92.6 Z M 183.9 97.8 C 183.9 97.8 183.9 97.8 183.9 97.8 C 183.9 97.8 183.9 97.8 183.9 97.8 Z M 152.3 95.2 C 150.5 94.8 152.5 93.5 153.3 94.7 C 153.9 95.3 152.4 95.0 152.3 95.2 M 163.7 94.4 C 165.7 96.2 160.0 92.0 163.7 94.4 M 179.0 93.5 C 182.6 95.6 175.5 92.0 179.0 93.5 M 181.6 92.9 C 181.7 92.9 181.8 93.0 181.8 93.3 C 180.8 93.5 176.9 93.3 180.4 92.8 C 180.5 92.5 181.0 92.8 181.5 93.0 C 181.5 93.0 181.6 93.0 181.6 92.9 M 159.7 93.3 C 161.0 94.2 156.8 92.8 159.7 93.3 M 172.2 96.2 C 172.3 95.6 173.9 95.0 174.0 96.1 C 175.3 97.5 171.7 96.7 172.2 96.2 M 145.8 93.6 C 145.8 92.0 146.8 94.9 145.8 93.6 M 152.1 93.7 C 152.0 93.6 152.0 93.6 152.1 93.7 C 152.1 93.7 152.1 93.7 152.1 93.7 Z M 154.3 93.5 C 154.5 93.6 154.5 93.6 154.3 93.5 M 145.7 92.2 C 145.9 92.3 145.9 92.3 145.7 92.2 M 170.6 94.6 C 170.8 94.7 170.8 94.7 170.6 94.6 M 164.7 93.5 C 168.4 95.1 163.7 93.9 164.7 93.5 M 161.5 96.5 C 162.8 97.3 160.0 96.6 161.5 96.5 M 168.0 92.9 C 171.0 94.4 167.0 94.3 168.0 92.9 M 163.3 93.4 C 163.5 93.4 163.5 93.4 163.3 93.4 C 163.3 93.4 163.3 93.4 163.3 93.4 Z M 172.9 96.4 C 172.9 96.4 172.9 96.4 172.9 96.4 C 172.9 96.4 172.9 96.4 172.9 96.4 Z M 173.6 96.3 C 173.6 96.3 173.6 96.3 173.6 96.3 C 173.6 96.3 173.6 96.3 173.6 96.3 Z M 169.9 92.8 C 169.9 92.8 169.9 92.8 169.9 92.8 C 169.9 92.8 169.9 92.8 169.9 92.8 Z M 151.9 97.1 C 153.7 97.2 150.8 97.3 151.9 97.1 C 151.9 97.1 151.9 97.1 151.9 97.1 Z M 155.8 92.7 C 159.6 93.9 154.8 93.8 155.8 92.7 C 155.8 92.7 155.8 92.7 155.8 92.7 Z M 160.6 94.6 C 160.7 94.7 160.7 94.7 160.6 94.6 C 160.6 94.6 160.6 94.6 160.6 94.6 Z M 166.1 92.0 C 166.2 92.1 166.2 92.1 166.1 92.0 C 166.1 92.0 166.1 92.0 166.1 92.0 Z M 152.9 97.3 C 153.0 97.3 153.0 97.3 152.9 97.3 C 152.9 97.3 152.9 97.3 152.9 97.3 Z M 175.4 93.6 C 175.5 93.7 175.5 93.7 175.4 93.6 C 175.4 93.6 175.4 93.6 175.4 93.6 Z M 168.5 96.6 C 168.6 96.0 169.1 97.1 168.5 96.6 C 168.5 96.6 168.5 96.6 168.5 96.6 Z M 171.1 96.6 C 171.2 96.6 171.2 96.6 171.1 96.6 C 171.1 96.6 171.1 96.6 171.1 96.6 Z M 178.0 92.2 C 178.1 92.2 178.1 92.2 178.0 92.2 C 178.0 92.2 178.0 92.2 178.0 92.2 Z M 178.9 98.0 C 179.0 98.0 179.0 98.0 178.9 98.0 C 178.9 98.0 178.9 98.0 178.9 98.0 Z M 179.4 96.3 C 179.4 96.3 179.4 96.3 179.4 96.3 C 179.4 96.3 179.4 96.3 179.4 96.3 Z M 169.8 93.1 C 172.0 92.9 169.8 93.8 169.8 93.1 C 169.8 93.1 169.8 93.1 169.8 93.1 Z M 184.3 94.8 C 184.4 94.9 184.4 94.9 184.3 94.8 C 184.3 94.8 184.3 94.8 184.3 94.8 Z M 182.3 91.6 C 182.4 91.6 182.4 91.6 182.3 91.6 C 182.3 91.6 182.3 91.6 182.3 91.6 Z M 181.2 90.0 C 181.3 90.0 181.3 90.0 181.2 90.0 C 181.2 90.0 181.2 90.0 181.2 90.0 Z M 156.1 95.6 C 155.9 95.6 155.9 95.6 156.1 95.6 C 156.1 95.6 156.1 95.6 156.1 95.6 Z M 152.3 92.3 C 152.3 92.3 152.3 92.3 152.3 92.3 C 152.3 92.3 152.3 92.3 152.3 92.3 Z M 155.6 92.2 C 155.5 92.2 155.5 92.2 155.6 92.2 C 155.6 92.2 155.6 92.2 155.6 92.2 Z M 157.1 97.6 C 157.0 97.6 157.0 97.6 157.1 97.6 C 157.1 97.6 157.1 97.6 157.1 97.6 Z M 167.6 94.8 C 167.5 94.8 167.5 94.8 167.6 94.8 C 167.6 94.8 167.6 94.8 167.6 94.8 Z M 170.0 96.2 C 169.9 96.1 169.9 96.1 170.0 96.2 C 170.0 96.2 170.0 96.2 170.0 96.2 Z M 168.6 97.9 C 168.6 97.9 168.6 97.9 168.6 97.9 C 168.6 97.9 168.6 97.9 168.6 97.9 Z M 172.0 97.3 C 172.0 97.3 172.0 97.3 172.0 97.3 C 172.0 97.3 172.0 97.3 172.0 97.3 Z M 147.9 97.0 C 147.9 97.0 147.9 97.0 147.9 97.0 C 147.9 97.0 147.9 97.0 147.9 97.0 Z M 145.6 94.5 C 145.7 94.6 145.7 94.6 145.6 94.5 C 145.6 94.5 145.6 94.5 145.6 94.5 Z M 166.3 93.0 C 166.4 92.5 168.1 93.7 166.3 93.0 M 161.8 93.3 C 161.8 93.4 161.8 93.4 161.8 93.3 C 161.8 93.3 161.8 93.3 161.8 93.3 Z M 174.5 93.1 C 176.1 94.1 171.8 92.6 174.5 93.1 C 174.5 93.1 174.5 93.1 174.5 93.1 Z M 176.0 97.3 C 176.0 97.3 176.0 97.3 176.0 97.3 C 176.0 97.3 176.0 97.3 176.0 97.3 Z M 176.9 96.9 C 177.0 97.0 177.0 97.0 176.9 96.9 C 176.9 96.9 176.9 96.9 176.9 96.9 Z M 181.3 94.2 C 181.5 94.2 181.5 94.2 181.3 94.2 M 160.4 92.4 C 161.5 92.9 161.3 92.8 160.4 92.4 M 176.2 93.1 C 176.2 93.2 176.2 93.2 176.2 93.1 C 176.2 93.1 176.2 93.1 176.2 93.1 Z M 182.1 93.4 C 182.1 93.5 182.1 93.5 182.1 93.4 C 182.1 93.4 182.1 93.4 182.1 93.4 Z M 157.5 93.1 C 158.7 94.3 157.8 94.0 157.5 93.1 M 148.2 93.5 C 148.3 93.6 148.3 93.6 148.2 93.5 C 148.2 93.5 148.2 93.5 148.2 93.5 Z M 181.2 85.1 C 179.9 86.5 181.7 88.2 181.8 88.2 C 179.3 85.7 182.8 91.4 183.3 91.4 C 183.7 91.8 188.1 93.6 185.4 89.3 C 185.1 88.5 185.9 88.8 185.9 88.5 C 185.8 85.0 184.5 89.7 184.5 85.6 C 184.9 85.2 187.0 87.7 185.5 84.1 C 185.8 84.1 186.5 81.9 185.6 82.3 C 186.6 81.6 185.4 80.0 185.1 78.6 C 185.7 77.8 186.7 80.5 185.5 75.8 C 187.3 75.0 184.2 72.8 186.1 72.2 C 186.2 71.2 183.0 68.4 184.8 71.4 C 184.6 71.0 183.1 71.7 183.6 68.9 C 184.0 69.5 187.3 72.7 185.7 67.0 C 185.8 66.2 185.0 64.1 185.3 63.7 C 185.7 66.4 186.8 60.6 185.8 61.0 C 186.4 57.1 185.0 59.2 186.1 56.5 C 186.1 54.1 184.6 57.0 185.5 54.3 C 185.3 52.1 186.1 53.6 186.0 53.8 C 186.2 51.9 185.6 51.2 185.7 50.5 C 185.8 50.1 186.5 49.2 185.7 48.8 C 184.2 46.9 182.8 48.7 181.3 47.9 C 180.6 49.3 182.4 48.5 181.3 49.4 C 182.2 50.1 181.2 49.5 181.4 53.2 C 181.7 53.1 182.3 52.3 182.4 53.2 C 182.3 54.6 179.8 53.4 181.5 55.9 C 182.1 53.1 182.3 60.0 182.9 57.4 C 183.2 60.8 182.7 58.3 182.1 60.6 C 183.7 60.9 180.3 60.3 181.6 61.5 C 180.9 61.6 181.2 65.3 182.2 63.0 C 182.7 67.0 181.7 64.2 180.9 65.3 C 180.8 67.0 183.6 66.4 181.5 66.8 C 180.6 68.6 182.5 67.2 180.9 68.3 C 182.4 68.1 180.9 69.9 182.5 70.0 C 182.6 74.1 180.8 68.8 181.9 72.0 C 182.0 71.2 179.9 70.5 181.2 72.8 C 183.7 73.4 179.0 73.7 182.3 74.4 C 183.2 80.6 181.0 74.6 180.9 77.5 C 181.0 78.3 182.0 77.4 182.0 78.1 C 181.6 81.6 180.7 77.9 182.3 81.0 C 182.7 85.2 181.0 81.1 180.8 82.9 C 181.6 83.6 182.9 86.2 181.2 85.1 M 182.0 82.4 C 181.5 81.2 182.5 82.2 182.0 82.4 M 181.2 89.4 C 180.7 88.1 181.7 89.4 181.2 89.4 M 181.5 78.9 C 181.0 77.5 182.4 79.1 181.5 78.9 M 182.3 58.5 C 182.3 59.9 181.9 57.7 182.3 58.5 M 181.1 86.3 C 180.5 84.7 182.0 86.7 181.1 86.3 M 182.4 88.8 C 182.4 88.7 182.4 88.7 182.4 88.8 M 181.0 56.2 C 181.0 56.1 181.0 56.1 181.0 56.2 M 181.0 61.6 C 181.0 60.5 181.3 62.4 181.0 61.6 M 186.3 63.3 C 186.4 62.0 186.7 64.2 186.3 63.3 M 180.9 53.2 C 180.5 52.1 181.5 52.9 180.9 53.2 M 182.1 50.2 C 181.6 49.2 182.6 49.5 182.1 50.2 M 183.9 84.5 C 183.9 84.5 183.9 84.5 183.9 84.5 C 183.9 84.5 183.9 84.5 183.9 84.5 Z M 185.2 74.5 C 184.7 75.5 185.9 73.3 185.2 74.5 M 181.7 74.6 C 182.8 74.3 181.6 76.1 181.7 74.6 C 181.7 74.6 181.7 74.6 181.7 74.6 Z M 182.2 76.6 C 182.2 76.7 182.2 76.7 182.2 76.6 C 182.2 76.6 182.2 76.6 182.2 76.6 Z M 182.2 70.9 C 182.2 70.9 182.2 70.9 182.2 70.9 C 182.2 70.9 182.2 70.9 182.2 70.9 Z M 182.3 72.1 C 182.6 72.7 182.1 72.7 182.3 72.1 C 182.3 72.1 182.3 72.1 182.3 72.1 Z M 185.8 64.8 C 186.0 65.4 185.6 65.4 185.8 64.8 C 185.8 64.8 185.8 64.8 185.8 64.8 Z M 182.7 74.1 C 183.8 74.9 182.0 74.6 182.7 74.1 C 182.7 74.1 182.7 74.1 182.7 74.1 Z M 185.3 68.9 C 185.0 68.2 186.3 68.2 185.3 68.9 M 181.2 55.1 C 180.9 54.6 182.2 54.1 181.2 55.1 M 180.9 66.9 C 180.6 66.3 181.9 66.3 180.9 66.9 M 181.5 81.4 C 181.6 81.3 181.6 81.3 181.5 81.4 M 186.2 77.4 C 185.8 76.3 186.7 77.2 186.2 77.4 M 185.9 89.7 C 185.5 88.5 186.4 89.7 185.9 89.7 M 186.2 57.6 C 185.9 57.6 186.4 56.2 186.2 57.6 M 182.6 66.2 C 182.7 65.1 183.3 64.2 183.3 66.5 C 183.0 66.5 182.9 65.8 182.6 66.2 C 182.6 66.2 182.6 66.2 182.6 66.2 Z M 185.1 63.0 C 185.2 62.8 185.2 62.8 185.1 63.0 M 181.6 63.9 C 181.7 63.8 181.7 63.8 181.6 63.9 M 181.7 57.8 C 181.9 57.7 181.9 57.7 181.7 57.8 M 181.4 56.9 C 181.4 57.0 181.4 57.0 181.4 56.9 C 181.4 56.9 181.4 56.9 181.4 56.9 Z M 180.9 50.2 C 181.0 50.2 181.0 50.2 180.9 50.2 C 180.9 50.2 180.9 50.2 180.9 50.2 Z M 181.8 59.8 C 181.9 59.8 181.9 59.8 181.8 59.8 C 181.8 59.8 181.8 59.8 181.8 59.8 Z M 186.0 54.5 C 186.1 54.5 186.1 54.5 186.0 54.5 C 186.0 54.5 186.0 54.5 186.0 54.5 Z M 185.4 55.2 C 185.4 55.2 185.4 55.2 185.4 55.2 C 185.4 55.2 185.4 55.2 185.4 55.2 Z M 181.2 84.6 C 180.4 83.1 183.1 85.6 181.2 84.6 M 185.4 52.0 C 186.1 51.0 185.5 53.7 185.4 52.0 C 185.4 52.0 185.4 52.0 185.4 52.0 Z M 182.8 60.7 C 182.9 60.7 182.9 60.7 182.8 60.7 M 181.5 56.6 C 181.6 56.5 181.6 56.5 181.5 56.6 M 180.7 74.0 C 180.8 74.0 180.8 74.0 180.7 74.0 M 181.7 51.8 C 182.0 48.9 183.3 53.2 181.7 51.8 M 181.7 76.0 C 181.6 76.0 181.6 76.0 181.7 76.0 M 183.7 70.4 C 183.7 68.3 184.4 71.4 183.7 70.4 M 182.4 64.7 C 182.4 64.8 182.4 64.8 182.4 64.7 C 182.4 64.7 182.4 64.7 182.4 64.7 Z M 182.4 67.7 C 182.5 69.2 182.1 67.9 182.4 67.7 C 182.4 67.7 182.4 67.7 182.4 67.7 Z M 182.2 84.0 C 182.4 82.3 182.6 86.2 182.2 84.0 C 182.2 84.0 182.2 84.0 182.2 84.0 Z M 184.2 53.3 C 184.3 53.4 184.3 53.4 184.2 53.3 C 184.2 53.3 184.2 53.3 184.2 53.3 Z M 181.1 59.9 C 181.4 60.8 180.8 60.3 181.1 59.9 C 181.1 59.9 181.1 59.9 181.1 59.9 Z M 181.0 49.2 C 181.2 50.0 180.6 49.6 181.0 49.2 C 181.0 49.2 181.0 49.2 181.0 49.2 Z M 182.0 86.1 C 183.8 80.6 181.6 94.7 182.0 86.1 C 182.0 86.1 182.0 86.1 182.0 86.1 Z M 181.6 66.2 C 181.7 66.3 181.7 66.3 181.6 66.2 C 181.6 66.2 181.6 66.2 181.6 66.2 Z M 180.9 78.1 C 180.9 78.1 180.9 78.1 180.9 78.1 C 180.9 78.1 180.9 78.1 180.9 78.1 Z M 181.9 80.8 C 181.9 80.9 181.9 80.9 181.9 80.8 C 181.9 80.8 181.9 80.8 181.9 80.8 Z M 186.1 83.2 C 186.2 83.3 186.2 83.3 186.1 83.2 C 186.1 83.2 186.1 83.2 186.1 83.2 Z M 184.2 81.1 C 184.3 81.3 184.3 81.3 184.2 81.1 C 184.2 81.1 184.2 81.1 184.2 81.1 Z M 184.9 86.2 C 185.0 86.4 185.0 86.4 184.9 86.2 C 184.9 86.2 184.9 86.2 184.9 86.2 Z M 185.5 86.6 C 185.5 86.6 185.5 86.6 185.5 86.6 C 185.5 86.6 185.5 86.6 185.5 86.6 Z M 182.7 56.7 C 182.8 56.8 182.8 56.8 182.7 56.7 C 182.7 56.7 182.7 56.7 182.7 56.7 Z M 184.5 59.5 C 183.8 57.7 185.4 60.2 184.5 59.5 C 184.5 59.5 184.5 59.5 184.5 59.5 Z M 183.6 73.7 C 183.4 72.1 184.2 75.0 183.6 73.7 C 183.6 73.7 183.6 73.7 183.6 73.7 Z M 185.9 73.3 C 185.9 73.2 185.9 73.2 185.9 73.3 C 185.9 73.3 185.9 73.3 185.9 73.3 Z M 180.8 80.1 C 181.0 80.2 181.0 80.2 180.8 80.1 C 180.8 80.1 180.8 80.1 180.8 80.1 Z M 181.6 83.2 C 182.5 84.0 181.1 83.7 181.6 83.2 M 181.1 69.8 C 181.2 69.8 181.2 69.8 181.1 69.8 C 181.1 69.8 181.1 69.8 181.1 69.8 Z M 182.5 61.9 C 182.5 61.9 182.5 61.9 182.5 61.9 C 182.5 61.9 182.5 61.9 182.5 61.9 Z M 181.9 53.4 C 182.0 53.4 182.0 53.4 181.9 53.4 C 181.9 53.4 181.9 53.4 181.9 53.4 Z M 181.2 64.7 C 181.3 64.7 181.3 64.7 181.2 64.7 C 181.2 64.7 181.2 64.7 181.2 64.7 Z M 182.0 68.9 C 182.1 69.0 182.1 69.0 182.0 68.9 C 182.0 68.9 182.0 68.9 182.0 68.9 Z M 183.2 51.6 C 183.2 51.6 183.2 51.6 183.2 51.6 C 183.2 51.6 183.2 51.6 183.2 51.6 Z M 181.0 63.7 C 181.1 63.7 181.1 63.7 181.0 63.7 C 181.0 63.7 181.0 63.7 181.0 63.7 Z M 183.9 62.1 C 184.0 62.2 184.0 62.2 183.9 62.1 C 183.9 62.1 183.9 62.1 183.9 62.1 Z M 180.3 81.9 C 180.3 82.0 180.3 82.0 180.3 81.9 C 180.3 81.9 180.3 81.9 180.3 81.9 Z M 182.0 51.4 C 182.0 51.5 182.0 51.5 182.0 51.4 C 182.0 51.4 182.0 51.4 182.0 51.4 Z M 181.2 50.9 C 181.2 50.9 181.2 50.9 181.2 50.9 C 181.2 50.9 181.2 50.9 181.2 50.9 Z M 185.4 57.4 C 184.9 60.5 185.2 54.5 184.3 56.7 C 184.0 52.2 185.5 56.7 185.4 57.4 C 185.4 57.4 185.4 57.4 185.4 57.4 Z M 180.8 47.0 C 182.0 48.6 183.2 48.6 184.5 47.8 C 185.1 46.9 182.6 47.0 184.7 46.9 C 185.1 48.9 187.8 45.7 185.1 46.0 C 184.8 43.4 186.8 45.4 185.8 43.9 C 185.5 41.1 186.3 42.4 186.1 40.2 C 184.7 39.3 186.8 38.8 185.5 38.5 C 187.0 39.3 185.1 36.3 185.7 36.0 C 186.7 37.8 185.8 28.3 185.3 33.8 C 184.6 31.9 185.9 31.8 186.0 31.0 C 185.2 30.4 186.7 27.1 185.9 26.2 C 185.7 26.6 185.6 27.3 185.3 27.6 C 184.8 28.2 185.4 26.1 185.4 26.3 C 185.1 25.6 184.2 22.7 185.7 25.5 C 186.5 25.3 185.4 22.6 186.1 22.4 C 186.1 19.1 184.6 22.4 185.7 20.3 C 185.7 18.0 185.7 16.4 185.6 16.5 C 185.7 15.0 186.6 14.1 185.7 13.5 C 187.3 9.3 182.7 13.9 185.8 10.4 C 185.1 10.2 187.1 7.7 185.2 9.4 C 186.1 9.7 186.7 3.3 185.3 7.1 C 184.8 6.9 187.2 0.9 185.3 3.3 C 185.2 3.3 185.2 3.3 185.1 3.4 C 183.5 4.3 182.5 5.2 182.4 6.1 C 182.0 6.9 181.6 7.9 181.1 9.1 C 182.2 7.7 180.0 12.8 181.9 9.2 C 182.5 6.3 182.5 12.7 181.9 11.9 C 179.6 13.6 183.3 13.8 181.7 16.5 C 182.6 14.7 183.0 19.6 181.3 19.2 C 181.2 20.3 182.0 19.9 181.0 21.6 C 181.2 18.5 182.8 21.7 181.7 22.1 C 181.1 22.0 180.6 26.8 181.5 25.8 C 183.9 22.8 181.1 27.3 182.0 27.6 C 182.5 29.8 180.0 28.2 181.7 29.2 C 181.4 29.8 181.4 33.1 180.9 31.2 C 181.2 30.4 183.5 32.2 181.5 33.3 C 180.4 30.3 180.9 37.6 181.5 36.2 C 182.6 30.2 182.7 41.8 181.6 37.7 C 180.5 40.4 181.2 37.1 181.7 40.0 C 182.3 39.4 182.9 41.7 181.7 41.4 C 179.8 42.2 184.2 41.8 181.6 44.1 C 180.5 44.5 182.4 47.7 181.2 46.5 C 181.0 46.4 180.8 46.9 180.8 47.0 M 181.0 45.9 C 181.5 46.3 180.5 46.6 181.0 45.9 M 181.5 46.3 C 181.4 46.4 181.4 46.4 181.5 46.3 C 181.5 46.3 181.5 46.3 181.5 46.3 Z M 181.8 40.4 C 181.7 40.5 181.7 40.5 181.8 40.4 C 181.8 40.4 181.8 40.4 181.8 40.4 Z M 186.5 34.2 C 186.4 34.3 186.4 34.3 186.5 34.2 C 186.5 34.2 186.5 34.2 186.5 34.2 Z M 181.9 36.5 C 181.8 36.5 181.8 36.5 181.9 36.5 C 181.9 36.5 181.9 36.5 181.9 36.5 Z M 182.0 42.5 C 182.0 42.5 182.0 42.5 182.0 42.5 C 182.0 42.5 182.0 42.5 182.0 42.5 Z M 181.2 37.1 C 181.9 36.5 180.6 38.5 181.1 37.0 C 181.1 36.9 181.1 37.2 181.2 37.1 M 180.9 32.1 C 181.0 32.1 181.0 32.1 180.9 32.1 M 186.4 17.3 C 186.5 17.2 186.5 17.2 186.4 17.3 M 180.8 20.2 C 180.9 20.0 180.9 20.0 180.8 20.2 M 181.6 26.7 C 181.5 25.2 182.0 26.2 181.6 26.7 M 181.2 15.8 C 180.8 18.1 180.8 14.1 181.2 15.8 M 180.8 14.3 C 180.9 14.1 180.9 14.1 180.8 14.3 M 181.1 22.8 C 181.1 22.8 181.1 22.8 181.1 22.8 C 181.1 22.8 181.1 22.8 181.1 22.8 Z M 181.3 27.5 C 180.9 29.8 180.7 25.9 181.3 27.5 M 181.1 39.9 C 180.7 38.9 182.0 39.7 181.1 39.9 M 181.5 42.1 C 181.5 42.1 181.5 42.1 181.5 42.1 C 181.5 42.1 181.5 42.1 181.5 42.1 Z M 181.2 19.0 C 181.2 19.0 181.2 19.0 181.2 19.0 C 181.2 19.0 181.2 19.0 181.2 19.0 Z M 181.1 16.8 C 181.1 16.9 181.1 16.9 181.1 16.8 C 181.1 16.8 181.1 16.8 181.1 16.8 Z M 186.3 8.6 C 186.3 8.7 186.3 8.7 186.3 8.6 C 186.3 8.6 186.3 8.6 186.3 8.6 Z M 183.6 39.9 C 183.3 41.6 181.9 38.7 183.2 38.7 C 183.7 38.4 183.5 39.8 183.6 39.9 M 182.9 28.3 C 184.7 27.0 180.5 30.9 182.9 28.3 M 182.0 13.0 C 184.1 9.6 180.5 16.2 182.0 13.0 M 181.6 10.3 C 182.0 9.0 181.9 15.8 181.3 11.6 C 180.9 11.5 181.4 10.8 181.6 10.3 M 181.7 31.7 C 182.7 30.8 181.3 34.3 181.7 31.7 M 184.7 20.4 C 184.1 20.0 183.5 18.3 184.6 18.5 C 186.0 17.6 185.2 21.0 184.7 20.4 M 182.0 45.4 C 180.5 44.3 183.4 45.3 182.0 45.4 M 182.2 39.3 C 182.1 39.3 182.1 39.3 182.2 39.3 C 182.2 39.3 182.2 39.3 182.2 39.3 Z M 181.9 37.0 C 182.1 36.9 182.1 36.9 181.9 37.0 M 180.7 44.6 C 180.8 44.5 180.8 44.5 180.7 44.6 M 183.1 21.5 C 183.2 21.3 183.2 21.3 183.1 21.5 M 182.0 27.0 C 183.6 23.8 182.3 28.0 182.0 27.0 M 185.0 31.4 C 185.7 30.4 185.1 32.9 185.0 31.4 M 181.4 23.5 C 182.9 21.0 182.8 25.0 181.4 23.5 M 181.9 28.2 C 181.9 28.1 181.9 28.1 181.9 28.2 C 181.9 28.2 181.9 28.2 181.9 28.2 Z M 184.9 19.6 C 184.9 19.7 184.9 19.7 184.9 19.6 C 184.9 19.6 184.9 19.6 184.9 19.6 Z M 184.8 18.9 C 184.8 19.0 184.8 19.0 184.8 18.9 C 184.8 18.9 184.8 18.9 184.8 18.9 Z M 181.3 21.7 C 181.3 21.7 181.3 21.7 181.3 21.7 C 181.3 21.7 181.3 21.7 181.3 21.7 Z M 185.5 41.5 C 185.6 39.7 185.8 42.9 185.5 41.5 C 185.5 41.5 185.5 41.5 185.5 41.5 Z M 181.2 35.2 C 182.4 32.1 182.3 36.7 181.2 35.2 C 181.2 35.2 181.2 35.2 181.2 35.2 Z M 183.1 31.4 C 183.2 31.4 183.2 31.4 183.1 31.4 C 183.1 31.4 183.1 31.4 183.1 31.4 Z M 180.5 25.1 C 180.6 25.1 180.6 25.1 180.5 25.1 C 180.5 25.1 180.5 25.1 180.5 25.1 Z M 185.7 40.6 C 185.8 40.6 185.8 40.6 185.7 40.6 C 185.7 40.6 185.7 40.6 185.7 40.6 Z M 182.0 16.5 C 182.1 16.4 182.1 16.4 182.0 16.5 C 182.0 16.5 182.0 16.5 182.0 16.5 Z M 185.1 24.2 C 184.5 23.9 185.5 23.8 185.1 24.2 C 185.1 24.2 185.1 24.2 185.1 24.2 Z M 185.1 21.6 C 185.1 21.5 185.1 21.5 185.1 21.6 C 185.1 21.6 185.1 21.6 185.1 21.6 Z M 180.7 13.8 C 180.7 13.7 180.7 13.7 180.7 13.8 C 180.7 13.8 180.7 13.8 180.7 13.8 Z M 186.5 13.9 C 186.5 13.8 186.5 13.8 186.5 13.9 C 186.5 13.9 186.5 13.9 186.5 13.9 Z M 184.8 13.0 C 184.8 13.0 184.8 13.0 184.8 13.0 C 184.8 13.0 184.8 13.0 184.8 13.0 Z M 181.6 21.9 C 181.3 19.7 182.3 22.0 181.6 21.9 C 181.6 21.9 181.6 21.9 181.6 21.9 Z M 184.3 7.0 C 184.4 6.9 184.4 6.9 184.3 7.0 C 184.3 7.0 184.3 7.0 184.3 7.0 Z M 182.3 7.7 C 182.4 7.5 182.4 7.5 182.3 7.7 C 182.3 7.7 182.3 7.7 182.3 7.7 Z M 181.2 8.1 C 181.3 8.0 181.3 8.0 181.2 8.1 C 181.2 8.1 181.2 8.1 181.2 8.1 Z M 184.1 36.4 C 184.0 36.5 184.0 36.5 184.1 36.4 C 184.1 36.4 184.1 36.4 184.1 36.4 Z M 180.8 38.4 C 180.8 38.4 180.8 38.4 180.8 38.4 C 180.8 38.4 180.8 38.4 180.8 38.4 Z M 180.7 35.2 C 180.6 35.2 180.6 35.2 180.7 35.2 C 180.7 35.2 180.7 35.2 180.7 35.2 Z M 186.1 36.5 C 186.1 36.6 186.1 36.6 186.1 36.5 C 186.1 36.5 186.1 36.5 186.1 36.5 Z M 183.3 24.5 C 183.2 24.6 183.2 24.6 183.3 24.5 C 183.3 24.5 183.3 24.5 183.3 24.5 Z M 184.6 22.5 C 184.6 22.6 184.6 22.6 184.6 22.5 C 184.6 22.5 184.6 22.5 184.6 22.5 Z M 186.4 24.6 C 186.4 24.7 186.4 24.7 186.4 24.6 C 186.4 24.6 186.4 24.6 186.4 24.6 Z M 185.8 20.9 C 185.7 20.9 185.7 20.9 185.8 20.9 C 185.8 20.9 185.8 20.9 185.8 20.9 Z M 185.5 45.6 C 185.5 45.7 185.5 45.7 185.5 45.6 C 185.5 45.6 185.5 45.6 185.5 45.6 Z M 183.0 46.1 C 183.0 46.2 183.0 46.2 183.0 46.1 C 183.0 46.1 183.0 46.1 183.0 46.1 Z M 181.5 25.2 C 180.9 25.0 182.2 23.6 181.5 25.2 M 181.8 29.7 C 181.8 29.7 181.8 29.7 181.8 29.7 C 181.8 29.7 181.8 29.7 181.8 29.7 Z M 181.6 17.3 C 182.6 15.9 181.1 19.8 181.6 17.3 C 181.6 17.3 181.6 17.3 181.6 17.3 Z M 185.8 16.8 C 185.8 16.7 185.8 16.7 185.8 16.8 C 185.8 16.8 185.8 16.8 185.8 16.8 Z M 185.3 15.8 C 185.4 15.6 185.4 15.6 185.3 15.8 C 185.3 15.8 185.3 15.8 185.3 15.8 Z M 182.6 10.8 C 182.7 10.6 182.7 10.6 182.6 10.8 M 180.9 30.7 C 181.3 29.8 181.3 30.0 180.9 30.7 M 181.6 15.7 C 181.6 15.7 181.6 15.7 181.6 15.7 C 181.6 15.7 181.6 15.7 181.6 15.7 Z M 182.1 9.8 C 182.1 9.8 182.1 9.8 182.1 9.8 C 182.1 9.8 182.1 9.8 182.1 9.8 Z M 181.6 33.7 C 182.8 33.1 182.5 33.9 181.6 33.7 M 182.0 43.0 C 182.0 42.9 182.0 42.9 182.0 43.0 C 182.0 43.0 182.0 43.0 182.0 43.0 Z M 177.6 6.4 C 180.0 7.2 181.5 6.7 182.5 6.0 C 183.0 5.7 183.6 4.9 183.8 4.8 C 184.2 4.9 184.6 4.4 184.9 3.5 C 184.9 3.4 184.7 3.2 184.4 3.0 C 184.8 1.3 180.8 4.7 181.6 3.1 C 182.1 0.8 177.9 5.0 179.4 2.6 C 180.3 2.0 177.5 2.5 177.5 2.7 C 177.4 1.5 173.9 3.6 173.7 3.8 C 173.2 3.5 175.0 1.3 171.2 2.9 C 168.8 3.5 169.7 1.4 169.1 2.8 C 169.0 1.2 167.7 3.3 166.8 2.8 C 166.6 1.9 165.7 4.2 165.3 2.4 C 163.5 3.8 166.8 1.5 161.4 2.5 C 163.6 2.6 158.5 3.6 160.0 2.7 C 162.3 1.7 157.6 3.0 155.9 2.4 C 155.0 3.0 151.6 4.2 152.9 2.8 C 151.7 1.3 150.1 3.8 150.0 2.5 C 149.6 2.0 148.6 3.1 148.2 3.0 C 148.0 2.1 146.9 2.7 144.4 2.4 C 138.7 1.9 142.1 4.9 139.7 5.3 C 139.2 5.7 140.6 8.9 140.6 6.5 C 140.7 7.2 146.8 4.7 142.9 7.3 C 145.3 6.3 141.9 8.4 146.2 7.2 C 142.4 5.3 152.2 6.4 146.9 7.3 C 147.4 7.9 149.3 7.8 148.3 7.3 C 148.8 5.6 151.0 8.1 150.5 6.0 C 153.1 6.6 153.5 4.7 153.5 6.0 C 152.7 8.3 153.7 5.5 154.8 6.1 C 158.4 6.1 153.9 8.7 157.2 7.0 C 159.7 8.1 158.6 6.0 160.0 5.7 C 161.5 4.2 162.7 6.9 159.9 7.1 C 161.9 6.3 159.6 7.9 161.9 6.9 C 161.8 5.5 162.7 8.4 163.1 7.3 C 164.8 6.9 164.8 6.0 165.3 6.0 C 167.4 6.0 165.6 7.4 166.9 6.4 C 167.8 5.8 167.3 7.6 168.0 7.2 C 165.9 7.1 171.0 5.7 170.6 6.4 C 169.2 6.5 169.6 8.3 171.4 7.2 C 173.1 4.1 172.6 8.0 174.6 6.9 C 175.2 5.2 179.5 6.7 176.6 7.5 C 176.8 7.3 177.6 6.3 177.6 6.4 M 168.8 6.9 C 167.1 6.8 171.0 6.6 168.8 6.9 M 168.5 7.4 C 168.2 6.8 169.8 7.8 168.2 7.6 C 168.2 7.5 168.5 7.4 168.5 7.4 M 161.1 7.4 C 161.7 6.9 161.9 7.7 161.1 7.4 M 160.5 6.4 C 159.7 5.9 162.2 6.3 160.5 6.4 M 144.0 6.7 C 147.2 4.1 144.9 8.1 144.0 6.7 M 154.4 7.2 C 156.6 6.9 153.0 8.3 154.4 7.2 M 155.5 6.6 C 156.7 6.2 155.2 7.2 155.5 6.6 M 147.1 6.7 C 147.0 6.7 147.0 6.7 147.1 6.7 C 147.1 6.7 147.1 6.7 147.1 6.7 Z M 142.3 6.6 C 142.3 6.7 142.3 6.7 142.3 6.6 C 142.3 6.6 142.3 6.6 142.3 6.6 Z M 152.0 6.4 C 153.1 7.0 149.4 6.7 152.0 6.4 C 152.0 6.4 152.0 6.4 152.0 6.4 Z M 146.9 2.7 C 147.0 2.7 147.0 2.7 146.9 2.7 C 146.9 2.7 146.9 2.7 146.9 2.7 Z M 171.2 5.7 C 171.3 5.7 171.3 5.7 171.2 5.7 C 171.2 5.7 171.2 5.7 171.2 5.7 Z M 175.8 6.7 C 176.1 6.4 176.6 7.0 175.8 6.7 C 175.8 6.7 175.8 6.7 175.8 6.7 Z M 183.2 3.8 C 183.3 3.7 183.3 3.7 183.2 3.8 C 183.2 3.8 183.2 3.8 183.2 3.8 Z M 174.3 4.4 C 174.4 4.3 174.4 4.3 174.3 4.4 C 174.3 4.4 174.3 4.4 174.3 4.4 Z M 171.8 6.3 C 171.4 7.7 170.0 5.9 171.8 6.3 C 171.8 6.3 171.8 6.3 171.8 6.3 Z M 156.2 2.9 C 155.8 3.5 155.0 2.7 156.2 2.9 C 156.2 2.9 156.2 2.9 156.2 2.9 Z M 160.7 5.8 C 160.3 6.1 160.1 5.6 160.7 5.8 C 160.7 5.8 160.7 5.8 160.7 5.8 Z M 162.3 7.7 C 161.8 8.0 161.6 7.6 162.3 7.7 C 162.3 7.7 162.3 7.7 162.3 7.7 Z M 175.4 7.1 C 175.2 7.2 175.2 7.2 175.4 7.1 C 175.4 7.1 175.4 7.1 175.4 7.1 Z M 174.4 6.0 C 174.5 7.4 172.9 5.3 174.4 6.0 C 174.4 6.0 174.4 6.0 174.4 6.0 Z M 177.1 5.6 C 176.8 5.1 178.7 5.9 177.1 5.6 M 177.6 3.6 C 175.4 4.2 181.4 1.2 177.6 3.6 C 177.6 3.6 177.6 3.6 177.6 3.6 Z M 169.3 3.1 C 169.3 3.0 169.3 3.0 169.3 3.1 C 169.3 3.1 169.3 3.1 169.3 3.1 Z M 167.0 7.0 C 165.6 6.9 168.2 6.6 167.0 7.0 C 167.0 7.0 167.0 7.0 167.0 7.0 Z M 179.4 7.3 C 178.0 7.2 180.7 6.9 179.4 7.3 C 179.4 7.3 179.4 7.3 179.4 7.3 Z M 163.2 4.4 C 160.6 4.6 165.3 3.7 163.2 4.4 C 163.2 4.4 163.2 4.4 163.2 4.4 Z M 153.1 5.9 C 153.1 5.9 153.1 5.9 153.1 5.9 C 153.1 5.9 153.1 5.9 153.1 5.9 Z M 151.1 6.5 C 151.1 6.4 151.1 6.4 151.1 6.5 C 151.1 6.5 151.1 6.5 151.1 6.5 Z M 145.1 5.1 C 145.0 5.1 145.0 5.1 145.1 5.1 C 145.1 5.1 145.1 5.1 145.1 5.1 Z M 149.2 7.1 C 149.2 7.1 149.2 7.1 149.2 7.1 C 149.2 7.1 149.2 7.1 149.2 7.1 Z M 144.7 6.8 C 144.7 6.7 144.7 6.7 144.7 6.8 C 144.7 6.8 144.7 6.8 144.7 6.8 Z M 144.7 7.9 C 144.7 7.9 144.7 7.9 144.7 7.9 C 144.7 7.9 144.7 7.9 144.7 7.9 Z M 159.2 2.1 C 159.1 2.1 159.1 2.1 159.2 2.1 C 159.2 2.1 159.2 2.1 159.2 2.1 Z M 172.4 7.5 C 172.4 7.4 172.4 7.4 172.4 7.5 C 172.4 7.5 172.4 7.5 172.4 7.5 Z M 145.4 6.2 C 145.4 6.2 145.4 6.2 145.4 6.2 C 145.4 6.2 145.4 6.2 145.4 6.2 Z M 157.8 5.2 C 158.5 4.1 157.7 6.7 157.4 5.2 C 157.5 5.2 157.7 5.4 157.8 5.2 M 157.5 3.3 C 157.6 3.3 157.6 3.3 157.5 3.3 C 157.5 3.3 157.5 3.3 157.5 3.3 Z M 163.5 2.6 C 163.6 2.6 163.6 2.6 163.5 2.6 C 163.5 2.6 163.5 2.6 163.5 2.6 Z M 149.9 7.3 C 149.7 8.0 149.0 6.8 150.1 7.3 M 146.2 3.1 C 146.0 3.8 145.1 2.6 146.4 3.1 M 181.5 6.8 C 181.6 6.7 181.7 6.7 181.8 6.7 C 182.1 6.6 182.1 7.0 181.6 6.9 C 181.6 6.9 181.5 6.8 181.5 6.8 M 165.1 2.0 C 165.7 1.5 166.0 2.3 165.1 2.0 M 161.5 3.5 C 161.3 4.1 160.5 3.0 161.7 3.4 M 149.9 3.2 C 149.8 3.2 149.8 3.2 149.9 3.2 C 149.9 3.2 149.9 3.2 149.9 3.2 Z M 164.9 6.8 C 164.8 6.8 164.8 6.8 164.9 6.8 C 164.9 6.8 164.9 6.8 164.9 6.8 Z M 159.5 5.5 C 159.7 6.4 158.7 4.9 159.5 5.5 M 168.0 5.3 C 168.4 6.4 166.2 5.0 168.0 5.3 M 143.5 2.9 C 144.2 4.2 142.8 2.2 143.5 2.9 M 148.8 6.1 C 149.4 7.4 148.2 5.4 148.8 6.1 M 164.0 6.3 C 163.6 7.0 162.9 5.9 164.0 6.3 M 178.1 6.9 C 179.3 7.1 175.8 7.5 178.1 6.9 M 153.5 3.1 C 153.5 3.1 153.5 3.1 153.5 3.1 C 153.5 3.1 153.5 3.1 153.5 3.1 Z M 178.2 2.0 C 178.2 1.9 178.2 1.9 178.2 2.0 C 178.2 2.0 178.2 2.0 178.2 2.0 Z M 139.4 7.1 C 139.3 7.1 139.3 7.1 139.4 7.1 C 139.4 7.1 139.4 7.1 139.4 7.1 Z M 150.0 5.5 C 150.0 5.4 150.0 5.4 150.0 5.5 C 150.0 5.5 150.0 5.5 150.0 5.5 Z M 142.0 7.3 C 141.9 7.2 141.9 7.2 142.0 7.3 C 142.0 7.3 142.0 7.3 142.0 7.3 Z M 155.2 4.5 C 155.2 4.5 155.2 4.5 155.2 4.5 C 155.2 4.5 155.2 4.5 155.2 4.5 Z M 153.8 7.8 C 153.8 7.8 153.8 7.8 153.8 7.8 C 153.8 7.8 153.8 7.8 153.8 7.8 Z M 159.7 6.4 C 159.7 6.4 159.7 6.4 159.7 6.4 C 159.7 6.4 159.7 6.4 159.7 6.4 Z M 151.8 7.5 C 148.8 7.7 154.0 6.4 151.8 7.5 C 151.8 7.5 151.8 7.5 151.8 7.5 Z M 159.2 4.2 C 159.2 4.2 159.2 4.2 159.2 4.2 C 159.2 4.2 159.2 4.2 159.2 4.2 Z M 157.9 6.6 C 155.4 7.5 158.1 5.0 157.9 6.6 M 165.3 7.4 C 164.3 7.9 165.7 6.6 165.3 7.4 M 172.2 3.0 C 172.3 3.0 172.3 3.0 172.2 3.0 C 172.2 3.0 172.2 3.0 172.2 3.0 Z M 171.0 3.4 C 171.0 3.3 171.0 3.3 171.0 3.4 C 171.0 3.4 171.0 3.4 171.0 3.4 Z M 167.1 7.6 C 167.1 7.5 167.1 7.5 167.1 7.6 C 167.1 7.6 167.1 7.6 167.1 7.6 Z M 171.9 2.1 C 171.9 2.1 171.9 2.1 171.9 2.1 C 171.9 2.1 171.9 2.1 171.9 2.1 Z M 155.0 7.7 C 155.0 7.7 155.0 7.7 155.0 7.7 C 155.0 7.7 155.0 7.7 155.0 7.7 Z M 140.3 7.8 C 140.3 7.7 140.3 7.7 140.3 7.8 C 140.3 7.8 140.3 7.8 140.3 7.8 Z M 181.0 3.5 C 180.9 3.4 180.9 3.4 181.0 3.5 C 181.0 3.5 181.0 3.5 181.0 3.5 Z M 154.4 6.4 C 154.3 6.4 154.3 6.4 154.4 6.4 C 154.4 6.4 154.4 6.4 154.4 6.4 Z M 174.2 3.2 C 174.2 3.2 174.2 3.2 174.2 3.2 C 174.2 3.2 174.2 3.2 174.2 3.2 Z M 155.1 6.7 C 155.1 6.7 155.1 6.7 155.1 6.7 C 155.1 6.7 155.1 6.7 155.1 6.7 Z M 154.2 2.8 C 154.1 2.8 154.1 2.8 154.2 2.8 C 154.2 2.8 154.2 2.8 154.2 2.8 Z M 151.3 2.1 C 151.3 2.1 151.3 2.1 151.3 2.1 C 151.3 2.1 151.3 2.1 151.3 2.1 Z M 152.9 5.1 C 152.8 5.1 152.8 5.1 152.9 5.1 C 152.9 5.1 152.9 5.1 152.9 5.1 Z M 174.0 4.6 C 178.9 5.8 168.9 5.2 174.0 4.6 M 152.0 4.9 C 156.0 5.1 147.9 6.2 152.0 4.9 C 151.4 5.2 152.0 4.9 152.0 4.9 M 135.0 7.3 C 136.9 8.6 137.8 6.7 137.9 6.7 C 136.3 9.2 140.7 5.7 140.4 5.2 C 140.7 4.8 140.9 0.4 137.6 3.1 C 137.0 3.4 137.0 2.6 136.7 2.6 C 133.3 2.7 138.3 3.9 134.3 3.9 C 133.7 3.6 135.5 1.5 132.5 2.9 C 132.5 2.7 130.0 1.9 130.7 2.9 C 129.8 1.9 128.5 3.1 127.2 3.3 C 126.3 2.8 128.7 1.8 124.3 3.0 C 123.2 1.2 121.7 4.3 120.8 2.3 C 119.8 2.3 117.4 5.5 120.2 3.7 C 119.8 3.9 120.7 5.4 117.9 4.8 C 118.4 4.4 121.0 1.2 115.7 2.7 C 115.0 2.7 112.9 3.5 112.6 3.1 C 115.1 2.8 109.4 1.7 109.9 2.7 C 106.1 2.0 108.1 3.5 105.4 2.4 C 103.1 2.4 106.0 3.9 103.3 3.0 C 101.1 3.2 102.6 2.4 102.9 2.4 C 101.0 2.3 100.3 2.9 99.6 2.8 C 99.2 2.6 98.4 2.0 97.9 2.8 C 95.9 4.3 97.6 5.7 96.7 7.2 C 98.1 7.9 97.4 6.1 98.3 7.2 C 99.0 6.2 98.4 7.2 102.1 7.0 C 102.1 6.8 101.2 6.2 102.1 6.1 C 103.6 6.2 102.3 8.7 104.9 6.9 C 102.1 6.4 109.0 6.1 106.4 5.6 C 109.8 5.3 107.4 5.8 109.7 6.4 C 109.8 4.7 109.5 8.2 110.7 6.9 C 110.8 7.5 114.6 7.2 112.1 6.2 C 116.1 5.8 113.4 6.7 114.6 7.6 C 116.4 7.7 115.4 4.9 116.0 7.0 C 118.1 7.9 116.4 5.9 117.7 7.5 C 117.3 6.1 119.4 7.6 119.2 6.0 C 123.3 5.9 118.2 7.6 121.3 6.6 C 120.5 6.5 120.2 8.6 122.3 7.2 C 122.3 4.8 123.8 9.4 123.7 6.2 C 129.7 5.2 124.1 7.5 127.2 7.5 C 128.0 7.5 126.7 6.5 127.5 6.4 C 131.2 6.9 127.6 7.7 130.3 6.2 C 134.5 5.7 130.9 7.5 132.7 7.6 C 133.2 6.9 135.4 5.6 135.0 7.3 M 131.8 6.5 C 130.8 7.0 131.6 6.0 131.8 6.5 M 139.3 7.3 C 138.3 7.8 139.1 6.7 139.3 7.3 M 128.4 7.0 C 127.1 7.5 128.4 6.1 128.4 7.0 M 107.5 6.2 C 109.0 6.2 106.8 6.6 107.5 6.2 M 136.2 7.4 C 134.7 8.0 136.3 6.5 136.2 7.4 M 138.2 6.1 C 138.2 6.1 138.2 6.1 138.2 6.1 M 105.2 7.5 C 105.2 7.5 105.2 7.5 105.2 7.5 M 110.8 7.5 C 109.6 7.5 111.6 7.2 110.8 7.5 M 112.1 2.1 C 110.8 2.1 112.9 1.8 112.1 2.1 M 102.2 7.6 C 100.9 8.0 101.9 7.0 102.2 7.6 M 99.1 6.4 C 98.0 6.9 98.4 5.8 99.1 6.4 M 133.4 4.6 C 133.4 4.6 133.4 4.6 133.4 4.6 C 133.4 4.6 133.4 4.6 133.4 4.6 Z M 123.2 3.3 C 124.3 3.8 121.8 2.6 123.2 3.3 M 124.0 6.8 C 123.5 5.7 125.5 6.9 124.0 6.8 C 124.0 6.8 124.0 6.8 124.0 6.8 Z M 126.0 6.3 C 126.0 6.3 126.0 6.3 126.0 6.3 C 126.0 6.3 126.0 6.3 126.0 6.3 Z M 120.1 6.2 C 120.2 6.2 120.2 6.2 120.1 6.2 C 120.1 6.2 120.1 6.2 120.1 6.2 Z M 121.3 6.2 C 121.9 5.9 122.0 6.4 121.3 6.2 C 121.3 6.2 121.3 6.2 121.3 6.2 Z M 113.5 2.7 C 114.1 2.5 114.2 2.9 113.5 2.7 C 113.5 2.7 113.5 2.7 113.5 2.7 Z M 123.3 5.8 C 123.8 4.7 123.9 6.5 123.3 5.8 C 123.3 5.8 123.3 5.8 123.3 5.8 Z M 117.7 3.2 C 117.0 3.5 116.8 2.1 117.7 3.2 M 104.1 7.3 C 103.5 7.6 103.1 6.3 104.1 7.3 M 116.3 7.6 C 115.7 7.9 115.5 6.6 116.3 7.6 M 131.0 7.0 C 130.9 6.8 130.9 6.8 131.0 7.0 M 125.7 2.2 C 124.8 2.6 125.5 1.8 125.7 2.2 M 137.8 2.6 C 136.8 3.0 137.6 2.1 137.8 2.6 M 106.5 2.3 C 106.5 2.5 105.2 2.1 106.5 2.3 M 115.3 5.9 C 114.2 5.7 113.2 5.1 115.5 5.2 C 115.6 5.5 114.9 5.6 115.3 5.9 C 115.3 5.9 115.3 5.9 115.3 5.9 Z M 111.8 3.4 C 111.7 3.3 111.7 3.3 111.8 3.4 M 113.1 6.9 C 113.0 6.8 113.0 6.8 113.1 6.9 M 106.8 6.8 C 106.7 6.6 106.7 6.6 106.8 6.8 M 106.0 7.1 C 106.0 7.0 106.0 7.0 106.0 7.1 C 106.0 7.1 106.0 7.1 106.0 7.1 Z M 99.0 7.5 C 99.0 7.5 99.0 7.5 99.0 7.5 C 99.0 7.5 99.0 7.5 99.0 7.5 Z M 108.8 6.6 C 108.9 6.6 108.9 6.6 108.8 6.6 C 108.8 6.6 108.8 6.6 108.8 6.6 Z M 103.5 2.5 C 103.5 2.4 103.5 2.4 103.5 2.5 C 103.5 2.5 103.5 2.5 103.5 2.5 Z M 104.2 3.1 C 104.2 3.1 104.2 3.1 104.2 3.1 C 104.2 3.1 104.2 3.1 104.2 3.1 Z M 134.4 7.3 C 133.1 8.0 134.8 5.4 134.4 7.3 M 101.0 3.1 C 100.1 2.4 102.7 3.0 101.0 3.1 C 101.0 3.1 101.0 3.1 101.0 3.1 Z M 109.8 5.7 C 109.7 5.6 109.7 5.6 109.8 5.7 M 105.6 7.0 C 105.5 6.8 105.5 6.8 105.6 7.0 M 123.7 7.8 C 123.6 7.7 123.6 7.7 123.7 7.8 M 100.7 6.8 C 97.8 6.5 102.2 5.2 100.7 6.8 M 125.4 6.8 C 125.4 6.9 125.4 6.9 125.4 6.8 M 119.3 4.7 C 117.3 4.8 120.2 4.1 119.3 4.7 M 113.9 6.1 C 113.9 6.0 113.9 6.0 113.9 6.1 C 113.9 6.1 113.9 6.1 113.9 6.1 Z M 116.8 6.1 C 118.3 5.9 117.1 6.4 116.8 6.1 C 116.8 6.1 116.8 6.1 116.8 6.1 Z M 133.5 6.3 C 131.7 6.1 135.6 5.9 133.5 6.3 C 133.5 6.3 133.5 6.3 133.5 6.3 Z M 102.3 4.2 C 102.4 4.2 102.4 4.2 102.3 4.2 C 102.3 4.2 102.3 4.2 102.3 4.2 Z M 109.1 7.4 C 110.0 7.1 109.4 7.7 109.1 7.4 C 109.1 7.4 109.1 7.4 109.1 7.4 Z M 98.0 7.5 C 98.9 7.2 98.4 7.8 98.0 7.5 C 98.0 7.5 98.0 7.5 98.0 7.5 Z M 135.7 6.5 C 129.5 4.6 144.6 6.9 135.7 6.5 C 135.7 6.5 135.7 6.5 135.7 6.5 Z M 115.5 6.8 C 115.5 6.8 115.5 6.8 115.5 6.8 C 115.5 6.8 115.5 6.8 115.5 6.8 Z M 127.8 7.6 C 127.8 7.5 127.8 7.5 127.8 7.6 C 127.8 7.6 127.8 7.6 127.8 7.6 Z M 130.3 6.6 C 130.4 6.5 130.4 6.5 130.3 6.6 C 130.3 6.6 130.3 6.6 130.3 6.6 Z M 131.5 2.3 C 131.5 2.3 131.5 2.3 131.5 2.3 C 131.5 2.3 131.5 2.3 131.5 2.3 Z M 129.9 4.3 C 130.1 4.2 130.1 4.2 129.9 4.3 C 129.9 4.3 129.9 4.3 129.9 4.3 Z M 134.8 3.6 C 134.9 3.5 134.9 3.5 134.8 3.6 C 134.8 3.6 134.8 3.6 134.8 3.6 Z M 134.9 3.0 C 135.0 2.9 135.0 2.9 134.9 3.0 C 134.9 3.0 134.9 3.0 134.9 3.0 Z M 105.7 5.8 C 105.8 5.7 105.8 5.7 105.7 5.8 C 105.7 5.8 105.7 5.8 105.7 5.8 Z M 108.4 4.0 C 106.7 4.6 109.1 3.1 108.4 4.0 C 108.4 4.0 108.4 4.0 108.4 4.0 Z M 122.7 4.9 C 121.1 5.1 123.9 4.3 122.7 4.9 C 122.7 4.9 122.7 4.9 122.7 4.9 Z M 121.8 2.5 C 121.8 2.5 121.8 2.5 121.8 2.5 C 121.8 2.5 121.8 2.5 121.8 2.5 Z M 129.9 7.6 C 130.0 7.5 130.0 7.5 129.9 7.6 C 129.9 7.6 129.9 7.6 129.9 7.6 Z M 132.9 6.9 C 133.4 6.0 133.5 7.3 132.9 6.9 M 119.2 7.4 C 119.2 7.3 119.2 7.3 119.2 7.4 C 119.2 7.4 119.2 7.4 119.2 7.4 Z M 110.9 6.0 C 111.0 5.9 111.0 5.9 110.9 6.0 C 110.9 6.0 110.9 6.0 110.9 6.0 Z M 102.3 6.6 C 102.4 6.5 102.4 6.5 102.3 6.6 C 102.3 6.6 102.3 6.6 102.3 6.6 Z M 113.9 7.3 C 114.0 7.2 114.0 7.2 113.9 7.3 C 113.9 7.3 113.9 7.3 113.9 7.3 Z M 118.2 6.5 C 118.3 6.4 118.3 6.4 118.2 6.5 C 118.2 6.5 118.2 6.5 118.2 6.5 Z M 100.5 5.3 C 100.6 5.3 100.6 5.3 100.5 5.3 C 100.5 5.3 100.5 5.3 100.5 5.3 Z M 112.9 7.4 C 113.0 7.4 113.0 7.4 112.9 7.4 C 112.9 7.4 112.9 7.4 112.9 7.4 Z M 111.0 4.6 C 111.1 4.5 111.1 4.5 111.0 4.6 C 111.0 4.6 111.0 4.6 111.0 4.6 Z M 131.9 8.2 C 132.0 8.1 132.0 8.1 131.9 8.2 C 131.9 8.2 131.9 8.2 131.9 8.2 Z M 100.4 6.5 C 100.4 6.5 100.4 6.5 100.4 6.5 C 100.4 6.5 100.4 6.5 100.4 6.5 Z M 99.8 7.3 C 99.8 7.3 99.8 7.3 99.8 7.3 C 99.8 7.3 99.8 7.3 99.8 7.3 Z M 106.3 3.0 C 109.4 3.6 103.5 3.2 105.7 4.2 C 101.2 4.5 105.7 3.0 106.3 3.0 C 106.3 3.0 106.3 3.0 106.3 3.0 Z M 95.8 7.6 C 97.5 6.4 97.5 5.3 96.8 4.0 C 96.0 3.4 96.0 5.8 96.0 3.8 C 97.9 3.4 95.1 0.7 95.1 3.3 C 92.5 3.7 94.7 1.6 93.1 2.7 C 90.4 3.0 91.8 2.1 89.6 2.3 C 88.4 3.8 88.3 1.6 87.8 3.0 C 88.8 1.5 85.6 3.4 85.4 2.7 C 87.3 1.8 77.9 2.7 83.1 3.1 C 81.1 3.8 81.4 2.6 80.6 2.4 C 79.8 3.3 77.0 1.7 75.9 2.6 C 76.2 2.8 76.9 2.9 77.1 3.1 C 77.6 3.7 75.6 3.0 75.8 3.1 C 75.0 3.4 71.9 4.3 75.1 2.7 C 75.2 2.0 72.3 3.1 72.2 2.4 C 69.0 2.4 71.8 3.8 70.1 2.8 C 67.9 2.7 66.3 2.7 66.3 2.9 C 64.9 2.7 64.4 1.9 63.4 2.7 C 60.1 1.1 62.5 5.8 60.4 2.7 C 59.9 3.4 58.4 1.4 59.2 3.3 C 59.8 2.4 53.9 1.8 56.9 3.2 C 56.5 3.7 51.9 1.2 53.3 3.2 C 52.7 4.6 53.5 6.0 56.7 7.3 C 56.0 6.2 60.0 8.5 57.3 6.6 C 54.7 6.0 61.2 5.9 60.1 6.6 C 60.6 8.9 62.7 5.2 64.6 6.8 C 63.2 5.9 68.3 5.5 67.3 7.2 C 68.3 7.3 68.3 6.5 69.6 7.5 C 66.5 7.3 70.3 5.7 70.4 6.7 C 70.1 7.4 74.8 7.9 74.1 6.9 C 71.9 4.6 75.4 7.4 76.0 6.5 C 78.5 6.0 76.0 8.5 77.6 6.8 C 78.2 7.1 81.6 7.1 79.5 7.5 C 78.7 7.3 81.1 5.0 81.8 7.0 C 78.4 8.1 86.0 7.6 84.8 7.0 C 79.0 5.9 90.7 5.8 86.3 6.8 C 88.9 7.9 85.6 7.3 88.7 6.8 C 88.2 6.2 90.6 5.6 90.1 6.8 C 90.7 8.7 90.8 4.3 92.8 6.9 C 93.1 8.0 96.6 6.1 95.2 7.3 C 95.2 7.4 95.7 7.7 95.8 7.6 M 94.7 7.4 C 95.1 7.0 95.3 8.0 94.7 7.4 M 95.1 7.0 C 95.1 7.0 95.1 7.0 95.1 7.0 C 95.1 7.0 95.1 7.0 95.1 7.0 Z M 89.1 6.7 C 89.2 6.8 89.2 6.8 89.1 6.7 C 89.1 6.7 89.1 6.7 89.1 6.7 Z M 83.8 2.0 C 83.9 2.0 83.9 2.0 83.8 2.0 C 83.8 2.0 83.8 2.0 83.8 2.0 Z M 85.1 6.6 C 85.1 6.6 85.1 6.6 85.1 6.6 C 85.1 6.6 85.1 6.6 85.1 6.6 Z M 91.2 6.4 C 91.3 6.4 91.3 6.4 91.2 6.4 C 91.2 6.4 91.2 6.4 91.2 6.4 Z M 85.5 7.3 C 85.2 6.6 87.0 7.8 85.5 7.4 C 85.4 7.4 85.7 7.4 85.5 7.3 M 80.4 7.6 C 80.3 7.5 80.3 7.5 80.4 7.6 M 67.4 2.0 C 67.3 1.9 67.3 1.9 67.4 2.0 M 68.1 7.6 C 67.9 7.6 67.9 7.6 68.1 7.6 M 75.1 6.9 C 73.5 7.0 74.6 6.5 75.1 6.9 M 63.8 7.2 C 65.9 7.7 61.8 7.6 63.8 7.2 M 62.0 7.7 C 61.8 7.6 61.8 7.6 62.0 7.7 M 70.9 7.4 C 70.9 7.3 70.9 7.3 70.9 7.4 C 70.9 7.4 70.9 7.4 70.9 7.4 Z M 75.8 7.2 C 78.0 7.5 73.9 7.8 75.8 7.2 M 88.4 7.4 C 87.3 7.8 88.4 6.5 88.4 7.4 M 90.8 7.0 C 90.8 7.0 90.8 7.0 90.8 7.0 C 90.8 7.0 90.8 7.0 90.8 7.0 Z M 67.0 7.3 C 67.0 7.3 67.0 7.3 67.0 7.3 C 67.0 7.3 67.0 7.3 67.0 7.3 Z M 64.7 7.4 C 64.8 7.4 64.8 7.4 64.7 7.4 C 64.7 7.4 64.7 7.4 64.7 7.4 Z M 58.9 2.2 C 59.0 2.2 59.0 2.2 58.9 2.2 C 58.9 2.2 58.9 2.2 58.9 2.2 Z M 88.9 4.8 C 90.5 5.2 87.4 6.5 87.6 5.3 C 87.4 4.7 88.7 5.0 88.9 4.8 M 77.0 5.6 C 76.3 3.8 79.0 8.0 77.0 5.6 M 61.2 6.5 C 58.9 4.4 63.7 8.0 61.2 6.5 M 58.2 6.9 C 57.1 6.4 64.0 6.6 59.5 7.2 C 59.2 7.5 58.6 7.1 58.2 6.9 M 80.2 6.7 C 79.6 5.8 82.7 7.2 80.2 6.7 M 69.8 3.8 C 69.2 4.4 67.3 5.0 67.9 3.9 C 67.5 2.5 70.6 3.3 69.8 3.8 M 94.2 6.4 C 92.9 8.0 94.2 5.1 94.2 6.4 M 88.1 6.3 C 88.1 6.4 88.1 6.4 88.1 6.3 C 88.1 6.3 88.1 6.3 88.1 6.3 Z M 85.7 6.5 C 85.6 6.4 85.6 6.4 85.7 6.5 M 93.2 7.8 C 93.1 7.7 93.1 7.7 93.2 7.8 M 70.3 5.4 C 70.1 5.3 70.1 5.3 70.3 5.4 M 75.4 6.5 C 72.8 4.9 76.7 6.1 75.4 6.5 M 80.8 3.5 C 79.9 2.7 82.3 3.4 80.8 3.5 M 71.7 7.1 C 69.7 5.6 73.7 5.7 71.7 7.1 M 76.7 6.6 C 76.5 6.6 76.5 6.6 76.7 6.6 C 76.7 6.6 76.7 6.6 76.7 6.6 Z M 69.1 3.6 C 69.1 3.6 69.1 3.6 69.1 3.6 C 69.1 3.6 69.1 3.6 69.1 3.6 Z M 68.4 3.7 C 68.5 3.7 68.5 3.7 68.4 3.7 C 68.4 3.7 68.4 3.7 68.4 3.7 Z M 69.8 7.2 C 69.8 7.2 69.8 7.2 69.8 7.2 C 69.8 7.2 69.8 7.2 69.8 7.2 Z M 90.8 2.9 C 89.1 2.8 92.2 2.7 90.8 2.9 C 90.8 2.9 90.8 2.9 90.8 2.9 Z M 83.6 7.3 C 80.7 6.1 85.4 6.2 83.6 7.3 C 83.6 7.3 83.6 7.3 83.6 7.3 Z M 80.2 5.4 C 80.2 5.3 80.2 5.3 80.2 5.4 C 80.2 5.4 80.2 5.4 80.2 5.4 Z M 73.0 8.0 C 73.0 7.9 73.0 7.9 73.0 8.0 C 73.0 8.0 73.0 8.0 73.0 8.0 Z M 89.9 2.7 C 89.9 2.7 89.9 2.7 89.9 2.7 C 89.9 2.7 89.9 2.7 89.9 2.7 Z M 64.8 6.4 C 64.8 6.3 64.8 6.3 64.8 6.4 C 64.8 6.4 64.8 6.4 64.8 6.4 Z M 73.7 3.4 C 73.2 4.0 73.5 2.9 73.7 3.4 C 73.7 3.4 73.7 3.4 73.7 3.4 Z M 71.1 3.4 C 71.1 3.4 71.1 3.4 71.1 3.4 C 71.1 3.4 71.1 3.4 71.1 3.4 Z M 61.4 7.8 C 61.3 7.8 61.3 7.8 61.4 7.8 C 61.4 7.8 61.4 7.8 61.4 7.8 Z M 64.1 2.0 C 64.0 2.0 64.0 2.0 64.1 2.0 C 64.1 2.0 64.1 2.0 64.1 2.0 Z M 62.5 3.7 C 62.6 3.7 62.6 3.7 62.5 3.7 C 62.5 3.7 62.5 3.7 62.5 3.7 Z M 70.1 6.9 C 67.7 7.1 70.5 6.2 70.1 6.9 C 70.1 6.9 70.1 6.9 70.1 6.9 Z M 56.4 4.2 C 56.3 4.1 56.3 4.1 56.4 4.2 C 56.4 4.2 56.4 4.2 56.4 4.2 Z M 56.0 6.2 C 55.8 6.1 55.8 6.1 56.0 6.2 C 56.0 6.2 56.0 6.2 56.0 6.2 Z M 55.8 7.3 C 55.7 7.2 55.7 7.2 55.8 7.3 C 55.8 7.3 55.8 7.3 55.8 7.3 Z M 85.5 4.4 C 85.6 4.4 85.6 4.4 85.5 4.4 C 85.5 4.4 85.5 4.4 85.5 4.4 Z M 86.8 7.7 C 86.8 7.7 86.8 7.7 86.8 7.7 C 86.8 7.7 86.8 7.7 86.8 7.7 Z M 83.5 7.8 C 83.5 7.8 83.5 7.8 83.5 7.8 C 83.5 7.8 83.5 7.8 83.5 7.8 Z M 86.0 2.4 C 86.0 2.4 86.0 2.4 86.0 2.4 C 86.0 2.4 86.0 2.4 86.0 2.4 Z M 73.4 5.2 C 73.5 5.2 73.5 5.2 73.4 5.2 C 73.4 5.2 73.4 5.2 73.4 5.2 Z M 71.9 3.8 C 72.0 3.9 72.0 3.9 71.9 3.8 C 71.9 3.8 71.9 3.8 71.9 3.8 Z M 74.5 2.1 C 74.5 2.1 74.5 2.1 74.5 2.1 C 74.5 2.1 74.5 2.1 74.5 2.1 Z M 70.6 2.7 C 70.7 2.7 70.7 2.7 70.6 2.7 C 70.6 2.7 70.6 2.7 70.6 2.7 Z M 94.8 3.0 C 94.8 3.0 94.8 3.0 94.8 3.0 C 94.8 3.0 94.8 3.0 94.8 3.0 Z M 95.1 5.5 C 95.1 5.4 95.1 5.4 95.1 5.5 C 95.1 5.5 95.1 5.5 95.1 5.5 Z M 73.5 7.0 C 73.0 7.5 72.1 6.3 73.5 7.0 M 78.2 6.7 C 78.2 6.6 78.2 6.6 78.2 6.7 C 78.2 6.7 78.2 6.7 78.2 6.7 Z M 65.4 6.9 C 64.4 5.9 67.8 7.4 65.4 6.9 C 65.4 6.9 65.4 6.9 65.4 6.9 Z M 66.7 2.7 C 66.6 2.7 66.6 2.7 66.7 2.7 C 66.7 2.7 66.7 2.7 66.7 2.7 Z M 65.5 3.1 C 65.4 3.0 65.4 3.0 65.5 3.1 C 65.5 3.1 65.5 3.1 65.5 3.1 Z M 59.3 5.8 C 59.2 5.8 59.2 5.8 59.3 5.8 M 78.9 7.6 C 78.1 7.1 78.3 7.2 78.9 7.6 M 63.8 6.9 C 63.8 6.8 63.8 6.8 63.8 6.9 C 63.8 6.9 63.8 6.9 63.8 6.9 Z M 58.0 6.4 C 58.1 6.4 58.1 6.4 58.0 6.4 C 58.0 6.4 58.0 6.4 58.0 6.4 Z M 82.2 6.9 C 81.9 5.7 82.6 6.0 82.2 6.9 M 91.7 6.5 C 91.7 6.4 91.7 6.4 91.7 6.5 C 91.7 6.5 91.7 6.5 91.7 6.5 Z M 50.8 7.3 C 54.0 8.6 53.1 6.7 53.1 6.7 C 54.0 9.2 55.0 5.7 54.2 5.2 C 54.2 4.8 50.0 0.4 49.4 3.1 C 49.1 3.4 48.4 2.6 48.0 2.6 C 44.7 2.7 50.9 3.9 46.9 3.9 C 46.0 3.6 45.7 1.5 44.1 2.9 C 43.9 2.7 40.7 1.9 42.3 2.9 C 40.5 1.9 40.3 3.1 39.2 3.3 C 37.8 2.8 39.2 1.8 36.0 3.0 C 33.2 1.2 34.6 4.3 31.8 2.3 C 30.8 2.3 31.5 5.5 32.5 3.7 C 32.3 3.9 34.7 5.4 31.4 4.8 C 31.5 4.4 31.0 1.2 27.2 2.7 C 26.3 2.7 25.1 3.5 24.4 3.1 C 26.6 2.8 19.9 1.7 21.3 2.7 C 16.8 2.0 20.3 3.5 16.6 2.4 C 14.2 2.4 18.5 3.9 15.0 3.0 C 13.0 3.2 13.7 2.4 14.0 2.4 C 12.0 2.3 11.8 2.9 11.2 2.8 C 10.6 2.6 9.1 2.0 9.4 2.8 C 8.8 4.3 12.0 5.7 12.5 7.2 C 14.5 7.9 12.0 6.1 14.0 7.2 C 13.9 6.2 14.2 7.2 17.8 7.0 C 17.5 6.8 16.0 6.2 16.8 6.1 C 18.4 6.2 19.5 8.7 20.4 6.9 C 17.1 6.4 23.8 6.1 20.6 5.6 C 23.8 5.3 21.8 5.8 24.7 6.4 C 23.2 4.7 26.3 8.2 26.1 6.9 C 26.9 7.5 30.4 7.2 26.9 6.2 C 30.5 5.8 28.7 6.7 30.8 7.6 C 32.6 7.7 28.9 4.9 31.5 7.0 C 34.5 7.9 30.9 5.9 33.7 7.5 C 32.0 6.1 35.5 7.6 33.8 6.0 C 37.7 5.9 34.4 7.6 36.5 6.6 C 35.6 6.5 37.3 8.6 38.1 7.2 C 35.8 4.8 41.7 9.4 38.4 6.2 C 43.5 5.2 40.2 7.5 43.3 7.5 C 44.0 7.5 41.8 6.5 42.5 6.4 C 46.7 6.9 43.9 7.7 45.1 6.2 C 48.8 5.7 47.0 7.5 48.9 7.6 C 48.7 6.9 49.6 5.6 50.8 7.3 M 46.9 6.5 C 46.4 7.0 46.1 6.0 46.9 6.5 M 55.1 7.3 C 54.6 7.8 54.4 6.7 55.1 7.3 M 43.9 7.0 C 43.2 7.5 43.1 6.1 43.9 7.0 M 22.3 6.2 C 23.8 6.2 21.9 6.6 22.3 6.2 M 52.1 7.4 C 51.2 8.0 51.3 6.5 52.1 7.4 M 52.9 6.1 C 52.8 6.1 52.8 6.1 52.9 6.1 M 21.3 7.5 C 21.2 7.5 21.2 7.5 21.3 7.5 M 26.9 7.5 C 25.7 7.5 27.3 7.2 26.9 7.5 M 23.0 2.1 C 21.7 2.1 23.4 1.8 23.0 2.1 M 18.3 7.6 C 17.5 8.0 17.4 7.0 18.3 7.6 M 14.1 6.4 C 13.5 6.9 12.9 5.8 14.1 6.4 M 46.6 4.6 C 46.6 4.6 46.6 4.6 46.6 4.6 C 46.6 4.6 46.6 4.6 46.6 4.6 Z M 35.2 3.3 C 36.8 3.8 33.2 2.6 35.2 3.3 M 39.3 6.8 C 37.8 5.7 41.0 6.9 39.3 6.8 C 39.3 6.8 39.3 6.8 39.3 6.8 Z M 40.9 6.3 C 40.9 6.3 40.9 6.3 40.9 6.3 C 40.9 6.3 40.9 6.3 40.9 6.3 Z M 34.9 6.2 C 35.0 6.2 35.0 6.2 34.9 6.2 C 34.9 6.2 34.9 6.2 34.9 6.2 Z M 36.1 6.2 C 36.4 5.9 36.9 6.4 36.1 6.2 C 36.1 6.2 36.1 6.2 36.1 6.2 Z M 24.9 2.7 C 25.3 2.5 25.8 2.9 24.9 2.7 C 24.9 2.7 24.9 2.7 24.9 2.7 Z M 37.7 5.8 C 37.2 4.7 39.0 6.5 37.7 5.8 C 37.7 5.8 37.7 5.8 37.7 5.8 Z M 29.5 3.2 C 29.2 3.5 27.7 2.1 29.5 3.2 M 19.9 7.3 C 19.7 7.6 18.0 6.3 19.9 7.3 M 32.5 7.6 C 32.1 7.9 30.6 6.6 32.5 7.6 M 46.5 7.0 C 46.3 6.8 46.3 6.8 46.5 7.0 M 36.7 2.2 C 36.1 2.6 36.0 1.8 36.7 2.2 M 49.1 2.6 C 48.5 3.0 48.5 2.1 49.1 2.6 M 17.5 2.3 C 17.8 2.5 16.1 2.1 17.5 2.3 M 29.7 5.9 C 28.5 5.7 27.0 5.1 29.3 5.2 C 29.7 5.5 29.1 5.6 29.7 5.9 C 29.7 5.9 29.7 5.9 29.7 5.9 Z M 23.9 3.4 C 23.7 3.3 23.7 3.3 23.9 3.4 M 28.6 6.9 C 28.3 6.8 28.3 6.8 28.6 6.9 M 22.2 6.8 C 21.9 6.6 21.9 6.6 22.2 6.8 M 21.6 7.1 C 21.6 7.0 21.6 7.0 21.6 7.1 C 21.6 7.1 21.6 7.1 21.6 7.1 Z M 15.1 7.5 C 15.1 7.5 15.1 7.5 15.1 7.5 C 15.1 7.5 15.1 7.5 15.1 7.5 Z M 24.1 6.6 C 24.0 6.6 24.0 6.6 24.1 6.6 C 24.1 6.6 24.1 6.6 24.1 6.6 Z M 14.7 2.5 C 14.7 2.4 14.7 2.4 14.7 2.5 C 14.7 2.5 14.7 2.5 14.7 2.5 Z M 16.1 3.1 C 16.0 3.1 16.0 3.1 16.1 3.1 C 16.1 3.1 16.1 3.1 16.1 3.1 Z M 50.2 7.3 C 49.7 8.0 48.8 5.4 50.2 7.3 M 12.8 3.1 C 11.2 2.4 14.4 3.0 12.8 3.1 C 12.8 3.1 12.8 3.1 12.8 3.1 Z M 24.1 5.7 C 23.9 5.6 23.9 5.6 24.1 5.7 M 21.1 7.0 C 20.9 6.8 20.9 6.8 21.1 7.0 M 40.0 7.8 C 39.8 7.7 39.8 7.7 40.0 7.8 M 16.1 6.8 C 12.9 6.5 16.1 5.2 16.1 6.8 M 40.7 6.8 C 40.8 6.9 40.8 6.9 40.7 6.8 M 32.7 4.7 C 30.7 4.8 33.0 4.1 32.7 4.7 M 28.6 6.1 C 28.6 6.0 28.6 6.0 28.6 6.1 C 28.6 6.1 28.6 6.1 28.6 6.1 Z M 31.5 6.1 C 32.9 5.9 32.1 6.4 31.5 6.1 C 31.5 6.1 31.5 6.1 31.5 6.1 Z M 48.3 6.3 C 46.4 6.1 50.1 5.9 48.3 6.3 C 48.3 6.3 48.3 6.3 48.3 6.3 Z M 15.2 4.2 C 15.2 4.2 15.2 4.2 15.2 4.2 C 15.2 4.2 15.2 4.2 15.2 4.2 Z M 25.0 7.4 C 25.7 7.1 25.7 7.7 25.0 7.4 C 25.0 7.4 25.0 7.4 25.0 7.4 Z M 14.1 7.5 C 14.7 7.2 14.8 7.8 14.1 7.5 C 14.1 7.5 14.1 7.5 14.1 7.5 Z M 50.7 6.5 C 42.8 4.6 60.0 6.9 50.7 6.5 C 50.7 6.5 50.7 6.5 50.7 6.5 Z M 30.9 6.8 C 30.9 6.8 30.9 6.8 30.9 6.8 C 30.9 6.8 30.9 6.8 30.9 6.8 Z M 43.9 7.6 C 43.9 7.5 43.9 7.5 43.9 7.6 C 43.9 7.6 43.9 7.6 43.9 7.6 Z M 45.5 6.6 C 45.5 6.5 45.5 6.5 45.5 6.6 C 45.5 6.6 45.5 6.6 45.5 6.6 Z M 42.5 2.3 C 42.5 2.3 42.5 2.3 42.5 2.3 C 42.5 2.3 42.5 2.3 42.5 2.3 Z M 42.8 4.3 C 42.9 4.2 42.9 4.2 42.8 4.3 C 42.8 4.3 42.8 4.3 42.8 4.3 Z M 47.0 3.6 C 47.0 3.5 47.0 3.5 47.0 3.6 C 47.0 3.6 47.0 3.6 47.0 3.6 Z M 46.6 3.0 C 46.6 2.9 46.6 2.9 46.6 3.0 C 46.6 3.0 46.6 3.0 46.6 3.0 Z M 20.1 5.8 C 20.1 5.7 20.1 5.7 20.1 5.8 C 20.1 5.8 20.1 5.8 20.1 5.8 Z M 21.1 4.0 C 20.0 4.6 20.9 3.1 21.1 4.0 C 21.1 4.0 21.1 4.0 21.1 4.0 Z M 36.2 4.9 C 34.9 5.1 36.8 4.3 36.2 4.9 C 36.2 4.9 36.2 4.9 36.2 4.9 Z M 33.1 2.5 C 33.0 2.5 33.0 2.5 33.1 2.5 C 33.1 2.5 33.1 2.5 33.1 2.5 Z M 46.1 7.6 C 46.1 7.5 46.1 7.5 46.1 7.6 C 46.1 7.6 46.1 7.6 46.1 7.6 Z M 48.3 6.9 C 48.0 6.0 49.4 7.3 48.3 6.9 M 35.2 7.4 C 35.1 7.3 35.1 7.3 35.2 7.4 C 35.2 7.4 35.2 7.4 35.2 7.4 Z M 25.6 6.0 C 25.5 5.9 25.5 5.9 25.6 6.0 C 25.6 6.0 25.6 6.0 25.6 6.0 Z M 17.5 6.6 C 17.4 6.5 17.4 6.5 17.5 6.6 C 17.5 6.6 17.5 6.6 17.5 6.6 Z M 29.8 7.3 C 29.7 7.2 29.7 7.2 29.8 7.3 C 29.8 7.3 29.8 7.3 29.8 7.3 Z M 33.2 6.5 C 33.2 6.4 33.2 6.4 33.2 6.5 C 33.2 6.5 33.2 6.5 33.2 6.5 Z M 14.5 5.3 C 14.5 5.3 14.5 5.3 14.5 5.3 C 14.5 5.3 14.5 5.3 14.5 5.3 Z M 28.9 7.4 C 28.9 7.4 28.9 7.4 28.9 7.4 C 28.9 7.4 28.9 7.4 28.9 7.4 Z M 24.3 4.6 C 24.3 4.5 24.3 4.5 24.3 4.6 C 24.3 4.6 24.3 4.6 24.3 4.6 Z M 48.6 8.2 C 48.6 8.1 48.6 8.1 48.6 8.2 C 48.6 8.2 48.6 8.2 48.6 8.2 Z M 15.5 6.5 C 15.4 6.5 15.4 6.5 15.5 6.5 C 15.5 6.5 15.5 6.5 15.5 6.5 Z M 15.6 7.3 C 15.6 7.3 15.6 7.3 15.6 7.3 C 15.6 7.3 15.6 7.3 15.6 7.3 Z M 18.1 3.0 C 21.6 3.6 15.5 3.2 18.5 4.2 C 14.3 4.5 17.4 3.0 18.1 3.0 C 18.1 3.0 18.1 3.0 18.1 3.0 Z M 11.9 7.6 C 12.5 6.4 11.4 5.3 9.5 4.0 C 8.1 3.4 10.4 5.8 8.4 3.8 C 10.0 3.4 4.6 0.7 7.2 3.3 C 4.9 3.7 5.1 1.6 4.6 2.7 C 2.8 2.9 2.6 2.5 1.9 2.4 C 1.8 2.5 1.8 2.8 1.9 3.5 C 3.3 6.2 1.2 4.1 2.5 6.0 C 1.0 3.4 2.9 8.7 2.3 8.1 C 1.3 5.3 2.2 15.6 2.7 10.8 C 3.4 13.6 2.1 12.0 2.0 12.6 C 2.8 14.3 1.3 15.5 2.1 17.5 C 2.3 17.4 2.4 16.8 2.7 16.9 C 3.2 17.0 2.6 18.2 2.6 18.1 C 2.9 19.2 3.8 23.3 2.3 18.4 C 1.5 17.6 2.6 21.6 1.9 21.0 C 1.9 24.1 3.4 22.9 2.3 23.5 C 2.3 25.7 2.3 27.3 2.4 27.4 C 2.3 28.6 1.4 28.3 2.3 30.1 C 0.7 31.8 5.3 34.1 2.2 33.1 C 2.9 34.3 0.9 33.8 2.8 34.9 C 1.9 33.4 1.3 38.7 2.7 37.1 C 3.2 38.0 0.8 40.1 2.7 40.7 C 4.1 42.8 5.5 43.4 6.9 41.6 C 5.8 41.2 8.0 39.5 6.1 40.3 C 5.5 42.2 5.5 35.7 6.1 37.5 C 8.4 39.3 4.7 33.4 6.3 33.2 C 5.4 33.7 5.0 28.1 6.7 30.8 C 6.8 30.0 6.0 29.2 7.0 28.8 C 6.8 31.8 5.2 26.3 6.3 27.3 C 6.9 28.3 7.4 24.1 6.5 23.8 C 4.1 23.5 6.9 23.0 6.0 21.4 C 5.5 18.4 8.0 23.5 6.3 20.1 C 6.6 19.9 6.6 16.5 7.1 19.0 C 6.8 19.6 4.5 14.7 6.5 16.2 C 7.6 20.8 7.1 12.5 6.5 13.2 C 5.4 17.9 5.3 6.0 6.4 11.5 C 7.5 10.1 6.8 12.6 6.3 9.1 C 5.7 8.9 5.1 5.9 6.3 7.7 C 7.3 8.4 6.6 7.5 6.1 6.6 C 6.0 6.0 6.1 5.6 8.3 6.9 C 9.7 8.0 11.3 6.1 11.1 7.3 C 11.1 7.4 11.9 7.7 11.9 7.6 M 10.6 7.4 C 10.6 7.0 11.8 8.0 10.6 7.4 M 10.7 7.0 C 10.8 7.0 10.8 7.0 10.7 7.0 C 10.7 7.0 10.7 7.0 10.7 7.0 Z M 6.2 8.6 C 6.3 8.6 6.3 8.6 6.2 8.6 C 6.2 8.6 6.2 8.6 6.2 8.6 Z M 1.5 8.9 C 1.6 8.9 1.6 8.9 1.5 8.9 C 1.5 8.9 1.5 8.9 1.5 8.9 Z M 6.1 12.5 C 6.2 12.4 6.2 12.4 6.1 12.5 C 6.1 12.5 6.1 12.5 6.1 12.5 Z M 6.3 6.4 C 6.3 6.4 6.3 6.4 6.3 6.4 C 6.3 6.4 6.3 6.4 6.3 6.4 Z M 6.8 12.7 C 6.1 12.4 7.4 11.9 6.9 12.9 C 6.9 12.9 6.9 12.7 6.8 12.7 M 7.1 18.2 C 7.0 18.1 7.0 18.1 7.1 18.2 M 1.6 25.4 C 1.5 25.4 1.5 25.4 1.6 25.4 M 7.2 30.6 C 7.1 30.6 7.1 30.6 7.2 30.6 M 6.4 22.7 C 6.5 24.4 6.0 22.9 6.4 22.7 M 6.8 34.5 C 7.2 32.8 7.2 36.9 6.8 34.5 M 7.2 36.7 C 7.1 36.8 7.1 36.8 7.2 36.7 M 6.9 27.5 C 6.9 27.4 6.9 27.4 6.9 27.5 C 6.9 27.5 6.9 27.5 6.9 27.5 Z M 6.7 22.3 C 7.1 20.6 7.3 25.0 6.7 22.3 M 6.9 9.9 C 7.3 11.4 6.0 9.0 6.9 9.9 M 6.5 7.2 C 6.5 7.1 6.5 7.1 6.5 7.2 C 6.5 7.2 6.5 7.2 6.5 7.2 Z M 6.8 31.3 C 6.8 31.2 6.8 31.2 6.8 31.3 C 6.8 31.3 6.8 31.3 6.8 31.3 Z M 6.9 33.7 C 6.9 33.6 6.9 33.6 6.9 33.7 C 6.9 33.7 6.9 33.7 6.9 33.7 Z M 1.7 34.1 C 1.7 34.0 1.7 34.0 1.7 34.1 C 1.7 34.1 1.7 34.1 1.7 34.1 Z M 4.4 6.8 C 4.7 5.6 6.1 10.1 4.8 8.5 C 4.3 8.2 4.5 7.1 4.4 6.8 M 5.1 19.5 C 3.3 18.4 7.5 20.0 5.1 19.5 M 6.0 36.2 C 3.9 36.4 7.5 35.2 6.0 36.2 M 6.4 39.6 C 6.0 40.3 6.1 33.6 6.7 38.7 C 7.1 39.4 6.6 39.4 6.4 39.6 M 6.3 17.5 C 5.3 17.1 6.7 15.4 6.3 17.5 M 3.3 24.9 C 3.9 26.1 4.5 28.6 3.4 26.9 C 2.0 25.8 2.8 23.5 3.3 24.9 M 9.2 6.4 C 9.5 8.0 8.0 5.1 9.2 6.4 M 5.8 9.2 C 5.9 9.2 5.9 9.2 5.8 9.2 C 5.8 9.2 5.8 9.2 5.8 9.2 Z M 6.1 11.8 C 5.9 11.8 5.9 11.8 6.1 11.8 M 9.6 7.8 C 9.3 7.7 9.3 7.7 9.6 7.8 M 4.9 26.1 C 4.8 26.1 4.8 26.1 4.9 26.1 M 6.0 22.0 C 4.4 23.0 5.7 20.4 6.0 22.0 M 3.0 13.5 C 2.3 13.6 2.9 12.0 3.0 13.5 M 6.6 26.3 C 5.1 26.8 5.2 22.9 6.6 26.3 M 6.1 20.9 C 6.1 21.0 6.1 21.0 6.1 20.9 C 6.1 20.9 6.1 20.9 6.1 20.9 Z M 3.1 25.4 C 3.1 25.3 3.1 25.3 3.1 25.4 C 3.1 25.4 3.1 25.4 3.1 25.4 Z M 3.2 26.2 C 3.2 26.1 3.2 26.1 3.2 26.2 C 3.2 26.2 3.2 26.2 3.2 26.2 Z M 6.7 28.4 C 6.7 28.3 6.7 28.3 6.7 28.4 C 6.7 28.4 6.7 28.4 6.7 28.4 Z M 2.5 3.0 C 2.4 3.9 2.3 3.2 2.3 2.8 C 2.3 2.5 2.4 2.3 2.5 2.9 C 2.5 3.0 2.5 3.0 2.5 3.0 C 2.5 3.0 2.5 3.0 2.5 3.0 Z M 6.8 14.6 C 5.6 16.3 5.7 11.7 6.8 14.6 C 6.8 14.6 6.8 14.6 6.8 14.6 Z M 4.9 16.0 C 4.8 16.0 4.8 16.0 4.9 16.0 C 4.9 16.0 4.9 16.0 4.9 16.0 Z M 7.5 25.9 C 7.4 25.9 7.4 25.9 7.5 25.9 C 7.5 25.9 7.5 25.9 7.5 25.9 Z M 2.3 3.6 C 2.2 3.6 2.2 3.6 2.3 3.6 C 2.3 3.6 2.3 3.6 2.3 3.6 Z M 6.0 32.6 C 5.9 32.5 5.9 32.5 6.0 32.6 C 6.0 32.6 6.0 32.6 6.0 32.6 Z M 2.9 20.5 C 3.5 21.6 2.5 20.3 2.9 20.5 C 2.9 20.5 2.9 20.5 2.9 20.5 Z M 2.9 23.1 C 2.9 23.2 2.9 23.2 2.9 23.1 C 2.9 23.1 2.9 23.1 2.9 23.1 Z M 7.3 37.4 C 7.3 37.4 7.3 37.4 7.3 37.4 C 7.3 37.4 7.3 37.4 7.3 37.4 Z M 1.5 28.7 C 1.5 28.7 1.5 28.7 1.5 28.7 C 1.5 28.7 1.5 28.7 1.5 28.7 Z M 3.2 32.0 C 3.2 32.0 3.2 32.0 3.2 32.0 C 3.2 32.0 3.2 32.0 3.2 32.0 Z M 6.4 27.7 C 6.7 30.4 5.7 26.6 6.4 27.7 C 6.4 27.7 6.4 27.7 6.4 27.7 Z M 3.7 38.7 C 3.6 38.7 3.6 38.7 3.7 38.7 C 3.7 38.7 3.7 38.7 3.7 38.7 Z M 5.7 41.2 C 5.6 41.2 5.6 41.2 5.7 41.2 C 5.7 41.2 5.7 41.2 5.7 41.2 Z M 6.8 42.5 C 6.7 42.5 6.7 42.5 6.8 42.5 C 6.8 42.5 6.8 42.5 6.8 42.5 Z M 3.9 9.7 C 4.0 9.7 4.0 9.7 3.9 9.7 C 3.9 9.7 3.9 9.7 3.9 9.7 Z M 7.2 11.8 C 7.2 11.8 7.2 11.8 7.2 11.8 C 7.2 11.8 7.2 11.8 7.2 11.8 Z M 7.3 15.3 C 7.4 15.3 7.4 15.3 7.3 15.3 C 7.3 15.3 7.3 15.3 7.3 15.3 Z M 1.9 7.2 C 1.9 7.2 1.9 7.2 1.9 7.2 C 1.9 7.2 1.9 7.2 1.9 7.2 Z M 4.7 22.7 C 4.8 22.7 4.8 22.7 4.7 22.7 C 4.7 22.7 4.7 22.7 4.7 22.7 Z M 3.4 22.8 C 3.4 22.8 3.4 22.8 3.4 22.8 C 3.4 22.8 3.4 22.8 3.4 22.8 Z M 1.6 18.4 C 1.6 18.4 1.6 18.4 1.6 18.4 C 1.6 18.4 1.6 18.4 1.6 18.4 Z M 2.2 22.9 C 2.3 22.9 2.3 22.9 2.2 22.9 C 2.2 22.9 2.2 22.9 2.2 22.9 Z M 6.5 3.0 C 6.5 3.0 6.5 3.0 6.5 3.0 C 6.5 3.0 6.5 3.0 6.5 3.0 Z M 9.2 5.5 C 9.2 5.4 9.2 5.4 9.2 5.5 C 9.2 5.5 9.2 5.5 9.2 5.5 Z M 6.5 24.5 C 7.1 25.5 5.8 25.1 6.5 24.5 M 6.2 19.5 C 6.2 19.4 6.2 19.4 6.2 19.5 C 6.2 19.5 6.2 19.5 6.2 19.5 Z M 6.4 32.5 C 5.4 32.4 6.9 30.6 6.4 32.5 C 6.4 32.5 6.4 32.5 6.4 32.5 Z M 2.2 26.9 C 2.2 26.9 2.2 26.9 2.2 26.9 C 2.2 26.9 2.2 26.9 2.2 26.9 Z M 2.7 28.5 C 2.6 28.5 2.6 28.5 2.7 28.5 C 2.7 28.5 2.7 28.5 2.7 28.5 Z M 5.4 37.4 C 5.3 37.5 5.3 37.5 5.4 37.4 M 7.1 19.6 C 6.7 19.9 6.7 19.9 7.1 19.6 M 6.4 34.1 C 6.4 34.0 6.4 34.0 6.4 34.1 C 6.4 34.1 6.4 34.1 6.4 34.1 Z M 5.9 39.3 C 5.9 39.3 5.9 39.3 5.9 39.3 C 5.9 39.3 5.9 39.3 5.9 39.3 Z M 6.4 15.6 C 5.2 14.7 5.5 14.3 6.4 15.6 M 6.8 6.5 C 6.7 6.4 6.7 6.4 6.8 6.5 C 6.8 6.5 6.8 6.5 6.8 6.5 Z M 6.8 47.5 C 8.1 45.6 6.3 44.5 6.2 44.5 C 8.7 46.3 5.2 41.6 4.7 41.8 C 4.3 41.5 -0.1 41.0 2.6 44.5 C 2.9 45.2 2.1 45.1 2.1 45.4 C 2.2 48.8 3.5 43.9 3.5 47.9 C 3.1 48.4 1.0 46.5 2.5 49.6 C 2.2 49.6 1.5 52.0 2.4 51.4 C 1.4 52.2 2.6 53.6 2.9 54.9 C 2.3 55.8 1.3 53.3 2.5 57.8 C 0.7 58.7 3.8 60.5 1.9 61.3 C 1.8 62.3 5.0 64.9 3.2 62.0 C 3.4 62.4 4.9 61.5 4.4 64.3 C 4.0 63.8 0.7 60.9 2.3 66.4 C 2.2 67.1 3.0 69.2 2.7 69.5 C 2.3 66.9 1.3 72.6 2.2 72.2 C 1.6 76.0 3.0 74.1 1.9 76.6 C 1.9 78.9 3.4 76.2 2.5 78.8 C 2.7 81.0 1.9 79.4 2.0 79.2 C 1.8 81.0 2.4 81.8 2.3 82.5 C 2.2 82.9 1.5 83.6 2.3 84.2 C 3.8 86.3 5.2 84.7 6.7 85.7 C 7.4 84.4 5.6 84.9 6.7 84.1 C 5.8 83.3 6.8 84.0 6.6 80.3 C 6.3 80.3 5.7 81.1 5.6 80.2 C 5.7 78.7 8.2 80.2 6.5 77.5 C 5.9 80.3 5.7 73.3 5.1 75.9 C 4.8 72.5 5.3 75.0 5.9 72.7 C 4.3 72.4 7.7 73.0 6.4 71.7 C 7.1 71.7 6.8 67.9 5.8 70.3 C 5.3 66.2 6.3 69.0 7.1 67.8 C 7.2 66.1 4.4 66.9 6.5 66.4 C 7.4 64.4 5.5 65.9 7.1 64.8 C 5.6 65.1 7.1 63.1 5.5 63.2 C 5.4 59.1 7.2 64.2 6.1 61.0 C 6.0 61.9 8.1 62.3 6.8 60.1 C 4.3 59.9 9.0 58.8 5.7 58.7 C 4.8 52.6 7.0 58.3 7.1 55.2 C 7.0 54.5 6.0 55.6 6.0 54.9 C 6.4 51.1 7.3 54.8 5.7 52.0 C 5.3 47.8 7.0 51.5 7.2 49.7 C 6.4 49.2 5.1 46.9 6.8 47.5 M 6.0 50.5 C 6.5 51.6 5.5 50.8 6.0 50.5 M 6.8 43.1 C 7.3 44.2 6.3 43.3 6.8 43.1 M 6.5 54.0 C 7.0 55.3 5.6 53.9 6.5 54.0 M 5.7 74.8 C 5.7 73.4 6.1 75.6 5.7 74.8 M 6.9 46.3 C 7.5 47.7 6.0 46.1 6.9 46.3 M 5.6 44.1 C 5.6 44.2 5.6 44.2 5.6 44.1 M 7.0 77.2 C 7.0 77.3 7.0 77.3 7.0 77.2 M 7.0 71.6 C 7.0 72.8 6.7 70.9 7.0 71.6 M 1.7 69.9 C 1.6 71.2 1.3 69.1 1.7 69.9 M 7.1 80.3 C 7.5 81.5 6.5 80.5 7.1 80.3 M 5.9 83.2 C 6.4 84.4 5.4 83.9 5.9 83.2 M 4.1 48.9 C 4.1 48.8 4.1 48.8 4.1 48.9 C 4.1 48.9 4.1 48.9 4.1 48.9 Z M 2.8 58.9 C 3.3 57.9 2.1 60.3 2.8 58.9 M 6.3 58.4 C 5.2 58.8 6.4 56.8 6.3 58.4 C 6.3 58.4 6.3 58.4 6.3 58.4 Z M 5.8 56.4 C 5.8 56.3 5.8 56.3 5.8 56.4 C 5.8 56.4 5.8 56.4 5.8 56.4 Z M 5.8 62.2 C 5.8 62.2 5.8 62.2 5.8 62.2 C 5.8 62.2 5.8 62.2 5.8 62.2 Z M 5.7 61.0 C 5.4 60.4 5.9 60.4 5.7 61.0 C 5.7 61.0 5.7 61.0 5.7 61.0 Z M 2.2 68.6 C 2.0 68.0 2.4 67.9 2.2 68.6 C 2.2 68.6 2.2 68.6 2.2 68.6 Z M 5.3 59.0 C 4.2 58.4 6.0 58.4 5.3 59.0 C 5.3 59.0 5.3 59.0 5.3 59.0 Z M 2.7 64.5 C 3.0 65.1 1.7 65.3 2.7 64.5 M 6.8 78.3 C 7.1 78.9 5.8 79.2 6.8 78.3 M 7.1 66.1 C 7.4 66.8 6.1 66.9 7.1 66.1 M 6.5 51.4 C 6.4 51.5 6.4 51.5 6.5 51.4 M 1.8 56.3 C 2.2 57.3 1.3 56.5 1.8 56.3 M 2.1 44.3 C 2.5 45.3 1.6 44.4 2.1 44.3 M 1.8 75.5 C 2.1 75.6 1.6 76.8 1.8 75.5 M 5.4 67.0 C 5.3 68.1 4.7 69.0 4.7 66.8 C 5.0 66.7 5.1 67.4 5.4 67.0 C 5.4 67.0 5.4 67.0 5.4 67.0 Z M 2.9 70.3 C 2.8 70.4 2.8 70.4 2.9 70.3 M 6.4 69.3 C 6.3 69.4 6.3 69.4 6.4 69.3 M 6.3 75.6 C 6.1 75.7 6.1 75.7 6.3 75.6 M 6.6 76.4 C 6.6 76.4 6.6 76.4 6.6 76.4 C 6.6 76.4 6.6 76.4 6.6 76.4 Z M 7.1 83.4 C 7.0 83.4 7.0 83.4 7.1 83.4 C 7.1 83.4 7.1 83.4 7.1 83.4 Z M 6.2 73.5 C 6.1 73.5 6.1 73.5 6.2 73.5 C 6.2 73.5 6.2 73.5 6.2 73.5 Z M 2.0 78.5 C 1.9 78.5 1.9 78.5 2.0 78.5 C 2.0 78.5 2.0 78.5 2.0 78.5 Z M 2.6 77.9 C 2.6 77.9 2.6 77.9 2.6 77.9 C 2.6 77.9 2.6 77.9 2.6 77.9 Z M 6.8 48.0 C 7.6 49.4 4.9 47.5 6.8 48.0 M 2.6 81.1 C 1.9 81.9 2.5 79.4 2.6 81.1 C 2.6 81.1 2.6 81.1 2.6 81.1 Z M 5.2 72.5 C 5.1 72.6 5.1 72.6 5.2 72.5 M 6.5 76.8 C 6.4 76.9 6.4 76.9 6.5 76.8 M 7.3 58.8 C 7.2 58.8 7.2 58.8 7.3 58.8 M 6.3 81.6 C 6.0 84.6 4.7 80.1 6.3 81.6 M 6.3 57.0 C 6.4 57.0 6.4 57.0 6.3 57.0 M 4.3 62.9 C 4.3 65.0 3.6 62.0 4.3 62.9 M 5.6 68.5 C 5.6 68.4 5.6 68.4 5.6 68.5 C 5.6 68.5 5.6 68.5 5.6 68.5 Z M 5.6 65.5 C 5.5 64.0 5.9 65.3 5.6 65.5 C 5.6 65.5 5.6 65.5 5.6 65.5 Z M 5.8 48.9 C 5.6 50.7 5.4 46.7 5.8 48.9 C 5.8 48.9 5.8 48.9 5.8 48.9 Z M 3.8 79.9 C 3.7 79.8 3.7 79.8 3.8 79.9 C 3.8 79.9 3.8 79.9 3.8 79.9 Z M 6.9 73.4 C 6.6 72.4 7.2 73.0 6.9 73.4 C 6.9 73.4 6.9 73.4 6.9 73.4 Z M 7.0 84.4 C 6.8 83.5 7.4 84.1 7.0 84.4 C 7.0 84.4 7.0 84.4 7.0 84.4 Z M 6.0 46.7 C 4.2 52.7 6.4 37.8 6.0 46.7 C 6.0 46.7 6.0 46.7 6.0 46.7 Z M 6.4 66.9 C 6.3 66.9 6.3 66.9 6.4 66.9 C 6.4 66.9 6.4 66.9 6.4 66.9 Z M 7.1 54.7 C 7.1 54.6 7.1 54.6 7.1 54.7 C 7.1 54.7 7.1 54.7 7.1 54.7 Z M 6.1 52.0 C 6.1 52.0 6.1 52.0 6.1 52.0 C 6.1 52.0 6.1 52.0 6.1 52.0 Z M 1.9 50.6 C 1.8 50.5 1.8 50.5 1.9 50.6 C 1.9 50.6 1.9 50.6 1.9 50.6 Z M 3.8 52.3 C 3.7 52.1 3.7 52.1 3.8 52.3 C 3.8 52.3 3.8 52.3 3.8 52.3 Z M 3.1 47.4 C 3.0 47.3 3.0 47.3 3.1 47.4 C 3.1 47.4 3.1 47.4 3.1 47.4 Z M 2.5 47.2 C 2.5 47.1 2.5 47.1 2.5 47.2 C 2.5 47.2 2.5 47.2 2.5 47.2 Z M 5.3 76.6 C 5.2 76.5 5.2 76.5 5.3 76.6 C 5.3 76.6 5.3 76.6 5.3 76.6 Z M 3.5 73.8 C 4.2 75.5 2.6 73.0 3.5 73.8 C 3.5 73.8 3.5 73.8 3.5 73.8 Z M 4.4 59.5 C 4.6 61.1 3.8 58.3 4.4 59.5 C 4.4 59.5 4.4 59.5 4.4 59.5 Z M 2.1 60.3 C 2.1 60.3 2.1 60.3 2.1 60.3 C 2.1 60.3 2.1 60.3 2.1 60.3 Z M 7.2 52.6 C 7.0 52.5 7.0 52.5 7.2 52.6 C 7.2 52.6 7.2 52.6 7.2 52.6 Z M 6.4 49.5 C 5.5 48.9 6.9 48.9 6.4 49.5 M 6.9 63.2 C 6.8 63.2 6.8 63.2 6.9 63.2 C 6.9 63.2 6.9 63.2 6.9 63.2 Z M 5.5 71.4 C 5.5 71.3 5.5 71.3 5.5 71.4 C 5.5 71.4 5.5 71.4 5.5 71.4 Z M 6.1 80.1 C 6.0 80.0 6.0 80.0 6.1 80.1 C 6.1 80.1 6.1 80.1 6.1 80.1 Z M 6.8 68.5 C 6.7 68.4 6.7 68.4 6.8 68.5 C 6.8 68.5 6.8 68.5 6.8 68.5 Z M 6.0 64.2 C 5.9 64.1 5.9 64.1 6.0 64.2 C 6.0 64.2 6.0 64.2 6.0 64.2 Z M 4.8 81.8 C 4.8 81.7 4.8 81.7 4.8 81.8 C 4.8 81.8 4.8 81.8 4.8 81.8 Z M 7.0 69.5 C 6.9 69.4 6.9 69.4 7.0 69.5 C 7.0 69.5 7.0 69.5 7.0 69.5 Z M 4.1 71.2 C 4.0 71.1 4.0 71.1 4.1 71.2 C 4.1 71.2 4.1 71.2 4.1 71.2 Z M 7.7 50.6 C 7.7 50.5 7.7 50.5 7.7 50.6 C 7.7 50.6 7.7 50.6 7.7 50.6 Z M 6.0 82.0 C 6.0 82.0 6.0 82.0 6.0 82.0 C 6.0 82.0 6.0 82.0 6.0 82.0 Z M 6.8 82.7 C 6.8 82.6 6.8 82.6 6.8 82.7 C 6.8 82.7 6.8 82.7 6.8 82.7 Z M 2.6 75.8 C 3.1 72.8 2.8 78.6 3.7 76.5 C 4.0 81.0 2.5 76.4 2.6 75.8 C 2.6 75.8 2.6 75.8 2.6 75.8 Z M 2.6 75.8 " fill="#000000"></path></g></svg>