<?xml version="1.0" encoding="UTF-8" standalone="no"?><svg xmlns="http://www.w3.org/2000/svg" xmlns:xlink="http://www.w3.org/1999/xlink" clip-rule="evenodd" stroke-miterlimit="4.00" viewBox="0 0 1024 768"><desc>SVG generated by Keynote</desc><defs></defs><g transform="matrix(1.00, 0.00, -0.00, -1.00, 0.0, 768.0)"><g><clipPath id="clip-33"><path d="M 0.0 768.0 L 1024.0 768.0 L 1024.0 0.0 L 0.0 0.0 Z M 0.0 768.0 "></path></clipPath><g clip-path="url(#clip-33)"><image xlink:href="../../BE108FEC-AE24-47A3-996A-49D14F0D22C7/assets/DE78B55DDE70D88C6FF874E8D33A46A3.jpeg" width="1024.00" height="768.00" transform="matrix(1.00, 0.00, -0.00, -1.00, 0.0, 768.0)"></image></g></g><image xlink:href="../../0F278FEC-AE24-47A3-996A-49D14F0D22C7/assets/B4F1838E57A04A3F02DBEFDABE15FEF7.png" width="259.00" height="194.00" transform="matrix(3.96, 0.00, -0.00, -3.96, 0.0, 768.0)"></image><text xml:space="preserve" font-family="Chalkduster" font-size="70.0" fill="#FEFB00" transform="matrix(1.00, 0.00, -0.00, -1.00, 17.0, 679.0)">W</text><text xml:space="preserve" font-family="Chalkduster" font-size="70.0" fill="#FEFB00" transform="matrix(1.00, 0.00, -0.00, -1.00, 82.6, 679.0)">h</text><text xml:space="preserve" font-family="Chalkduster" font-size="70.0" fill="#FEFB00" transform="matrix(1.00, 0.00, -0.00, -1.00, 125.8, 679.0)">a</text><text xml:space="preserve" font-family="Chalkduster" font-size="70.0" fill="#FEFB00" transform="matrix(1.00, 0.00, -0.00, -1.00, 169.2, 679.0)">t</text><text xml:space="preserve" font-family="Chalkduster" font-size="70.0" fill="#FEFB00" transform="matrix(1.00, 0.00, -0.00, -1.00, 201.2, 679.0)"> </text><text xml:space="preserve" font-family="Chalkduster" font-size="70.0" fill="#FEFB00" transform="matrix(1.00, 0.00, -0.00, -1.00, 236.0, 679.0)">i</text><text xml:space="preserve" font-family="Chalkduster" font-size="70.0" fill="#FEFB00" transform="matrix(1.00, 0.00, -0.00, -1.00, 263.7, 679.0)">s</text><text xml:space="preserve" font-family="Chalkduster" font-size="70.0" fill="#FEFB00" transform="matrix(1.00, 0.00, -0.00, -1.00, 299.0, 679.0)"> </text><text xml:space="preserve" font-family="Chalkduster" font-size="70.0" fill="#FEFB00" transform="matrix(1.00, 0.00, -0.00, -1.00, 333.9, 679.0)">t</text><text xml:space="preserve" font-family="Chalkduster" font-size="70.0" fill="#FEFB00" transform="matrix(1.00, 0.00, -0.00, -1.00, 367.3, 679.0)">h</text><text xml:space="preserve" font-family="Chalkduster" font-size="70.0" fill="#FEFB00" transform="matrix(1.00, 0.00, -0.00, -1.00, 410.5, 679.0)">e</text><text xml:space="preserve" font-family="Chalkduster" font-size="70.0" fill="#FEFB00" transform="matrix(1.00, 0.00, -0.00, -1.00, 453.9, 679.0)"> </text><text xml:space="preserve" font-family="Chalkduster" font-size="70.0" fill="#FEFB00" transform="matrix(1.00, 0.00, -0.00, -1.00, 488.7, 679.0)"> </text><text xml:space="preserve" font-family="Chalkduster" font-size="70.0" fill="#FEFB00" transform="matrix(1.00, 0.00, -0.00, -1.00, 44.0, 589.0)">Q</text><text xml:space="preserve" font-family="Chalkduster" font-size="70.0" fill="#FEFB00" transform="matrix(1.00, 0.00, -0.00, -1.00, 98.1, 589.0)">u</text><text xml:space="preserve" font-family="Chalkduster" font-size="70.0" fill="#FEFB00" transform="matrix(1.00, 0.00, -0.00, -1.00, 146.2, 589.0)">e</text><text xml:space="preserve" font-family="Chalkduster" font-size="70.0" fill="#FEFB00" transform="matrix(1.00, 0.00, -0.00, -1.00, 191.3, 589.0)">s</text><text xml:space="preserve" font-family="Chalkduster" font-size="70.0" fill="#FEFB00" transform="matrix(1.00, 0.00, -0.00, -1.00, 228.7, 589.0)">t</text><text xml:space="preserve" font-family="Chalkduster" font-size="70.0" fill="#FEFB00" transform="matrix(1.00, 0.00, -0.00, -1.00, 261.1, 589.0)">i</text><text xml:space="preserve" font-family="Chalkduster" font-size="70.0" fill="#FEFB00" transform="matrix(1.00, 0.00, -0.00, -1.00, 288.7, 589.0)">o</text><text xml:space="preserve" font-family="Chalkduster" font-size="70.0" fill="#FEFB00" transform="matrix(1.00, 0.00, -0.00, -1.00, 340.8, 589.0)">n</text><text xml:space="preserve" font-family="Chalkduster" font-size="70.0" fill="#FEFB00" transform="matrix(1.00, 0.00, -0.00, -1.00, 392.1, 589.0)">?</text></g></svg>