<?xml version="1.0" encoding="UTF-8" standalone="no"?><svg xmlns="http://www.w3.org/2000/svg" xmlns:xlink="http://www.w3.org/1999/xlink" clip-rule="evenodd" stroke-miterlimit="4.00" viewBox="0 0 386 63"><desc>SVG generated by Keynote</desc><defs></defs><g transform="matrix(1.00, 0.00, -0.00, -1.00, 0.0, 63.0)"><text xml:space="preserve" font-family="Chalkduster" font-size="42.0" fill="#FEFFFE" transform="matrix(1.00, 0.00, -0.00, -1.00, 0.0, 25.0)">I</text><text xml:space="preserve" font-family="Chalkduster" font-size="42.0" fill="#FEFFFE" transform="matrix(1.00, 0.00, -0.00, -1.00, 25.0, 25.0)">t</text><text xml:space="preserve" font-family="Chalkduster" font-size="42.0" fill="#FEFFFE" transform="matrix(1.00, 0.00, -0.00, -1.00, 44.2, 25.0)">’</text><text xml:space="preserve" font-family="Chalkduster" font-size="42.0" fill="#FEFFFE" transform="matrix(1.00, 0.00, -0.00, -1.00, 49.4, 25.0)">s</text><text xml:space="preserve" font-family="Chalkduster" font-size="42.0" fill="#FEFFFE" transform="matrix(1.00, 0.00, -0.00, -1.00, 70.7, 25.0)"> </text><text xml:space="preserve" font-family="Chalkduster" font-size="42.0" fill="#FEFFFE" transform="matrix(1.00, 0.00, -0.00, -1.00, 91.5, 25.0)">o</text><text xml:space="preserve" font-family="Chalkduster" font-size="42.0" fill="#FEFFFE" transform="matrix(1.00, 0.00, -0.00, -1.00, 120.9, 25.0)">k</text><text xml:space="preserve" font-family="Chalkduster" font-size="42.0" fill="#FEFFFE" transform="matrix(1.00, 0.00, -0.00, -1.00, 151.7, 25.0)">a</text><text xml:space="preserve" font-family="Chalkduster" font-size="42.0" fill="#FEFFFE" transform="matrix(1.00, 0.00, -0.00, -1.00, 180.7, 25.0)">y</text><text xml:space="preserve" font-family="Chalkduster" font-size="42.0" fill="#FEFFFE" transform="matrix(1.00, 0.00, -0.00, -1.00, 206.2, 25.0)"> </text><text xml:space="preserve" font-family="Chalkduster" font-size="42.0" fill="#FEFFFE" transform="matrix(1.00, 0.00, -0.00, -1.00, 227.1, 25.0)">t</text><text xml:space="preserve" font-family="Chalkduster" font-size="42.0" fill="#FEFFFE" transform="matrix(1.00, 0.00, -0.00, -1.00, 244.5, 25.0)">o</text><text xml:space="preserve" font-family="Chalkduster" font-size="42.0" fill="#FEFFFE" transform="matrix(1.00, 0.00, -0.00, -1.00, 274.6, 25.0)"> </text><text xml:space="preserve" font-family="Chalkduster" font-size="42.0" fill="#FEFFFE" transform="matrix(1.00, 0.00, -0.00, -1.00, 295.5, 25.0)">s</text><text xml:space="preserve" font-family="Chalkduster" font-size="42.0" fill="#FEFFFE" transform="matrix(1.00, 0.00, -0.00, -1.00, 316.7, 25.0)">a</text><text xml:space="preserve" font-family="Chalkduster" font-size="42.0" fill="#FEFFFE" transform="matrix(1.00, 0.00, -0.00, -1.00, 345.7, 25.0)">y</text><text xml:space="preserve" font-family="Chalkduster" font-size="42.0" fill="#FEFFFE" transform="matrix(1.00, 0.00, -0.00, -1.00, 371.0, 25.0)">:</text></g></svg>