<?xml version="1.0" encoding="UTF-8" standalone="no"?><svg xmlns="http://www.w3.org/2000/svg" xmlns:xlink="http://www.w3.org/1999/xlink" clip-rule="evenodd" stroke-miterlimit="4.00" viewBox="0 0 466 49"><desc>SVG generated by Keynote</desc><defs></defs><g transform="matrix(1.00, 0.00, -0.00, -1.00, 0.0, 49.0)"><image xlink:href="../../8E2A8FEC-AE24-47A3-996A-49D14F0D22C7/assets/5E8A9094233459046C615C2441871794.png" width="30.00" height="27.00" transform="matrix(0.98, 0.00, -0.00, -1.01, 0.0, 34.8)"></image><text xml:space="preserve" font-family="Chalkduster" font-size="50.0" fill="#FEFFFE" transform="matrix(1.00, 0.00, -0.00, -1.00, 45.0, 7.0)">M</text><text xml:space="preserve" font-family="Chalkduster" font-size="50.0" fill="#FEFFFE" transform="matrix(1.00, 0.00, -0.00, -1.00, 87.0, 7.0)">a</text><text xml:space="preserve" font-family="Chalkduster" font-size="50.0" fill="#FEFFFE" transform="matrix(1.00, 0.00, -0.00, -1.00, 118.1, 7.0)">t</text><text xml:space="preserve" font-family="Chalkduster" font-size="50.0" fill="#FEFFFE" transform="matrix(1.00, 0.00, -0.00, -1.00, 141.9, 7.0)">h</text><text xml:space="preserve" font-family="Chalkduster" font-size="50.0" fill="#FEFFFE" transform="matrix(1.00, 0.00, -0.00, -1.00, 172.8, 7.0)">e</text><text xml:space="preserve" font-family="Chalkduster" font-size="50.0" fill="#FEFFFE" transform="matrix(1.00, 0.00, -0.00, -1.00, 203.8, 7.0)">m</text><text xml:space="preserve" font-family="Chalkduster" font-size="50.0" fill="#FEFFFE" transform="matrix(1.00, 0.00, -0.00, -1.00, 254.4, 7.0)">a</text><text xml:space="preserve" font-family="Chalkduster" font-size="50.0" fill="#FEFFFE" transform="matrix(1.00, 0.00, -0.00, -1.00, 285.4, 7.0)">t</text><text xml:space="preserve" font-family="Chalkduster" font-size="50.0" fill="#FEFFFE" transform="matrix(1.00, 0.00, -0.00, -1.00, 308.6, 7.0)">i</text><text xml:space="preserve" font-family="Chalkduster" font-size="50.0" fill="#FEFFFE" transform="matrix(1.00, 0.00, -0.00, -1.00, 328.8, 7.0)">c</text><text xml:space="preserve" font-family="Chalkduster" font-size="50.0" fill="#FEFFFE" transform="matrix(1.00, 0.00, -0.00, -1.00, 360.2, 7.0)">s</text><text xml:space="preserve" font-family="Chalkduster" font-size="50.0" fill="#FEFFFE" transform="matrix(1.00, 0.00, -0.00, -1.00, 385.5, 7.0)"> </text><text xml:space="preserve" font-family="Chalkduster" font-size="50.0" fill="#FEFFFE" transform="matrix(1.00, 0.00, -0.00, -1.00, 410.3, 7.0)">-</text><text xml:space="preserve" font-family="Chalkduster" font-size="50.0" fill="#FEFFFE" transform="matrix(1.00, 0.00, -0.00, -1.00, 440.6, 7.0)">&gt;</text><text xml:space="preserve" font-family="Chalkduster" font-size="50.0" fill="#FEFFFE" transform="matrix(1.00, 0.00, -0.00, -1.00, 464.9, 7.0)"> </text></g></svg>