<?xml version="1.0" encoding="UTF-8" standalone="no"?><svg xmlns="http://www.w3.org/2000/svg" xmlns:xlink="http://www.w3.org/1999/xlink" clip-rule="evenodd" stroke-miterlimit="4.00" viewBox="0 0 483 70"><desc>SVG generated by Keynote</desc><defs></defs><g transform="matrix(1.00, 0.00, -0.00, -1.00, 0.0, 70.0)"><image xlink:href="5E8A9094233459046C615C2441871794.png" width="30.00" height="27.00" transform="matrix(0.98, 0.00, -0.00, -1.01, 0.0, 56.8)"></image><text xml:space="preserve" font-family="Chalkduster" font-size="50.0" fill="#FEFFFE" transform="matrix(1.00, 0.00, -0.00, -1.00, 45.0, 29.0)">S</text><text xml:space="preserve" font-family="Chalkduster" font-size="50.0" fill="#FEFFFE" transform="matrix(1.00, 0.00, -0.00, -1.00, 69.9, 29.0)">c</text><text xml:space="preserve" font-family="Chalkduster" font-size="50.0" fill="#FEFFFE" transform="matrix(1.00, 0.00, -0.00, -1.00, 101.3, 29.0)">i</text><text xml:space="preserve" font-family="Chalkduster" font-size="50.0" fill="#FEFFFE" transform="matrix(1.00, 0.00, -0.00, -1.00, 121.0, 29.0)">e</text><text xml:space="preserve" font-family="Chalkduster" font-size="50.0" fill="#FEFFFE" transform="matrix(1.00, 0.00, -0.00, -1.00, 152.6, 29.0)">n</text><text xml:space="preserve" font-family="Chalkduster" font-size="50.0" fill="#FEFFFE" transform="matrix(1.00, 0.00, -0.00, -1.00, 189.2, 29.0)">c</text><text xml:space="preserve" font-family="Chalkduster" font-size="50.0" fill="#FEFFFE" transform="matrix(1.00, 0.00, -0.00, -1.00, 219.4, 29.0)">e</text><text xml:space="preserve" font-family="Chalkduster" font-size="50.0" fill="#FEFFFE" transform="matrix(1.00, 0.00, -0.00, -1.00, 250.5, 29.0)"> </text><text xml:space="preserve" font-family="Chalkduster" font-size="50.0" fill="#FEFFFE" transform="matrix(1.00, 0.00, -0.00, -1.00, 275.3, 29.0)">-</text><text xml:space="preserve" font-family="Chalkduster" font-size="50.0" fill="#FEFFFE" transform="matrix(1.00, 0.00, -0.00, -1.00, 305.6, 29.0)">&gt;</text><text xml:space="preserve" font-family="Chalkduster" font-size="50.0" fill="#FEFFFE" transform="matrix(1.00, 0.00, -0.00, -1.00, 329.9, 29.0)"> </text><text xml:space="preserve" font-family="Chalkduster" font-size="50.0" fill="#FEFFFE" transform="matrix(1.00, 0.00, -0.00, -1.00, 350.8, 29.0)">W</text><text xml:space="preserve" font-family="Chalkduster" font-size="50.0" fill="#FEFFFE" transform="matrix(1.00, 0.00, -0.00, -1.00, 397.7, 29.0)">h</text><text xml:space="preserve" font-family="Chalkduster" font-size="50.0" fill="#FEFFFE" transform="matrix(1.00, 0.00, -0.00, -1.00, 427.5, 29.0)">y</text><text xml:space="preserve" font-family="Chalkduster" font-size="50.0" fill="#FEFFFE" transform="matrix(1.00, 0.00, -0.00, -1.00, 458.3, 29.0)">?</text></g></svg>