<?xml version="1.0" encoding="UTF-8" standalone="no"?><svg xmlns="http://www.w3.org/2000/svg" xmlns:xlink="http://www.w3.org/1999/xlink" clip-rule="evenodd" stroke-miterlimit="4.00" viewBox="0 0 283 725"><desc>SVG generated by Keynote</desc><defs></defs><g transform="matrix(1.00, 0.00, -0.00, -1.00, 0.0, 725.0)"><g><clipPath id="clip-76"><path d="M 2.0 724.0 L 278.5 724.0 L 278.5 1.0 L 2.0 1.0 Z M 2.0 724.0 "></path></clipPath><g clip-path="url(#clip-76)"><g><clipPath id="clip-77"><path d="M 2.0 1.0 L 281.0 1.0 L 281.0 724.0 L 2.0 724.0 Z M 2.0 1.0 "></path></clipPath><g clip-path="url(#clip-77)"><g><g><clipPath id="clip-78"><path d="M 2.0 724.0 L 281.0 724.0 L 281.0 1.0 L 2.0 1.0 Z M 2.0 724.0 "></path></clipPath><g clip-path="url(#clip-78)"><g><clipPath id="clip-79"><path d="M 2.0 1.0 L 279.0 1.0 L 279.0 724.0 L 2.0 724.0 Z M 2.0 1.0 "></path></clipPath><g clip-path="url(#clip-79)"><image xlink:href="8B90573F54FBB84A54D6371104A4B2F5.png" width="454.00" height="1175.00" transform="matrix(0.61, 0.00, -0.00, -0.62, 2.0, 724.0)"></image></g></g></g></g></g></g></g></g></g><g><clipPath id="clip-80"><path d="M 2.0 715.4 L 278.5 715.4 L 278.5 9.0 L 2.0 9.0 Z M 2.0 715.4 "></path></clipPath><g clip-path="url(#clip-80)"><g><clipPath id="clip-81"><path d="M 2.0 1.0 L 281.0 1.0 L 281.0 724.0 L 2.0 724.0 Z M 2.0 1.0 "></path></clipPath><g clip-path="url(#clip-81)"><g><g><clipPath id="clip-82"><path d="M 2.0 715.4 L 281.0 715.4 L 281.0 9.0 L 2.0 9.0 Z M 2.0 715.4 "></path></clipPath><g clip-path="url(#clip-82)"><g><clipPath id="clip-83"><path d="M 2.0 9.0 L 279.0 9.0 L 279.0 716.0 L 2.0 716.0 Z M 2.0 9.0 "></path></clipPath><g clip-path="url(#clip-83)"><image xlink:href="4802988ABED3E2A65BD8AA9F40DB3EB6.png" width="454.00" height="1148.00" transform="matrix(0.61, 0.00, -0.00, -0.62, 2.0, 715.4)"></image></g></g></g></g></g></g></g></g></g></g></svg>