<?xml version="1.0" encoding="UTF-8" standalone="no"?><svg xmlns="http://www.w3.org/2000/svg" xmlns:xlink="http://www.w3.org/1999/xlink" clip-rule="evenodd" stroke-miterlimit="4.00" viewBox="0 0 198 100"><desc>SVG generated by Keynote</desc><defs></defs><g transform="matrix(1.00, 0.00, -0.00, -1.00, 0.0, 100.0)"><path d="M 14.6 93.6 C 14.3 93.8 13.6 93.5 13.4 93.7 M 14.6 93.6 C 13.8 92.5 12.5 92.4 10.8 92.2 C 8.9 92.2 10.9 93.3 10.7 93.7 C 8.2 94.1 8.2 93.3 8.5 92.2 C 7.6 93.0 4.8 91.5 5.4 93.0 C 9.4 93.0 2.6 93.4 5.9 94.2 C 6.3 94.5 5.3 94.9 5.0 94.9 C 6.1 95.5 4.2 96.2 6.0 96.6 C 6.2 97.6 5.9 97.2 7.1 97.9 C 7.6 98.0 7.3 97.7 7.3 97.5 C 7.4 96.4 8.7 98.1 9.6 97.4 C 10.5 98.8 11.4 97.1 10.6 96.5 C 11.4 96.7 12.5 98.2 13.3 97.2 C 13.9 97.9 16.2 97.4 14.7 96.5 C 13.7 95.9 14.8 95.5 14.9 95.2 C 14.6 94.9 13.2 95.3 13.0 95.0 C 13.4 94.8 15.1 94.3 13.2 94.3 C 13.8 93.8 12.9 93.5 14.6 93.6 C 14.6 93.6 14.6 93.6 14.6 93.6 Z M 7.9 92.8 C 7.8 92.4 8.5 92.8 7.9 92.8 C 7.9 92.8 7.9 92.8 7.9 92.8 Z M 12.6 97.9 C 12.6 97.5 13.3 97.9 12.6 97.9 C 12.6 97.9 12.6 97.9 12.6 97.9 Z M 7.6 97.5 C 7.6 97.1 8.3 97.5 7.6 97.5 C 7.6 97.5 7.6 97.5 7.6 97.5 Z M 9.6 93.0 C 10.7 93.4 8.7 93.6 8.6 93.2 C 8.8 93.3 9.3 92.7 9.6 93.0 C 9.6 93.0 9.6 93.0 9.6 93.0 Z M 9.8 95.2 C 9.9 95.1 10.3 95.1 10.3 95.4 C 10.0 95.5 9.7 95.4 9.8 95.2 C 9.8 95.2 9.8 95.2 9.8 95.2 Z M 4.5 93.7 C 4.6 93.5 5.0 93.5 5.0 93.9 C 4.7 94.0 4.4 93.8 4.5 93.7 C 4.5 93.7 4.5 93.7 4.5 93.7 Z M 10.9 94.0 C 11.1 94.1 11.2 94.5 10.9 94.5 C 10.8 94.3 10.0 94.3 10.9 94.0 C 10.9 94.0 10.9 94.0 10.9 94.0 Z M 12.5 92.8 C 13.3 93.0 11.6 93.5 11.6 93.4 C 11.3 93.1 12.0 92.5 12.5 92.8 C 12.5 92.8 12.5 92.8 12.5 92.8 Z M 11.4 94.6 C 12.1 94.8 11.1 94.8 11.4 94.6 C 11.4 94.6 11.4 94.6 11.4 94.6 Z M 5.3 96.5 C 6.0 96.7 4.9 96.8 5.3 96.5 C 5.3 96.5 5.3 96.5 5.3 96.5 Z M 9.2 97.7 C 10.0 97.9 8.9 98.0 9.2 97.7 C 9.2 97.7 9.2 97.7 9.2 97.7 Z M 7.7 93.8 C 6.4 93.8 7.5 92.8 7.7 93.8 C 7.7 93.8 7.7 93.8 7.7 93.8 Z M 14.5 92.7 C 13.2 92.7 14.3 91.7 14.5 92.7 C 14.5 92.7 14.5 92.7 14.5 92.7 Z M 6.3 93.4 C 6.5 94.6 7.8 90.2 6.3 91.8 C 5.0 92.2 5.2 89.1 6.3 90.0 C 6.4 89.1 6.5 89.1 5.9 88.6 C 6.8 88.5 7.3 86.4 6.8 85.6 C 6.0 85.1 6.7 87.0 5.9 85.7 C 5.7 83.0 5.0 85.8 4.0 84.7 C 4.0 84.6 4.5 84.6 4.2 84.3 C 3.3 84.1 2.6 85.6 1.9 84.8 C 2.1 85.2 1.0 87.2 1.9 86.4 C 2.7 86.2 0.8 88.5 2.2 88.4 C 1.6 89.1 2.5 89.8 1.7 90.4 C 1.5 90.9 2.3 90.9 2.5 90.9 C 3.2 90.8 0.9 91.4 2.1 92.2 C 1.8 92.3 1.9 94.5 2.5 92.9 C 2.4 93.3 2.0 95.9 3.4 94.6 C 4.0 92.8 4.7 96.4 4.8 94.3 C 4.9 92.8 4.7 92.4 5.4 93.6 C 5.3 94.0 5.4 95.8 6.0 94.3 C 5.8 93.9 6.0 93.2 6.3 93.4 C 6.3 93.4 6.3 93.4 6.3 93.4 Z M 4.4 93.7 C 4.3 92.8 4.9 93.6 4.4 93.7 C 4.4 93.7 4.4 93.7 4.4 93.7 Z M 1.4 90.2 C 1.3 89.3 1.9 90.2 1.4 90.2 C 1.4 90.2 1.4 90.2 1.4 90.2 Z M 6.7 90.6 C 6.2 90.2 7.6 90.1 6.7 90.6 C 6.7 90.6 6.7 90.6 6.7 90.6 Z M 2.5 91.9 C 2.5 91.8 2.6 92.0 2.7 92.2 C 2.7 92.2 2.5 91.9 2.5 91.9 C 2.5 91.9 2.5 91.9 2.5 91.9 Z M 6.7 89.1 C 6.0 87.8 7.7 89.0 6.7 89.1 C 6.7 89.1 6.7 89.1 6.7 89.1 Z M 5.3 86.3 C 4.0 86.0 5.6 85.0 5.3 86.3 C 5.3 86.3 5.3 86.3 5.3 86.3 Z M 2.3 88.0 C 2.6 88.3 2.2 88.2 2.3 88.0 C 2.3 88.0 2.3 88.0 2.3 88.0 Z M 2.1 94.1 C 2.4 94.3 2.0 94.3 2.1 94.1 C 2.1 94.1 2.1 94.1 2.1 94.1 Z M 2.5 86.3 C 3.0 86.4 2.2 86.8 2.5 86.3 C 2.5 86.3 2.5 86.3 2.5 86.3 Z M 6.1 90.4 C 7.2 91.6 4.5 91.8 6.1 90.4 C 6.1 90.4 6.1 90.4 6.1 90.4 Z M 6.2 92.6 C 6.4 93.4 5.5 92.4 5.7 92.0 C 5.8 92.1 6.2 92.4 6.2 92.6 C 6.2 92.6 6.2 92.6 6.2 92.6 Z M 6.0 89.1 C 6.5 89.9 5.7 89.8 6.0 89.1 C 6.0 89.1 6.0 89.1 6.0 89.1 Z M 6.6 91.2 C 6.5 91.6 6.4 90.9 6.6 91.2 C 6.6 91.2 6.6 91.2 6.6 91.2 Z M 7.1 87.5 C 7.0 87.9 7.0 87.2 7.1 87.5 C 7.1 87.5 7.1 87.5 7.1 87.5 Z M 6.8 93.6 C 6.6 94.0 6.6 93.2 6.8 93.6 C 6.8 93.6 6.8 93.6 6.8 93.6 Z M 6.4 87.8 C 5.9 87.6 4.8 88.7 5.7 86.7 C 6.1 86.3 6.8 87.3 6.4 87.8 C 6.4 87.8 6.4 87.8 6.4 87.8 Z M 18.5 93.6 C 12.9 92.1 14.3 94.8 14.1 95.3 C 13.4 96.0 14.2 96.5 15.3 97.0 C 16.6 98.7 17.0 95.3 18.0 96.9 C 19.7 99.2 19.5 95.0 20.4 97.4 C 20.2 98.0 22.4 97.5 22.2 97.3 C 23.4 98.5 24.8 96.4 24.8 96.2 C 25.5 96.5 25.8 98.7 28.0 97.1 C 29.6 96.5 30.7 98.6 30.0 97.2 C 31.6 98.8 30.9 96.7 32.2 97.2 C 33.3 98.1 32.1 95.8 34.0 97.6 C 34.5 96.2 33.3 98.5 37.6 97.5 C 35.5 97.4 39.5 96.4 38.8 97.3 C 37.5 98.3 40.8 97.0 42.9 97.6 C 43.3 97.0 45.4 95.8 45.3 97.2 C 47.8 98.7 47.2 96.2 48.4 97.5 C 49.2 98.0 49.2 96.9 49.7 97.0 C 50.7 97.9 51.2 97.3 53.8 97.6 C 59.6 98.1 54.0 95.1 56.0 94.7 C 56.2 94.3 52.3 91.1 54.2 93.5 C 53.6 92.8 49.7 95.3 51.3 92.7 C 49.9 93.7 51.4 91.6 48.3 92.8 C 53.5 94.7 43.1 93.6 47.4 92.7 C 46.6 92.1 44.7 92.2 46.1 92.7 C 47.1 94.4 42.8 91.9 45.1 94.0 C 42.1 93.4 43.2 95.3 42.1 94.0 C 41.0 91.7 42.4 94.5 40.8 93.9 C 37.3 93.9 39.5 91.3 37.8 93.0 C 34.2 91.9 37.2 94.0 36.1 94.3 C 36.0 95.8 32.5 93.1 35.0 92.9 C 33.8 93.7 34.6 92.1 33.3 93.1 C 34.6 94.5 31.1 91.6 31.7 92.7 C 30.4 93.1 31.2 94.0 30.8 94.0 C 28.7 94.0 29.2 92.6 28.9 93.6 C 28.5 94.2 27.3 92.4 27.1 92.8 C 29.2 92.9 25.6 94.3 25.2 93.6 C 26.5 93.5 24.4 91.7 23.7 92.8 C 25.1 95.9 21.8 92.0 21.0 93.1 C 22.0 94.8 16.4 93.3 18.4 92.5 C 18.3 92.7 18.6 93.7 18.5 93.6 M 26.5 93.1 C 28.3 93.2 24.7 93.4 26.5 93.1 M 26.4 92.6 C 27.2 93.2 24.7 92.2 26.5 92.4 C 26.5 92.5 26.3 92.6 26.4 92.6 M 33.5 92.6 C 33.4 93.1 32.5 92.3 33.5 92.6 M 35.0 93.6 C 36.3 94.1 33.5 93.7 35.0 93.6 M 50.8 93.3 C 49.8 95.9 48.7 91.9 50.8 93.3 M 40.2 92.8 C 38.4 93.1 40.7 91.7 40.2 92.8 M 39.8 93.4 C 39.0 93.8 39.5 92.8 39.8 93.4 M 47.8 93.3 C 47.9 93.3 47.9 93.3 47.8 93.3 C 47.8 93.3 47.8 93.3 47.8 93.3 Z M 52.4 93.4 C 52.5 93.3 52.5 93.3 52.4 93.4 C 52.4 93.4 52.4 93.4 52.4 93.4 Z M 43.3 93.6 C 41.7 93.0 45.6 93.3 43.3 93.6 C 43.3 93.6 43.3 93.6 43.3 93.6 Z M 51.2 97.3 C 51.1 97.3 51.1 97.3 51.2 97.3 C 51.2 97.3 51.2 97.3 51.2 97.3 Z M 25.3 94.3 C 25.2 94.3 25.2 94.3 25.3 94.3 C 25.3 94.3 25.3 94.3 25.3 94.3 Z M 19.9 93.3 C 20.0 93.6 18.9 93.0 19.9 93.3 C 19.9 93.3 19.9 93.3 19.9 93.3 Z M 15.8 96.2 C 15.7 96.3 15.7 96.3 15.8 96.2 C 15.8 96.2 15.8 96.2 15.8 96.2 Z M 23.6 95.6 C 23.6 95.7 23.6 95.7 23.6 95.6 C 23.6 95.6 23.6 95.6 23.6 95.6 Z M 24.2 93.7 C 23.2 92.3 26.3 94.1 24.2 93.7 C 24.2 93.7 24.2 93.7 24.2 93.7 Z M 42.2 97.1 C 42.1 96.5 43.5 97.3 42.2 97.1 C 42.2 97.1 42.2 97.1 42.2 97.1 Z M 35.3 94.2 C 35.5 93.9 36.1 94.4 35.3 94.2 C 35.3 94.2 35.3 94.2 35.3 94.2 Z M 32.1 92.3 C 32.3 92.0 32.9 92.4 32.1 92.3 C 32.1 92.3 32.1 92.3 32.1 92.3 Z M 19.9 92.9 C 20.0 92.8 20.0 92.8 19.9 92.9 C 19.9 92.9 19.9 92.9 19.9 92.9 Z M 21.9 94.0 C 20.5 92.6 24.0 94.7 21.9 94.0 C 21.9 94.0 21.9 94.0 21.9 94.0 Z M 19.7 94.4 C 20.4 94.9 18.0 94.1 19.7 94.4 M 21.2 96.4 C 22.8 95.8 19.9 98.8 21.2 96.4 C 21.2 96.4 21.2 96.4 21.2 96.4 Z M 29.6 96.9 C 29.7 97.0 29.7 97.0 29.6 96.9 C 29.6 96.9 29.6 96.9 29.6 96.9 Z M 28.2 93.0 C 29.6 93.1 27.3 93.4 28.2 93.0 C 28.2 93.0 28.2 93.0 28.2 93.0 Z M 15.9 92.7 C 17.3 92.8 15.0 93.1 15.9 92.7 C 15.9 92.7 15.9 92.7 15.9 92.7 Z M 34.2 95.6 C 36.5 95.4 32.9 96.3 34.2 95.6 C 34.2 95.6 34.2 95.6 34.2 95.6 Z M 42.6 94.1 C 42.6 94.1 42.6 94.1 42.6 94.1 C 42.6 94.1 42.6 94.1 42.6 94.1 Z M 44.0 93.5 C 44.1 93.6 44.1 93.6 44.0 93.5 C 44.0 93.5 44.0 93.5 44.0 93.5 Z M 51.0 94.9 C 51.1 94.9 51.1 94.9 51.0 94.9 C 51.0 94.9 51.0 94.9 51.0 94.9 Z M 45.4 92.9 C 45.4 92.9 45.4 92.9 45.4 92.9 C 45.4 92.9 45.4 92.9 45.4 92.9 Z M 50.0 93.2 C 50.1 93.3 50.1 93.3 50.0 93.2 C 50.0 93.2 50.0 93.2 50.0 93.2 Z M 49.1 92.1 C 49.2 92.1 49.2 92.1 49.1 92.1 C 49.1 92.1 49.1 92.1 49.1 92.1 Z M 40.0 97.9 C 40.1 97.9 40.1 97.9 40.0 97.9 C 40.0 97.9 40.0 97.9 40.0 97.9 Z M 22.4 92.5 C 22.5 92.6 22.5 92.6 22.4 92.5 C 22.4 92.5 22.4 92.5 22.4 92.5 Z M 49.8 93.8 C 49.8 93.8 49.8 93.8 49.8 93.8 C 49.8 93.8 49.8 93.8 49.8 93.8 Z M 38.7 94.8 C 39.0 95.9 37.5 93.3 39.0 94.8 C 39.0 94.8 38.6 94.6 38.7 94.8 M 40.6 96.7 C 40.5 96.7 40.5 96.7 40.6 96.7 C 40.6 96.7 40.6 96.7 40.6 96.7 Z M 35.6 97.4 C 35.5 97.4 35.5 97.4 35.6 97.4 C 35.6 97.4 35.6 97.4 35.6 97.4 Z M 44.5 92.7 C 44.2 92.0 45.9 93.2 44.3 92.7 M 51.5 96.9 C 51.2 96.2 53.0 97.4 51.4 96.9 M 14.3 93.2 C 14.1 93.7 13.3 92.9 14.3 93.2 M 34.5 98.0 C 34.4 98.5 33.5 97.7 34.5 98.0 M 36.7 96.5 C 36.4 95.9 38.0 97.0 36.5 96.6 M 48.0 96.8 C 48.1 96.8 48.1 96.8 48.0 96.8 C 48.0 96.8 48.0 96.8 48.0 96.8 Z M 30.4 93.2 C 30.4 93.2 30.4 93.2 30.4 93.2 C 30.4 93.2 30.4 93.2 30.4 93.2 Z M 36.8 94.5 C 35.8 93.6 38.0 95.1 36.8 94.5 M 28.8 94.7 C 27.4 93.6 30.8 95.0 28.8 94.7 M 54.3 97.1 C 52.6 95.8 55.5 97.8 54.3 97.1 M 46.6 93.9 C 45.0 92.6 47.8 94.6 46.6 93.9 M 31.7 93.7 C 31.5 93.0 33.2 94.1 31.7 93.7 M 17.5 93.1 C 16.2 92.9 19.2 92.5 17.5 93.1 M 44.6 96.9 C 44.7 96.9 44.7 96.9 44.6 96.9 C 44.6 96.9 44.6 96.9 44.6 96.9 Z M 22.2 98.0 C 22.3 98.1 22.3 98.1 22.2 98.0 C 22.2 98.0 22.2 98.0 22.2 98.0 Z M 54.9 92.9 C 55.0 92.9 55.0 92.9 54.9 92.9 C 54.9 92.9 54.9 92.9 54.9 92.9 Z M 45.9 94.5 C 46.0 94.6 46.0 94.6 45.9 94.5 C 45.9 94.5 45.9 94.5 45.9 94.5 Z M 52.3 92.7 C 52.4 92.8 52.4 92.8 52.3 92.7 C 52.3 92.7 52.3 92.7 52.3 92.7 Z M 41.8 95.5 C 41.8 95.5 41.8 95.5 41.8 95.5 C 41.8 95.5 41.8 95.5 41.8 95.5 Z M 40.3 92.2 C 40.3 92.2 40.3 92.2 40.3 92.2 C 40.3 92.2 40.3 92.2 40.3 92.2 Z M 35.9 93.6 C 35.9 93.6 35.9 93.6 35.9 93.6 C 35.9 93.6 35.9 93.6 35.9 93.6 Z M 42.5 92.5 C 45.2 92.3 41.3 93.6 42.5 92.5 C 42.5 92.5 42.5 92.5 42.5 92.5 Z M 38.2 95.8 C 38.3 95.8 38.3 95.8 38.2 95.8 C 38.2 95.8 38.2 95.8 38.2 95.8 Z M 37.4 93.4 C 39.0 92.5 38.6 95.0 37.4 93.4 M 29.5 92.6 C 30.0 92.1 29.9 93.4 29.5 92.6 M 26.9 97.0 C 26.9 97.0 26.9 97.0 26.9 97.0 C 26.9 97.0 26.9 97.0 26.9 97.0 Z M 27.7 96.6 C 27.8 96.7 27.8 96.7 27.7 96.6 C 27.7 96.6 27.7 96.6 27.7 96.6 Z M 27.6 92.4 C 27.6 92.5 27.6 92.5 27.6 92.4 C 27.6 92.4 27.6 92.4 27.6 92.4 Z M 28.0 97.9 C 28.1 97.9 28.1 97.9 28.0 97.9 C 28.0 97.9 28.0 97.9 28.0 97.9 Z M 39.2 92.3 C 39.3 92.3 39.3 92.3 39.2 92.3 C 39.2 92.3 39.2 92.3 39.2 92.3 Z M 53.5 92.2 C 53.6 92.3 53.6 92.3 53.5 92.2 C 53.5 92.2 53.5 92.2 53.5 92.2 Z M 18.1 96.5 C 18.2 96.6 18.2 96.6 18.1 96.5 C 18.1 96.5 18.1 96.5 18.1 96.5 Z M 41.0 93.6 C 41.0 93.6 41.0 93.6 41.0 93.6 C 41.0 93.6 41.0 93.6 41.0 93.6 Z M 24.8 96.8 C 24.9 96.8 24.9 96.8 24.8 96.8 C 24.8 96.8 24.8 96.8 24.8 96.8 Z M 40.0 93.3 C 40.0 93.3 40.0 93.3 40.0 93.3 C 40.0 93.3 40.0 93.3 40.0 93.3 Z M 44.2 97.2 C 44.2 97.2 44.2 97.2 44.2 97.2 C 44.2 97.2 44.2 97.2 44.2 97.2 Z M 47.5 97.9 C 47.5 97.9 47.5 97.9 47.5 97.9 C 47.5 97.9 47.5 97.9 47.5 97.9 Z M 43.5 94.9 C 43.5 94.9 43.5 94.9 43.5 94.9 C 43.5 94.9 43.5 94.9 43.5 94.9 Z M 23.6 95.4 C 17.8 94.2 28.1 94.8 23.6 95.4 M 44.5 95.1 C 40.5 94.9 47.4 93.8 44.5 95.1 C 44.9 94.8 44.5 95.1 44.5 95.1 M 56.2 92.4 C 54.9 93.6 55.2 94.7 56.3 96.0 C 57.3 96.6 56.6 94.2 57.2 96.2 C 55.4 96.6 58.9 99.3 58.1 96.7 C 60.4 96.3 58.9 98.4 60.1 97.3 C 62.7 97.0 61.6 97.9 63.6 97.7 C 64.3 96.2 65.0 98.4 65.1 97.0 C 64.6 98.5 67.2 96.6 67.5 97.3 C 65.9 98.2 74.6 97.3 69.5 96.9 C 71.3 96.2 71.3 97.4 72.1 97.6 C 72.6 96.7 75.6 98.3 76.5 97.4 C 76.2 97.2 75.6 97.1 75.3 96.9 C 74.7 96.3 76.7 97.0 76.5 96.9 C 77.2 96.6 80.0 95.7 77.2 97.3 C 77.3 98.0 79.9 96.9 80.0 97.6 C 83.0 97.6 80.2 96.2 82.0 97.2 C 84.1 97.3 85.6 97.3 85.5 97.1 C 86.9 97.3 87.5 98.1 88.3 97.3 C 91.7 98.9 88.8 94.2 91.2 97.3 C 91.6 96.6 93.2 98.6 92.3 96.7 C 91.7 97.6 97.4 98.2 94.4 96.8 C 94.8 96.3 99.3 98.8 97.9 96.8 C 98.4 95.4 97.5 94.0 94.3 92.7 C 95.1 93.8 91.1 91.5 93.9 93.4 C 96.4 94.0 90.1 94.1 91.1 93.4 C 90.4 91.1 88.7 94.8 86.7 93.2 C 88.2 94.1 83.3 94.5 84.0 92.8 C 83.0 92.7 83.2 93.5 81.7 92.5 C 84.8 92.7 81.3 94.3 81.1 93.3 C 81.3 92.6 76.6 92.1 77.4 93.1 C 79.9 95.4 76.1 92.6 75.6 93.5 C 73.3 94.0 75.3 91.5 74.1 93.2 C 73.5 92.9 70.2 92.9 72.1 92.5 C 73.0 92.7 71.0 95.0 70.0 93.0 C 73.1 91.9 65.7 92.4 67.1 93.0 C 72.9 94.1 61.7 94.2 65.6 93.2 C 62.9 92.1 66.2 92.7 63.3 93.2 C 63.9 93.8 61.8 94.4 61.9 93.2 C 60.9 91.3 61.9 95.7 59.3 93.1 C 58.7 92.0 55.8 93.9 56.8 92.7 C 56.8 92.6 56.3 92.3 56.2 92.4 M 57.3 92.6 C 57.1 93.0 56.5 92.0 57.3 92.6 M 57.0 93.0 C 57.0 93.0 57.0 93.0 57.0 93.0 C 57.0 93.0 57.0 93.0 57.0 93.0 Z M 62.9 93.3 C 62.9 93.2 62.9 93.2 62.9 93.3 C 62.9 93.3 62.9 93.3 62.9 93.3 Z M 69.1 98.0 C 69.1 98.0 69.1 98.0 69.1 98.0 C 69.1 98.0 69.1 98.0 69.1 98.0 Z M 66.9 93.4 C 66.8 93.4 66.8 93.4 66.9 93.4 C 66.9 93.4 66.9 93.4 66.9 93.4 Z M 60.9 93.6 C 60.9 93.6 60.9 93.6 60.9 93.6 C 60.9 93.6 60.9 93.6 60.9 93.6 Z M 66.3 92.7 C 66.8 93.4 64.7 92.2 66.3 92.6 C 66.4 92.6 66.1 92.6 66.3 92.7 M 71.2 92.4 C 71.3 92.5 71.3 92.5 71.2 92.4 M 84.7 98.0 C 84.7 98.1 84.7 98.1 84.7 98.0 M 83.2 92.4 C 83.4 92.4 83.4 92.4 83.2 92.4 M 76.5 93.1 C 78.0 93.0 77.0 93.5 76.5 93.1 M 87.5 92.8 C 85.3 92.3 89.4 92.4 87.5 92.8 M 89.2 92.3 C 89.4 92.4 89.4 92.4 89.2 92.3 M 80.5 92.6 C 80.5 92.7 80.5 92.7 80.5 92.6 C 80.5 92.6 80.5 92.6 80.5 92.6 Z M 75.7 92.8 C 73.6 92.5 77.5 92.2 75.7 92.8 M 63.4 92.6 C 64.4 92.2 63.7 93.5 63.4 92.6 M 61.2 93.0 C 61.2 93.0 61.2 93.0 61.2 93.0 C 61.2 93.0 61.2 93.0 61.2 93.0 Z M 84.3 92.7 C 84.3 92.7 84.3 92.7 84.3 92.7 C 84.3 92.7 84.3 92.7 84.3 92.7 Z M 86.5 92.6 C 86.5 92.6 86.5 92.6 86.5 92.6 C 86.5 92.6 86.5 92.6 86.5 92.6 Z M 92.6 97.8 C 92.6 97.8 92.6 97.8 92.6 97.8 C 92.6 97.8 92.6 97.8 92.6 97.8 Z M 63.6 95.2 C 62.0 94.8 64.6 93.5 64.7 94.7 C 65.1 95.3 63.7 95.0 63.6 95.2 M 74.9 94.4 C 75.9 96.2 72.5 92.0 74.9 94.4 M 90.0 93.5 C 92.5 95.6 87.4 92.0 90.0 93.5 M 92.9 93.1 C 94.0 93.6 87.3 93.4 91.7 92.8 C 91.9 92.5 92.5 92.9 92.9 93.1 M 71.6 93.3 C 72.4 94.2 69.0 92.8 71.6 93.3 M 82.1 96.2 C 82.6 95.6 84.3 95.0 83.9 96.1 C 84.5 97.5 81.4 96.7 82.1 96.2 M 58.1 93.6 C 58.9 92.0 58.4 94.9 58.1 93.6 M 64.0 93.7 C 64.0 93.6 64.0 93.6 64.0 93.7 C 64.0 93.7 64.0 93.7 64.0 93.7 Z M 66.3 93.5 C 66.4 93.6 66.4 93.6 66.3 93.5 M 58.6 92.2 C 58.8 92.3 58.8 92.3 58.6 92.2 M 81.4 94.6 C 81.6 94.7 81.6 94.7 81.4 94.6 M 76.2 93.5 C 79.1 95.1 75.1 93.9 76.2 93.5 M 71.7 96.5 C 72.7 97.3 70.3 96.6 71.7 96.5 M 79.7 92.9 C 81.9 94.4 78.1 94.3 79.7 92.9 M 75.0 93.4 C 75.2 93.4 75.2 93.4 75.0 93.4 C 75.0 93.4 75.0 93.4 75.0 93.4 Z M 82.8 96.4 C 82.8 96.4 82.8 96.4 82.8 96.4 C 82.8 96.4 82.8 96.4 82.8 96.4 Z M 83.5 96.3 C 83.4 96.3 83.4 96.3 83.5 96.3 C 83.5 96.3 83.5 96.3 83.5 96.3 Z M 81.6 92.8 C 81.6 92.8 81.6 92.8 81.6 92.8 C 81.6 92.8 81.6 92.8 81.6 92.8 Z M 62.3 97.1 C 64.0 97.2 61.1 97.3 62.3 97.1 C 62.3 97.1 62.3 97.1 62.3 97.1 Z M 68.1 92.7 C 71.2 93.9 66.6 93.8 68.1 92.7 C 68.1 92.7 68.1 92.7 68.1 92.7 Z M 71.8 94.6 C 71.8 94.7 71.8 94.7 71.8 94.6 C 71.8 94.6 71.8 94.6 71.8 94.6 Z M 78.3 92.0 C 78.4 92.1 78.4 92.1 78.3 92.0 C 78.3 92.0 78.3 92.0 78.3 92.0 Z M 63.2 97.3 C 63.2 97.3 63.2 97.3 63.2 97.3 C 63.2 97.3 63.2 97.3 63.2 97.3 Z M 86.5 93.6 C 86.6 93.7 86.6 93.7 86.5 93.6 C 86.5 93.6 86.5 93.6 86.5 93.6 Z M 78.4 96.6 C 78.8 96.0 78.8 97.1 78.4 96.6 C 78.4 96.6 78.4 96.6 78.4 96.6 Z M 80.9 96.6 C 81.0 96.6 81.0 96.6 80.9 96.6 C 80.9 96.6 80.9 96.6 80.9 96.6 Z M 89.7 92.2 C 89.8 92.2 89.8 92.2 89.7 92.2 C 89.7 92.2 89.7 92.2 89.7 92.2 Z M 87.7 98.0 C 87.8 98.0 87.8 98.0 87.7 98.0 C 87.7 98.0 87.7 98.0 87.7 98.0 Z M 89.0 96.3 C 89.0 96.3 89.0 96.3 89.0 96.3 C 89.0 96.3 89.0 96.3 89.0 96.3 Z M 81.3 93.1 C 83.6 92.9 81.1 93.8 81.3 93.1 C 81.3 93.1 81.3 93.1 81.3 93.1 Z M 94.9 95.8 C 95.0 95.9 95.0 95.9 94.9 95.8 C 94.9 95.8 94.9 95.8 94.9 95.8 Z M 95.1 93.8 C 95.2 93.9 95.2 93.9 95.1 93.8 C 95.1 93.8 95.1 93.8 95.1 93.8 Z M 95.2 92.7 C 95.3 92.8 95.3 92.8 95.2 92.7 C 95.2 92.7 95.2 92.7 95.2 92.7 Z M 67.0 95.6 C 66.9 95.6 66.9 95.6 67.0 95.6 C 67.0 95.6 67.0 95.6 67.0 95.6 Z M 64.9 92.3 C 64.9 92.3 64.9 92.3 64.9 92.3 C 64.9 92.3 64.9 92.3 64.9 92.3 Z M 68.1 92.2 C 68.1 92.2 68.1 92.2 68.1 92.2 C 68.1 92.2 68.1 92.2 68.1 92.2 Z M 67.0 97.6 C 67.0 97.6 67.0 97.6 67.0 97.6 C 67.0 97.6 67.0 97.6 67.0 97.6 Z M 78.4 94.8 C 78.3 94.8 78.3 94.8 78.4 94.8 C 78.4 94.8 78.4 94.8 78.4 94.8 Z M 80.1 96.2 C 80.0 96.1 80.0 96.1 80.1 96.2 C 80.1 96.2 80.1 96.2 80.1 96.2 Z M 77.9 97.9 C 77.9 97.9 77.9 97.9 77.9 97.9 C 77.9 97.9 77.9 97.9 77.9 97.9 Z M 81.5 97.3 C 81.4 97.3 81.4 97.3 81.5 97.3 C 81.5 97.3 81.5 97.3 81.5 97.3 Z M 58.5 97.0 C 58.5 97.0 58.5 97.0 58.5 97.0 C 58.5 97.0 58.5 97.0 58.5 97.0 Z M 57.5 94.5 C 57.5 94.6 57.5 94.6 57.5 94.5 C 57.5 94.5 57.5 94.5 57.5 94.5 Z M 78.1 93.0 C 78.4 92.5 79.5 93.7 78.1 93.0 M 73.5 93.3 C 73.5 93.4 73.5 93.4 73.5 93.3 C 73.5 93.3 73.5 93.3 73.5 93.3 Z M 85.9 93.1 C 87.0 94.1 83.5 92.6 85.9 93.1 C 85.9 93.1 85.9 93.1 85.9 93.1 Z M 85.2 97.3 C 85.3 97.3 85.3 97.3 85.2 97.3 C 85.2 97.3 85.2 97.3 85.2 97.3 Z M 86.3 96.9 C 86.4 97.0 86.4 97.0 86.3 96.9 C 86.3 96.9 86.3 96.9 86.3 96.9 Z M 91.9 94.2 C 92.1 94.2 92.1 94.2 91.9 94.2 M 72.6 92.4 C 73.5 92.9 73.3 92.8 72.6 92.4 M 87.5 93.1 C 87.5 93.2 87.5 93.2 87.5 93.1 C 87.5 93.1 87.5 93.1 87.5 93.1 Z M 93.1 93.6 C 93.1 93.6 93.1 93.6 93.1 93.6 C 93.1 93.6 93.1 93.6 93.1 93.6 Z M 69.6 93.1 C 70.1 94.3 69.4 94.0 69.6 93.1 M 60.4 93.5 C 60.5 93.6 60.5 93.6 60.4 93.5 C 60.4 93.5 60.4 93.5 60.4 93.5 Z M 100.1 92.7 C 96.9 91.4 97.8 93.3 97.9 93.3 C 96.9 90.8 96.1 94.3 96.9 94.8 C 96.9 95.2 101.1 99.6 101.6 96.9 C 101.9 96.6 102.6 97.4 103.0 97.4 C 106.1 97.3 100.1 96.1 103.9 96.1 C 104.8 96.4 105.1 98.5 106.6 97.1 C 106.8 97.3 109.8 98.1 108.3 97.1 C 110.1 98.1 110.2 96.9 111.2 96.7 C 112.6 97.2 111.2 98.2 114.3 97.0 C 116.9 98.8 115.7 95.7 118.2 97.7 C 119.2 97.7 118.7 94.5 117.7 96.3 C 117.8 96.1 115.6 94.6 118.8 95.2 C 118.6 95.6 119.0 98.8 122.7 97.3 C 123.5 97.3 124.7 96.5 125.3 96.9 C 123.2 97.2 129.5 98.3 128.3 97.3 C 132.4 98.0 129.3 96.5 132.7 97.6 C 134.9 97.6 131.0 96.1 134.3 97.0 C 136.2 96.8 135.4 97.6 135.1 97.6 C 137.0 97.7 137.2 97.1 137.9 97.2 C 138.4 97.4 139.6 98.0 139.5 97.2 C 140.3 95.7 137.6 94.3 137.4 92.8 C 135.5 92.1 137.6 93.9 135.9 92.8 C 135.9 93.8 135.7 92.8 132.2 93.0 C 132.5 93.2 133.8 93.8 133.0 93.9 C 131.5 93.8 130.8 91.3 129.6 93.1 C 132.8 93.6 126.3 93.9 129.2 94.4 C 126.2 94.7 128.2 94.2 125.4 93.6 C 126.6 95.3 124.1 91.8 124.1 93.1 C 123.4 92.5 120.0 92.8 123.2 93.8 C 119.7 94.2 121.5 93.3 119.6 92.4 C 117.8 92.3 121.2 95.1 118.8 93.0 C 116.0 92.1 119.3 94.1 116.7 92.5 C 118.3 93.9 115.0 92.4 116.6 94.0 C 112.7 94.1 116.1 92.4 114.0 93.4 C 114.9 93.5 113.3 91.4 112.4 92.8 C 114.6 95.2 109.0 90.6 112.1 93.8 C 107.1 94.8 110.4 92.5 107.4 92.5 C 106.7 92.5 108.8 93.5 108.2 93.6 C 104.1 93.1 106.8 92.3 105.7 93.8 C 102.1 94.3 103.8 92.5 101.9 92.4 C 102.2 93.1 101.3 94.4 100.1 92.7 M 103.9 93.5 C 104.4 93.0 104.6 94.0 103.9 93.5 M 95.9 92.7 C 96.4 92.2 96.6 93.3 95.9 92.7 M 106.8 93.0 C 107.5 92.5 107.6 93.9 106.8 93.0 M 127.7 93.8 C 126.3 93.8 128.1 93.4 127.7 93.8 M 98.8 92.6 C 99.6 92.0 99.6 93.5 98.8 92.6 M 98.1 93.9 C 98.2 93.9 98.2 93.9 98.1 93.9 M 128.9 92.5 C 128.9 92.5 128.9 92.5 128.9 92.5 M 123.4 92.5 C 124.6 92.5 123.0 92.8 123.4 92.5 M 126.6 97.9 C 127.8 97.9 126.1 98.2 126.6 97.9 M 131.8 92.4 C 132.7 92.0 132.5 93.0 131.8 92.4 M 135.7 93.6 C 136.4 93.1 136.7 94.2 135.7 93.6 M 104.2 95.4 C 104.2 95.4 104.2 95.4 104.2 95.4 C 104.2 95.4 104.2 95.4 104.2 95.4 Z M 115.1 96.7 C 113.6 96.2 117.0 97.4 115.1 96.7 M 111.2 93.2 C 112.7 94.3 109.6 93.1 111.2 93.2 C 111.2 93.2 111.2 93.2 111.2 93.2 Z M 109.7 93.7 C 109.7 93.7 109.7 93.7 109.7 93.7 C 109.7 93.7 109.7 93.7 109.7 93.7 Z M 115.5 93.8 C 115.4 93.8 115.4 93.8 115.5 93.8 C 115.5 93.8 115.5 93.8 115.5 93.8 Z M 114.3 93.8 C 114.0 94.1 113.6 93.6 114.3 93.8 C 114.3 93.8 114.3 93.8 114.3 93.8 Z M 124.8 97.3 C 124.5 97.5 124.0 97.1 124.8 97.3 C 124.8 97.3 124.8 97.3 124.8 97.3 Z M 112.8 94.2 C 113.2 95.3 111.5 93.5 112.8 94.2 C 112.8 94.2 112.8 94.2 112.8 94.2 Z M 120.5 96.8 C 120.8 96.5 122.2 97.9 120.5 96.8 M 130.1 92.7 C 130.4 92.4 131.9 93.7 130.1 92.7 M 118.0 92.4 C 118.3 92.1 119.7 93.4 118.0 92.4 M 104.3 93.0 C 104.5 93.2 104.5 93.2 104.3 93.0 M 113.6 97.8 C 114.2 97.4 114.3 98.2 113.6 97.8 M 101.9 97.4 C 102.5 97.0 102.5 97.9 101.9 97.4 M 131.8 97.7 C 131.6 97.5 133.1 97.9 131.8 97.7 M 120.5 94.1 C 121.6 94.3 123.0 94.9 120.8 94.8 C 120.5 94.5 121.1 94.4 120.5 94.1 C 120.5 94.1 120.5 94.1 120.5 94.1 Z M 125.8 96.6 C 126.1 96.7 126.1 96.7 125.8 96.6 M 121.7 93.1 C 121.9 93.2 121.9 93.2 121.7 93.1 M 127.9 93.2 C 128.2 93.4 128.2 93.4 127.9 93.2 M 128.5 92.9 C 128.5 93.0 128.5 93.0 128.5 92.9 C 128.5 92.9 128.5 92.9 128.5 92.9 Z M 134.9 92.5 C 134.9 92.5 134.9 92.5 134.9 92.5 C 134.9 92.5 134.9 92.5 134.9 92.5 Z M 126.0 93.4 C 126.1 93.4 126.1 93.4 126.0 93.4 C 126.0 93.4 126.0 93.4 126.0 93.4 Z M 134.4 97.5 C 134.5 97.6 134.5 97.6 134.4 97.5 C 134.4 97.5 134.4 97.5 134.4 97.5 Z M 133.3 96.9 C 133.3 96.9 133.3 96.9 133.3 96.9 C 133.3 96.9 133.3 96.9 133.3 96.9 Z M 100.6 92.7 C 101.2 92.0 102.1 94.6 100.6 92.7 M 136.3 96.9 C 137.8 97.6 134.8 97.0 136.3 96.9 C 136.3 96.9 136.3 96.9 136.3 96.9 Z M 125.9 94.3 C 126.1 94.4 126.1 94.4 125.9 94.3 M 128.9 93.0 C 129.1 93.2 129.1 93.2 128.9 93.0 M 110.6 92.2 C 110.8 92.3 110.8 92.3 110.6 92.2 M 133.8 93.2 C 136.9 93.5 133.6 94.8 133.8 93.2 M 109.9 93.2 C 109.8 93.1 109.8 93.1 109.9 93.2 M 117.5 95.3 C 119.4 95.2 117.2 95.9 117.5 95.3 M 121.6 93.9 C 121.6 94.0 121.6 94.0 121.6 93.9 C 121.6 93.9 121.6 93.9 121.6 93.9 Z M 118.8 93.9 C 117.5 94.1 118.2 93.6 118.8 93.9 C 118.8 93.9 118.8 93.9 118.8 93.9 Z M 102.5 93.7 C 104.4 93.9 100.8 94.1 102.5 93.7 C 102.5 93.7 102.5 93.7 102.5 93.7 Z M 134.2 95.8 C 134.2 95.8 134.2 95.8 134.2 95.8 C 134.2 95.8 134.2 95.8 134.2 95.8 Z M 125.2 92.6 C 124.5 92.9 124.6 92.3 125.2 92.6 C 125.2 92.6 125.2 92.6 125.2 92.6 Z M 135.9 92.5 C 135.3 92.8 135.3 92.2 135.9 92.5 C 135.9 92.5 135.9 92.5 135.9 92.5 Z M 100.2 93.5 C 107.9 95.4 91.1 93.1 100.2 93.5 C 100.2 93.5 100.2 93.5 100.2 93.5 Z M 119.5 93.2 C 119.5 93.2 119.5 93.2 119.5 93.2 C 119.5 93.2 119.5 93.2 119.5 93.2 Z M 106.8 92.4 C 106.8 92.5 106.8 92.5 106.8 92.4 C 106.8 92.4 106.8 92.4 106.8 92.4 Z M 105.2 93.4 C 105.2 93.5 105.2 93.5 105.2 93.4 C 105.2 93.4 105.2 93.4 105.2 93.4 Z M 108.1 97.7 C 108.1 97.7 108.1 97.7 108.1 97.7 C 108.1 97.7 108.1 97.7 108.1 97.7 Z M 107.8 95.7 C 107.8 95.8 107.8 95.8 107.8 95.7 C 107.8 95.7 107.8 95.7 107.8 95.7 Z M 103.8 96.4 C 103.8 96.5 103.8 96.5 103.8 96.4 C 103.8 96.4 103.8 96.4 103.8 96.4 Z M 104.2 97.0 C 104.2 97.1 104.2 97.1 104.2 97.0 C 104.2 97.0 104.2 97.0 104.2 97.0 Z M 129.7 94.2 C 129.7 94.3 129.7 94.3 129.7 94.2 C 129.7 94.2 129.7 94.2 129.7 94.2 Z M 128.6 96.0 C 129.7 95.4 128.7 96.9 128.6 96.0 C 128.6 96.0 128.6 96.0 128.6 96.0 Z M 114.2 95.1 C 115.5 94.9 113.5 95.7 114.2 95.1 C 114.2 95.1 114.2 95.1 114.2 95.1 Z M 117.1 97.5 C 117.1 97.5 117.1 97.5 117.1 97.5 C 117.1 97.5 117.1 97.5 117.1 97.5 Z M 104.7 92.4 C 104.7 92.5 104.7 92.5 104.7 92.4 C 104.7 92.4 104.7 92.4 104.7 92.4 Z M 102.5 93.1 C 102.8 94.0 101.4 92.7 102.5 93.1 M 115.3 92.6 C 115.4 92.7 115.4 92.7 115.3 92.6 C 115.3 92.6 115.3 92.6 115.3 92.6 Z M 124.5 94.0 C 124.5 94.1 124.5 94.1 124.5 94.0 C 124.5 94.0 124.5 94.0 124.5 94.0 Z M 132.4 93.4 C 132.5 93.5 132.5 93.5 132.4 93.4 C 132.4 93.4 132.4 93.4 132.4 93.4 Z M 120.6 92.7 C 120.6 92.8 120.6 92.8 120.6 92.7 C 120.6 92.7 120.6 92.7 120.6 92.7 Z M 117.1 93.5 C 117.2 93.6 117.2 93.6 117.1 93.5 C 117.1 93.5 117.1 93.5 117.1 93.5 Z M 135.1 94.7 C 135.1 94.7 135.1 94.7 135.1 94.7 C 135.1 94.7 135.1 94.7 135.1 94.7 Z M 121.4 92.6 C 121.4 92.6 121.4 92.6 121.4 92.6 C 121.4 92.6 121.4 92.6 121.4 92.6 Z M 125.6 95.4 C 125.6 95.5 125.6 95.5 125.6 95.4 C 125.6 95.4 125.6 95.4 125.6 95.4 Z M 102.2 91.8 C 102.2 91.9 102.2 91.9 102.2 91.8 C 102.2 91.8 102.2 91.8 102.2 91.8 Z M 134.4 93.5 C 134.4 93.5 134.4 93.5 134.4 93.5 C 134.4 93.5 134.4 93.5 134.4 93.5 Z M 134.3 92.7 C 134.3 92.7 134.3 92.7 134.3 92.7 C 134.3 92.7 134.3 92.7 134.3 92.7 Z M 131.3 97.0 C 128.0 96.4 133.9 96.8 131.0 95.8 C 135.1 95.5 132.0 97.0 131.3 97.0 C 131.3 97.0 131.3 97.0 131.3 97.0 Z M 138.0 92.4 C 137.2 93.6 138.1 94.7 139.7 96.0 C 140.9 96.6 139.1 94.2 140.7 96.2 C 139.1 96.6 143.7 99.3 141.7 96.7 C 144.0 96.3 143.4 98.4 144.1 97.3 C 146.6 97.0 145.8 97.9 147.7 97.7 C 147.8 96.2 149.4 98.4 148.9 97.0 C 149.0 98.5 150.8 96.6 151.4 97.3 C 150.2 98.2 158.5 97.3 153.3 96.9 C 154.7 96.2 155.3 97.4 156.2 97.6 C 156.3 96.7 160.0 98.3 160.5 97.4 C 160.1 97.2 159.5 97.1 159.0 96.9 C 158.2 96.3 160.5 97.0 160.3 96.9 C 160.8 96.6 163.3 95.7 161.2 97.3 C 161.6 98.0 163.7 96.9 164.1 97.6 C 167.1 97.6 163.7 96.2 165.9 97.2 C 168.0 97.3 169.6 97.3 169.4 97.1 C 170.8 97.3 171.8 98.1 172.3 97.3 C 176.3 98.9 171.4 94.2 175.2 97.3 C 175.3 96.6 177.8 98.6 176.0 96.7 C 175.8 97.6 181.7 98.2 178.2 96.8 C 178.4 96.3 183.9 98.8 181.7 96.8 C 181.5 95.4 180.0 94.0 176.2 92.7 C 177.5 93.8 172.5 91.5 176.1 93.4 C 178.9 94.0 172.7 94.1 173.4 93.4 C 171.7 91.1 171.6 94.8 168.9 93.2 C 170.7 94.1 166.0 94.5 166.1 92.8 C 165.0 92.7 165.5 93.5 163.6 92.5 C 166.7 92.7 163.9 94.3 163.2 93.3 C 163.2 92.6 158.3 92.1 159.5 93.1 C 163.1 95.4 158.0 92.6 157.9 93.5 C 155.9 94.0 156.7 91.5 156.3 93.2 C 155.5 92.9 152.2 92.9 153.9 92.5 C 154.9 92.7 154.0 95.0 152.0 93.0 C 154.7 91.9 147.5 92.4 149.2 93.0 C 155.5 94.1 144.3 94.2 147.8 93.2 C 144.5 92.1 148.2 92.7 145.5 93.2 C 146.4 93.8 144.5 94.4 144.1 93.2 C 142.2 91.3 145.1 95.7 141.4 93.1 C 140.3 92.0 138.3 93.9 138.7 92.7 C 138.7 92.6 138.1 92.3 138.0 92.4 M 139.2 92.6 C 139.1 93.0 138.2 92.0 139.2 92.6 M 139.1 93.0 C 139.0 93.0 139.0 93.0 139.1 93.0 C 139.1 93.0 139.1 93.0 139.1 93.0 Z M 145.1 93.3 C 145.0 93.2 145.0 93.2 145.1 93.3 C 145.1 93.3 145.1 93.3 145.1 93.3 Z M 153.4 98.0 C 153.3 98.0 153.3 98.0 153.4 98.0 C 153.4 98.0 153.4 98.0 153.4 98.0 Z M 149.1 93.4 C 149.0 93.4 149.0 93.4 149.1 93.4 C 149.1 93.4 149.1 93.4 149.1 93.4 Z M 143.3 93.6 C 143.2 93.6 143.2 93.6 143.3 93.6 C 143.3 93.6 143.3 93.6 143.3 93.6 Z M 148.2 92.7 C 149.0 93.4 146.4 92.2 148.2 92.6 C 148.3 92.6 148.0 92.6 148.2 92.7 M 153.0 92.4 C 153.1 92.5 153.1 92.5 153.0 92.4 M 168.9 98.0 C 169.0 98.1 169.0 98.1 168.9 98.0 M 165.0 92.4 C 165.2 92.4 165.2 92.4 165.0 92.4 M 158.6 93.1 C 160.1 93.0 159.3 93.5 158.6 93.1 M 169.4 92.8 C 167.1 92.3 171.2 92.4 169.4 92.8 M 171.0 92.3 C 171.2 92.4 171.2 92.4 171.0 92.3 M 162.4 92.6 C 162.4 92.7 162.4 92.7 162.4 92.6 C 162.4 92.6 162.4 92.6 162.4 92.6 Z M 157.7 92.8 C 155.4 92.5 159.3 92.2 157.7 92.8 M 145.3 92.6 C 146.1 92.2 146.0 93.5 145.3 92.6 M 143.3 93.0 C 143.3 93.0 143.3 93.0 143.3 93.0 C 143.3 93.0 143.3 93.0 143.3 93.0 Z M 166.3 92.7 C 166.2 92.7 166.2 92.7 166.3 92.7 C 166.3 92.7 166.3 92.7 166.3 92.7 Z M 168.4 92.6 C 168.4 92.6 168.4 92.6 168.4 92.6 C 168.4 92.6 168.4 92.6 168.4 92.6 Z M 176.8 97.8 C 176.8 97.8 176.8 97.8 176.8 97.8 C 176.8 97.8 176.8 97.8 176.8 97.8 Z M 146.6 95.2 C 144.8 94.8 146.9 93.5 147.6 94.7 C 148.1 95.3 146.7 95.0 146.6 95.2 M 157.6 94.4 C 159.4 96.2 154.1 92.0 157.6 94.4 M 172.3 93.5 C 175.7 95.6 169.0 92.0 172.3 93.5 M 175.0 93.1 C 176.3 93.6 169.5 93.4 173.6 92.8 C 173.8 92.5 174.5 92.9 175.0 93.1 M 153.8 93.3 C 155.0 94.2 151.0 92.8 153.8 93.3 M 165.6 96.2 C 165.8 95.6 167.3 95.0 167.4 96.1 C 168.5 97.5 165.1 96.7 165.6 96.2 M 140.4 93.6 C 140.5 92.0 141.3 94.9 140.4 93.6 M 146.4 93.7 C 146.4 93.6 146.4 93.6 146.4 93.7 C 146.4 93.7 146.4 93.7 146.4 93.7 Z M 148.6 93.5 C 148.8 93.6 148.8 93.6 148.6 93.5 M 140.3 92.2 C 140.6 92.3 140.6 92.3 140.3 92.2 M 164.2 94.6 C 164.4 94.7 164.4 94.7 164.2 94.6 M 158.5 93.5 C 162.1 95.1 157.6 93.9 158.5 93.5 M 155.3 96.5 C 156.6 97.3 153.9 96.6 155.3 96.5 M 161.8 92.9 C 164.6 94.4 160.7 94.3 161.8 92.9 M 157.3 93.4 C 157.4 93.4 157.4 93.4 157.3 93.4 C 157.3 93.4 157.3 93.4 157.3 93.4 Z M 166.3 96.4 C 166.3 96.4 166.3 96.4 166.3 96.4 C 166.3 96.4 166.3 96.4 166.3 96.4 Z M 167.0 96.3 C 166.9 96.3 166.9 96.3 167.0 96.3 C 167.0 96.3 167.0 96.3 167.0 96.3 Z M 163.6 92.8 C 163.6 92.8 163.6 92.8 163.6 92.8 C 163.6 92.8 163.6 92.8 163.6 92.8 Z M 146.2 97.1 C 147.9 97.2 145.0 97.3 146.2 97.1 C 146.2 97.1 146.2 97.1 146.2 97.1 Z M 150.0 92.7 C 153.6 93.9 149.0 93.8 150.0 92.7 C 150.0 92.7 150.0 92.7 150.0 92.7 Z M 154.6 94.6 C 154.7 94.7 154.7 94.7 154.6 94.6 C 154.6 94.6 154.6 94.6 154.6 94.6 Z M 160.0 92.0 C 160.1 92.1 160.1 92.1 160.0 92.0 C 160.0 92.0 160.0 92.0 160.0 92.0 Z M 147.1 97.3 C 147.2 97.3 147.2 97.3 147.1 97.3 C 147.1 97.3 147.1 97.3 147.1 97.3 Z M 168.9 93.6 C 168.9 93.7 168.9 93.7 168.9 93.6 C 168.9 93.6 168.9 93.6 168.9 93.6 Z M 162.1 96.6 C 162.2 96.0 162.6 97.1 162.1 96.6 C 162.1 96.6 162.1 96.6 162.1 96.6 Z M 164.6 96.6 C 164.6 96.6 164.6 96.6 164.6 96.6 C 164.6 96.6 164.6 96.6 164.6 96.6 Z M 171.5 92.2 C 171.5 92.2 171.5 92.2 171.5 92.2 C 171.5 92.2 171.5 92.2 171.5 92.2 Z M 172.0 98.0 C 172.1 98.0 172.1 98.0 172.0 98.0 C 172.0 98.0 172.0 98.0 172.0 98.0 Z M 172.6 96.3 C 172.5 96.3 172.5 96.3 172.6 96.3 C 172.6 96.3 172.6 96.3 172.6 96.3 Z M 163.5 93.1 C 165.6 92.9 163.5 93.8 163.5 93.1 C 163.5 93.1 163.5 93.1 163.5 93.1 Z M 178.2 95.8 C 178.3 95.9 178.3 95.9 178.2 95.8 C 178.2 95.8 178.2 95.8 178.2 95.8 Z M 177.5 93.8 C 177.7 93.9 177.7 93.9 177.5 93.8 C 177.5 93.8 177.5 93.8 177.5 93.8 Z M 177.2 92.7 C 177.3 92.8 177.3 92.8 177.2 92.7 C 177.2 92.7 177.2 92.7 177.2 92.7 Z M 150.2 95.6 C 150.1 95.6 150.1 95.6 150.2 95.6 C 150.2 95.6 150.2 95.6 150.2 95.6 Z M 146.7 92.3 C 146.7 92.3 146.7 92.3 146.7 92.3 C 146.7 92.3 146.7 92.3 146.7 92.3 Z M 149.8 92.2 C 149.8 92.2 149.8 92.2 149.8 92.2 C 149.8 92.2 149.8 92.2 149.8 92.2 Z M 151.1 97.6 C 151.0 97.6 151.0 97.6 151.1 97.6 C 151.1 97.6 151.1 97.6 151.1 97.6 Z M 161.3 94.8 C 161.2 94.8 161.2 94.8 161.3 94.8 C 161.3 94.8 161.3 94.8 161.3 94.8 Z M 163.6 96.2 C 163.4 96.1 163.4 96.1 163.6 96.2 C 163.6 96.2 163.6 96.2 163.6 96.2 Z M 162.1 97.9 C 162.1 97.9 162.1 97.9 162.1 97.9 C 162.1 97.9 162.1 97.9 162.1 97.9 Z M 165.4 97.3 C 165.4 97.3 165.4 97.3 165.4 97.3 C 165.4 97.3 165.4 97.3 165.4 97.3 Z M 142.3 97.0 C 142.3 97.0 142.3 97.0 142.3 97.0 C 142.3 97.0 142.3 97.0 142.3 97.0 Z M 140.2 94.5 C 140.2 94.6 140.2 94.6 140.2 94.5 C 140.2 94.5 140.2 94.5 140.2 94.5 Z M 160.1 93.0 C 160.3 92.5 161.9 93.7 160.1 93.0 M 155.8 93.3 C 155.8 93.4 155.8 93.4 155.8 93.3 C 155.8 93.3 155.8 93.3 155.8 93.3 Z M 168.0 93.1 C 169.5 94.1 165.4 92.6 168.0 93.1 C 168.0 93.1 168.0 93.1 168.0 93.1 Z M 169.2 97.3 C 169.3 97.3 169.3 97.3 169.2 97.3 C 169.2 97.3 169.2 97.3 169.2 97.3 Z M 170.1 96.9 C 170.3 97.0 170.3 97.0 170.1 96.9 C 170.1 96.9 170.1 96.9 170.1 96.9 Z M 174.5 94.2 C 174.7 94.2 174.7 94.2 174.5 94.2 M 154.5 92.4 C 155.5 92.9 155.3 92.8 154.5 92.4 M 169.6 93.1 C 169.6 93.2 169.6 93.2 169.6 93.1 C 169.6 93.1 169.6 93.1 169.6 93.1 Z M 175.5 93.6 C 175.4 93.6 175.4 93.6 175.5 93.6 C 175.5 93.6 175.5 93.6 175.5 93.6 Z M 151.7 93.1 C 152.8 94.3 151.9 94.0 151.7 93.1 M 142.7 93.5 C 142.8 93.6 142.8 93.6 142.7 93.5 C 142.7 93.5 142.7 93.5 142.7 93.5 Z M 182.0 92.7 C 178.3 91.4 180.0 93.3 180.1 93.3 C 178.0 90.8 178.8 94.3 179.7 94.8 C 180.0 95.2 186.1 99.6 185.4 96.9 C 185.5 96.6 186.6 97.4 187.0 97.4 C 190.1 97.3 183.5 96.1 187.3 96.1 C 188.4 96.4 189.6 98.5 190.5 97.1 C 190.8 97.3 194.1 98.1 192.2 97.1 C 194.4 98.1 194.0 96.9 194.9 96.7 C 195.6 96.9 195.8 97.2 196.1 97.4 C 196.3 97.6 196.4 97.4 195.7 94.5 C 197.4 94.5 194.4 91.1 196.3 91.3 C 196.4 90.4 193.2 86.3 195.0 90.0 C 194.8 89.5 193.3 89.5 193.8 87.1 C 194.2 87.9 197.4 92.3 195.9 86.2 C 196.0 85.5 195.2 83.0 195.5 82.9 C 195.9 85.6 196.9 80.5 196.0 80.4 C 196.6 77.0 195.2 78.3 196.2 76.2 C 196.3 74.0 194.8 76.1 195.6 73.8 C 195.5 71.7 196.3 73.5 196.2 73.7 C 196.4 71.9 195.8 71.0 195.8 70.3 C 196.0 70.0 196.7 69.4 195.9 68.7 C 194.4 66.2 192.9 67.4 191.5 66.0 C 190.8 67.0 192.6 67.0 191.5 67.5 C 192.4 68.5 191.4 67.5 191.6 71.1 C 191.8 71.1 192.5 70.6 192.6 71.5 C 192.4 72.8 190.0 70.6 191.7 73.7 C 192.2 71.3 192.5 78.0 193.0 75.8 C 193.3 79.1 192.8 76.6 192.2 78.5 C 193.9 79.4 190.5 77.5 191.8 79.2 C 191.1 78.9 191.4 82.6 192.4 80.8 C 192.9 84.9 191.9 81.8 191.0 82.5 C 190.9 84.1 193.7 84.7 191.7 84.2 C 190.8 85.6 192.7 85.1 191.1 85.4 C 192.5 85.8 191.1 86.9 192.6 87.7 C 192.8 91.6 191.0 85.8 192.1 89.4 C 192.1 88.6 190.0 87.0 191.4 89.9 C 193.8 91.4 189.2 89.8 192.5 91.8 C 192.6 92.9 192.7 93.6 192.7 94.1 C 190.6 94.0 191.7 92.5 189.3 92.5 C 188.5 92.5 191.2 93.5 190.5 93.6 C 186.2 93.1 188.6 92.3 188.1 93.8 C 184.7 94.3 185.7 92.5 183.7 92.4 C 184.3 93.1 184.0 94.4 182.0 92.7 M 186.2 93.5 C 186.5 93.0 187.2 94.0 186.2 93.5 M 177.8 92.7 C 178.1 92.2 178.8 93.3 177.8 92.7 M 188.8 93.0 C 189.4 92.5 190.0 93.9 188.8 93.0 M 192.5 76.5 C 192.5 77.9 192.0 75.6 192.5 76.5 M 180.8 92.6 C 181.3 92.0 181.9 93.5 180.8 92.6 M 180.6 93.9 C 180.7 93.9 180.7 93.9 180.6 93.9 M 191.2 73.8 C 191.2 73.8 191.2 73.8 191.2 73.8 M 191.1 79.0 C 191.2 77.9 191.5 79.9 191.1 79.0 M 196.5 82.9 C 196.5 81.7 196.8 83.8 196.5 82.9 M 191.1 70.9 C 190.7 69.6 191.7 70.9 191.1 70.9 M 192.3 68.5 C 191.8 67.3 192.8 68.1 192.3 68.5 M 187.3 95.4 C 187.3 95.4 187.3 95.4 187.3 95.4 C 187.3 95.4 187.3 95.4 187.3 95.4 Z M 195.4 93.2 C 194.8 93.9 196.0 92.2 195.4 93.2 M 191.8 91.7 C 192.9 92.0 191.8 93.1 191.8 91.7 C 191.8 91.7 191.8 91.7 191.8 91.7 Z M 192.1 93.7 C 192.1 93.7 192.1 93.7 192.1 93.7 C 192.1 93.7 192.1 93.7 192.1 93.7 Z M 192.4 88.4 C 192.4 88.5 192.4 88.5 192.4 88.4 C 192.4 88.4 192.4 88.4 192.4 88.4 Z M 192.5 89.6 C 192.7 90.3 192.3 90.1 192.5 89.6 C 192.5 89.6 192.5 89.6 192.5 89.6 Z M 196.0 84.0 C 196.2 84.7 195.7 84.5 196.0 84.0 C 196.0 84.0 196.0 84.0 196.0 84.0 Z M 192.9 91.7 C 194.0 92.9 192.2 91.9 192.9 91.7 C 192.9 91.7 192.9 91.7 192.9 91.7 Z M 195.5 87.8 C 195.2 87.1 196.5 87.5 195.5 87.8 M 191.3 72.8 C 191.1 72.2 192.4 72.3 191.3 72.8 M 191.0 84.0 C 190.7 83.3 192.1 83.9 191.0 84.0 M 186.4 93.0 C 186.6 93.2 186.6 93.2 186.4 93.0 M 196.4 96.3 C 196.0 95.1 196.9 96.4 196.4 96.3 M 185.9 97.4 C 186.3 97.0 186.7 97.9 185.9 97.4 M 196.4 77.3 C 196.1 77.2 196.5 76.1 196.4 77.3 M 192.8 84.1 C 192.9 83.1 193.5 82.5 193.4 84.6 C 193.2 84.6 193.0 83.8 192.8 84.1 C 192.8 84.1 192.8 84.1 192.8 84.1 Z M 195.3 82.0 C 195.4 81.9 195.4 81.9 195.3 82.0 M 191.8 81.5 C 191.9 81.4 191.9 81.4 191.8 81.5 M 191.9 75.6 C 192.0 75.6 192.0 75.6 191.9 75.6 M 191.6 74.7 C 191.6 74.7 191.6 74.7 191.6 74.7 C 191.6 74.7 191.6 74.7 191.6 74.7 Z M 191.1 68.0 C 191.2 68.0 191.2 68.0 191.1 68.0 C 191.1 68.0 191.1 68.0 191.1 68.0 Z M 192.0 77.6 C 192.1 77.6 192.1 77.6 192.0 77.6 C 192.0 77.6 192.0 77.6 192.0 77.6 Z M 196.2 74.3 C 196.2 74.3 196.2 74.3 196.2 74.3 C 196.2 74.3 196.2 74.3 196.2 74.3 Z M 195.5 74.7 C 195.6 74.7 195.6 74.7 195.5 74.7 C 195.5 74.7 195.5 74.7 195.5 74.7 Z M 182.6 92.7 C 182.8 92.0 184.9 94.6 182.6 92.7 M 195.5 71.6 C 196.3 71.0 195.7 73.3 195.5 71.6 C 195.5 71.6 195.5 71.6 195.5 71.6 Z M 192.9 78.9 C 193.1 78.9 193.1 78.9 192.9 78.9 M 191.7 74.4 C 191.8 74.4 191.8 74.4 191.7 74.4 M 190.8 90.8 C 191.0 90.8 191.0 90.8 190.8 90.8 M 191.9 69.9 C 192.1 67.2 193.4 71.9 191.9 69.9 M 191.9 93.1 C 191.8 93.0 191.8 93.0 191.9 93.1 M 193.9 88.6 C 193.9 86.6 194.5 89.8 193.9 88.6 M 192.5 82.6 C 192.6 82.7 192.6 82.7 192.5 82.6 C 192.5 82.6 192.5 82.6 192.5 82.6 Z M 192.5 85.4 C 192.7 86.9 192.2 85.5 192.5 85.4 C 192.5 85.4 192.5 85.4 192.5 85.4 Z M 184.9 93.7 C 186.9 93.9 183.4 94.1 184.9 93.7 C 184.9 93.7 184.9 93.7 184.9 93.7 Z M 194.4 72.4 C 194.5 72.5 194.5 72.5 194.4 72.4 C 194.4 72.4 194.4 72.4 194.4 72.4 Z M 191.3 77.4 C 191.5 78.4 190.9 77.6 191.3 77.4 C 191.3 77.4 191.3 77.4 191.3 77.4 Z M 191.1 67.1 C 191.4 68.0 190.8 67.3 191.1 67.1 C 191.1 67.1 191.1 67.1 191.1 67.1 Z M 182.5 93.5 C 191.0 95.4 173.2 93.1 182.5 93.5 C 182.5 93.5 182.5 93.5 182.5 93.5 Z M 191.8 83.7 C 191.9 83.8 191.9 83.8 191.8 83.7 C 191.8 83.7 191.8 83.7 191.8 83.7 Z M 188.6 92.4 C 188.6 92.5 188.6 92.5 188.6 92.4 C 188.6 92.4 188.6 92.4 188.6 92.4 Z M 187.5 93.4 C 187.5 93.5 187.5 93.5 187.5 93.4 C 187.5 93.4 187.5 93.4 187.5 93.4 Z M 192.3 97.7 C 192.3 97.7 192.3 97.7 192.3 97.7 C 192.3 97.7 192.3 97.7 192.3 97.7 Z M 191.1 95.7 C 191.1 95.8 191.1 95.8 191.1 95.7 C 191.1 95.7 191.1 95.7 191.1 95.7 Z M 187.4 96.4 C 187.4 96.5 187.4 96.5 187.4 96.4 C 187.4 96.4 187.4 96.4 187.4 96.4 Z M 188.1 97.0 C 188.1 97.1 188.1 97.1 188.1 97.0 C 188.1 97.0 188.1 97.0 188.1 97.0 Z M 192.9 75.0 C 193.0 75.2 193.0 75.2 192.9 75.0 C 192.9 75.0 192.9 75.0 192.9 75.0 Z M 194.7 78.4 C 194.0 76.4 195.6 79.5 194.7 78.4 C 194.7 78.4 194.7 78.4 194.7 78.4 Z M 193.8 91.7 C 193.6 90.1 194.3 93.2 193.8 91.7 C 193.8 91.7 193.8 91.7 193.8 91.7 Z M 196.1 92.3 C 196.1 92.2 196.1 92.2 196.1 92.3 C 196.1 92.3 196.1 92.3 196.1 92.3 Z M 186.5 92.4 C 186.5 92.5 186.5 92.5 186.5 92.4 C 186.5 92.4 186.5 92.4 186.5 92.4 Z M 184.6 93.1 C 185.4 94.0 183.4 92.7 184.6 93.1 M 191.2 86.9 C 191.3 87.0 191.3 87.0 191.2 86.9 C 191.2 86.9 191.2 86.9 191.2 86.9 Z M 192.6 79.9 C 192.7 79.9 192.7 79.9 192.6 79.9 C 192.6 79.9 192.6 79.9 192.6 79.9 Z M 192.1 71.4 C 192.2 71.5 192.2 71.5 192.1 71.4 C 192.1 71.4 192.1 71.4 192.1 71.4 Z M 191.3 82.0 C 191.5 82.1 191.5 82.1 191.3 82.0 C 191.3 82.0 191.3 82.0 191.3 82.0 Z M 192.2 86.5 C 192.3 86.6 192.3 86.6 192.2 86.5 C 192.2 86.5 192.2 86.5 192.2 86.5 Z M 193.3 70.2 C 193.4 70.3 193.4 70.3 193.3 70.2 C 193.3 70.2 193.3 70.2 193.3 70.2 Z M 191.2 81.0 C 191.2 81.1 191.2 81.1 191.2 81.0 C 191.2 81.0 191.2 81.0 191.2 81.0 Z M 194.1 80.7 C 194.1 80.8 194.1 80.8 194.1 80.7 C 194.1 80.7 194.1 80.7 194.1 80.7 Z M 183.7 91.8 C 183.7 91.9 183.7 91.9 183.7 91.8 C 183.7 91.8 183.7 91.8 183.7 91.8 Z M 192.1 69.6 C 192.2 69.7 192.2 69.7 192.1 69.6 C 192.1 69.6 192.1 69.6 192.1 69.6 Z M 191.3 68.8 C 191.4 68.8 191.4 68.8 191.3 68.8 C 191.3 68.8 191.3 68.8 191.3 68.8 Z M 195.6 76.8 C 195.1 79.6 195.4 74.0 194.4 75.6 C 194.2 71.2 195.6 76.2 195.6 76.8 C 195.6 76.8 195.6 76.8 195.6 76.8 Z M 191.0 64.9 C 192.2 66.9 193.4 67.4 194.6 67.2 C 195.3 66.6 192.8 65.7 194.9 66.4 C 195.3 68.5 198.0 66.6 195.3 65.8 C 194.9 63.1 197.0 65.9 196.0 64.0 C 195.7 61.2 196.5 62.8 196.3 60.6 C 194.9 59.1 197.0 59.5 195.7 58.7 C 197.1 60.1 195.2 56.4 195.9 56.4 C 196.8 58.5 195.9 49.1 195.5 54.1 C 194.8 52.0 196.0 52.4 196.2 51.7 C 195.3 50.8 196.9 48.3 196.0 47.1 C 195.8 47.3 195.8 48.0 195.5 48.2 C 194.9 48.5 195.6 46.7 195.6 46.9 C 195.3 46.1 194.4 43.0 195.9 46.3 C 196.6 46.4 195.6 43.5 196.2 43.5 C 196.3 40.3 194.8 42.9 195.9 41.4 C 195.9 39.2 195.9 37.6 195.7 37.6 C 195.9 36.3 196.7 35.7 195.9 34.8 C 197.5 31.5 192.9 34.0 196.0 31.8 C 195.2 31.3 197.3 29.8 195.4 30.7 C 196.2 31.3 196.8 25.4 195.4 28.5 C 195.0 28.0 197.4 23.3 195.5 24.9 C 194.1 24.4 192.7 25.4 191.3 28.6 C 192.4 27.8 190.2 31.7 192.0 29.0 C 192.7 26.5 192.7 32.7 192.0 31.7 C 189.8 32.3 193.4 34.1 191.8 35.9 C 192.7 34.6 193.2 39.5 191.5 38.5 C 191.3 39.4 192.2 39.4 191.2 40.6 C 191.3 37.7 192.9 41.4 191.9 41.4 C 191.3 41.0 190.8 45.4 191.7 44.9 C 194.1 43.0 191.2 46.1 192.1 46.7 C 192.7 49.1 190.2 46.5 191.9 48.2 C 191.6 48.6 191.6 51.8 191.1 49.8 C 191.3 49.1 193.7 51.8 191.7 52.1 C 190.5 48.7 191.0 55.9 191.7 54.8 C 192.7 49.6 192.9 60.7 191.8 56.3 C 190.7 58.4 191.4 55.6 191.9 58.5 C 192.5 58.3 193.1 60.7 191.8 59.9 C 189.9 59.9 194.3 61.3 191.8 62.4 C 190.7 62.4 192.6 66.3 191.3 64.6 C 191.2 64.4 191.0 64.8 191.0 64.9 M 191.2 64.0 C 191.6 64.5 190.7 64.4 191.2 64.0 M 191.6 64.5 C 191.6 64.6 191.6 64.6 191.6 64.5 C 191.6 64.5 191.6 64.5 191.6 64.5 Z M 191.9 59.0 C 191.9 59.0 191.9 59.0 191.9 59.0 C 191.9 59.0 191.9 59.0 191.9 59.0 Z M 196.7 55.0 C 196.6 55.0 196.6 55.0 196.7 55.0 C 196.7 55.0 196.7 55.0 196.7 55.0 Z M 192.0 55.2 C 192.0 55.3 192.0 55.3 192.0 55.2 C 192.0 55.2 192.0 55.2 192.0 55.2 Z M 192.2 61.1 C 192.2 61.1 192.2 61.1 192.2 61.1 C 192.2 61.1 192.2 61.1 192.2 61.1 Z M 191.3 55.5 C 192.0 55.3 190.8 56.7 191.2 55.4 C 191.3 55.4 191.3 55.6 191.3 55.5 M 191.1 50.6 C 191.1 50.6 191.1 50.6 191.1 50.6 M 196.6 38.7 C 196.7 38.7 196.7 38.7 196.6 38.7 M 191.0 39.2 C 191.1 39.0 191.1 39.0 191.0 39.2 M 191.8 45.8 C 191.7 44.3 192.1 45.4 191.8 45.8 M 191.4 35.2 C 190.9 37.2 191.0 33.3 191.4 35.2 M 191.0 33.5 C 191.0 33.3 191.0 33.3 191.0 33.5 M 191.3 41.8 C 191.3 41.8 191.3 41.8 191.3 41.8 C 191.3 41.8 191.3 41.8 191.3 41.8 Z M 191.5 46.4 C 191.1 48.4 190.8 44.5 191.5 46.4 M 191.2 58.2 C 190.9 57.1 192.1 58.4 191.2 58.2 M 191.6 60.5 C 191.7 60.5 191.7 60.5 191.6 60.5 C 191.6 60.5 191.6 60.5 191.6 60.5 Z M 191.4 38.2 C 191.4 38.2 191.4 38.2 191.4 38.2 C 191.4 38.2 191.4 38.2 191.4 38.2 Z M 191.2 36.1 C 191.2 36.1 191.2 36.1 191.2 36.1 C 191.2 36.1 191.2 36.1 191.2 36.1 Z M 196.4 30.4 C 196.5 30.4 196.5 30.4 196.4 30.4 C 196.4 30.4 196.4 30.4 196.4 30.4 Z M 193.8 59.3 C 193.4 60.7 192.1 57.4 193.4 57.9 C 193.9 57.9 193.7 59.1 193.8 59.3 M 193.1 47.8 C 194.8 47.3 190.7 49.3 193.1 47.8 M 192.1 32.8 C 194.3 30.4 190.7 35.2 192.1 32.8 M 191.8 30.0 C 192.2 28.9 192.0 35.4 191.5 31.1 C 191.1 30.9 191.6 30.4 191.8 30.0 M 191.9 50.6 C 192.9 50.2 191.5 52.9 191.9 50.6 M 194.9 41.0 C 194.2 40.4 193.7 38.5 194.8 39.1 C 196.1 38.8 195.4 41.8 194.9 41.0 M 192.2 63.9 C 190.6 62.2 193.6 64.3 192.2 63.9 M 192.4 58.1 C 192.3 58.1 192.3 58.1 192.4 58.1 C 192.4 58.1 192.4 58.1 192.4 58.1 Z M 192.1 55.8 C 192.2 55.7 192.2 55.7 192.1 55.8 M 190.8 62.5 C 191.0 62.4 191.0 62.4 190.8 62.5 M 193.2 41.3 C 193.3 41.2 193.3 41.2 193.2 41.3 M 192.2 46.2 C 193.7 43.8 192.5 47.3 192.2 46.2 M 195.2 51.7 C 195.9 51.0 195.2 53.2 195.2 51.7 M 191.6 42.6 C 193.1 40.8 193.0 44.6 191.6 42.6 M 192.0 47.3 C 192.0 47.2 192.0 47.2 192.0 47.3 C 192.0 47.3 192.0 47.3 192.0 47.3 Z M 195.0 40.3 C 195.0 40.4 195.0 40.4 195.0 40.3 C 195.0 40.3 195.0 40.3 195.0 40.3 Z M 194.9 39.6 C 195.0 39.7 195.0 39.7 194.9 39.6 C 194.9 39.6 194.9 39.6 194.9 39.6 Z M 191.4 40.8 C 191.5 40.8 191.5 40.8 191.4 40.8 C 191.4 40.8 191.4 40.8 191.4 40.8 Z M 195.7 61.6 C 195.8 60.0 195.9 63.0 195.7 61.6 C 195.7 61.6 195.7 61.6 195.7 61.6 Z M 191.4 53.7 C 192.5 51.2 192.5 55.7 191.4 53.7 C 191.4 53.7 191.4 53.7 191.4 53.7 Z M 193.3 50.9 C 193.4 50.9 193.4 50.9 193.3 50.9 C 193.3 50.9 193.3 50.9 193.3 50.9 Z M 190.7 43.8 C 190.8 43.8 190.8 43.8 190.7 43.8 C 190.7 43.8 190.7 43.8 190.7 43.8 Z M 195.9 60.8 C 196.0 60.8 196.0 60.8 195.9 60.8 C 195.9 60.8 195.9 60.8 195.9 60.8 Z M 192.2 36.1 C 192.3 36.1 192.3 36.1 192.2 36.1 C 192.2 36.1 192.2 36.1 192.2 36.1 Z M 195.2 44.8 C 194.7 44.3 195.7 44.6 195.2 44.8 C 195.2 44.8 195.2 44.8 195.2 44.8 Z M 195.3 42.3 C 195.3 42.2 195.3 42.2 195.3 42.3 C 195.3 42.3 195.3 42.3 195.3 42.3 Z M 190.9 33.0 C 190.9 32.9 190.9 32.9 190.9 33.0 C 190.9 33.0 190.9 33.0 190.9 33.0 Z M 196.7 35.5 C 196.6 35.4 196.6 35.4 196.7 35.5 C 196.7 35.5 196.7 35.5 196.7 35.5 Z M 194.9 33.9 C 194.9 34.0 194.9 34.0 194.9 33.9 C 194.9 33.9 194.9 33.9 194.9 33.9 Z M 191.8 41.1 C 191.5 38.9 192.4 41.5 191.8 41.1 C 191.8 41.1 191.8 41.1 191.8 41.1 Z M 194.4 28.0 C 194.5 27.9 194.5 27.9 194.4 28.0 C 194.4 28.0 194.4 28.0 194.4 28.0 Z M 192.4 27.8 C 192.5 27.6 192.5 27.6 192.4 27.8 C 192.4 27.8 192.4 27.8 192.4 27.8 Z M 191.4 27.7 C 191.4 27.6 191.4 27.6 191.4 27.7 C 191.4 27.7 191.4 27.7 191.4 27.7 Z M 194.3 56.1 C 194.2 56.2 194.2 56.2 194.3 56.1 C 194.3 56.1 194.3 56.1 194.3 56.1 Z M 191.0 56.6 C 191.0 56.6 191.0 56.6 191.0 56.6 C 191.0 56.6 191.0 56.6 191.0 56.6 Z M 190.8 53.5 C 190.8 53.5 190.8 53.5 190.8 53.5 C 190.8 53.5 190.8 53.5 190.8 53.5 Z M 196.3 57.0 C 196.2 57.1 196.2 57.1 196.3 57.0 C 196.3 57.0 196.3 57.0 196.3 57.0 Z M 193.5 44.4 C 193.4 44.4 193.4 44.4 193.5 44.4 C 193.5 44.4 193.5 44.4 193.5 44.4 Z M 194.8 43.0 C 194.7 43.1 194.7 43.1 194.8 43.0 C 194.8 43.0 194.8 43.0 194.8 43.0 Z M 196.6 45.8 C 196.5 45.8 196.5 45.8 196.6 45.8 C 196.6 45.8 196.6 45.8 196.6 45.8 Z M 195.9 41.9 C 195.9 41.9 195.9 41.9 195.9 41.9 C 195.9 41.9 195.9 41.9 195.9 41.9 Z M 195.7 65.6 C 195.7 65.6 195.7 65.6 195.7 65.6 C 195.7 65.6 195.7 65.6 195.7 65.6 Z M 193.1 65.0 C 193.2 65.1 193.2 65.1 193.1 65.0 C 193.1 65.0 193.1 65.0 193.1 65.0 Z M 191.6 44.2 C 191.1 43.8 192.4 43.1 191.6 44.2 M 192.0 48.7 C 192.0 48.7 192.0 48.7 192.0 48.7 C 192.0 48.7 192.0 48.7 192.0 48.7 Z M 191.7 36.7 C 192.7 35.8 191.2 38.9 191.7 36.7 C 191.7 36.7 191.7 36.7 191.7 36.7 Z M 195.9 38.0 C 196.0 37.9 196.0 37.9 195.9 38.0 C 195.9 38.0 195.9 38.0 195.9 38.0 Z M 195.5 36.8 C 195.6 36.7 195.6 36.7 195.5 36.8 C 195.5 36.8 195.5 36.8 195.5 36.8 Z M 192.8 30.9 C 192.9 30.8 192.9 30.8 192.8 30.9 M 191.1 49.3 C 191.5 48.6 191.4 48.8 191.1 49.3 M 191.8 35.1 C 191.8 35.2 191.8 35.2 191.8 35.1 C 191.8 35.1 191.8 35.1 191.8 35.1 Z M 192.2 29.7 C 192.3 29.8 192.3 29.8 192.2 29.7 C 192.2 29.7 192.2 29.7 192.2 29.7 Z M 191.7 52.5 C 193.0 52.4 192.7 53.0 191.7 52.5 M 192.1 61.5 C 192.2 61.5 192.2 61.5 192.1 61.5 C 192.1 61.5 192.1 61.5 192.1 61.5 Z M 192.3 22.2 C 190.8 28.4 193.4 25.7 193.9 25.7 C 194.7 26.0 195.1 25.0 195.6 23.6 C 197.3 21.4 193.9 22.8 195.6 20.9 C 197.9 17.8 193.6 20.4 196.0 18.1 C 196.6 18.0 196.1 16.0 196.0 16.3 C 197.1 14.3 195.1 14.2 194.9 14.4 C 195.2 13.4 197.3 11.6 195.7 10.5 C 195.2 9.2 197.3 6.5 195.8 8.3 C 197.5 5.4 195.3 7.8 195.9 6.0 C 196.8 4.2 194.5 7.2 196.2 3.9 C 195.2 4.3 196.3 4.0 196.4 2.3 C 195.9 2.2 195.2 2.3 193.9 2.5 C 195.9 2.6 190.7 3.6 192.5 2.7 C 195.0 1.7 190.0 3.0 188.6 2.4 C 187.6 3.0 184.0 4.2 185.7 2.8 C 185.0 1.3 182.7 3.8 182.9 2.5 C 182.7 2.0 181.4 3.1 181.0 3.0 C 181.1 2.1 179.9 2.7 177.6 2.4 C 172.2 1.9 174.7 4.9 172.3 5.3 C 171.6 5.7 172.1 8.9 172.8 6.5 C 172.7 7.2 179.2 4.7 174.8 7.3 C 177.4 6.3 173.5 8.4 178.0 7.2 C 174.8 5.3 183.9 6.4 178.6 7.3 C 178.9 7.9 180.8 7.8 179.9 7.3 C 180.9 5.6 182.4 8.1 182.4 6.0 C 184.8 6.6 185.7 4.7 185.3 6.0 C 183.9 8.3 185.7 5.5 186.6 6.1 C 190.0 6.1 184.9 8.7 188.6 7.0 C 190.8 8.1 190.2 6.0 191.7 5.7 C 192.4 5.1 193.0 5.2 193.1 5.6 C 193.3 6.0 192.9 6.8 191.6 7.1 C 191.4 7.1 191.3 7.1 191.2 7.1 C 191.4 7.0 191.6 7.0 191.7 6.9 C 192.0 7.4 190.9 7.8 191.8 8.2 C 193.2 5.7 190.3 11.5 191.4 10.0 C 191.8 11.0 192.6 9.6 192.6 9.9 C 192.6 11.9 191.3 12.6 192.3 12.0 C 192.9 12.0 191.0 14.5 191.5 14.4 C 191.6 12.3 193.0 14.8 192.2 15.7 C 192.1 14.5 190.4 17.7 191.5 17.7 C 194.6 14.2 190.7 20.0 191.8 20.1 C 193.5 18.0 192.0 24.4 191.2 22.9 C 191.3 22.9 192.3 22.1 192.3 22.2 M 191.7 14.7 C 191.9 13.0 192.1 16.3 191.7 14.7 M 191.3 15.2 C 191.9 14.0 190.8 17.1 191.1 15.3 C 191.1 15.2 191.2 15.3 191.3 15.2 M 191.2 8.4 C 191.7 8.2 190.9 9.6 191.2 8.4 M 192.0 6.4 C 191.6 6.1 192.2 6.1 192.5 6.2 C 192.6 6.2 192.6 6.3 192.3 6.3 C 192.2 6.3 192.1 6.4 192.0 6.4 M 176.0 6.7 C 179.8 4.1 176.5 8.1 176.0 6.7 M 185.9 7.2 C 188.1 6.9 184.2 8.3 185.9 7.2 M 187.0 6.6 C 188.3 6.2 186.7 7.2 187.0 6.6 M 179.0 6.7 C 178.9 6.7 178.9 6.7 179.0 6.7 C 179.0 6.7 179.0 6.7 179.0 6.7 Z M 174.4 6.6 C 174.4 6.7 174.4 6.7 174.4 6.6 C 174.4 6.6 174.4 6.6 174.4 6.6 Z M 183.7 6.4 C 184.6 7.0 181.2 6.7 183.7 6.4 C 183.7 6.4 183.7 6.4 183.7 6.4 Z M 179.9 2.7 C 180.0 2.7 180.0 2.7 179.9 2.7 C 179.9 2.7 179.9 2.7 179.9 2.7 Z M 192.9 15.1 C 192.9 15.2 192.9 15.2 192.9 15.1 C 192.9 15.1 192.9 15.1 192.9 15.1 Z M 191.9 21.1 C 192.3 20.8 191.7 22.2 191.9 21.1 C 191.9 21.1 191.9 21.1 191.9 21.1 Z M 194.9 23.5 C 194.9 23.6 194.9 23.6 194.9 23.5 C 194.9 23.5 194.9 23.5 194.9 23.5 Z M 194.3 15.9 C 194.3 15.9 194.3 15.9 194.3 15.9 C 194.3 15.9 194.3 15.9 194.3 15.9 Z M 192.4 16.6 C 190.9 18.5 192.7 14.3 192.4 16.6 C 192.4 16.6 192.4 16.6 192.4 16.6 Z M 188.8 2.9 C 188.2 3.5 187.7 2.7 188.8 2.9 C 188.8 2.9 188.8 2.9 188.8 2.9 Z M 192.3 5.8 C 191.8 6.1 191.7 5.6 192.3 5.8 C 192.3 5.8 192.3 5.8 192.3 5.8 Z M 190.9 10.0 C 190.6 10.1 191.1 9.1 190.9 10.0 C 190.9 10.0 190.9 10.0 190.9 10.0 Z M 191.5 21.2 C 191.5 21.2 191.5 21.2 191.5 21.2 C 191.5 21.2 191.5 21.2 191.5 21.2 Z M 192.6 18.6 C 191.3 20.8 193.3 16.1 192.6 18.6 C 192.6 18.6 192.6 18.6 192.6 18.6 Z M 193.0 20.6 C 193.5 19.6 192.8 22.4 193.0 20.6 M 195.0 17.9 C 194.5 16.7 197.4 17.9 195.0 17.9 C 195.0 17.9 195.0 17.9 195.0 17.9 Z M 195.6 8.9 C 195.6 8.8 195.6 8.8 195.6 8.9 C 195.6 8.9 195.6 8.9 195.6 8.9 Z M 191.7 13.2 C 191.7 11.7 192.0 13.8 191.7 13.2 C 191.7 13.2 191.7 13.2 191.7 13.2 Z M 191.4 25.2 C 191.4 23.8 191.7 25.9 191.4 25.2 C 191.4 25.2 191.4 25.2 191.4 25.2 Z M 194.3 5.2 C 194.1 3.1 195.0 6.0 194.3 5.2 C 194.3 5.2 194.3 5.2 194.3 5.2 Z M 185.0 5.9 C 185.0 5.9 185.0 5.9 185.0 5.9 C 185.0 5.9 185.0 5.9 185.0 5.9 Z M 182.9 6.5 C 182.9 6.4 182.9 6.4 182.9 6.5 C 182.9 6.5 182.9 6.5 182.9 6.5 Z M 177.5 5.1 C 177.4 5.1 177.4 5.1 177.5 5.1 C 177.5 5.1 177.5 5.1 177.5 5.1 Z M 180.9 7.1 C 180.9 7.1 180.9 7.1 180.9 7.1 C 180.9 7.1 180.9 7.1 180.9 7.1 Z M 176.7 6.8 C 176.6 6.7 176.6 6.7 176.7 6.8 C 176.7 6.8 176.7 6.8 176.7 6.8 Z M 176.4 7.9 C 176.3 7.9 176.3 7.9 176.4 7.9 C 176.4 7.9 176.4 7.9 176.4 7.9 Z M 191.8 2.1 C 191.8 2.1 191.8 2.1 191.8 2.1 C 191.8 2.1 191.8 2.1 191.8 2.1 Z M 191.1 19.1 C 191.2 18.9 191.2 18.9 191.1 19.1 C 191.1 19.1 191.1 19.1 191.1 19.1 Z M 177.5 6.2 C 177.5 6.2 177.5 6.2 177.5 6.2 C 177.5 6.2 177.5 6.2 177.5 6.2 Z M 189.7 5.2 C 190.7 4.1 189.2 6.7 189.3 5.2 C 189.4 5.2 189.6 5.4 189.7 5.2 M 189.9 3.3 C 190.0 3.3 190.0 3.3 189.9 3.3 C 189.9 3.3 189.9 3.3 189.9 3.3 Z M 195.8 2.6 C 195.9 2.6 195.9 2.6 195.8 2.6 C 195.8 2.6 195.8 2.6 195.8 2.6 Z M 181.5 7.3 C 181.2 8.0 180.7 6.8 181.7 7.3 M 179.1 3.1 C 178.8 3.8 178.2 2.6 179.3 3.1 M 191.8 26.5 C 192.3 26.5 191.5 27.6 191.8 26.5 M 196.6 3.0 C 197.1 2.7 196.3 4.3 196.6 3.0 M 193.7 3.5 C 193.3 4.1 192.9 3.0 193.9 3.4 M 182.6 3.2 C 182.6 3.2 182.6 3.2 182.6 3.2 C 182.6 3.2 182.6 3.2 182.6 3.2 Z M 191.8 11.0 C 191.8 10.9 191.8 10.9 191.8 11.0 C 191.8 11.0 191.8 11.0 191.8 11.0 Z M 191.2 5.5 C 191.2 6.4 190.7 4.9 191.2 5.5 M 193.3 11.4 C 192.2 13.5 193.7 9.1 193.3 11.4 M 176.6 2.9 C 176.9 4.2 176.1 2.2 176.6 2.9 M 180.8 6.1 C 181.0 7.4 180.4 5.4 180.8 6.1 M 192.4 9.2 C 191.7 9.9 192.8 7.5 192.4 9.2 M 191.7 23.5 C 191.6 24.8 191.2 22.2 191.7 23.5 M 186.1 3.1 C 186.1 3.1 186.1 3.1 186.1 3.1 C 186.1 3.1 186.1 3.1 186.1 3.1 Z M 196.7 15.9 C 196.7 15.7 196.7 15.7 196.7 15.9 C 196.7 15.9 196.7 15.9 196.7 15.9 Z M 171.4 7.1 C 171.4 7.1 171.4 7.1 171.4 7.1 C 171.4 7.1 171.4 7.1 171.4 7.1 Z M 182.1 5.5 C 182.2 5.4 182.2 5.4 182.1 5.5 C 182.1 5.5 182.1 5.5 182.1 5.5 Z M 173.9 7.3 C 173.9 7.2 173.9 7.2 173.9 7.3 C 173.9 7.3 173.9 7.3 173.9 7.3 Z M 187.4 4.5 C 187.4 4.5 187.4 4.5 187.4 4.5 C 187.4 4.5 187.4 4.5 187.4 4.5 Z M 185.1 7.8 C 185.1 7.8 185.1 7.8 185.1 7.8 C 185.1 7.8 185.1 7.8 185.1 7.8 Z M 191.1 6.4 C 191.1 6.4 191.1 6.4 191.1 6.4 C 191.1 6.4 191.1 6.4 191.1 6.4 Z M 183.3 7.5 C 180.4 7.7 185.7 6.4 183.3 7.5 C 183.3 7.5 183.3 7.5 183.3 7.5 Z M 191.2 4.2 C 191.2 4.2 191.2 4.2 191.2 4.2 C 191.2 4.2 191.2 4.2 191.2 4.2 Z M 189.4 6.6 C 186.7 7.5 190.0 5.0 189.4 6.6 M 191.3 12.2 C 190.8 12.2 192.1 11.3 191.3 12.2 M 195.6 11.7 C 195.7 11.6 195.7 11.6 195.6 11.7 C 195.6 11.7 195.6 11.7 195.6 11.7 Z M 195.3 11.1 C 195.3 10.9 195.3 10.9 195.3 11.1 C 195.3 11.1 195.3 11.1 195.3 11.1 Z M 191.1 14.2 C 191.1 14.1 191.1 14.1 191.1 14.2 C 191.1 14.2 191.1 14.2 191.1 14.2 Z M 196.5 9.9 C 196.6 9.8 196.6 9.8 196.5 9.9 C 196.5 9.9 196.5 9.9 196.5 9.9 Z M 186.3 7.7 C 186.3 7.7 186.3 7.7 186.3 7.7 C 186.3 7.7 186.3 7.7 186.3 7.7 Z M 172.2 7.8 C 172.1 7.7 172.1 7.7 172.2 7.8 C 172.2 7.8 172.2 7.8 172.2 7.8 Z M 195.2 20.9 C 195.2 20.8 195.2 20.8 195.2 20.9 C 195.2 20.9 195.2 20.9 195.2 20.9 Z M 186.0 6.4 C 186.0 6.4 186.0 6.4 186.0 6.4 C 186.0 6.4 186.0 6.4 186.0 6.4 Z M 195.4 13.9 C 195.5 13.9 195.5 13.9 195.4 13.9 C 195.4 13.9 195.4 13.9 195.4 13.9 Z M 186.7 6.7 C 186.7 6.7 186.7 6.7 186.7 6.7 C 186.7 6.7 186.7 6.7 186.7 6.7 Z M 186.8 2.8 C 186.8 2.8 186.8 2.8 186.8 2.8 C 186.8 2.8 186.8 2.8 186.8 2.8 Z M 184.3 2.1 C 184.3 2.1 184.3 2.1 184.3 2.1 C 184.3 2.1 184.3 2.1 184.3 2.1 Z M 185.0 5.1 C 184.9 5.1 184.9 5.1 185.0 5.1 C 185.0 5.1 185.0 5.1 185.0 5.1 Z M 194.0 16.1 C 192.9 22.5 193.5 11.9 194.0 16.1 M 184.2 4.9 C 188.0 5.1 179.9 6.2 184.2 4.9 C 183.5 5.2 184.1 4.9 184.2 4.9 M 167.2 7.3 C 168.6 8.6 170.1 6.7 170.1 6.7 C 167.9 9.2 173.1 5.7 173.0 5.2 C 173.4 4.8 174.8 0.4 170.9 3.1 C 170.2 3.4 170.5 2.6 170.2 2.6 C 166.9 2.7 171.3 3.9 167.5 3.9 C 167.0 3.6 169.3 1.5 166.0 2.9 C 166.1 2.7 164.0 1.9 164.3 2.9 C 163.7 1.9 162.1 3.1 160.8 3.3 C 160.2 2.8 162.7 1.8 158.2 3.0 C 157.7 1.2 155.3 4.3 154.9 2.3 C 154.0 2.3 150.8 5.5 154.0 3.7 C 153.6 3.9 154.0 5.4 151.5 4.8 C 152.1 4.4 155.6 1.2 150.0 2.7 C 149.3 2.7 147.1 3.5 146.9 3.1 C 149.4 2.8 144.3 1.7 144.4 2.7 C 141.0 2.0 142.5 3.5 140.3 2.4 C 138.1 2.4 140.4 3.9 138.0 3.0 C 135.9 3.2 137.6 2.4 137.8 2.4 C 136.0 2.3 135.2 2.9 134.6 2.8 C 134.2 2.6 133.6 2.0 132.9 2.8 C 130.6 4.3 131.8 5.7 130.4 7.2 C 131.5 7.9 131.4 6.1 131.9 7.2 C 132.9 6.2 132.0 7.2 135.7 7.0 C 135.7 6.8 135.0 6.2 136.0 6.1 C 137.3 6.2 135.3 8.7 138.4 6.9 C 135.8 6.4 142.6 6.1 140.2 5.6 C 143.6 5.3 141.1 5.8 143.1 6.4 C 143.8 4.7 142.4 8.2 143.9 6.9 C 143.8 7.5 147.6 7.2 145.5 6.2 C 149.5 5.8 146.6 6.7 147.5 7.6 C 149.2 7.7 149.0 4.9 149.0 7.0 C 150.8 7.9 149.7 5.9 150.4 7.5 C 150.5 6.1 152.1 7.6 152.3 6.0 C 156.3 5.9 150.9 7.6 154.3 6.6 C 153.4 6.5 152.5 8.6 155.0 7.2 C 155.8 4.8 155.8 9.4 156.6 6.2 C 162.7 5.2 156.7 7.5 159.6 7.5 C 160.4 7.5 159.5 6.5 160.2 6.4 C 163.7 6.9 160.0 7.7 163.0 6.2 C 167.1 5.7 163.2 7.5 164.9 7.6 C 165.6 6.9 168.1 5.6 167.2 7.3 M 164.4 6.5 C 163.2 7.0 164.3 6.0 164.4 6.5 M 171.3 7.3 C 170.2 7.8 171.3 6.7 171.3 7.3 M 160.9 7.0 C 159.6 7.5 161.2 6.1 160.9 7.0 M 141.1 6.2 C 142.5 6.2 140.3 6.6 141.1 6.2 M 168.3 7.4 C 166.7 8.0 168.6 6.5 168.3 7.4 M 170.6 6.1 C 170.6 6.1 170.6 6.1 170.6 6.1 M 138.5 7.5 C 138.5 7.5 138.5 7.5 138.5 7.5 M 143.9 7.5 C 142.8 7.5 144.7 7.2 143.9 7.5 M 146.7 2.1 C 145.5 2.1 147.6 1.8 146.7 2.1 M 135.5 7.6 C 134.2 8.0 135.4 7.0 135.5 7.6 M 133.0 6.4 C 131.8 6.9 132.5 5.8 133.0 6.4 M 166.4 4.6 C 166.4 4.6 166.4 4.6 166.4 4.6 C 166.4 4.6 166.4 4.6 166.4 4.6 Z M 157.0 3.3 C 157.9 3.8 155.9 2.6 157.0 3.3 M 156.7 6.8 C 156.6 5.7 158.2 6.9 156.7 6.8 C 156.7 6.8 156.7 6.8 156.7 6.8 Z M 158.8 6.3 C 158.8 6.3 158.8 6.3 158.8 6.3 C 158.8 6.3 158.8 6.3 158.8 6.3 Z M 153.2 6.2 C 153.2 6.2 153.2 6.2 153.2 6.2 C 153.2 6.2 153.2 6.2 153.2 6.2 Z M 154.4 6.2 C 155.0 5.9 154.9 6.4 154.4 6.2 C 154.4 6.2 154.4 6.2 154.4 6.2 Z M 147.9 2.7 C 148.5 2.5 148.5 2.9 147.9 2.7 C 147.9 2.7 147.9 2.7 147.9 2.7 Z M 156.4 5.8 C 157.2 4.7 156.8 6.5 156.4 5.8 C 156.4 5.8 156.4 5.8 156.4 5.8 Z M 151.7 3.2 C 151.0 3.5 151.2 2.1 151.7 3.2 M 137.5 7.3 C 136.8 7.6 136.8 6.3 137.5 7.3 M 149.1 7.6 C 148.5 7.9 148.6 6.6 149.1 7.6 M 163.4 7.0 C 163.4 6.8 163.4 6.8 163.4 7.0 M 159.8 2.2 C 158.7 2.6 159.6 1.8 159.8 2.2 M 171.2 2.6 C 170.1 3.0 171.2 2.1 171.2 2.6 M 141.3 2.3 C 141.2 2.5 140.1 2.1 141.3 2.3 M 148.6 5.9 C 147.7 5.7 146.9 5.1 149.1 5.2 C 149.1 5.5 148.3 5.6 148.6 5.9 C 148.6 5.9 148.6 5.9 148.6 5.9 Z M 146.1 3.4 C 146.0 3.3 146.0 3.3 146.1 3.4 M 146.3 6.9 C 146.2 6.8 146.2 6.8 146.3 6.9 M 140.2 6.8 C 140.2 6.6 140.2 6.6 140.2 6.8 M 139.3 7.1 C 139.4 7.0 139.4 7.0 139.3 7.1 C 139.3 7.1 139.3 7.1 139.3 7.1 Z M 132.5 7.5 C 132.6 7.5 132.6 7.5 132.5 7.5 C 132.5 7.5 132.5 7.5 132.5 7.5 Z M 142.2 6.6 C 142.3 6.6 142.3 6.6 142.2 6.6 C 142.2 6.6 142.2 6.6 142.2 6.6 Z M 138.4 2.5 C 138.4 2.4 138.4 2.4 138.4 2.5 C 138.4 2.5 138.4 2.5 138.4 2.5 Z M 138.9 3.1 C 138.9 3.1 138.9 3.1 138.9 3.1 C 138.9 3.1 138.9 3.1 138.9 3.1 Z M 166.6 7.3 C 165.2 8.0 167.5 5.4 166.6 7.3 M 135.8 3.1 C 135.2 2.4 137.5 3.0 135.8 3.1 C 135.8 3.1 135.8 3.1 135.8 3.1 Z M 143.4 5.7 C 143.4 5.6 143.4 5.6 143.4 5.7 M 139.0 7.0 C 139.0 6.8 139.0 6.8 139.0 7.0 M 156.1 7.8 C 156.2 7.7 156.2 7.7 156.1 7.8 M 134.4 6.8 C 131.7 6.5 136.3 5.2 134.4 6.8 M 158.1 6.8 C 158.1 6.9 158.1 6.9 158.1 6.8 M 152.9 4.7 C 150.9 4.8 153.9 4.1 152.9 4.7 M 147.2 6.1 C 147.3 6.0 147.3 6.0 147.2 6.1 C 147.2 6.1 147.2 6.1 147.2 6.1 Z M 150.1 6.1 C 151.5 5.9 150.2 6.4 150.1 6.1 C 150.1 6.1 150.1 6.1 150.1 6.1 Z M 166.0 6.3 C 164.3 6.1 168.1 5.9 166.0 6.3 C 166.0 6.3 166.0 6.3 166.0 6.3 Z M 136.7 4.2 C 136.8 4.2 136.8 4.2 136.7 4.2 C 136.7 4.2 136.7 4.2 136.7 4.2 Z M 142.2 7.4 C 143.2 7.1 142.5 7.7 142.2 7.4 C 142.2 7.4 142.2 7.4 142.2 7.4 Z M 131.5 7.5 C 132.5 7.2 131.8 7.8 131.5 7.5 C 131.5 7.5 131.5 7.5 131.5 7.5 Z M 168.0 6.5 C 162.7 4.6 176.5 6.9 168.0 6.5 C 168.0 6.5 168.0 6.5 168.0 6.5 Z M 148.5 6.8 C 148.6 6.8 148.6 6.8 148.5 6.8 C 148.5 6.8 148.5 6.8 148.5 6.8 Z M 160.2 7.6 C 160.2 7.5 160.2 7.5 160.2 7.6 C 160.2 7.6 160.2 7.6 160.2 7.6 Z M 162.9 6.6 C 163.0 6.5 163.0 6.5 162.9 6.6 C 162.9 6.6 162.9 6.6 162.9 6.6 Z M 165.2 2.3 C 165.3 2.3 165.3 2.3 165.2 2.3 C 165.2 2.3 165.2 2.3 165.2 2.3 Z M 163.1 4.3 C 163.3 4.2 163.3 4.2 163.1 4.3 C 163.1 4.3 163.1 4.3 163.1 4.3 Z M 168.0 3.6 C 168.1 3.5 168.1 3.5 168.0 3.6 C 168.0 3.6 168.0 3.6 168.0 3.6 Z M 168.4 3.0 C 168.4 2.9 168.4 2.9 168.4 3.0 C 168.4 3.0 168.4 3.0 168.4 3.0 Z M 139.5 5.8 C 139.6 5.7 139.6 5.7 139.5 5.8 C 139.5 5.8 139.5 5.8 139.5 5.8 Z M 142.6 4.0 C 140.8 4.6 143.5 3.1 142.6 4.0 C 142.6 4.0 142.6 4.0 142.6 4.0 Z M 156.1 4.9 C 154.5 5.1 157.4 4.3 156.1 4.9 C 156.1 4.9 156.1 4.9 156.1 4.9 Z M 155.9 2.5 C 155.9 2.5 155.9 2.5 155.9 2.5 C 155.9 2.5 155.9 2.5 155.9 2.5 Z M 162.2 7.6 C 162.3 7.5 162.3 7.5 162.2 7.6 C 162.2 7.6 162.2 7.6 162.2 7.6 Z M 165.3 6.9 C 166.0 6.0 165.7 7.3 165.3 6.9 M 151.9 7.4 C 152.0 7.3 152.0 7.3 151.9 7.4 C 151.9 7.4 151.9 7.4 151.9 7.4 Z M 144.4 6.0 C 144.5 5.9 144.5 5.9 144.4 6.0 C 144.4 6.0 144.4 6.0 144.4 6.0 Z M 136.0 6.6 C 136.1 6.5 136.1 6.5 136.0 6.6 C 136.0 6.6 136.0 6.6 136.0 6.6 Z M 146.9 7.3 C 147.0 7.2 147.0 7.2 146.9 7.3 C 146.9 7.3 146.9 7.3 146.9 7.3 Z M 151.3 6.5 C 151.4 6.4 151.4 6.4 151.3 6.5 C 151.3 6.5 151.3 6.5 151.3 6.5 Z M 134.6 5.3 C 134.7 5.3 134.7 5.3 134.6 5.3 C 134.6 5.3 134.6 5.3 134.6 5.3 Z M 145.9 7.4 C 146.0 7.4 146.0 7.4 145.9 7.4 C 145.9 7.4 145.9 7.4 145.9 7.4 Z M 145.0 4.6 C 145.1 4.5 145.1 4.5 145.0 4.6 C 145.0 4.6 145.0 4.6 145.0 4.6 Z M 164.0 8.2 C 164.0 8.1 164.0 8.1 164.0 8.2 C 164.0 8.2 164.0 8.2 164.0 8.2 Z M 134.1 6.5 C 134.2 6.5 134.2 6.5 134.1 6.5 C 134.1 6.5 134.1 6.5 134.1 6.5 Z M 133.3 7.3 C 133.4 7.3 133.4 7.3 133.3 7.3 C 133.3 7.3 133.3 7.3 133.3 7.3 Z M 140.9 3.0 C 143.7 3.6 138.1 3.2 139.9 4.2 C 135.6 4.5 140.3 3.0 140.9 3.0 C 140.9 3.0 140.9 3.0 140.9 3.0 Z M 129.3 7.6 C 131.4 6.4 131.8 5.3 131.5 4.0 C 130.9 3.4 130.1 5.8 130.7 3.8 C 132.8 3.4 130.9 0.7 130.1 3.3 C 127.5 3.7 130.2 1.6 128.4 2.7 C 125.6 3.0 127.2 2.1 125.1 2.3 C 123.5 3.8 124.1 1.6 123.2 3.0 C 124.6 1.5 120.9 3.4 121.0 2.7 C 123.1 1.8 113.8 2.7 118.6 3.1 C 116.5 3.8 117.1 2.6 116.5 2.4 C 115.4 3.3 113.2 1.7 111.9 2.6 C 112.1 2.8 112.7 2.9 112.8 3.1 C 113.1 3.7 111.5 3.0 111.7 3.1 C 110.8 3.4 107.5 4.3 111.1 2.7 C 111.4 2.0 108.2 3.1 108.4 2.4 C 105.4 2.4 107.5 3.8 106.3 2.8 C 104.1 2.7 102.6 2.7 102.6 2.9 C 101.3 2.7 101.0 1.9 99.9 2.7 C 97.2 1.1 98.0 5.8 97.0 2.7 C 96.3 3.4 95.5 1.4 95.6 3.3 C 96.5 2.4 91.1 1.8 93.5 3.2 C 92.9 3.7 89.3 1.2 90.0 3.2 C 88.9 4.6 89.3 6.0 91.9 7.3 C 91.6 6.2 94.7 8.5 92.7 6.6 C 90.4 6.0 96.7 5.9 95.4 6.6 C 95.1 8.9 98.3 5.2 99.7 6.8 C 98.6 5.9 103.7 5.5 102.1 7.2 C 103.1 7.3 103.3 6.5 104.3 7.5 C 101.3 7.3 105.5 5.7 105.3 6.7 C 104.7 7.4 109.1 7.9 108.8 6.9 C 107.4 4.6 109.9 7.4 110.8 6.5 C 113.3 6.0 110.1 8.5 112.2 6.8 C 112.6 7.1 115.9 7.1 113.7 7.5 C 113.0 7.3 116.1 5.0 116.1 7.0 C 112.5 8.1 120.0 7.6 119.0 7.0 C 113.7 5.9 125.0 5.8 120.5 6.8 C 122.6 7.9 119.7 7.3 122.8 6.8 C 122.5 6.2 125.1 5.6 124.2 6.8 C 124.1 8.7 125.7 4.3 126.8 6.9 C 126.7 8.0 130.7 6.1 129.0 7.3 C 128.8 7.4 129.3 7.7 129.3 7.6 M 128.4 7.4 C 128.9 7.0 128.8 8.0 128.4 7.4 M 128.9 7.0 C 128.9 7.0 128.9 7.0 128.9 7.0 C 128.9 7.0 128.9 7.0 128.9 7.0 Z M 123.2 6.7 C 123.3 6.8 123.3 6.8 123.2 6.7 C 123.2 6.7 123.2 6.7 123.2 6.7 Z M 119.7 2.0 C 119.7 2.0 119.7 2.0 119.7 2.0 C 119.7 2.0 119.7 2.0 119.7 2.0 Z M 119.4 6.6 C 119.5 6.6 119.5 6.6 119.4 6.6 C 119.4 6.6 119.4 6.6 119.4 6.6 Z M 125.4 6.4 C 125.4 6.4 125.4 6.4 125.4 6.4 C 125.4 6.4 125.4 6.4 125.4 6.4 Z M 119.6 7.3 C 119.5 6.6 120.8 7.8 119.5 7.4 C 119.5 7.4 119.7 7.4 119.6 7.3 M 114.6 7.6 C 114.6 7.5 114.6 7.5 114.6 7.6 M 103.9 2.0 C 103.9 1.9 103.9 1.9 103.9 2.0 M 102.7 7.6 C 102.6 7.6 102.6 7.6 102.7 7.6 M 109.7 6.9 C 108.2 7.0 109.4 6.5 109.7 6.9 M 98.7 7.2 C 100.6 7.7 96.7 7.6 98.7 7.2 M 96.9 7.7 C 96.7 7.6 96.7 7.6 96.9 7.7 M 105.5 7.4 C 105.5 7.3 105.5 7.3 105.5 7.4 C 105.5 7.4 105.5 7.4 105.5 7.4 Z M 110.3 7.2 C 112.3 7.5 108.2 7.8 110.3 7.2 M 122.4 7.4 C 121.2 7.8 122.6 6.5 122.4 7.4 M 124.8 7.0 C 124.8 7.0 124.8 7.0 124.8 7.0 C 124.8 7.0 124.8 7.0 124.8 7.0 Z M 101.8 7.3 C 101.9 7.3 101.9 7.3 101.8 7.3 C 101.8 7.3 101.8 7.3 101.8 7.3 Z M 99.6 7.4 C 99.6 7.4 99.6 7.4 99.6 7.4 C 99.6 7.4 99.6 7.4 99.6 7.4 Z M 95.7 2.2 C 95.8 2.2 95.8 2.2 95.7 2.2 C 95.7 2.2 95.7 2.2 95.7 2.2 Z M 123.6 4.8 C 125.1 5.2 121.7 6.5 122.3 5.3 C 122.2 4.7 123.4 5.0 123.6 4.8 M 112.0 5.6 C 111.9 3.8 113.1 8.0 112.0 5.6 M 96.5 6.5 C 95.0 4.4 98.5 8.0 96.5 6.5 M 93.5 6.9 C 92.6 6.4 99.2 6.6 94.6 7.2 C 94.2 7.5 93.8 7.1 93.5 6.9 M 114.7 6.7 C 114.4 5.8 117.0 7.2 114.7 6.7 M 105.6 3.8 C 104.8 4.4 102.9 5.0 103.8 3.9 C 103.9 2.5 106.6 3.3 105.6 3.8 M 128.2 6.4 C 126.5 8.0 128.7 5.1 128.2 6.4 M 122.4 6.3 C 122.4 6.4 122.4 6.4 122.4 6.3 C 122.4 6.3 122.4 6.3 122.4 6.3 Z M 120.0 6.5 C 119.9 6.4 119.9 6.4 120.0 6.5 M 126.9 7.8 C 126.8 7.7 126.8 7.7 126.9 7.8 M 105.6 5.4 C 105.5 5.3 105.5 5.3 105.6 5.4 M 110.2 6.5 C 108.1 4.9 111.5 6.1 110.2 6.5 M 116.3 3.5 C 115.7 2.7 117.7 3.4 116.3 3.5 M 106.5 7.1 C 105.0 5.6 108.8 5.7 106.5 7.1 M 111.3 6.6 C 111.2 6.6 111.2 6.6 111.3 6.6 C 111.3 6.6 111.3 6.6 111.3 6.6 Z M 105.0 3.6 C 105.1 3.6 105.1 3.6 105.0 3.6 C 105.0 3.6 105.0 3.6 105.0 3.6 Z M 104.3 3.7 C 104.4 3.7 104.4 3.7 104.3 3.7 C 104.3 3.7 104.3 3.7 104.3 3.7 Z M 104.5 7.2 C 104.6 7.2 104.6 7.2 104.5 7.2 C 104.5 7.2 104.5 7.2 104.5 7.2 Z M 126.1 2.9 C 124.4 2.8 127.4 2.7 126.1 2.9 C 126.1 2.9 126.1 2.9 126.1 2.9 Z M 117.8 7.3 C 115.4 6.1 119.9 6.2 117.8 7.3 C 117.8 7.3 117.8 7.3 117.8 7.3 Z M 115.2 5.4 C 115.2 5.3 115.2 5.3 115.2 5.4 C 115.2 5.4 115.2 5.4 115.2 5.4 Z M 107.4 8.0 C 107.4 7.9 107.4 7.9 107.4 8.0 C 107.4 8.0 107.4 8.0 107.4 8.0 Z M 125.3 2.7 C 125.3 2.7 125.3 2.7 125.3 2.7 C 125.3 2.7 125.3 2.7 125.3 2.7 Z M 100.0 6.4 C 100.0 6.3 100.0 6.3 100.0 6.4 C 100.0 6.4 100.0 6.4 100.0 6.4 Z M 109.5 3.4 C 108.9 4.0 109.4 2.9 109.5 3.4 C 109.5 3.4 109.5 3.4 109.5 3.4 Z M 107.1 3.4 C 107.0 3.4 107.0 3.4 107.1 3.4 C 107.1 3.4 107.1 3.4 107.1 3.4 Z M 96.3 7.8 C 96.2 7.8 96.2 7.8 96.3 7.8 C 96.3 7.8 96.3 7.8 96.3 7.8 Z M 100.8 2.0 C 100.7 2.0 100.7 2.0 100.8 2.0 C 100.8 2.0 100.8 2.0 100.8 2.0 Z M 98.7 3.7 C 98.7 3.7 98.7 3.7 98.7 3.7 C 98.7 3.7 98.7 3.7 98.7 3.7 Z M 104.9 6.9 C 102.6 7.1 105.5 6.2 104.9 6.9 C 104.9 6.9 104.9 6.9 104.9 6.9 Z M 92.6 4.2 C 92.6 4.1 92.6 4.1 92.6 4.2 C 92.6 4.2 92.6 4.2 92.6 4.2 Z M 91.6 6.2 C 91.5 6.1 91.5 6.1 91.6 6.2 C 91.6 6.2 91.6 6.2 91.6 6.2 Z M 91.0 7.3 C 91.0 7.2 91.0 7.2 91.0 7.3 C 91.0 7.3 91.0 7.3 91.0 7.3 Z M 120.5 4.4 C 120.6 4.4 120.6 4.4 120.5 4.4 C 120.5 4.4 120.5 4.4 120.5 4.4 Z M 120.7 7.7 C 120.8 7.7 120.8 7.7 120.7 7.7 C 120.7 7.7 120.7 7.7 120.7 7.7 Z M 117.5 7.8 C 117.5 7.8 117.5 7.8 117.5 7.8 C 117.5 7.8 117.5 7.8 117.5 7.8 Z M 121.6 2.4 C 121.6 2.4 121.6 2.4 121.6 2.4 C 121.6 2.4 121.6 2.4 121.6 2.4 Z M 108.7 5.2 C 108.7 5.2 108.7 5.2 108.7 5.2 C 108.7 5.2 108.7 5.2 108.7 5.2 Z M 107.6 3.8 C 107.7 3.9 107.7 3.9 107.6 3.8 C 107.6 3.8 107.6 3.8 107.6 3.8 Z M 110.7 2.1 C 110.7 2.1 110.7 2.1 110.7 2.1 C 110.7 2.1 110.7 2.1 110.7 2.1 Z M 106.8 2.7 C 106.8 2.7 106.8 2.7 106.8 2.7 C 106.8 2.7 106.8 2.7 106.8 2.7 Z M 129.9 3.0 C 129.9 3.0 129.9 3.0 129.9 3.0 C 129.9 3.0 129.9 3.0 129.9 3.0 Z M 129.3 5.5 C 129.4 5.4 129.4 5.4 129.3 5.5 C 129.3 5.5 129.3 5.5 129.3 5.5 Z M 108.1 7.0 C 107.5 7.5 107.1 6.3 108.1 7.0 M 112.8 6.7 C 112.8 6.6 112.8 6.6 112.8 6.7 C 112.8 6.7 112.8 6.7 112.8 6.7 Z M 100.4 6.9 C 99.8 5.9 102.5 7.4 100.4 6.9 C 100.4 6.9 100.4 6.9 100.4 6.9 Z M 103.0 2.7 C 102.9 2.7 102.9 2.7 103.0 2.7 C 103.0 2.7 103.0 2.7 103.0 2.7 Z M 101.7 3.1 C 101.6 3.0 101.6 3.0 101.7 3.1 C 101.7 3.1 101.7 3.1 101.7 3.1 Z M 94.9 5.8 C 94.8 5.8 94.8 5.8 94.9 5.8 M 113.2 7.6 C 112.6 7.1 112.7 7.2 113.2 7.6 M 98.8 6.9 C 98.9 6.8 98.9 6.8 98.8 6.9 C 98.8 6.9 98.8 6.9 98.8 6.9 Z M 93.5 6.4 C 93.5 6.4 93.5 6.4 93.5 6.4 C 93.5 6.4 93.5 6.4 93.5 6.4 Z M 116.6 6.9 C 116.7 5.7 117.3 6.0 116.6 6.9 M 125.8 6.5 C 125.8 6.4 125.8 6.4 125.8 6.5 C 125.8 6.5 125.8 6.5 125.8 6.5 Z M 86.2 7.3 C 88.9 8.6 88.7 6.7 88.7 6.7 C 88.7 9.2 90.8 5.7 90.3 5.2 C 90.3 4.8 87.8 0.4 86.3 3.1 C 85.9 3.4 85.5 2.6 85.1 2.6 C 81.9 2.7 87.5 3.9 83.6 3.9 C 82.9 3.6 83.3 1.5 81.3 2.9 C 81.2 2.7 78.4 1.9 79.6 2.9 C 78.1 1.9 77.6 3.1 76.5 3.3 C 75.3 2.8 77.0 1.8 73.5 3.0 C 71.4 1.2 71.7 4.3 69.7 2.3 C 68.8 2.3 68.3 5.5 69.9 3.7 C 69.7 3.9 71.5 5.4 68.4 4.8 C 68.7 4.4 69.3 1.2 65.1 2.7 C 64.4 2.7 62.9 3.5 62.3 3.1 C 64.6 2.8 58.5 1.7 59.5 2.7 C 55.5 2.0 58.2 3.5 55.1 2.4 C 52.8 2.4 56.4 3.9 53.3 3.0 C 51.4 3.2 52.4 2.4 52.6 2.4 C 50.7 2.3 50.4 2.9 49.7 2.8 C 49.3 2.6 48.1 2.0 48.1 2.8 C 47.0 4.3 49.5 5.7 49.4 7.2 C 51.1 7.9 49.4 6.1 50.9 7.2 C 51.1 6.2 51.1 7.2 54.6 7.0 C 54.4 6.8 53.2 6.2 54.0 6.1 C 55.5 6.2 55.7 8.7 57.1 6.9 C 54.1 6.4 60.7 6.1 57.9 5.6 C 60.9 5.3 58.9 5.8 61.4 6.4 C 60.6 4.7 62.3 8.2 62.6 6.9 C 63.1 7.5 66.6 7.2 63.6 6.2 C 67.3 5.8 65.2 6.7 66.9 7.6 C 68.6 7.7 66.1 4.9 67.8 7.0 C 70.4 7.9 67.6 5.9 69.8 7.5 C 68.6 6.1 71.4 7.6 70.3 6.0 C 74.2 5.9 70.3 7.6 72.7 6.6 C 71.9 6.5 72.8 8.6 74.1 7.2 C 72.7 4.8 76.8 9.4 74.7 6.2 C 80.0 5.2 76.0 7.5 78.9 7.5 C 79.7 7.5 77.9 6.5 78.5 6.4 C 82.4 6.9 79.5 7.7 81.1 6.2 C 84.9 5.7 82.5 7.5 84.3 7.6 C 84.3 6.9 85.7 5.6 86.2 7.3 M 82.8 6.5 C 82.1 7.0 82.2 6.0 82.8 6.5 M 90.4 7.3 C 89.7 7.8 89.9 6.7 90.4 7.3 M 79.8 7.0 C 78.8 7.5 79.3 6.1 79.8 7.0 M 59.2 6.2 C 60.6 6.2 58.7 6.6 59.2 6.2 M 87.4 7.4 C 86.4 8.0 87.0 6.5 87.4 7.4 M 88.7 6.1 C 88.6 6.1 88.6 6.1 88.7 6.1 M 57.8 7.5 C 57.7 7.5 57.7 7.5 57.8 7.5 M 63.2 7.5 C 62.0 7.5 63.7 7.2 63.2 7.5 M 61.3 2.1 C 60.1 2.1 61.9 1.8 61.3 2.1 M 54.9 7.6 C 53.9 8.0 54.3 7.0 54.9 7.6 M 51.3 6.4 C 50.5 6.9 50.3 5.8 51.3 6.4 M 83.1 4.6 C 83.2 4.6 83.2 4.6 83.1 4.6 C 83.1 4.6 83.1 4.6 83.1 4.6 Z M 72.6 3.3 C 74.0 3.8 70.9 2.6 72.6 3.3 M 75.4 6.8 C 74.3 5.7 77.0 6.9 75.4 6.8 C 75.4 6.8 75.4 6.8 75.4 6.8 Z M 77.0 6.3 C 77.0 6.3 77.0 6.3 77.0 6.3 C 77.0 6.3 77.0 6.3 77.0 6.3 Z M 71.4 6.2 C 71.4 6.2 71.4 6.2 71.4 6.2 C 71.4 6.2 71.4 6.2 71.4 6.2 Z M 72.5 6.2 C 72.9 5.9 73.2 6.4 72.5 6.2 C 72.5 6.2 72.5 6.2 72.5 6.2 Z M 63.0 2.7 C 63.4 2.5 63.7 2.9 63.0 2.7 C 63.0 2.7 63.0 2.7 63.0 2.7 Z M 74.2 5.8 C 74.0 4.7 75.2 6.5 74.2 5.8 C 74.2 5.8 74.2 5.8 74.2 5.8 Z M 67.2 3.2 C 66.8 3.5 65.8 2.1 67.2 3.2 M 56.6 7.3 C 56.2 7.6 55.0 6.3 56.6 7.3 M 68.5 7.6 C 68.1 7.9 67.1 6.6 68.5 7.6 M 82.2 7.0 C 82.1 6.8 82.1 6.8 82.2 7.0 M 74.4 2.2 C 73.7 2.6 73.9 1.8 74.4 2.2 M 86.2 2.6 C 85.5 3.0 85.8 2.1 86.2 2.6 M 56.0 2.3 C 56.2 2.5 54.7 2.1 56.0 2.3 M 66.5 5.9 C 65.4 5.7 64.1 5.1 66.3 5.2 C 66.6 5.5 66.0 5.6 66.5 5.9 C 66.5 5.9 66.5 5.9 66.5 5.9 Z M 61.8 3.4 C 61.6 3.3 61.6 3.3 61.8 3.4 M 65.0 6.9 C 64.8 6.8 64.8 6.8 65.0 6.9 M 58.9 6.8 C 58.7 6.6 58.7 6.6 58.9 6.8 M 58.3 7.1 C 58.3 7.0 58.3 7.0 58.3 7.1 C 58.3 7.1 58.3 7.1 58.3 7.1 Z M 51.8 7.5 C 51.8 7.5 51.8 7.5 51.8 7.5 C 51.8 7.5 51.8 7.5 51.8 7.5 Z M 60.8 6.6 C 60.8 6.6 60.8 6.6 60.8 6.6 C 60.8 6.6 60.8 6.6 60.8 6.6 Z M 53.3 2.5 C 53.3 2.4 53.3 2.4 53.3 2.5 C 53.3 2.5 53.3 2.5 53.3 2.5 Z M 54.3 3.1 C 54.3 3.1 54.3 3.1 54.3 3.1 C 54.3 3.1 54.3 3.1 54.3 3.1 Z M 85.7 7.3 C 84.9 8.0 84.9 5.4 85.7 7.3 M 51.2 3.1 C 50.0 2.4 52.8 3.0 51.2 3.1 C 51.2 3.1 51.2 3.1 51.2 3.1 Z M 61.1 5.7 C 61.0 5.6 61.0 5.6 61.1 5.7 M 57.8 7.0 C 57.7 6.8 57.7 6.8 57.8 7.0 M 75.7 7.8 C 75.6 7.7 75.6 7.7 75.7 7.8 M 53.1 6.8 C 50.1 6.5 53.6 5.2 53.1 6.8 M 76.7 6.8 C 76.8 6.9 76.8 6.9 76.7 6.8 M 69.7 4.7 C 67.8 4.8 70.2 4.1 69.7 4.7 M 65.3 6.1 C 65.3 6.0 65.3 6.0 65.3 6.1 C 65.3 6.1 65.3 6.1 65.3 6.1 Z M 68.1 6.1 C 69.5 5.9 68.6 6.4 68.1 6.1 C 68.1 6.1 68.1 6.1 68.1 6.1 Z M 84.2 6.3 C 82.4 6.1 86.0 5.9 84.2 6.3 C 84.2 6.3 84.2 6.3 84.2 6.3 Z M 53.1 4.2 C 53.2 4.2 53.2 4.2 53.1 4.2 C 53.1 4.2 53.1 4.2 53.1 4.2 Z M 61.4 7.4 C 62.1 7.1 61.9 7.7 61.4 7.4 C 61.4 7.4 61.4 7.4 61.4 7.4 Z M 50.8 7.5 C 51.5 7.2 51.4 7.8 50.8 7.5 C 50.8 7.5 50.8 7.5 50.8 7.5 Z M 86.4 6.5 C 79.4 4.6 95.2 6.9 86.4 6.5 C 86.4 6.5 86.4 6.5 86.4 6.5 Z M 67.2 6.8 C 67.2 6.8 67.2 6.8 67.2 6.8 C 67.2 6.8 67.2 6.8 67.2 6.8 Z M 79.5 7.6 C 79.5 7.5 79.5 7.5 79.5 7.6 C 79.5 7.6 79.5 7.6 79.5 7.6 Z M 81.4 6.6 C 81.4 6.5 81.4 6.5 81.4 6.6 C 81.4 6.6 81.4 6.6 81.4 6.6 Z M 80.0 2.3 C 80.0 2.3 80.0 2.3 80.0 2.3 C 80.0 2.3 80.0 2.3 80.0 2.3 Z M 79.6 4.3 C 79.7 4.2 79.7 4.2 79.6 4.3 C 79.6 4.3 79.6 4.3 79.6 4.3 Z M 83.9 3.6 C 83.9 3.5 83.9 3.5 83.9 3.6 C 83.9 3.6 83.9 3.6 83.9 3.6 Z M 83.7 3.0 C 83.7 2.9 83.7 2.9 83.7 3.0 C 83.7 3.0 83.7 3.0 83.7 3.0 Z M 57.3 5.8 C 57.3 5.7 57.3 5.7 57.3 5.8 C 57.3 5.8 57.3 5.8 57.3 5.8 Z M 58.8 4.0 C 57.5 4.6 58.9 3.1 58.8 4.0 C 58.8 4.0 58.8 4.0 58.8 4.0 Z M 73.1 4.9 C 71.7 5.1 73.9 4.3 73.1 4.9 C 73.1 4.9 73.1 4.9 73.1 4.9 Z M 70.8 2.5 C 70.8 2.5 70.8 2.5 70.8 2.5 C 70.8 2.5 70.8 2.5 70.8 2.5 Z M 81.6 7.6 C 81.6 7.5 81.6 7.5 81.6 7.6 C 81.6 7.6 81.6 7.6 81.6 7.6 Z M 84.0 6.9 C 84.0 6.0 84.9 7.3 84.0 6.9 M 71.2 7.4 C 71.1 7.3 71.1 7.3 71.2 7.4 C 71.2 7.4 71.2 7.4 71.2 7.4 Z M 62.4 6.0 C 62.4 5.9 62.4 5.9 62.4 6.0 C 62.4 6.0 62.4 6.0 62.4 6.0 Z M 54.5 6.6 C 54.4 6.5 54.4 6.5 54.5 6.6 C 54.5 6.6 54.5 6.6 54.5 6.6 Z M 66.0 7.3 C 66.0 7.2 66.0 7.2 66.0 7.3 C 66.0 7.3 66.0 7.3 66.0 7.3 Z M 69.6 6.5 C 69.6 6.4 69.6 6.4 69.6 6.5 C 69.6 6.5 69.6 6.5 69.6 6.5 Z M 52.0 5.3 C 52.1 5.3 52.1 5.3 52.0 5.3 C 52.0 5.3 52.0 5.3 52.0 5.3 Z M 65.2 7.4 C 65.2 7.4 65.2 7.4 65.2 7.4 C 65.2 7.4 65.2 7.4 65.2 7.4 Z M 61.7 4.6 C 61.7 4.5 61.7 4.5 61.7 4.6 C 61.7 4.6 61.7 4.6 61.7 4.6 Z M 83.9 8.2 C 83.9 8.1 83.9 8.1 83.9 8.2 C 83.9 8.2 83.9 8.2 83.9 8.2 Z M 52.5 6.5 C 52.5 6.5 52.5 6.5 52.5 6.5 C 52.5 6.5 52.5 6.5 52.5 6.5 Z M 52.4 7.3 C 52.4 7.3 52.4 7.3 52.4 7.3 C 52.4 7.3 52.4 7.3 52.4 7.3 Z M 56.3 3.0 C 59.5 3.6 53.7 3.2 56.3 4.2 C 52.2 4.5 55.6 3.0 56.3 3.0 C 56.3 3.0 56.3 3.0 56.3 3.0 Z M 48.8 7.6 C 49.7 6.4 49.1 5.3 47.7 4.0 C 46.6 3.4 47.9 5.8 46.8 3.8 C 48.4 3.4 44.2 0.7 45.7 3.3 C 43.4 3.7 44.4 1.6 43.5 2.7 C 40.9 3.0 41.8 2.1 39.9 2.3 C 39.5 3.8 38.2 1.6 38.5 3.0 C 38.6 1.5 36.6 3.4 36.1 2.7 C 37.4 1.8 28.9 2.7 34.1 3.1 C 32.6 3.8 32.1 2.6 31.3 2.4 C 31.0 3.3 27.5 1.7 26.9 2.6 C 27.3 2.8 27.9 2.9 28.3 3.1 C 29.1 3.7 26.8 3.0 27.0 3.1 C 26.5 3.4 24.0 4.3 26.2 2.7 C 25.8 2.0 23.6 3.1 23.2 2.4 C 20.2 2.4 23.6 3.8 21.4 2.8 C 19.2 2.7 17.7 2.7 17.9 2.9 C 16.4 2.7 15.4 1.9 15.0 2.7 C 10.9 1.1 15.8 5.8 12.1 2.7 C 12.0 3.4 9.4 1.4 11.2 3.3 C 11.4 2.4 5.4 1.8 9.0 3.2 C 8.8 3.7 3.1 1.2 5.5 3.2 C 5.7 4.6 7.3 6.0 11.1 7.3 C 9.8 6.2 14.8 8.5 11.2 6.6 C 8.4 6.0 14.6 5.9 13.9 6.6 C 15.6 8.9 15.6 5.2 18.3 6.8 C 16.5 5.9 21.2 5.5 21.1 7.2 C 22.2 7.3 21.7 6.5 23.5 7.5 C 20.4 7.3 23.3 5.7 23.9 6.7 C 23.9 7.4 28.8 7.9 27.6 6.9 C 24.2 4.6 29.1 7.4 29.2 6.5 C 31.3 6.0 30.3 8.5 30.8 6.8 C 31.5 7.1 34.8 7.1 33.1 7.5 C 32.1 7.3 33.2 5.0 35.0 7.0 C 32.3 8.1 39.4 7.6 37.8 7.0 C 31.6 5.9 42.8 5.8 39.2 6.8 C 42.3 7.9 38.8 7.3 41.5 6.8 C 40.7 6.2 42.6 5.6 42.8 6.8 C 44.5 8.7 42.2 4.3 45.5 6.9 C 46.4 8.0 48.7 6.1 48.1 7.3 C 48.1 7.4 48.7 7.7 48.8 7.6 M 47.6 7.4 C 47.7 7.0 48.5 8.0 47.6 7.4 M 47.8 7.0 C 47.8 7.0 47.8 7.0 47.8 7.0 C 47.8 7.0 47.8 7.0 47.8 7.0 Z M 41.9 6.7 C 41.9 6.8 41.9 6.8 41.9 6.7 C 41.9 6.7 41.9 6.7 41.9 6.7 Z M 34.1 2.0 C 34.2 2.0 34.2 2.0 34.1 2.0 C 34.1 2.0 34.1 2.0 34.1 2.0 Z M 37.9 6.6 C 38.0 6.6 38.0 6.6 37.9 6.6 C 37.9 6.6 37.9 6.6 37.9 6.6 Z M 43.7 6.4 C 43.8 6.4 43.8 6.4 43.7 6.4 C 43.7 6.4 43.7 6.4 43.7 6.4 Z M 38.7 7.3 C 38.0 6.6 40.4 7.8 38.7 7.4 C 38.7 7.4 38.9 7.4 38.7 7.3 M 34.0 7.6 C 33.9 7.5 33.9 7.5 34.0 7.6 M 18.4 2.0 C 18.3 1.9 18.3 1.9 18.4 2.0 M 22.1 7.6 C 21.9 7.6 21.9 7.6 22.1 7.6 M 28.5 6.9 C 27.0 7.0 27.8 6.5 28.5 6.9 M 17.8 7.2 C 20.1 7.7 16.1 7.6 17.8 7.2 M 16.3 7.7 C 16.1 7.6 16.1 7.6 16.3 7.7 M 24.7 7.4 C 24.7 7.3 24.7 7.3 24.7 7.4 C 24.7 7.4 24.7 7.4 24.7 7.4 Z M 29.3 7.2 C 31.6 7.5 27.8 7.8 29.3 7.2 M 41.6 7.4 C 40.7 7.8 41.0 6.5 41.6 7.4 M 43.6 7.0 C 43.6 7.0 43.6 7.0 43.6 7.0 C 43.6 7.0 43.6 7.0 43.6 7.0 Z M 20.9 7.3 C 20.9 7.3 20.9 7.3 20.9 7.3 C 20.9 7.3 20.9 7.3 20.9 7.3 Z M 18.8 7.4 C 18.8 7.4 18.8 7.4 18.8 7.4 C 18.8 7.4 18.8 7.4 18.8 7.4 Z M 10.4 2.2 C 10.4 2.2 10.4 2.2 10.4 2.2 C 10.4 2.2 10.4 2.2 10.4 2.2 Z M 40.6 4.8 C 42.3 5.2 40.1 6.5 39.6 5.3 C 39.1 4.7 40.5 5.0 40.6 4.8 M 29.6 5.6 C 27.9 3.8 32.8 8.0 29.6 5.6 M 14.9 6.5 C 11.5 4.4 18.2 8.0 14.9 6.5 M 12.2 6.9 C 11.0 6.4 17.7 6.6 13.6 7.2 C 13.5 7.5 12.8 7.1 12.2 6.9 M 33.3 6.7 C 32.1 5.8 35.9 7.2 33.3 6.7 M 21.7 3.8 C 21.4 4.4 19.9 5.0 19.9 3.9 C 18.8 2.5 22.2 3.3 21.7 3.8 M 46.6 6.4 C 46.2 8.0 45.9 5.1 46.6 6.4 M 40.6 6.3 C 40.6 6.4 40.6 6.4 40.6 6.3 C 40.6 6.3 40.6 6.3 40.6 6.3 Z M 38.5 6.5 C 38.3 6.4 38.3 6.4 38.5 6.5 M 46.4 7.8 C 46.2 7.7 46.2 7.7 46.4 7.8 M 23.0 5.4 C 22.8 5.3 22.8 5.3 23.0 5.4 M 28.6 6.5 C 25.1 4.9 29.6 6.1 28.6 6.5 M 32.0 3.5 C 30.8 2.7 33.4 3.4 32.0 3.5 M 25.3 7.1 C 22.6 5.6 26.4 5.7 25.3 7.1 M 29.8 6.6 C 29.7 6.6 29.7 6.6 29.8 6.6 C 29.8 6.6 29.8 6.6 29.8 6.6 Z M 20.9 3.6 C 20.9 3.6 20.9 3.6 20.9 3.6 C 20.9 3.6 20.9 3.6 20.9 3.6 Z M 20.3 3.7 C 20.3 3.7 20.3 3.7 20.3 3.7 C 20.3 3.7 20.3 3.7 20.3 3.7 Z M 23.5 7.2 C 23.6 7.2 23.6 7.2 23.5 7.2 C 23.5 7.2 23.5 7.2 23.5 7.2 Z M 41.3 2.9 C 39.6 2.8 42.5 2.7 41.3 2.9 C 41.3 2.9 41.3 2.9 41.3 2.9 Z M 36.9 7.3 C 33.5 6.1 38.0 6.2 36.9 7.3 C 36.9 7.3 36.9 7.3 36.9 7.3 Z M 32.6 5.4 C 32.5 5.3 32.5 5.3 32.6 5.4 C 32.6 5.4 32.6 5.4 32.6 5.4 Z M 27.1 8.0 C 27.0 7.9 27.0 7.9 27.1 8.0 C 27.1 8.0 27.1 8.0 27.1 8.0 Z M 40.4 2.7 C 40.3 2.7 40.3 2.7 40.4 2.7 C 40.4 2.7 40.4 2.7 40.4 2.7 Z M 18.3 6.4 C 18.3 6.3 18.3 6.3 18.3 6.4 C 18.3 6.4 18.3 6.4 18.3 6.4 Z M 25.2 3.4 C 25.0 4.0 24.7 2.9 25.2 3.4 C 25.2 3.4 25.2 3.4 25.2 3.4 Z M 22.7 3.4 C 22.7 3.4 22.7 3.4 22.7 3.4 C 22.7 3.4 22.7 3.4 22.7 3.4 Z M 15.8 7.8 C 15.7 7.8 15.7 7.8 15.8 7.8 C 15.8 7.8 15.8 7.8 15.8 7.8 Z M 15.2 2.0 C 15.2 2.0 15.2 2.0 15.2 2.0 C 15.2 2.0 15.2 2.0 15.2 2.0 Z M 14.7 3.7 C 14.7 3.7 14.7 3.7 14.7 3.7 C 14.7 3.7 14.7 3.7 14.7 3.7 Z M 23.7 6.9 C 21.5 7.1 23.7 6.2 23.7 6.9 C 23.7 6.9 23.7 6.9 23.7 6.9 Z M 9.0 4.2 C 8.9 4.1 8.9 4.1 9.0 4.2 C 9.0 4.2 9.0 4.2 9.0 4.2 Z M 9.7 6.2 C 9.6 6.1 9.6 6.1 9.7 6.2 C 9.7 6.2 9.7 6.2 9.7 6.2 Z M 10.1 7.3 C 10.0 7.2 10.0 7.2 10.1 7.3 C 10.1 7.3 10.1 7.3 10.1 7.3 Z M 37.1 4.4 C 37.2 4.4 37.2 4.4 37.1 4.4 C 37.1 4.4 37.1 4.4 37.1 4.4 Z M 40.2 7.7 C 40.2 7.7 40.2 7.7 40.2 7.7 C 40.2 7.7 40.2 7.7 40.2 7.7 Z M 37.1 7.8 C 37.1 7.8 37.1 7.8 37.1 7.8 C 37.1 7.8 37.1 7.8 37.1 7.8 Z M 36.4 2.4 C 36.5 2.4 36.5 2.4 36.4 2.4 C 36.4 2.4 36.4 2.4 36.4 2.4 Z M 25.9 5.2 C 26.0 5.2 26.0 5.2 25.9 5.2 C 25.9 5.2 25.9 5.2 25.9 5.2 Z M 23.7 3.8 C 23.8 3.9 23.8 3.9 23.7 3.8 C 23.7 3.8 23.7 3.8 23.7 3.8 Z M 25.3 2.1 C 25.3 2.1 25.3 2.1 25.3 2.1 C 25.3 2.1 25.3 2.1 25.3 2.1 Z M 21.9 2.7 C 21.9 2.7 21.9 2.7 21.9 2.7 C 21.9 2.7 21.9 2.7 21.9 2.7 Z M 45.2 3.0 C 45.2 3.0 45.2 3.0 45.2 3.0 C 45.2 3.0 45.2 3.0 45.2 3.0 Z M 46.9 5.5 C 46.9 5.4 46.9 5.4 46.9 5.5 C 46.9 5.5 46.9 5.5 46.9 5.5 Z M 27.0 7.0 C 26.8 7.5 25.3 6.3 27.0 7.0 M 31.3 6.7 C 31.3 6.6 31.3 6.6 31.3 6.7 C 31.3 6.7 31.3 6.7 31.3 6.7 Z M 19.1 6.9 C 17.7 5.9 21.7 7.4 19.1 6.9 C 19.1 6.9 19.1 6.9 19.1 6.9 Z M 18.1 2.7 C 18.0 2.7 18.0 2.7 18.1 2.7 C 18.1 2.7 18.1 2.7 18.1 2.7 Z M 17.2 3.1 C 17.0 3.0 17.0 3.0 17.2 3.1 C 17.2 3.1 17.2 3.1 17.2 3.1 Z M 12.7 5.8 C 12.5 5.8 12.5 5.8 12.7 5.8 M 32.5 7.6 C 31.5 7.1 31.7 7.2 32.5 7.6 M 17.6 6.9 C 17.6 6.8 17.6 6.8 17.6 6.9 C 17.6 6.9 17.6 6.9 17.6 6.9 Z M 11.8 6.4 C 11.8 6.4 11.8 6.4 11.8 6.4 C 11.8 6.4 11.8 6.4 11.8 6.4 Z M 35.3 6.9 C 34.4 5.7 35.2 6.0 35.3 6.9 M 44.3 6.5 C 44.2 6.4 44.2 6.4 44.3 6.5 C 44.3 6.5 44.3 6.5 44.3 6.5 Z M 6.6 8.6 C 6.9 8.3 7.1 8.0 7.1 7.7 C 8.4 7.9 7.3 6.7 7.2 6.7 C 9.5 9.2 8.5 5.7 7.5 5.2 C 7.3 4.9 2.4 1.4 1.7 2.4 C 1.8 2.7 2.1 3.2 2.4 3.8 C 2.8 4.6 2.0 4.1 1.9 4.4 C 2.0 7.7 3.3 3.6 3.3 7.4 C 2.9 7.8 0.8 4.9 2.3 8.6 C 2.1 8.5 1.3 10.4 2.3 10.4 C 1.3 10.7 2.5 12.6 2.7 13.9 C 2.1 14.5 1.2 11.7 2.3 16.5 C 0.6 16.6 3.6 19.7 1.7 19.6 C 1.6 20.5 4.8 24.4 3.0 20.8 C 3.2 21.3 4.7 21.2 4.2 23.7 C 3.8 22.9 0.6 18.7 2.1 24.6 C 2.0 25.3 2.8 27.7 2.5 27.9 C 2.1 25.2 1.1 30.1 2.0 30.2 C 1.4 33.5 2.8 32.3 1.8 34.3 C 1.7 36.5 3.2 34.5 2.4 36.7 C 2.5 38.9 1.7 37.0 1.8 36.8 C 1.6 38.5 2.2 39.5 2.2 40.1 C 2.0 40.4 1.3 40.8 2.1 41.7 C 3.6 44.4 5.1 43.6 6.5 45.2 C 7.2 44.3 5.4 44.0 6.5 43.7 C 5.6 42.5 6.6 43.7 6.4 40.0 C 6.2 39.9 5.5 40.4 5.4 39.5 C 5.6 38.1 8.0 40.7 6.3 37.3 C 5.8 39.7 5.5 32.9 5.0 35.1 C 4.7 31.7 5.2 34.3 5.8 32.4 C 4.1 31.3 7.5 33.5 6.2 31.7 C 6.9 32.0 6.6 28.1 5.6 30.0 C 5.1 25.9 6.1 29.0 7.0 28.3 C 7.1 26.7 4.3 26.1 6.3 26.6 C 7.2 25.1 5.3 25.7 6.9 25.3 C 5.5 24.9 6.9 23.7 5.4 23.1 C 5.2 19.1 7.0 24.9 5.9 21.3 C 5.9 22.1 8.0 23.5 6.6 20.7 C 4.2 19.4 8.8 20.5 5.5 18.8 C 4.6 12.6 6.9 19.1 6.9 16.2 C 6.9 15.4 5.8 16.0 5.8 15.3 C 6.2 11.9 7.1 15.9 5.5 12.4 C 5.1 8.2 6.9 12.6 7.0 10.9 C 6.2 10.0 4.9 7.2 6.6 8.6 M 5.8 11.2 C 6.4 12.4 5.3 11.2 5.8 11.2 M 9.5 7.3 C 9.2 7.8 8.5 6.7 9.5 7.3 M 6.3 14.7 C 6.9 16.2 5.5 14.3 6.3 14.7 M 5.5 34.4 C 5.5 32.9 6.0 35.3 5.5 34.4 M 6.7 7.5 C 7.3 9.2 5.8 6.9 6.7 7.5 M 6.7 6.1 C 6.6 6.1 6.6 6.1 6.7 6.1 M 6.8 37.2 C 6.8 37.3 6.8 37.3 6.8 37.2 M 6.9 31.9 C 6.8 33.0 6.5 31.0 6.9 31.9 M 1.5 27.8 C 1.5 29.0 1.2 26.8 1.5 27.8 M 6.9 40.2 C 7.3 41.6 6.3 40.2 6.9 40.2 M 5.7 42.5 C 6.2 43.8 5.2 42.9 5.7 42.5 M 4.0 8.7 C 3.9 8.6 3.9 8.6 4.0 8.7 C 4.0 8.7 4.0 8.7 4.0 8.7 Z M 2.6 17.7 C 3.2 17.0 2.0 18.7 2.6 17.7 M 6.2 18.9 C 5.1 18.7 6.2 17.4 6.2 18.9 C 6.2 18.9 6.2 18.9 6.2 18.9 Z M 5.7 16.7 C 5.6 16.6 5.6 16.6 5.7 16.7 C 5.7 16.7 5.7 16.7 5.7 16.7 Z M 5.6 22.3 C 5.6 22.2 5.6 22.2 5.6 22.3 C 5.6 22.3 5.6 22.3 5.6 22.3 Z M 5.5 21.0 C 5.3 20.4 5.7 20.6 5.5 21.0 C 5.5 21.0 5.5 21.0 5.5 21.0 Z M 2.0 26.7 C 1.8 26.0 2.3 26.2 2.0 26.7 C 2.0 26.7 2.0 26.7 2.0 26.7 Z M 5.1 19.0 C 4.0 17.9 5.8 18.8 5.1 19.0 C 5.1 19.0 5.1 19.0 5.1 19.0 Z M 2.5 23.0 C 2.8 23.8 1.5 23.3 2.5 23.0 M 6.7 38.2 C 6.9 38.9 5.6 38.6 6.7 38.2 M 7.0 26.7 C 7.3 27.4 5.9 26.9 7.0 26.7 M 6.3 12.2 C 6.2 12.3 6.2 12.3 6.3 12.2 M 1.6 14.7 C 2.0 15.9 1.1 14.7 1.6 14.7 M 2.0 3.3 C 2.4 4.6 1.5 3.2 2.0 3.3 M 1.6 33.2 C 1.9 33.4 1.5 34.4 1.6 33.2 M 5.2 26.7 C 5.1 27.7 4.5 28.3 4.6 26.1 C 4.8 26.2 5.0 27.0 5.2 26.7 C 5.2 26.7 5.2 26.7 5.2 26.7 Z M 2.7 28.7 C 2.6 28.8 2.6 28.8 2.7 28.7 M 6.2 29.3 C 6.1 29.4 6.1 29.4 6.2 29.3 M 6.1 35.3 C 6.0 35.4 6.0 35.4 6.1 35.3 M 6.4 36.3 C 6.4 36.3 6.4 36.3 6.4 36.3 C 6.4 36.3 6.4 36.3 6.4 36.3 Z M 6.9 43.2 C 6.8 43.2 6.8 43.2 6.9 43.2 C 6.9 43.2 6.9 43.2 6.9 43.2 Z M 6.0 33.3 C 5.9 33.2 5.9 33.2 6.0 33.3 C 6.0 33.3 6.0 33.3 6.0 33.3 Z M 1.8 36.2 C 1.8 36.1 1.8 36.1 1.8 36.2 C 1.8 36.2 1.8 36.2 1.8 36.2 Z M 2.5 35.9 C 2.4 35.8 2.4 35.8 2.5 35.9 C 2.5 35.9 2.5 35.9 2.5 35.9 Z M 6.6 9.1 C 7.4 10.8 4.7 7.7 6.6 9.1 M 2.5 38.9 C 1.7 39.4 2.3 37.2 2.5 38.9 C 2.5 38.9 2.5 38.9 2.5 38.9 Z M 5.1 31.9 C 4.9 31.9 4.9 31.9 5.1 31.9 M 6.3 36.6 C 6.2 36.6 6.2 36.6 6.3 36.6 M 7.2 19.7 C 7.0 19.7 7.0 19.7 7.2 19.7 M 6.1 41.2 C 5.9 43.8 4.6 38.9 6.1 41.2 M 6.1 17.5 C 6.2 17.5 6.2 17.5 6.1 17.5 M 4.1 22.2 C 4.1 24.2 3.5 21.0 4.1 22.2 M 5.5 28.2 C 5.4 28.1 5.4 28.1 5.5 28.2 C 5.5 28.2 5.5 28.2 5.5 28.2 Z M 5.5 25.4 C 5.3 23.9 5.8 25.3 5.5 25.4 C 5.5 25.4 5.5 25.4 5.5 25.4 Z M 5.6 9.5 C 5.5 11.1 5.3 7.3 5.6 9.5 C 5.6 9.5 5.6 9.5 5.6 9.5 Z M 3.6 38.3 C 3.5 38.2 3.5 38.2 3.6 38.3 C 3.6 38.3 3.6 38.3 3.6 38.3 Z M 6.7 33.5 C 6.5 32.5 7.1 33.3 6.7 33.5 C 6.7 33.5 6.7 33.5 6.7 33.5 Z M 6.9 44.2 C 6.6 43.2 7.2 44.0 6.9 44.2 C 6.9 44.2 6.9 44.2 6.9 44.2 Z M 5.8 7.5 C 4.9 10.0 5.0 7.7 5.3 6.0 C 7.3 6.2 8.9 6.6 5.9 6.5 C 5.8 6.8 5.8 7.1 5.8 7.5 C 5.8 7.5 5.8 7.5 5.8 7.5 Z M 6.2 27.1 C 6.1 27.0 6.1 27.0 6.2 27.1 C 6.2 27.1 6.2 27.1 6.2 27.1 Z M 7.0 15.6 C 6.9 15.5 6.9 15.5 7.0 15.6 C 7.0 15.6 7.0 15.6 7.0 15.6 Z M 5.9 12.7 C 5.9 12.6 5.9 12.6 5.9 12.7 C 5.9 12.7 5.9 12.7 5.9 12.7 Z M 1.7 9.3 C 1.6 9.2 1.6 9.2 1.7 9.3 C 1.7 9.3 1.7 9.3 1.7 9.3 Z M 3.6 11.8 C 3.5 11.6 3.5 11.6 3.6 11.8 C 3.6 11.8 3.6 11.8 3.6 11.8 Z M 2.9 6.8 C 2.8 6.6 2.8 6.6 2.9 6.8 C 2.9 6.8 2.9 6.8 2.9 6.8 Z M 2.3 6.3 C 2.3 6.3 2.3 6.3 2.3 6.3 C 2.3 6.3 2.3 6.3 2.3 6.3 Z M 5.1 35.8 C 5.0 35.7 5.0 35.7 5.1 35.8 C 5.1 35.8 5.1 35.8 5.1 35.8 Z M 3.3 32.3 C 4.0 34.3 2.4 31.2 3.3 32.3 C 3.3 32.3 3.3 32.3 3.3 32.3 Z M 4.2 19.0 C 4.4 20.7 3.7 17.6 4.2 19.0 C 4.2 19.0 4.2 19.0 4.2 19.0 Z M 1.9 18.7 C 1.9 18.7 1.9 18.7 1.9 18.7 C 1.9 18.7 1.9 18.7 1.9 18.7 Z M 7.0 13.6 C 6.9 13.5 6.9 13.5 7.0 13.6 C 7.0 13.6 7.0 13.6 7.0 13.6 Z M 6.3 10.4 C 5.4 9.4 6.7 10.0 6.3 10.4 M 6.8 23.8 C 6.7 23.7 6.7 23.7 6.8 23.8 C 6.8 23.8 6.8 23.8 6.8 23.8 Z M 5.4 31.0 C 5.3 30.9 5.3 30.9 5.4 31.0 C 5.4 31.0 5.4 31.0 5.4 31.0 Z M 5.9 39.6 C 5.8 39.4 5.8 39.4 5.9 39.6 C 5.9 39.6 5.9 39.6 5.9 39.6 Z M 6.7 28.8 C 6.5 28.7 6.5 28.7 6.7 28.8 C 6.7 28.8 6.7 28.8 6.7 28.8 Z M 5.8 24.3 C 5.7 24.1 5.7 24.1 5.8 24.3 C 5.8 24.3 5.8 24.3 5.8 24.3 Z M 4.7 40.6 C 4.6 40.5 4.6 40.5 4.7 40.6 C 4.7 40.6 4.7 40.6 4.7 40.6 Z M 6.8 29.8 C 6.8 29.7 6.8 29.7 6.8 29.8 C 6.8 29.8 6.8 29.8 6.8 29.8 Z M 3.9 30.1 C 3.9 30.0 3.9 30.0 3.9 30.1 C 3.9 30.1 3.9 30.1 3.9 30.1 Z M 7.5 12.0 C 7.5 11.9 7.5 11.9 7.5 12.0 C 7.5 12.0 7.5 12.0 7.5 12.0 Z M 5.9 41.4 C 5.8 41.3 5.8 41.3 5.9 41.4 C 5.9 41.4 5.9 41.4 5.9 41.4 Z M 6.7 42.4 C 6.6 42.3 6.6 42.3 6.7 42.4 C 6.7 42.4 6.7 42.4 6.7 42.4 Z M 2.4 33.8 C 2.9 31.1 2.6 36.6 3.6 35.1 C 3.8 39.5 2.4 34.4 2.4 33.8 C 2.4 33.8 2.4 33.8 2.4 33.8 Z M 7.0 46.4 C 5.8 44.1 4.6 43.5 3.4 43.5 C 2.7 43.9 5.2 45.3 3.1 44.1 C 2.7 42.0 0.0 43.3 2.7 44.7 C 3.1 47.4 1.0 44.2 2.0 46.3 C 2.3 49.1 1.5 47.3 1.7 49.5 C 3.1 51.4 1.0 50.3 2.3 51.5 C 0.9 49.8 2.8 53.9 2.1 53.7 C 1.2 51.4 2.1 60.9 2.5 56.1 C 3.2 58.4 2.0 57.5 1.8 58.1 C 2.7 59.3 1.1 61.2 2.0 62.8 C 2.2 62.6 2.2 62.0 2.5 61.9 C 3.1 61.8 2.4 63.3 2.4 63.1 C 2.7 64.0 3.6 67.5 2.1 63.6 C 1.4 63.2 2.4 66.5 1.8 66.2 C 1.7 69.2 3.2 67.4 2.1 68.4 C 2.1 70.5 2.1 72.1 2.3 72.1 C 2.1 73.4 1.3 73.5 2.1 74.8 C 0.5 77.2 5.1 77.3 2.0 77.7 C 2.8 78.6 0.7 78.9 2.6 79.2 C 1.8 78.1 1.2 83.4 2.6 81.3 C 3.0 82.0 0.6 85.1 2.5 84.8 C 3.9 86.1 5.3 86.1 6.7 83.7 C 5.6 83.8 7.8 81.2 6.0 82.8 C 5.3 84.9 5.3 78.7 6.0 80.1 C 8.2 80.8 4.6 76.9 6.2 75.9 C 5.3 76.8 4.8 71.6 6.5 73.5 C 6.7 72.6 5.8 72.2 6.8 71.4 C 6.7 74.4 5.1 69.8 6.1 70.3 C 6.7 70.9 7.2 66.7 6.3 66.8 C 3.9 67.7 6.8 65.8 5.9 64.7 C 5.3 62.1 7.8 65.8 6.1 63.4 C 6.4 63.0 6.4 59.7 6.9 62.0 C 6.7 62.7 4.3 59.0 6.3 59.5 C 7.5 63.4 7.0 55.7 6.3 56.6 C 5.3 61.6 5.1 50.3 6.2 55.1 C 7.3 53.2 6.6 56.0 6.1 52.8 C 5.5 52.9 4.9 50.2 6.2 51.4 C 8.1 51.9 3.7 49.3 6.2 48.8 C 7.3 49.1 5.4 44.7 6.7 46.7 C 6.8 46.9 7.0 46.5 7.0 46.4 M 6.8 47.4 C 6.4 46.7 7.3 47.0 6.8 47.4 M 6.4 46.7 C 6.4 46.7 6.4 46.7 6.4 46.7 C 6.4 46.7 6.4 46.7 6.4 46.7 Z M 6.1 52.3 C 6.1 52.3 6.1 52.3 6.1 52.3 C 6.1 52.3 6.1 52.3 6.1 52.3 Z M 1.3 54.8 C 1.4 54.8 1.4 54.8 1.3 54.8 C 1.3 54.8 1.3 54.8 1.3 54.8 Z M 6.0 56.1 C 6.0 56.1 6.0 56.1 6.0 56.1 C 6.0 56.1 6.0 56.1 6.0 56.1 Z M 5.8 50.1 C 5.8 50.1 5.8 50.1 5.8 50.1 C 5.8 50.1 5.8 50.1 5.8 50.1 Z M 6.7 56.0 C 6.0 56.0 7.2 55.0 6.8 56.2 C 6.7 56.2 6.7 55.9 6.7 56.0 M 6.9 61.1 C 6.9 61.1 6.9 61.1 6.9 61.1 M 1.4 70.6 C 1.3 70.6 1.3 70.6 1.4 70.6 M 7.0 73.0 C 6.9 73.1 6.9 73.1 7.0 73.0 M 6.2 65.8 C 6.3 67.4 5.9 66.1 6.2 65.8 M 6.6 76.9 C 7.1 75.1 7.0 79.0 6.6 76.9 M 7.0 78.9 C 7.0 79.0 7.0 79.0 7.0 78.9 M 6.7 70.2 C 6.7 70.1 6.7 70.1 6.7 70.2 C 6.7 70.2 6.7 70.2 6.7 70.2 Z M 6.5 65.3 C 6.9 63.4 7.2 67.5 6.5 65.3 M 6.8 53.3 C 7.1 54.6 5.9 52.9 6.8 53.3 M 6.4 50.9 C 6.3 50.8 6.3 50.8 6.4 50.9 C 6.4 50.9 6.4 50.9 6.4 50.9 Z M 6.6 73.9 C 6.6 73.8 6.6 73.8 6.6 73.9 C 6.6 73.9 6.6 73.9 6.6 73.9 Z M 6.8 76.1 C 6.8 76.0 6.8 76.0 6.8 76.1 C 6.8 76.1 6.8 76.1 6.8 76.1 Z M 1.6 78.9 C 1.5 78.8 1.5 78.8 1.6 78.9 C 1.6 78.9 1.6 78.9 1.6 78.9 Z M 4.2 51.5 C 4.6 50.1 5.9 53.8 4.6 52.9 C 4.1 52.9 4.3 51.7 4.2 51.5 M 4.9 63.3 C 3.2 63.0 7.3 62.7 4.9 63.3 M 5.9 78.9 C 3.7 80.1 7.3 77.3 5.9 78.9 M 6.2 82.0 C 5.8 82.9 6.0 76.3 6.5 81.0 C 6.9 81.5 6.4 81.7 6.2 82.0 M 6.1 60.9 C 5.1 60.9 6.5 58.7 6.1 60.9 M 3.1 69.3 C 3.8 70.2 4.3 72.3 3.2 71.2 C 1.9 70.8 2.6 68.2 3.1 69.3 M 5.8 47.3 C 7.4 49.3 4.4 46.5 5.8 47.3 M 5.6 53.1 C 5.7 53.1 5.7 53.1 5.6 53.1 C 5.6 53.1 5.6 53.1 5.6 53.1 Z M 5.9 55.5 C 5.8 55.5 5.8 55.5 5.9 55.5 M 7.2 48.9 C 7.0 49.0 7.0 49.0 7.2 48.9 M 4.8 69.7 C 4.7 69.8 4.7 69.8 4.8 69.7 M 5.8 65.3 C 4.3 67.0 5.5 63.9 5.8 65.3 M 2.8 58.6 C 2.1 59.0 2.8 57.1 2.8 58.6 M 6.4 69.1 C 4.9 70.3 5.0 66.5 6.4 69.1 M 6.0 64.2 C 6.0 64.3 6.0 64.3 6.0 64.2 C 6.0 64.2 6.0 64.2 6.0 64.2 Z M 3.0 69.8 C 3.0 69.8 3.0 69.8 3.0 69.8 C 3.0 69.8 3.0 69.8 3.0 69.8 Z M 3.1 70.6 C 3.0 70.5 3.0 70.5 3.1 70.6 C 3.1 70.6 3.1 70.6 3.1 70.6 Z M 6.6 71.1 C 6.5 71.1 6.5 71.1 6.6 71.1 C 6.6 71.1 6.6 71.1 6.6 71.1 Z M 2.3 48.6 C 2.2 50.3 2.1 47.2 2.3 48.6 C 2.3 48.6 2.3 48.6 2.3 48.6 Z M 6.6 57.9 C 5.5 60.0 5.5 55.5 6.6 57.9 C 6.6 57.9 6.6 57.9 6.6 57.9 Z M 4.7 60.1 C 4.6 60.0 4.6 60.0 4.7 60.1 C 4.7 60.1 4.7 60.1 4.7 60.1 Z M 7.3 68.4 C 7.2 68.4 7.2 68.4 7.3 68.4 C 7.3 68.4 7.3 68.4 7.3 68.4 Z M 2.1 49.4 C 2.0 49.3 2.0 49.3 2.1 49.4 C 2.1 49.4 2.1 49.4 2.1 49.4 Z M 5.8 75.5 C 5.7 75.5 5.7 75.5 5.8 75.5 C 5.8 75.5 5.8 75.5 5.8 75.5 Z M 2.8 65.3 C 3.3 66.1 2.3 65.3 2.8 65.3 C 2.8 65.3 2.8 65.3 2.8 65.3 Z M 2.7 67.8 C 2.7 67.8 2.7 67.8 2.7 67.8 C 2.7 67.8 2.7 67.8 2.7 67.8 Z M 7.1 79.5 C 7.1 79.5 7.1 79.5 7.1 79.5 C 7.1 79.5 7.1 79.5 7.1 79.5 Z M 1.3 73.7 C 1.4 73.8 1.4 73.8 1.3 73.7 C 1.3 73.7 1.3 73.7 1.3 73.7 Z M 3.1 76.2 C 3.1 76.2 3.1 76.2 3.1 76.2 C 3.1 76.2 3.1 76.2 3.1 76.2 Z M 6.2 70.6 C 6.5 73.1 5.6 69.9 6.2 70.6 C 6.2 70.6 6.2 70.6 6.2 70.6 Z M 3.6 82.4 C 3.5 82.4 3.5 82.4 3.6 82.4 C 3.6 82.4 3.6 82.4 3.6 82.4 Z M 5.6 83.9 C 5.5 83.9 5.5 83.9 5.6 83.9 C 5.6 83.9 5.6 83.9 5.6 83.9 Z M 6.6 84.6 C 6.6 84.6 6.6 84.6 6.6 84.6 C 6.6 84.6 6.6 84.6 6.6 84.6 Z M 3.7 54.5 C 3.8 54.4 3.8 54.4 3.7 54.5 C 3.7 54.5 3.7 54.5 3.7 54.5 Z M 7.0 55.0 C 7.0 55.0 7.0 55.0 7.0 55.0 C 7.0 55.0 7.0 55.0 7.0 55.0 Z M 7.2 58.3 C 7.2 58.3 7.2 58.3 7.2 58.3 C 7.2 58.3 7.2 58.3 7.2 58.3 Z M 1.7 53.0 C 1.8 53.0 1.8 53.0 1.7 53.0 C 1.7 53.0 1.7 53.0 1.7 53.0 Z M 4.5 66.5 C 4.6 66.5 4.6 66.5 4.5 66.5 C 4.5 66.5 4.5 66.5 4.5 66.5 Z M 3.2 67.3 C 3.3 67.2 3.3 67.2 3.2 67.3 C 3.2 67.3 3.2 67.3 3.2 67.3 Z M 1.4 63.8 C 1.5 63.8 1.5 63.8 1.4 63.8 C 1.4 63.8 1.4 63.8 1.4 63.8 Z M 2.1 67.9 C 2.1 67.8 2.1 67.8 2.1 67.9 C 2.1 67.9 2.1 67.9 2.1 67.9 Z M 2.3 44.8 C 2.3 44.8 2.3 44.8 2.3 44.8 C 2.3 44.8 2.3 44.8 2.3 44.8 Z M 4.9 45.9 C 4.8 45.8 4.8 45.8 4.9 45.9 C 4.9 45.9 4.9 45.9 4.9 45.9 Z M 6.4 67.5 C 6.9 68.2 5.6 68.4 6.4 67.5 M 6.0 62.8 C 6.0 62.7 6.0 62.7 6.0 62.8 C 6.0 62.8 6.0 62.8 6.0 62.8 Z M 6.3 75.2 C 5.3 75.6 6.8 73.1 6.3 75.2 C 6.3 75.2 6.3 75.2 6.3 75.2 Z M 2.1 71.7 C 2.0 71.7 2.0 71.7 2.1 71.7 C 2.1 71.7 2.1 71.7 2.1 71.7 Z M 2.5 73.1 C 2.4 73.1 2.4 73.1 2.5 73.1 C 2.5 73.1 2.5 73.1 2.5 73.1 Z M 5.2 80.4 C 5.1 80.5 5.1 80.5 5.2 80.4 M 6.9 62.5 C 6.5 63.0 6.6 62.9 6.9 62.5 M 6.2 76.7 C 6.2 76.7 6.2 76.7 6.2 76.7 C 6.2 76.7 6.2 76.7 6.2 76.7 Z M 5.8 82.0 C 5.7 81.9 5.7 81.9 5.8 82.0 C 5.8 82.0 5.8 82.0 5.8 82.0 Z M 6.3 59.0 C 5.0 58.6 5.3 58.1 6.3 59.0 M 5.9 49.7 C 5.8 49.6 5.8 49.6 5.9 49.7 C 5.9 49.7 5.9 49.7 5.9 49.7 Z M 5.9 49.7 " fill="#0432FF"></path></g></svg>