<?xml version="1.0" encoding="UTF-8" standalone="no"?><svg xmlns="http://www.w3.org/2000/svg" xmlns:xlink="http://www.w3.org/1999/xlink" clip-rule="evenodd" stroke-miterlimit="4.00" viewBox="0 0 208 61"><desc>SVG generated by Keynote</desc><defs></defs><g transform="matrix(1.00, 0.00, -0.00, -1.00, 0.0, 61.0)"><path d="M 1.3 59.7 L 206.4 59.7 L 206.4 1.3 L 1.3 1.3 Z M 1.3 59.7 " fill="#F9DC7E"></path><g><clipPath id="clip-8"><path d="M -7.3 -7.9 L 215.1 -7.9 L 215.1 68.4 L -7.3 68.4 Z M -7.3 -7.9 "></path></clipPath><g clip-path="url(#clip-8)"><text xml:space="preserve" font-family="Chalkduster" font-size="40.0" fill="#282A2E" transform="matrix(1.00, 0.00, -0.00, -1.00, 6.0, 17.0)">S</text><text xml:space="preserve" font-family="Chalkduster" font-size="40.0" fill="#282A2E" transform="matrix(1.00, 0.00, -0.00, -1.00, 25.9, 17.0)">C</text><text xml:space="preserve" font-family="Chalkduster" font-size="40.0" fill="#282A2E" transform="matrix(1.00, 0.00, -0.00, -1.00, 58.3, 17.0)">I</text><text xml:space="preserve" font-family="Chalkduster" font-size="40.0" fill="#282A2E" transform="matrix(1.00, 0.00, -0.00, -1.00, 82.1, 17.0)">E</text><text xml:space="preserve" font-family="Chalkduster" font-size="40.0" fill="#282A2E" transform="matrix(1.00, 0.00, -0.00, -1.00, 111.7, 17.0)">N</text><text xml:space="preserve" font-family="Chalkduster" font-size="40.0" fill="#282A2E" transform="matrix(1.00, 0.00, -0.00, -1.00, 140.2, 17.0)">C</text><text xml:space="preserve" font-family="Chalkduster" font-size="40.0" fill="#282A2E" transform="matrix(1.00, 0.00, -0.00, -1.00, 172.6, 17.0)">E</text></g></g></g></svg>