<?xml version="1.0" encoding="UTF-8" standalone="no"?><svg xmlns="http://www.w3.org/2000/svg" xmlns:xlink="http://www.w3.org/1999/xlink" clip-rule="evenodd" stroke-miterlimit="4.00" viewBox="0 0 130 131"><desc>SVG generated by Keynote</desc><defs></defs><g transform="matrix(1.00, 0.00, -0.00, -1.00, 0.0, 131.0)"><path d="M 107.6 25.4 C 107.7 25.0 108.5 24.6 108.5 24.3 M 107.6 25.4 C 109.1 25.7 110.3 24.7 111.9 23.4 C 113.5 21.8 111.0 22.6 110.8 22.0 C 112.5 19.6 113.2 20.3 113.8 21.5 C 113.9 20.1 117.5 18.9 115.8 18.2 C 112.5 21.5 117.8 15.6 114.3 17.6 C 113.8 17.7 114.3 16.6 114.6 16.3 C 113.2 16.7 114.2 14.5 112.3 15.7 C 111.4 15.1 112.0 15.2 110.4 15.5 C 109.9 15.8 110.4 15.9 110.6 16.0 C 111.3 17.1 108.9 16.7 108.7 18.0 C 106.9 17.5 107.5 19.6 108.6 19.5 C 107.8 20.1 105.8 19.7 105.9 21.2 C 104.9 21.1 103.4 23.3 105.3 22.9 C 106.6 22.6 106.0 23.9 106.2 24.3 C 106.7 24.2 107.5 22.7 107.9 22.8 C 107.7 23.3 106.7 25.2 108.2 23.6 C 108.1 24.5 109.1 24.0 107.6 25.4 C 107.6 25.4 107.6 25.4 107.6 25.4 Z M 113.9 20.4 C 114.2 20.7 113.3 21.0 113.9 20.4 C 113.9 20.4 113.9 20.4 113.9 20.4 Z M 105.9 20.1 C 106.2 20.4 105.3 20.6 105.9 20.1 C 105.9 20.1 105.9 20.1 105.9 20.1 Z M 110.3 16.3 C 110.6 16.6 109.8 16.8 110.3 16.3 C 110.3 16.3 110.3 16.3 110.3 16.3 Z M 112.2 21.7 C 111.1 22.3 112.5 20.5 112.9 20.7 C 112.7 20.8 112.7 21.7 112.2 21.7 C 112.2 21.7 112.2 21.7 112.2 21.7 Z M 110.3 20.0 C 110.3 20.2 110.0 20.6 109.7 20.2 C 109.9 19.9 110.2 19.8 110.3 20.0 C 110.3 20.0 110.3 20.0 110.3 20.0 Z M 115.9 16.9 C 116.0 17.1 115.7 17.5 115.4 17.1 C 115.5 16.8 115.9 16.7 115.9 16.9 C 115.9 16.9 115.9 16.9 115.9 16.9 Z M 110.4 21.9 C 110.1 22.0 109.7 21.8 110.0 21.5 C 110.2 21.5 110.9 21.0 110.4 21.9 C 110.4 21.9 110.4 21.9 110.4 21.9 Z M 110.1 24.3 C 109.2 24.9 110.2 22.9 110.3 23.1 C 110.8 23.1 110.7 24.1 110.1 24.3 C 110.1 24.3 110.1 24.3 110.1 24.3 Z M 109.5 21.9 C 108.8 22.3 109.6 21.4 109.5 21.9 C 109.5 21.9 109.5 21.9 109.5 21.9 Z M 113.0 15.2 C 112.3 15.6 113.1 14.7 113.0 15.2 C 113.0 15.2 113.0 15.2 113.0 15.2 Z M 108.8 17.4 C 108.1 17.9 108.9 17.0 108.8 17.4 C 108.8 17.4 108.8 17.4 108.8 17.4 Z M 113.2 19.4 C 114.3 18.4 114.2 20.1 113.2 19.4 C 113.2 19.4 113.2 19.4 113.2 19.4 Z M 108.4 26.1 C 109.5 25.0 109.4 26.7 108.4 26.1 C 108.4 26.1 108.4 26.1 108.4 26.1 Z M 32.5 101.4 C 31.7 102.5 36.6 99.8 33.9 100.0 C 32.5 99.4 35.1 96.9 35.4 98.5 C 36.3 97.8 36.3 97.9 36.3 97.0 C 37.2 97.6 39.3 96.2 39.6 95.2 C 39.3 94.2 38.3 96.3 38.6 94.6 C 40.7 92.2 37.8 94.0 37.8 92.3 C 37.9 92.2 38.3 92.6 38.3 92.2 C 37.6 91.3 35.8 92.1 35.8 90.9 C 35.6 91.4 33.1 92.1 34.4 92.1 C 35.4 92.6 31.8 93.0 33.1 94.1 C 32.0 94.1 32.3 95.4 31.1 95.2 C 30.5 95.5 31.2 96.1 31.4 96.2 C 32.0 96.7 29.6 95.4 30.0 97.1 C 29.6 96.8 27.9 98.7 29.7 97.8 C 29.3 98.1 26.9 99.9 29.1 99.9 C 31.0 99.0 28.7 102.6 30.5 100.9 C 31.9 99.7 31.9 99.2 31.6 100.8 C 31.2 101.0 29.8 102.6 31.6 101.8 C 31.7 101.4 32.4 100.9 32.5 101.4 C 32.5 101.4 32.5 101.4 32.5 101.4 Z M 30.7 100.1 C 31.4 99.3 31.1 100.4 30.7 100.1 C 30.7 100.1 30.7 100.1 30.7 100.1 Z M 30.9 94.9 C 31.6 94.1 31.4 95.2 30.9 94.9 C 30.9 94.9 30.9 94.9 30.9 94.9 Z M 35.2 99.3 C 35.2 98.6 36.5 99.6 35.2 99.3 C 35.2 99.3 35.2 99.3 35.2 99.3 Z M 30.6 97.0 C 30.6 97.0 30.6 97.3 30.5 97.5 C 30.5 97.4 30.5 97.1 30.6 97.0 C 30.6 97.0 30.6 97.0 30.6 97.0 Z M 36.4 98.0 C 37.0 96.4 37.5 98.7 36.4 98.0 C 36.4 98.0 36.4 98.0 36.4 98.0 Z M 37.6 94.7 C 36.6 93.4 39.0 93.8 37.6 94.7 C 37.6 94.7 37.6 94.7 37.6 94.7 Z M 33.6 93.8 C 33.6 94.2 33.2 93.8 33.6 93.8 C 33.6 93.8 33.6 93.8 33.6 93.8 Z M 28.5 98.5 C 28.6 99.0 28.2 98.6 28.5 98.5 C 28.5 98.5 28.5 98.5 28.5 98.5 Z M 35.1 92.5 C 35.4 93.0 34.4 92.7 35.1 92.5 C 35.1 92.5 35.1 92.5 35.1 92.5 Z M 34.9 98.6 C 34.8 100.6 32.4 98.6 34.9 98.6 C 34.9 98.6 34.9 98.6 34.9 98.6 Z M 33.2 100.6 C 32.7 101.5 32.7 99.9 33.2 99.7 C 33.2 99.8 33.2 100.4 33.2 100.6 C 33.2 100.6 33.2 100.6 33.2 100.6 Z M 35.9 97.5 C 35.6 98.6 35.0 97.9 35.9 97.5 C 35.9 97.5 35.9 97.5 35.9 97.5 Z M 34.6 99.7 C 34.2 100.0 34.8 99.3 34.6 99.7 C 34.6 99.7 34.6 99.7 34.6 99.7 Z M 38.2 97.0 C 37.8 97.2 38.4 96.6 38.2 97.0 C 38.2 97.0 38.2 97.0 38.2 97.0 Z M 32.8 101.9 C 32.3 102.2 32.9 101.5 32.8 101.9 C 32.8 101.9 32.8 101.9 32.8 101.9 Z M 37.3 96.7 C 37.0 96.2 35.2 96.3 37.7 95.3 C 38.3 95.2 38.1 96.6 37.3 96.7 C 37.3 96.7 37.3 96.7 37.3 96.7 Z M 104.3 28.6 C 110.2 25.2 106.9 24.1 106.7 23.5 C 106.7 22.3 105.7 22.5 104.4 23.0 C 102.0 22.6 104.3 25.9 102.3 25.2 C 99.1 24.6 102.5 28.3 99.9 26.9 C 99.6 26.1 98.2 28.4 98.5 28.4 C 96.6 28.3 97.0 31.3 97.2 31.5 C 96.3 31.9 94.5 30.1 93.9 33.4 C 92.9 35.3 90.5 34.2 92.1 35.0 C 89.7 34.7 91.8 36.1 90.3 36.7 C 88.8 36.8 91.4 37.9 88.6 37.8 C 89.1 39.5 88.5 36.4 85.7 40.9 C 87.5 39.2 84.9 43.5 84.8 42.0 C 85.2 40.0 83.4 44.0 81.3 45.2 C 81.3 46.1 80.3 49.1 79.5 47.6 C 76.5 48.0 78.6 50.1 76.8 49.8 C 75.8 49.9 76.5 51.1 76.0 51.4 C 74.7 51.2 74.6 52.3 72.3 54.1 C 67.3 58.4 73.7 56.9 72.2 58.9 C 72.3 59.6 77.5 59.7 74.5 58.7 C 75.4 58.9 77.1 53.1 77.4 57.2 C 78.0 54.9 78.0 58.4 79.8 54.4 C 74.3 56.9 83.7 49.3 80.7 53.9 C 81.7 53.7 83.2 52.0 81.7 52.8 C 79.9 51.8 85.1 50.7 81.8 50.6 C 84.7 48.6 82.5 47.7 84.3 48.1 C 86.7 49.4 83.7 47.8 85.5 47.1 C 88.4 44.2 88.2 48.5 88.6 45.4 C 92.3 43.5 88.4 44.0 89.1 42.8 C 88.1 41.2 93.0 40.9 91.0 43.2 C 91.5 41.4 91.8 43.6 92.3 41.5 C 90.2 41.3 95.2 41.1 93.9 40.5 C 94.7 39.1 93.4 39.0 93.8 38.6 C 95.5 36.9 96.1 38.5 95.6 37.3 C 95.5 36.5 97.8 37.2 97.7 36.6 C 95.8 38.3 97.9 33.9 98.7 34.3 C 97.7 35.5 100.8 35.3 100.6 33.7 C 97.1 32.0 102.8 32.8 102.6 31.1 C 100.5 30.5 106.3 27.1 105.3 29.5 C 105.2 29.3 104.3 28.6 104.3 28.6 M 98.0 35.9 C 96.4 37.2 99.3 34.0 98.0 35.9 M 98.4 36.2 C 97.3 36.3 100.1 35.2 98.5 36.4 C 98.5 36.4 98.5 36.1 98.4 36.2 M 92.5 42.2 C 92.3 41.6 93.5 41.6 92.5 42.2 M 90.4 42.5 C 89.1 43.1 91.7 41.1 90.4 42.5 M 77.5 56.0 C 76.7 52.6 80.1 55.8 77.5 56.0 M 86.7 47.7 C 88.0 45.8 87.0 49.1 86.7 47.7 M 86.6 46.7 C 87.0 45.6 87.3 47.0 86.6 46.7 M 80.0 53.5 C 79.8 53.6 79.8 53.6 80.0 53.5 C 80.0 53.5 80.0 53.5 80.0 53.5 Z M 76.0 57.4 C 76.0 57.4 76.0 57.4 76.0 57.4 C 76.0 57.4 76.0 57.4 76.0 57.4 Z M 83.6 49.5 C 85.3 48.8 81.8 51.7 83.6 49.5 C 83.6 49.5 83.6 49.5 83.6 49.5 Z M 74.6 52.3 C 74.7 52.2 74.7 52.2 74.6 52.3 C 74.6 52.3 74.6 52.3 74.6 52.3 Z M 98.2 33.7 C 98.2 33.7 98.2 33.7 98.2 33.7 C 98.2 33.7 98.2 33.7 98.2 33.7 Z M 103.4 30.1 C 103.1 29.8 104.5 29.5 103.4 30.1 C 103.4 30.1 103.4 30.1 103.4 30.1 Z M 104.6 24.0 C 104.7 23.9 104.7 23.9 104.6 24.0 C 104.6 24.0 104.6 24.0 104.6 24.0 Z M 98.5 31.1 C 98.6 31.0 98.6 31.0 98.5 31.1 C 98.5 31.1 98.5 31.1 98.5 31.1 Z M 99.5 33.3 C 101.4 33.8 97.5 34.7 99.5 33.3 C 99.5 33.3 99.5 33.3 99.5 33.3 Z M 82.1 45.0 C 82.6 45.6 80.9 45.9 82.1 45.0 C 82.1 45.0 82.1 45.0 82.1 45.0 Z M 89.8 42.2 C 89.9 42.6 89.0 42.7 89.8 42.2 C 89.8 42.2 89.8 42.2 89.8 42.2 Z M 93.8 41.3 C 93.9 41.8 93.1 41.8 93.8 41.3 C 93.8 41.3 93.8 41.3 93.8 41.3 Z M 103.7 30.5 C 103.7 30.6 103.7 30.6 103.7 30.5 C 103.7 30.5 103.7 30.5 103.7 30.5 Z M 101.2 31.2 C 103.4 31.2 98.9 32.3 101.2 31.2 C 101.2 31.2 101.2 31.2 101.2 31.2 Z M 102.8 29.0 C 101.8 29.1 104.4 27.7 102.8 29.0 M 100.0 28.4 C 99.1 30.2 99.3 25.2 100.0 28.4 C 100.0 28.4 100.0 28.4 100.0 28.4 Z M 92.7 34.8 C 92.6 34.9 92.6 34.9 92.7 34.8 C 92.7 34.8 92.7 34.8 92.7 34.8 Z M 96.6 37.3 C 95.4 38.5 97.1 36.3 96.6 37.3 C 96.6 37.3 96.6 37.3 96.6 37.3 Z M 107.2 27.2 C 106.0 28.3 107.7 26.1 107.2 27.2 C 107.2 27.2 107.2 27.2 107.2 27.2 Z M 89.8 39.9 C 88.0 42.0 90.4 38.1 89.8 39.9 C 89.8 39.9 89.8 39.9 89.8 39.9 Z M 83.8 48.4 C 83.7 48.4 83.7 48.4 83.8 48.4 C 83.8 48.4 83.8 48.4 83.8 48.4 Z M 82.9 50.2 C 82.9 50.2 82.9 50.2 82.9 50.2 C 82.9 50.2 82.9 50.2 82.9 50.2 Z M 76.3 54.6 C 76.1 54.6 76.1 54.6 76.3 54.6 C 76.3 54.6 76.3 54.6 76.3 54.6 Z M 82.3 51.9 C 82.2 51.9 82.2 51.9 82.3 51.9 C 82.3 51.9 82.3 51.9 82.3 51.9 Z M 78.1 55.5 C 78.0 55.5 78.0 55.5 78.1 55.5 C 78.1 55.5 78.1 55.5 78.1 55.5 Z M 79.6 55.9 C 79.5 55.9 79.5 55.9 79.6 55.9 C 79.6 55.9 79.6 55.9 79.6 55.9 Z M 83.4 42.5 C 83.3 42.6 83.3 42.6 83.4 42.5 C 83.4 42.5 83.4 42.5 83.4 42.5 Z M 101.9 32.9 C 101.7 33.0 101.7 33.0 101.9 32.9 C 101.9 32.9 101.9 32.9 101.9 32.9 Z M 78.0 54.7 C 77.9 54.8 77.9 54.8 78.0 54.7 C 78.0 54.7 78.0 54.7 78.0 54.7 Z M 86.6 44.4 C 85.6 43.6 88.6 44.9 86.4 44.7 C 86.4 44.6 86.8 44.5 86.6 44.4 M 83.7 44.2 C 83.8 44.1 83.8 44.1 83.7 44.2 C 83.7 44.2 83.7 44.2 83.7 44.2 Z M 87.4 39.3 C 87.5 39.2 87.5 39.2 87.4 39.3 C 87.4 39.3 87.4 39.3 87.4 39.3 Z M 83.1 51.4 C 83.8 51.8 81.7 52.1 83.2 51.2 M 74.6 53.0 C 75.3 53.4 73.1 53.7 74.7 52.8 M 108.2 25.5 C 108.0 24.9 109.3 24.9 108.2 25.5 M 87.9 37.9 C 87.7 37.3 88.9 37.3 87.9 37.9 M 87.1 41.1 C 87.8 41.4 85.6 41.7 87.2 40.9 M 77.5 50.1 C 77.5 50.2 77.5 50.2 77.5 50.1 C 77.5 50.1 77.5 50.1 77.5 50.1 Z M 94.7 39.0 C 94.6 39.1 94.6 39.1 94.7 39.0 C 94.7 39.0 94.7 39.0 94.7 39.0 Z M 88.4 43.1 C 89.8 43.1 87.0 43.6 88.4 43.1 M 95.0 36.3 C 96.9 36.1 93.0 37.6 95.0 36.3 M 72.1 55.0 C 74.4 54.9 70.7 55.3 72.1 55.0 M 80.6 52.0 C 82.8 51.9 79.1 52.2 80.6 52.0 M 93.2 39.6 C 93.8 40.1 91.7 40.5 93.2 39.6 M 105.6 28.3 C 106.8 27.3 104.6 30.2 105.6 28.3 M 80.3 47.3 C 80.2 47.3 80.2 47.3 80.3 47.3 C 80.3 47.3 80.3 47.3 80.3 47.3 Z M 97.9 27.8 C 97.8 27.8 97.8 27.8 97.9 27.8 C 97.9 27.8 97.9 27.8 97.9 27.8 Z M 74.2 60.0 C 74.1 60.0 74.1 60.0 74.2 60.0 C 74.2 60.0 74.2 60.0 74.2 60.0 Z M 80.8 50.8 C 80.7 50.7 80.7 50.7 80.8 50.8 C 80.8 50.8 80.8 50.8 80.8 50.8 Z M 76.5 57.9 C 76.4 57.9 76.4 57.9 76.5 57.9 C 76.5 57.9 76.5 57.9 76.5 57.9 Z M 83.5 46.3 C 83.5 46.3 83.5 46.3 83.5 46.3 C 83.5 46.3 83.5 46.3 83.5 46.3 Z M 87.0 48.3 C 86.9 48.3 86.9 48.3 87.0 48.3 C 87.0 48.3 87.0 48.3 87.0 48.3 Z M 89.8 43.2 C 89.7 43.2 89.7 43.2 89.8 43.2 C 89.8 43.2 89.8 43.2 89.8 43.2 Z M 85.0 49.9 C 82.8 52.4 85.3 47.8 85.0 49.9 C 85.0 49.9 85.0 49.9 85.0 49.9 Z M 86.3 43.1 C 86.3 43.1 86.3 43.1 86.3 43.1 C 86.3 43.1 86.3 43.1 86.3 43.1 Z M 88.6 44.7 C 87.9 47.0 86.5 44.2 88.6 44.7 M 95.8 38.8 C 95.8 39.6 94.9 38.4 95.8 38.8 M 94.9 32.6 C 94.8 32.5 94.8 32.5 94.9 32.6 C 94.9 32.6 94.9 32.6 94.9 32.6 Z M 94.4 33.5 C 94.3 33.6 94.3 33.6 94.4 33.5 C 94.4 33.5 94.4 33.5 94.4 33.5 Z M 97.6 37.3 C 97.5 37.4 97.5 37.4 97.6 37.3 C 97.6 37.3 97.6 37.3 97.6 37.3 Z M 93.3 32.6 C 93.2 32.7 93.2 32.7 93.3 32.6 C 93.3 32.6 93.3 32.6 93.3 32.6 Z M 87.8 47.3 C 87.8 47.4 87.8 47.4 87.8 47.3 C 87.8 47.3 87.8 47.3 87.8 47.3 Z M 75.8 59.5 C 75.7 59.5 75.7 59.5 75.8 59.5 C 75.8 59.5 75.8 59.5 75.8 59.5 Z M 102.4 25.7 C 102.3 25.8 102.3 25.8 102.4 25.7 C 102.4 25.7 102.4 25.7 102.4 25.7 Z M 85.5 47.5 C 85.4 47.5 85.4 47.5 85.5 47.5 C 85.5 47.5 85.5 47.5 85.5 47.5 Z M 96.7 31.0 C 96.6 31.0 96.6 31.0 96.7 31.0 C 96.7 31.0 96.7 31.0 96.7 31.0 Z M 86.5 47.0 C 86.5 47.0 86.5 47.0 86.5 47.0 C 86.5 47.0 86.5 47.0 86.5 47.0 Z M 80.5 46.7 C 80.4 46.7 80.4 46.7 80.5 46.7 C 80.5 46.7 80.5 46.7 80.5 46.7 Z M 77.3 48.6 C 77.2 48.7 77.2 48.7 77.3 48.6 C 77.3 48.6 77.3 48.6 77.3 48.6 Z M 82.6 48.4 C 82.5 48.4 82.5 48.4 82.6 48.4 C 82.6 48.4 82.6 48.4 82.6 48.4 Z M 98.7 31.4 C 104.4 27.5 95.4 35.5 98.7 31.4 M 81.5 48.9 C 85.1 45.8 79.9 52.7 81.5 48.9 C 81.5 49.6 81.5 49.0 81.5 48.9 M 73.4 61.6 C 73.8 59.3 72.8 58.3 71.2 57.9 C 70.0 58.0 72.1 60.0 70.3 58.3 C 71.6 56.4 67.1 56.5 69.3 58.6 C 67.6 61.0 67.6 57.5 67.2 59.6 C 65.3 62.1 65.7 60.3 64.2 62.1 C 64.4 64.3 62.6 62.5 63.3 64.1 C 62.9 62.0 61.8 66.2 61.2 65.7 C 62.0 63.4 55.4 71.5 59.8 67.9 C 58.7 70.1 58.0 68.8 57.3 69.2 C 57.3 70.6 54.0 71.3 53.7 73.0 C 54.1 73.0 54.6 72.5 55.0 72.6 C 55.8 72.8 53.8 73.7 54.0 73.5 C 53.6 74.5 51.6 77.9 53.2 73.8 C 52.7 73.0 51.2 76.3 50.7 75.7 C 48.2 78.1 51.3 77.5 49.3 77.7 C 47.5 79.4 46.3 80.7 46.4 80.8 C 45.2 81.7 44.3 81.3 44.0 82.9 C 40.6 83.7 45.0 86.9 41.7 85.2 C 41.6 86.4 39.4 85.3 41.1 86.8 C 41.1 85.3 36.2 89.2 39.2 88.5 C 39.1 89.4 34.3 90.1 36.3 91.3 C 36.5 93.5 37.8 94.5 41.1 93.4 C 40.0 92.8 44.3 92.1 41.2 92.2 C 38.8 93.5 44.0 88.2 43.5 89.9 C 45.0 92.0 44.8 86.2 47.3 86.4 C 45.6 86.6 49.5 82.0 49.7 84.6 C 50.6 83.9 50.1 83.1 51.8 83.0 C 49.1 85.4 51.3 80.6 52.0 81.6 C 52.1 82.5 56.3 79.1 55.1 78.8 C 51.9 78.1 56.5 78.2 56.4 76.7 C 58.1 74.2 57.7 78.7 57.9 75.7 C 58.5 75.6 61.3 72.8 60.0 74.9 C 59.1 75.4 59.5 71.2 61.4 72.5 C 59.4 76.4 65.4 69.6 63.9 70.1 C 58.4 73.8 67.7 64.2 65.0 68.7 C 68.0 67.6 64.8 69.7 66.9 66.7 C 66.1 66.6 67.5 64.1 68.1 65.6 C 70.1 66.7 66.7 62.8 70.4 63.4 C 71.6 64.1 72.8 59.6 72.7 61.8 C 72.8 61.9 73.4 61.7 73.4 61.6 M 72.3 62.3 C 72.3 61.7 73.3 62.2 72.3 62.3 M 72.4 61.6 C 72.4 61.6 72.4 61.6 72.4 61.6 C 72.4 61.6 72.4 61.6 72.4 61.6 Z M 67.2 66.3 C 67.3 66.3 67.3 66.3 67.2 66.3 C 67.2 66.3 67.2 66.3 67.2 66.3 Z M 59.4 66.3 C 59.5 66.3 59.5 66.3 59.4 66.3 C 59.4 66.3 59.4 66.3 59.4 66.3 Z M 63.9 69.5 C 63.9 69.5 63.9 69.5 63.9 69.5 C 63.9 69.5 63.9 69.5 63.9 69.5 Z M 68.7 64.3 C 68.8 64.3 68.8 64.3 68.7 64.3 C 68.7 64.3 68.7 64.3 68.7 64.3 Z M 64.8 69.8 C 63.9 69.4 66.3 69.0 64.8 69.9 C 64.7 69.9 64.9 69.7 64.8 69.8 M 60.7 74.3 C 60.6 74.2 60.6 74.2 60.7 74.3 M 46.7 79.1 C 46.6 79.0 46.6 79.0 46.7 79.1 M 50.6 84.5 C 50.4 84.5 50.4 84.5 50.6 84.5 M 55.9 77.9 C 54.6 79.3 55.3 77.9 55.9 77.9 M 46.8 87.6 C 48.8 86.3 45.4 89.7 46.8 87.6 M 45.6 89.5 C 45.4 89.6 45.4 89.6 45.6 89.5 M 52.7 81.9 C 52.7 81.8 52.7 81.8 52.7 81.9 C 52.7 81.9 52.7 81.9 52.7 81.9 Z M 56.7 77.6 C 58.7 76.2 55.5 79.9 56.7 77.6 M 67.2 67.4 C 66.6 68.7 66.5 66.7 67.2 67.4 M 68.8 65.2 C 68.8 65.1 68.8 65.1 68.8 65.2 C 68.8 65.2 68.8 65.2 68.8 65.2 Z M 49.5 85.0 C 49.5 84.9 49.5 84.9 49.5 85.0 C 49.5 85.0 49.5 85.0 49.5 85.0 Z M 47.7 87.0 C 47.7 86.9 47.7 86.9 47.7 87.0 C 47.7 87.0 47.7 87.0 47.7 87.0 Z M 40.2 85.8 C 40.3 85.7 40.3 85.7 40.2 85.8 C 40.2 85.8 40.2 85.8 40.2 85.8 Z M 65.6 64.8 C 67.2 63.9 65.7 67.5 64.9 66.2 C 64.3 65.9 65.5 65.1 65.6 64.8 M 56.6 75.0 C 54.8 73.9 59.8 75.8 56.6 75.0 M 44.4 88.8 C 41.4 88.3 47.2 88.4 44.4 88.8 M 42.1 91.7 C 41.0 92.1 46.7 86.7 43.3 91.0 C 43.2 91.7 42.5 91.6 42.1 91.7 M 59.9 73.6 C 58.8 73.2 62.3 71.9 59.9 73.6 M 49.7 79.0 C 49.6 80.2 48.4 82.2 48.2 80.6 C 47.1 79.5 50.0 77.8 49.7 79.0 M 71.1 61.9 C 71.4 64.2 70.1 60.8 71.1 61.9 M 66.0 66.8 C 66.1 66.8 66.1 66.8 66.0 66.8 C 66.0 66.8 66.0 66.8 66.0 66.8 Z M 64.3 68.9 C 64.1 68.9 64.1 68.9 64.3 68.9 M 71.5 63.8 C 71.3 63.8 71.3 63.8 71.5 63.8 M 51.1 80.3 C 50.9 80.3 50.9 80.3 51.1 80.3 M 55.9 77.2 C 52.7 77.8 56.7 75.9 55.9 77.2 M 58.1 70.0 C 56.9 70.0 59.3 68.8 58.1 70.0 M 53.3 80.8 C 50.7 81.0 54.0 77.8 53.3 80.8 M 57.0 76.4 C 56.9 76.5 56.9 76.5 57.0 76.4 C 57.0 76.4 57.0 76.4 57.0 76.4 Z M 49.0 79.4 C 49.0 79.3 49.0 79.3 49.0 79.4 C 49.0 79.4 49.0 79.4 49.0 79.4 Z M 48.5 80.0 C 48.5 79.9 48.5 79.9 48.5 80.0 C 48.5 80.0 48.5 80.0 48.5 80.0 Z M 51.7 82.6 C 51.8 82.5 51.8 82.5 51.7 82.6 C 51.7 82.6 51.7 82.6 51.7 82.6 Z M 65.6 61.7 C 64.1 63.0 66.5 60.4 65.6 61.7 C 65.6 61.7 65.6 61.7 65.6 61.7 Z M 63.2 71.3 C 60.0 72.6 63.8 68.8 63.2 71.3 C 63.2 71.3 63.2 71.3 63.2 71.3 Z M 59.0 72.2 C 59.0 72.2 59.0 72.2 59.0 72.2 C 59.0 72.2 59.0 72.2 59.0 72.2 Z M 54.9 80.7 C 54.8 80.6 54.8 80.6 54.9 80.7 C 54.9 80.7 54.9 80.7 54.9 80.7 Z M 64.8 62.2 C 64.7 62.1 64.7 62.1 64.8 62.2 C 64.8 62.2 64.8 62.2 64.8 62.2 Z M 47.2 85.8 C 47.2 85.7 47.2 85.7 47.2 85.8 C 47.2 85.8 47.2 85.8 47.2 85.8 Z M 52.5 75.5 C 52.5 76.5 52.0 75.3 52.5 75.5 C 52.5 75.5 52.5 75.5 52.5 75.5 Z M 50.5 77.5 C 50.4 77.6 50.4 77.6 50.5 77.5 C 50.5 77.5 50.5 77.5 50.5 77.5 Z M 45.2 90.1 C 45.1 90.2 45.1 90.2 45.2 90.1 C 45.2 90.1 45.2 90.1 45.2 90.1 Z M 44.2 81.6 C 44.1 81.6 44.1 81.6 44.2 81.6 C 44.2 81.6 44.2 81.6 44.2 81.6 Z M 43.9 84.7 C 43.9 84.6 43.9 84.6 43.9 84.7 C 43.9 84.7 43.9 84.7 43.9 84.7 Z M 51.8 82.0 C 50.0 84.2 51.7 81.0 51.8 82.0 C 51.8 82.0 51.8 82.0 51.8 82.0 Z M 39.3 90.1 C 39.2 90.1 39.2 90.1 39.3 90.1 C 39.3 90.1 39.3 90.1 39.3 90.1 Z M 39.9 92.8 C 39.8 92.8 39.8 92.8 39.9 92.8 C 39.9 92.8 39.9 92.8 39.9 92.8 Z M 40.3 94.2 C 40.2 94.1 40.2 94.1 40.3 94.2 C 40.3 94.2 40.3 94.2 40.3 94.2 Z M 62.5 67.1 C 62.7 67.1 62.7 67.1 62.5 67.1 C 62.5 67.1 62.5 67.1 62.5 67.1 Z M 66.1 69.0 C 66.1 69.0 66.1 69.0 66.1 69.0 C 66.1 69.0 66.1 69.0 66.1 69.0 Z M 63.4 71.9 C 63.5 71.9 63.5 71.9 63.4 71.9 C 63.4 71.9 63.4 71.9 63.4 71.9 Z M 61.4 65.0 C 61.5 65.0 61.5 65.0 61.4 65.0 C 61.4 65.0 61.4 65.0 61.4 65.0 Z M 53.4 77.5 C 53.5 77.6 53.5 77.6 53.4 77.5 C 53.4 77.5 53.4 77.5 53.4 77.5 Z M 51.4 77.4 C 51.5 77.4 51.5 77.4 51.4 77.4 C 51.4 77.4 51.4 77.4 51.4 77.4 Z M 52.3 73.6 C 52.3 73.6 52.3 73.6 52.3 73.6 C 52.3 73.6 52.3 73.6 52.3 73.6 Z M 49.7 77.2 C 49.7 77.2 49.7 77.2 49.7 77.2 C 49.7 77.2 49.7 77.2 49.7 77.2 Z M 68.8 58.6 C 68.8 58.6 68.8 58.6 68.8 58.6 C 68.8 58.6 68.8 58.6 68.8 58.6 Z M 71.1 60.5 C 71.1 60.3 71.1 60.3 71.1 60.5 C 71.1 60.5 71.1 60.5 71.1 60.5 Z M 54.6 79.4 C 54.6 80.3 53.1 79.7 54.6 79.4 M 58.3 75.2 C 58.3 75.1 58.3 75.1 58.3 75.2 C 58.3 75.2 58.3 75.2 58.3 75.2 Z M 48.0 85.9 C 46.6 85.6 50.2 84.5 48.0 85.9 C 48.0 85.9 48.0 85.9 48.0 85.9 Z M 46.6 80.3 C 46.5 80.4 46.5 80.4 46.6 80.3 C 46.6 80.3 46.6 80.3 46.6 80.3 Z M 45.9 81.7 C 45.7 81.7 45.7 81.7 45.9 81.7 C 45.9 81.7 45.9 81.7 45.9 81.7 Z M 42.5 89.6 C 42.3 89.6 42.3 89.6 42.5 89.6 M 59.5 75.4 C 58.6 75.6 58.7 75.6 59.5 75.4 M 46.6 87.2 C 46.6 87.1 46.6 87.1 46.6 87.2 C 46.6 87.2 46.6 87.2 46.6 87.2 Z M 41.7 91.3 C 41.7 91.2 41.7 91.2 41.7 91.3 C 41.7 91.3 41.7 91.3 41.7 91.3 Z M 61.7 72.1 C 60.6 71.2 61.4 70.9 61.7 72.1 M 69.2 64.0 C 69.1 63.9 69.1 63.9 69.2 64.0 C 69.2 64.0 69.2 64.0 69.2 64.0 Z M 69.2 64.0 " fill="#D3AAEF"></path><path d="M 19.7 89.2 C 19.4 88.7 20.2 87.0 20.2 88.7 C 20.2 88.8 19.8 89.5 19.7 89.2 Z M 18.9 92.3 C 18.9 92.1 19.0 91.9 19.2 91.8 C 19.9 91.6 18.7 93.2 18.9 92.3 Z M 20.7 88.0 C 20.7 87.8 20.9 86.8 21.0 87.1 C 21.2 87.3 20.7 88.0 20.7 88.0 Z M 19.4 95.5 C 19.1 95.3 19.4 94.3 19.6 94.2 C 20.1 93.7 19.9 95.7 19.4 95.5 Z M 28.0 93.4 C 28.1 93.5 28.2 93.5 28.2 93.5 C 28.1 93.5 28.1 93.5 28.0 93.4 Z M 15.1 109.7 C 15.1 109.6 15.4 109.2 15.6 109.4 C 15.9 109.6 15.0 110.4 15.1 109.7 Z M 41.2 105.9 C 41.2 105.9 41.1 105.4 41.3 105.4 C 41.6 105.5 41.5 105.8 41.2 105.9 Z M 41.5 105.6 C 41.6 105.4 41.9 105.6 41.8 105.7 C 41.5 105.8 41.4 105.8 41.5 105.6 Z M 28.4 113.3 C 28.2 113.4 28.2 113.4 28.2 113.3 C 28.3 113.1 28.6 113.2 28.4 113.3 Z M 28.7 112.9 C 28.8 112.6 29.2 112.9 29.0 113.0 C 28.7 113.1 28.6 113.1 28.7 112.9 Z M 32.2 113.5 C 32.0 113.5 32.0 113.6 32.0 113.4 C 32.1 113.3 32.4 113.4 32.2 113.5 Z M 36.5 100.0 C 36.7 100.0 37.0 100.6 36.8 100.7 C 36.5 100.8 36.2 100.0 36.5 100.0 Z M 37.1 100.5 C 37.2 100.3 37.6 100.5 37.3 100.6 C 37.2 100.6 37.0 100.6 37.1 100.5 Z M 35.2 99.1 C 35.0 99.4 34.5 98.9 34.5 98.8 C 34.4 98.6 34.3 98.3 34.2 98.1 C 34.2 98.0 35.5 98.9 35.2 99.1 Z M 31.5 95.9 C 31.6 95.8 31.7 95.8 31.8 96.1 C 31.9 96.3 31.5 96.0 31.5 95.9 Z M 33.6 97.7 C 33.7 97.7 33.8 97.7 33.9 97.9 C 33.9 98.1 33.5 97.8 33.6 97.7 Z M 17.3 101.1 C 17.1 101.2 17.4 100.4 17.5 100.4 C 17.5 100.3 17.5 100.6 17.6 100.5 C 17.7 100.3 18.2 100.9 17.3 101.1 Z M 18.5 94.1 C 18.6 93.9 18.7 93.9 18.9 94.0 C 18.9 94.0 18.5 94.6 18.5 94.1 Z M 18.5 100.3 C 18.4 100.3 18.4 100.1 18.5 100.1 C 18.6 100.1 18.6 100.3 18.5 100.3 Z M 18.5 100.9 C 18.5 100.7 18.8 100.4 19.0 100.5 C 19.3 100.7 18.4 101.5 18.5 100.9 Z M 16.8 102.0 C 16.8 101.8 16.8 101.8 16.9 101.9 C 16.9 102.1 16.8 102.0 16.8 102.0 Z M 17.4 97.9 C 17.5 97.7 17.5 97.7 17.5 97.8 C 17.6 98.0 17.4 97.9 17.4 97.9 Z M 16.8 104.0 C 16.8 104.0 16.6 103.4 17.1 103.4 C 17.7 103.4 16.8 104.0 16.8 104.0 Z M 16.7 106.9 C 16.7 106.7 16.9 106.9 16.8 107.0 C 16.7 107.2 16.6 107.1 16.7 106.9 Z M 17.3 108.2 C 17.1 108.5 16.8 108.6 17.0 108.2 C 17.2 107.7 17.6 107.9 17.3 108.2 Z M 17.2 107.6 C 17.3 107.6 17.3 107.8 17.2 107.8 C 17.1 107.8 17.2 107.6 17.2 107.6 Z M 17.2 105.1 C 17.1 104.8 17.4 104.6 17.4 105.0 C 17.4 105.4 17.3 105.3 17.2 105.1 Z M 27.1 90.7 C 27.0 90.7 27.2 90.5 27.4 90.5 C 27.5 90.5 27.3 90.8 27.1 90.7 Z M 33.8 98.9 C 33.8 98.7 33.9 98.8 34.0 99.0 C 34.2 99.3 33.8 99.1 33.8 98.9 Z M 38.1 104.0 C 38.1 103.8 38.2 103.8 38.3 104.1 C 38.5 104.4 38.1 104.2 38.1 104.0 Z M 31.9 97.0 C 31.9 96.9 32.8 97.0 32.7 97.6 C 32.6 98.2 31.8 97.5 31.9 97.0 Z M 23.5 96.2 C 23.4 96.1 23.6 96.0 23.6 96.0 C 23.7 96.2 23.7 96.2 23.5 96.2 Z M 32.4 98.7 C 32.2 98.6 32.5 98.4 32.6 98.4 C 32.8 98.4 32.6 98.7 32.4 98.7 Z M 37.5 102.9 C 37.4 102.6 37.8 102.4 38.1 102.4 C 38.8 102.5 38.7 103.2 38.7 103.6 C 38.8 104.0 37.6 103.1 37.5 102.9 Z M 25.3 90.3 C 25.4 90.5 25.4 90.6 25.5 90.7 C 25.6 90.7 25.7 90.8 25.7 90.9 C 26.2 91.3 26.9 91.2 27.3 91.4 C 28.3 91.8 27.7 92.9 28.0 93.4 C 27.9 93.3 27.8 93.2 27.7 93.2 C 27.2 93.3 29.0 94.8 29.1 94.9 C 30.7 96.1 29.3 94.2 29.7 93.7 C 29.9 93.5 30.4 95.0 30.4 95.1 C 30.6 95.7 31.2 95.3 31.4 95.9 C 31.5 96.1 30.9 97.8 31.2 97.8 C 31.5 97.8 31.8 98.3 32.0 98.5 C 32.2 98.8 32.7 99.2 32.9 98.5 C 33.0 98.1 33.2 97.7 33.3 98.4 C 33.3 98.8 34.3 101.1 35.0 100.2 C 35.1 100.2 35.0 99.6 34.9 99.6 C 35.6 99.8 36.7 101.5 37.4 101.5 C 38.8 101.5 36.7 101.7 36.9 102.3 C 37.2 103.3 37.2 103.8 38.2 104.5 C 38.4 104.7 39.2 105.4 39.2 104.6 C 39.3 104.1 39.7 104.1 39.3 103.5 C 40.2 103.6 39.8 104.7 40.0 104.7 C 40.4 104.6 40.3 104.2 40.6 104.6 C 41.0 105.1 40.9 104.8 40.6 105.3 C 40.5 105.4 40.8 106.0 40.8 106.0 C 40.8 106.0 40.8 106.0 40.7 106.1 C 41.1 106.4 42.5 106.2 42.4 106.5 C 42.4 106.8 41.6 107.0 41.5 107.2 C 41.5 107.2 41.5 107.3 41.5 107.3 C 41.8 107.4 42.5 107.5 42.5 107.6 C 42.4 107.8 41.5 108.2 41.8 108.2 C 42.2 108.1 42.8 109.2 42.6 109.5 C 42.5 109.7 41.7 110.9 41.8 111.1 C 41.9 111.3 41.2 111.5 41.0 111.6 C 40.8 111.6 40.3 111.4 40.2 111.3 C 40.1 111.3 39.6 111.5 39.6 111.5 C 39.6 111.5 39.4 111.7 38.9 111.8 C 38.5 112.0 38.1 111.8 37.5 111.7 C 37.0 111.7 36.8 112.1 36.3 112.3 C 35.8 112.5 35.2 111.8 34.7 111.8 C 34.2 111.8 34.4 112.5 33.9 112.7 C 33.3 112.9 33.0 112.8 33.1 112.6 C 33.3 112.5 33.1 112.3 32.9 112.4 C 32.7 112.4 32.0 112.4 31.8 112.6 C 31.6 112.7 33.4 112.9 31.3 113.3 C 30.3 113.5 29.4 113.0 29.6 113.0 C 30.4 112.7 28.5 112.1 28.6 112.4 C 28.7 112.8 26.9 113.2 27.4 113.6 C 27.6 113.7 25.9 114.4 25.6 114.4 C 25.3 114.3 24.5 114.7 24.2 114.2 C 24.0 113.9 23.2 114.9 22.9 115.0 C 22.7 115.0 21.3 115.3 20.9 115.2 C 20.6 115.2 21.3 115.0 21.6 114.9 C 21.9 114.8 22.4 115.0 22.7 114.9 C 22.9 114.7 22.3 114.6 21.9 114.7 C 21.6 114.7 21.4 114.5 21.1 114.4 C 21.0 114.5 20.7 114.6 20.4 114.6 C 20.3 114.6 20.2 114.7 20.3 114.8 C 20.3 115.0 20.5 115.1 20.5 115.2 C 20.5 115.3 20.3 115.5 19.8 115.6 C 19.4 115.7 19.0 115.7 18.4 115.7 C 17.8 115.7 17.7 115.9 17.3 116.0 C 16.9 116.2 16.6 116.2 16.5 116.1 C 16.5 116.0 16.9 115.8 17.0 115.6 C 17.0 115.5 16.4 115.3 16.1 115.4 C 15.0 115.5 15.7 114.4 14.6 114.5 C 14.0 114.6 14.5 114.1 14.8 113.7 C 14.6 113.7 14.6 113.6 14.6 113.1 C 14.5 113.1 14.8 112.4 14.8 112.1 C 14.9 111.9 15.0 110.5 15.1 111.4 C 15.1 111.4 15.1 111.5 15.1 111.6 C 15.2 111.6 15.2 111.6 15.2 111.6 C 15.2 111.6 15.6 112.1 15.6 112.1 C 15.6 112.1 15.2 111.6 15.2 111.6 C 15.4 111.5 15.7 111.4 15.8 111.3 C 15.8 111.2 15.8 111.1 15.7 111.1 C 15.7 111.0 15.7 111.0 15.7 111.0 C 15.7 111.0 15.7 111.0 15.7 111.0 C 15.5 111.0 15.5 110.9 15.6 110.7 C 15.5 110.2 16.1 109.2 16.4 108.8 C 17.2 110.3 17.7 108.2 17.7 107.4 C 17.8 106.7 16.3 106.4 16.3 106.7 C 16.4 106.2 16.6 106.2 17.1 106.1 C 17.0 106.1 18.0 105.8 18.0 105.8 C 18.7 104.8 17.5 104.7 17.4 104.4 C 17.4 104.0 17.5 103.6 17.5 103.3 C 17.5 102.9 17.1 103.2 17.0 103.0 C 16.6 102.4 17.8 101.9 18.0 101.5 C 18.0 101.8 18.0 102.2 18.1 102.5 C 17.9 102.0 18.7 102.0 18.8 101.8 C 19.0 101.5 19.1 101.0 19.1 100.6 C 19.3 99.9 19.3 99.2 19.4 98.6 C 19.2 98.7 18.2 99.5 18.2 99.6 C 18.2 99.4 18.6 98.8 18.0 98.9 C 17.1 99.1 17.9 97.5 18.0 97.3 C 18.3 96.4 17.7 95.3 18.9 94.7 C 18.9 94.7 18.8 96.1 18.9 96.0 C 19.7 95.9 20.2 95.7 20.3 94.7 C 20.3 94.5 20.0 93.1 20.0 93.1 C 20.1 93.2 18.0 94.0 18.8 93.0 C 19.0 92.8 19.2 93.4 19.4 93.1 C 19.7 92.8 19.7 92.2 19.8 91.8 C 19.8 91.7 20.2 91.1 20.2 91.0 C 20.0 90.8 19.7 90.7 19.6 90.4 C 19.6 90.1 19.8 89.9 20.1 89.9 C 20.1 89.9 20.2 90.0 20.2 90.0 C 20.2 89.9 20.3 89.9 20.5 89.9 C 20.5 89.8 20.5 89.6 20.7 89.5 C 20.8 89.4 20.8 89.8 20.6 90.0 C 20.7 90.0 20.8 90.0 20.9 90.1 C 20.9 89.7 20.9 89.3 20.9 89.3 C 20.7 88.6 20.4 88.5 21.3 87.8 C 22.1 87.3 24.0 88.4 24.7 89.5 C 25.0 89.7 25.2 89.9 25.3 90.3 Z M 19.6 114.4 C 19.7 114.4 19.7 114.4 19.8 114.4 C 19.7 114.2 19.7 114.1 19.6 114.0 C 19.3 114.0 19.8 114.2 19.4 114.2 C 19.1 114.3 19.2 114.4 19.6 114.4 Z M 17.7 112.1 C 17.5 112.3 17.6 112.3 17.7 112.3 C 17.7 112.2 17.7 112.2 17.7 112.1 Z M 16.4 111.7 C 16.4 112.1 17.1 111.6 17.1 110.9 C 16.7 111.2 16.4 111.5 16.4 111.7 Z M 16.0 110.5 C 16.1 110.5 16.2 110.6 16.2 110.6 C 16.4 110.7 16.3 110.2 16.5 110.3 C 16.6 110.4 16.7 110.9 16.8 110.6 C 16.9 110.6 16.9 110.5 17.0 110.4 C 17.0 110.4 17.0 110.3 16.9 110.3 C 16.8 110.0 16.2 110.2 16.0 110.5 Z M 21.3 112.9 C 21.1 113.1 21.3 113.1 21.4 113.0 C 21.6 112.9 21.5 112.8 21.3 112.9 Z M 24.1 113.5 C 23.8 113.4 23.6 113.5 23.9 113.7 C 24.1 113.8 24.3 113.6 24.1 113.5 Z M 23.9 108.8 C 23.9 108.9 23.9 108.9 24.1 108.8 C 24.3 108.7 24.0 108.6 23.9 108.8 Z M 22.3 106.9 C 22.3 106.7 21.9 106.8 22.0 106.9 C 22.1 107.0 22.3 107.1 22.3 106.9 Z M 26.0 111.1 C 26.2 111.0 26.0 110.9 25.9 111.0 C 25.8 111.2 25.9 111.2 26.0 111.1 Z M 23.3 109.1 C 23.6 109.2 23.6 109.1 23.7 109.0 C 23.7 108.9 23.5 108.7 23.3 108.8 C 23.0 109.0 23.0 109.1 23.3 109.1 Z M 21.7 107.8 C 21.9 107.1 21.6 107.0 21.6 107.9 C 21.5 108.7 21.6 108.2 21.7 107.8 Z M 26.1 113.8 C 26.0 113.8 25.7 114.0 25.7 114.0 C 25.7 114.0 26.7 113.9 26.1 113.8 Z M 17.9 103.7 C 17.9 104.0 18.0 104.2 18.2 103.8 C 18.3 103.5 18.0 103.5 17.9 103.7 Z M 19.5 103.6 C 18.9 103.7 18.7 104.1 18.7 104.1 C 18.7 104.0 19.1 104.3 19.1 104.5 C 19.2 104.9 18.6 105.3 18.8 105.9 C 19.0 106.4 19.3 105.4 19.3 105.2 C 19.3 105.4 19.4 105.5 19.5 105.6 C 19.7 105.5 19.8 105.4 19.7 105.2 C 19.6 105.0 20.2 103.5 19.5 103.6 Z M 23.6 107.7 C 23.4 107.8 23.3 108.1 23.6 108.2 C 23.9 108.2 24.2 108.2 24.2 108.1 C 24.2 108.0 23.9 107.6 23.6 107.7 Z M 25.1 108.9 C 25.0 109.1 25.1 109.1 25.3 109.0 C 25.7 108.9 25.2 108.6 25.1 108.9 Z M 33.0 112.0 C 33.1 111.8 32.7 111.9 32.7 112.0 C 32.8 112.2 32.9 112.1 33.0 112.0 Z M 30.7 109.9 C 31.2 109.6 30.6 109.6 30.5 109.7 C 30.4 109.7 30.5 110.1 30.7 109.9 Z M 28.2 109.9 C 28.4 109.8 28.0 109.7 27.9 109.8 C 27.9 110.0 28.1 109.9 28.2 109.9 Z M 27.2 109.2 C 27.4 109.1 27.1 108.9 26.9 109.1 C 26.8 109.2 27.0 109.3 27.2 109.2 Z M 20.8 101.5 C 20.8 101.5 21.2 101.7 21.1 101.3 C 21.0 100.9 21.0 100.9 20.8 101.5 Z M 22.7 104.6 C 22.7 105.0 22.7 105.4 23.6 105.8 C 24.5 106.3 24.4 105.9 24.1 105.4 C 23.8 104.8 25.2 105.7 24.6 104.7 C 24.3 104.2 22.8 104.3 22.7 104.6 Z M 28.4 107.9 C 27.7 107.7 27.2 108.4 27.8 108.3 C 28.5 108.2 29.0 108.0 28.4 107.9 Z M 28.7 108.1 C 28.6 108.2 28.7 108.2 28.9 108.2 C 29.1 108.1 28.9 108.0 28.7 108.1 Z M 18.1 98.2 C 18.0 99.4 19.1 98.3 19.1 98.3 C 19.7 97.1 18.1 96.9 18.1 98.2 Z M 40.0 106.0 C 40.0 106.0 39.9 106.0 39.9 105.9 C 39.9 105.9 39.9 105.9 39.8 105.9 C 39.6 105.9 39.8 106.3 39.8 106.3 C 39.9 106.3 40.0 106.2 40.0 106.0 Z M 35.7 101.3 C 35.9 101.6 36.0 101.7 36.3 101.7 C 36.6 101.2 35.2 99.8 35.1 101.1 C 35.0 101.2 35.3 102.7 35.7 102.4 C 36.0 102.3 35.3 100.9 35.7 101.3 Z M 36.5 103.3 C 36.1 102.7 36.5 104.3 36.6 103.9 C 36.7 103.7 36.7 103.5 36.5 103.3 Z M 39.3 108.5 C 40.3 108.9 41.2 107.7 39.5 107.2 C 37.9 106.6 37.3 107.0 38.1 107.4 C 38.8 107.8 37.8 107.9 39.3 108.5 Z M 33.5 102.7 C 34.4 102.1 33.8 101.9 33.0 102.3 C 32.9 102.4 32.9 103.1 33.5 102.7 Z M 31.7 101.2 C 31.6 100.9 31.6 100.9 31.6 101.2 C 31.5 101.5 31.9 101.5 31.7 101.2 Z M 39.4 110.7 C 39.8 110.9 40.2 110.8 40.1 111.0 C 39.9 111.2 40.0 111.1 40.3 111.2 C 40.7 111.2 40.3 110.8 40.1 110.7 C 39.9 110.5 39.0 110.6 39.4 110.7 Z M 30.5 107.1 C 30.7 107.0 30.5 106.9 30.4 107.1 C 30.3 107.1 30.3 107.2 30.5 107.1 Z M 23.6 101.8 C 23.6 101.8 23.8 101.9 23.7 101.7 C 23.7 101.4 23.7 101.4 23.6 101.8 Z M 18.9 96.6 C 18.9 96.8 19.3 96.5 19.5 96.8 C 19.6 96.9 19.3 96.9 19.2 96.9 C 19.3 96.9 20.0 97.5 19.8 96.8 C 19.8 96.5 18.9 95.9 18.9 96.6 Z M 29.0 105.2 C 28.5 105.2 29.4 106.4 29.0 106.4 C 28.6 106.5 28.7 106.6 29.2 106.6 C 29.6 106.6 29.6 105.2 29.0 105.2 Z M 31.8 107.7 C 31.6 107.5 30.7 107.6 31.1 107.7 C 31.5 107.9 31.9 107.8 31.8 108.0 C 31.6 108.2 31.7 108.1 32.0 108.1 C 32.4 108.2 32.0 107.8 31.8 107.7 Z M 36.4 111.8 C 36.2 111.8 35.8 112.0 36.1 112.1 C 36.3 112.1 36.5 111.9 36.4 111.8 Z M 24.5 99.4 C 24.6 99.7 24.7 99.7 24.7 99.3 C 24.8 98.9 24.4 99.1 24.5 99.4 Z M 36.7 110.7 C 36.2 110.7 36.8 110.9 36.5 111.0 C 36.1 111.0 36.2 111.1 36.6 111.1 C 37.1 111.1 37.2 110.8 36.7 110.7 Z M 21.2 94.8 C 21.3 94.9 21.5 95.0 21.5 94.8 C 21.5 94.6 21.1 94.6 21.2 94.8 Z M 23.5 95.8 C 23.4 95.9 23.4 96.0 23.3 96.1 C 23.0 97.8 24.4 95.3 23.5 95.8 Z M 25.8 98.4 C 25.4 98.2 25.7 98.8 25.7 98.7 C 25.8 98.7 25.9 98.6 25.8 98.4 Z M 28.6 101.2 C 28.8 101.1 28.5 100.9 28.4 101.0 C 28.3 101.2 28.4 101.2 28.6 101.2 Z M 20.2 91.8 C 20.1 92.0 20.2 92.0 20.3 91.9 C 20.4 91.8 20.3 91.6 20.2 91.8 Z M 27.2 98.5 C 27.1 98.6 27.0 98.6 27.2 98.7 C 27.4 98.8 27.3 98.5 27.2 98.5 Z M 35.6 106.9 C 35.5 106.9 35.3 106.9 35.2 106.9 C 35.1 107.1 35.6 107.7 35.4 107.9 C 35.4 107.9 35.4 107.9 35.4 107.9 C 35.4 107.9 35.4 107.9 35.4 108.0 C 35.2 108.0 35.1 108.0 35.1 107.9 C 35.0 107.9 34.9 107.8 34.8 107.7 C 34.8 108.1 34.9 108.4 35.1 108.4 C 35.5 108.4 35.9 108.1 36.1 107.7 C 36.1 107.6 36.0 107.4 35.9 107.3 C 35.9 107.3 35.9 107.3 35.9 107.3 C 35.6 107.4 35.4 107.3 35.5 107.2 C 35.6 107.1 35.7 107.1 35.8 107.1 C 35.8 107.0 35.7 106.9 35.6 106.9 Z M 28.6 99.2 C 28.3 99.1 28.4 99.3 28.6 99.7 C 28.7 99.9 28.9 99.3 28.6 99.2 Z M 20.8 91.8 C 20.9 91.9 21.0 91.9 21.1 91.9 C 21.1 91.9 21.0 91.8 21.0 91.7 C 20.9 91.6 20.8 91.4 20.7 91.2 C 20.5 91.4 20.4 91.6 20.8 91.8 Z M 24.0 93.4 C 23.9 93.4 22.9 92.3 22.9 92.7 C 22.8 93.4 22.0 93.3 22.9 93.9 C 23.3 94.2 24.1 93.9 24.5 94.2 C 26.7 95.5 24.5 93.2 24.2 92.7 C 24.1 92.6 24.1 93.5 24.0 93.4 Z M 26.8 95.2 C 27.1 95.1 27.0 94.7 26.9 94.6 C 26.4 94.2 26.5 95.3 26.8 95.2 Z M 22.1 90.0 C 22.1 90.0 22.1 90.0 22.0 90.1 C 22.1 90.1 22.2 90.1 22.2 90.1 C 22.2 90.0 22.2 90.0 22.1 90.0 Z M 21.1 88.6 C 21.0 89.5 21.9 88.5 22.0 88.2 C 22.2 87.7 21.1 88.1 21.1 88.6 Z M 26.3 93.1 C 26.7 93.4 28.1 92.8 27.4 92.2 C 26.8 91.7 25.6 92.2 26.3 93.1 Z M 31.4 95.5 C 31.1 95.4 30.9 94.9 31.3 94.9 C 31.5 94.9 31.5 95.5 31.4 95.5 Z M 26.4 89.4 C 26.5 89.5 26.3 89.4 26.3 89.4 C 26.4 89.2 26.4 89.2 26.4 89.4 Z M 26.2 90.6 C 26.1 90.4 25.9 90.1 25.8 89.9 C 25.8 89.8 26.2 90.0 26.2 90.1 C 26.3 90.2 26.1 90.6 26.2 90.6 Z M 29.0 93.7 C 29.0 93.4 29.3 93.6 29.3 93.8 C 29.4 93.9 29.1 93.9 29.0 93.7 Z M 28.6 92.7 C 28.7 92.9 28.4 92.9 28.3 92.8 C 28.2 92.6 28.5 92.6 28.6 92.7 Z M 29.2 94.5 C 28.8 94.3 28.3 94.0 28.6 93.7 C 28.8 93.6 30.0 95.0 29.2 94.5 Z M 29.2 94.5 " fill="#D3AAEF"></path></g></svg>