<?xml version="1.0" encoding="UTF-8" standalone="no"?><svg xmlns="http://www.w3.org/2000/svg" xmlns:xlink="http://www.w3.org/1999/xlink" clip-rule="evenodd" stroke-miterlimit="4.00" viewBox="0 0 383 138"><desc>SVG generated by Keynote</desc><defs></defs><g transform="matrix(1.00, 0.00, -0.00, -1.00, 0.0, 138.0)"><path d="M 1.5 136.7 L 381.7 136.7 L 381.7 1.4 L 1.5 1.4 Z M 1.5 136.7 " fill="#F9DC7E"></path><g><clipPath id="clip-12"><path d="M -10.3 -11.0 L 393.5 -11.0 L 393.5 148.5 L -10.3 148.5 Z M -10.3 -11.0 "></path></clipPath><g clip-path="url(#clip-12)"><text xml:space="preserve" font-family="Chalkduster" font-size="50.0" fill="#282A2E" transform="matrix(1.00, 0.00, -0.00, -1.00, 130.0, 84.0)">D</text><text xml:space="preserve" font-family="Chalkduster" font-size="50.0" fill="#282A2E" transform="matrix(1.00, 0.00, -0.00, -1.00, 165.0, 84.0)">a</text><text xml:space="preserve" font-family="Chalkduster" font-size="50.0" fill="#282A2E" transform="matrix(1.00, 0.00, -0.00, -1.00, 196.0, 84.0)">t</text><text xml:space="preserve" font-family="Chalkduster" font-size="50.0" fill="#282A2E" transform="matrix(1.00, 0.00, -0.00, -1.00, 218.4, 84.0)">a</text><text xml:space="preserve" font-family="Chalkduster" font-size="50.0" fill="#282A2E" transform="matrix(1.00, 0.00, -0.00, -1.00, 252.8, 84.0)"> </text><text xml:space="preserve" font-family="Chalkduster" font-size="50.0" fill="#282A2E" transform="matrix(1.00, 0.00, -0.00, -1.00, 74.0, 20.0)">S</text><text xml:space="preserve" font-family="Chalkduster" font-size="50.0" fill="#282A2E" transform="matrix(1.00, 0.00, -0.00, -1.00, 98.9, 20.0)">c</text><text xml:space="preserve" font-family="Chalkduster" font-size="50.0" fill="#282A2E" transform="matrix(1.00, 0.00, -0.00, -1.00, 130.3, 20.0)">i</text><text xml:space="preserve" font-family="Chalkduster" font-size="50.0" fill="#282A2E" transform="matrix(1.00, 0.00, -0.00, -1.00, 150.0, 20.0)">e</text><text xml:space="preserve" font-family="Chalkduster" font-size="50.0" fill="#282A2E" transform="matrix(1.00, 0.00, -0.00, -1.00, 181.6, 20.0)">n</text><text xml:space="preserve" font-family="Chalkduster" font-size="50.0" fill="#282A2E" transform="matrix(1.00, 0.00, -0.00, -1.00, 216.4, 20.0)">t</text><text xml:space="preserve" font-family="Chalkduster" font-size="50.0" fill="#282A2E" transform="matrix(1.00, 0.00, -0.00, -1.00, 239.5, 20.0)">i</text><text xml:space="preserve" font-family="Chalkduster" font-size="50.0" fill="#282A2E" transform="matrix(1.00, 0.00, -0.00, -1.00, 259.2, 20.0)">s</text><text xml:space="preserve" font-family="Chalkduster" font-size="50.0" fill="#282A2E" transform="matrix(1.00, 0.00, -0.00, -1.00, 286.0, 20.0)">t</text></g></g></g></svg>