<?xml version="1.0" encoding="UTF-8" standalone="no"?><svg xmlns="http://www.w3.org/2000/svg" xmlns:xlink="http://www.w3.org/1999/xlink" clip-rule="evenodd" stroke-miterlimit="4.00" viewBox="0 0 130 131"><desc>SVG generated by Keynote</desc><defs></defs><g transform="matrix(1.00, 0.00, -0.00, -1.00, 0.0, 131.0)"><path d="M 105.2 108.2 C 105.5 108.3 105.9 109.1 106.2 109.2 M 105.2 108.2 C 104.8 109.7 105.9 110.9 107.1 112.5 C 108.7 114.1 107.9 111.6 108.5 111.4 C 110.9 113.1 110.3 113.8 109.0 114.5 C 110.4 114.6 111.6 118.1 112.3 116.4 C 109.0 113.1 115.0 118.4 112.9 115.0 C 112.8 114.5 113.9 114.9 114.2 115.2 C 113.8 113.8 116.0 114.8 114.9 113.0 C 115.4 112.0 115.4 112.6 115.0 111.0 C 114.7 110.6 114.6 111.0 114.5 111.2 C 113.4 112.0 113.8 109.6 112.5 109.4 C 113.0 107.5 110.9 108.1 111.0 109.3 C 110.4 108.4 110.8 106.4 109.3 106.5 C 109.5 105.5 107.2 104.0 107.6 105.9 C 107.9 107.2 106.7 106.6 106.3 106.8 C 106.3 107.3 107.8 108.1 107.8 108.5 C 107.2 108.3 105.3 107.3 106.9 108.8 C 106.0 108.7 106.5 109.7 105.2 108.2 C 105.2 108.2 105.2 108.2 105.2 108.2 Z M 110.1 114.5 C 109.8 114.8 109.6 114.0 110.1 114.5 C 110.1 114.5 110.1 114.5 110.1 114.5 Z M 110.5 106.5 C 110.2 106.8 110.0 106.0 110.5 106.5 C 110.5 106.5 110.5 106.5 110.5 106.5 Z M 114.2 110.9 C 113.9 111.3 113.7 110.4 114.2 110.9 C 114.2 110.9 114.2 110.9 114.2 110.9 Z M 108.8 112.9 C 108.2 111.7 110.0 113.1 109.8 113.6 C 109.7 113.4 108.8 113.3 108.8 112.9 C 108.8 112.9 108.8 112.9 108.8 112.9 Z M 110.5 110.9 C 110.3 111.0 109.9 110.6 110.3 110.4 C 110.6 110.5 110.7 110.9 110.5 110.9 C 110.5 110.9 110.5 110.9 110.5 110.9 Z M 113.6 116.6 C 113.4 116.6 113.0 116.3 113.4 116.0 C 113.7 116.2 113.8 116.5 113.6 116.6 C 113.6 116.6 113.6 116.6 113.6 116.6 Z M 108.7 111.0 C 108.5 110.8 108.7 110.4 109.0 110.6 C 109.0 110.9 109.5 111.5 108.7 111.0 C 108.7 111.0 108.7 111.0 108.7 111.0 Z M 106.2 110.7 C 105.7 109.8 107.6 110.8 107.5 110.9 C 107.5 111.4 106.4 111.3 106.2 110.7 C 106.2 110.7 106.2 110.7 106.2 110.7 Z M 108.7 110.2 C 108.2 109.4 109.2 110.2 108.7 110.2 C 108.7 110.2 108.7 110.2 108.7 110.2 Z M 115.3 113.6 C 114.9 112.9 115.8 113.7 115.3 113.6 C 115.3 113.6 115.3 113.6 115.3 113.6 Z M 113.1 109.5 C 112.6 108.7 113.6 109.5 113.1 109.5 C 113.1 109.5 113.1 109.5 113.1 109.5 Z M 111.1 113.9 C 112.1 114.9 110.4 114.8 111.1 113.9 C 111.1 113.9 111.1 113.9 111.1 113.9 Z M 104.5 109.1 C 105.5 110.1 103.8 110.0 104.5 109.1 C 104.5 109.1 104.5 109.1 104.5 109.1 Z M 29.1 33.1 C 27.9 32.3 30.7 37.1 30.5 34.5 C 31.1 33.0 33.6 35.7 32.0 36.0 C 32.6 36.9 32.6 36.9 33.5 36.9 C 32.9 37.7 34.3 39.9 35.3 40.2 C 36.3 39.9 34.2 38.9 35.9 39.2 C 38.3 41.3 36.4 38.4 38.1 38.4 C 38.2 38.5 37.9 38.9 38.3 38.9 C 39.2 38.2 38.4 36.4 39.6 36.4 C 39.1 36.1 38.4 33.7 38.4 35.0 C 37.8 36.0 37.5 32.4 36.4 33.7 C 36.4 32.6 35.1 32.8 35.3 31.6 C 35.0 31.1 34.4 31.7 34.3 32.0 C 33.7 32.6 35.1 30.2 33.4 30.6 C 33.7 30.2 31.7 28.5 32.6 30.3 C 32.3 29.9 30.5 27.5 30.5 29.7 C 31.5 31.6 27.9 29.3 29.6 31.1 C 30.7 32.5 31.2 32.5 29.7 32.1 C 29.5 31.8 27.8 30.4 28.6 32.1 C 29.1 32.3 29.6 33.0 29.1 33.1 C 29.1 33.1 29.1 33.1 29.1 33.1 Z M 30.4 31.3 C 31.2 32.0 30.1 31.7 30.4 31.3 C 30.4 31.3 30.4 31.3 30.4 31.3 Z M 35.6 31.5 C 36.4 32.2 35.3 32.0 35.6 31.5 C 35.6 31.5 35.6 31.5 35.6 31.5 Z M 31.2 35.8 C 31.9 35.8 30.8 37.0 31.2 35.8 C 31.2 35.8 31.2 35.8 31.2 35.8 Z M 33.5 31.2 C 33.5 31.2 33.2 31.2 33.0 31.1 C 33.1 31.1 33.4 31.1 33.5 31.2 C 33.5 31.2 33.5 31.2 33.5 31.2 Z M 32.4 37.0 C 34.1 37.6 31.8 38.1 32.4 37.0 C 32.4 37.0 32.4 37.0 32.4 37.0 Z M 35.8 38.2 C 37.0 37.2 36.7 39.6 35.8 38.2 C 35.8 38.2 35.8 38.2 35.8 38.2 Z M 36.7 34.2 C 36.3 34.2 36.6 33.8 36.7 34.2 C 36.7 34.2 36.7 34.2 36.7 34.2 Z M 32.0 29.1 C 31.5 29.1 31.9 28.8 32.0 29.1 C 32.0 29.1 32.0 29.1 32.0 29.1 Z M 38.0 35.7 C 37.5 36.0 37.8 35.0 38.0 35.7 C 38.0 35.7 38.0 35.7 38.0 35.7 Z M 31.8 35.5 C 29.9 35.4 31.9 32.9 31.8 35.5 C 31.8 35.5 31.8 35.5 31.8 35.5 Z M 29.9 33.8 C 29.0 33.2 30.6 33.3 30.8 33.8 C 30.6 33.8 30.1 33.8 29.9 33.8 C 29.9 33.8 29.9 33.8 29.9 33.8 Z M 33.0 36.5 C 31.9 36.2 32.6 35.6 33.0 36.5 C 33.0 36.5 33.0 36.5 33.0 36.5 Z M 30.7 35.2 C 30.5 34.7 31.1 35.4 30.7 35.2 C 30.7 35.2 30.7 35.2 30.7 35.2 Z M 33.5 38.8 C 33.2 38.4 33.9 39.0 33.5 38.8 C 33.5 38.8 33.5 38.8 33.5 38.8 Z M 28.6 33.4 C 28.3 32.9 29.0 33.5 28.6 33.4 C 28.6 33.4 28.6 33.4 28.6 33.4 Z M 33.8 37.9 C 34.3 37.6 34.2 35.8 35.2 38.3 C 35.2 38.9 33.9 38.7 33.8 37.9 C 33.8 37.9 33.8 37.9 33.8 37.9 Z M 101.9 104.9 C 105.3 110.9 106.4 107.5 107.0 107.3 C 108.3 107.4 108.0 106.4 107.5 105.0 C 107.9 102.6 104.6 105.0 105.3 102.9 C 105.9 99.7 102.2 103.1 103.7 100.6 C 104.4 100.2 102.1 98.8 102.2 99.1 C 102.2 97.3 99.2 97.6 99.0 97.8 C 98.7 96.9 100.4 95.1 97.1 94.5 C 95.2 93.5 96.3 91.1 95.5 92.8 C 95.8 90.3 94.4 92.4 93.8 90.9 C 93.8 89.4 92.6 92.0 92.7 89.2 C 91.0 89.8 94.1 89.1 89.6 86.3 C 91.3 88.1 87.0 85.5 88.5 85.4 C 90.5 85.8 86.5 84.0 85.3 81.9 C 84.4 81.9 81.4 80.9 82.9 80.1 C 82.5 77.1 80.4 79.2 80.7 77.4 C 80.6 76.4 79.4 77.1 79.1 76.7 C 79.3 75.3 78.2 75.3 76.4 72.9 C 72.1 67.9 73.6 74.3 71.5 72.8 C 70.9 72.9 70.8 78.1 71.8 75.1 C 71.6 76.0 77.4 77.7 73.3 78.0 C 75.6 78.6 72.1 78.6 76.1 80.4 C 73.6 74.9 81.2 84.3 76.6 81.3 C 76.8 82.3 78.5 83.8 77.7 82.3 C 78.7 80.5 79.8 85.7 79.9 82.4 C 81.9 85.3 82.8 83.2 82.4 84.9 C 81.1 87.3 82.7 84.3 83.4 86.1 C 86.3 89.0 82.0 88.8 85.1 89.2 C 87.0 92.9 86.5 89.0 87.7 89.8 C 89.3 88.8 89.6 93.6 87.3 91.6 C 89.1 92.1 86.9 92.4 89.0 92.9 C 89.2 90.8 89.4 95.8 90.0 94.5 C 91.4 95.4 91.5 94.1 91.9 94.4 C 93.7 96.1 92.0 96.7 93.2 96.2 C 94.0 96.1 93.3 98.5 93.9 98.3 C 92.2 96.5 96.6 98.5 96.2 99.3 C 95.0 98.3 95.2 101.4 96.8 101.2 C 98.5 97.8 97.7 103.4 99.4 103.3 C 100.0 101.1 103.4 107.0 101.0 105.9 C 101.2 105.9 101.9 104.9 101.9 104.9 M 94.7 98.6 C 93.3 97.0 96.5 99.9 94.7 98.6 M 94.3 99.0 C 94.2 97.9 95.4 100.8 94.1 99.1 C 94.1 99.1 94.4 99.2 94.3 99.0 M 88.3 93.1 C 88.9 92.9 88.9 94.1 88.3 93.1 M 88.0 91.1 C 87.4 89.7 89.4 92.3 88.0 91.1 M 74.5 78.1 C 77.9 77.3 74.7 80.7 74.5 78.1 M 82.8 87.3 C 84.7 88.6 81.4 87.6 82.8 87.3 M 83.8 87.2 C 84.9 87.6 83.5 87.9 83.8 87.2 M 77.0 80.6 C 76.9 80.4 76.9 80.4 77.0 80.6 C 77.0 80.6 77.0 80.6 77.0 80.6 Z M 73.1 76.6 C 73.1 76.6 73.1 76.6 73.1 76.6 C 73.1 76.6 73.1 76.6 73.1 76.6 Z M 81.0 84.2 C 81.7 85.9 78.8 82.4 81.0 84.2 C 81.0 84.2 81.0 84.2 81.0 84.2 Z M 78.2 75.3 C 78.3 75.3 78.3 75.3 78.2 75.3 C 78.2 75.3 78.2 75.3 78.2 75.3 Z M 96.8 98.8 C 96.8 98.8 96.8 98.8 96.8 98.8 C 96.8 98.8 96.8 98.8 96.8 98.8 Z M 100.4 104.1 C 100.7 103.7 101.0 105.1 100.4 104.1 C 100.4 104.1 100.4 104.1 100.4 104.1 Z M 106.5 105.3 C 106.6 105.3 106.6 105.3 106.5 105.3 C 106.5 105.3 106.5 105.3 106.5 105.3 Z M 99.4 99.2 C 99.5 99.2 99.5 99.2 99.4 99.2 C 99.4 99.2 99.4 99.2 99.4 99.2 Z M 97.2 100.1 C 96.7 102.0 95.8 98.1 97.2 100.1 C 97.2 100.1 97.2 100.1 97.2 100.1 Z M 85.5 82.8 C 84.9 83.2 84.6 81.5 85.5 82.8 C 85.5 82.8 85.5 82.8 85.5 82.8 Z M 88.3 90.4 C 87.9 90.5 87.8 89.6 88.3 90.4 C 88.3 90.4 88.3 90.4 88.3 90.4 Z M 89.2 94.5 C 88.7 94.5 88.7 93.7 89.2 94.5 C 89.2 94.5 89.2 94.5 89.2 94.5 Z M 100.0 104.3 C 99.9 104.3 99.9 104.3 100.0 104.3 C 100.0 104.3 100.0 104.3 100.0 104.3 Z M 99.3 101.8 C 99.3 104.0 98.2 99.5 99.3 101.8 C 99.3 101.8 99.3 101.8 99.3 101.8 Z M 101.5 103.4 C 101.4 102.4 102.8 105.0 101.5 103.4 M 102.1 100.6 C 100.3 99.8 105.3 99.9 102.1 100.6 C 102.1 100.6 102.1 100.6 102.1 100.6 Z M 95.7 93.3 C 95.6 93.2 95.6 93.2 95.7 93.3 C 95.7 93.3 95.7 93.3 95.7 93.3 Z M 93.2 97.2 C 92.0 96.0 94.2 97.7 93.2 97.2 C 93.2 97.2 93.2 97.2 93.2 97.2 Z M 103.3 107.9 C 102.2 106.6 104.4 108.4 103.3 107.9 C 103.3 107.9 103.3 107.9 103.3 107.9 Z M 90.6 90.4 C 88.5 88.6 92.4 91.0 90.6 90.4 C 90.6 90.4 90.6 90.4 90.6 90.4 Z M 82.1 84.4 C 82.1 84.4 82.1 84.4 82.1 84.4 C 82.1 84.4 82.1 84.4 82.1 84.4 Z M 80.3 83.6 C 80.3 83.5 80.3 83.5 80.3 83.6 C 80.3 83.6 80.3 83.6 80.3 83.6 Z M 75.9 76.9 C 75.8 76.7 75.8 76.7 75.9 76.9 C 75.9 76.9 75.9 76.9 75.9 76.9 Z M 78.6 82.9 C 78.6 82.8 78.6 82.8 78.6 82.9 C 78.6 82.9 78.6 82.9 78.6 82.9 Z M 75.0 78.7 C 75.0 78.6 75.0 78.6 75.0 78.7 C 75.0 78.7 75.0 78.7 75.0 78.7 Z M 74.6 80.2 C 74.6 80.1 74.6 80.1 74.6 80.2 C 74.6 80.2 74.6 80.2 74.6 80.2 Z M 88.0 84.0 C 87.9 83.9 87.9 83.9 88.0 84.0 C 88.0 84.0 88.0 84.0 88.0 84.0 Z M 97.6 102.6 C 97.6 102.4 97.6 102.4 97.6 102.6 C 97.6 102.6 97.6 102.6 97.6 102.6 Z M 75.8 78.6 C 75.7 78.5 75.7 78.5 75.8 78.6 C 75.8 78.6 75.8 78.6 75.8 78.6 Z M 86.1 87.2 C 86.9 86.2 85.6 89.2 85.8 87.0 C 85.9 87.0 86.0 87.4 86.1 87.2 M 86.3 84.4 C 86.4 84.4 86.4 84.4 86.3 84.4 C 86.3 84.4 86.3 84.4 86.3 84.4 Z M 91.2 88.1 C 91.3 88.1 91.3 88.1 91.2 88.1 C 91.2 88.1 91.2 88.1 91.2 88.1 Z M 79.1 83.7 C 78.7 84.4 78.4 82.3 79.3 83.9 M 77.5 75.2 C 77.1 75.9 76.8 73.7 77.7 75.3 M 105.1 108.9 C 105.6 108.6 105.6 109.9 105.1 108.9 M 92.6 88.5 C 93.2 88.3 93.2 89.5 92.6 88.5 M 89.4 87.7 C 89.1 88.4 88.8 86.2 89.6 87.8 M 80.4 78.2 C 80.3 78.1 80.3 78.1 80.4 78.2 C 80.4 78.2 80.4 78.2 80.4 78.2 Z M 91.5 95.3 C 91.4 95.2 91.4 95.2 91.5 95.3 C 91.5 95.3 91.5 95.3 91.5 95.3 Z M 87.4 89.0 C 87.4 90.4 86.9 87.6 87.4 89.0 M 94.2 95.6 C 94.4 97.5 92.9 93.6 94.2 95.6 M 75.5 72.8 C 75.6 75.0 75.2 71.3 75.5 72.8 M 78.5 81.2 C 78.6 83.4 78.3 79.7 78.5 81.2 M 90.9 93.8 C 90.4 94.4 90.0 92.3 90.9 93.8 M 102.3 106.3 C 103.2 107.4 100.4 105.2 102.3 106.3 M 83.2 81.0 C 83.2 80.9 83.2 80.9 83.2 81.0 C 83.2 81.0 83.2 81.0 83.2 81.0 Z M 102.7 98.6 C 102.7 98.5 102.7 98.5 102.7 98.6 C 102.7 98.6 102.7 98.6 102.7 98.6 Z M 70.5 74.8 C 70.5 74.7 70.5 74.7 70.5 74.8 C 70.5 74.8 70.5 74.8 70.5 74.8 Z M 79.7 81.4 C 79.8 81.3 79.8 81.3 79.7 81.4 C 79.7 81.4 79.7 81.4 79.7 81.4 Z M 72.6 77.1 C 72.6 77.0 72.6 77.0 72.6 77.1 C 72.6 77.1 72.6 77.1 72.6 77.1 Z M 84.2 84.2 C 84.2 84.1 84.2 84.1 84.2 84.2 C 84.2 84.2 84.2 84.2 84.2 84.2 Z M 82.2 87.6 C 82.2 87.6 82.2 87.6 82.2 87.6 C 82.2 87.6 82.2 87.6 82.2 87.6 Z M 87.3 90.4 C 87.3 90.3 87.3 90.3 87.3 90.4 C 87.3 90.4 87.3 90.4 87.3 90.4 Z M 80.6 85.6 C 78.1 83.4 82.7 85.9 80.6 85.6 C 80.6 85.6 80.6 85.6 80.6 85.6 Z M 87.4 87.0 C 87.4 86.9 87.4 86.9 87.4 87.0 C 87.4 87.0 87.4 87.0 87.4 87.0 Z M 85.8 89.2 C 83.5 88.5 86.3 87.1 85.8 89.2 M 91.7 96.4 C 90.9 96.4 92.2 95.6 91.7 96.4 M 97.9 95.5 C 98.0 95.4 98.0 95.4 97.9 95.5 C 97.9 95.5 97.9 95.5 97.9 95.5 Z M 97.0 95.1 C 96.9 94.9 96.9 94.9 97.0 95.1 C 97.0 95.1 97.0 95.1 97.0 95.1 Z M 93.2 98.2 C 93.2 98.1 93.2 98.1 93.2 98.2 C 93.2 98.2 93.2 98.2 93.2 98.2 Z M 97.9 93.9 C 97.8 93.8 97.8 93.8 97.9 93.9 C 97.9 93.9 97.9 93.9 97.9 93.9 Z M 83.2 88.4 C 83.1 88.4 83.1 88.4 83.2 88.4 C 83.2 88.4 83.2 88.4 83.2 88.4 Z M 71.0 76.4 C 71.0 76.3 71.0 76.3 71.0 76.4 C 71.0 76.4 71.0 76.4 71.0 76.4 Z M 104.8 103.1 C 104.7 102.9 104.7 102.9 104.8 103.1 C 104.8 103.1 104.8 103.1 104.8 103.1 Z M 83.0 86.1 C 83.0 86.0 83.0 86.0 83.0 86.1 C 83.0 86.1 83.0 86.1 83.0 86.1 Z M 99.5 97.3 C 99.5 97.3 99.5 97.3 99.5 97.3 C 99.5 97.3 99.5 97.3 99.5 97.3 Z M 83.5 87.1 C 83.5 87.1 83.5 87.1 83.5 87.1 C 83.5 87.1 83.5 87.1 83.5 87.1 Z M 83.8 81.1 C 83.8 81.0 83.8 81.0 83.8 81.1 C 83.8 81.1 83.8 81.1 83.8 81.1 Z M 81.9 77.9 C 81.8 77.8 81.8 77.8 81.9 77.9 C 81.9 77.9 81.9 77.9 81.9 77.9 Z M 82.1 83.2 C 82.1 83.1 82.1 83.1 82.1 83.2 C 82.1 83.2 82.1 83.2 82.1 83.2 Z M 99.2 99.4 C 103.0 105.1 95.0 96.0 99.2 99.4 M 81.6 82.2 C 84.7 85.7 77.8 80.6 81.6 82.2 C 80.9 82.1 81.5 82.1 81.6 82.2 M 68.9 74.0 C 71.2 74.4 72.2 73.4 72.6 71.8 C 72.5 70.6 70.5 72.7 72.2 70.9 C 74.1 72.2 74.0 67.7 71.9 69.9 C 69.5 68.2 72.9 68.2 70.8 67.8 C 68.4 65.9 70.2 66.3 68.4 64.8 C 66.2 65.0 68.0 63.2 66.4 63.9 C 68.5 63.5 64.3 62.4 64.8 61.8 C 67.1 62.6 59.0 56.0 62.6 60.4 C 60.4 59.3 61.7 58.6 61.3 57.9 C 59.9 57.9 59.2 54.6 57.5 54.3 C 57.5 54.7 58.0 55.2 57.9 55.6 C 57.7 56.4 56.8 54.4 56.9 54.5 C 56.0 54.2 52.6 52.2 56.7 53.8 C 57.5 53.3 54.2 51.8 54.8 51.3 C 52.3 48.8 53.0 51.9 52.8 49.9 C 51.1 48.1 49.8 46.9 49.7 47.0 C 48.7 45.8 49.2 44.9 47.6 44.6 C 46.7 41.2 43.6 45.6 45.3 42.2 C 44.1 42.2 45.1 40.0 43.7 41.6 C 45.1 41.7 41.2 36.8 42.0 39.8 C 41.1 39.7 40.3 34.9 39.1 36.9 C 37.0 37.1 36.0 38.4 37.0 41.7 C 37.7 40.6 38.4 44.9 38.3 41.8 C 37.0 39.4 42.3 44.6 40.6 44.0 C 38.5 45.6 44.3 45.4 44.1 47.9 C 43.9 46.2 48.5 50.1 45.9 50.3 C 46.6 51.2 47.4 50.7 47.5 52.4 C 45.1 49.7 49.9 51.9 48.9 52.6 C 48.0 52.7 51.3 56.9 51.7 55.7 C 52.3 52.5 52.3 57.1 53.7 57.0 C 56.2 58.7 51.8 58.3 54.7 58.5 C 54.9 59.1 57.7 61.9 55.5 60.6 C 55.1 59.7 59.3 60.1 58.0 62.0 C 54.1 60.0 60.9 66.0 60.4 64.5 C 56.7 59.0 66.3 68.3 61.8 65.6 C 62.9 68.6 60.8 65.4 63.8 67.5 C 63.9 66.7 66.4 68.1 64.9 68.7 C 63.7 70.7 67.7 67.3 67.1 71.0 C 66.4 72.2 70.9 73.4 68.7 73.3 C 68.6 73.4 68.8 74.0 68.9 74.0 M 68.1 72.9 C 68.8 72.9 68.3 73.9 68.1 72.9 M 68.9 73.0 C 68.9 73.0 68.9 73.0 68.9 73.0 C 68.9 73.0 68.9 73.0 68.9 73.0 Z M 64.2 67.8 C 64.2 67.9 64.2 67.9 64.2 67.8 C 64.2 67.8 64.2 67.8 64.2 67.8 Z M 64.2 60.0 C 64.2 60.1 64.2 60.1 64.2 60.0 C 64.2 60.0 64.2 60.0 64.2 60.0 Z M 61.0 64.5 C 61.0 64.5 61.0 64.5 61.0 64.5 C 61.0 64.5 61.0 64.5 61.0 64.5 Z M 66.2 69.3 C 66.2 69.4 66.2 69.4 66.2 69.3 C 66.2 69.3 66.2 69.3 66.2 69.3 Z M 60.7 65.4 C 61.1 64.5 61.4 66.9 60.6 65.4 C 60.6 65.3 60.8 65.5 60.7 65.4 M 56.2 61.3 C 56.3 61.2 56.3 61.2 56.2 61.3 M 51.4 47.3 C 51.5 47.2 51.5 47.2 51.4 47.3 M 46.0 51.2 C 46.0 51.0 46.0 51.0 46.0 51.2 M 52.6 56.5 C 51.2 55.2 52.6 55.9 52.6 56.5 M 42.9 47.4 C 44.2 49.4 40.8 46.0 42.9 47.4 M 41.0 46.2 C 40.9 46.0 40.9 46.0 41.0 46.2 M 48.6 53.3 C 48.7 53.3 48.7 53.3 48.6 53.3 C 48.6 53.3 48.6 53.3 48.6 53.3 Z M 52.9 57.3 C 54.3 59.3 50.6 56.1 52.9 57.3 M 63.0 67.8 C 61.8 67.2 63.8 67.1 63.0 67.8 M 65.3 69.4 C 65.4 69.4 65.4 69.4 65.3 69.4 C 65.3 69.4 65.3 69.4 65.3 69.4 Z M 45.5 50.1 C 45.6 50.1 45.6 50.1 45.5 50.1 C 45.5 50.1 45.5 50.1 45.5 50.1 Z M 43.5 48.3 C 43.6 48.3 43.6 48.3 43.5 48.3 C 43.5 48.3 43.5 48.3 43.5 48.3 Z M 44.7 40.8 C 44.7 40.9 44.7 40.9 44.7 40.8 C 44.7 40.8 44.7 40.8 44.7 40.8 Z M 65.7 66.2 C 66.6 67.8 63.0 66.3 64.3 65.5 C 64.6 64.9 65.4 66.2 65.7 66.2 M 55.4 57.2 C 56.6 55.4 54.7 60.4 55.4 57.2 M 41.7 45.0 C 42.2 42.0 42.1 47.8 41.7 45.0 M 38.8 42.7 C 38.4 41.6 43.8 47.3 39.5 43.8 C 38.8 43.8 38.9 43.1 38.8 42.7 M 56.9 60.5 C 57.3 59.4 58.6 62.9 56.9 60.5 M 51.5 50.3 C 50.3 50.2 48.2 49.0 49.9 48.8 C 51.0 47.7 52.7 50.6 51.5 50.3 M 68.6 71.7 C 66.2 72.0 69.7 70.7 68.6 71.7 M 63.7 66.6 C 63.7 66.7 63.7 66.7 63.7 66.6 C 63.7 66.6 63.7 66.6 63.7 66.6 Z M 61.6 64.9 C 61.6 64.7 61.6 64.7 61.6 64.9 M 66.6 72.1 C 66.7 71.9 66.7 71.9 66.6 72.1 M 50.2 51.6 C 50.2 51.4 50.2 51.4 50.2 51.6 M 53.3 56.5 C 52.7 53.3 54.6 57.3 53.3 56.5 M 60.4 58.7 C 60.5 57.5 61.7 59.9 60.4 58.7 M 49.7 53.9 C 49.5 51.3 52.7 54.6 49.7 53.9 M 54.1 57.6 C 54.0 57.5 54.0 57.5 54.1 57.6 C 54.1 57.6 54.1 57.6 54.1 57.6 Z M 51.1 49.6 C 51.2 49.6 51.2 49.6 51.1 49.6 C 51.1 49.6 51.1 49.6 51.1 49.6 Z M 50.5 49.1 C 50.5 49.1 50.5 49.1 50.5 49.1 C 50.5 49.1 50.5 49.1 50.5 49.1 Z M 47.9 52.3 C 48.0 52.4 48.0 52.4 47.9 52.3 C 47.9 52.3 47.9 52.3 47.9 52.3 Z M 68.8 66.2 C 67.5 64.8 70.1 67.1 68.8 66.2 C 68.8 66.2 68.8 66.2 68.8 66.2 Z M 59.2 63.8 C 57.9 60.6 61.7 64.4 59.2 63.8 C 59.2 63.8 59.2 63.8 59.2 63.8 Z M 58.2 59.6 C 58.3 59.6 58.3 59.6 58.2 59.6 C 58.2 59.6 58.2 59.6 58.2 59.6 Z M 49.8 55.5 C 49.9 55.4 49.9 55.4 49.8 55.5 C 49.8 55.5 49.8 55.5 49.8 55.5 Z M 68.3 65.4 C 68.3 65.3 68.3 65.3 68.3 65.4 C 68.3 65.4 68.3 65.4 68.3 65.4 Z M 44.7 47.8 C 44.7 47.7 44.7 47.7 44.7 47.8 C 44.7 47.8 44.7 47.8 44.7 47.8 Z M 55.0 53.1 C 54.0 53.1 55.2 52.6 55.0 53.1 C 55.0 53.1 55.0 53.1 55.0 53.1 Z M 52.9 51.1 C 52.9 51.0 52.9 51.0 52.9 51.1 C 52.9 51.1 52.9 51.1 52.9 51.1 Z M 40.4 45.7 C 40.3 45.7 40.3 45.7 40.4 45.7 C 40.4 45.7 40.4 45.7 40.4 45.7 Z M 48.9 44.8 C 48.9 44.7 48.9 44.7 48.9 44.8 C 48.9 44.8 48.9 44.8 48.9 44.8 Z M 45.8 44.5 C 45.8 44.5 45.8 44.5 45.8 44.5 C 45.8 44.5 45.8 44.5 45.8 44.5 Z M 48.5 52.4 C 46.3 50.6 49.5 52.3 48.5 52.4 C 48.5 52.4 48.5 52.4 48.5 52.4 Z M 40.4 39.9 C 40.4 39.7 40.4 39.7 40.4 39.9 C 40.4 39.9 40.4 39.9 40.4 39.9 Z M 37.7 40.5 C 37.7 40.4 37.7 40.4 37.7 40.5 C 37.7 40.5 37.7 40.5 37.7 40.5 Z M 36.3 40.9 C 36.3 40.8 36.3 40.8 36.3 40.9 C 36.3 40.9 36.3 40.9 36.3 40.9 Z M 63.4 63.2 C 63.4 63.3 63.4 63.3 63.4 63.2 C 63.4 63.2 63.4 63.2 63.4 63.2 Z M 61.5 66.7 C 61.5 66.7 61.5 66.7 61.5 66.7 C 61.5 66.7 61.5 66.7 61.5 66.7 Z M 58.6 64.0 C 58.6 64.1 58.6 64.1 58.6 64.0 C 58.6 64.0 58.6 64.0 58.6 64.0 Z M 65.5 62.0 C 65.5 62.1 65.5 62.1 65.5 62.0 C 65.5 62.0 65.5 62.0 65.5 62.0 Z M 52.9 54.0 C 52.9 54.1 52.9 54.1 52.9 54.0 C 52.9 54.0 52.9 54.0 52.9 54.0 Z M 53.1 52.0 C 53.1 52.1 53.1 52.1 53.1 52.0 C 53.1 52.0 53.1 52.0 53.1 52.0 Z M 56.9 52.9 C 56.9 52.9 56.9 52.9 56.9 52.9 C 56.9 52.9 56.9 52.9 56.9 52.9 Z M 53.3 50.3 C 53.3 50.3 53.3 50.3 53.3 50.3 C 53.3 50.3 53.3 50.3 53.3 50.3 Z M 71.9 69.4 C 71.9 69.4 71.9 69.4 71.9 69.4 C 71.9 69.4 71.9 69.4 71.9 69.4 Z M 70.0 71.7 C 70.2 71.7 70.2 71.7 70.0 71.7 C 70.0 71.7 70.0 71.7 70.0 71.7 Z M 51.1 55.2 C 50.2 55.2 50.8 53.7 51.1 55.2 M 55.3 58.9 C 55.4 58.9 55.4 58.9 55.3 58.9 C 55.3 58.9 55.3 58.9 55.3 58.9 Z M 44.6 48.6 C 44.9 47.2 46.0 50.8 44.6 48.6 C 44.6 48.6 44.6 48.6 44.6 48.6 Z M 50.1 47.2 C 50.1 47.1 50.1 47.1 50.1 47.2 C 50.1 47.2 50.1 47.2 50.1 47.2 Z M 48.8 46.5 C 48.8 46.3 48.8 46.3 48.8 46.5 C 48.8 46.5 48.8 46.5 48.8 46.5 Z M 40.9 43.1 C 40.8 42.9 40.8 42.9 40.9 43.1 M 55.1 60.1 C 54.8 59.2 54.9 59.3 55.1 60.1 M 43.3 47.2 C 43.4 47.2 43.4 47.2 43.3 47.2 C 43.3 47.2 43.3 47.2 43.3 47.2 Z M 39.2 42.3 C 39.2 42.3 39.2 42.3 39.2 42.3 C 39.2 42.3 39.2 42.3 39.2 42.3 Z M 58.4 62.3 C 59.3 61.2 59.6 62.0 58.4 62.3 M 66.5 69.8 C 66.6 69.7 66.6 69.7 66.5 69.8 C 66.5 69.8 66.5 69.8 66.5 69.8 Z M 66.5 69.8 " fill="#D3AAEF"></path><path d="M 41.2 20.3 C 41.8 20.0 43.5 20.8 41.8 20.8 C 41.7 20.8 41.0 20.4 41.2 20.3 Z M 38.1 19.5 C 38.4 19.5 38.6 19.6 38.7 19.8 C 38.9 20.5 37.3 19.3 38.1 19.5 Z M 42.5 21.3 C 42.6 21.2 43.6 21.5 43.4 21.6 C 43.2 21.7 42.5 21.3 42.5 21.3 Z M 35.0 20.0 C 35.1 19.7 36.2 20.0 36.3 20.2 C 36.7 20.7 34.8 20.5 35.0 20.0 Z M 37.1 28.6 C 37.0 28.7 37.0 28.8 36.9 28.8 C 37.0 28.7 37.0 28.7 37.1 28.6 Z M 20.7 15.7 C 20.9 15.7 21.2 16.0 21.1 16.2 C 20.9 16.5 20.1 15.6 20.7 15.7 Z M 24.6 41.8 C 24.6 41.8 25.0 41.7 25.0 41.9 C 25.0 42.2 24.7 42.1 24.6 41.8 Z M 24.9 42.1 C 25.1 42.2 24.9 42.5 24.8 42.3 C 24.7 42.1 24.6 42.0 24.9 42.1 Z M 17.2 28.9 C 17.1 28.8 17.1 28.7 17.2 28.8 C 17.3 28.9 17.3 29.2 17.2 28.9 Z M 17.6 29.3 C 17.9 29.4 17.6 29.8 17.5 29.6 C 17.4 29.3 17.3 29.2 17.6 29.3 Z M 17.0 32.7 C 17.0 32.6 16.9 32.5 17.0 32.6 C 17.2 32.7 17.1 33.0 17.0 32.7 Z M 30.4 37.1 C 30.4 37.3 29.9 37.5 29.8 37.4 C 29.6 37.1 30.5 36.8 30.4 37.1 Z M 30.0 37.7 C 30.2 37.8 30.0 38.1 29.9 37.9 C 29.8 37.8 29.8 37.6 30.0 37.7 Z M 31.3 35.8 C 31.1 35.6 31.6 35.1 31.7 35.1 C 31.9 35.0 32.1 34.9 32.3 34.8 C 32.4 34.8 31.6 36.1 31.3 35.8 Z M 34.6 32.1 C 34.6 32.2 34.6 32.3 34.4 32.4 C 34.2 32.4 34.5 32.1 34.6 32.1 Z M 32.7 34.2 C 32.8 34.3 32.8 34.4 32.6 34.4 C 32.4 34.5 32.7 34.1 32.7 34.2 Z M 29.4 17.9 C 29.3 17.7 30.1 18.0 30.1 18.1 C 30.2 18.1 29.8 18.1 30.0 18.2 C 30.2 18.3 29.6 18.8 29.4 17.9 Z M 36.4 19.1 C 36.5 19.2 36.6 19.3 36.5 19.5 C 36.4 19.5 35.9 19.1 36.4 19.1 Z M 30.2 19.1 C 30.2 19.0 30.4 19.0 30.3 19.1 C 30.3 19.2 30.1 19.1 30.2 19.1 Z M 29.6 19.1 C 29.8 19.1 30.1 19.4 29.9 19.6 C 29.7 19.9 28.9 19.0 29.6 19.1 Z M 28.5 17.3 C 28.7 17.4 28.7 17.4 28.6 17.5 C 28.4 17.5 28.5 17.3 28.5 17.3 Z M 32.6 18.0 C 32.8 18.0 32.8 18.0 32.6 18.1 C 32.5 18.2 32.6 18.0 32.6 18.0 Z M 26.5 17.3 C 26.5 17.3 27.1 17.2 27.1 17.7 C 27.1 18.3 26.5 17.4 26.5 17.3 Z M 23.6 17.2 C 23.7 17.3 23.6 17.5 23.4 17.4 C 23.3 17.3 23.4 17.2 23.6 17.2 Z M 22.3 17.9 C 22.0 17.7 21.8 17.4 22.3 17.6 C 22.8 17.8 22.6 18.1 22.3 17.9 Z M 22.9 17.8 C 22.9 17.9 22.7 17.9 22.7 17.8 C 22.7 17.7 22.9 17.8 22.9 17.8 Z M 25.4 17.8 C 25.7 17.7 25.9 18.0 25.5 18.0 C 25.1 18.0 25.1 17.9 25.4 17.8 Z M 39.7 27.7 C 39.8 27.6 40.0 27.8 40.0 28.0 C 40.0 28.1 39.7 27.9 39.7 27.7 Z M 31.5 34.4 C 31.8 34.4 31.7 34.5 31.4 34.6 C 31.2 34.8 31.3 34.4 31.5 34.4 Z M 26.5 38.7 C 26.7 38.7 26.6 38.8 26.4 38.9 C 26.1 39.1 26.3 38.7 26.5 38.7 Z M 33.5 32.5 C 33.6 32.5 33.4 33.4 32.8 33.3 C 32.2 33.2 33.0 32.4 33.5 32.5 Z M 34.3 24.1 C 34.4 24.0 34.5 24.1 34.5 24.1 C 34.3 24.3 34.3 24.3 34.3 24.1 Z M 31.8 33.0 C 31.9 32.8 32.1 33.0 32.1 33.2 C 32.0 33.4 31.7 33.2 31.8 33.0 Z M 27.6 38.1 C 27.9 38.0 28.1 38.4 28.0 38.6 C 28.0 39.3 27.3 39.2 26.8 39.3 C 26.5 39.4 27.4 38.2 27.6 38.1 Z M 40.2 25.9 C 40.0 26.0 39.9 26.0 39.8 26.1 C 39.8 26.2 39.7 26.3 39.5 26.3 C 39.1 26.8 39.3 27.5 39.1 27.9 C 38.7 28.9 37.5 28.3 37.1 28.6 C 37.2 28.5 37.3 28.4 37.3 28.3 C 37.2 27.8 35.7 29.6 35.6 29.7 C 34.4 31.3 36.3 29.9 36.8 30.3 C 37.0 30.5 35.5 31.0 35.4 31.0 C 34.8 31.2 35.2 31.8 34.6 32.0 C 34.3 32.0 32.7 31.5 32.7 31.8 C 32.7 32.1 32.1 32.4 32.0 32.6 C 31.7 32.8 31.3 33.3 31.9 33.4 C 32.4 33.6 32.7 33.8 32.1 33.9 C 31.7 33.9 29.4 34.9 30.3 35.6 C 30.3 35.7 30.9 35.6 30.9 35.5 C 30.6 36.2 29.0 37.3 29.0 37.9 C 29.0 39.4 28.8 37.3 28.2 37.4 C 27.2 37.7 26.6 37.8 26.0 38.8 C 25.8 39.0 25.1 39.8 25.9 39.8 C 26.4 39.9 26.4 40.2 27.0 39.9 C 26.8 40.8 25.7 40.4 25.8 40.6 C 25.9 41.0 26.3 40.8 25.9 41.2 C 25.3 41.6 25.7 41.5 25.2 41.2 C 25.0 41.1 24.5 41.4 24.5 41.4 C 24.5 41.4 24.5 41.3 24.4 41.3 C 24.1 41.7 24.2 43.1 23.9 43.0 C 23.7 43.0 23.4 42.2 23.3 42.1 C 23.2 42.1 23.2 42.1 23.2 42.1 C 23.0 42.4 23.0 43.1 22.8 43.0 C 22.7 43.0 22.3 42.0 22.3 42.4 C 22.3 42.8 21.2 43.4 21.0 43.2 C 20.7 43.1 19.6 42.3 19.4 42.4 C 19.2 42.5 19.0 41.8 18.9 41.6 C 18.8 41.4 19.1 40.9 19.2 40.8 C 19.2 40.7 19.0 40.2 19.0 40.2 C 19.0 40.2 18.8 40.0 18.6 39.5 C 18.5 39.1 18.7 38.7 18.7 38.1 C 18.7 37.5 18.4 37.4 18.2 36.9 C 18.0 36.4 18.7 35.8 18.7 35.3 C 18.7 34.8 18.0 35.0 17.8 34.5 C 17.6 33.9 17.7 33.6 17.9 33.7 C 18.0 33.8 18.1 33.6 18.1 33.5 C 18.1 33.3 18.1 32.6 17.9 32.4 C 17.7 32.2 17.6 34.0 17.2 31.9 C 16.9 30.9 17.4 30.0 17.5 30.2 C 17.8 31.0 18.4 29.1 18.0 29.2 C 17.7 29.3 17.3 27.5 16.9 28.0 C 16.7 28.2 16.1 26.5 16.1 26.2 C 16.2 25.9 15.8 25.1 16.3 24.8 C 16.5 24.6 15.6 23.8 15.5 23.5 C 15.4 23.3 15.2 21.9 15.3 21.5 C 15.3 21.2 15.5 21.9 15.6 22.2 C 15.6 22.5 15.5 23.0 15.6 23.3 C 15.7 23.5 15.9 22.9 15.8 22.5 C 15.8 22.2 16.0 22.0 16.0 21.7 C 15.9 21.6 15.9 21.3 15.9 21.0 C 15.8 20.9 15.7 20.8 15.7 20.8 C 15.5 20.9 15.4 21.1 15.3 21.1 C 15.2 21.1 15.0 20.9 14.9 20.4 C 14.8 20.0 14.8 19.6 14.8 19.0 C 14.8 18.4 14.6 18.3 14.5 17.9 C 14.3 17.5 14.3 17.2 14.4 17.1 C 14.5 17.1 14.7 17.5 14.8 17.5 C 15.0 17.6 15.1 16.9 15.1 16.7 C 15.0 15.6 16.1 16.2 15.9 15.1 C 15.9 14.5 16.3 15.1 16.8 15.4 C 16.8 15.2 16.9 15.2 17.4 15.2 C 17.4 15.1 18.0 15.4 18.4 15.4 C 18.6 15.5 20.0 15.5 19.1 15.7 C 19.0 15.7 19.0 15.7 18.9 15.7 C 18.9 15.7 18.9 15.8 18.9 15.8 C 18.9 15.8 18.4 16.2 18.4 16.2 C 18.4 16.2 18.9 15.8 18.9 15.8 C 19.0 16.0 19.1 16.3 19.2 16.4 C 19.3 16.4 19.3 16.4 19.4 16.3 C 19.4 16.3 19.5 16.3 19.5 16.3 C 19.5 16.3 19.5 16.3 19.5 16.3 C 19.5 16.0 19.6 16.1 19.7 16.2 C 20.3 16.1 21.3 16.7 21.7 17.0 C 20.2 17.8 22.3 18.3 23.0 18.3 C 23.8 18.3 24.1 16.9 23.7 16.9 C 24.3 17.0 24.3 17.2 24.4 17.6 C 24.3 17.6 24.7 18.6 24.7 18.5 C 25.7 19.3 25.8 18.1 26.1 18.0 C 26.4 18.0 26.8 18.0 27.2 18.0 C 27.6 18.1 27.3 17.7 27.5 17.6 C 28.1 17.2 28.6 18.4 28.9 18.6 C 28.6 18.6 28.2 18.6 27.9 18.7 C 28.4 18.5 28.5 19.3 28.6 19.4 C 29.0 19.6 29.5 19.7 29.9 19.7 C 30.5 19.9 31.2 19.9 31.9 20.0 C 31.7 19.8 30.9 18.8 30.9 18.8 C 31.1 18.8 31.7 19.2 31.6 18.6 C 31.4 17.6 32.9 18.5 33.2 18.6 C 34.0 18.9 35.2 18.3 35.8 19.5 C 35.8 19.5 34.4 19.4 34.5 19.5 C 34.6 20.3 34.8 20.8 35.8 20.9 C 35.9 20.9 37.3 20.6 37.3 20.6 C 37.3 20.6 36.5 18.5 37.5 19.4 C 37.6 19.6 37.1 19.8 37.4 20.0 C 37.7 20.2 38.3 20.3 38.7 20.4 C 38.8 20.4 39.4 20.8 39.4 20.8 C 39.7 20.6 39.8 20.3 40.1 20.2 C 40.3 20.1 40.6 20.4 40.6 20.7 C 40.5 20.7 40.5 20.8 40.5 20.8 C 40.6 20.8 40.6 20.9 40.6 21.1 C 40.7 21.0 40.9 21.1 41.0 21.3 C 41.0 21.4 40.7 21.4 40.5 21.2 C 40.5 21.3 40.5 21.4 40.4 21.5 C 40.8 21.5 41.2 21.5 41.2 21.5 C 41.9 21.2 41.9 21.0 42.6 21.9 C 43.2 22.7 42.1 24.6 40.9 25.3 C 40.8 25.5 40.6 25.8 40.2 25.9 Z M 16.1 20.2 C 16.1 20.3 16.1 20.3 16.1 20.3 C 16.2 20.3 16.4 20.3 16.5 20.2 C 16.5 19.9 16.3 20.4 16.2 20.0 C 16.2 19.7 16.1 19.8 16.1 20.2 Z M 18.4 18.3 C 18.2 18.1 18.2 18.2 18.1 18.3 C 18.2 18.3 18.3 18.3 18.4 18.3 Z M 18.8 17.0 C 18.4 17.0 18.9 17.7 19.6 17.7 C 19.2 17.3 19.0 17.0 18.8 17.0 Z M 20.0 16.6 C 19.9 16.7 19.9 16.8 19.8 16.8 C 19.7 17.0 20.2 16.9 20.1 17.0 C 20.1 17.2 19.6 17.3 19.8 17.4 C 19.9 17.5 20.0 17.5 20.0 17.6 C 20.1 17.6 20.1 17.5 20.2 17.5 C 20.4 17.4 20.2 16.8 20.0 16.6 Z M 17.6 21.9 C 17.4 21.7 17.4 21.9 17.4 22.0 C 17.5 22.2 17.7 22.1 17.6 21.9 Z M 17.0 24.7 C 17.1 24.4 16.9 24.2 16.8 24.4 C 16.7 24.7 16.9 24.9 17.0 24.7 Z M 21.7 24.5 C 21.6 24.4 21.6 24.5 21.7 24.6 C 21.8 24.9 21.8 24.6 21.7 24.5 Z M 23.5 22.9 C 23.7 22.9 23.7 22.5 23.6 22.6 C 23.4 22.7 23.4 22.9 23.5 22.9 Z M 19.4 26.6 C 19.5 26.8 19.6 26.6 19.5 26.5 C 19.3 26.4 19.3 26.5 19.4 26.6 Z M 21.4 23.9 C 21.3 24.2 21.4 24.2 21.5 24.2 C 21.6 24.3 21.7 24.1 21.6 23.8 C 21.5 23.6 21.4 23.6 21.4 23.9 Z M 22.7 22.3 C 23.3 22.5 23.4 22.2 22.6 22.1 C 21.8 22.1 22.3 22.2 22.7 22.3 Z M 16.7 26.7 C 16.7 26.6 16.5 26.3 16.5 26.3 C 16.5 26.3 16.6 27.3 16.7 26.7 Z M 26.7 18.5 C 26.5 18.4 26.3 18.6 26.6 18.8 C 27.0 18.9 27.0 18.6 26.7 18.5 Z M 26.9 20.1 C 26.8 19.5 26.4 19.3 26.4 19.2 C 26.4 19.3 26.2 19.7 26.0 19.7 C 25.5 19.8 25.1 19.1 24.6 19.3 C 24.1 19.6 25.0 19.9 25.2 19.9 C 25.1 19.9 25.0 20.0 24.9 20.1 C 25.0 20.3 25.1 20.4 25.3 20.3 C 25.5 20.2 27.0 20.8 26.9 20.1 Z M 22.7 24.2 C 22.6 24.0 22.3 23.9 22.3 24.2 C 22.2 24.5 22.3 24.8 22.4 24.8 C 22.5 24.8 22.8 24.5 22.7 24.2 Z M 21.6 25.7 C 21.3 25.6 21.4 25.7 21.5 25.9 C 21.6 26.2 21.8 25.8 21.6 25.7 Z M 18.5 33.6 C 18.7 33.7 18.6 33.2 18.5 33.3 C 18.3 33.4 18.4 33.5 18.5 33.6 Z M 20.6 31.3 C 20.9 31.7 20.9 31.2 20.8 31.1 C 20.7 31.0 20.4 31.1 20.6 31.3 Z M 20.6 28.8 C 20.7 29.0 20.8 28.6 20.6 28.5 C 20.5 28.5 20.5 28.6 20.6 28.8 Z M 21.3 27.8 C 21.3 28.0 21.6 27.7 21.4 27.5 C 21.3 27.4 21.2 27.6 21.3 27.8 Z M 29.0 21.4 C 29.0 21.4 28.7 21.8 29.1 21.7 C 29.5 21.6 29.5 21.6 29.0 21.4 Z M 25.8 23.3 C 25.5 23.3 25.1 23.3 24.6 24.2 C 24.2 25.1 24.6 25.0 25.1 24.7 C 25.7 24.4 24.8 25.8 25.8 25.2 C 26.2 24.9 26.2 23.4 25.8 23.3 Z M 22.6 29.0 C 22.8 28.3 22.1 27.8 22.2 28.4 C 22.2 29.1 22.5 29.6 22.6 29.0 Z M 22.4 29.3 C 22.3 29.2 22.2 29.3 22.3 29.5 C 22.4 29.7 22.5 29.5 22.4 29.3 Z M 32.3 18.7 C 31.0 18.6 32.2 19.7 32.2 19.7 C 33.3 20.3 33.6 18.7 32.3 18.7 Z M 24.4 40.6 C 24.5 40.5 24.5 40.5 24.6 40.5 C 24.6 40.5 24.6 40.5 24.6 40.4 C 24.6 40.2 24.1 40.3 24.1 40.3 C 24.2 40.5 24.3 40.6 24.4 40.6 Z M 29.1 36.3 C 28.9 36.4 28.8 36.6 28.8 36.9 C 29.3 37.2 30.6 35.8 29.4 35.7 C 29.2 35.6 27.8 35.9 28.0 36.3 C 28.2 36.6 29.6 35.9 29.1 36.3 Z M 27.2 37.1 C 27.7 36.6 26.2 37.1 26.6 37.2 C 26.8 37.3 27.0 37.3 27.2 37.1 Z M 22.0 39.9 C 21.5 40.9 22.7 41.8 23.3 40.1 C 23.8 38.4 23.5 37.9 23.0 38.6 C 22.6 39.4 22.6 38.4 22.0 39.9 Z M 27.8 34.1 C 28.4 35.0 28.5 34.4 28.2 33.6 C 28.1 33.4 27.4 33.5 27.8 34.1 Z M 29.3 32.3 C 29.6 32.2 29.5 32.2 29.3 32.2 C 29.0 32.1 29.0 32.4 29.3 32.3 Z M 19.7 39.9 C 19.6 40.3 19.7 40.8 19.5 40.7 C 19.3 40.5 19.4 40.6 19.3 40.9 C 19.3 41.3 19.7 40.9 19.8 40.7 C 20.0 40.5 19.9 39.6 19.7 39.9 Z M 23.4 31.1 C 23.4 31.3 23.5 31.1 23.4 31.0 C 23.3 30.8 23.3 30.9 23.4 31.1 Z M 28.7 24.2 C 28.7 24.2 28.6 24.4 28.8 24.3 C 29.1 24.3 29.1 24.3 28.7 24.2 Z M 33.9 19.5 C 33.7 19.5 34.0 19.9 33.7 20.1 C 33.6 20.2 33.6 19.9 33.6 19.8 C 33.5 19.9 33.0 20.6 33.7 20.4 C 33.9 20.4 34.6 19.5 33.9 19.5 Z M 25.3 29.6 C 25.3 29.1 24.1 30.0 24.0 29.6 C 24.0 29.2 23.9 29.3 23.9 29.8 C 23.9 30.2 25.2 30.1 25.3 29.6 Z M 22.8 32.4 C 23.0 32.2 22.9 31.3 22.7 31.7 C 22.6 32.1 22.7 32.5 22.5 32.4 C 22.3 32.2 22.4 32.3 22.3 32.6 C 22.3 33.0 22.7 32.6 22.8 32.4 Z M 18.6 37.0 C 18.7 36.8 18.5 36.4 18.4 36.7 C 18.4 36.9 18.6 37.1 18.6 37.0 Z M 31.1 25.1 C 30.8 25.2 30.8 25.3 31.2 25.3 C 31.6 25.3 31.3 25.0 31.1 25.1 Z M 19.8 37.3 C 19.8 36.8 19.5 37.4 19.5 37.0 C 19.5 36.7 19.4 36.8 19.4 37.2 C 19.4 37.7 19.7 37.8 19.8 37.3 Z M 35.7 21.8 C 35.6 21.9 35.5 22.1 35.7 22.1 C 35.9 22.1 35.9 21.7 35.7 21.8 Z M 34.7 24.0 C 34.6 24.0 34.5 23.9 34.4 23.9 C 32.6 23.6 35.1 25.0 34.7 24.0 Z M 32.0 26.4 C 32.3 26.0 31.7 26.2 31.7 26.3 C 31.8 26.4 31.9 26.5 32.0 26.4 Z M 29.3 29.2 C 29.4 29.4 29.6 29.1 29.4 29.0 C 29.3 28.9 29.2 29.0 29.3 29.2 Z M 38.7 20.8 C 38.5 20.6 38.5 20.8 38.6 20.9 C 38.7 21.0 38.9 20.9 38.7 20.8 Z M 31.9 27.8 C 31.9 27.7 31.9 27.6 31.8 27.8 C 31.7 28.0 32.0 27.9 31.9 27.8 Z M 23.6 36.2 C 23.6 36.1 23.6 35.9 23.6 35.8 C 23.3 35.7 22.8 36.2 22.6 36.0 C 22.6 36.0 22.6 36.0 22.6 36.0 C 22.6 36.0 22.5 36.0 22.5 35.9 C 22.4 35.8 22.4 35.7 22.6 35.7 C 22.6 35.6 22.6 35.5 22.7 35.4 C 22.4 35.4 22.1 35.5 22.1 35.7 C 22.1 36.0 22.4 36.5 22.7 36.7 C 22.9 36.7 23.1 36.6 23.2 36.5 C 23.2 36.5 23.2 36.5 23.2 36.5 C 23.1 36.2 23.1 36.0 23.3 36.1 C 23.4 36.2 23.4 36.3 23.4 36.4 C 23.5 36.3 23.5 36.3 23.6 36.2 Z M 31.3 29.2 C 31.4 28.9 31.1 29.0 30.8 29.2 C 30.6 29.3 31.2 29.5 31.3 29.2 Z M 38.7 21.4 C 38.6 21.5 38.6 21.6 38.6 21.7 C 38.6 21.6 38.7 21.6 38.7 21.6 C 38.9 21.5 39.1 21.3 39.3 21.2 C 39.1 21.1 38.9 21.0 38.7 21.4 Z M 37.1 24.6 C 37.1 24.5 38.1 23.5 37.7 23.5 C 37.1 23.4 37.2 22.6 36.6 23.5 C 36.3 23.9 36.5 24.7 36.3 25.1 C 34.9 27.3 37.2 25.1 37.8 24.8 C 37.9 24.7 37.0 24.7 37.1 24.6 Z M 35.3 27.4 C 35.3 27.7 35.8 27.6 35.9 27.5 C 36.3 27.0 35.2 27.1 35.3 27.4 Z M 40.5 22.7 C 40.5 22.7 40.4 22.7 40.4 22.6 C 40.4 22.7 40.4 22.7 40.4 22.8 C 40.4 22.8 40.5 22.8 40.5 22.7 Z M 41.9 21.7 C 41.0 21.6 41.9 22.5 42.3 22.6 C 42.8 22.8 42.4 21.7 41.9 21.7 Z M 37.4 26.9 C 37.0 27.2 37.7 28.7 38.3 28.0 C 38.8 27.4 38.3 26.2 37.4 26.9 Z M 35.0 32.0 C 35.0 31.7 35.6 31.5 35.6 31.9 C 35.5 32.1 35.0 32.1 35.0 32.0 Z M 41.1 27.0 C 41.0 27.1 41.0 26.9 41.0 26.9 C 41.3 27.0 41.3 27.0 41.1 27.0 Z M 39.8 26.8 C 40.1 26.7 40.4 26.5 40.6 26.4 C 40.7 26.3 40.4 26.8 40.4 26.8 C 40.2 26.9 39.9 26.7 39.8 26.8 Z M 36.8 29.6 C 37.1 29.6 36.8 29.8 36.7 29.9 C 36.6 30.0 36.6 29.7 36.8 29.6 Z M 37.8 29.2 C 37.6 29.3 37.6 29.0 37.7 28.9 C 37.9 28.8 37.9 29.1 37.8 29.2 Z M 35.9 29.8 C 36.2 29.4 36.5 28.9 36.8 29.2 C 36.9 29.4 35.5 30.6 35.9 29.8 Z M 35.9 29.8 " fill="#D3AAEF"></path></g></svg>