<?xml version="1.0" encoding="UTF-8" standalone="no"?><svg xmlns="http://www.w3.org/2000/svg" xmlns:xlink="http://www.w3.org/1999/xlink" clip-rule="evenodd" stroke-miterlimit="4.00" viewBox="0 0 149 131"><desc>SVG generated by Keynote</desc><defs></defs><g transform="matrix(1.00, 0.00, -0.00, -1.00, 0.0, 131.0)"><path d="M 24.5 22.0 C 24.1 21.9 23.6 21.1 23.3 21.1 M 24.5 22.0 C 24.7 20.4 23.5 19.4 22.1 17.9 C 20.4 16.4 21.4 18.9 20.9 19.1 C 18.3 17.6 18.9 16.9 20.1 16.1 C 18.6 16.1 17.1 12.7 16.6 14.5 C 20.2 17.5 13.8 12.7 16.2 16.0 C 16.3 16.5 15.1 16.1 14.8 15.8 C 15.3 17.2 13.1 16.4 14.4 18.2 C 13.9 19.2 13.9 18.6 14.4 20.1 C 14.8 20.5 14.8 20.1 14.9 19.9 C 15.9 19.0 15.7 21.4 17.1 21.5 C 16.8 23.4 18.8 22.6 18.6 21.5 C 19.2 22.3 19.0 24.3 20.6 24.1 C 20.5 25.1 22.9 26.3 22.3 24.5 C 21.8 23.3 23.1 23.7 23.5 23.5 C 23.5 23.0 21.9 22.3 21.9 21.9 C 22.4 22.1 24.4 22.9 22.7 21.5 C 23.6 21.5 23.0 20.6 24.5 22.0 C 24.5 22.0 24.5 22.0 24.5 22.0 Z M 19.0 16.2 C 19.3 15.8 19.6 16.7 19.0 16.2 C 19.0 16.2 19.0 16.2 19.0 16.2 Z M 19.4 24.2 C 19.6 23.8 19.9 24.7 19.4 24.2 C 19.4 24.2 19.4 24.2 19.4 24.2 Z M 15.2 20.1 C 15.5 19.8 15.8 20.6 15.2 20.1 C 15.2 20.1 15.2 20.1 15.2 20.1 Z M 20.4 17.7 C 21.1 18.8 19.2 17.5 19.3 17.1 C 19.5 17.3 20.4 17.2 20.4 17.7 C 20.4 17.7 20.4 17.7 20.4 17.7 Z M 18.9 19.8 C 19.1 19.7 19.5 20.0 19.2 20.3 C 18.9 20.2 18.7 19.8 18.9 19.8 C 18.9 19.8 18.9 19.8 18.9 19.8 Z M 15.3 14.4 C 15.5 14.4 15.9 14.7 15.6 15.0 C 15.3 14.9 15.1 14.5 15.3 14.4 C 15.3 14.4 15.3 14.4 15.3 14.4 Z M 20.7 19.5 C 20.9 19.8 20.8 20.2 20.4 20.0 C 20.4 19.7 19.8 19.1 20.7 19.5 C 20.7 19.5 20.7 19.5 20.7 19.5 Z M 23.2 19.6 C 23.9 20.5 21.8 19.6 22.0 19.5 C 21.9 19.0 23.0 19.0 23.2 19.6 C 23.2 19.6 23.2 19.6 23.2 19.6 Z M 20.8 20.4 C 21.3 21.1 20.3 20.4 20.8 20.4 C 20.8 20.4 20.8 20.4 20.8 20.4 Z M 13.9 17.5 C 14.4 18.2 13.4 17.5 13.9 17.5 C 13.9 17.5 13.9 17.5 13.9 17.5 Z M 16.5 21.5 C 17.0 22.2 16.0 21.5 16.5 21.5 C 16.5 21.5 16.5 21.5 16.5 21.5 Z M 18.1 16.9 C 16.9 15.9 18.6 15.9 18.1 16.9 C 18.1 16.9 18.1 16.9 18.1 16.9 Z M 25.1 21.1 C 24.0 20.1 25.7 20.1 25.1 21.1 C 25.1 21.1 25.1 21.1 25.1 21.1 Z M 118.8 99.3 C 120.1 99.9 116.9 95.4 117.3 98.0 C 116.9 99.5 114.1 97.1 115.7 96.7 C 115.0 95.9 115.0 95.8 114.1 95.9 C 114.7 95.0 113.0 93.0 112.0 92.8 C 111.0 93.2 113.2 94.0 111.5 93.8 C 108.9 92.0 111.0 94.7 109.3 94.9 C 109.2 94.8 109.6 94.3 109.1 94.4 C 108.4 95.2 109.3 96.9 108.1 97.0 C 108.6 97.2 109.6 99.6 109.4 98.2 C 109.9 97.2 110.6 100.8 111.5 99.3 C 111.6 100.4 112.9 100.1 112.8 101.3 C 113.2 101.8 113.7 101.1 113.8 100.9 C 114.3 100.2 113.2 102.7 114.8 102.2 C 114.6 102.6 116.6 104.1 115.6 102.4 C 115.9 102.8 117.9 105.0 117.7 102.8 C 116.6 101.0 120.4 102.9 118.6 101.3 C 117.3 100.0 116.8 100.0 118.3 100.3 C 118.6 100.6 120.3 101.9 119.4 100.2 C 119.0 100.1 118.4 99.4 118.8 99.3 C 118.8 99.3 118.8 99.3 118.8 99.3 Z M 117.7 101.2 C 116.8 100.6 118.0 100.7 117.7 101.2 C 117.7 101.2 117.7 101.2 117.7 101.2 Z M 112.5 101.5 C 111.6 100.9 112.8 101.0 112.5 101.5 C 112.5 101.5 112.5 101.5 112.5 101.5 Z M 116.5 96.8 C 115.8 96.8 116.7 95.5 116.5 96.8 C 116.5 96.8 116.5 96.8 116.5 96.8 Z M 114.7 101.6 C 114.6 101.6 115.0 101.6 115.2 101.6 C 115.1 101.7 114.8 101.7 114.7 101.6 C 114.7 101.6 114.7 101.6 114.7 101.6 Z M 115.1 95.7 C 113.4 95.3 115.7 94.5 115.1 95.7 C 115.1 95.7 115.1 95.7 115.1 95.7 Z M 111.7 94.8 C 110.5 95.9 110.6 93.5 111.7 94.8 C 111.7 94.8 111.7 94.8 111.7 94.8 Z M 111.2 98.9 C 111.6 98.8 111.3 99.3 111.2 98.9 C 111.2 98.9 111.2 98.9 111.2 98.9 Z M 116.4 103.5 C 116.8 103.4 116.5 103.9 116.4 103.5 C 116.4 103.5 116.4 103.5 116.4 103.5 Z M 109.7 97.5 C 110.2 97.2 110.0 98.2 109.7 97.5 C 109.7 97.5 109.7 97.5 109.7 97.5 Z M 115.9 97.1 C 117.8 97.1 116.1 99.7 115.9 97.1 C 115.9 97.1 115.9 97.1 115.9 97.1 Z M 118.0 98.7 C 118.9 99.1 117.3 99.2 117.1 98.8 C 117.2 98.7 117.8 98.6 118.0 98.7 C 118.0 98.7 118.0 98.7 118.0 98.7 Z M 114.6 96.3 C 115.8 96.4 115.1 97.1 114.6 96.3 C 114.6 96.3 114.6 96.3 114.6 96.3 Z M 117.0 97.3 C 117.3 97.8 116.6 97.2 117.0 97.3 C 117.0 97.3 117.0 97.3 117.0 97.3 Z M 114.0 94.0 C 114.2 94.4 113.5 93.8 114.0 94.0 C 114.0 94.0 114.0 94.0 114.0 94.0 Z M 119.4 99.0 C 119.6 99.4 118.9 98.8 119.4 99.0 C 119.4 99.0 119.4 99.0 119.4 99.0 Z M 113.7 94.9 C 113.3 95.2 113.5 97.1 112.3 94.7 C 112.2 94.1 113.5 94.1 113.7 94.9 C 113.7 94.9 113.7 94.9 113.7 94.9 Z M 27.1 24.2 C 24.3 19.6 23.3 22.8 22.7 23.0 C 21.7 23.3 21.8 24.1 22.2 25.2 C 21.8 27.4 24.8 24.7 24.1 26.7 C 23.5 29.6 26.8 25.9 25.5 28.4 C 24.8 28.8 26.7 29.7 26.7 29.4 C 26.6 31.1 29.2 30.1 29.4 30.0 C 29.7 30.7 28.1 32.6 30.9 32.5 C 32.6 33.0 31.5 35.4 32.3 33.8 C 32.0 36.0 33.3 33.9 33.7 35.1 C 33.7 36.4 34.8 33.9 34.6 36.4 C 36.1 35.5 33.4 36.8 37.2 38.4 C 35.8 37.1 39.4 38.6 38.2 38.9 C 36.4 38.9 39.9 39.8 40.8 41.4 C 41.6 41.3 44.1 41.5 42.9 42.5 C 43.1 45.1 45.0 42.9 44.7 44.5 C 44.7 45.4 45.8 44.5 46.0 44.9 C 45.8 46.2 46.8 46.0 48.3 47.7 C 51.8 51.3 50.8 45.9 52.5 46.8 C 53.1 46.6 53.3 42.0 52.4 44.8 C 52.6 44.0 47.6 43.6 51.1 42.6 C 49.1 42.5 52.2 41.8 48.8 40.9 C 50.8 45.3 44.5 38.5 48.3 40.3 C 48.2 39.4 46.8 38.4 47.4 39.6 C 46.5 41.4 45.7 37.0 45.5 39.9 C 43.9 37.7 43.1 39.8 43.5 38.2 C 44.6 35.8 43.1 38.8 42.6 37.3 C 40.2 35.3 43.9 34.6 41.2 34.9 C 39.7 31.9 40.0 35.3 38.9 34.9 C 37.6 36.1 37.4 31.9 39.4 33.2 C 37.8 33.1 39.7 32.4 38.0 32.3 C 37.7 34.3 37.7 29.8 37.2 31.1 C 35.9 30.6 35.8 31.8 35.5 31.6 C 34.0 30.4 35.5 29.5 34.4 30.2 C 33.7 30.5 34.4 28.3 33.8 28.5 C 35.3 29.8 31.5 28.9 31.9 28.0 C 32.9 28.7 32.8 26.0 31.4 26.5 C 29.8 29.9 30.7 24.7 29.3 25.2 C 28.6 27.2 25.9 22.7 27.9 23.2 C 27.7 23.2 27.1 24.2 27.1 24.2 M 33.2 28.4 C 34.3 29.5 31.7 27.6 33.2 28.4 M 33.5 27.9 C 33.6 28.9 32.7 26.6 33.7 27.8 C 33.7 27.8 33.5 27.8 33.5 27.9 M 38.6 32.0 C 38.1 32.4 38.1 31.2 38.6 32.0 M 38.7 33.8 C 39.2 34.9 37.6 33.0 38.7 33.8 M 50.1 42.7 C 47.1 44.1 50.0 40.4 50.1 42.7 M 43.2 36.1 C 41.5 35.3 44.4 35.6 43.2 36.1 M 42.3 36.4 C 41.3 36.2 42.6 35.8 42.3 36.4 M 48.0 41.0 C 48.1 41.1 48.1 41.1 48.0 41.0 C 48.0 41.0 48.0 41.0 48.0 41.0 Z M 51.3 43.8 C 51.3 43.7 51.3 43.7 51.3 43.8 C 51.3 43.8 51.3 43.8 51.3 43.8 Z M 44.6 38.5 C 44.0 37.2 46.5 39.7 44.6 38.5 C 44.6 38.5 44.6 38.5 44.6 38.5 Z M 46.8 46.0 C 46.7 45.9 46.7 45.9 46.8 46.0 C 46.8 46.0 46.8 46.0 46.8 46.0 Z M 31.4 28.6 C 31.3 28.6 31.3 28.6 31.4 28.6 C 31.4 28.6 31.4 28.6 31.4 28.6 Z M 28.4 24.7 C 28.2 25.0 27.9 23.9 28.4 24.7 C 28.4 24.7 28.4 24.7 28.4 24.7 Z M 23.1 24.8 C 23.1 24.8 23.1 24.8 23.1 24.8 C 23.1 24.8 23.1 24.8 23.1 24.8 Z M 29.1 28.8 C 29.1 28.8 29.1 28.8 29.1 28.8 C 29.1 28.8 29.1 28.8 29.1 28.8 Z M 31.1 27.6 C 31.5 25.8 32.2 29.1 31.1 27.6 C 31.1 27.6 31.1 27.6 31.1 27.6 Z M 40.7 40.7 C 41.2 40.2 41.4 41.6 40.7 40.7 C 40.7 40.7 40.7 40.7 40.7 40.7 Z M 38.5 34.4 C 38.9 34.3 38.9 35.0 38.5 34.4 C 38.5 34.4 38.5 34.4 38.5 34.4 Z M 37.8 31.0 C 38.2 30.9 38.3 31.6 37.8 31.0 C 37.8 31.0 37.8 31.0 37.8 31.0 Z M 28.7 24.4 C 28.9 24.4 28.9 24.4 28.7 24.4 C 28.7 24.4 28.7 24.4 28.7 24.4 Z M 29.3 26.4 C 29.3 24.5 30.2 28.3 29.3 26.4 C 29.3 26.4 29.3 26.4 29.3 26.4 Z M 27.4 25.5 C 27.5 26.3 26.3 24.3 27.4 25.5 M 26.8 28.0 C 28.3 28.5 24.0 29.3 26.8 28.0 C 26.8 28.0 26.8 28.0 26.8 28.0 Z M 32.2 33.3 C 32.2 33.4 32.2 33.4 32.2 33.3 C 32.2 33.3 32.2 33.3 32.2 33.3 Z M 34.4 29.3 C 35.4 30.2 33.6 29.1 34.4 29.3 C 34.4 29.3 34.4 29.3 34.4 29.3 Z M 26.0 21.9 C 26.9 22.7 25.1 21.6 26.0 21.9 C 26.0 21.9 26.0 21.9 26.0 21.9 Z M 36.5 34.9 C 38.3 36.1 35.0 34.7 36.5 34.9 C 36.5 34.9 36.5 34.9 36.5 34.9 Z M 43.7 38.5 C 43.7 38.6 43.7 38.6 43.7 38.5 C 43.7 38.5 43.7 38.5 43.7 38.5 Z M 45.2 39.0 C 45.2 39.0 45.2 39.0 45.2 39.0 C 45.2 39.0 45.2 39.0 45.2 39.0 Z M 48.8 44.1 C 48.9 44.2 48.9 44.2 48.8 44.1 C 48.8 44.1 48.8 44.1 48.8 44.1 Z M 46.7 39.3 C 46.7 39.3 46.7 39.3 46.7 39.3 C 46.7 39.3 46.7 39.3 46.7 39.3 Z M 49.6 42.2 C 49.7 42.3 49.7 42.3 49.6 42.2 C 49.6 42.2 49.6 42.2 49.6 42.2 Z M 50.1 40.8 C 50.1 40.9 50.1 40.9 50.1 40.8 C 50.1 40.8 50.1 40.8 50.1 40.8 Z M 38.6 40.1 C 38.6 40.2 38.6 40.2 38.6 40.1 C 38.6 40.1 38.6 40.1 38.6 40.1 Z M 30.8 25.4 C 30.8 25.6 30.8 25.6 30.8 25.4 C 30.8 25.4 30.8 25.4 30.8 25.4 Z M 49.0 42.5 C 49.0 42.5 49.0 42.5 49.0 42.5 C 49.0 42.5 49.0 42.5 49.0 42.5 Z M 40.3 36.9 C 39.5 37.9 40.8 35.0 40.6 37.0 C 40.5 37.0 40.4 36.7 40.3 36.9 M 40.0 39.5 C 39.9 39.4 39.9 39.4 40.0 39.5 C 40.0 39.5 40.0 39.5 40.0 39.5 Z M 35.9 37.1 C 35.8 37.1 35.8 37.1 35.9 37.1 C 35.9 37.1 35.9 37.1 35.9 37.1 Z M 46.3 38.6 C 46.6 37.9 46.8 39.7 46.1 38.5 M 47.4 45.9 C 47.7 45.2 47.9 47.0 47.2 45.8 M 24.5 21.3 C 24.0 21.6 24.0 20.5 24.5 21.3 M 34.7 37.0 C 34.2 37.3 34.2 36.2 34.7 37.0 M 37.4 37.1 C 37.7 36.4 37.9 38.2 37.2 37.0 M 45.0 43.8 C 45.0 43.8 45.0 43.8 45.0 43.8 C 45.0 43.8 45.0 43.8 45.0 43.8 Z M 35.9 30.7 C 35.9 30.8 35.9 30.8 35.9 30.7 C 35.9 30.7 35.9 30.7 35.9 30.7 Z M 39.3 35.5 C 39.3 34.3 39.6 36.7 39.3 35.5 M 33.5 31.0 C 33.4 29.3 34.6 32.5 33.5 31.0 M 49.1 47.6 C 49.1 45.7 49.3 48.9 49.1 47.6 M 46.7 40.8 C 46.7 38.8 46.9 42.0 46.7 40.8 M 36.3 31.9 C 36.8 31.3 37.0 33.1 36.3 31.9 M 26.9 23.1 C 26.0 22.2 28.5 23.6 26.9 23.1 M 42.6 41.9 C 42.6 42.0 42.6 42.0 42.6 41.9 C 42.6 41.9 42.6 41.9 42.6 41.9 Z M 26.2 30.0 C 26.2 30.1 26.2 30.1 26.2 30.0 C 26.2 30.0 26.2 30.0 26.2 30.0 Z M 53.5 44.9 C 53.5 44.9 53.5 44.9 53.5 44.9 C 53.5 44.9 53.5 44.9 53.5 44.9 Z M 45.6 40.8 C 45.6 40.9 45.6 40.9 45.6 40.8 C 45.6 40.8 45.6 40.8 45.6 40.8 Z M 51.7 43.2 C 51.7 43.3 51.7 43.3 51.7 43.2 C 51.7 43.2 51.7 43.2 51.7 43.2 Z M 41.9 39.2 C 41.9 39.3 41.9 39.3 41.9 39.2 C 41.9 39.2 41.9 39.2 41.9 39.2 Z M 43.7 35.7 C 43.7 35.8 43.7 35.8 43.7 35.7 C 43.7 35.7 43.7 35.7 43.7 35.7 Z M 39.4 34.3 C 39.4 34.3 39.4 34.3 39.4 34.3 C 39.4 34.3 39.4 34.3 39.4 34.3 Z M 45.0 37.2 C 47.2 38.7 43.2 37.4 45.0 37.2 C 45.0 37.2 45.0 37.2 45.0 37.2 Z M 39.2 37.3 C 39.1 37.4 39.1 37.4 39.2 37.3 C 39.2 37.3 39.2 37.3 39.2 37.3 Z M 40.6 35.0 C 42.6 35.2 40.1 37.0 40.6 35.0 M 35.7 29.8 C 36.4 29.6 35.3 30.6 35.7 29.8 M 30.3 31.8 C 30.2 31.9 30.2 31.9 30.3 31.8 C 30.3 31.8 30.3 31.8 30.3 31.8 Z M 31.1 32.0 C 31.1 32.1 31.1 32.1 31.1 32.0 C 31.1 32.0 31.1 32.0 31.1 32.0 Z M 34.5 28.5 C 34.5 28.5 34.5 28.5 34.5 28.5 C 34.5 28.5 34.5 28.5 34.5 28.5 Z M 30.3 33.2 C 30.3 33.3 30.3 33.3 30.3 33.2 C 30.3 33.2 30.3 33.2 30.3 33.2 Z M 42.9 35.2 C 42.9 35.2 42.9 35.2 42.9 35.2 C 42.9 35.2 42.9 35.2 42.9 35.2 Z M 53.1 43.5 C 53.1 43.6 53.1 43.6 53.1 43.5 C 53.1 43.5 53.1 43.5 53.1 43.5 Z M 24.6 26.4 C 24.6 26.5 24.6 26.5 24.6 26.4 C 24.6 26.4 24.6 26.4 24.6 26.4 Z M 43.0 37.2 C 43.0 37.3 43.0 37.3 43.0 37.2 C 43.0 37.2 43.0 37.2 43.0 37.2 Z M 29.0 30.5 C 29.0 30.5 29.0 30.5 29.0 30.5 C 29.0 30.5 29.0 30.5 29.0 30.5 Z M 42.5 36.4 C 42.5 36.5 42.5 36.5 42.5 36.4 C 42.5 36.4 42.5 36.4 42.5 36.4 Z M 42.1 41.9 C 42.1 41.9 42.1 41.9 42.1 41.9 C 42.1 41.9 42.1 41.9 42.1 41.9 Z M 43.7 44.3 C 43.7 44.4 43.7 44.4 43.7 44.3 C 43.7 44.3 43.7 44.3 43.7 44.3 Z M 43.6 39.7 C 43.6 39.7 43.6 39.7 43.6 39.7 C 43.6 39.7 43.6 39.7 43.6 39.7 Z M 29.3 28.6 C 26.2 24.3 32.9 30.8 29.3 28.6 M 44.1 40.5 C 41.5 37.9 47.3 41.2 44.1 40.5 C 44.6 40.4 44.2 40.5 44.1 40.5 M 54.9 45.2 C 52.8 45.3 51.9 46.4 51.5 47.9 C 51.6 49.0 53.4 46.7 51.9 48.6 C 50.3 47.9 50.2 51.9 52.1 49.5 C 54.1 50.5 51.1 51.2 52.9 51.1 C 55.0 52.4 53.4 52.3 55.0 53.4 C 56.9 52.7 55.3 54.7 56.7 53.7 C 54.8 54.5 58.5 54.6 58.0 55.3 C 56.0 55.0 62.9 59.3 59.9 56.2 C 61.8 56.7 60.6 57.6 60.9 58.1 C 62.2 57.8 62.7 60.6 64.1 60.5 C 64.1 60.2 63.7 59.8 63.8 59.5 C 64.0 58.8 64.7 60.4 64.6 60.2 C 65.4 60.4 68.3 61.4 64.8 60.9 C 64.1 61.4 66.9 62.2 66.4 62.7 C 68.4 64.4 68.0 61.8 68.1 63.6 C 69.5 64.8 70.6 65.7 70.7 65.5 C 71.5 66.4 71.0 67.3 72.4 67.2 C 73.1 70.1 76.0 65.6 74.3 68.9 C 75.4 68.7 74.4 70.9 75.7 69.1 C 74.5 69.4 77.7 73.0 77.2 70.4 C 77.9 70.3 78.4 74.4 79.5 72.4 C 81.4 71.8 82.3 70.5 81.5 67.7 C 80.9 68.9 80.5 65.1 80.4 68.0 C 81.5 69.8 77.1 66.2 78.5 66.4 C 80.4 64.5 75.3 65.9 75.6 63.6 C 75.7 65.1 71.8 62.5 74.1 61.9 C 73.5 61.2 72.8 61.8 72.8 60.3 C 74.8 62.2 70.6 61.2 71.5 60.4 C 72.4 60.1 69.6 57.0 69.2 58.1 C 68.6 61.2 68.7 57.0 67.5 57.4 C 65.4 56.4 69.2 55.8 66.7 56.3 C 66.5 55.7 64.2 53.8 66.0 54.6 C 66.4 55.3 62.7 55.7 64.0 53.7 C 67.3 54.8 61.5 50.8 61.9 52.1 C 65.0 56.2 56.9 49.8 60.7 51.3 C 59.8 48.9 61.6 51.3 59.1 50.0 C 58.9 50.8 56.8 50.0 58.1 49.2 C 59.2 47.2 55.7 50.9 56.3 47.5 C 56.9 46.4 53.1 46.2 55.0 45.8 C 55.1 45.7 54.9 45.2 54.9 45.2 M 55.5 46.0 C 54.9 46.2 55.4 45.2 55.5 46.0 M 54.8 46.1 C 54.8 46.1 54.8 46.1 54.8 46.1 C 54.8 46.1 54.8 46.1 54.8 46.1 Z M 58.7 49.8 C 58.8 49.7 58.8 49.7 58.7 49.8 C 58.7 49.8 58.7 49.8 58.7 49.8 Z M 58.4 56.8 C 58.5 56.7 58.5 56.7 58.4 56.8 C 58.4 56.8 58.4 56.8 58.4 56.8 Z M 61.4 52.2 C 61.4 52.1 61.4 52.1 61.4 52.2 C 61.4 52.2 61.4 52.2 61.4 52.2 Z M 57.0 48.9 C 57.0 48.8 57.0 48.8 57.0 48.9 C 57.0 48.9 57.0 48.9 57.0 48.9 Z M 61.7 51.3 C 61.3 52.2 61.1 50.1 61.8 51.3 C 61.8 51.4 61.6 51.2 61.7 51.3 M 65.4 54.0 C 65.4 54.1 65.4 54.1 65.4 54.0 M 69.2 65.6 C 69.1 65.7 69.1 65.7 69.2 65.6 M 74.0 61.1 C 74.0 61.2 74.0 61.2 74.0 61.1 M 68.5 57.6 C 69.6 58.5 68.5 58.2 68.5 57.6 M 76.6 63.8 C 75.6 62.3 78.4 64.7 76.6 63.8 M 78.2 64.5 C 78.3 64.7 78.3 64.7 78.2 64.5 M 71.8 59.7 C 71.8 59.7 71.8 59.7 71.8 59.7 C 71.8 59.7 71.8 59.7 71.8 59.7 Z M 68.2 57.0 C 67.1 55.5 70.2 57.6 68.2 57.0 M 59.7 49.6 C 60.8 49.9 59.0 50.4 59.7 49.6 M 57.8 48.6 C 57.8 48.6 57.8 48.6 57.8 48.6 C 57.8 48.6 57.8 48.6 57.8 48.6 Z M 74.4 62.0 C 74.4 61.9 74.4 61.9 74.4 62.0 C 74.4 62.0 74.4 62.0 74.4 62.0 Z M 76.1 63.2 C 76.0 63.1 76.0 63.1 76.1 63.2 C 76.1 63.2 76.1 63.2 76.1 63.2 Z M 74.9 70.0 C 74.8 70.0 74.8 70.0 74.9 70.0 C 74.9 70.0 74.9 70.0 74.9 70.0 Z M 57.4 51.6 C 56.6 50.4 59.8 50.9 58.6 51.9 C 58.3 52.5 57.6 51.5 57.4 51.6 M 66.0 57.6 C 64.9 59.4 66.7 54.5 66.0 57.6 M 77.6 65.8 C 77.1 68.5 77.3 63.3 77.6 65.8 M 80.0 67.2 C 80.3 68.1 75.8 64.1 79.5 66.3 C 80.1 66.3 80.0 66.8 80.0 67.2 M 64.9 54.9 C 64.4 56.0 63.5 53.1 64.9 54.9 M 69.2 63.0 C 70.2 62.8 72.0 63.5 70.6 63.9 C 69.6 65.2 68.2 62.9 69.2 63.0 M 55.0 47.2 C 57.1 46.5 54.0 48.4 55.0 47.2 M 59.1 50.8 C 59.2 50.7 59.2 50.7 59.1 50.8 C 59.1 50.8 59.1 50.8 59.1 50.8 Z M 60.9 51.9 C 60.9 52.1 60.9 52.1 60.9 51.9 M 56.7 46.5 C 56.7 46.7 56.7 46.7 56.7 46.5 M 70.4 61.5 C 70.4 61.6 70.4 61.6 70.4 61.5 M 67.9 57.8 C 68.3 60.5 66.7 57.3 67.9 57.8 M 61.7 57.2 C 61.6 58.3 60.6 56.4 61.7 57.2 M 70.9 59.4 C 71.0 61.7 68.3 59.4 70.9 59.4 M 67.2 57.0 C 67.3 57.0 67.3 57.0 67.2 57.0 C 67.2 57.0 67.2 57.0 67.2 57.0 Z M 69.5 63.5 C 69.5 63.5 69.5 63.5 69.5 63.5 C 69.5 63.5 69.5 63.5 69.5 63.5 Z M 70.1 63.8 C 70.0 63.8 70.0 63.8 70.1 63.8 C 70.1 63.8 70.1 63.8 70.1 63.8 Z M 72.4 60.4 C 72.4 60.4 72.4 60.4 72.4 60.4 C 72.4 60.4 72.4 60.4 72.4 60.4 Z M 54.7 52.2 C 55.7 53.2 53.6 51.6 54.7 52.2 C 54.7 52.2 54.7 52.2 54.7 52.2 Z M 62.9 52.4 C 64.0 55.0 60.8 52.3 62.9 52.4 C 62.9 52.4 62.9 52.4 62.9 52.4 Z M 63.6 55.9 C 63.6 56.0 63.6 56.0 63.6 55.9 C 63.6 55.9 63.6 55.9 63.6 55.9 Z M 70.9 58.0 C 70.8 58.1 70.8 58.1 70.9 58.0 C 70.9 58.0 70.9 58.0 70.9 58.0 Z M 55.1 52.8 C 55.0 52.9 55.0 52.9 55.1 52.8 C 55.1 52.8 55.1 52.8 55.1 52.8 Z M 75.1 63.8 C 75.0 63.9 75.0 63.9 75.1 63.8 C 75.1 63.8 75.1 63.8 75.1 63.8 Z M 66.3 61.1 C 67.1 60.9 66.0 61.6 66.3 61.1 C 66.3 61.1 66.3 61.1 66.3 61.1 Z M 68.0 62.5 C 68.0 62.6 68.0 62.6 68.0 62.5 C 68.0 62.5 68.0 62.5 68.0 62.5 Z M 78.8 64.8 C 78.8 64.8 78.8 64.8 78.8 64.8 C 78.8 64.8 78.8 64.8 78.8 64.8 Z M 71.3 67.4 C 71.3 67.4 71.3 67.4 71.3 67.4 C 71.3 67.4 71.3 67.4 71.3 67.4 Z M 74.0 67.0 C 73.9 67.0 73.9 67.0 74.0 67.0 C 74.0 67.0 74.0 67.0 74.0 67.0 Z M 71.9 60.5 C 73.8 61.6 71.0 60.7 71.9 60.5 C 71.9 60.5 71.9 60.5 71.9 60.5 Z M 78.5 70.0 C 78.5 70.2 78.5 70.2 78.5 70.0 C 78.5 70.0 78.5 70.0 78.5 70.0 Z M 80.9 68.9 C 80.9 69.1 80.9 69.1 80.9 68.9 C 80.9 68.9 80.9 68.9 80.9 68.9 Z M 82.1 68.3 C 82.1 68.5 82.1 68.5 82.1 68.3 C 82.1 68.3 82.1 68.3 82.1 68.3 Z M 59.3 53.8 C 59.3 53.7 59.3 53.7 59.3 53.8 C 59.3 53.8 59.3 53.8 59.3 53.8 Z M 61.1 50.3 C 61.1 50.3 61.1 50.3 61.1 50.3 C 61.1 50.3 61.1 50.3 61.1 50.3 Z M 63.5 52.1 C 63.5 52.0 63.5 52.0 63.5 52.1 C 63.5 52.1 63.5 52.1 63.5 52.1 Z M 57.4 55.3 C 57.4 55.2 57.4 55.2 57.4 55.3 C 57.4 55.3 57.4 55.3 57.4 55.3 Z M 68.1 59.9 C 68.1 59.8 68.1 59.8 68.1 59.9 C 68.1 59.9 68.1 59.9 68.1 59.9 Z M 67.9 61.8 C 67.9 61.7 67.9 61.7 67.9 61.8 C 67.9 61.8 67.9 61.8 67.9 61.8 Z M 64.6 61.7 C 64.6 61.7 64.6 61.7 64.6 61.7 C 64.6 61.7 64.6 61.7 64.6 61.7 Z M 67.7 63.3 C 67.7 63.3 67.7 63.3 67.7 63.3 C 67.7 63.3 67.7 63.3 67.7 63.3 Z M 52.1 49.9 C 52.0 50.0 52.0 50.0 52.1 49.9 C 52.1 49.9 52.1 49.9 52.1 49.9 Z M 53.8 47.5 C 53.7 47.6 53.7 47.6 53.8 47.5 C 53.8 47.5 53.8 47.5 53.8 47.5 Z M 69.7 58.5 C 70.5 58.3 70.0 59.8 69.7 58.5 M 66.2 56.0 C 66.1 56.1 66.1 56.1 66.2 56.0 C 66.2 56.0 66.2 56.0 66.2 56.0 Z M 75.2 63.1 C 74.8 64.4 74.0 61.4 75.2 63.1 C 75.2 63.1 75.2 63.1 75.2 63.1 Z M 70.3 65.5 C 70.3 65.5 70.3 65.5 70.3 65.5 C 70.3 65.5 70.3 65.5 70.3 65.5 Z M 71.5 65.8 C 71.4 65.9 71.4 65.9 71.5 65.8 C 71.5 65.8 71.5 65.8 71.5 65.8 Z M 78.2 67.3 C 78.2 67.4 78.2 67.4 78.2 67.3 M 66.4 54.9 C 66.6 55.7 66.6 55.5 66.4 54.9 M 76.2 64.1 C 76.2 64.1 76.2 64.1 76.2 64.1 C 76.2 64.1 76.2 64.1 76.2 64.1 Z M 79.7 67.7 C 79.6 67.6 79.6 67.6 79.7 67.7 C 79.7 67.7 79.7 67.7 79.7 67.7 Z M 63.6 53.6 C 62.8 54.7 62.5 54.1 63.6 53.6 M 56.8 48.5 C 56.7 48.6 56.7 48.6 56.8 48.5 C 56.8 48.5 56.8 48.5 56.8 48.5 Z M 85.6 71.2 C 84.8 68.5 83.4 70.2 83.3 70.3 C 85.4 68.1 81.0 69.8 81.0 70.6 C 80.6 70.8 78.7 76.0 82.0 74.6 C 82.6 74.6 82.2 75.4 82.4 75.7 C 84.6 77.4 81.9 73.2 84.6 75.4 C 84.8 76.1 82.6 77.6 85.3 77.6 C 85.2 77.8 86.4 80.0 86.5 78.5 C 86.6 80.1 88.0 79.5 88.9 80.0 C 89.2 81.1 87.2 80.9 90.6 81.9 C 90.4 84.4 93.1 82.0 92.7 84.5 C 93.3 85.1 96.6 83.1 93.8 83.5 C 94.1 83.5 94.3 81.3 95.9 83.5 C 95.4 83.6 91.8 85.6 96.2 86.9 C 96.6 87.3 98.5 87.6 98.5 88.2 C 96.6 87.1 99.6 91.3 100.0 90.1 C 102.0 92.8 101.6 90.3 102.7 92.8 C 104.2 94.0 103.3 91.0 104.5 93.4 C 106.0 94.4 104.5 94.3 104.4 94.1 C 105.5 95.3 106.4 95.1 106.8 95.5 C 106.9 95.9 107.0 96.9 107.9 96.5 C 110.2 96.2 110.1 93.9 111.8 93.1 C 111.4 91.7 110.6 93.8 110.7 92.2 C 109.6 92.7 110.7 92.1 108.0 90.1 C 107.9 90.4 108.0 91.5 107.4 91.1 C 106.4 90.1 109.0 88.5 106.0 88.7 C 107.6 90.8 102.7 87.1 104.1 89.1 C 101.7 87.5 103.6 88.4 102.4 86.5 C 101.3 88.1 103.6 84.8 102.0 85.5 C 102.4 84.7 99.6 82.9 100.7 85.3 C 97.7 83.5 100.1 84.0 99.8 82.5 C 98.6 81.3 97.7 84.8 98.4 82.3 C 97.5 80.2 97.6 83.2 97.6 80.8 C 97.1 82.5 96.4 79.8 95.7 81.6 C 92.9 79.4 97.3 80.4 94.6 79.7 C 95.1 80.3 96.4 78.2 94.2 78.4 C 92.9 81.1 94.3 75.2 92.8 78.8 C 88.2 76.5 93.1 77.1 91.0 75.3 C 90.5 74.9 90.8 76.8 90.3 76.4 C 87.9 73.7 90.8 74.9 88.2 75.1 C 85.2 73.3 88.5 73.2 87.2 72.0 C 86.6 72.7 84.5 72.9 85.6 71.2 M 87.4 73.9 C 88.3 73.9 87.3 74.6 87.4 73.9 M 82.5 68.7 C 83.5 68.7 82.5 69.5 82.5 68.7 M 89.9 75.3 C 91.1 75.4 89.5 76.2 89.9 75.3 M 103.8 87.9 C 102.8 87.1 104.5 87.9 103.8 87.9 M 84.8 70.4 C 86.0 70.5 84.3 71.4 84.8 70.4 M 82.8 70.7 C 82.9 70.8 82.9 70.8 82.8 70.7 M 106.2 87.9 C 106.2 88.0 106.2 88.0 106.2 87.9 M 102.3 84.7 C 103.1 85.4 101.6 84.6 102.3 84.7 M 98.2 89.4 C 99.0 90.1 97.5 89.3 98.2 89.4 M 108.3 89.6 C 109.5 89.9 108.1 90.4 108.3 89.6 M 109.6 92.5 C 110.7 92.6 109.7 93.4 109.6 92.5 M 85.5 75.1 C 85.4 75.2 85.4 75.2 85.5 75.1 C 85.5 75.1 85.5 75.1 85.5 75.1 Z M 91.6 82.2 C 91.1 81.0 92.1 83.7 91.6 82.2 M 92.9 78.0 C 92.6 79.4 91.8 77.0 92.9 78.0 C 92.9 78.0 92.9 78.0 92.9 78.0 Z M 91.3 77.4 C 91.2 77.4 91.2 77.4 91.3 77.4 C 91.3 77.4 91.3 77.4 91.3 77.4 Z M 95.2 80.8 C 95.2 80.8 95.2 80.8 95.2 80.8 C 95.2 80.8 95.2 80.8 95.2 80.8 Z M 94.3 80.2 C 93.8 80.1 94.0 79.6 94.3 80.2 C 94.3 80.2 94.3 80.2 94.3 80.2 Z M 97.6 88.1 C 97.1 88.0 97.3 87.5 97.6 88.1 C 97.6 88.1 97.6 88.1 97.6 88.1 Z M 92.8 79.5 C 91.9 80.4 92.8 78.3 92.8 79.5 C 92.8 79.5 92.8 79.5 92.8 79.5 Z M 95.2 85.4 C 95.7 85.4 95.1 86.9 95.2 85.4 M 106.8 88.8 C 107.4 88.8 106.8 90.3 106.8 88.8 M 98.6 81.5 C 99.2 81.5 98.6 83.0 98.6 81.5 M 88.2 73.8 C 88.2 74.0 88.2 74.0 88.2 73.8 M 89.3 82.0 C 90.2 82.1 89.3 82.6 89.3 82.0 M 81.6 75.0 C 82.5 75.1 81.5 75.7 81.6 75.0 M 101.9 92.3 C 102.1 92.0 102.6 93.2 101.9 92.3 M 98.3 83.9 C 98.9 84.6 99.3 85.8 97.8 84.4 C 97.9 84.1 98.4 84.4 98.3 83.9 C 98.3 83.9 98.3 83.9 98.3 83.9 Z M 99.1 88.3 C 99.1 88.5 99.1 88.5 99.1 88.3 M 100.4 84.1 C 100.4 84.2 100.4 84.2 100.4 84.1 M 104.6 87.8 C 104.6 88.0 104.6 88.0 104.6 87.8 M 105.4 87.9 C 105.3 88.0 105.3 88.0 105.4 87.9 C 105.4 87.9 105.4 87.9 105.4 87.9 Z M 110.5 91.5 C 110.4 91.5 110.4 91.5 110.5 91.5 C 110.5 91.5 110.5 91.5 110.5 91.5 Z M 103.1 86.7 C 103.1 86.8 103.1 86.8 103.1 86.7 C 103.1 86.7 103.1 86.7 103.1 86.7 Z M 104.0 93.7 C 103.9 93.8 103.9 93.8 104.0 93.7 C 104.0 93.7 104.0 93.7 104.0 93.7 Z M 104.0 92.7 C 103.9 92.8 103.9 92.8 104.0 92.7 C 104.0 92.7 104.0 92.7 104.0 92.7 Z M 85.9 71.5 C 87.2 71.4 84.9 73.5 85.9 71.5 M 106.1 94.5 C 106.1 95.7 104.8 93.7 106.1 94.5 C 106.1 94.5 106.1 94.5 106.1 94.5 Z M 101.9 87.1 C 101.9 87.3 101.9 87.3 101.9 87.1 M 105.6 88.2 C 105.5 88.4 105.5 88.4 105.6 88.2 M 93.6 77.1 C 93.5 77.2 93.5 77.2 93.6 77.1 M 108.8 91.2 C 110.6 93.1 106.7 91.8 108.8 91.2 M 91.9 77.2 C 91.9 77.1 91.9 77.1 91.9 77.2 M 94.9 82.8 C 96.3 83.9 94.0 83.0 94.9 82.8 M 99.4 84.4 C 99.3 84.5 99.3 84.5 99.4 84.4 C 99.4 84.4 99.4 84.4 99.4 84.4 Z M 97.4 82.8 C 96.3 82.1 97.4 82.3 97.4 82.8 C 97.4 82.8 97.4 82.8 97.4 82.8 Z M 86.1 73.2 C 87.3 74.4 84.6 72.4 86.1 73.2 C 86.1 73.2 86.1 73.2 86.1 73.2 Z M 106.0 92.7 C 105.9 92.7 105.9 92.7 106.0 92.7 C 106.0 92.7 106.0 92.7 106.0 92.7 Z M 103.5 85.8 C 102.7 85.6 103.4 85.3 103.5 85.8 C 103.5 85.8 103.5 85.8 103.5 85.8 Z M 111.2 92.1 C 110.4 91.8 111.1 91.5 111.2 92.1 C 111.2 92.1 111.2 92.1 111.2 92.1 Z M 84.7 71.8 C 88.1 77.3 78.8 66.2 84.7 71.8 C 84.7 71.8 84.7 71.8 84.7 71.8 Z M 98.7 82.8 C 98.7 82.8 98.7 82.8 98.7 82.8 C 98.7 82.8 98.7 82.8 98.7 82.8 Z M 90.7 74.9 C 90.6 75.0 90.6 75.0 90.7 74.9 C 90.7 74.9 90.7 74.9 90.7 74.9 Z M 88.4 74.6 C 88.4 74.6 88.4 74.6 88.4 74.6 C 88.4 74.6 88.4 74.6 88.4 74.6 Z M 85.7 78.8 C 85.6 78.8 85.6 78.8 85.7 78.8 C 85.7 78.8 85.7 78.8 85.7 78.8 Z M 87.6 77.4 C 87.5 77.5 87.5 77.5 87.6 77.4 C 87.6 77.4 87.6 77.4 87.6 77.4 Z M 84.1 75.6 C 84.0 75.6 84.0 75.6 84.1 75.6 C 84.1 75.6 84.1 75.6 84.1 75.6 Z M 83.7 76.2 C 83.7 76.2 83.7 76.2 83.7 76.2 C 83.7 76.2 83.7 76.2 83.7 76.2 Z M 104.7 89.3 C 104.6 89.4 104.6 89.4 104.7 89.3 C 104.7 89.3 104.7 89.3 104.7 89.3 Z M 101.8 89.6 C 103.3 89.9 100.7 90.1 101.8 89.6 C 101.8 89.6 101.8 89.6 101.8 89.6 Z M 92.7 80.8 C 93.9 81.4 91.7 80.7 92.7 80.8 C 92.7 80.8 92.7 80.8 92.7 80.8 Z M 92.1 83.8 C 92.1 83.8 92.1 83.8 92.1 83.8 C 92.1 83.8 92.1 83.8 92.1 83.8 Z M 89.2 73.7 C 89.1 73.8 89.1 73.8 89.2 73.7 C 89.2 73.7 89.2 73.7 89.2 73.7 Z M 86.8 72.8 C 86.1 73.6 86.6 71.9 86.8 72.8 M 96.5 80.0 C 96.4 80.1 96.4 80.1 96.5 80.0 C 96.5 80.0 96.5 80.0 96.5 80.0 Z M 101.3 86.2 C 101.3 86.2 101.3 86.2 101.3 86.2 C 101.3 86.2 101.3 86.2 101.3 86.2 Z M 107.6 90.5 C 107.5 90.6 107.5 90.6 107.6 90.5 C 107.6 90.5 107.6 90.5 107.6 90.5 Z M 100.1 83.2 C 99.9 83.2 99.9 83.2 100.1 83.2 C 100.1 83.2 100.1 83.2 100.1 83.2 Z M 96.7 81.6 C 96.6 81.7 96.6 81.7 96.7 81.6 C 96.7 81.6 96.7 81.6 96.7 81.6 Z M 107.9 92.7 C 107.8 92.7 107.8 92.7 107.9 92.7 C 107.9 92.7 107.9 92.7 107.9 92.7 Z M 100.8 83.6 C 100.8 83.6 100.8 83.6 100.8 83.6 C 100.8 83.6 100.8 83.6 100.8 83.6 Z M 100.4 87.6 C 100.3 87.6 100.3 87.6 100.4 87.6 C 100.4 87.6 100.4 87.6 100.4 87.6 Z M 88.0 71.9 C 88.0 71.9 88.0 71.9 88.0 71.9 C 88.0 71.9 88.0 71.9 88.0 71.9 Z M 108.9 91.6 C 108.8 91.7 108.8 91.7 108.9 91.6 C 108.9 91.6 108.9 91.6 108.9 91.6 Z M 109.8 91.2 C 109.8 91.2 109.8 91.2 109.8 91.2 C 109.8 91.2 109.8 91.2 109.8 91.2 Z M 102.5 91.6 C 100.8 89.5 104.5 93.0 103.7 90.9 C 106.9 93.1 102.9 92.0 102.5 91.6 C 102.5 91.6 102.5 91.6 102.5 91.6 Z M 102.5 91.6 " fill="#D3AAEF"></path><path d="M 108.0 113.1 C 107.4 113.5 105.7 112.9 107.4 112.7 C 107.5 112.7 108.1 113.0 108.0 113.1 Z M 111.1 113.6 C 110.9 113.7 110.7 113.6 110.5 113.4 C 110.3 112.8 111.9 113.8 111.1 113.6 Z M 106.6 112.3 C 106.5 112.3 105.5 112.2 105.7 112.0 C 105.9 111.9 106.6 112.3 106.6 112.3 Z M 114.2 112.9 C 114.1 113.1 113.0 112.9 112.9 112.8 C 112.4 112.3 114.3 112.3 114.2 112.9 Z M 111.3 104.5 C 111.4 104.4 111.4 104.3 111.4 104.3 C 111.4 104.4 111.4 104.4 111.3 104.5 Z M 128.8 115.8 C 128.6 115.8 128.3 115.5 128.4 115.3 C 128.6 115.1 129.4 115.8 128.8 115.8 Z M 122.5 90.2 C 122.5 90.2 122.1 90.3 122.1 90.1 C 122.1 89.9 122.4 89.9 122.5 90.2 Z M 122.2 90.0 C 122.0 89.9 122.2 89.5 122.3 89.7 C 122.4 89.9 122.5 90.0 122.2 90.0 Z M 131.1 102.3 C 131.2 102.4 131.2 102.5 131.1 102.4 C 130.9 102.4 131.0 102.1 131.1 102.3 Z M 130.6 102.0 C 130.3 101.9 130.6 101.5 130.7 101.7 C 130.9 101.9 130.9 102.1 130.6 102.0 Z M 130.9 98.5 C 131.0 98.6 131.0 98.7 130.9 98.6 C 130.7 98.6 130.8 98.3 130.9 98.5 Z M 117.1 95.4 C 117.1 95.3 117.6 94.9 117.7 95.1 C 117.9 95.3 117.1 95.7 117.1 95.4 Z M 117.5 94.8 C 117.3 94.7 117.5 94.3 117.6 94.5 C 117.7 94.7 117.7 94.8 117.5 94.8 Z M 116.4 96.8 C 116.6 97.0 116.2 97.5 116.1 97.6 C 115.9 97.7 115.7 97.8 115.4 97.9 C 115.4 97.9 116.1 96.6 116.4 96.8 Z M 113.5 100.7 C 113.4 100.7 113.4 100.6 113.6 100.5 C 113.8 100.4 113.6 100.8 113.5 100.7 Z M 115.1 98.5 C 115.0 98.4 115.0 98.4 115.2 98.3 C 115.4 98.2 115.2 98.6 115.1 98.5 Z M 120.0 114.5 C 120.1 114.7 119.3 114.4 119.2 114.3 C 119.2 114.3 119.5 114.3 119.3 114.2 C 119.1 114.1 119.7 113.6 120.0 114.5 Z M 112.9 113.9 C 112.7 113.8 112.7 113.7 112.8 113.5 C 112.8 113.5 113.4 113.8 112.9 113.9 Z M 119.1 113.4 C 119.1 113.5 118.9 113.4 118.9 113.3 C 118.9 113.2 119.1 113.3 119.1 113.4 Z M 119.7 113.3 C 119.5 113.3 119.1 113.0 119.3 112.8 C 119.4 112.5 120.3 113.3 119.7 113.3 Z M 120.9 114.9 C 120.7 114.9 120.7 114.9 120.8 114.8 C 121.0 114.7 120.9 114.9 120.9 114.9 Z M 116.8 114.7 C 116.5 114.6 116.5 114.6 116.7 114.5 C 116.9 114.5 116.8 114.7 116.8 114.7 Z M 122.9 114.7 C 122.9 114.7 122.3 114.9 122.3 114.5 C 122.2 113.8 122.9 114.7 122.9 114.7 Z M 125.8 114.5 C 125.7 114.5 125.8 114.3 125.9 114.4 C 126.1 114.5 126.0 114.6 125.8 114.5 Z M 127.0 113.7 C 127.4 113.9 127.5 114.2 127.1 114.1 C 126.6 113.9 126.7 113.6 127.0 113.7 Z M 126.5 113.9 C 126.5 113.8 126.7 113.8 126.7 113.9 C 126.7 114.0 126.5 114.0 126.5 113.9 Z M 123.9 114.2 C 123.7 114.3 123.4 114.0 123.8 114.0 C 124.2 113.9 124.2 114.1 123.9 114.2 Z M 108.7 105.6 C 108.7 105.8 108.5 105.6 108.5 105.4 C 108.5 105.3 108.8 105.4 108.7 105.6 Z M 116.3 98.2 C 116.1 98.2 116.1 98.1 116.4 98.0 C 116.6 97.8 116.5 98.2 116.3 98.2 Z M 120.9 93.5 C 120.7 93.5 120.8 93.4 121.0 93.2 C 121.2 93.1 121.1 93.5 120.9 93.5 Z M 114.6 100.3 C 114.4 100.3 114.5 99.4 115.1 99.4 C 115.7 99.4 115.0 100.4 114.6 100.3 Z M 114.5 108.7 C 114.5 108.9 114.3 108.7 114.3 108.7 C 114.5 108.5 114.5 108.5 114.5 108.7 Z M 116.1 99.7 C 116.1 99.8 115.9 99.6 115.9 99.4 C 115.9 99.3 116.2 99.4 116.1 99.7 Z M 119.9 94.1 C 119.6 94.3 119.4 93.9 119.4 93.7 C 119.4 93.0 120.0 93.0 120.5 92.9 C 120.9 92.8 120.0 94.1 119.9 94.1 Z M 108.5 107.5 C 108.7 107.4 108.8 107.3 108.9 107.2 C 108.8 107.1 108.9 107.1 109.1 107.0 C 109.4 106.5 109.2 105.8 109.4 105.4 C 109.7 104.4 110.9 104.9 111.3 104.5 C 111.2 104.6 111.1 104.7 111.2 104.9 C 111.3 105.3 112.6 103.4 112.7 103.3 C 113.8 101.5 112.0 103.2 111.5 102.7 C 111.2 102.6 112.7 102.0 112.8 102.0 C 113.4 101.7 112.9 101.2 113.5 100.9 C 113.7 100.8 115.4 101.2 115.4 100.9 C 115.4 100.6 115.9 100.2 116.0 100.1 C 116.3 99.8 116.6 99.3 116.0 99.2 C 115.5 99.1 115.1 99.0 115.8 98.8 C 116.2 98.7 118.4 97.5 117.5 96.9 C 117.4 96.8 116.8 97.0 116.8 97.0 C 117.0 96.4 118.6 95.1 118.5 94.4 C 118.4 93.0 118.8 95.1 119.3 94.9 C 120.3 94.5 120.8 94.3 121.4 93.3 C 121.6 93.1 122.2 92.3 121.4 92.3 C 120.9 92.3 120.9 91.9 120.3 92.3 C 120.4 91.4 121.5 91.7 121.4 91.5 C 121.3 91.1 120.9 91.3 121.3 90.9 C 121.8 90.5 121.5 90.6 122.0 90.8 C 122.1 90.9 122.6 90.6 122.6 90.6 C 122.7 90.6 122.7 90.6 122.7 90.7 C 123.0 90.2 122.8 88.9 123.0 88.9 C 123.3 89.0 123.6 89.6 123.8 89.8 C 123.8 89.8 123.9 89.7 123.9 89.7 C 124.0 89.5 124.0 88.8 124.2 88.8 C 124.3 88.8 124.8 89.7 124.7 89.4 C 124.7 89.0 125.7 88.3 126.0 88.4 C 126.2 88.6 127.5 89.2 127.7 89.1 C 127.9 89.0 128.1 89.7 128.2 89.9 C 128.3 90.1 128.1 90.6 128.0 90.7 C 128.0 90.8 128.3 91.3 128.3 91.3 C 128.3 91.3 128.5 91.5 128.6 91.9 C 128.8 92.3 128.7 92.7 128.7 93.3 C 128.7 93.9 129.1 94.0 129.4 94.5 C 129.6 94.9 129.0 95.6 129.0 96.1 C 129.1 96.6 129.7 96.4 129.9 96.9 C 130.2 97.4 130.1 97.8 130.0 97.6 C 129.8 97.5 129.7 97.7 129.8 97.9 C 129.8 98.0 129.8 98.7 130.0 98.9 C 130.2 99.1 130.2 97.3 130.8 99.4 C 131.2 100.4 130.7 101.3 130.6 101.1 C 130.3 100.3 129.9 102.2 130.2 102.1 C 130.6 102.0 131.1 103.8 131.5 103.2 C 131.6 103.0 132.4 104.7 132.4 104.9 C 132.4 105.2 132.8 106.0 132.4 106.4 C 132.1 106.6 133.2 107.3 133.3 107.5 C 133.4 107.8 133.7 109.2 133.7 109.5 C 133.7 109.8 133.4 109.2 133.3 108.9 C 133.2 108.5 133.3 108.0 133.2 107.8 C 133.0 107.6 133.0 108.2 133.1 108.6 C 133.1 108.9 132.9 109.1 132.9 109.4 C 133.0 109.5 133.1 109.8 133.1 110.1 C 133.2 110.2 133.3 110.3 133.4 110.2 C 133.5 110.2 133.6 109.9 133.7 109.9 C 133.8 110.0 134.0 110.1 134.2 110.6 C 134.3 111.0 134.4 111.4 134.4 112.0 C 134.4 112.6 134.7 112.7 134.8 113.0 C 135.0 113.4 135.1 113.8 135.0 113.8 C 134.9 113.9 134.6 113.4 134.5 113.4 C 134.4 113.4 134.3 114.1 134.3 114.3 C 134.6 115.3 133.4 114.8 133.6 115.9 C 133.8 116.5 133.2 116.0 132.8 115.8 C 132.7 115.9 132.7 116.0 132.2 116.0 C 132.2 116.1 131.5 115.9 131.1 115.9 C 130.9 115.9 129.5 115.9 130.4 115.7 C 130.5 115.6 130.6 115.6 130.6 115.6 C 130.6 115.6 130.6 115.6 130.6 115.6 C 130.6 115.6 131.1 115.1 131.1 115.1 C 131.1 115.1 130.6 115.6 130.6 115.6 C 130.5 115.3 130.4 115.1 130.3 115.0 C 130.2 115.0 130.1 115.0 130.0 115.1 C 130.0 115.1 130.0 115.1 130.0 115.1 C 130.0 115.1 130.0 115.1 130.0 115.1 C 130.0 115.4 129.9 115.3 129.7 115.2 C 129.2 115.4 128.1 114.9 127.7 114.6 C 129.1 113.7 127.0 113.4 126.3 113.4 C 125.5 113.5 125.3 114.9 125.7 115.0 C 125.2 114.9 125.1 114.7 125.0 114.2 C 125.0 114.3 124.6 113.3 124.6 113.3 C 123.5 112.7 123.6 113.9 123.3 114.0 C 122.9 114.1 122.5 114.1 122.1 114.1 C 121.8 114.1 122.0 114.4 121.9 114.6 C 121.4 115.0 120.7 113.8 120.4 113.7 C 120.7 113.7 121.0 113.6 121.3 113.5 C 120.9 113.7 120.7 113.0 120.6 112.9 C 120.2 112.7 119.7 112.7 119.3 112.7 C 118.6 112.6 118.0 112.6 117.3 112.6 C 117.5 112.8 118.3 113.7 118.4 113.7 C 118.2 113.7 117.6 113.4 117.7 113.9 C 118.0 114.9 116.4 114.2 116.1 114.1 C 115.3 113.9 114.2 114.6 113.4 113.5 C 113.4 113.5 114.8 113.5 114.8 113.3 C 114.6 112.5 114.3 112.0 113.3 112.1 C 113.2 112.1 111.8 112.5 111.8 112.5 C 111.8 112.4 112.8 114.5 111.8 113.7 C 111.6 113.5 112.1 113.3 111.8 113.1 C 111.5 112.9 110.9 112.9 110.5 112.8 C 110.4 112.8 109.7 112.4 109.7 112.5 C 109.5 112.7 109.4 113.0 109.1 113.1 C 108.9 113.2 108.6 113.0 108.6 112.7 C 108.6 112.7 108.6 112.6 108.6 112.6 C 108.5 112.6 108.5 112.5 108.5 112.3 C 108.4 112.4 108.2 112.3 108.1 112.1 C 108.1 112.0 108.4 112.0 108.6 112.2 C 108.6 112.1 108.6 112.0 108.7 111.9 C 108.3 111.9 107.9 111.9 107.9 112.0 C 107.2 112.3 107.2 112.5 106.4 111.7 C 105.8 111.0 106.7 109.0 107.8 108.1 C 107.9 107.9 108.1 107.7 108.5 107.5 Z M 133.0 110.9 C 133.0 110.8 133.0 110.8 133.0 110.8 C 132.9 110.8 132.7 110.8 132.6 110.9 C 132.6 111.2 132.8 110.7 132.9 111.1 C 132.9 111.4 133.0 111.3 133.0 110.9 Z M 130.9 113.0 C 131.1 113.2 131.1 113.1 131.1 113.0 C 131.0 113.0 131.0 113.0 130.9 113.0 Z M 130.6 114.4 C 131.0 114.3 130.4 113.7 129.7 113.7 C 130.1 114.1 130.4 114.3 130.6 114.4 Z M 129.5 114.8 C 129.5 114.8 129.6 114.7 129.6 114.6 C 129.7 114.4 129.2 114.6 129.3 114.4 C 129.3 114.3 129.8 114.2 129.5 114.0 C 129.5 114.0 129.4 113.9 129.3 113.9 C 129.3 113.9 129.2 113.9 129.2 114.0 C 128.9 114.1 129.2 114.7 129.5 114.8 Z M 131.4 109.3 C 131.5 109.5 131.5 109.3 131.5 109.2 C 131.4 109.1 131.2 109.2 131.4 109.3 Z M 131.7 106.5 C 131.6 106.8 131.8 107.0 131.9 106.7 C 132.0 106.5 131.8 106.3 131.7 106.5 Z M 127.0 107.1 C 127.2 107.2 127.1 107.1 127.0 107.0 C 126.9 106.8 126.9 107.1 127.0 107.1 Z M 125.3 108.9 C 125.1 109.0 125.2 109.3 125.3 109.2 C 125.5 109.1 125.5 108.9 125.3 108.9 Z M 129.1 104.8 C 129.0 104.6 128.9 104.8 129.1 104.9 C 129.2 105.0 129.2 105.0 129.1 104.8 Z M 127.4 107.7 C 127.4 107.4 127.3 107.4 127.2 107.4 C 127.1 107.4 127.0 107.6 127.1 107.8 C 127.3 108.0 127.4 108.0 127.4 107.7 Z M 126.2 109.4 C 125.6 109.3 125.5 109.6 126.3 109.6 C 127.2 109.6 126.7 109.5 126.2 109.4 Z M 131.8 104.5 C 131.8 104.6 132.0 104.9 132.0 104.9 C 132.0 104.9 131.8 103.9 131.8 104.5 Z M 122.5 113.6 C 122.8 113.6 123.0 113.4 122.6 113.3 C 122.3 113.2 122.3 113.5 122.5 113.6 Z M 122.2 112.0 C 122.4 112.6 122.8 112.8 122.8 112.8 C 122.8 112.7 123.0 112.3 123.2 112.3 C 123.6 112.2 124.1 112.8 124.6 112.5 C 125.1 112.3 124.1 112.0 123.9 112.0 C 124.1 112.0 124.2 111.9 124.2 111.8 C 124.2 111.6 124.0 111.6 123.9 111.6 C 123.6 111.8 122.1 111.3 122.2 112.0 Z M 126.0 107.5 C 126.1 107.8 126.4 107.8 126.5 107.5 C 126.5 107.2 126.4 106.9 126.3 106.9 C 126.2 106.9 125.9 107.3 126.0 107.5 Z M 127.0 106.0 C 127.3 106.1 127.2 106.0 127.1 105.8 C 126.9 105.4 126.8 105.9 127.0 106.0 Z M 129.4 97.8 C 129.2 97.7 129.3 98.1 129.4 98.1 C 129.5 98.0 129.5 97.9 129.4 97.8 Z M 127.5 100.3 C 127.2 99.9 127.2 100.4 127.3 100.5 C 127.4 100.6 127.7 100.5 127.5 100.3 Z M 127.7 102.8 C 127.6 102.6 127.6 103.0 127.7 103.0 C 127.8 103.1 127.8 102.9 127.7 102.8 Z M 127.1 103.8 C 127.0 103.6 126.8 103.9 127.1 104.1 C 127.2 104.2 127.2 104.0 127.1 103.8 Z M 120.1 110.9 C 120.1 110.9 120.3 110.5 119.9 110.6 C 119.5 110.8 119.5 110.8 120.1 110.9 Z M 123.0 108.7 C 123.4 108.7 123.7 108.7 124.1 107.7 C 124.5 106.7 124.1 106.9 123.6 107.3 C 123.1 107.7 123.8 106.1 122.9 106.8 C 122.5 107.1 122.6 108.7 123.0 108.7 Z M 125.7 102.8 C 125.6 103.4 126.3 103.9 126.2 103.3 C 126.0 102.6 125.8 102.2 125.7 102.8 Z M 125.9 102.4 C 126.0 102.5 126.0 102.4 125.9 102.2 C 125.9 102.0 125.8 102.3 125.9 102.4 Z M 117.0 113.9 C 118.3 113.9 117.1 112.9 117.1 112.9 C 115.8 112.4 115.7 114.0 117.0 113.9 Z M 122.8 91.4 C 122.7 91.4 122.7 91.5 122.7 91.5 C 122.7 91.5 122.7 91.5 122.7 91.6 C 122.7 91.8 123.1 91.6 123.1 91.6 C 123.0 91.5 122.9 91.4 122.8 91.4 Z M 118.5 96.1 C 118.7 95.9 118.8 95.7 118.8 95.5 C 118.3 95.2 117.1 96.7 118.3 96.8 C 118.5 96.8 119.9 96.4 119.6 96.0 C 119.4 95.7 118.1 96.6 118.5 96.1 Z M 120.4 95.1 C 119.9 95.6 121.4 95.1 121.0 95.0 C 120.7 94.9 120.6 94.9 120.4 95.1 Z M 125.3 91.9 C 125.6 90.8 124.4 90.0 124.0 91.7 C 123.6 93.5 124.0 93.9 124.4 93.2 C 124.7 92.4 124.9 93.4 125.3 91.9 Z M 120.1 98.2 C 119.3 97.4 119.3 97.9 119.7 98.7 C 119.8 98.8 120.5 98.7 120.1 98.2 Z M 118.7 100.1 C 118.5 100.2 118.5 100.2 118.7 100.2 C 119.1 100.2 119.0 99.9 118.7 100.1 Z M 127.5 91.6 C 127.6 91.2 127.5 90.7 127.7 90.9 C 127.9 91.0 127.8 90.9 127.8 90.6 C 127.8 90.2 127.5 90.6 127.4 90.8 C 127.3 91.0 127.4 92.0 127.5 91.6 Z M 124.7 100.7 C 124.6 100.5 124.6 100.8 124.7 100.9 C 124.8 101.0 124.8 100.9 124.7 100.7 Z M 120.1 108.1 C 120.1 108.1 120.2 107.9 119.9 108.0 C 119.7 108.1 119.7 108.1 120.1 108.1 Z M 115.3 113.3 C 115.6 113.3 115.2 112.9 115.5 112.7 C 115.6 112.6 115.6 112.9 115.6 112.9 C 115.7 112.8 116.1 112.1 115.5 112.3 C 115.2 112.4 114.7 113.3 115.3 113.3 Z M 123.0 102.4 C 123.0 102.9 124.2 101.9 124.2 102.3 C 124.3 102.7 124.4 102.6 124.3 102.1 C 124.3 101.7 123.0 101.9 123.0 102.4 Z M 125.2 99.4 C 125.0 99.6 125.2 100.5 125.3 100.1 C 125.4 99.7 125.3 99.2 125.5 99.4 C 125.7 99.5 125.6 99.4 125.6 99.1 C 125.6 98.8 125.3 99.2 125.2 99.4 Z M 128.9 94.4 C 128.9 94.6 129.1 95.0 129.1 94.7 C 129.2 94.5 128.9 94.3 128.9 94.4 Z M 117.6 107.4 C 117.9 107.3 117.9 107.2 117.5 107.2 C 117.1 107.2 117.4 107.6 117.6 107.4 Z M 127.7 94.2 C 127.8 94.7 128.0 94.1 128.0 94.5 C 128.1 94.8 128.2 94.7 128.1 94.2 C 128.1 93.8 127.7 93.7 127.7 94.2 Z M 113.3 111.2 C 113.4 111.1 113.5 110.8 113.3 110.8 C 113.1 110.9 113.2 111.2 113.3 111.2 Z M 114.1 108.8 C 114.2 108.9 114.3 108.9 114.4 108.9 C 116.2 109.1 113.6 107.9 114.1 108.8 Z M 116.5 106.2 C 116.3 106.6 116.9 106.3 116.9 106.3 C 116.8 106.2 116.7 106.1 116.5 106.2 Z M 119.0 103.2 C 118.9 103.0 118.7 103.3 118.9 103.4 C 119.1 103.5 119.1 103.3 119.0 103.2 Z M 110.4 112.5 C 110.6 112.6 110.7 112.4 110.5 112.3 C 110.4 112.3 110.2 112.4 110.4 112.5 Z M 116.5 104.9 C 116.5 105.0 116.6 105.0 116.7 104.8 C 116.7 104.6 116.5 104.8 116.5 104.9 Z M 124.0 95.7 C 124.1 95.8 124.1 95.9 124.1 96.1 C 124.3 96.1 124.9 95.6 125.0 95.8 C 125.1 95.8 125.1 95.8 125.1 95.8 C 125.1 95.8 125.1 95.8 125.1 95.8 C 125.2 95.9 125.2 96.1 125.1 96.0 C 125.1 96.2 125.0 96.3 125.0 96.4 C 125.3 96.4 125.6 96.3 125.6 96.0 C 125.6 95.7 125.2 95.3 124.8 95.1 C 124.7 95.1 124.5 95.2 124.4 95.3 C 124.4 95.3 124.4 95.3 124.4 95.4 C 124.5 95.6 124.5 95.9 124.4 95.7 C 124.2 95.7 124.2 95.5 124.2 95.5 C 124.1 95.5 124.1 95.6 124.0 95.7 Z M 117.0 103.4 C 117.0 103.7 117.2 103.6 117.5 103.4 C 117.7 103.2 117.1 103.0 117.0 103.4 Z M 110.4 111.9 C 110.5 111.7 110.5 111.6 110.5 111.5 C 110.4 111.6 110.4 111.6 110.3 111.7 C 110.2 111.8 110.0 111.9 109.8 112.0 C 110.0 112.2 110.2 112.2 110.4 111.9 Z M 111.7 108.5 C 111.7 108.6 110.7 109.7 111.1 109.7 C 111.8 109.7 111.8 110.5 112.3 109.6 C 112.5 109.1 112.2 108.3 112.4 107.9 C 113.6 105.6 111.5 108.0 110.9 108.4 C 110.8 108.5 111.8 108.3 111.7 108.5 Z M 113.2 105.5 C 113.1 105.3 112.7 105.4 112.6 105.5 C 112.3 106.0 113.4 105.8 113.2 105.5 Z M 108.5 110.7 C 108.5 110.7 108.5 110.7 108.6 110.8 C 108.6 110.7 108.6 110.6 108.5 110.6 C 108.5 110.6 108.5 110.6 108.5 110.7 Z M 107.1 111.8 C 108.1 111.8 107.0 111.0 106.7 110.9 C 106.2 110.8 106.6 111.8 107.1 111.8 Z M 111.1 106.2 C 111.5 105.8 110.7 104.4 110.2 105.2 C 109.7 105.8 110.4 107.0 111.1 106.2 Z M 113.0 101.0 C 113.1 101.2 112.5 101.5 112.5 101.1 C 112.5 100.9 113.0 100.9 113.0 101.0 Z M 107.4 106.5 C 107.6 106.4 107.5 106.6 107.5 106.6 C 107.3 106.5 107.3 106.5 107.4 106.5 Z M 108.7 106.6 C 108.5 106.7 108.3 106.9 108.1 107.0 C 107.9 107.1 108.1 106.6 108.2 106.6 C 108.3 106.5 108.7 106.6 108.7 106.6 Z M 111.5 103.5 C 111.2 103.5 111.4 103.2 111.6 103.1 C 111.7 103.1 111.7 103.4 111.5 103.5 Z M 110.6 104.0 C 110.7 103.9 110.8 104.1 110.6 104.2 C 110.5 104.4 110.5 104.1 110.6 104.0 Z M 112.3 103.2 C 112.2 103.6 111.8 104.2 111.6 103.9 C 111.4 103.7 112.7 102.4 112.3 103.2 Z M 112.3 103.2 " fill="#D3AAEF"></path></g></svg>