<?xml version="1.0" encoding="UTF-8" standalone="no"?><svg xmlns="http://www.w3.org/2000/svg" xmlns:xlink="http://www.w3.org/1999/xlink" clip-rule="evenodd" stroke-miterlimit="4.00" viewBox="0 0 269 145"><desc>SVG generated by Keynote</desc><defs></defs><g transform="matrix(1.00, 0.00, -0.00, -1.00, 0.0, 145.0)"><path d="M 250.3 6.4 C 250.7 6.2 251.6 6.5 251.9 6.3 M 250.3 6.4 C 251.2 7.7 252.9 7.8 255.1 8.1 C 257.5 8.2 255.0 6.9 255.3 6.4 C 258.5 6.0 258.5 6.9 258.0 8.3 C 259.2 7.4 262.8 9.2 262.1 7.4 C 257.0 7.2 265.7 7.2 261.5 6.0 C 261.0 5.7 262.3 5.3 262.7 5.3 C 261.3 4.5 263.8 3.8 261.5 3.2 C 261.3 2.1 261.7 2.6 260.2 1.7 C 259.6 1.5 259.9 1.9 259.9 2.2 C 259.6 3.4 258.2 1.4 256.9 2.2 C 255.9 0.4 254.7 2.4 255.7 3.1 C 254.6 2.9 253.3 1.1 252.2 2.3 C 251.6 1.5 248.7 2.0 250.4 3.0 C 251.7 3.7 250.3 4.2 250.1 4.6 C 250.5 5.0 252.3 4.5 252.5 4.8 C 252.0 5.0 249.7 5.6 252.1 5.6 C 251.4 6.2 252.5 6.5 250.3 6.4 C 250.3 6.4 250.3 6.4 250.3 6.4 Z M 258.9 7.6 C 258.9 8.0 258.1 7.5 258.9 7.6 C 258.9 7.6 258.9 7.6 258.9 7.6 Z M 253.2 1.5 C 253.2 1.9 252.3 1.4 253.2 1.5 C 253.2 1.5 253.2 1.5 253.2 1.5 Z M 259.5 2.1 C 259.5 2.6 258.7 2.1 259.5 2.1 C 259.5 2.1 259.5 2.1 259.5 2.1 Z M 256.6 7.2 C 255.3 6.8 257.8 6.6 258.0 7.1 C 257.7 7.0 257.0 7.6 256.6 7.2 C 256.6 7.2 256.6 7.2 256.6 7.2 Z M 256.5 4.6 C 256.4 4.8 255.9 4.9 255.9 4.4 C 256.3 4.3 256.6 4.5 256.5 4.6 C 256.5 4.6 256.5 4.6 256.5 4.6 Z M 263.2 6.7 C 263.1 6.9 262.5 6.9 262.6 6.5 C 263.0 6.4 263.3 6.6 263.2 6.7 C 263.2 6.7 263.2 6.7 263.2 6.7 Z M 255.1 6.0 C 254.8 5.9 254.7 5.5 255.1 5.5 C 255.3 5.7 256.2 5.8 255.1 6.0 C 255.1 6.0 255.1 6.0 255.1 6.0 Z M 253.0 7.4 C 251.9 7.2 254.2 6.6 254.1 6.8 C 254.5 7.1 253.6 7.8 253.0 7.4 C 253.0 7.4 253.0 7.4 253.0 7.4 Z M 254.5 5.4 C 253.6 5.1 254.9 5.1 254.5 5.4 C 254.5 5.4 254.5 5.4 254.5 5.4 Z M 262.4 3.4 C 261.5 3.1 262.9 3.1 262.4 3.4 C 262.4 3.4 262.4 3.4 262.4 3.4 Z M 257.5 1.8 C 256.5 1.6 257.9 1.5 257.5 1.8 C 257.5 1.8 257.5 1.8 257.5 1.8 Z M 259.2 6.4 C 260.8 6.5 259.4 7.6 259.2 6.4 C 259.2 6.4 259.2 6.4 259.2 6.4 Z M 250.4 7.5 C 252.0 7.5 250.6 8.6 250.4 7.5 C 250.4 7.5 250.4 7.5 250.4 7.5 Z M 19.9 122.2 C 19.2 123.5 23.7 119.8 21.1 120.5 C 19.5 120.2 21.9 117.1 22.4 118.7 C 23.2 117.9 23.3 117.9 23.1 117.0 C 24.1 117.5 26.1 115.7 26.2 114.7 C 25.9 113.7 25.1 116.0 25.2 114.2 C 27.0 111.4 24.3 113.8 24.1 112.0 C 24.2 111.9 24.7 112.3 24.6 111.8 C 23.8 111.0 22.0 112.1 21.9 110.9 C 21.7 111.4 19.3 112.6 20.7 112.4 C 21.7 112.7 18.1 113.8 19.6 114.6 C 18.5 114.8 18.8 116.1 17.6 116.2 C 17.1 116.5 17.8 117.1 18.0 117.1 C 18.7 117.6 16.2 116.7 16.7 118.3 C 16.3 118.1 14.9 120.4 16.6 119.1 C 16.1 119.5 14.0 121.9 16.2 121.4 C 18.1 120.1 16.2 124.2 17.8 122.1 C 19.0 120.6 19.0 120.1 18.8 121.8 C 18.5 122.1 17.3 124.0 19.0 122.9 C 19.0 122.4 19.7 121.8 19.9 122.2 C 19.9 122.2 19.9 122.2 19.9 122.2 Z M 17.8 121.2 C 18.4 120.3 18.3 121.5 17.8 121.2 C 17.8 121.2 17.8 121.2 17.8 121.2 Z M 17.4 115.8 C 18.0 114.9 17.9 116.1 17.4 115.8 C 17.4 115.8 17.4 115.8 17.4 115.8 Z M 22.3 119.6 C 22.2 118.9 23.6 119.7 22.3 119.6 C 22.3 119.6 22.3 119.6 22.3 119.6 Z M 17.3 118.1 C 17.4 118.1 17.4 118.4 17.3 118.6 C 17.3 118.5 17.3 118.2 17.3 118.1 C 17.3 118.1 17.3 118.1 17.3 118.1 Z M 23.4 118.1 C 23.8 116.3 24.6 118.6 23.4 118.1 C 23.4 118.1 23.4 118.1 23.4 118.1 Z M 24.2 114.5 C 23.1 113.4 25.5 113.3 24.2 114.5 C 24.2 114.5 24.2 114.5 24.2 114.5 Z M 20.0 114.2 C 20.1 114.7 19.7 114.4 20.0 114.2 C 20.0 114.2 20.0 114.2 20.0 114.2 Z M 15.4 120.1 C 15.5 120.5 15.1 120.2 15.4 120.1 C 15.4 120.1 15.4 120.1 15.4 120.1 Z M 21.4 112.6 C 21.8 113.1 20.8 113.0 21.4 112.6 C 21.4 112.6 21.4 112.6 21.4 112.6 Z M 21.9 119.0 C 22.1 121.0 19.3 119.4 21.9 119.0 C 21.9 119.0 21.9 119.0 21.9 119.0 Z M 20.4 121.3 C 20.0 122.3 19.9 120.7 20.3 120.4 C 20.4 120.5 20.5 121.1 20.4 121.3 C 20.4 121.3 20.4 121.3 20.4 121.3 Z M 22.8 117.6 C 22.7 118.8 21.9 118.2 22.8 117.6 C 22.8 117.6 22.8 117.6 22.8 117.6 Z M 21.8 120.2 C 21.3 120.5 21.9 119.7 21.8 120.2 C 21.8 120.2 21.8 120.2 21.8 120.2 Z M 25.1 116.7 C 24.7 117.1 25.2 116.3 25.1 116.7 C 25.1 116.7 25.1 116.7 25.1 116.7 Z M 20.2 122.7 C 19.8 123.0 20.3 122.3 20.2 122.7 C 20.2 122.7 20.2 122.7 20.2 122.7 Z M 24.2 116.6 C 23.8 116.1 21.9 116.5 24.4 115.0 C 25.0 114.9 24.9 116.3 24.2 116.6 C 24.2 116.6 24.2 116.6 24.2 116.6 Z M 245.9 6.4 C 252.3 8.1 250.8 5.0 251.1 4.5 C 252.0 3.6 251.1 3.1 249.9 2.5 C 248.5 0.5 247.8 4.5 246.8 2.5 C 245.1 -0.1 244.9 4.8 244.1 2.0 C 244.4 1.3 241.9 1.9 242.1 2.1 C 240.9 0.8 239.1 3.2 239.1 3.4 C 238.3 3.1 238.1 0.6 235.6 2.5 C 233.6 3.2 232.7 0.8 233.3 2.5 C 231.8 0.6 232.3 3.1 230.9 2.5 C 229.8 1.5 230.9 4.1 229.0 2.2 C 228.3 3.8 229.7 1.0 225.0 2.5 C 227.3 2.5 222.8 3.9 223.7 2.8 C 225.2 1.5 221.4 3.3 219.2 2.8 C 218.7 3.5 216.2 5.1 216.5 3.5 C 214.1 1.9 214.3 4.8 213.2 3.4 C 212.4 2.9 212.3 4.2 211.8 4.2 C 210.9 3.1 210.2 4.0 207.4 4.0 C 201.4 4.1 206.9 7.0 204.7 7.6 C 204.4 8.2 208.1 11.5 206.5 8.9 C 207.0 9.6 211.5 6.2 209.4 9.5 C 211.1 8.1 209.1 10.8 212.7 8.9 C 207.4 7.3 218.4 7.5 213.6 9.0 C 214.5 9.6 216.5 9.3 215.0 8.9 C 214.3 7.0 218.6 9.5 216.4 7.2 C 219.6 7.6 218.6 5.6 219.6 7.0 C 220.5 9.5 219.4 6.3 221.1 7.0 C 224.8 6.7 222.1 9.9 224.3 7.8 C 228.0 8.8 225.0 6.6 226.3 6.2 C 226.5 4.4 230.1 7.4 227.3 7.8 C 228.8 6.7 227.6 8.6 229.2 7.4 C 227.9 5.8 231.5 9.0 231.0 7.7 C 232.5 7.2 231.6 6.3 232.1 6.2 C 234.4 6.1 233.8 7.8 234.2 6.6 C 234.7 5.9 235.8 8.0 236.1 7.4 C 233.7 7.4 238.0 5.6 238.3 6.5 C 236.8 6.7 239.1 8.7 240.0 7.4 C 238.7 3.8 242.0 8.3 243.1 7.0 C 242.1 5.0 248.3 6.7 246.0 7.7 C 246.1 7.5 245.9 6.3 245.9 6.4 M 236.8 7.1 C 234.8 7.0 238.9 6.7 236.8 7.1 M 236.9 7.7 C 236.0 7.0 238.7 8.1 236.8 7.9 C 236.8 7.9 237.0 7.7 236.9 7.7 M 228.9 8.0 C 229.1 7.5 230.0 8.3 228.9 8.0 M 227.3 6.9 C 226.0 6.4 229.0 6.7 227.3 6.9 M 210.1 8.7 C 211.5 5.5 212.1 10.1 210.1 8.7 M 221.5 8.2 C 223.6 7.7 220.9 9.5 221.5 8.2 M 222.1 7.4 C 223.0 6.9 222.3 8.1 222.1 7.4 M 213.4 8.3 C 213.2 8.3 213.2 8.3 213.4 8.3 C 213.4 8.3 213.4 8.3 213.4 8.3 Z M 208.3 8.8 C 208.3 8.8 208.3 8.8 208.3 8.8 C 208.3 8.8 208.3 8.8 208.3 8.8 Z M 218.3 7.6 C 219.9 8.1 215.7 8.1 218.3 7.6 C 218.3 7.6 218.3 7.6 218.3 7.6 Z M 210.2 4.0 C 210.3 3.9 210.3 3.9 210.2 4.0 C 210.2 4.0 210.2 4.0 210.2 4.0 Z M 238.3 5.7 C 238.4 5.7 238.4 5.7 238.3 5.7 C 238.3 5.7 238.3 5.7 238.3 5.7 Z M 244.3 6.8 C 244.3 6.4 245.4 7.1 244.3 6.8 C 244.3 6.8 244.3 6.8 244.3 6.8 Z M 249.3 3.4 C 249.4 3.3 249.4 3.3 249.3 3.4 C 249.3 3.4 249.3 3.4 249.3 3.4 Z M 240.3 4.1 C 240.4 4.1 240.4 4.1 240.3 4.1 C 240.3 4.1 240.3 4.1 240.3 4.1 Z M 239.5 6.3 C 240.5 8.0 237.2 5.9 239.5 6.3 C 239.5 6.3 239.5 6.3 239.5 6.3 Z M 219.9 3.3 C 219.9 4.0 218.5 3.1 219.9 3.3 C 219.9 3.3 219.9 3.3 219.9 3.3 Z M 227.1 6.2 C 226.9 6.6 226.2 6.1 227.1 6.2 C 227.1 6.2 227.1 6.2 227.1 6.2 Z M 230.4 8.3 C 230.2 8.7 229.6 8.1 230.4 8.3 C 230.4 8.3 230.4 8.3 230.4 8.3 Z M 244.2 7.2 C 244.1 7.3 244.1 7.3 244.2 7.2 C 244.2 7.2 244.2 7.2 244.2 7.2 Z M 242.1 6.0 C 243.6 7.5 239.7 5.2 242.1 6.0 C 242.1 6.0 242.1 6.0 242.1 6.0 Z M 244.6 5.5 C 243.8 4.9 246.6 5.8 244.6 5.5 M 243.1 3.2 C 241.3 3.8 244.8 0.4 243.1 3.2 C 243.1 3.2 243.1 3.2 243.1 3.2 Z M 233.8 2.8 C 233.7 2.7 233.7 2.7 233.8 2.8 C 233.8 2.8 233.8 2.8 233.8 2.8 Z M 234.9 7.2 C 233.3 7.2 235.9 6.8 234.9 7.2 C 234.9 7.2 234.9 7.2 234.9 7.2 Z M 248.9 7.4 C 247.2 7.3 249.9 7.1 248.9 7.4 C 248.9 7.4 248.9 7.4 248.9 7.4 Z M 228.5 4.5 C 225.9 4.9 230.0 3.6 228.5 4.5 C 228.5 4.5 228.5 4.5 228.5 4.5 Z M 219.1 6.9 C 219.0 6.9 219.0 6.9 219.1 6.9 C 219.1 6.9 219.1 6.9 219.1 6.9 Z M 217.4 7.7 C 217.4 7.7 217.4 7.7 217.4 7.7 C 217.4 7.7 217.4 7.7 217.4 7.7 Z M 210.1 6.8 C 209.9 6.7 209.9 6.7 210.1 6.8 C 210.1 6.8 210.1 6.8 210.1 6.8 Z M 215.9 8.6 C 215.9 8.5 215.9 8.5 215.9 8.6 C 215.9 8.6 215.9 8.6 215.9 8.6 Z M 210.9 8.6 C 210.8 8.6 210.8 8.6 210.9 8.6 C 210.9 8.6 210.9 8.6 210.9 8.6 Z M 211.7 9.9 C 211.6 9.9 211.6 9.9 211.7 9.9 C 211.7 9.9 211.7 9.9 211.7 9.9 Z M 222.3 2.2 C 222.2 2.2 222.2 2.2 222.3 2.2 C 222.3 2.2 222.3 2.2 222.3 2.2 Z M 241.4 7.8 C 241.3 7.6 241.3 7.6 241.4 7.8 C 241.4 7.8 241.4 7.8 241.4 7.8 Z M 211.2 8.0 C 211.2 8.0 211.2 8.0 211.2 8.0 C 211.2 8.0 211.2 8.0 211.2 8.0 Z M 223.4 5.7 C 223.3 4.4 224.6 7.4 223.1 5.8 C 223.1 5.7 223.5 5.9 223.4 5.7 M 221.6 3.7 C 221.6 3.6 221.6 3.6 221.6 3.7 C 221.6 3.7 221.6 3.7 221.6 3.7 Z M 227.2 2.5 C 227.3 2.5 227.3 2.5 227.2 2.5 C 227.2 2.5 227.2 2.5 227.2 2.5 Z M 216.8 8.7 C 217.1 9.4 215.4 8.3 217.0 8.7 M 209.8 4.5 C 210.1 5.2 208.3 4.1 210.0 4.4 M 250.7 6.9 C 251.0 6.4 251.8 7.3 250.7 6.9 M 228.4 1.7 C 228.6 1.2 229.5 2.0 228.4 1.7 M 225.9 3.6 C 226.2 4.3 224.4 3.1 226.1 3.5 M 213.6 4.2 C 213.5 4.2 213.5 4.2 213.6 4.2 C 213.6 4.2 213.6 4.2 213.6 4.2 Z M 232.5 7.2 C 232.4 7.2 232.4 7.2 232.5 7.2 C 232.5 7.2 232.5 7.2 232.5 7.2 Z M 225.5 6.0 C 226.5 6.9 224.2 5.4 225.5 6.0 M 234.4 5.3 C 235.8 6.6 232.2 5.0 234.4 5.3 M 206.8 4.5 C 208.5 5.9 205.6 3.8 206.8 4.5 M 214.7 7.5 C 216.3 8.9 213.5 6.8 214.7 7.5 M 231.0 6.6 C 231.2 7.4 229.5 6.2 231.0 6.6 M 247.1 7.0 C 248.5 7.2 245.1 7.6 247.1 7.0 M 217.3 3.8 C 217.2 3.7 217.2 3.7 217.3 3.8 C 217.3 3.8 217.3 3.8 217.3 3.8 Z M 242.1 1.3 C 242.0 1.2 242.0 1.2 242.1 1.3 C 242.1 1.3 242.1 1.3 242.1 1.3 Z M 205.5 9.7 C 205.5 9.6 205.5 9.6 205.5 9.7 C 205.5 9.7 205.5 9.7 205.5 9.7 Z M 215.5 6.7 C 215.4 6.6 215.4 6.6 215.5 6.7 C 215.5 6.7 215.5 6.7 215.5 6.7 Z M 208.4 9.5 C 208.3 9.5 208.3 9.5 208.4 9.5 C 208.4 9.5 208.4 9.5 208.4 9.5 Z M 220.1 5.2 C 220.1 5.1 220.1 5.1 220.1 5.2 C 220.1 5.2 220.1 5.2 220.1 5.2 Z M 221.4 8.9 C 221.3 8.9 221.3 8.9 221.4 8.9 C 221.4 8.9 221.4 8.9 221.4 8.9 Z M 226.4 7.0 C 226.4 6.9 226.4 6.9 226.4 7.0 C 226.4 7.0 226.4 7.0 226.4 7.0 Z M 219.0 8.8 C 216.0 9.3 220.5 7.4 219.0 8.8 C 219.0 8.8 219.0 8.8 219.0 8.8 Z M 224.1 4.6 C 224.0 4.5 224.0 4.5 224.1 4.6 C 224.1 4.6 224.1 4.6 224.1 4.6 Z M 224.7 7.3 C 222.8 8.5 223.5 5.5 224.7 7.3 M 233.4 7.8 C 232.8 8.4 233.1 6.9 233.4 7.8 M 236.8 2.6 C 236.8 2.5 236.8 2.5 236.8 2.6 C 236.8 2.6 236.8 2.6 236.8 2.6 Z M 235.8 3.0 C 235.7 3.0 235.7 3.0 235.8 3.0 C 235.8 3.0 235.8 3.0 235.8 3.0 Z M 235.5 7.9 C 235.5 7.9 235.5 7.9 235.5 7.9 C 235.5 7.9 235.5 7.9 235.5 7.9 Z M 235.7 1.6 C 235.6 1.5 235.6 1.5 235.7 1.6 C 235.7 1.6 235.7 1.6 235.7 1.6 Z M 222.5 8.7 C 222.5 8.7 222.5 8.7 222.5 8.7 C 222.5 8.7 222.5 8.7 222.5 8.7 Z M 207.0 10.3 C 206.9 10.2 206.9 10.2 207.0 10.3 C 207.0 10.3 207.0 10.3 207.0 10.3 Z M 246.6 3.0 C 246.5 2.9 246.5 2.9 246.6 3.0 C 246.6 3.0 246.6 3.0 246.6 3.0 Z M 220.8 7.3 C 220.7 7.3 220.7 7.3 220.8 7.3 C 220.8 7.3 220.8 7.3 220.8 7.3 Z M 239.1 2.8 C 239.0 2.7 239.0 2.7 239.1 2.8 C 239.1 2.8 239.1 2.8 239.1 2.8 Z M 221.8 7.6 C 221.8 7.6 221.8 7.6 221.8 7.6 C 221.8 7.6 221.8 7.6 221.8 7.6 Z M 217.7 3.4 C 217.7 3.4 217.7 3.4 217.7 3.4 C 217.7 3.4 217.7 3.4 217.7 3.4 Z M 214.3 2.9 C 214.2 2.8 214.2 2.8 214.3 2.9 C 214.3 2.9 214.3 2.9 214.3 2.9 Z M 218.2 6.1 C 218.1 6.0 218.1 6.0 218.2 6.1 C 218.2 6.1 218.2 6.1 218.2 6.1 Z M 240.3 4.4 C 246.7 5.6 235.2 5.1 240.3 4.4 M 217.1 5.8 C 221.5 5.8 213.8 7.6 217.1 5.8 C 216.7 6.3 217.1 5.9 217.1 5.8 M 204.1 10.5 C 205.7 8.9 205.5 7.5 204.6 6.2 C 203.6 5.5 204.0 8.4 203.7 6.0 C 205.6 5.3 202.3 2.5 202.8 5.6 C 200.2 6.4 202.1 3.7 200.7 5.1 C 197.9 5.8 199.2 4.7 197.1 5.2 C 196.1 7.1 195.7 4.6 195.4 6.3 C 196.2 4.4 193.2 7.1 193.0 6.3 C 194.7 5.0 185.6 7.6 190.7 7.2 C 188.8 8.4 189.0 6.9 188.2 6.8 C 187.5 8.0 184.7 6.7 183.6 7.9 C 183.9 8.1 184.6 8.0 184.8 8.3 C 185.3 8.9 183.4 8.5 183.5 8.5 C 182.8 9.0 179.7 10.7 182.9 8.2 C 182.9 7.4 180.1 9.2 180.0 8.4 C 177.0 9.0 179.6 10.2 178.0 9.3 C 175.8 9.7 174.3 10.1 174.4 10.3 C 173.0 10.4 172.5 9.5 171.6 10.7 C 168.5 9.6 170.6 14.6 168.7 11.4 C 168.2 12.4 166.9 10.3 167.6 12.4 C 168.2 11.2 162.7 12.0 165.4 12.9 C 164.9 13.6 160.9 11.8 162.0 13.8 C 161.2 15.8 161.9 17.3 164.9 18.1 C 164.2 16.9 167.9 18.6 165.4 17.0 C 163.0 16.9 169.3 15.2 168.1 16.3 C 168.5 18.9 170.8 13.9 172.5 15.4 C 171.2 14.7 176.2 12.9 175.2 15.2 C 176.2 15.1 176.2 14.1 177.5 15.0 C 174.4 15.6 178.2 12.7 178.3 14.0 C 177.9 14.8 182.7 14.4 182.0 13.4 C 179.8 11.1 183.3 13.7 183.9 12.5 C 186.3 11.4 183.9 14.8 185.5 12.5 C 186.0 12.7 189.5 12.1 187.4 13.0 C 186.5 12.9 188.9 9.7 189.7 12.0 C 186.2 13.9 194.1 11.9 192.7 11.4 C 186.8 11.2 198.5 9.0 194.2 11.0 C 197.0 11.8 193.6 11.6 196.7 10.6 C 196.1 9.9 198.5 8.8 198.1 10.4 C 199.0 12.5 198.6 7.3 201.0 10.0 C 201.4 11.3 204.7 8.5 203.5 10.2 C 203.5 10.3 204.0 10.5 204.1 10.5 M 202.9 10.4 C 203.3 9.8 203.7 10.9 202.9 10.4 M 203.3 9.9 C 203.4 9.9 203.4 9.9 203.3 9.9 C 203.3 9.9 203.3 9.9 203.3 9.9 Z M 197.1 10.4 C 197.2 10.5 197.2 10.5 197.1 10.4 C 197.1 10.4 197.1 10.4 197.1 10.4 Z M 191.3 5.7 C 191.4 5.8 191.4 5.8 191.3 5.7 C 191.3 5.7 191.3 5.7 191.3 5.7 Z M 193.0 10.9 C 193.1 10.9 193.1 10.9 193.0 10.9 C 193.0 10.9 193.0 10.9 193.0 10.9 Z M 199.3 9.7 C 199.3 9.7 199.3 9.7 199.3 9.7 C 199.3 9.7 199.3 9.7 199.3 9.7 Z M 193.5 11.7 C 193.1 10.9 195.0 12.0 193.5 11.8 C 193.4 11.8 193.7 11.7 193.5 11.7 M 188.3 12.9 C 188.2 12.8 188.2 12.8 188.3 12.9 M 175.4 9.0 C 175.3 8.9 175.3 8.9 175.4 9.0 M 175.9 15.6 C 175.8 15.5 175.8 15.5 175.9 15.6 M 182.9 13.1 C 181.3 13.6 182.5 12.8 182.9 13.1 M 171.7 16.1 C 173.8 16.2 169.7 17.1 171.7 16.1 M 169.9 17.1 C 169.7 17.1 169.7 17.1 169.9 17.1 M 178.7 14.6 C 178.8 14.6 178.8 14.6 178.7 14.6 C 178.7 14.6 178.7 14.6 178.7 14.6 Z M 183.7 13.3 C 185.9 13.3 181.7 14.5 183.7 13.3 M 196.5 11.3 C 195.4 11.9 196.4 10.2 196.5 11.3 M 198.9 10.5 C 198.9 10.4 198.9 10.4 198.9 10.5 C 198.9 10.5 198.9 10.5 198.9 10.5 Z M 174.9 15.4 C 174.9 15.4 174.9 15.4 174.9 15.4 C 174.9 15.4 174.9 15.4 174.9 15.4 Z M 172.6 16.1 C 172.7 16.1 172.7 16.1 172.6 16.1 C 172.6 16.1 172.6 16.1 172.6 16.1 Z M 167.3 11.2 C 167.4 11.1 167.4 11.1 167.3 11.2 C 167.3 11.2 167.3 11.2 167.3 11.2 Z M 196.7 8.2 C 198.3 8.4 195.4 10.5 195.4 8.9 C 195.2 8.4 196.5 8.4 196.7 8.2 M 184.8 11.2 C 184.0 9.2 186.9 13.7 184.8 11.2 M 169.3 15.8 C 167.2 13.9 171.7 17.0 169.3 15.8 M 166.3 17.1 C 165.3 16.8 172.0 15.3 167.5 17.1 C 167.2 17.6 166.7 17.2 166.3 17.1 M 188.0 12.0 C 187.4 10.9 190.6 12.0 188.0 12.0 M 177.7 10.6 C 177.1 11.5 175.2 12.5 175.8 11.1 C 175.5 9.5 178.5 9.8 177.7 10.6 M 202.3 9.3 C 201.2 11.3 202.1 7.7 202.3 9.3 M 196.0 10.1 C 196.0 10.1 196.0 10.1 196.0 10.1 C 196.0 10.1 196.0 10.1 196.0 10.1 Z M 193.6 10.7 C 193.5 10.6 193.5 10.6 193.6 10.7 M 201.5 11.0 C 201.4 10.9 201.4 10.9 201.5 11.0 M 178.1 12.4 C 178.0 12.3 178.0 12.3 178.1 12.4 M 183.3 12.6 C 180.6 11.3 184.5 11.9 183.3 12.6 M 188.4 8.0 C 187.5 7.3 189.9 7.7 188.4 8.0 M 179.6 14.0 C 177.6 12.7 181.5 12.0 179.6 14.0 M 184.5 12.5 C 184.4 12.5 184.4 12.5 184.5 12.5 C 184.5 12.5 184.5 12.5 184.5 12.5 Z M 177.0 10.5 C 177.1 10.5 177.1 10.5 177.0 10.5 C 177.0 10.5 177.0 10.5 177.0 10.5 Z M 176.3 10.8 C 176.4 10.7 176.4 10.7 176.3 10.8 C 176.3 10.8 176.3 10.8 176.3 10.8 Z M 177.6 14.7 C 177.7 14.6 177.7 14.6 177.6 14.7 C 177.6 14.7 177.6 14.7 177.6 14.7 Z M 198.3 5.8 C 196.6 5.9 199.7 5.3 198.3 5.8 C 198.3 5.8 198.3 5.8 198.3 5.8 Z M 191.6 12.0 C 188.6 11.1 193.3 10.4 191.6 12.0 C 191.6 12.0 191.6 12.0 191.6 12.0 Z M 188.0 10.3 C 188.0 10.2 188.0 10.2 188.0 10.3 C 188.0 10.3 188.0 10.3 188.0 10.3 Z M 180.9 14.9 C 180.9 14.8 180.9 14.8 180.9 14.9 C 180.9 14.9 180.9 14.9 180.9 14.9 Z M 197.4 5.7 C 197.4 5.6 197.4 5.6 197.4 5.7 C 197.4 5.7 197.4 5.7 197.4 5.7 Z M 172.8 14.9 C 172.8 14.8 172.8 14.8 172.8 14.9 C 172.8 14.9 172.8 14.9 172.8 14.9 Z M 181.5 9.3 C 181.0 10.0 181.3 8.8 181.5 9.3 C 181.5 9.3 181.5 9.3 181.5 9.3 Z M 179.0 9.8 C 178.9 9.8 178.9 9.8 179.0 9.8 C 179.0 9.8 179.0 9.8 179.0 9.8 Z M 169.4 17.4 C 169.3 17.4 169.3 17.4 169.4 17.4 C 169.4 17.4 169.4 17.4 169.4 17.4 Z M 172.3 9.7 C 172.2 9.7 172.2 9.7 172.3 9.7 C 172.3 9.7 172.3 9.7 172.3 9.7 Z M 170.7 12.1 C 170.7 12.1 170.7 12.1 170.7 12.1 C 170.7 12.1 170.7 12.1 170.7 12.1 Z M 178.0 14.2 C 175.6 15.1 178.4 13.3 178.0 14.2 C 178.0 14.2 178.0 14.2 178.0 14.2 Z M 164.8 14.3 C 164.7 14.2 164.7 14.2 164.8 14.3 C 164.8 14.3 164.8 14.3 164.8 14.3 Z M 164.2 16.9 C 164.1 16.8 164.1 16.8 164.2 16.9 C 164.2 16.9 164.2 16.9 164.2 16.9 Z M 163.9 18.3 C 163.8 18.2 163.8 18.2 163.9 18.3 C 163.9 18.3 163.9 18.3 163.9 18.3 Z M 193.2 8.2 C 193.3 8.3 193.3 8.3 193.2 8.2 C 193.2 8.2 193.2 8.2 193.2 8.2 Z M 194.9 11.9 C 194.9 11.9 194.9 11.9 194.9 11.9 C 194.9 11.9 194.9 11.9 194.9 11.9 Z M 191.5 12.6 C 191.5 12.6 191.5 12.6 191.5 12.6 C 191.5 12.6 191.5 12.6 191.5 12.6 Z M 193.5 5.8 C 193.5 5.9 193.5 5.9 193.5 5.8 C 193.5 5.8 193.5 5.8 193.5 5.8 Z M 181.2 11.4 C 181.3 11.5 181.3 11.5 181.2 11.4 C 181.2 11.4 181.2 11.4 181.2 11.4 Z M 179.7 10.2 C 179.8 10.2 179.8 10.2 179.7 10.2 C 179.7 10.2 179.7 10.2 179.7 10.2 Z M 182.3 7.6 C 182.3 7.6 182.3 7.6 182.3 7.6 C 182.3 7.6 182.3 7.6 182.3 7.6 Z M 178.5 9.1 C 178.6 9.1 178.6 9.1 178.5 9.1 C 178.5 9.1 178.5 9.1 178.5 9.1 Z M 202.4 5.2 C 202.4 5.2 202.4 5.2 202.4 5.2 C 202.4 5.2 202.4 5.2 202.4 5.2 Z M 203.0 8.1 C 203.1 8.0 203.1 8.0 203.0 8.1 C 203.0 8.1 203.0 8.1 203.0 8.1 Z M 181.3 13.6 C 180.9 14.3 180.0 13.0 181.3 13.6 M 186.0 12.3 C 186.0 12.2 186.0 12.2 186.0 12.3 C 186.0 12.3 186.0 12.3 186.0 12.3 Z M 173.3 15.3 C 172.4 14.3 175.7 15.4 173.3 15.3 C 173.3 15.3 173.3 15.3 173.3 15.3 Z M 174.7 10.0 C 174.6 10.0 174.6 10.0 174.7 10.0 C 174.7 10.0 174.7 10.0 174.7 10.0 Z M 173.5 10.7 C 173.4 10.6 173.4 10.6 173.5 10.7 C 173.5 10.7 173.5 10.7 173.5 10.7 Z M 167.5 15.5 C 167.3 15.5 167.3 15.5 167.5 15.5 M 186.8 13.2 C 186.0 12.8 186.2 12.9 186.8 13.2 M 171.7 15.7 C 171.8 15.6 171.8 15.6 171.7 15.7 C 171.7 15.7 171.7 15.7 171.7 15.7 Z M 166.2 16.6 C 166.2 16.5 166.2 16.5 166.2 16.6 C 166.2 16.6 166.2 16.6 166.2 16.6 Z M 190.1 11.8 C 189.7 10.4 190.5 10.6 190.1 11.8 M 199.8 9.8 C 199.7 9.7 199.7 9.7 199.8 9.8 C 199.8 9.8 199.8 9.8 199.8 9.8 Z M 159.1 19.7 C 162.1 20.4 161.4 18.3 161.4 18.2 C 162.0 21.2 163.3 16.5 162.7 16.0 C 162.7 15.6 159.2 11.2 158.3 14.7 C 158.0 15.3 157.4 14.5 157.1 14.5 C 154.0 15.6 159.7 15.4 155.9 16.6 C 155.1 16.4 155.1 13.8 153.5 16.1 C 153.3 15.9 150.5 15.9 151.8 16.6 C 150.3 15.9 149.9 17.5 148.9 18.1 C 147.7 17.8 149.1 16.1 146.0 18.7 C 143.8 17.3 144.5 20.8 142.4 19.2 C 141.5 19.5 141.4 23.5 142.7 20.8 C 142.5 21.1 144.4 22.2 141.4 22.7 C 141.7 22.1 141.8 18.0 138.1 21.4 C 137.4 21.6 136.1 23.1 135.6 22.9 C 137.6 21.6 131.9 22.6 132.9 23.4 C 129.1 24.1 131.8 24.9 128.8 24.8 C 126.8 25.6 130.2 26.0 127.3 26.3 C 125.5 27.3 126.4 25.8 126.6 25.8 C 124.9 26.4 124.6 27.3 124.0 27.5 C 123.6 27.5 122.5 27.1 122.5 28.2 C 121.5 30.5 123.8 31.3 123.8 33.2 C 125.4 33.4 123.8 31.8 125.2 32.5 C 125.3 31.3 125.3 32.6 128.6 30.8 C 128.4 30.6 127.2 30.3 128.0 29.9 C 129.4 29.4 129.6 32.5 131.0 29.6 C 128.1 30.2 134.2 27.2 131.6 27.7 C 134.4 26.1 132.5 27.5 135.0 27.2 C 134.1 25.5 135.9 29.1 136.1 27.3 C 136.7 28.0 140.0 26.3 137.0 26.2 C 140.4 24.2 138.6 26.2 140.2 26.6 C 141.9 26.1 139.2 23.6 141.1 25.5 C 143.7 25.6 140.8 24.3 143.0 25.5 C 141.7 24.2 144.6 24.9 143.4 23.4 C 147.0 21.9 143.6 25.4 145.8 23.2 C 144.9 23.5 146.1 25.7 147.1 23.6 C 145.5 21.1 150.1 25.2 147.7 22.1 C 152.5 19.2 149.0 23.2 151.9 22.3 C 152.7 22.0 150.7 21.4 151.4 21.1 C 155.3 20.4 152.5 22.3 153.9 19.9 C 157.4 18.3 155.4 21.1 157.3 20.7 C 157.2 19.8 158.2 17.8 159.1 19.7 M 155.6 19.8 C 155.0 20.6 154.9 19.4 155.6 19.8 M 163.3 18.4 C 162.7 19.2 162.7 17.9 163.3 18.4 M 152.7 21.3 C 151.8 22.3 152.0 20.5 152.7 21.3 M 132.9 27.8 C 134.2 27.3 132.4 28.6 132.9 27.8 M 160.4 19.4 C 159.5 20.4 159.8 18.5 160.4 19.4 M 161.3 17.6 C 161.2 17.6 161.2 17.6 161.3 17.6 M 131.6 30.1 C 131.5 30.1 131.5 30.1 131.6 30.1 M 136.7 27.9 C 135.6 28.3 137.2 27.3 136.7 27.9 M 134.5 22.1 C 133.4 22.5 135.0 21.4 134.5 22.1 M 128.9 31.4 C 128.0 32.3 128.3 30.9 128.9 31.4 M 125.5 31.4 C 124.8 32.4 124.6 31.1 125.5 31.4 M 155.6 17.5 C 155.6 17.4 155.6 17.4 155.6 17.5 C 155.6 17.5 155.6 17.5 155.6 17.5 Z M 145.2 19.4 C 146.6 19.5 143.5 19.2 145.2 19.4 M 148.4 22.6 C 147.2 21.7 149.9 22.2 148.4 22.6 C 148.4 22.6 148.4 22.6 148.4 22.6 Z M 149.9 21.5 C 149.9 21.4 149.9 21.4 149.9 21.5 C 149.9 21.5 149.9 21.5 149.9 21.5 Z M 144.4 23.3 C 144.4 23.3 144.4 23.3 144.4 23.3 C 144.4 23.3 144.4 23.3 144.4 23.3 Z M 145.5 22.8 C 145.8 22.4 146.2 22.8 145.5 22.8 C 145.5 22.8 145.5 22.8 145.5 22.8 Z M 136.1 22.1 C 136.5 21.6 136.8 22.1 136.1 22.1 C 136.1 22.1 136.1 22.1 136.1 22.1 Z M 147.1 21.8 C 146.8 20.5 148.1 22.3 147.1 21.8 C 147.1 21.8 147.1 21.8 147.1 21.8 Z M 140.1 21.1 C 139.8 21.6 138.7 20.4 140.1 21.1 M 130.4 30.3 C 130.1 30.8 129.0 29.6 130.4 30.3 M 141.8 26.0 C 141.4 26.5 140.4 25.3 141.8 26.0 M 155.1 20.5 C 154.9 20.4 154.9 20.4 155.1 20.5 M 146.8 17.5 C 146.2 18.2 146.2 17.1 146.8 17.5 M 158.2 14.2 C 157.5 14.9 157.6 13.8 158.2 14.2 M 129.7 24.2 C 129.8 24.5 128.4 24.6 129.7 24.2 M 139.7 24.6 C 138.7 24.9 137.4 24.7 139.5 23.9 C 139.7 24.1 139.2 24.6 139.7 24.6 C 139.7 24.6 139.7 24.6 139.7 24.6 Z M 135.0 23.4 C 134.9 23.3 134.9 23.3 135.0 23.4 M 138.4 26.4 C 138.2 26.4 138.2 26.4 138.4 26.4 M 132.6 28.7 C 132.4 28.6 132.4 28.6 132.6 28.7 M 132.0 29.4 C 132.0 29.3 132.0 29.3 132.0 29.4 C 132.0 29.4 132.0 29.4 132.0 29.4 Z M 126.0 32.6 C 126.0 32.6 126.0 32.6 126.0 32.6 C 126.0 32.6 126.0 32.6 126.0 32.6 Z M 134.4 27.8 C 134.3 27.7 134.3 27.7 134.4 27.8 C 134.4 27.8 134.4 27.8 134.4 27.8 Z M 127.2 25.6 C 127.2 25.5 127.2 25.5 127.2 25.6 C 127.2 25.6 127.2 25.6 127.2 25.6 Z M 128.2 26.0 C 128.1 26.0 128.1 26.0 128.2 26.0 C 128.2 26.0 128.2 26.0 128.2 26.0 Z M 158.6 19.8 C 158.0 20.9 157.5 17.8 158.6 19.8 M 125.4 27.3 C 124.2 26.8 126.8 26.4 125.4 27.3 C 125.4 27.3 125.4 27.3 125.4 27.3 Z M 134.6 26.5 C 134.5 26.4 134.5 26.4 134.6 26.5 M 131.6 29.4 C 131.5 29.3 131.5 29.3 131.6 29.4 M 148.8 23.7 C 148.7 23.6 148.7 23.6 148.8 23.7 M 127.1 31.1 C 124.4 32.1 127.6 28.9 127.1 31.1 M 149.7 22.1 C 149.8 22.2 149.8 22.2 149.7 22.1 M 142.7 22.1 C 140.8 22.9 143.1 21.2 142.7 22.1 M 138.6 25.4 C 138.6 25.3 138.6 25.3 138.6 25.4 C 138.6 25.4 138.6 25.4 138.6 25.4 Z M 141.3 24.3 C 142.5 23.7 141.7 24.5 141.3 24.3 C 141.3 24.3 141.3 24.3 141.3 24.3 Z M 156.9 19.1 C 155.1 19.5 158.6 18.1 156.9 19.1 C 156.9 19.1 156.9 19.1 156.9 19.1 Z M 127.1 27.9 C 127.2 27.8 127.2 27.8 127.1 27.9 C 127.1 27.9 127.1 27.9 127.1 27.9 Z M 135.0 28.5 C 135.7 27.8 135.5 28.7 135.0 28.5 C 135.0 28.5 135.0 28.5 135.0 28.5 Z M 125.1 33.0 C 125.7 32.4 125.6 33.2 125.1 33.0 C 125.1 33.0 125.1 33.0 125.1 33.0 Z M 159.1 18.7 C 152.0 18.6 168.0 16.5 159.1 18.7 C 159.1 18.7 159.1 18.7 159.1 18.7 Z M 140.5 25.6 C 140.5 25.5 140.5 25.5 140.5 25.6 C 140.5 25.6 140.5 25.6 140.5 25.6 Z M 152.5 22.2 C 152.6 22.1 152.6 22.1 152.5 22.2 C 152.5 22.2 152.5 22.2 152.5 22.2 Z M 154.2 20.4 C 154.2 20.3 154.2 20.3 154.2 20.4 C 154.2 20.4 154.2 20.4 154.2 20.4 Z M 152.1 15.8 C 152.1 15.8 152.1 15.8 152.1 15.8 C 152.1 15.8 152.1 15.8 152.1 15.8 Z M 152.1 18.2 C 152.1 18.0 152.1 18.0 152.1 18.2 C 152.1 18.2 152.1 18.2 152.1 18.2 Z M 156.1 16.1 C 156.1 16.0 156.1 16.0 156.1 16.1 C 156.1 16.1 156.1 16.1 156.1 16.1 Z M 155.8 15.4 C 155.8 15.4 155.8 15.4 155.8 15.4 C 155.8 15.4 155.8 15.4 155.8 15.4 Z M 131.0 28.1 C 131.1 28.0 131.1 28.0 131.0 28.1 C 131.0 28.1 131.0 28.1 131.0 28.1 Z M 132.4 25.3 C 131.2 26.6 132.4 24.1 132.4 25.3 C 132.4 25.3 132.4 25.3 132.4 25.3 Z M 145.9 21.1 C 144.6 21.8 146.5 20.2 145.9 21.1 C 145.9 21.1 145.9 21.1 145.9 21.1 Z M 143.5 19.1 C 143.4 19.1 143.4 19.1 143.5 19.1 C 143.5 19.1 143.5 19.1 143.5 19.1 Z M 154.6 21.5 C 154.6 21.4 154.6 21.4 154.6 21.5 C 154.6 21.5 154.6 21.5 154.6 21.5 Z M 156.8 19.9 C 156.6 18.9 157.8 20.1 156.8 19.9 M 144.4 24.8 C 144.3 24.7 144.3 24.7 144.4 24.8 C 144.4 24.8 144.4 24.8 144.4 24.8 Z M 135.9 26.4 C 135.9 26.3 135.9 26.3 135.9 26.4 C 135.9 26.4 135.9 26.4 135.9 26.4 Z M 128.4 30.3 C 128.4 30.2 128.4 30.2 128.4 30.3 C 128.4 30.3 128.4 30.3 128.4 30.3 Z M 139.4 26.6 C 139.4 26.4 139.4 26.4 139.4 26.6 C 139.4 26.6 139.4 26.6 139.4 26.6 Z M 142.8 24.2 C 142.8 24.1 142.8 24.1 142.8 24.2 C 142.8 24.2 142.8 24.2 142.8 24.2 Z M 126.1 29.7 C 126.2 29.6 126.2 29.6 126.1 29.7 C 126.1 29.7 126.1 29.7 126.1 29.7 Z M 138.6 27.1 C 138.6 27.0 138.6 27.0 138.6 27.1 C 138.6 27.1 138.6 27.1 138.6 27.1 Z M 135.1 24.9 C 135.1 24.8 135.1 24.8 135.1 24.9 C 135.1 24.9 135.1 24.9 135.1 24.9 Z M 156.9 21.4 C 156.9 21.4 156.9 21.4 156.9 21.4 C 156.9 21.4 156.9 21.4 156.9 21.4 Z M 126.7 31.0 C 126.7 31.0 126.7 31.0 126.7 31.0 C 126.7 31.0 126.7 31.0 126.7 31.0 Z M 126.6 32.1 C 126.6 32.0 126.6 32.0 126.6 32.1 C 126.6 32.1 126.6 32.1 126.6 32.1 Z M 130.0 25.1 C 133.0 24.5 127.6 26.4 130.1 26.6 C 126.2 28.5 129.4 25.3 130.0 25.1 C 130.0 25.1 130.0 25.1 130.0 25.1 Z M 123.2 34.1 C 124.0 32.1 123.5 30.9 122.2 29.9 C 121.1 29.6 122.4 32.1 121.3 30.0 C 122.8 28.8 119.0 27.1 120.4 29.9 C 118.3 31.4 119.1 28.3 118.3 30.1 C 116.1 31.5 116.9 30.1 115.1 31.2 C 114.8 33.2 113.7 31.0 114.0 32.7 C 114.1 30.6 112.2 34.1 111.8 33.5 C 113.0 31.6 105.5 36.8 110.1 34.9 C 108.7 36.6 108.3 35.2 107.6 35.3 C 107.4 36.6 104.4 36.2 103.8 37.7 C 104.1 37.8 104.7 37.6 105.0 37.8 C 105.6 38.2 103.7 38.3 103.9 38.3 C 103.4 39.0 101.1 41.6 103.2 38.2 C 102.9 37.4 101.0 40.0 100.7 39.3 C 98.1 40.8 100.9 41.1 99.1 40.7 C 97.3 41.8 95.9 42.6 96.1 42.8 C 94.9 43.3 94.1 42.7 93.6 44.1 C 90.4 44.0 94.0 48.1 91.2 45.6 C 91.0 46.7 89.1 45.2 90.5 47.0 C 90.7 45.6 85.8 48.0 88.6 48.1 C 88.4 48.9 84.0 48.5 85.7 50.1 C 85.6 52.1 86.8 53.3 89.8 53.1 C 88.8 52.2 92.8 52.7 90.0 52.0 C 87.7 52.6 92.9 49.0 92.3 50.4 C 93.4 52.8 93.9 47.3 96.1 48.2 C 94.6 47.9 98.6 44.7 98.4 47.2 C 99.3 46.8 99.0 45.9 100.5 46.3 C 97.8 47.8 100.4 43.9 100.9 45.1 C 100.8 46.0 105.1 44.1 104.1 43.4 C 101.3 41.9 105.4 43.3 105.5 42.0 C 107.4 40.2 106.3 44.2 107.0 41.5 C 107.6 41.6 110.5 39.9 108.9 41.4 C 108.1 41.6 109.2 37.9 110.7 39.7 C 108.1 42.6 114.6 38.4 113.2 38.3 C 107.7 39.8 117.7 34.3 114.5 37.5 C 117.2 37.4 114.0 38.2 116.5 36.3 C 115.8 35.9 117.6 34.2 117.8 35.7 C 119.2 37.5 117.2 32.7 120.2 34.6 C 121.0 35.6 123.1 32.1 122.5 34.0 C 122.5 34.2 123.1 34.2 123.2 34.1 M 122.1 34.4 C 122.2 33.8 123.0 34.6 122.1 34.4 M 122.3 33.7 C 122.3 33.8 122.3 33.8 122.3 33.7 C 122.3 33.7 122.3 33.7 122.3 33.7 Z M 116.9 36.1 C 116.9 36.1 116.9 36.1 116.9 36.1 C 116.9 36.1 116.9 36.1 116.9 36.1 Z M 110.1 33.4 C 110.2 33.4 110.2 33.4 110.1 33.4 C 110.1 33.4 110.1 33.4 110.1 33.4 Z M 113.3 37.8 C 113.4 37.8 113.4 37.8 113.3 37.8 C 113.3 37.8 113.3 37.8 113.3 37.8 Z M 118.6 34.8 C 118.6 34.8 118.6 34.8 118.6 34.8 C 118.6 34.8 118.6 34.8 118.6 34.8 Z M 114.0 38.3 C 113.4 37.7 115.5 38.2 114.0 38.5 C 114.0 38.4 114.2 38.3 114.0 38.3 M 109.7 41.1 C 109.6 41.0 109.6 41.0 109.7 41.1 M 96.6 41.3 C 96.5 41.2 96.5 41.2 96.6 41.3 M 99.3 47.3 C 99.1 47.3 99.1 47.3 99.3 47.3 M 104.9 42.9 C 103.6 43.7 104.3 42.7 104.9 42.9 M 95.5 49.1 C 97.5 48.5 94.0 50.7 95.5 49.1 M 94.2 50.6 C 94.0 50.6 94.0 50.6 94.2 50.6 M 101.5 45.6 C 101.5 45.5 101.5 45.5 101.5 45.6 C 101.5 45.6 101.5 45.6 101.5 45.6 Z M 105.6 42.8 C 107.6 42.2 104.2 44.5 105.6 42.8 M 116.6 37.1 C 115.8 38.0 116.1 36.1 116.6 37.1 M 118.5 35.6 C 118.5 35.6 118.5 35.6 118.5 35.6 C 118.5 35.6 118.5 35.6 118.5 35.6 Z M 98.2 47.5 C 98.3 47.4 98.3 47.4 98.2 47.5 C 98.2 47.5 98.2 47.5 98.2 47.5 Z M 96.4 48.8 C 96.4 48.8 96.4 48.8 96.4 48.8 C 96.4 48.8 96.4 48.8 96.4 48.8 Z M 89.8 45.8 C 89.9 45.8 89.9 45.8 89.8 45.8 C 89.8 45.8 89.8 45.8 89.8 45.8 Z M 115.8 34.2 C 117.3 33.8 115.3 36.6 114.9 35.2 C 114.4 34.7 115.7 34.4 115.8 34.2 M 106.0 40.5 C 104.6 38.9 108.7 42.2 106.0 40.5 M 93.2 49.6 C 90.6 48.4 95.8 50.0 93.2 49.6 M 90.9 51.7 C 89.8 51.8 95.5 48.2 92.0 51.4 C 91.8 52.0 91.3 51.8 90.9 51.7 M 109.2 40.2 C 108.2 39.4 111.5 39.5 109.2 40.2 M 99.2 42.1 C 99.0 43.1 97.6 44.7 97.7 43.1 C 96.9 41.8 99.7 41.0 99.2 42.1 M 121.2 33.5 C 120.8 35.7 120.5 32.1 121.2 33.5 M 115.7 36.1 C 115.8 36.2 115.8 36.2 115.7 36.1 C 115.7 36.1 115.7 36.1 115.7 36.1 Z M 113.8 37.4 C 113.6 37.3 113.6 37.3 113.8 37.4 M 121.0 35.4 C 120.8 35.3 120.8 35.3 121.0 35.4 M 100.3 43.7 C 100.1 43.6 100.1 43.6 100.3 43.7 M 105.0 42.2 C 102.1 41.8 105.9 41.3 105.0 42.2 M 108.2 36.4 C 107.2 36.0 109.5 35.6 108.2 36.4 M 102.1 44.7 C 99.9 44.1 103.2 42.2 102.1 44.7 M 106.1 41.8 C 106.0 41.9 106.0 41.9 106.1 41.8 C 106.1 41.8 106.1 41.8 106.1 41.8 Z M 98.6 42.2 C 98.6 42.2 98.6 42.2 98.6 42.2 C 98.6 42.2 98.6 42.2 98.6 42.2 Z M 98.0 42.7 C 98.1 42.6 98.1 42.6 98.0 42.7 C 98.0 42.7 98.0 42.7 98.0 42.7 Z M 100.5 46.0 C 100.6 45.9 100.6 45.9 100.5 46.0 C 100.5 46.0 100.5 46.0 100.5 46.0 Z M 116.5 31.3 C 114.9 32.0 117.5 30.5 116.5 31.3 C 116.5 31.3 116.5 31.3 116.5 31.3 Z M 112.4 39.2 C 109.4 39.3 113.4 37.2 112.4 39.2 C 112.4 39.2 112.4 39.2 112.4 39.2 Z M 108.6 38.7 C 108.6 38.6 108.6 38.6 108.6 38.7 C 108.6 38.7 108.6 38.7 108.6 38.7 Z M 103.6 45.1 C 103.5 45.0 103.5 45.0 103.6 45.1 C 103.6 45.1 103.6 45.1 103.6 45.1 Z M 115.6 31.5 C 115.6 31.4 115.6 31.4 115.6 31.5 C 115.6 31.5 115.6 31.5 115.6 31.5 Z M 96.1 47.6 C 96.1 47.6 96.1 47.6 96.1 47.6 C 96.1 47.6 96.1 47.6 96.1 47.6 Z M 102.3 39.7 C 102.1 40.5 101.9 39.3 102.3 39.7 C 102.3 39.7 102.3 39.7 102.3 39.7 Z M 100.2 40.9 C 100.1 41.0 100.1 41.0 100.2 40.9 C 100.2 40.9 100.2 40.9 100.2 40.9 Z M 93.8 51.1 C 93.7 51.1 93.7 51.1 93.8 51.1 C 93.8 51.1 93.8 51.1 93.8 51.1 Z M 93.9 42.9 C 93.9 42.9 93.9 42.9 93.9 42.9 C 93.9 42.9 93.9 42.9 93.9 42.9 Z M 93.3 45.7 C 93.3 45.7 93.3 45.7 93.3 45.7 C 93.3 45.7 93.3 45.7 93.3 45.7 Z M 100.7 45.4 C 98.8 46.9 100.8 44.4 100.7 45.4 C 100.7 45.4 100.7 45.4 100.7 45.4 Z M 88.5 49.6 C 88.4 49.5 88.4 49.5 88.5 49.6 C 88.5 49.6 88.5 49.6 88.5 49.6 Z M 88.8 52.2 C 88.7 52.2 88.7 52.2 88.8 52.2 C 88.8 52.2 88.8 52.2 88.8 52.2 Z M 89.0 53.6 C 88.9 53.5 88.9 53.5 89.0 53.6 C 89.0 53.6 89.0 53.6 89.0 53.6 Z M 112.7 35.2 C 112.7 35.2 112.7 35.2 112.7 35.2 C 112.7 35.2 112.7 35.2 112.7 35.2 Z M 115.3 38.1 C 115.3 38.1 115.3 38.1 115.3 38.1 C 115.3 38.1 115.3 38.1 115.3 38.1 Z M 112.5 39.8 C 112.5 39.8 112.5 39.8 112.5 39.8 C 112.5 39.8 112.5 39.8 112.5 39.8 Z M 112.1 32.8 C 112.2 32.9 112.2 32.9 112.1 32.8 C 112.1 32.8 112.1 32.8 112.1 32.8 Z M 102.8 41.8 C 102.9 41.8 102.9 41.8 102.8 41.8 C 102.8 41.8 102.8 41.8 102.8 41.8 Z M 101.0 41.1 C 101.1 41.1 101.1 41.1 101.0 41.1 C 101.0 41.1 101.0 41.1 101.0 41.1 Z M 102.4 37.8 C 102.5 37.8 102.5 37.8 102.4 37.8 C 102.4 37.8 102.4 37.8 102.4 37.8 Z M 99.5 40.4 C 99.5 40.4 99.5 40.4 99.5 40.4 C 99.5 40.4 99.5 40.4 99.5 40.4 Z M 119.9 29.7 C 119.9 29.6 119.9 29.6 119.9 29.7 C 119.9 29.7 119.9 29.7 119.9 29.7 Z M 121.5 32.2 C 121.5 32.1 121.5 32.1 121.5 32.2 C 121.5 32.2 121.5 32.2 121.5 32.2 Z M 103.5 43.8 C 103.4 44.6 102.2 43.7 103.5 43.8 M 107.4 41.1 C 107.4 41.1 107.4 41.1 107.4 41.1 C 107.4 41.1 107.4 41.1 107.4 41.1 Z M 96.8 47.9 C 95.6 47.2 98.9 47.2 96.8 47.9 C 96.8 47.9 96.8 47.9 96.8 47.9 Z M 96.3 42.4 C 96.2 42.4 96.2 42.4 96.3 42.4 C 96.3 42.4 96.3 42.4 96.3 42.4 Z M 95.5 43.5 C 95.3 43.4 95.3 43.4 95.5 43.5 C 95.5 43.5 95.5 43.5 95.5 43.5 Z M 91.4 49.9 C 91.2 49.9 91.2 49.9 91.4 49.9 M 108.5 41.7 C 107.6 41.6 107.8 41.7 108.5 41.7 M 95.4 48.7 C 95.4 48.6 95.4 48.6 95.4 48.7 C 95.4 48.7 95.4 48.7 95.4 48.7 Z M 90.5 51.3 C 90.6 51.2 90.6 51.2 90.5 51.3 C 90.5 51.3 90.5 51.3 90.5 51.3 Z M 111.0 39.4 C 110.2 38.2 110.9 38.2 111.0 39.4 M 119.0 34.7 C 119.0 34.6 119.0 34.6 119.0 34.7 C 119.0 34.7 119.0 34.7 119.0 34.7 Z M 85.0 56.5 C 87.9 56.2 86.7 54.4 86.6 54.4 C 88.1 57.0 87.8 52.1 87.1 51.9 C 86.9 51.5 82.3 48.5 82.6 52.1 C 82.4 52.7 81.7 52.1 81.3 52.3 C 78.8 54.3 84.1 52.3 80.9 54.6 C 80.1 54.7 79.3 52.2 78.4 54.9 C 78.2 54.8 75.6 55.7 77.0 56.0 C 75.4 55.8 75.5 57.4 74.8 58.3 C 73.5 58.5 74.4 56.4 72.2 59.8 C 69.7 59.2 71.5 62.4 68.9 61.6 C 68.1 62.1 69.4 65.9 69.7 62.9 C 69.6 63.3 71.8 63.7 69.1 65.2 C 69.2 64.5 68.0 60.5 65.5 65.0 C 64.9 65.4 64.1 67.3 63.6 67.3 C 65.1 65.4 60.0 68.3 61.1 68.7 C 57.8 70.7 60.6 70.5 57.7 71.4 C 55.9 72.9 59.3 72.2 56.6 73.4 C 55.2 74.9 55.6 73.3 55.8 73.2 C 54.3 74.3 54.3 75.3 53.8 75.7 C 53.4 75.8 52.2 75.8 52.6 76.8 C 52.3 79.4 54.8 79.4 55.4 81.2 C 57.0 80.8 54.9 79.8 56.5 80.1 C 56.3 78.8 56.6 80.1 59.3 77.3 C 59.0 77.2 57.8 77.3 58.4 76.5 C 59.6 75.6 60.8 78.5 61.2 75.3 C 58.7 76.8 63.6 71.9 61.2 73.2 C 63.5 70.7 62.1 72.8 64.4 71.7 C 63.0 70.3 65.9 73.1 65.5 71.3 C 66.2 71.8 68.9 69.0 66.0 69.9 C 68.7 67.0 67.5 69.4 69.2 69.3 C 70.7 68.2 67.3 66.8 69.7 67.9 C 72.2 67.2 69.0 66.9 71.5 67.3 C 69.9 66.5 72.9 66.2 71.2 65.2 C 74.2 62.5 72.0 67.0 73.4 64.2 C 72.7 64.7 74.5 66.4 74.9 64.1 C 72.5 62.3 78.2 64.7 74.9 62.5 C 78.6 58.2 76.6 63.1 79.0 61.3 C 79.6 60.8 77.6 60.8 78.1 60.3 C 81.6 58.4 79.5 61.1 80.1 58.4 C 82.9 55.7 81.9 59.0 83.5 58.0 C 83.1 57.2 83.5 55.0 85.0 56.5 M 81.6 57.8 C 81.3 58.7 80.9 57.6 81.6 57.8 M 88.5 53.9 C 88.1 54.9 87.7 53.7 88.5 53.9 M 79.4 60.1 C 78.9 61.3 78.5 59.6 79.4 60.1 M 62.5 72.9 C 63.6 72.0 62.3 73.8 62.5 72.9 M 86.0 55.8 C 85.5 57.1 85.2 55.2 86.0 55.8 M 86.3 53.8 C 86.2 53.8 86.2 53.8 86.3 53.8 M 62.0 75.5 C 61.9 75.5 61.9 75.5 62.0 75.5 M 66.3 71.7 C 65.3 72.5 66.5 71.0 66.3 71.7 M 62.3 66.9 C 61.3 67.7 62.6 66.1 62.3 66.9 M 59.7 77.7 C 59.2 78.9 59.0 77.4 59.7 77.7 M 56.5 78.9 C 56.1 80.1 55.5 78.9 56.5 78.9 M 80.9 55.6 C 80.9 55.5 80.9 55.5 80.9 55.6 C 80.9 55.6 80.9 55.6 80.9 55.6 Z M 71.7 60.7 C 73.0 60.4 70.0 61.1 71.7 60.7 M 75.7 62.7 C 74.3 62.3 77.0 61.8 75.7 62.7 C 75.7 62.7 75.7 62.7 75.7 62.7 Z M 76.8 61.2 C 76.8 61.1 76.8 61.1 76.8 61.2 C 76.8 61.2 76.8 61.2 76.8 61.2 Z M 72.2 64.8 C 72.2 64.7 72.2 64.7 72.2 64.8 C 72.2 64.8 72.2 64.8 72.2 64.8 Z M 73.0 63.9 C 73.2 63.4 73.7 63.7 73.0 63.9 C 73.0 63.9 73.0 63.9 73.0 63.9 Z M 63.8 66.4 C 64.0 65.8 64.5 66.1 63.8 66.4 C 63.8 66.4 63.8 66.4 63.8 66.4 Z M 74.2 62.4 C 73.5 61.3 75.4 62.6 74.2 62.4 C 74.2 62.4 74.2 62.4 74.2 62.4 Z M 67.4 64.1 C 67.2 64.7 65.8 63.9 67.4 64.1 M 61.0 76.1 C 60.8 76.8 59.3 76.0 61.0 76.1 M 70.5 68.2 C 70.4 68.8 68.9 68.0 70.5 68.2 M 81.4 58.6 C 81.2 58.6 81.2 58.6 81.4 58.6 M 72.6 58.4 C 72.2 59.3 71.9 58.3 72.6 58.4 M 82.3 51.7 C 81.9 52.5 81.6 51.4 82.3 51.7 M 58.3 70.6 C 58.6 70.8 57.2 71.4 58.3 70.6 M 68.1 67.6 C 67.2 68.2 65.9 68.4 67.7 67.0 C 68.0 67.1 67.6 67.7 68.1 67.6 C 68.1 67.6 68.1 67.6 68.1 67.6 Z M 63.2 68.0 C 63.0 68.0 63.0 68.0 63.2 68.0 M 67.4 69.7 C 67.2 69.7 67.2 69.7 67.4 69.7 M 62.5 73.9 C 62.3 73.8 62.3 73.8 62.5 73.9 M 62.2 74.7 C 62.1 74.6 62.1 74.6 62.2 74.7 C 62.2 74.7 62.2 74.7 62.2 74.7 Z M 57.4 79.9 C 57.3 79.8 57.3 79.8 57.4 79.9 C 57.4 79.9 57.4 79.9 57.4 79.9 Z M 63.9 72.4 C 63.9 72.3 63.9 72.3 63.9 72.4 C 63.9 72.4 63.9 72.4 63.9 72.4 Z M 56.3 72.7 C 56.3 72.7 56.3 72.7 56.3 72.7 C 56.3 72.7 56.3 72.7 56.3 72.7 Z M 57.4 72.8 C 57.4 72.8 57.4 72.8 57.4 72.8 C 57.4 72.8 57.4 72.8 57.4 72.8 Z M 84.5 56.8 C 84.3 58.1 82.8 55.3 84.5 56.8 M 55.1 75.0 C 53.8 75.0 56.2 73.7 55.1 75.0 C 55.1 75.0 55.1 75.0 55.1 75.0 Z M 63.8 71.1 C 63.6 71.0 63.6 71.0 63.8 71.1 M 61.8 74.9 C 61.6 74.8 61.6 74.8 61.8 74.9 M 76.5 63.6 C 76.3 63.6 76.3 63.6 76.5 63.6 M 58.0 78.1 C 55.6 79.9 57.7 75.8 58.0 78.1 M 76.8 61.8 C 76.9 61.9 76.9 61.9 76.8 61.8 M 70.1 64.2 C 68.6 65.5 70.2 63.2 70.1 64.2 M 67.3 68.7 C 67.2 68.6 67.2 68.6 67.3 68.7 C 67.3 68.7 67.3 68.7 67.3 68.7 Z M 69.5 66.8 C 70.5 65.7 70.0 66.8 69.5 66.8 C 69.5 66.8 69.5 66.8 69.5 66.8 Z M 82.7 56.6 C 81.1 57.6 84.0 55.2 82.7 56.6 C 82.7 56.6 82.7 56.6 82.7 56.6 Z M 57.0 75.0 C 57.0 74.8 57.0 74.8 57.0 75.0 C 57.0 75.0 57.0 75.0 57.0 75.0 Z M 64.8 72.8 C 65.2 72.0 65.4 72.8 64.8 72.8 C 64.8 72.8 64.8 72.8 64.8 72.8 Z M 56.6 80.6 C 57.0 79.8 57.2 80.6 56.6 80.6 C 56.6 80.6 56.6 80.6 56.6 80.6 Z M 84.6 55.5 C 77.9 57.8 92.3 50.6 84.6 55.5 C 84.6 55.5 84.6 55.5 84.6 55.5 Z M 69.2 68.2 C 69.1 68.1 69.1 68.1 69.2 68.2 C 69.2 68.2 69.2 68.2 69.2 68.2 Z M 79.5 61.0 C 79.5 60.9 79.5 60.9 79.5 61.0 C 79.5 61.0 79.5 61.0 79.5 61.0 Z M 80.5 58.7 C 80.5 58.7 80.5 58.7 80.5 58.7 C 80.5 58.7 80.5 58.7 80.5 58.7 Z M 77.0 55.1 C 77.0 55.1 77.0 55.1 77.0 55.1 C 77.0 55.1 77.0 55.1 77.0 55.1 Z M 77.8 57.4 C 77.8 57.2 77.8 57.2 77.8 57.4 C 77.8 57.4 77.8 57.4 77.8 57.4 Z M 80.9 54.0 C 80.9 53.9 80.9 53.9 80.9 54.0 C 80.9 54.0 80.9 54.0 80.9 54.0 Z M 80.4 53.6 C 80.4 53.5 80.4 53.5 80.4 53.6 C 80.4 53.6 80.4 53.6 80.4 53.6 Z M 60.8 73.8 C 60.8 73.7 60.8 73.7 60.8 73.8 C 60.8 73.8 60.8 73.8 60.8 73.8 Z M 61.2 70.7 C 60.5 72.3 60.9 69.5 61.2 70.7 C 61.2 70.7 61.2 70.7 61.2 70.7 Z M 72.9 62.1 C 71.9 63.3 73.2 61.1 72.9 62.1 C 72.9 62.1 72.9 62.1 72.9 62.1 Z M 69.9 61.1 C 69.9 61.1 69.9 61.1 69.9 61.1 C 69.9 61.1 69.9 61.1 69.9 61.1 Z M 81.2 59.7 C 81.2 59.6 81.2 59.6 81.2 59.7 C 81.2 59.7 81.2 59.7 81.2 59.7 Z M 82.9 57.4 C 82.3 56.5 83.8 57.4 82.9 57.4 M 72.6 66.2 C 72.5 66.1 72.5 66.1 72.6 66.2 C 72.6 66.2 72.6 66.2 72.6 66.2 Z M 65.0 70.5 C 64.9 70.5 64.9 70.5 65.0 70.5 C 65.0 70.5 65.0 70.5 65.0 70.5 Z M 59.0 76.8 C 58.9 76.7 58.9 76.7 59.0 76.8 C 59.0 76.8 59.0 76.8 59.0 76.8 Z M 68.4 69.5 C 68.4 69.4 68.4 69.4 68.4 69.5 C 68.4 69.5 68.4 69.5 68.4 69.5 Z M 70.9 66.2 C 70.9 66.0 70.9 66.0 70.9 66.2 C 70.9 66.2 70.9 66.2 70.9 66.2 Z M 56.6 77.1 C 56.6 77.0 56.6 77.0 56.6 77.1 C 56.6 77.1 56.6 77.1 56.6 77.1 Z M 67.8 70.3 C 67.8 70.2 67.8 70.2 67.8 70.3 C 67.8 70.3 67.8 70.3 67.8 70.3 Z M 63.7 69.4 C 63.7 69.3 63.7 69.3 63.7 69.4 C 63.7 69.4 63.7 69.4 63.7 69.4 Z M 83.5 58.9 C 83.5 58.8 83.5 58.8 83.5 58.9 C 83.5 58.9 83.5 58.9 83.5 58.9 Z M 57.5 78.1 C 57.5 78.1 57.5 78.1 57.5 78.1 C 57.5 78.1 57.5 78.1 57.5 78.1 Z M 57.7 79.2 C 57.7 79.1 57.7 79.1 57.7 79.2 C 57.7 79.2 57.7 79.2 57.7 79.2 Z M 58.9 71.3 C 61.6 69.7 57.0 73.4 59.4 72.7 C 56.3 75.9 58.4 71.7 58.9 71.3 C 58.9 71.3 58.9 71.3 58.9 71.3 Z M 55.0 82.3 C 55.3 80.1 54.3 79.1 52.8 78.6 C 51.7 78.7 53.7 80.7 52.0 79.0 C 53.1 77.3 48.8 77.0 51.0 79.2 C 49.5 81.4 49.3 78.1 49.1 80.1 C 47.3 82.3 47.7 80.6 46.3 82.3 C 46.6 84.4 44.8 82.6 45.6 84.1 C 45.1 82.2 44.3 86.2 43.7 85.7 C 44.3 83.5 38.5 91.2 42.4 87.7 C 41.6 89.8 40.8 88.5 40.2 88.9 C 40.3 90.3 37.2 91.0 37.1 92.6 C 37.4 92.6 37.9 92.2 38.3 92.2 C 39.0 92.4 37.2 93.3 37.3 93.1 C 37.1 94.0 35.5 97.3 36.6 93.4 C 36.1 92.7 34.9 95.9 34.4 95.3 C 32.3 97.7 35.2 97.0 33.3 97.3 C 31.8 99.0 30.7 100.3 30.9 100.4 C 29.8 101.3 28.9 100.9 28.8 102.5 C 25.6 103.5 30.3 106.3 26.8 104.9 C 27.0 106.1 24.6 105.2 26.4 106.5 C 26.3 105.1 22.1 109.3 24.9 108.3 C 24.9 109.1 20.4 110.3 22.5 111.3 C 23.0 113.3 24.5 114.1 27.5 112.8 C 26.3 112.3 30.4 111.3 27.3 111.6 C 25.2 113.1 29.5 107.6 29.2 109.3 C 31.0 111.2 30.0 105.6 32.4 105.7 C 30.8 105.9 34.0 101.3 34.4 103.8 C 35.2 103.1 34.7 102.3 36.3 102.2 C 34.0 104.6 35.5 99.9 36.3 100.9 C 36.5 101.8 40.2 98.4 39.0 98.1 C 35.8 97.6 40.3 97.5 40.0 96.2 C 41.4 93.8 41.5 98.0 41.3 95.2 C 41.9 95.0 44.3 92.4 43.2 94.4 C 42.5 94.9 42.5 90.8 44.4 92.1 C 42.8 95.8 47.9 89.5 46.5 89.9 C 41.6 93.3 49.8 84.4 47.5 88.6 C 50.2 87.6 47.3 89.5 49.2 86.8 C 48.4 86.6 49.6 84.3 50.2 85.8 C 52.2 86.9 48.8 83.1 52.3 83.8 C 53.4 84.5 54.4 80.4 54.4 82.4 C 54.4 82.6 55.0 82.4 55.0 82.3 M 54.1 82.9 C 54.0 82.3 55.0 82.9 54.1 82.9 M 54.1 82.3 C 54.1 82.3 54.1 82.3 54.1 82.3 C 54.1 82.3 54.1 82.3 54.1 82.3 Z M 49.5 86.4 C 49.5 86.4 49.5 86.4 49.5 86.4 C 49.5 86.4 49.5 86.4 49.5 86.4 Z M 42.0 86.2 C 42.1 86.2 42.1 86.2 42.0 86.2 C 42.0 86.2 42.0 86.2 42.0 86.2 Z M 46.5 89.3 C 46.5 89.3 46.5 89.3 46.5 89.3 C 46.5 89.3 46.5 89.3 46.5 89.3 Z M 50.8 84.6 C 50.8 84.6 50.8 84.6 50.8 84.6 C 50.8 84.6 50.8 84.6 50.8 84.6 Z M 47.3 89.6 C 46.5 89.2 48.8 89.0 47.4 89.7 C 47.3 89.7 47.5 89.5 47.3 89.6 M 43.9 93.8 C 43.8 93.7 43.8 93.7 43.9 93.8 M 30.9 98.7 C 30.8 98.6 30.8 98.6 30.9 98.7 M 35.3 103.7 C 35.2 103.7 35.2 103.7 35.3 103.7 M 39.6 97.3 C 38.6 98.6 39.0 97.3 39.6 97.3 M 32.1 106.8 C 33.9 105.5 31.0 108.9 32.1 106.8 M 31.2 108.8 C 31.0 108.9 31.0 108.9 31.2 108.8 M 37.1 101.1 C 37.0 101.1 37.0 101.1 37.1 101.1 C 37.1 101.1 37.1 101.1 37.1 101.1 Z M 40.3 97.0 C 42.1 95.6 39.4 99.1 40.3 97.0 M 49.5 87.5 C 49.0 88.6 48.8 86.7 49.5 87.5 M 50.9 85.4 C 50.9 85.4 50.9 85.4 50.9 85.4 C 50.9 85.4 50.9 85.4 50.9 85.4 Z M 34.3 104.2 C 34.4 104.1 34.4 104.1 34.3 104.2 C 34.3 104.2 34.3 104.2 34.3 104.2 Z M 32.9 106.2 C 32.9 106.1 32.9 106.1 32.9 106.2 C 32.9 106.2 32.9 106.2 32.9 106.2 Z M 25.5 105.6 C 25.6 105.5 25.6 105.5 25.5 105.6 C 25.5 105.6 25.5 105.6 25.5 105.6 Z M 47.8 84.9 C 49.2 84.1 48.1 87.5 47.2 86.3 C 46.7 85.9 47.8 85.2 47.8 84.9 M 40.0 94.5 C 38.2 93.5 43.2 95.2 40.0 94.5 M 29.9 108.1 C 27.0 107.9 32.6 107.6 29.9 108.1 M 28.1 111.1 C 27.1 111.6 31.8 105.9 29.2 110.4 C 29.2 111.0 28.6 111.0 28.1 111.1 M 43.1 93.2 C 41.9 92.7 45.2 91.6 43.1 93.2 M 33.8 98.5 C 33.8 99.6 32.9 101.6 32.6 100.1 C 31.4 99.1 34.0 97.4 33.8 98.5 M 52.9 82.4 C 53.3 84.7 51.8 81.3 52.9 82.4 M 48.4 86.8 C 48.4 86.9 48.4 86.9 48.4 86.8 C 48.4 86.8 48.4 86.8 48.4 86.8 Z M 46.9 88.8 C 46.7 88.8 46.7 88.8 46.9 88.8 M 53.3 84.3 C 53.1 84.3 53.1 84.3 53.3 84.3 M 35.3 99.7 C 35.1 99.7 35.1 99.7 35.3 99.7 M 39.6 96.6 C 36.6 97.2 40.2 95.4 39.6 96.6 M 41.0 89.8 C 39.9 89.7 42.0 88.6 41.0 89.8 M 37.4 100.1 C 35.0 100.3 37.8 97.2 37.4 100.1 M 40.5 95.8 C 40.4 95.9 40.4 95.9 40.5 95.8 C 40.5 95.8 40.5 95.8 40.5 95.8 Z M 33.2 98.9 C 33.2 98.8 33.2 98.8 33.2 98.9 C 33.2 98.9 33.2 98.9 33.2 98.9 Z M 32.8 99.5 C 32.8 99.4 32.8 99.4 32.8 99.5 C 32.8 99.5 32.8 99.5 32.8 99.5 Z M 36.2 101.9 C 36.2 101.8 36.2 101.8 36.2 101.9 C 36.2 101.9 36.2 101.9 36.2 101.9 Z M 47.6 82.0 C 46.3 83.1 48.4 80.8 47.6 82.0 C 47.6 82.0 47.6 82.0 47.6 82.0 Z M 46.0 91.0 C 43.0 92.2 46.4 88.7 46.0 91.0 C 46.0 91.0 46.0 91.0 46.0 91.0 Z M 42.1 91.9 C 42.0 91.8 42.0 91.8 42.1 91.9 C 42.1 91.9 42.1 91.9 42.1 91.9 Z M 39.0 100.0 C 38.9 99.9 38.9 99.9 39.0 100.0 C 39.0 100.0 39.0 100.0 39.0 100.0 Z M 46.9 82.4 C 46.8 82.4 46.8 82.4 46.9 82.4 C 46.9 82.4 46.9 82.4 46.9 82.4 Z M 32.3 105.1 C 32.2 105.1 32.2 105.1 32.3 105.1 C 32.3 105.1 32.3 105.1 32.3 105.1 Z M 36.2 95.1 C 36.2 96.0 35.7 94.8 36.2 95.1 C 36.2 95.1 36.2 95.1 36.2 95.1 Z M 34.4 97.1 C 34.4 97.1 34.4 97.1 34.4 97.1 C 34.4 97.1 34.4 97.1 34.4 97.1 Z M 30.9 109.4 C 30.8 109.4 30.8 109.4 30.9 109.4 C 30.9 109.4 30.9 109.4 30.9 109.4 Z M 28.8 101.2 C 28.7 101.3 28.7 101.3 28.8 101.2 C 28.8 101.2 28.8 101.2 28.8 101.2 Z M 28.9 104.2 C 28.9 104.2 28.9 104.2 28.9 104.2 C 28.9 104.2 28.9 104.2 28.9 104.2 Z M 36.2 101.2 C 34.7 103.4 36.0 100.3 36.2 101.2 C 36.2 101.2 36.2 101.2 36.2 101.2 Z M 25.2 109.8 C 25.1 109.8 25.1 109.8 25.2 109.8 C 25.2 109.8 25.2 109.8 25.2 109.8 Z M 26.2 112.3 C 26.1 112.3 26.1 112.3 26.2 112.3 C 26.2 112.3 26.2 112.3 26.2 112.3 Z M 26.8 113.6 C 26.7 113.6 26.7 113.6 26.8 113.6 C 26.8 113.6 26.8 113.6 26.8 113.6 Z M 45.1 87.0 C 45.2 87.0 45.2 87.0 45.1 87.0 C 45.1 87.0 45.1 87.0 45.1 87.0 Z M 48.5 88.9 C 48.6 88.9 48.6 88.9 48.5 88.9 C 48.5 88.9 48.5 88.9 48.5 88.9 Z M 46.3 91.6 C 46.3 91.6 46.3 91.6 46.3 91.6 C 46.3 91.6 46.3 91.6 46.3 91.6 Z M 43.8 85.0 C 43.9 85.0 43.9 85.0 43.8 85.0 C 43.8 85.0 43.8 85.0 43.8 85.0 Z M 37.2 97.0 C 37.3 97.0 37.3 97.0 37.2 97.0 C 37.2 97.0 37.2 97.0 37.2 97.0 Z M 35.3 96.9 C 35.4 96.9 35.4 96.9 35.3 96.9 C 35.3 96.9 35.3 96.9 35.3 96.9 Z M 35.7 93.2 C 35.8 93.2 35.8 93.2 35.7 93.2 C 35.7 93.2 35.7 93.2 35.7 93.2 Z M 33.6 96.8 C 33.6 96.8 33.6 96.8 33.6 96.8 C 33.6 96.8 33.6 96.8 33.6 96.8 Z M 50.5 79.2 C 50.5 79.1 50.5 79.1 50.5 79.2 C 50.5 79.2 50.5 79.2 50.5 79.2 Z M 52.8 81.1 C 52.7 80.9 52.7 80.9 52.8 81.1 C 52.8 81.1 52.8 81.1 52.8 81.1 Z M 38.6 98.7 C 38.7 99.5 37.2 99.1 38.6 98.7 M 41.6 94.7 C 41.6 94.6 41.6 94.6 41.6 94.7 C 41.6 94.7 41.6 94.7 41.6 94.7 Z M 33.0 105.1 C 31.7 104.9 35.0 103.7 33.0 105.1 C 33.0 105.1 33.0 105.1 33.0 105.1 Z M 30.9 99.9 C 30.9 99.9 30.9 99.9 30.9 99.9 C 30.9 99.9 30.9 99.9 30.9 99.9 Z M 30.5 101.3 C 30.3 101.3 30.3 101.3 30.5 101.3 C 30.5 101.3 30.5 101.3 30.5 101.3 Z M 28.2 109.1 C 28.0 109.1 28.0 109.1 28.2 109.1 M 42.8 94.9 C 42.0 95.1 42.1 95.1 42.8 94.9 M 31.8 106.4 C 31.9 106.4 31.9 106.4 31.8 106.4 C 31.8 106.4 31.8 106.4 31.8 106.4 Z M 27.7 110.8 C 27.7 110.7 27.7 110.7 27.7 110.8 C 27.7 110.8 27.7 110.8 27.7 110.8 Z M 44.7 91.7 C 43.5 90.9 44.2 90.6 44.7 91.7 M 51.2 84.3 C 51.1 84.2 51.1 84.2 51.2 84.3 C 51.2 84.3 51.2 84.3 51.2 84.3 Z M 51.2 84.3 " fill="#FEFFFE"></path><path d="M 4.9 112.8 C 4.4 112.3 4.9 110.5 5.2 112.2 C 5.2 112.3 5.0 113.0 4.9 112.8 Z M 4.7 116.0 C 4.7 115.7 4.7 115.6 4.9 115.4 C 5.5 115.1 4.6 116.8 4.7 116.0 Z M 5.6 111.3 C 5.5 111.2 5.6 110.2 5.7 110.4 C 5.9 110.6 5.6 111.4 5.6 111.3 Z M 5.8 118.9 C 5.5 118.9 5.6 117.8 5.7 117.6 C 6.1 117.1 6.3 119.0 5.8 118.9 Z M 13.8 115.3 C 13.9 115.3 14.0 115.3 14.1 115.4 C 14.0 115.3 13.9 115.3 13.8 115.3 Z M 4.3 133.8 C 4.3 133.6 4.6 133.2 4.8 133.3 C 5.0 133.5 4.4 134.4 4.3 133.8 Z M 29.2 124.9 C 29.2 124.9 29.0 124.5 29.2 124.5 C 29.5 124.5 29.4 124.9 29.2 124.9 Z M 29.4 124.6 C 29.4 124.4 29.8 124.5 29.7 124.7 C 29.5 124.8 29.3 124.9 29.4 124.6 Z M 18.0 134.7 C 17.9 134.8 17.8 134.9 17.9 134.7 C 17.9 134.6 18.2 134.6 18.0 134.7 Z M 18.3 134.2 C 18.3 133.9 18.7 134.1 18.6 134.3 C 18.3 134.5 18.2 134.5 18.3 134.2 Z M 21.8 134.1 C 21.7 134.2 21.6 134.3 21.6 134.1 C 21.7 134.0 22.0 134.0 21.8 134.1 Z M 23.4 120.1 C 23.6 120.1 24.0 120.6 23.8 120.7 C 23.6 120.9 23.2 120.2 23.4 120.1 Z M 24.1 120.4 C 24.2 120.2 24.6 120.4 24.4 120.5 C 24.2 120.6 24.1 120.6 24.1 120.4 Z M 22.0 119.5 C 21.8 119.8 21.3 119.4 21.2 119.3 C 21.1 119.1 20.9 118.9 20.8 118.7 C 20.8 118.6 22.2 119.2 22.0 119.5 Z M 17.8 117.1 C 17.8 117.0 17.9 116.9 18.0 117.1 C 18.2 117.4 17.7 117.1 17.8 117.1 Z M 20.2 118.4 C 20.2 118.3 20.3 118.3 20.4 118.5 C 20.5 118.7 20.1 118.5 20.2 118.4 Z M 4.8 124.9 C 4.6 125.0 4.8 124.2 4.8 124.1 C 4.9 124.1 4.9 124.4 5.0 124.2 C 5.1 124.0 5.6 124.5 4.8 124.9 Z M 4.7 117.8 C 4.7 117.6 4.8 117.6 5.0 117.6 C 5.0 117.7 4.8 118.3 4.7 117.8 Z M 5.8 123.9 C 5.7 123.9 5.7 123.7 5.8 123.7 C 5.9 123.7 5.9 123.9 5.8 123.9 Z M 5.9 124.5 C 5.9 124.3 6.2 123.9 6.4 124.0 C 6.7 124.2 6.0 125.1 5.9 124.5 Z M 4.4 125.9 C 4.5 125.6 4.5 125.6 4.5 125.8 C 4.6 125.9 4.4 125.9 4.4 125.9 Z M 4.3 121.7 C 4.3 121.5 4.3 121.5 4.4 121.6 C 4.5 121.8 4.3 121.7 4.3 121.7 Z M 4.8 127.8 C 4.8 127.8 4.6 127.3 5.0 127.2 C 5.7 127.0 4.9 127.8 4.8 127.8 Z M 5.3 130.7 C 5.3 130.5 5.5 130.6 5.4 130.8 C 5.4 131.0 5.2 130.9 5.3 130.7 Z M 6.2 131.8 C 6.1 132.2 5.8 132.4 5.9 131.9 C 6.0 131.4 6.4 131.5 6.2 131.8 Z M 6.0 131.3 C 6.1 131.3 6.1 131.5 6.0 131.5 C 5.9 131.5 5.9 131.3 6.0 131.3 Z M 5.4 128.8 C 5.3 128.6 5.6 128.3 5.7 128.7 C 5.7 129.1 5.6 129.1 5.4 128.8 Z M 12.4 112.8 C 12.3 112.8 12.5 112.6 12.6 112.5 C 12.8 112.5 12.7 112.9 12.4 112.8 Z M 20.6 119.6 C 20.5 119.4 20.6 119.4 20.8 119.6 C 21.0 119.8 20.6 119.8 20.6 119.6 Z M 25.8 123.7 C 25.7 123.5 25.8 123.5 26.0 123.8 C 26.2 124.0 25.8 123.9 25.8 123.7 Z M 18.3 118.1 C 18.3 118.0 19.2 117.9 19.2 118.5 C 19.3 119.1 18.3 118.5 18.3 118.1 Z M 10.0 118.8 C 9.8 118.8 10.0 118.7 10.0 118.7 C 10.1 118.8 10.1 118.8 10.0 118.8 Z M 19.1 119.6 C 19.0 119.5 19.1 119.3 19.3 119.3 C 19.5 119.3 19.3 119.6 19.1 119.6 Z M 25.0 122.7 C 24.8 122.5 25.2 122.2 25.4 122.2 C 26.1 122.1 26.2 122.8 26.3 123.2 C 26.4 123.6 25.1 122.9 25.0 122.7 Z M 10.6 112.8 C 10.7 112.9 10.8 113.0 10.9 113.1 C 11.0 113.0 11.0 113.1 11.1 113.3 C 11.7 113.6 12.3 113.3 12.8 113.4 C 13.8 113.6 13.4 114.9 13.8 115.3 C 13.7 115.2 13.6 115.1 13.4 115.2 C 13.0 115.3 15.1 116.5 15.2 116.5 C 17.0 117.4 15.2 115.8 15.6 115.2 C 15.7 115.0 16.4 116.4 16.5 116.4 C 16.9 117.0 17.3 116.5 17.6 117.1 C 17.7 117.3 17.5 119.0 17.8 118.9 C 18.1 118.9 18.5 119.4 18.7 119.5 C 19.0 119.7 19.6 120.0 19.6 119.4 C 19.6 118.9 19.7 118.5 19.9 119.1 C 20.1 119.5 21.5 121.6 22.0 120.6 C 22.1 120.5 21.8 120.0 21.8 120.0 C 22.5 120.1 23.9 121.5 24.5 121.4 C 26.0 121.1 23.9 121.7 24.2 122.3 C 24.7 123.2 24.9 123.7 26.0 124.2 C 26.2 124.3 27.1 124.9 27.0 124.1 C 26.9 123.6 27.3 123.5 26.8 123.0 C 27.8 123.0 27.6 124.1 27.8 124.0 C 28.2 123.9 27.9 123.5 28.3 123.8 C 28.8 124.3 28.7 124.0 28.5 124.5 C 28.4 124.7 28.8 125.1 28.8 125.1 C 28.8 125.1 28.8 125.2 28.7 125.2 C 29.2 125.5 30.5 125.1 30.5 125.4 C 30.5 125.6 29.8 126.0 29.7 126.2 C 29.7 126.2 29.8 126.3 29.8 126.3 C 30.0 126.4 30.7 126.3 30.7 126.4 C 30.8 126.6 29.9 127.2 30.2 127.1 C 30.6 127.0 31.4 127.9 31.3 128.2 C 31.2 128.5 30.7 129.8 30.8 130.0 C 31.0 130.2 30.2 130.4 30.1 130.6 C 29.9 130.7 29.3 130.5 29.2 130.5 C 29.1 130.5 28.7 130.8 28.7 130.8 C 28.7 130.8 28.5 131.0 28.1 131.2 C 27.7 131.4 27.3 131.3 26.7 131.4 C 26.1 131.5 26.1 131.9 25.6 132.2 C 25.2 132.5 24.4 131.9 23.9 132.0 C 23.5 132.1 23.8 132.7 23.3 133.0 C 22.8 133.3 22.4 133.3 22.5 133.1 C 22.7 133.0 22.4 132.9 22.3 132.9 C 22.1 133.0 21.4 133.1 21.3 133.3 C 21.1 133.5 22.9 133.3 20.9 134.2 C 19.9 134.6 19.0 134.3 19.2 134.1 C 19.9 133.8 17.9 133.5 18.1 133.8 C 18.2 134.2 16.5 134.9 17.2 135.2 C 17.4 135.3 15.8 136.3 15.5 136.3 C 15.2 136.3 14.5 136.8 14.1 136.4 C 13.8 136.2 13.2 137.3 13.0 137.4 C 12.8 137.5 11.4 138.1 11.1 138.0 C 10.8 138.0 11.4 137.7 11.7 137.6 C 12.0 137.5 12.5 137.5 12.7 137.4 C 13.0 137.2 12.3 137.2 12.0 137.3 C 11.6 137.4 11.4 137.2 11.1 137.2 C 11.0 137.4 10.8 137.4 10.5 137.5 C 10.4 137.6 10.3 137.7 10.4 137.8 C 10.4 138.0 10.7 138.0 10.7 138.1 C 10.7 138.2 10.5 138.4 10.1 138.6 C 9.7 138.8 9.3 138.9 8.7 139.0 C 8.1 139.1 8.1 139.3 7.7 139.5 C 7.4 139.7 7.0 139.8 6.9 139.7 C 6.9 139.6 7.3 139.3 7.3 139.2 C 7.3 139.1 6.6 139.0 6.4 139.1 C 5.4 139.5 5.8 138.3 4.7 138.6 C 4.1 138.8 4.6 138.2 4.8 137.7 C 4.6 137.7 4.6 137.7 4.5 137.2 C 4.3 137.2 4.5 136.5 4.5 136.1 C 4.5 135.9 4.3 134.5 4.6 135.4 C 4.7 135.5 4.7 135.5 4.7 135.6 C 4.7 135.6 4.7 135.6 4.7 135.6 C 4.7 135.6 5.3 136.0 5.3 136.0 C 5.3 136.0 4.8 135.6 4.8 135.6 C 5.0 135.4 5.2 135.3 5.3 135.2 C 5.3 135.1 5.2 135.0 5.2 135.0 C 5.2 134.9 5.2 134.9 5.1 134.9 C 5.1 134.9 5.1 134.9 5.1 134.9 C 4.9 134.9 4.9 134.9 5.0 134.7 C 4.8 134.1 5.2 133.0 5.4 132.6 C 6.5 133.9 6.6 131.8 6.4 131.0 C 6.3 130.3 4.9 130.3 4.9 130.6 C 4.9 130.1 5.1 130.0 5.5 129.9 C 5.5 129.9 6.4 129.3 6.4 129.4 C 6.9 128.2 5.7 128.4 5.6 128.1 C 5.4 127.8 5.4 127.4 5.4 127.0 C 5.3 126.6 5.0 126.9 4.9 126.8 C 4.3 126.3 5.5 125.5 5.6 125.2 C 5.6 125.5 5.7 125.9 5.9 126.1 C 5.6 125.7 6.3 125.5 6.4 125.3 C 6.6 125.0 6.5 124.5 6.5 124.1 C 6.5 123.4 6.4 122.7 6.3 122.0 C 6.2 122.2 5.4 123.2 5.4 123.3 C 5.4 123.0 5.6 122.4 5.1 122.6 C 4.2 123.0 4.7 121.3 4.7 121.0 C 4.9 120.1 4.1 119.1 5.1 118.3 C 5.1 118.3 5.3 119.7 5.4 119.6 C 6.2 119.3 6.6 119.0 6.5 118.0 C 6.5 117.9 5.9 116.6 5.9 116.6 C 6.0 116.6 4.1 117.8 4.7 116.7 C 4.9 116.5 5.1 117.0 5.3 116.7 C 5.5 116.3 5.4 115.7 5.5 115.3 C 5.5 115.2 5.8 114.5 5.7 114.4 C 5.5 114.3 5.1 114.2 5.0 114.0 C 4.9 113.7 5.1 113.4 5.4 113.4 C 5.4 113.4 5.5 113.4 5.5 113.4 C 5.5 113.3 5.6 113.3 5.8 113.3 C 5.7 113.2 5.7 113.0 5.9 112.8 C 6.0 112.8 6.0 113.1 5.9 113.3 C 6.0 113.3 6.1 113.4 6.2 113.4 C 6.1 113.0 6.1 112.6 6.1 112.6 C 5.7 112.0 5.4 112.0 6.2 111.1 C 6.8 110.4 8.9 111.1 9.8 112.1 C 10.1 112.2 10.3 112.4 10.6 112.8 Z M 9.7 137.5 C 9.7 137.5 9.7 137.4 9.8 137.4 C 9.7 137.3 9.7 137.2 9.6 137.1 C 9.3 137.1 9.8 137.3 9.5 137.4 C 9.1 137.5 9.2 137.6 9.7 137.5 Z M 7.3 135.6 C 7.1 135.8 7.2 135.8 7.4 135.8 C 7.4 135.7 7.4 135.7 7.3 135.6 Z M 5.9 135.4 C 6.0 135.9 6.6 135.2 6.5 134.5 C 6.1 134.9 6.0 135.2 5.9 135.4 Z M 5.4 134.4 C 5.5 134.4 5.5 134.4 5.6 134.5 C 5.8 134.5 5.6 134.1 5.8 134.1 C 5.9 134.2 6.1 134.6 6.2 134.3 C 6.2 134.3 6.3 134.2 6.3 134.1 C 6.3 134.1 6.3 134.0 6.2 134.0 C 6.0 133.8 5.5 134.1 5.4 134.4 Z M 11.0 135.7 C 10.9 135.9 11.1 135.9 11.2 135.8 C 11.3 135.7 11.2 135.6 11.0 135.7 Z M 13.8 135.8 C 13.6 135.7 13.4 135.9 13.7 136.0 C 13.9 136.1 14.1 135.8 13.8 135.8 Z M 12.8 131.1 C 12.7 131.3 12.8 131.2 12.9 131.1 C 13.1 131.0 12.8 131.0 12.8 131.1 Z M 10.9 129.7 C 10.8 129.5 10.4 129.6 10.5 129.7 C 10.6 129.8 10.9 129.8 10.9 129.7 Z M 15.3 133.0 C 15.5 132.9 15.3 132.8 15.2 133.0 C 15.1 133.1 15.2 133.1 15.3 133.0 Z M 12.3 131.6 C 12.6 131.6 12.6 131.5 12.6 131.4 C 12.6 131.3 12.4 131.2 12.1 131.3 C 11.9 131.5 11.9 131.6 12.3 131.6 Z M 10.5 130.6 C 10.5 129.9 10.2 129.9 10.3 130.7 C 10.4 131.5 10.4 131.0 10.5 130.6 Z M 15.9 135.6 C 15.8 135.6 15.5 135.9 15.5 135.9 C 15.5 135.9 16.5 135.6 15.9 135.6 Z M 5.9 127.4 C 5.9 127.6 6.1 127.8 6.2 127.4 C 6.3 127.0 6.0 127.1 5.9 127.4 Z M 7.4 126.9 C 6.9 127.1 6.7 127.5 6.7 127.5 C 6.8 127.5 7.2 127.7 7.2 127.8 C 7.4 128.3 6.8 128.8 7.2 129.3 C 7.5 129.8 7.6 128.8 7.6 128.6 C 7.6 128.7 7.7 128.8 7.8 128.8 C 8.0 128.8 8.1 128.6 8.0 128.5 C 7.8 128.2 8.1 126.7 7.4 126.9 Z M 12.3 130.2 C 12.1 130.3 12.1 130.6 12.4 130.6 C 12.7 130.6 13.0 130.5 12.9 130.4 C 12.9 130.3 12.5 130.0 12.3 130.2 Z M 13.9 131.0 C 13.9 131.3 14.0 131.3 14.2 131.1 C 14.5 130.9 14.0 130.8 13.9 131.0 Z M 22.3 132.6 C 22.4 132.3 22.0 132.5 22.0 132.6 C 22.1 132.7 22.2 132.7 22.3 132.6 Z M 19.7 130.9 C 20.0 130.6 19.5 130.6 19.4 130.7 C 19.3 130.8 19.5 131.1 19.7 130.9 Z M 17.2 131.4 C 17.4 131.3 17.0 131.3 16.9 131.4 C 16.9 131.6 17.1 131.5 17.2 131.4 Z M 16.1 130.9 C 16.3 130.8 16.0 130.7 15.8 130.9 C 15.7 131.0 15.9 131.0 16.1 130.9 Z M 8.3 124.6 C 8.3 124.6 8.8 124.8 8.6 124.4 C 8.4 124.0 8.4 124.0 8.3 124.6 Z M 10.8 127.3 C 10.8 127.7 10.9 128.0 11.9 128.3 C 12.9 128.6 12.7 128.2 12.3 127.8 C 11.9 127.3 13.5 127.8 12.7 127.0 C 12.3 126.6 10.8 126.9 10.8 127.3 Z M 17.0 129.4 C 16.3 129.3 15.9 130.1 16.5 129.9 C 17.2 129.7 17.6 129.4 17.0 129.4 Z M 17.4 129.6 C 17.3 129.7 17.4 129.7 17.6 129.6 C 17.8 129.5 17.5 129.4 17.4 129.6 Z M 5.0 121.9 C 5.2 123.1 6.0 121.8 6.0 121.8 C 6.4 120.5 4.8 120.6 5.0 121.9 Z M 28.0 125.3 C 28.0 125.3 27.9 125.3 27.9 125.2 C 27.9 125.2 27.9 125.2 27.8 125.2 C 27.6 125.3 27.8 125.7 27.8 125.7 C 28.0 125.6 28.0 125.5 28.0 125.3 Z M 22.9 121.6 C 23.1 121.8 23.3 121.8 23.5 121.8 C 23.7 121.3 22.2 120.2 22.2 121.4 C 22.2 121.6 22.8 123.0 23.1 122.6 C 23.4 122.4 22.4 121.2 22.9 121.6 Z M 24.1 123.3 C 23.5 122.9 24.2 124.3 24.3 123.9 C 24.3 123.7 24.3 123.5 24.1 123.3 Z M 27.8 127.9 C 28.9 128.1 29.5 126.8 27.8 126.6 C 26.0 126.3 25.6 126.8 26.4 127.1 C 27.2 127.4 26.2 127.6 27.8 127.9 Z M 21.0 123.3 C 21.7 122.5 21.2 122.5 20.5 123.0 C 20.3 123.2 20.5 123.8 21.0 123.3 Z M 19.0 122.2 C 18.8 121.9 18.8 122.0 18.8 122.2 C 18.9 122.5 19.2 122.5 19.0 122.2 Z M 28.3 130.1 C 28.7 130.2 29.2 130.0 29.0 130.2 C 28.9 130.4 29.0 130.3 29.3 130.3 C 29.7 130.3 29.3 130.0 29.1 129.9 C 28.8 129.8 27.9 130.0 28.3 130.1 Z M 19.0 128.2 C 19.1 128.1 18.9 128.1 18.8 128.2 C 18.7 128.3 18.8 128.3 19.0 128.2 Z M 11.1 124.3 C 11.1 124.3 11.3 124.4 11.2 124.2 C 11.1 124.0 11.1 124.0 11.1 124.3 Z M 5.5 120.1 C 5.5 120.4 5.9 120.0 6.1 120.3 C 6.2 120.4 5.9 120.4 5.9 120.4 C 6.0 120.4 6.7 120.8 6.5 120.2 C 6.3 120.0 5.4 119.5 5.5 120.1 Z M 17.1 126.6 C 16.6 126.7 17.7 127.8 17.3 127.9 C 17.0 128.0 17.1 128.1 17.5 128.0 C 18.0 127.9 17.6 126.6 17.1 126.6 Z M 20.3 128.5 C 20.1 128.4 19.2 128.7 19.6 128.7 C 20.0 128.8 20.5 128.6 20.3 128.8 C 20.2 129.0 20.3 129.0 20.6 128.9 C 21.0 128.9 20.5 128.6 20.3 128.5 Z M 25.6 131.7 C 25.5 131.7 25.0 132.0 25.4 132.0 C 25.6 132.0 25.7 131.8 25.6 131.7 Z M 11.5 121.8 C 11.7 122.1 11.8 122.1 11.8 121.7 C 11.7 121.3 11.4 121.6 11.5 121.8 Z M 25.7 130.6 C 25.2 130.6 25.9 130.8 25.5 130.9 C 25.2 131.0 25.3 131.1 25.7 131.0 C 26.1 130.9 26.2 130.5 25.7 130.6 Z M 7.4 117.9 C 7.5 118.0 7.8 118.0 7.7 117.9 C 7.6 117.7 7.3 117.8 7.4 117.9 Z M 9.8 118.5 C 9.8 118.6 9.7 118.7 9.7 118.8 C 9.8 120.6 10.6 117.9 9.8 118.5 Z M 12.6 120.6 C 12.2 120.4 12.5 121.0 12.6 121.0 C 12.7 120.9 12.7 120.8 12.6 120.6 Z M 15.9 122.8 C 16.1 122.7 15.7 122.5 15.7 122.7 C 15.6 122.9 15.8 122.9 15.9 122.8 Z M 5.8 115.2 C 5.7 115.4 5.9 115.4 6.0 115.3 C 6.0 115.1 5.9 115.0 5.8 115.2 Z M 14.0 120.5 C 13.9 120.5 13.9 120.6 14.1 120.6 C 14.2 120.7 14.1 120.4 14.0 120.5 Z M 23.9 127.0 C 23.8 127.1 23.6 127.1 23.5 127.1 C 23.5 127.4 24.0 127.8 23.9 128.0 C 23.9 128.1 23.9 128.1 23.9 128.1 C 23.8 128.1 23.9 128.1 23.8 128.1 C 23.7 128.2 23.6 128.2 23.6 128.1 C 23.5 128.1 23.4 128.1 23.2 128.0 C 23.3 128.3 23.5 128.6 23.7 128.6 C 24.0 128.5 24.4 128.1 24.6 127.8 C 24.5 127.6 24.4 127.5 24.3 127.3 C 24.3 127.3 24.3 127.4 24.2 127.4 C 24.0 127.5 23.7 127.5 23.9 127.3 C 23.9 127.2 24.0 127.2 24.1 127.2 C 24.0 127.1 24.0 127.1 23.9 127.0 Z M 15.5 120.9 C 15.2 120.8 15.3 121.0 15.6 121.3 C 15.8 121.5 15.9 120.9 15.5 120.9 Z M 6.4 115.1 C 6.5 115.2 6.6 115.2 6.7 115.1 C 6.7 115.1 6.7 115.0 6.6 115.0 C 6.5 114.9 6.3 114.7 6.2 114.5 C 6.0 114.7 6.0 115.0 6.4 115.1 Z M 9.9 116.1 C 9.7 116.0 8.6 115.2 8.6 115.6 C 8.7 116.2 7.9 116.3 8.9 116.7 C 9.3 116.9 10.1 116.5 10.6 116.7 C 13.0 117.6 10.4 115.8 9.9 115.3 C 9.8 115.2 10.0 116.1 9.9 116.1 Z M 13.0 117.3 C 13.2 117.2 13.1 116.7 12.9 116.6 C 12.4 116.4 12.7 117.4 13.0 117.3 Z M 7.4 113.1 C 7.4 113.1 7.3 113.1 7.3 113.2 C 7.4 113.2 7.4 113.1 7.5 113.1 C 7.5 113.1 7.4 113.1 7.4 113.1 Z M 6.1 111.9 C 6.2 112.8 6.9 111.7 7.0 111.3 C 7.1 110.8 6.0 111.4 6.1 111.9 Z M 12.1 115.2 C 12.5 115.6 13.8 114.7 13.0 114.2 C 12.3 113.8 11.2 114.6 12.1 115.2 Z M 17.5 116.6 C 17.3 116.7 17.0 116.1 17.3 116.1 C 17.5 116.1 17.6 116.6 17.5 116.6 Z M 11.5 111.6 C 11.6 111.8 11.4 111.7 11.4 111.7 C 11.4 111.5 11.4 111.5 11.5 111.6 Z M 11.5 112.9 C 11.3 112.7 11.1 112.5 11.0 112.3 C 10.9 112.1 11.4 112.3 11.4 112.3 C 11.6 112.5 11.4 112.9 11.5 112.9 Z M 14.9 115.3 C 14.8 115.1 15.1 115.2 15.2 115.4 C 15.3 115.5 14.9 115.5 14.9 115.3 Z M 14.2 114.5 C 14.4 114.6 14.1 114.7 14.0 114.6 C 13.8 114.4 14.1 114.4 14.2 114.5 Z M 15.2 116.1 C 14.8 116.0 14.2 115.8 14.5 115.5 C 14.6 115.3 16.1 116.4 15.2 116.1 Z M 15.2 116.1 " fill="#FEFFFE"></path></g></svg>