<?xml version="1.0" encoding="UTF-8" standalone="no"?><svg xmlns="http://www.w3.org/2000/svg" xmlns:xlink="http://www.w3.org/1999/xlink" clip-rule="evenodd" stroke-miterlimit="4.00" viewBox="0 0 208 145"><desc>SVG generated by Keynote</desc><defs></defs><g transform="matrix(1.00, 0.00, -0.00, -1.00, 0.0, 145.0)"><path d="M 18.5 138.5 C 18.1 138.7 17.2 138.5 16.9 138.7 M 18.5 138.5 C 17.5 137.2 15.8 137.2 13.5 137.0 C 11.1 137.0 13.6 138.2 13.4 138.7 C 10.1 139.3 10.1 138.4 10.5 137.0 C 9.3 137.9 5.5 136.2 6.3 138.0 C 11.6 138.0 2.6 138.4 7.0 139.4 C 7.5 139.7 6.2 140.1 5.7 140.1 C 7.2 140.9 4.7 141.7 7.0 142.2 C 7.4 143.3 6.9 142.8 8.5 143.7 C 9.1 143.8 8.8 143.4 8.8 143.2 C 9.0 141.9 10.6 143.9 11.9 143.0 C 13.0 144.7 14.1 142.7 13.1 142.0 C 14.3 142.2 15.6 143.9 16.7 142.7 C 17.4 143.5 20.3 142.8 18.5 141.9 C 17.2 141.2 18.6 140.7 18.8 140.3 C 18.4 140.0 16.6 140.5 16.3 140.2 C 16.8 139.9 19.1 139.3 16.7 139.4 C 17.4 138.8 16.2 138.5 18.5 138.5 C 18.5 138.5 18.5 138.5 18.5 138.5 Z M 9.6 137.7 C 9.6 137.3 10.5 137.7 9.6 137.7 C 9.6 137.7 9.6 137.7 9.6 137.7 Z M 15.8 143.6 C 15.8 143.1 16.6 143.6 15.8 143.6 C 15.8 143.6 15.8 143.6 15.8 143.6 Z M 9.2 143.2 C 9.2 142.7 10.1 143.2 9.2 143.2 C 9.2 143.2 9.2 143.2 9.2 143.2 Z M 12.0 138.0 C 13.3 138.3 10.8 138.6 10.6 138.2 C 10.9 138.3 11.6 137.6 12.0 138.0 C 12.0 138.0 12.0 138.0 12.0 138.0 Z M 12.2 140.5 C 12.3 140.4 12.9 140.3 12.8 140.8 C 12.4 140.9 12.1 140.7 12.2 140.5 C 12.2 140.5 12.2 140.5 12.2 140.5 Z M 5.2 138.7 C 5.3 138.6 5.9 138.5 5.8 139.0 C 5.4 139.1 5.1 138.9 5.2 138.7 C 5.2 138.7 5.2 138.7 5.2 138.7 Z M 13.6 139.1 C 13.9 139.2 14.0 139.6 13.6 139.7 C 13.4 139.5 12.4 139.4 13.6 139.1 C 13.6 139.1 13.6 139.1 13.6 139.1 Z M 15.7 137.6 C 16.9 137.8 14.5 138.5 14.5 138.3 C 14.2 138.0 15.0 137.3 15.7 137.6 C 15.7 137.6 15.7 137.6 15.7 137.6 Z M 14.2 139.7 C 15.2 139.9 13.8 140.1 14.2 139.7 C 14.2 139.7 14.2 139.7 14.2 139.7 Z M 6.1 142.0 C 7.1 142.2 5.7 142.3 6.1 142.0 C 6.1 142.0 6.1 142.0 6.1 142.0 Z M 11.3 143.4 C 12.3 143.6 10.9 143.7 11.3 143.4 C 11.3 143.4 11.3 143.4 11.3 143.4 Z M 9.4 138.9 C 7.7 138.9 9.1 137.8 9.4 138.9 C 9.4 138.9 9.4 138.9 9.4 138.9 Z M 18.3 137.4 C 16.7 137.4 18.1 136.3 18.3 137.4 C 18.3 137.4 18.3 137.4 18.3 137.4 Z M 189.7 24.6 C 190.0 23.1 186.3 27.8 188.8 26.5 C 190.4 26.6 188.6 30.0 187.8 28.6 C 187.2 29.6 187.1 29.5 187.4 30.4 C 186.4 30.1 184.8 32.3 184.8 33.4 C 185.4 34.3 185.7 31.8 185.9 33.6 C 184.7 36.7 186.9 33.8 187.4 35.5 C 187.3 35.7 186.8 35.4 187.0 35.9 C 187.9 36.5 189.4 35.1 189.8 36.2 C 189.9 35.7 192.1 34.0 190.7 34.5 C 189.6 34.4 193.0 32.6 191.4 32.1 C 192.5 31.7 191.8 30.4 193.1 30.1 C 193.5 29.6 192.7 29.3 192.4 29.3 C 191.7 29.0 194.4 29.3 193.5 27.9 C 193.9 27.9 194.9 25.3 193.5 27.0 C 193.9 26.5 195.5 23.7 193.4 24.6 C 191.9 26.4 192.9 21.9 191.8 24.2 C 190.8 26.0 190.9 26.5 190.8 24.8 C 191.1 24.4 191.9 22.2 190.4 23.7 C 190.4 24.2 189.9 25.0 189.7 24.6 C 189.7 24.6 189.7 24.6 189.7 24.6 Z M 191.9 25.2 C 191.5 26.2 191.3 25.0 191.9 25.2 C 191.9 25.2 191.9 25.2 191.9 25.2 Z M 193.3 30.4 C 192.9 31.5 192.7 30.3 193.3 30.4 C 193.3 30.4 193.3 30.4 193.3 30.4 Z M 187.8 27.7 C 188.0 28.4 186.5 27.9 187.8 27.7 C 187.8 27.7 187.8 27.7 187.8 27.7 Z M 193.0 28.1 C 192.9 28.2 192.9 27.9 192.9 27.6 C 192.9 27.7 193.0 28.0 193.0 28.1 C 193.0 28.1 193.0 28.1 193.0 28.1 Z M 187.0 29.4 C 187.0 31.3 185.7 29.2 187.0 29.4 C 187.0 29.4 187.0 29.4 187.0 29.4 Z M 186.9 33.1 C 188.2 34.0 185.8 34.6 186.9 33.1 C 186.9 33.1 186.9 33.1 186.9 33.1 Z M 191.1 32.5 C 190.9 32.1 191.4 32.4 191.1 32.5 C 191.1 32.5 191.1 32.5 191.1 32.5 Z M 194.5 25.8 C 194.3 25.4 194.8 25.6 194.5 25.8 C 194.5 25.8 194.5 25.8 194.5 25.8 Z M 190.0 34.4 C 189.5 34.0 190.5 34.0 190.0 34.4 C 190.0 34.4 190.0 34.4 190.0 34.4 Z M 188.2 28.2 C 187.7 26.3 190.7 27.3 188.2 28.2 C 188.2 28.2 188.2 28.2 188.2 28.2 Z M 189.3 25.6 C 189.5 24.6 190.0 26.1 189.6 26.5 C 189.5 26.4 189.3 25.8 189.3 25.6 C 189.3 25.6 189.3 25.6 189.3 25.6 Z M 187.7 29.8 C 187.6 28.6 188.4 29.0 187.7 29.8 C 187.7 29.8 187.7 29.8 187.7 29.8 Z M 188.2 27.0 C 188.5 26.6 188.2 27.5 188.2 27.0 C 188.2 27.0 188.2 27.0 188.2 27.0 Z M 185.6 31.1 C 185.9 30.7 185.5 31.6 185.6 31.1 C 185.6 31.1 185.6 31.1 185.6 31.1 Z M 189.2 24.2 C 189.6 23.8 189.2 24.7 189.2 24.2 C 189.2 24.2 189.2 24.2 189.2 24.2 Z M 186.5 31.1 C 187.0 31.5 188.8 30.7 186.6 32.6 C 186.0 32.9 185.8 31.5 186.5 31.1 C 186.5 31.1 186.5 31.1 186.5 31.1 Z M 22.9 138.3 C 16.4 136.9 18.1 139.9 17.8 140.5 C 17.0 141.4 17.8 141.9 19.1 142.4 C 20.6 144.4 21.1 140.3 22.1 142.2 C 24.0 144.8 24.0 139.8 24.9 142.6 C 24.6 143.3 27.1 142.6 26.8 142.4 C 28.2 143.7 29.8 141.2 29.8 140.9 C 30.6 141.2 30.9 143.7 33.3 141.6 C 35.2 140.8 36.2 143.2 35.5 141.5 C 37.2 143.3 36.5 140.9 37.9 141.3 C 39.1 142.3 37.8 139.7 39.8 141.6 C 40.4 139.9 39.1 142.8 43.7 141.0 C 41.4 141.1 45.7 139.4 45.0 140.6 C 43.5 142.0 47.1 139.9 49.3 140.2 C 49.8 139.6 52.1 137.7 51.9 139.4 C 54.4 140.8 53.9 137.9 55.1 139.2 C 55.9 139.7 56.0 138.3 56.5 138.3 C 57.4 139.3 58.0 138.4 60.6 138.2 C 66.5 137.5 60.9 135.2 63.0 134.3 C 63.2 133.7 59.3 130.7 61.1 133.2 C 60.6 132.5 56.6 136.3 58.2 132.8 C 56.7 134.4 58.4 131.5 55.1 133.7 C 60.4 134.9 49.7 135.5 54.2 133.6 C 53.3 133.1 51.4 133.6 52.9 133.9 C 53.8 135.7 49.4 133.6 51.7 135.6 C 48.6 135.5 49.7 137.5 48.6 136.1 C 47.5 133.7 48.9 136.7 47.2 136.2 C 43.6 136.8 46.0 133.4 44.0 135.7 C 40.3 134.9 43.4 136.9 42.2 137.4 C 42.1 139.2 38.3 136.5 41.1 135.9 C 39.7 137.0 40.7 135.1 39.2 136.4 C 40.6 137.9 36.8 134.9 37.5 136.1 C 36.1 136.7 36.9 137.6 36.5 137.7 C 34.2 138.0 34.8 136.3 34.4 137.5 C 34.0 138.2 32.7 136.2 32.5 136.7 C 34.8 136.6 30.7 138.6 30.4 137.8 C 31.8 137.5 29.5 135.7 28.7 137.0 C 30.1 140.6 26.6 136.2 25.6 137.6 C 26.7 139.5 20.5 138.1 22.7 137.1 C 22.6 137.2 22.9 138.4 22.9 138.3 M 31.8 137.1 C 33.7 137.1 29.8 137.7 31.8 137.1 M 31.7 136.6 C 32.6 137.2 29.9 136.2 31.8 136.3 C 31.8 136.3 31.6 136.5 31.7 136.6 M 39.5 135.7 C 39.3 136.3 38.4 135.5 39.5 135.7 M 41.1 136.8 C 42.4 137.1 39.4 137.1 41.1 136.8 M 57.6 133.7 C 56.6 137.0 55.6 132.4 57.6 133.7 M 46.7 135.0 C 44.7 135.7 47.2 133.7 46.7 135.0 M 46.2 135.8 C 45.3 136.5 45.9 135.2 46.2 135.8 M 54.5 134.3 C 54.7 134.3 54.7 134.3 54.5 134.3 C 54.5 134.3 54.5 134.3 54.5 134.3 Z M 59.4 133.5 C 59.4 133.4 59.4 133.4 59.4 133.5 C 59.4 133.5 59.4 133.5 59.4 133.5 Z M 49.9 135.4 C 48.2 135.0 52.3 134.8 49.9 135.4 C 49.9 135.4 49.9 135.4 49.9 135.4 Z M 58.0 138.4 C 57.9 138.4 57.9 138.4 58.0 138.4 C 58.0 138.4 58.0 138.4 58.0 138.4 Z M 30.4 138.6 C 30.4 138.6 30.4 138.6 30.4 138.6 C 30.4 138.6 30.4 138.6 30.4 138.6 Z M 24.4 137.9 C 24.5 138.2 23.3 137.6 24.4 137.9 C 24.4 137.9 24.4 137.9 24.4 137.9 Z M 19.6 141.5 C 19.6 141.6 19.6 141.6 19.6 141.5 C 19.6 141.5 19.6 141.5 19.6 141.5 Z M 28.5 140.3 C 28.5 140.4 28.5 140.4 28.5 140.3 C 28.5 140.3 28.5 140.3 28.5 140.3 Z M 29.2 138.0 C 28.2 136.4 31.5 138.3 29.2 138.0 C 29.2 138.0 29.2 138.0 29.2 138.0 Z M 48.6 139.8 C 48.6 139.1 50.0 139.9 48.6 139.8 C 48.6 139.8 48.6 139.8 48.6 139.8 Z M 41.4 137.4 C 41.6 137.0 42.3 137.5 41.4 137.4 C 41.4 137.4 41.4 137.4 41.4 137.4 Z M 38.0 135.6 C 38.2 135.2 38.8 135.6 38.0 135.6 C 38.0 135.6 38.0 135.6 38.0 135.6 Z M 24.5 137.4 C 24.6 137.3 24.6 137.3 24.5 137.4 C 24.5 137.4 24.5 137.4 24.5 137.4 Z M 26.7 138.5 C 25.1 137.1 29.0 139.2 26.7 138.5 C 26.7 138.5 26.7 138.5 26.7 138.5 Z M 24.2 139.1 C 25.0 139.7 22.2 138.9 24.2 139.1 M 25.8 141.4 C 27.6 140.6 24.3 144.3 25.8 141.4 C 25.8 141.4 25.8 141.4 25.8 141.4 Z M 35.1 141.3 C 35.2 141.3 35.2 141.3 35.1 141.3 C 35.1 141.3 35.1 141.3 35.1 141.3 Z M 33.7 136.9 C 35.2 136.8 32.7 137.3 33.7 136.9 C 33.7 136.9 33.7 136.9 33.7 136.9 Z M 19.9 137.4 C 21.5 137.4 18.8 137.8 19.9 137.4 C 19.9 137.4 19.9 137.4 19.9 137.4 Z M 40.2 139.2 C 42.7 138.7 38.7 140.2 40.2 139.2 C 40.2 139.2 40.2 139.2 40.2 139.2 Z M 49.1 136.2 C 49.2 136.2 49.2 136.2 49.1 136.2 C 49.1 136.2 49.1 136.2 49.1 136.2 Z M 50.7 135.3 C 50.7 135.3 50.7 135.3 50.7 135.3 C 50.7 135.3 50.7 135.3 50.7 135.3 Z M 57.9 135.6 C 58.0 135.6 58.0 135.6 57.9 135.6 C 57.9 135.6 57.9 135.6 57.9 135.6 Z M 52.1 134.3 C 52.1 134.3 52.1 134.3 52.1 134.3 C 52.1 134.3 52.1 134.3 52.1 134.3 Z M 56.9 133.8 C 57.0 133.8 57.0 133.8 56.9 133.8 C 56.9 133.8 56.9 133.8 56.9 133.8 Z M 56.0 132.6 C 56.1 132.7 56.1 132.7 56.0 132.6 C 56.0 132.6 56.0 132.6 56.0 132.6 Z M 46.3 141.1 C 46.4 141.1 46.4 141.1 46.3 141.1 C 46.3 141.1 46.3 141.1 46.3 141.1 Z M 27.2 136.7 C 27.4 136.8 27.4 136.8 27.2 136.7 C 27.2 136.7 27.2 136.7 27.2 136.7 Z M 56.6 134.5 C 56.7 134.5 56.7 134.5 56.6 134.5 C 56.6 134.5 56.6 134.5 56.6 134.5 Z M 45.0 137.6 C 45.3 138.9 43.8 136.1 45.3 137.5 C 45.3 137.6 44.9 137.4 45.0 137.6 M 47.0 139.6 C 46.9 139.6 46.9 139.6 47.0 139.6 C 47.0 139.6 47.0 139.6 47.0 139.6 Z M 41.5 141.1 C 41.5 141.2 41.5 141.2 41.5 141.1 C 41.5 141.1 41.5 141.1 41.5 141.1 Z M 51.2 134.2 C 50.9 133.5 52.6 134.5 51.0 134.2 M 58.4 137.8 C 58.0 137.2 59.8 138.1 58.2 137.9 M 18.0 138.0 C 17.8 138.6 16.9 137.7 18.0 138.0 M 40.4 142.0 C 40.2 142.5 39.3 141.8 40.4 142.0 M 42.8 140.0 C 42.4 139.3 44.2 140.4 42.6 140.0 M 54.7 138.5 C 54.8 138.5 54.8 138.5 54.7 138.5 C 54.7 138.5 54.7 138.5 54.7 138.5 Z M 36.1 136.8 C 36.1 136.8 36.1 136.8 36.1 136.8 C 36.1 136.8 36.1 136.8 36.1 136.8 Z M 43.0 137.6 C 41.9 136.7 44.2 138.0 43.0 137.6 M 34.3 138.7 C 32.8 137.6 36.5 138.9 34.3 138.7 M 61.2 137.6 C 59.4 136.4 62.4 138.1 61.2 137.6 M 53.4 135.2 C 51.7 134.0 54.6 135.9 53.4 135.2 M 37.5 137.3 C 37.3 136.5 39.0 137.6 37.5 137.3 M 21.7 137.7 C 20.2 137.6 23.6 137.0 21.7 137.7 M 51.1 139.1 C 51.2 139.2 51.2 139.2 51.1 139.1 C 51.1 139.1 51.1 139.1 51.1 139.1 Z M 26.9 143.2 C 27.0 143.3 27.0 143.3 26.9 143.2 C 26.9 143.2 26.9 143.2 26.9 143.2 Z M 61.9 132.3 C 62.0 132.4 62.0 132.4 61.9 132.3 C 61.9 132.3 61.9 132.3 61.9 132.3 Z M 52.6 136.1 C 52.7 136.2 52.7 136.2 52.6 136.1 C 52.6 136.1 52.6 136.1 52.6 136.1 Z M 59.2 132.7 C 59.3 132.8 59.3 132.8 59.2 132.7 C 59.2 132.7 59.2 132.7 59.2 132.7 Z M 48.2 138.0 C 48.3 138.0 48.3 138.0 48.2 138.0 C 48.2 138.0 48.2 138.0 48.2 138.0 Z M 46.8 134.3 C 46.8 134.3 46.8 134.3 46.8 134.3 C 46.8 134.3 46.8 134.3 46.8 134.3 Z M 42.0 136.6 C 42.0 136.7 42.0 136.7 42.0 136.6 C 42.0 136.6 42.0 136.6 42.0 136.6 Z M 49.0 134.3 C 52.0 133.6 47.8 135.8 49.0 134.3 C 49.0 134.3 49.0 134.3 49.0 134.3 Z M 44.4 138.8 C 44.5 138.9 44.5 138.9 44.4 138.8 C 44.4 138.8 44.4 138.8 44.4 138.8 Z M 43.7 136.2 C 45.4 134.8 44.9 137.9 43.7 136.2 M 35.1 136.3 C 35.6 135.6 35.5 137.1 35.1 136.3 M 32.1 141.6 C 32.1 141.7 32.1 141.7 32.1 141.6 C 32.1 141.6 32.1 141.6 32.1 141.6 Z M 33.0 141.1 C 33.1 141.2 33.1 141.2 33.0 141.1 C 33.0 141.1 33.0 141.1 33.0 141.1 Z M 33.0 136.2 C 33.0 136.3 33.0 136.3 33.0 136.2 C 33.0 136.2 33.0 136.2 33.0 136.2 Z M 33.3 142.6 C 33.4 142.6 33.4 142.6 33.3 142.6 C 33.3 142.6 33.3 142.6 33.3 142.6 Z M 45.6 134.6 C 45.7 134.6 45.7 134.6 45.6 134.6 C 45.6 134.6 45.6 134.6 45.6 134.6 Z M 60.5 131.9 C 60.5 131.9 60.5 131.9 60.5 131.9 C 60.5 131.9 60.5 131.9 60.5 131.9 Z M 22.3 141.7 C 22.4 141.8 22.4 141.8 22.3 141.7 C 22.3 141.7 22.3 141.7 22.3 141.7 Z M 47.4 135.8 C 47.5 135.9 47.5 135.9 47.4 135.8 C 47.4 135.8 47.4 135.8 47.4 135.8 Z M 29.8 141.6 C 29.9 141.6 29.9 141.6 29.8 141.6 C 29.8 141.6 29.8 141.6 29.8 141.6 Z M 46.4 135.7 C 46.4 135.7 46.4 135.7 46.4 135.7 C 46.4 135.7 46.4 135.7 46.4 135.7 Z M 50.7 139.5 C 50.7 139.6 50.7 139.6 50.7 139.5 C 50.7 139.5 50.7 139.5 50.7 139.5 Z M 54.1 139.8 C 54.2 139.8 54.2 139.8 54.1 139.8 C 54.1 139.8 54.1 139.8 54.1 139.8 Z M 50.0 136.9 C 50.1 137.0 50.1 137.0 50.0 136.9 C 50.0 136.9 50.0 136.9 50.0 136.9 Z M 28.5 140.0 C 22.1 139.1 33.5 139.0 28.5 140.0 M 51.1 137.1 C 46.9 137.5 54.2 135.0 51.1 137.1 C 51.5 136.6 51.2 137.0 51.1 137.1 M 63.2 131.4 C 61.9 133.1 62.2 134.5 63.2 135.7 C 64.2 136.3 63.5 133.5 64.1 135.8 C 62.3 136.7 65.7 139.2 65.0 136.2 C 67.4 135.1 65.9 138.0 67.1 136.4 C 69.7 135.5 68.5 136.7 70.5 136.0 C 71.3 134.1 71.9 136.5 72.0 134.8 C 71.5 136.8 74.0 133.8 74.3 134.5 C 72.8 136.0 81.2 132.5 76.4 133.4 C 78.1 132.1 78.1 133.5 78.8 133.5 C 79.4 132.3 82.2 133.3 83.1 132.0 C 82.8 131.8 82.2 132.0 81.9 131.7 C 81.3 131.2 83.2 131.4 83.1 131.4 C 83.7 130.8 86.4 128.8 83.8 131.6 C 83.9 132.4 86.3 130.3 86.4 131.1 C 89.2 130.1 86.5 129.2 88.2 130.0 C 90.2 129.3 91.6 128.7 91.5 128.5 C 92.8 128.3 93.4 129.1 94.1 127.8 C 97.2 128.5 94.4 123.8 96.7 126.8 C 97.1 125.7 98.6 127.6 97.7 125.6 C 97.2 126.8 102.3 125.4 99.6 124.8 C 99.9 124.1 104.1 125.3 102.7 123.4 C 103.1 121.5 102.2 120.1 99.3 119.7 C 100.0 120.7 96.3 119.5 98.9 120.8 C 101.2 120.6 95.6 123.1 96.5 121.9 C 95.7 119.3 94.4 124.5 92.5 123.3 C 93.8 123.8 89.4 126.2 90.0 123.8 C 89.1 124.0 89.2 124.9 87.9 124.2 C 90.7 123.4 87.5 126.6 87.3 125.4 C 87.5 124.5 83.1 125.4 83.9 126.3 C 86.3 128.4 82.6 126.2 82.2 127.5 C 80.0 128.8 81.9 125.1 80.7 127.6 C 80.1 127.4 77.0 128.4 78.8 127.3 C 79.6 127.3 77.8 130.7 76.8 128.6 C 79.8 126.3 72.6 129.1 74.0 129.4 C 79.7 129.1 68.7 132.4 72.6 130.0 C 69.8 129.4 73.2 129.3 70.3 130.7 C 70.9 131.3 68.8 132.6 68.9 131.0 C 67.9 129.0 68.8 134.1 66.3 131.6 C 65.7 130.4 62.8 133.4 63.8 131.7 C 63.9 131.5 63.3 131.4 63.2 131.4 M 64.4 131.4 C 64.1 132.0 63.6 131.0 64.4 131.4 M 64.0 132.0 C 64.0 131.9 64.0 131.9 64.0 132.0 C 64.0 132.0 64.0 132.0 64.0 132.0 Z M 69.9 130.9 C 69.9 130.8 69.9 130.8 69.9 130.9 C 69.9 130.9 69.9 130.9 69.9 130.9 Z M 76.0 134.9 C 75.9 134.9 75.9 134.9 76.0 134.9 C 76.0 134.9 76.0 134.9 76.0 134.9 Z M 73.8 129.9 C 73.7 129.9 73.7 129.9 73.8 129.9 C 73.8 129.9 73.8 129.9 73.8 129.9 Z M 67.9 131.7 C 67.9 131.7 67.9 131.7 67.9 131.7 C 67.9 131.7 67.9 131.7 67.9 131.7 Z M 73.2 129.3 C 73.7 130.0 71.7 129.0 73.2 129.1 C 73.3 129.1 73.0 129.2 73.2 129.3 M 78.0 127.5 C 78.0 127.6 78.0 127.6 78.0 127.5 M 90.8 129.9 C 90.8 130.0 90.8 130.0 90.8 129.9 M 89.3 123.5 C 89.4 123.5 89.4 123.5 89.3 123.5 M 83.0 126.7 C 84.5 126.1 83.5 127.0 83.0 126.7 M 93.2 122.5 C 91.2 122.7 94.9 121.3 93.2 122.5 M 94.7 121.3 C 94.9 121.3 94.9 121.3 94.7 121.3 M 86.8 124.8 C 86.8 124.8 86.8 124.8 86.8 124.8 C 86.8 124.8 86.8 124.8 86.8 124.8 Z M 82.3 126.6 C 80.2 126.8 84.0 125.2 82.3 126.6 M 70.4 129.9 C 71.4 129.2 70.6 130.9 70.4 129.9 M 68.2 131.0 C 68.2 131.0 68.2 131.0 68.2 131.0 C 68.2 131.0 68.2 131.0 68.2 131.0 Z M 90.3 123.5 C 90.2 123.6 90.2 123.6 90.3 123.5 C 90.3 123.5 90.3 123.5 90.3 123.5 Z M 92.3 122.6 C 92.2 122.6 92.2 122.6 92.3 122.6 C 92.3 122.6 92.3 122.6 92.3 122.6 Z M 98.1 126.8 C 98.0 126.8 98.0 126.8 98.1 126.8 C 98.1 126.8 98.1 126.8 98.1 126.8 Z M 70.6 133.0 C 69.0 132.9 71.6 130.6 71.7 132.1 C 72.0 132.7 70.7 132.8 70.6 133.0 M 81.5 128.8 C 82.5 130.7 79.2 126.6 81.5 128.8 M 95.5 122.4 C 97.8 124.1 93.1 121.6 95.5 122.4 M 98.0 120.8 C 99.0 120.9 93.1 123.3 96.9 120.9 C 97.2 120.4 97.6 120.7 98.0 120.8 M 78.3 128.4 C 79.1 129.4 75.9 128.7 78.3 128.4 M 88.3 128.6 C 88.8 127.7 90.4 126.4 90.0 127.9 C 90.6 129.4 87.7 129.5 88.3 128.6 M 65.1 132.4 C 65.9 130.3 65.4 134.0 65.1 132.4 M 71.0 131.1 C 71.0 131.0 71.0 131.0 71.0 131.1 C 71.0 131.1 71.0 131.1 71.0 131.1 Z M 73.2 130.2 C 73.4 130.3 73.4 130.3 73.2 130.2 M 65.7 130.6 C 65.8 130.7 65.8 130.7 65.7 130.6 M 87.6 126.9 C 87.8 127.0 87.8 127.0 87.6 126.9 M 82.8 127.3 C 85.5 128.3 81.7 128.1 82.8 127.3 M 78.5 132.4 C 79.4 133.0 77.1 132.9 78.5 132.4 M 86.0 125.4 C 88.1 126.5 84.5 127.7 86.0 125.4 M 81.6 127.5 C 81.7 127.5 81.7 127.5 81.6 127.5 C 81.6 127.5 81.6 127.5 81.6 127.5 Z M 89.0 128.6 C 88.9 128.7 88.9 128.7 89.0 128.6 C 89.0 128.6 89.0 128.6 89.0 128.6 Z M 89.6 128.3 C 89.5 128.4 89.5 128.4 89.6 128.3 C 89.6 128.3 89.6 128.3 89.6 128.3 Z M 87.8 124.6 C 87.8 124.6 87.8 124.6 87.8 124.6 C 87.8 124.6 87.8 124.6 87.8 124.6 Z M 69.2 135.6 C 70.9 135.3 68.0 136.2 69.2 135.6 C 69.2 135.6 69.2 135.6 69.2 135.6 Z M 75.0 128.8 C 77.9 129.3 73.5 130.5 75.0 128.8 C 75.0 128.8 75.0 128.8 75.0 128.8 Z M 78.6 130.0 C 78.6 130.1 78.6 130.1 78.6 130.0 C 78.6 130.0 78.6 130.0 78.6 130.0 Z M 84.7 124.8 C 84.8 124.9 84.8 124.9 84.7 124.8 C 84.7 124.8 84.7 124.8 84.7 124.8 Z M 70.1 135.6 C 70.1 135.7 70.1 135.7 70.1 135.6 C 70.1 135.6 70.1 135.6 70.1 135.6 Z M 92.3 123.8 C 92.4 123.9 92.4 123.9 92.3 123.8 C 92.3 123.8 92.3 123.8 92.3 123.8 Z M 84.9 130.4 C 85.2 129.6 85.2 130.8 84.9 130.4 C 84.9 130.4 84.9 130.4 84.9 130.4 Z M 87.2 129.6 C 87.3 129.5 87.3 129.5 87.2 129.6 C 87.2 129.6 87.2 129.6 87.2 129.6 Z M 95.2 120.9 C 95.2 120.9 95.2 120.9 95.2 120.9 C 95.2 120.9 95.2 120.9 95.2 120.9 Z M 93.6 128.9 C 93.7 128.8 93.7 128.8 93.6 128.9 C 93.6 128.9 93.6 128.9 93.6 128.9 Z M 94.7 126.2 C 94.7 126.3 94.7 126.3 94.7 126.2 C 94.7 126.2 94.7 126.2 94.7 126.2 Z M 87.5 125.1 C 89.7 124.0 87.3 126.0 87.5 125.1 C 87.5 125.1 87.5 125.1 87.5 125.1 Z M 99.9 123.4 C 100.1 123.5 100.1 123.5 99.9 123.4 C 99.9 123.4 99.9 123.4 99.9 123.4 Z M 100.1 120.7 C 100.2 120.8 100.2 120.8 100.1 120.7 C 100.1 120.7 100.1 120.7 100.1 120.7 Z M 100.1 119.4 C 100.2 119.4 100.2 119.4 100.1 119.4 C 100.1 119.4 100.1 119.4 100.1 119.4 Z M 73.9 132.6 C 73.8 132.6 73.8 132.6 73.9 132.6 C 73.9 132.6 73.9 132.6 73.9 132.6 Z M 71.9 129.2 C 71.9 129.2 71.9 129.2 71.9 129.2 C 71.9 129.2 71.9 129.2 71.9 129.2 Z M 75.0 128.1 C 75.0 128.1 75.0 128.1 75.0 128.1 C 75.0 128.1 75.0 128.1 75.0 128.1 Z M 73.9 135.0 C 73.8 135.0 73.8 135.0 73.9 135.0 C 73.9 135.0 73.9 135.0 73.9 135.0 Z M 84.9 128.2 C 84.8 128.1 84.8 128.1 84.9 128.2 C 84.9 128.2 84.9 128.2 84.9 128.2 Z M 86.5 129.3 C 86.4 129.2 86.4 129.2 86.5 129.3 C 86.5 129.3 86.5 129.3 86.5 129.3 Z M 84.4 132.2 C 84.4 132.1 84.4 132.1 84.4 132.2 C 84.4 132.2 84.4 132.2 84.4 132.2 Z M 87.8 130.2 C 87.7 130.2 87.7 130.2 87.8 130.2 C 87.8 130.2 87.8 130.2 87.8 130.2 Z M 65.4 136.5 C 65.4 136.5 65.4 136.5 65.4 136.5 C 65.4 136.5 65.4 136.5 65.4 136.5 Z M 64.5 133.7 C 64.5 133.8 64.5 133.8 64.5 133.7 C 64.5 133.7 64.5 133.7 64.5 133.7 Z M 84.5 126.1 C 84.8 125.3 85.8 126.5 84.5 126.1 M 80.2 127.9 C 80.2 127.9 80.2 127.9 80.2 127.9 C 80.2 127.9 80.2 127.9 80.2 127.9 Z M 91.8 123.4 C 92.7 124.3 89.5 123.7 91.8 123.4 C 91.8 123.4 91.8 123.4 91.8 123.4 Z M 91.3 128.9 C 91.3 128.9 91.3 128.9 91.3 128.9 C 91.3 128.9 91.3 128.9 91.3 128.9 Z M 92.2 128.0 C 92.4 128.1 92.4 128.1 92.2 128.0 C 92.2 128.0 92.2 128.0 92.2 128.0 Z M 97.2 122.5 C 97.4 122.6 97.4 122.6 97.2 122.5 M 79.3 127.1 C 80.2 127.4 80.0 127.3 79.3 127.1 M 93.2 122.9 C 93.2 123.0 93.2 123.0 93.2 122.9 C 93.2 122.9 93.2 122.9 93.2 122.9 Z M 98.3 121.3 C 98.2 121.4 98.2 121.4 98.3 121.3 C 98.3 121.3 98.3 121.3 98.3 121.3 Z M 76.4 128.8 C 76.9 130.1 76.2 130.0 76.4 128.8 M 67.4 131.7 C 67.5 131.8 67.5 131.8 67.4 131.7 C 67.4 131.7 67.4 131.7 67.4 131.7 Z M 104.3 117.3 C 101.5 117.0 102.4 119.0 102.4 119.1 C 101.4 116.3 101.0 121.1 101.7 121.4 C 101.7 121.8 105.8 125.6 106.0 122.0 C 106.2 121.5 106.9 122.2 107.2 122.1 C 109.9 120.6 104.6 121.6 107.9 119.9 C 108.7 120.0 109.2 122.5 110.3 120.0 C 110.5 120.2 113.2 119.8 111.8 119.2 C 113.4 119.7 113.4 118.1 114.2 117.3 C 115.4 117.4 114.4 119.3 116.8 116.3 C 119.2 117.3 117.8 114.0 120.2 115.2 C 121.0 114.8 120.2 110.9 119.5 113.8 C 119.6 113.4 117.6 112.6 120.3 111.6 C 120.2 112.3 121.0 116.3 123.7 112.4 C 124.4 112.1 125.2 110.3 125.8 110.4 C 124.1 112.1 129.3 110.0 128.2 109.4 C 131.6 108.0 128.9 107.8 131.7 107.3 C 133.5 106.1 130.2 106.4 132.9 105.6 C 134.3 104.3 133.8 105.8 133.6 105.9 C 135.1 105.0 135.2 104.1 135.7 103.8 C 136.1 103.7 137.2 103.8 136.9 102.8 C 137.2 100.4 134.9 100.1 134.4 98.2 C 132.9 98.4 134.8 99.6 133.3 99.2 C 133.5 100.4 133.2 99.2 130.6 101.5 C 130.8 101.6 131.9 101.7 131.3 102.3 C 130.1 103.0 129.2 100.1 128.6 103.1 C 131.1 102.0 126.1 106.0 128.5 105.1 C 126.2 107.2 127.6 105.4 125.4 106.1 C 126.6 107.6 124.1 104.5 124.3 106.3 C 123.6 105.7 120.9 108.0 123.7 107.5 C 121.0 110.0 122.2 107.8 120.6 107.6 C 119.1 108.4 122.2 110.4 120.0 108.9 C 117.6 109.2 120.6 110.0 118.3 109.2 C 119.7 110.3 116.9 110.0 118.3 111.3 C 115.2 113.4 117.8 109.4 116.2 111.8 C 116.9 111.5 115.4 109.5 114.8 111.7 C 116.8 113.8 111.7 110.6 114.6 113.3 C 110.6 116.8 113.1 112.4 110.6 113.7 C 109.9 114.1 111.9 114.5 111.3 114.8 C 107.8 116.1 110.1 113.8 109.2 116.3 C 106.2 118.5 107.5 115.4 105.9 116.1 C 106.2 117.0 105.5 119.0 104.3 117.3 M 107.7 116.7 C 108.1 115.8 108.4 117.0 107.7 116.7 M 100.7 119.1 C 101.1 118.3 101.3 119.5 100.7 119.1 M 110.1 114.8 C 110.7 113.7 110.8 115.5 110.1 114.8 M 127.2 105.2 C 126.1 105.9 127.4 104.4 127.2 105.2 M 103.2 117.8 C 103.9 116.7 104.0 118.6 103.2 117.8 M 102.7 119.7 C 102.8 119.7 102.8 119.7 102.7 119.7 M 127.9 102.8 C 128.0 102.8 128.0 102.8 127.9 102.8 M 123.6 105.8 C 124.6 105.2 123.3 106.4 123.6 105.8 M 127.0 111.1 C 128.0 110.4 126.6 111.8 127.0 111.1 M 130.1 101.0 C 130.7 100.0 130.8 101.4 130.1 101.0 M 133.3 100.3 C 133.7 99.3 134.2 100.4 133.3 100.3 M 108.1 118.9 C 108.1 119.0 108.1 119.0 108.1 118.9 C 108.1 118.9 108.1 118.9 108.1 118.9 Z M 117.5 115.5 C 116.1 115.6 119.1 115.4 117.5 115.5 M 113.8 112.9 C 115.1 113.6 112.5 113.5 113.8 112.9 C 113.8 112.9 113.8 112.9 113.8 112.9 Z M 112.6 114.2 C 112.7 114.3 112.7 114.3 112.6 114.2 C 112.6 114.2 112.6 114.2 112.6 114.2 Z M 117.4 111.5 C 117.4 111.6 117.4 111.6 117.4 111.5 C 117.4 111.5 117.4 111.5 117.4 111.5 Z M 116.5 112.2 C 116.3 112.7 115.8 112.3 116.5 112.2 C 116.5 112.2 116.5 112.2 116.5 112.2 Z M 125.5 111.3 C 125.2 111.8 124.8 111.4 125.5 111.3 C 125.5 111.3 125.5 111.3 125.5 111.3 Z M 115.2 113.4 C 115.8 114.6 114.1 113.1 115.2 113.4 C 115.2 113.4 115.2 113.4 115.2 113.4 Z M 121.9 113.0 C 122.1 112.4 123.4 113.4 121.9 113.0 M 128.9 102.3 C 129.1 101.8 130.5 102.7 128.9 102.3 M 119.3 108.5 C 119.5 107.9 120.8 109.0 119.3 108.5 M 108.0 115.9 C 108.1 116.0 108.1 116.0 108.0 115.9 M 116.3 117.6 C 116.8 116.8 117.0 117.9 116.3 117.6 M 106.2 122.5 C 106.7 121.7 106.8 122.8 106.2 122.5 M 131.1 108.0 C 130.8 107.8 132.1 107.5 131.1 108.0 M 121.5 109.5 C 122.5 109.0 123.7 109.1 121.9 110.1 C 121.6 110.0 122.0 109.5 121.5 109.5 C 121.5 109.5 121.5 109.5 121.5 109.5 Z M 126.2 109.9 C 126.4 109.9 126.4 109.9 126.2 109.9 M 122.4 107.5 C 122.6 107.5 122.6 107.5 122.4 107.5 M 127.3 104.3 C 127.5 104.3 127.5 104.3 127.3 104.3 M 127.7 103.5 C 127.7 103.6 127.7 103.6 127.7 103.5 C 127.7 103.5 127.7 103.5 127.7 103.5 Z M 132.5 99.3 C 132.5 99.3 132.5 99.3 132.5 99.3 C 132.5 99.3 132.5 99.3 132.5 99.3 Z M 125.8 105.5 C 125.9 105.5 125.9 105.5 125.8 105.5 C 125.8 105.5 125.8 105.5 125.8 105.5 Z M 133.1 106.3 C 133.1 106.3 133.1 106.3 133.1 106.3 C 133.1 106.3 133.1 106.3 133.1 106.3 Z M 132.1 106.1 C 132.1 106.1 132.1 106.1 132.1 106.1 C 132.1 106.1 132.1 106.1 132.1 106.1 Z M 104.8 117.1 C 105.2 115.9 106.2 118.9 104.8 117.1 M 134.4 104.3 C 135.6 104.5 133.3 105.4 134.4 104.3 C 134.4 104.3 134.4 104.3 134.4 104.3 Z M 125.9 106.8 C 126.0 106.9 126.0 106.9 125.9 106.8 M 128.0 103.4 C 128.2 103.5 128.2 103.5 128.0 103.4 M 113.2 111.9 C 113.4 112.0 113.4 112.0 113.2 111.9 M 131.8 100.9 C 134.2 99.5 131.9 103.1 131.8 100.9 M 112.7 113.6 C 112.6 113.5 112.6 113.5 112.7 113.6 M 119.3 112.4 C 120.8 111.4 119.1 113.4 119.3 112.4 M 122.4 108.5 C 122.4 108.6 122.4 108.6 122.4 108.5 C 122.4 108.5 122.4 108.5 122.4 108.5 Z M 120.1 110.0 C 119.1 110.9 119.6 109.9 120.1 110.0 C 120.1 110.0 120.1 110.0 120.1 110.0 Z M 106.5 117.6 C 108.1 116.9 105.1 118.8 106.5 117.6 C 106.5 117.6 106.5 117.6 106.5 117.6 Z M 132.6 104.0 C 132.6 104.1 132.6 104.1 132.6 104.0 C 132.6 104.0 132.6 104.0 132.6 104.0 Z M 125.1 104.9 C 124.6 105.7 124.5 104.9 125.1 104.9 C 125.1 104.9 125.1 104.9 125.1 104.9 Z M 133.3 98.7 C 132.8 99.4 132.7 98.6 133.3 98.7 C 133.3 98.7 133.3 98.7 133.3 98.7 Z M 104.5 118.3 C 111.2 117.4 96.6 121.7 104.5 118.3 C 104.5 118.3 104.5 118.3 104.5 118.3 Z M 120.6 108.7 C 120.6 108.8 120.6 108.8 120.6 108.7 C 120.6 108.7 120.6 108.7 120.6 108.7 Z M 110.0 113.9 C 110.0 114.0 110.0 114.0 110.0 113.9 C 110.0 113.9 110.0 113.9 110.0 113.9 Z M 108.8 115.9 C 108.8 116.0 108.8 116.0 108.8 115.9 C 108.8 115.9 108.8 115.9 108.8 115.9 Z M 111.7 120.0 C 111.7 120.1 111.7 120.1 111.7 120.0 C 111.7 120.0 111.7 120.0 111.7 120.0 Z M 111.2 117.7 C 111.2 117.9 111.2 117.9 111.2 117.7 C 111.2 117.7 111.2 117.7 111.2 117.7 Z M 107.9 120.4 C 107.9 120.5 107.9 120.5 107.9 120.4 C 107.9 120.4 107.9 120.4 107.9 120.4 Z M 108.3 121.0 C 108.3 121.0 108.3 121.0 108.3 121.0 C 108.3 121.0 108.3 121.0 108.3 121.0 Z M 128.9 104.6 C 128.9 104.7 128.9 104.7 128.9 104.6 C 128.9 104.6 128.9 104.6 128.9 104.6 Z M 128.3 107.5 C 129.1 106.1 128.5 108.7 128.3 107.5 C 128.3 107.5 128.3 107.5 128.3 107.5 Z M 116.5 113.9 C 117.6 113.0 116.0 114.9 116.5 113.9 C 116.5 113.9 116.5 113.9 116.5 113.9 Z M 119.2 115.5 C 119.2 115.5 119.2 115.5 119.2 115.5 C 119.2 115.5 119.2 115.5 119.2 115.5 Z M 108.3 114.9 C 108.3 115.0 108.3 115.0 108.3 114.9 C 108.3 114.9 108.3 114.9 108.3 114.9 Z M 106.4 116.8 C 106.8 117.8 105.5 116.7 106.4 116.8 M 117.1 110.1 C 117.2 110.2 117.2 110.2 117.1 110.1 C 117.1 110.1 117.1 110.1 117.1 110.1 Z M 124.7 107.1 C 124.8 107.2 124.8 107.2 124.7 107.1 C 124.7 107.1 124.7 107.1 124.7 107.1 Z M 130.8 101.9 C 130.9 102.1 130.9 102.1 130.8 101.9 C 130.8 101.9 130.8 101.9 130.8 101.9 Z M 121.4 107.5 C 121.4 107.7 121.4 107.7 121.4 107.5 C 121.4 107.5 121.4 107.5 121.4 107.5 Z M 118.7 110.4 C 118.8 110.5 118.8 110.5 118.7 110.4 C 118.7 110.4 118.7 110.4 118.7 110.4 Z M 133.1 102.1 C 133.1 102.2 133.1 102.2 133.1 102.1 C 133.1 102.1 133.1 102.1 133.1 102.1 Z M 122.0 106.9 C 122.0 107.0 122.0 107.0 122.0 106.9 C 122.0 106.9 122.0 106.9 122.0 106.9 Z M 125.8 108.4 C 125.8 108.5 125.8 108.5 125.8 108.4 C 125.8 108.4 125.8 108.4 125.8 108.4 Z M 106.1 115.3 C 106.1 115.3 106.1 115.3 106.1 115.3 C 106.1 115.3 106.1 115.3 106.1 115.3 Z M 132.3 100.9 C 132.3 101.0 132.3 101.0 132.3 100.9 C 132.3 100.9 132.3 100.9 132.3 100.9 Z M 132.1 99.9 C 132.1 99.9 132.1 99.9 132.1 99.9 C 132.1 99.9 132.1 99.9 132.1 99.9 Z M 130.6 107.3 C 127.9 108.5 132.5 105.6 130.1 105.9 C 133.3 103.2 131.1 106.9 130.6 107.3 C 130.6 107.3 130.6 107.3 130.6 107.3 Z M 134.8 97.3 C 134.5 99.3 135.3 100.4 136.8 101.1 C 137.8 101.2 136.0 99.0 137.6 100.8 C 136.4 102.3 140.5 103.1 138.5 100.8 C 140.1 98.9 140.0 102.0 140.4 100.2 C 142.1 98.3 141.7 99.8 143.1 98.4 C 142.9 96.3 144.5 98.2 143.8 96.7 C 144.3 98.7 145.1 94.9 145.7 95.5 C 145.1 97.5 150.7 90.8 146.9 93.6 C 147.8 91.7 148.5 93.0 149.1 92.7 C 149.0 91.4 152.0 91.1 152.1 89.5 C 151.8 89.5 151.3 89.9 151.0 89.8 C 150.3 89.5 152.0 88.9 151.9 89.0 C 152.2 88.2 153.6 85.2 152.6 88.9 C 153.0 89.6 154.2 86.6 154.7 87.2 C 156.7 85.1 154.0 85.6 155.8 85.5 C 157.2 84.0 158.2 82.8 158.1 82.7 C 159.1 81.9 160.0 82.3 160.0 80.8 C 163.1 80.1 158.5 77.2 161.9 78.8 C 161.7 77.6 164.0 78.6 162.2 77.2 C 162.4 78.6 166.4 74.9 163.6 75.7 C 163.6 74.9 167.9 74.0 165.8 73.0 C 165.3 71.0 163.9 70.2 161.0 71.2 C 162.2 71.8 158.3 72.5 161.2 72.4 C 163.2 71.1 159.3 76.0 159.5 74.5 C 157.7 72.5 158.8 77.8 156.5 77.6 C 158.0 77.5 155.1 81.6 154.6 79.2 C 153.8 79.7 154.4 80.5 152.9 80.5 C 155.0 78.4 153.6 82.7 152.8 81.8 C 152.6 80.9 149.2 83.7 150.3 84.1 C 153.3 84.9 149.1 84.6 149.3 85.9 C 148.0 88.0 148.0 84.0 148.1 86.6 C 147.5 86.7 145.2 89.0 146.3 87.2 C 147.0 86.8 147.0 90.7 145.1 89.2 C 146.7 85.9 141.7 91.4 143.1 91.1 C 147.8 88.5 139.9 95.9 142.1 92.2 C 139.5 92.8 142.3 91.4 140.5 93.7 C 141.3 94.0 140.0 96.0 139.5 94.6 C 137.7 93.2 140.8 97.4 137.5 96.2 C 136.4 95.4 135.4 99.2 135.4 97.2 C 135.4 97.1 134.9 97.2 134.8 97.3 M 135.8 96.8 C 135.8 97.4 134.9 96.7 135.8 96.8 M 135.7 97.4 C 135.7 97.4 135.7 97.4 135.7 97.4 C 135.7 97.4 135.7 97.4 135.7 97.4 Z M 140.2 94.1 C 140.2 94.0 140.2 94.0 140.2 94.1 C 140.2 94.1 140.2 94.1 140.2 94.1 Z M 147.3 95.2 C 147.2 95.1 147.2 95.1 147.3 95.2 C 147.3 95.2 147.3 95.2 147.3 95.2 Z M 143.1 91.7 C 143.1 91.7 143.1 91.7 143.1 91.7 C 143.1 91.7 143.1 91.7 143.1 91.7 Z M 138.9 95.6 C 138.9 95.7 138.9 95.7 138.9 95.6 C 138.9 95.6 138.9 95.6 138.9 95.6 Z M 142.3 91.3 C 143.1 91.7 140.9 91.7 142.3 91.2 C 142.3 91.2 142.2 91.3 142.3 91.3 M 145.6 87.7 C 145.7 87.8 145.7 87.8 145.6 87.7 M 158.0 84.3 C 158.1 84.4 158.1 84.4 158.0 84.3 M 153.8 79.2 C 153.9 79.2 153.9 79.2 153.8 79.2 M 149.7 84.9 C 150.7 83.7 150.3 84.9 149.7 84.9 M 156.8 76.5 C 155.1 77.6 157.8 74.7 156.8 76.5 M 157.6 74.8 C 157.8 74.7 157.8 74.7 157.6 74.8 M 152.1 81.5 C 152.1 81.5 152.1 81.5 152.1 81.5 C 152.1 81.5 152.1 81.5 152.1 81.5 Z M 149.0 85.1 C 147.3 86.2 149.9 83.1 149.0 85.1 M 140.2 93.0 C 140.7 92.0 140.9 93.8 140.2 93.0 M 138.8 94.8 C 138.9 94.9 138.9 94.9 138.8 94.8 C 138.8 94.8 138.8 94.8 138.8 94.8 Z M 154.7 78.8 C 154.7 78.9 154.7 78.9 154.7 78.8 C 154.7 78.8 154.7 78.8 154.7 78.8 Z M 156.0 77.1 C 156.0 77.1 156.0 77.1 156.0 77.1 C 156.0 77.1 156.0 77.1 156.0 77.1 Z M 163.1 78.2 C 163.1 78.2 163.1 78.2 163.1 78.2 C 163.1 78.2 163.1 78.2 163.1 78.2 Z M 141.7 95.7 C 140.4 96.3 141.5 93.2 142.3 94.5 C 142.9 94.8 141.8 95.4 141.7 95.7 M 149.3 87.4 C 151.0 88.6 146.3 86.4 149.3 87.4 M 158.8 75.5 C 161.7 75.9 156.3 75.8 158.8 75.5 M 160.4 72.8 C 161.4 72.4 157.1 77.4 159.5 73.4 C 159.4 72.8 160.0 72.9 160.4 72.8 M 146.4 88.4 C 147.5 88.9 144.4 89.7 146.4 88.4 M 155.3 84.2 C 155.2 83.2 156.1 81.3 156.4 82.8 C 157.6 83.9 155.1 85.3 155.3 84.2 M 136.8 97.4 C 136.6 95.2 137.8 98.6 136.8 97.4 M 141.3 93.8 C 141.2 93.8 141.2 93.8 141.3 93.8 C 141.3 93.8 141.3 93.8 141.3 93.8 Z M 142.7 92.1 C 142.9 92.1 142.9 92.1 142.7 92.1 M 136.5 95.6 C 136.7 95.6 136.7 95.6 136.5 95.6 M 153.9 83.0 C 154.0 83.0 154.0 83.0 153.9 83.0 M 149.7 85.5 C 152.6 85.2 149.2 86.6 149.7 85.5 M 148.3 91.8 C 149.4 92.0 147.3 92.9 148.3 91.8 M 151.8 82.4 C 154.1 82.4 151.5 85.1 151.8 82.4 M 148.8 86.2 C 148.9 86.1 148.9 86.1 148.8 86.2 C 148.8 86.2 148.8 86.2 148.8 86.2 Z M 155.8 83.9 C 155.8 84.0 155.8 84.0 155.8 83.9 C 155.8 83.9 155.8 83.9 155.8 83.9 Z M 156.2 83.4 C 156.2 83.4 156.2 83.4 156.2 83.4 C 156.2 83.4 156.2 83.4 156.2 83.4 Z M 152.9 80.8 C 152.9 80.9 152.9 80.9 152.9 80.8 C 152.9 80.8 152.9 80.8 152.9 80.8 Z M 141.8 98.5 C 143.1 97.6 141.1 99.6 141.8 98.5 C 141.8 98.5 141.8 98.5 141.8 98.5 Z M 143.6 90.1 C 146.4 89.4 143.2 92.3 143.6 90.1 C 143.6 90.1 143.6 90.1 143.6 90.1 Z M 147.3 89.7 C 147.4 89.8 147.4 89.8 147.3 89.7 C 147.3 89.7 147.3 89.7 147.3 89.7 Z M 150.3 82.4 C 150.4 82.5 150.4 82.5 150.3 82.4 C 150.3 82.4 150.3 82.4 150.3 82.4 Z M 142.6 98.2 C 142.6 98.3 142.6 98.3 142.6 98.2 C 142.6 98.2 142.6 98.2 142.6 98.2 Z M 156.6 78.1 C 156.7 78.2 156.7 78.2 156.6 78.1 C 156.6 78.1 156.6 78.1 156.6 78.1 Z M 153.0 87.3 C 152.9 86.4 153.5 87.6 153.0 87.3 C 153.0 87.3 153.0 87.3 153.0 87.3 Z M 154.7 85.6 C 154.7 85.5 154.7 85.5 154.7 85.6 C 154.7 85.6 154.7 85.6 154.7 85.6 Z M 157.9 74.3 C 157.9 74.2 157.9 74.2 157.9 74.3 C 157.9 74.3 157.9 74.3 157.9 74.3 Z M 160.1 82.1 C 160.1 82.0 160.1 82.0 160.1 82.1 C 160.1 82.1 160.1 82.1 160.1 82.1 Z M 159.9 79.2 C 159.9 79.2 159.9 79.2 159.9 79.2 C 159.9 79.2 159.9 79.2 159.9 79.2 Z M 153.0 81.4 C 154.3 79.5 153.2 82.4 153.0 81.4 C 153.0 81.4 153.0 81.4 153.0 81.4 Z M 163.3 74.2 C 163.4 74.2 163.4 74.2 163.3 74.2 C 163.3 74.2 163.3 74.2 163.3 74.2 Z M 162.2 71.8 C 162.4 71.8 162.4 71.8 162.2 71.8 C 162.2 71.8 162.2 71.8 162.2 71.8 Z M 161.7 70.5 C 161.8 70.6 161.8 70.6 161.7 70.5 C 161.7 70.5 161.7 70.5 161.7 70.5 Z M 144.4 94.0 C 144.3 94.0 144.3 94.0 144.4 94.0 C 144.4 94.0 144.4 94.0 144.4 94.0 Z M 141.2 91.8 C 141.1 91.8 141.1 91.8 141.2 91.8 C 141.2 91.8 141.2 91.8 141.2 91.8 Z M 143.4 89.5 C 143.3 89.5 143.3 89.5 143.4 89.5 C 143.4 89.5 143.4 89.5 143.4 89.5 Z M 145.6 96.1 C 145.5 96.1 145.5 96.1 145.6 96.1 C 145.6 96.1 145.6 96.1 145.6 96.1 Z M 152.0 85.4 C 151.9 85.4 151.9 85.4 152.0 85.4 C 152.0 85.4 152.0 85.4 152.0 85.4 Z M 153.9 85.6 C 153.8 85.6 153.8 85.6 153.9 85.6 C 153.9 85.6 153.9 85.6 153.9 85.6 Z M 153.4 89.1 C 153.4 89.1 153.4 89.1 153.4 89.1 C 153.4 89.1 153.4 89.1 153.4 89.1 Z M 155.5 85.9 C 155.4 85.9 155.4 85.9 155.5 85.9 C 155.5 85.9 155.5 85.9 155.5 85.9 Z M 139.0 100.9 C 139.0 100.9 139.0 100.9 139.0 100.9 C 139.0 100.9 139.0 100.9 139.0 100.9 Z M 136.9 98.8 C 136.9 98.9 136.9 98.9 136.9 98.8 C 136.9 98.8 136.9 98.8 136.9 98.8 Z M 150.7 83.6 C 150.6 82.8 152.0 83.4 150.7 83.6 M 147.8 87.1 C 147.8 87.2 147.8 87.2 147.8 87.1 C 147.8 87.1 147.8 87.1 147.8 87.1 Z M 156.0 78.0 C 157.2 78.4 154.1 79.3 156.0 78.0 C 156.0 78.0 156.0 78.0 156.0 78.0 Z M 158.0 83.1 C 158.0 83.1 158.0 83.1 158.0 83.1 C 158.0 83.1 158.0 83.1 158.0 83.1 Z M 158.4 81.9 C 158.6 81.9 158.6 81.9 158.4 81.9 C 158.4 81.9 158.4 81.9 158.4 81.9 Z M 160.4 74.7 C 160.6 74.7 160.6 74.7 160.4 74.7 M 146.6 86.8 C 147.5 86.7 147.3 86.7 146.6 86.8 M 157.0 76.9 C 157.0 77.0 157.0 77.0 157.0 76.9 C 157.0 76.9 157.0 76.9 157.0 76.9 Z M 160.9 73.1 C 160.9 73.2 160.9 73.2 160.9 73.1 C 160.9 73.1 160.9 73.1 160.9 73.1 Z M 144.9 89.6 C 145.9 90.5 145.3 90.7 144.9 89.6 M 138.5 95.9 C 138.6 95.9 138.6 95.9 138.5 95.9 C 138.5 95.9 138.5 95.9 138.5 95.9 Z M 164.6 66.7 C 161.9 67.8 163.6 69.1 163.7 69.1 C 161.5 67.1 163.2 71.7 164.0 71.6 C 164.2 71.9 169.6 73.5 168.2 70.2 C 168.2 69.5 169.1 69.9 169.3 69.6 C 171.2 67.0 166.8 70.4 169.1 67.3 C 169.8 67.0 171.3 69.1 171.3 66.2 C 171.5 66.3 173.8 64.6 172.3 64.8 C 174.0 64.4 173.3 63.0 173.8 61.9 C 174.9 61.4 174.8 63.6 175.7 59.7 C 178.4 59.4 175.7 57.0 178.4 56.9 C 179.0 56.1 176.6 52.9 177.2 55.9 C 177.2 55.5 174.9 55.8 177.1 53.6 C 177.2 54.2 179.6 57.6 180.6 52.6 C 181.0 51.9 181.2 49.8 181.7 49.7 C 180.8 52.0 184.9 47.5 183.6 47.5 C 186.2 44.5 183.6 45.6 186.1 43.7 C 187.2 41.7 184.2 43.6 186.5 41.5 C 187.4 39.5 187.5 41.2 187.3 41.4 C 188.4 39.8 188.1 38.8 188.4 38.3 C 188.8 38.0 189.9 37.6 189.3 36.7 C 188.6 34.1 186.3 35.0 185.2 33.5 C 183.8 34.4 186.0 34.6 184.4 34.9 C 185.1 36.1 184.3 35.0 182.7 38.6 C 183.0 38.7 184.1 38.1 183.7 39.0 C 182.9 40.3 180.9 38.0 181.4 41.2 C 183.4 38.9 180.2 45.3 182.1 43.2 C 180.7 46.4 181.4 43.9 179.6 45.8 C 181.4 46.6 177.7 44.9 178.6 46.5 C 177.8 46.3 176.1 49.8 178.6 48.0 C 177.0 51.7 177.3 49.0 175.7 49.6 C 174.6 51.1 178.3 51.4 175.7 51.1 C 173.5 52.6 176.6 51.9 174.1 52.3 C 176.0 52.6 173.2 53.8 175.1 54.2 C 173.0 57.7 173.7 52.8 173.2 55.8 C 173.8 55.1 171.6 54.1 171.9 56.4 C 174.7 57.3 168.5 56.9 172.4 57.9 C 170.2 63.2 170.6 57.9 168.9 60.3 C 168.4 61.0 170.4 60.4 170.0 61.0 C 167.3 63.9 168.4 60.6 168.7 63.4 C 166.8 66.8 166.8 63.4 165.5 64.8 C 166.2 65.5 166.5 67.6 164.6 66.7 M 167.4 64.5 C 167.4 63.5 168.2 64.4 167.4 64.5 M 162.1 70.1 C 162.1 69.1 162.8 70.1 162.1 70.1 M 168.8 61.5 C 168.9 60.3 169.8 61.8 168.8 61.5 M 181.0 43.9 C 180.2 45.2 180.9 43.1 181.0 43.9 M 163.8 67.6 C 163.9 66.3 164.8 68.0 163.8 67.6 M 164.2 69.6 C 164.2 69.6 164.2 69.6 164.2 69.6 M 180.7 41.3 C 180.7 41.2 180.7 41.2 180.7 41.3 M 177.8 46.3 C 178.4 45.3 177.8 47.1 177.8 46.3 M 183.1 49.7 C 183.8 48.6 183.1 50.5 183.1 49.7 M 182.1 38.4 C 182.3 37.1 182.9 38.4 182.1 38.4 M 184.9 36.1 C 184.9 34.8 185.8 35.7 184.9 36.1 M 168.8 66.3 C 168.8 66.4 168.8 66.4 168.8 66.3 C 168.8 66.3 168.8 66.3 168.8 66.3 Z M 176.0 58.6 C 174.8 59.3 177.5 57.7 176.0 58.6 M 171.5 57.9 C 173.0 58.0 170.5 59.2 171.5 57.9 C 171.5 57.9 171.5 57.9 171.5 57.9 Z M 171.0 59.8 C 171.0 59.8 171.0 59.8 171.0 59.8 C 171.0 59.8 171.0 59.8 171.0 59.8 Z M 174.3 54.9 C 174.3 55.0 174.3 55.0 174.3 54.9 C 174.3 54.9 174.3 54.9 174.3 54.9 Z M 173.7 56.0 C 173.7 56.5 173.1 56.4 173.7 56.0 C 173.7 56.0 173.7 56.0 173.7 56.0 Z M 181.8 50.7 C 181.7 51.3 181.2 51.1 181.8 50.7 C 181.8 50.7 181.8 50.7 181.8 50.7 Z M 173.1 57.8 C 174.0 58.6 171.9 58.0 173.1 57.8 C 173.1 57.8 173.1 57.8 173.1 57.8 Z M 179.1 54.0 C 179.1 53.4 180.7 53.7 179.1 54.0 M 181.4 40.3 C 181.4 39.7 183.1 39.9 181.4 40.3 M 174.8 51.1 C 174.8 50.5 176.4 50.8 174.8 51.1 M 167.4 63.6 C 167.5 63.6 167.5 63.6 167.4 63.6 M 175.8 61.1 C 175.9 60.1 176.5 61.0 175.8 61.1 M 168.6 70.5 C 168.7 69.5 169.3 70.5 168.6 70.5 M 185.7 44.7 C 185.4 44.6 186.5 43.6 185.7 44.7 M 177.3 50.9 C 178.0 50.0 179.2 49.4 177.9 51.4 C 177.6 51.3 177.8 50.6 177.3 50.9 C 177.3 50.9 177.3 50.9 177.3 50.9 Z M 181.9 48.9 C 182.0 48.9 182.0 48.9 181.9 48.9 M 177.3 48.6 C 177.5 48.5 177.5 48.5 177.3 48.6 M 180.7 43.0 C 180.9 43.0 180.9 43.0 180.7 43.0 M 180.7 42.1 C 180.8 42.2 180.8 42.2 180.7 42.1 C 180.7 42.1 180.7 42.1 180.7 42.1 Z M 183.7 35.5 C 183.7 35.5 183.7 35.5 183.7 35.5 C 183.7 35.5 183.7 35.5 183.7 35.5 Z M 179.8 44.9 C 179.8 45.0 179.8 45.0 179.8 44.9 C 179.8 44.9 179.8 44.9 179.8 44.9 Z M 186.9 42.0 C 187.0 42.0 187.0 42.0 186.9 42.0 C 186.9 42.0 186.9 42.0 186.9 42.0 Z M 185.9 42.3 C 186.0 42.3 186.0 42.3 185.9 42.3 C 185.9 42.3 185.9 42.3 185.9 42.3 Z M 165.0 66.2 C 164.8 65.0 167.1 67.2 165.0 66.2 M 187.5 39.4 C 188.7 38.9 186.8 41.0 187.5 39.4 C 187.5 39.4 187.5 39.4 187.5 39.4 Z M 180.3 46.1 C 180.5 46.1 180.5 46.1 180.3 46.1 M 181.0 41.8 C 181.2 41.8 181.2 41.8 181.0 41.8 M 170.5 57.3 C 170.7 57.4 170.7 57.4 170.5 57.3 M 183.7 37.4 C 185.4 34.8 184.6 39.5 183.7 37.4 M 170.8 59.1 C 170.6 59.1 170.6 59.1 170.8 59.1 M 176.4 54.8 C 177.5 53.1 176.7 55.8 176.4 54.8 M 177.8 49.6 C 177.8 49.7 177.8 49.7 177.8 49.6 C 177.8 49.6 177.8 49.6 177.8 49.6 Z M 176.2 52.1 C 175.6 53.5 175.7 52.3 176.2 52.1 C 176.2 52.1 176.2 52.1 176.2 52.1 Z M 166.7 65.8 C 168.0 64.5 166.0 67.6 166.7 65.8 C 166.7 65.8 166.7 65.8 166.7 65.8 Z M 185.6 40.1 C 185.7 40.2 185.7 40.2 185.6 40.1 C 185.6 40.1 185.6 40.1 185.6 40.1 Z M 178.8 44.8 C 178.7 45.7 178.3 45.0 178.8 44.8 C 178.8 44.8 178.8 44.8 178.8 44.8 Z M 184.2 34.5 C 184.1 35.5 183.7 34.7 184.2 34.5 C 184.2 34.5 184.2 34.5 184.2 34.5 Z M 165.2 67.5 C 171.0 63.4 159.4 74.3 165.2 67.5 C 165.2 67.5 165.2 67.5 165.2 67.5 Z M 176.1 50.7 C 176.1 50.7 176.1 50.7 176.1 50.7 C 176.1 50.7 176.1 50.7 176.1 50.7 Z M 168.4 60.8 C 168.5 60.9 168.5 60.9 168.4 60.8 C 168.4 60.8 168.4 60.8 168.4 60.8 Z M 168.2 63.2 C 168.2 63.3 168.2 63.3 168.2 63.2 C 168.2 63.2 168.2 63.2 168.2 63.2 Z M 172.6 65.6 C 172.6 65.7 172.6 65.7 172.6 65.6 C 172.6 65.6 172.6 65.6 172.6 65.6 Z M 171.1 63.7 C 171.2 63.9 171.2 63.9 171.1 63.7 C 171.1 63.7 171.1 63.7 171.1 63.7 Z M 169.2 67.8 C 169.3 67.9 169.3 67.9 169.2 67.8 C 169.2 67.8 169.2 67.8 169.2 67.8 Z M 169.8 68.1 C 169.9 68.2 169.9 68.2 169.8 68.1 C 169.8 68.1 169.8 68.1 169.8 68.1 Z M 182.3 42.5 C 182.3 42.6 182.3 42.6 182.3 42.5 C 182.3 42.5 182.3 42.5 182.3 42.5 Z M 182.9 45.7 C 183.1 43.8 183.6 46.6 182.9 45.7 C 182.9 45.7 182.9 45.7 182.9 45.7 Z M 174.4 57.6 C 175.0 56.2 174.4 58.8 174.4 57.6 C 174.4 57.6 174.4 57.6 174.4 57.6 Z M 177.6 57.7 C 177.6 57.7 177.6 57.7 177.6 57.7 C 177.6 57.7 177.6 57.7 177.6 57.7 Z M 167.2 62.5 C 167.3 62.6 167.3 62.6 167.2 62.5 C 167.2 62.5 167.2 62.5 167.2 62.5 Z M 166.3 65.2 C 167.1 65.9 165.4 65.5 166.3 65.2 M 173.4 53.7 C 173.5 53.8 173.5 53.8 173.4 53.7 C 173.4 53.7 173.4 53.7 173.4 53.7 Z M 179.4 47.1 C 179.4 47.1 179.4 47.1 179.4 47.1 C 179.4 47.1 179.4 47.1 179.4 47.1 Z M 183.1 39.0 C 183.2 39.1 183.2 39.1 183.1 39.0 C 183.1 39.0 183.1 39.0 183.1 39.0 Z M 176.4 49.2 C 176.5 49.3 176.5 49.3 176.4 49.2 C 176.4 49.2 176.4 49.2 176.4 49.2 Z M 175.1 53.2 C 175.1 53.3 175.1 53.3 175.1 53.2 C 175.1 53.2 175.1 53.2 175.1 53.2 Z M 185.3 37.9 C 185.4 38.0 185.4 38.0 185.3 37.9 C 185.3 37.9 185.3 37.9 185.3 37.9 Z M 176.8 48.2 C 176.8 48.3 176.8 48.3 176.8 48.2 C 176.8 48.2 176.8 48.2 176.8 48.2 Z M 180.9 47.7 C 181.0 47.8 181.0 47.8 180.9 47.7 C 180.9 47.7 180.9 47.7 180.9 47.7 Z M 165.3 64.0 C 165.4 64.0 165.4 64.0 165.3 64.0 C 165.3 64.0 165.3 64.0 165.3 64.0 Z M 184.1 37.2 C 184.2 37.2 184.2 37.2 184.1 37.2 C 184.1 37.2 184.1 37.2 184.1 37.2 Z M 183.5 36.3 C 183.6 36.3 183.6 36.3 183.5 36.3 C 183.5 36.3 183.5 36.3 183.5 36.3 Z M 185.0 44.2 C 182.9 46.7 186.1 41.6 184.0 43.1 C 186.0 39.0 185.3 43.7 185.0 44.2 C 185.0 44.2 185.0 44.2 185.0 44.2 Z M 185.0 44.2 " fill="#FEFFFE"></path><path d="M 206.3 30.7 C 206.9 31.0 206.8 32.9 206.1 31.3 C 206.1 31.2 206.1 30.5 206.3 30.7 Z M 205.8 27.5 C 205.9 27.7 205.9 27.9 205.8 28.1 C 205.3 28.5 205.7 26.7 205.8 27.5 Z M 205.9 32.2 C 206.0 32.3 206.2 33.3 206.0 33.2 C 205.8 33.0 205.9 32.2 205.9 32.2 Z M 204.2 24.8 C 204.4 24.8 204.6 25.9 204.5 26.1 C 204.2 26.7 203.6 24.8 204.2 24.8 Z M 197.0 30.1 C 197.0 30.1 196.9 30.1 196.8 30.1 C 196.9 30.1 197.0 30.1 197.0 30.1 Z M 202.5 10.0 C 202.5 10.2 202.4 10.6 202.1 10.5 C 201.8 10.5 202.3 9.4 202.5 10.0 Z M 180.0 23.9 C 180.0 23.9 180.3 24.2 180.1 24.3 C 179.8 24.4 179.8 24.0 180.0 23.9 Z M 179.9 24.2 C 179.9 24.4 179.4 24.4 179.6 24.2 C 179.8 24.0 179.9 24.0 179.9 24.2 Z M 188.9 12.0 C 189.0 11.9 189.0 11.8 189.0 11.9 C 189.0 12.1 188.7 12.1 188.9 12.0 Z M 188.7 12.5 C 188.8 12.8 188.3 12.7 188.4 12.5 C 188.6 12.3 188.7 12.2 188.7 12.5 Z M 185.3 13.3 C 185.4 13.2 185.5 13.1 185.5 13.3 C 185.5 13.4 185.2 13.5 185.3 13.3 Z M 186.6 27.4 C 186.5 27.4 186.0 27.1 186.1 26.9 C 186.3 26.6 186.9 27.3 186.6 27.4 Z M 185.9 27.2 C 185.9 27.4 185.5 27.3 185.7 27.2 C 185.8 27.1 185.9 27.0 185.9 27.2 Z M 188.2 27.7 C 188.3 27.4 188.9 27.6 189.0 27.7 C 189.2 27.9 189.4 28.0 189.5 28.2 C 189.6 28.3 188.0 28.0 188.2 27.7 Z M 192.8 29.2 C 192.8 29.3 192.7 29.3 192.5 29.2 C 192.4 29.0 192.9 29.1 192.8 29.2 Z M 190.2 28.3 C 190.2 28.4 190.1 28.5 189.9 28.3 C 189.8 28.1 190.2 28.2 190.2 28.3 Z M 203.9 18.8 C 204.0 18.6 204.0 19.5 204.0 19.6 C 204.0 19.6 203.9 19.3 203.8 19.5 C 203.8 19.7 203.1 19.3 203.9 18.8 Z M 205.5 25.7 C 205.5 25.9 205.4 26.0 205.2 25.9 C 205.2 25.9 205.3 25.3 205.5 25.7 Z M 203.1 20.0 C 203.2 20.0 203.2 20.2 203.1 20.2 C 203.0 20.2 203.0 20.0 203.1 20.0 Z M 202.9 19.5 C 202.9 19.6 202.7 20.1 202.5 20.0 C 202.2 19.9 202.7 18.8 202.9 19.5 Z M 204.0 17.8 C 204.0 18.0 204.0 18.0 203.9 17.9 C 203.8 17.8 204.0 17.8 204.0 17.8 Z M 205.0 21.8 C 205.1 22.0 205.1 22.0 205.0 21.9 C 204.8 21.8 205.0 21.8 205.0 21.8 Z M 203.2 15.9 C 203.2 15.9 203.6 16.4 203.2 16.6 C 202.6 16.9 203.2 16.0 203.2 15.9 Z M 202.2 13.2 C 202.1 13.4 202.0 13.3 202.0 13.2 C 202.0 12.9 202.2 13.0 202.2 13.2 Z M 201.0 12.3 C 201.1 12.0 201.3 11.7 201.3 12.2 C 201.3 12.7 200.9 12.7 201.0 12.3 Z M 201.3 12.8 C 201.3 12.8 201.2 12.6 201.3 12.6 C 201.4 12.6 201.4 12.8 201.3 12.8 Z M 202.4 15.1 C 202.6 15.3 202.4 15.6 202.2 15.3 C 202.1 14.9 202.2 14.9 202.4 15.1 Z M 198.9 32.2 C 199.1 32.2 199.0 32.5 198.8 32.5 C 198.7 32.6 198.7 32.2 198.9 32.2 Z M 189.6 27.3 C 189.7 27.5 189.5 27.5 189.3 27.3 C 189.1 27.1 189.5 27.1 189.6 27.3 Z M 183.6 24.3 C 183.7 24.6 183.6 24.5 183.3 24.4 C 183.1 24.2 183.5 24.2 183.6 24.3 Z M 192.1 28.3 C 192.1 28.4 191.3 28.6 191.1 28.1 C 190.9 27.5 192.0 27.9 192.1 28.3 Z M 200.1 25.8 C 200.2 25.8 200.1 25.9 200.1 25.9 C 199.9 25.8 199.9 25.8 200.1 25.8 Z M 191.0 27.0 C 191.1 27.0 191.0 27.3 190.8 27.3 C 190.7 27.4 190.7 27.0 191.0 27.0 Z M 184.6 25.2 C 184.8 25.4 184.5 25.7 184.3 25.8 C 183.6 26.0 183.4 25.3 183.2 24.9 C 183.0 24.6 184.5 25.0 184.6 25.2 Z M 200.8 31.9 C 200.7 31.7 200.5 31.7 200.4 31.6 C 200.3 31.7 200.2 31.6 200.1 31.5 C 199.5 31.3 198.9 31.7 198.5 31.7 C 197.4 31.7 197.6 30.4 197.0 30.1 C 197.2 30.2 197.3 30.2 197.5 30.1 C 197.8 29.9 195.6 29.2 195.5 29.2 C 193.5 28.7 195.6 29.9 195.4 30.5 C 195.3 30.8 194.3 29.6 194.2 29.5 C 193.7 29.0 193.4 29.6 193.0 29.2 C 192.8 28.9 192.7 27.3 192.4 27.4 C 192.1 27.5 191.6 27.1 191.4 27.0 C 191.1 26.9 190.5 26.7 190.6 27.3 C 190.7 27.8 190.6 28.2 190.3 27.6 C 190.1 27.3 188.3 25.5 187.9 26.6 C 187.9 26.7 188.2 27.2 188.3 27.2 C 187.6 27.2 185.9 26.1 185.3 26.4 C 183.9 26.9 185.8 25.9 185.4 25.5 C 184.8 24.7 184.5 24.2 183.3 23.9 C 183.1 23.9 182.1 23.5 182.3 24.2 C 182.5 24.8 182.1 24.9 182.7 25.3 C 181.8 25.5 181.8 24.4 181.6 24.5 C 181.2 24.7 181.6 25.0 181.1 24.8 C 180.5 24.5 180.7 24.7 180.8 24.2 C 180.8 24.0 180.3 23.6 180.3 23.6 C 180.4 23.6 180.4 23.6 180.4 23.5 C 179.9 23.4 178.7 24.0 178.7 23.7 C 178.6 23.5 179.1 23.0 179.2 22.8 C 179.2 22.7 179.2 22.7 179.1 22.7 C 178.9 22.7 178.2 22.9 178.2 22.7 C 178.1 22.6 178.9 21.8 178.5 22.0 C 178.2 22.2 177.2 21.4 177.3 21.1 C 177.3 20.8 177.5 19.5 177.4 19.3 C 177.2 19.1 177.8 18.7 178.0 18.6 C 178.1 18.4 178.7 18.5 178.8 18.5 C 178.9 18.5 179.3 18.1 179.3 18.1 C 179.3 18.1 179.4 17.8 179.7 17.5 C 180.1 17.2 180.5 17.2 181.1 17.0 C 181.6 16.8 181.6 16.4 182.0 16.0 C 182.3 15.7 183.2 16.0 183.6 15.8 C 184.1 15.7 183.7 15.1 184.1 14.7 C 184.5 14.3 184.9 14.3 184.8 14.5 C 184.7 14.7 184.9 14.7 185.1 14.6 C 185.2 14.5 185.9 14.3 186.0 14.0 C 186.1 13.8 184.4 14.4 186.2 13.1 C 187.0 12.5 188.1 12.6 187.9 12.8 C 187.3 13.3 189.2 13.1 189.0 12.9 C 188.8 12.6 190.3 11.5 189.6 11.3 C 189.4 11.3 190.7 10.0 191.0 9.9 C 191.3 9.8 191.8 9.2 192.4 9.5 C 192.7 9.7 193.0 8.4 193.2 8.3 C 193.4 8.1 194.6 7.3 194.9 7.3 C 195.3 7.2 194.7 7.6 194.5 7.8 C 194.2 8.0 193.6 8.1 193.5 8.3 C 193.3 8.5 193.9 8.4 194.3 8.2 C 194.5 8.0 194.8 8.2 195.1 8.1 C 195.2 7.9 195.4 7.8 195.7 7.7 C 195.7 7.5 195.8 7.4 195.7 7.4 C 195.6 7.2 195.4 7.2 195.4 7.1 C 195.3 7.0 195.4 6.8 195.8 6.5 C 196.2 6.2 196.5 6.1 197.1 5.8 C 197.6 5.6 197.7 5.4 197.9 5.1 C 198.2 4.8 198.6 4.7 198.7 4.7 C 198.7 4.8 198.4 5.2 198.4 5.3 C 198.5 5.4 199.1 5.3 199.3 5.2 C 200.2 4.7 200.1 5.9 201.1 5.4 C 201.6 5.1 201.3 5.7 201.2 6.2 C 201.3 6.2 201.4 6.2 201.6 6.7 C 201.7 6.7 201.7 7.4 201.8 7.7 C 201.8 8.0 202.3 9.3 201.8 8.5 C 201.8 8.4 201.7 8.4 201.7 8.3 C 201.7 8.3 201.7 8.3 201.7 8.4 C 201.7 8.4 201.1 8.1 201.1 8.1 C 201.1 8.1 201.7 8.4 201.7 8.4 C 201.5 8.6 201.3 8.7 201.2 8.9 C 201.2 8.9 201.3 9.0 201.4 9.0 C 201.4 9.1 201.4 9.1 201.4 9.1 C 201.4 9.1 201.4 9.1 201.5 9.1 C 201.7 9.0 201.6 9.1 201.6 9.3 C 202.0 9.8 201.8 10.9 201.7 11.4 C 200.3 10.3 200.7 12.5 201.0 13.2 C 201.2 13.8 202.7 13.6 202.6 13.2 C 202.7 13.7 202.5 13.9 202.1 14.1 C 202.1 14.1 201.4 14.8 201.4 14.7 C 201.1 16.0 202.2 15.6 202.4 15.8 C 202.6 16.1 202.7 16.5 202.9 16.9 C 203.0 17.2 203.2 16.9 203.4 17.0 C 204.0 17.3 203.1 18.3 203.1 18.7 C 202.9 18.4 202.8 18.0 202.5 17.8 C 202.9 18.2 202.2 18.5 202.2 18.7 C 202.1 19.1 202.3 19.6 202.4 20.0 C 202.5 20.6 202.8 21.3 203.0 21.9 C 203.0 21.7 203.7 20.6 203.6 20.5 C 203.7 20.7 203.6 21.4 204.1 21.1 C 204.9 20.5 204.7 22.3 204.7 22.6 C 204.8 23.5 205.8 24.3 205.0 25.3 C 205.0 25.3 204.5 24.0 204.4 24.1 C 203.7 24.5 203.3 24.9 203.7 25.9 C 203.7 26.0 204.5 27.2 204.6 27.2 C 204.5 27.2 206.1 25.6 205.7 26.8 C 205.6 27.1 205.2 26.6 205.1 27.0 C 205.0 27.4 205.2 27.9 205.2 28.4 C 205.2 28.4 205.1 29.2 205.2 29.2 C 205.4 29.3 205.8 29.3 206.0 29.5 C 206.1 29.8 206.0 30.1 205.7 30.2 C 205.7 30.2 205.6 30.2 205.6 30.2 C 205.6 30.3 205.5 30.3 205.4 30.3 C 205.4 30.4 205.5 30.6 205.3 30.8 C 205.3 30.9 205.1 30.6 205.2 30.4 C 205.1 30.4 205.1 30.4 204.9 30.3 C 205.0 30.7 205.2 31.1 205.2 31.1 C 205.7 31.6 206.0 31.6 205.4 32.6 C 204.9 33.4 202.7 33.1 201.6 32.4 C 201.4 32.3 201.1 32.2 200.8 31.9 Z M 196.5 7.5 C 196.4 7.6 196.4 7.6 196.4 7.6 C 196.5 7.7 196.5 7.8 196.6 7.9 C 196.9 7.8 196.4 7.7 196.7 7.6 C 197.0 7.4 196.9 7.3 196.5 7.5 Z M 199.1 8.8 C 199.3 8.6 199.2 8.6 199.0 8.7 C 199.1 8.7 199.1 8.8 199.1 8.8 Z M 200.5 8.7 C 200.4 8.3 199.9 9.1 200.2 9.7 C 200.4 9.3 200.5 8.9 200.5 8.7 Z M 201.3 9.7 C 201.2 9.7 201.1 9.6 201.1 9.6 C 200.9 9.6 201.2 10.0 201.0 10.0 C 200.8 10.0 200.6 9.5 200.5 9.9 C 200.5 9.9 200.5 10.0 200.4 10.1 C 200.5 10.2 200.5 10.2 200.6 10.2 C 200.8 10.4 201.3 10.0 201.3 9.7 Z M 195.5 9.5 C 195.6 9.3 195.4 9.4 195.4 9.5 C 195.2 9.6 195.4 9.7 195.5 9.5 Z M 192.7 10.1 C 193.0 10.1 193.2 9.9 192.9 9.8 C 192.6 9.8 192.5 10.1 192.7 10.1 Z M 194.7 14.4 C 194.7 14.2 194.7 14.3 194.6 14.4 C 194.5 14.6 194.7 14.5 194.7 14.4 Z M 196.9 15.4 C 197.1 15.6 197.4 15.4 197.2 15.3 C 197.1 15.2 196.9 15.3 196.9 15.4 Z M 191.9 13.1 C 191.8 13.2 192.0 13.3 192.0 13.1 C 192.1 12.9 192.0 12.9 191.9 13.1 Z M 195.2 13.8 C 194.9 13.9 194.9 14.0 194.9 14.1 C 194.9 14.2 195.2 14.2 195.3 14.0 C 195.5 13.8 195.5 13.7 195.2 13.8 Z M 197.1 14.4 C 197.2 15.1 197.5 15.1 197.3 14.3 C 197.0 13.5 197.1 14.0 197.1 14.4 Z M 190.7 10.6 C 190.8 10.6 191.1 10.3 191.1 10.3 C 191.1 10.3 190.2 10.8 190.7 10.6 Z M 202.2 16.6 C 202.2 16.4 202.0 16.3 202.0 16.6 C 202.0 17.0 202.3 16.9 202.2 16.6 Z M 200.9 17.4 C 201.4 17.1 201.4 16.6 201.4 16.6 C 201.4 16.7 200.9 16.6 200.9 16.4 C 200.6 16.0 201.0 15.4 200.6 15.0 C 200.2 14.6 200.3 15.6 200.4 15.8 C 200.3 15.7 200.2 15.6 200.1 15.6 C 199.9 15.7 199.9 15.8 200.0 16.0 C 200.2 16.2 200.3 17.8 200.9 17.4 Z M 195.4 15.2 C 195.6 15.0 195.5 14.7 195.2 14.8 C 194.9 14.9 194.7 15.0 194.7 15.1 C 194.8 15.2 195.2 15.4 195.4 15.2 Z M 193.6 14.7 C 193.6 14.4 193.6 14.5 193.4 14.7 C 193.1 15.0 193.6 15.0 193.6 14.7 Z M 185.2 15.0 C 185.1 15.2 185.5 15.0 185.4 14.9 C 185.3 14.8 185.2 14.8 185.2 15.0 Z M 188.0 16.0 C 187.8 16.5 188.3 16.3 188.4 16.2 C 188.4 16.0 188.2 15.8 188.0 16.0 Z M 190.4 15.0 C 190.2 15.2 190.6 15.1 190.6 15.0 C 190.6 14.8 190.5 14.9 190.4 15.0 Z M 191.6 15.3 C 191.4 15.4 191.7 15.5 191.8 15.2 C 191.9 15.1 191.7 15.1 191.6 15.3 Z M 200.5 19.8 C 200.5 19.8 200.0 19.8 200.3 20.1 C 200.6 20.4 200.5 20.4 200.5 19.8 Z M 197.5 17.7 C 197.4 17.3 197.2 17.0 196.2 17.0 C 195.1 16.9 195.4 17.2 195.9 17.6 C 196.5 17.9 194.8 17.7 195.7 18.4 C 196.2 18.7 197.6 18.1 197.5 17.7 Z M 191.0 17.0 C 191.7 16.9 191.9 16.0 191.3 16.3 C 190.7 16.7 190.4 17.1 191.0 17.0 Z M 190.6 16.9 C 190.6 16.8 190.6 16.8 190.4 16.9 C 190.2 17.0 190.5 17.0 190.6 16.9 Z M 204.3 21.8 C 203.8 20.6 203.3 22.1 203.3 22.1 C 203.2 23.4 204.8 23.0 204.3 21.8 Z M 181.1 23.2 C 181.1 23.3 181.2 23.3 181.2 23.3 C 181.2 23.3 181.2 23.3 181.3 23.3 C 181.5 23.2 181.2 22.9 181.2 22.9 C 181.1 23.0 181.0 23.1 181.1 23.2 Z M 186.8 25.9 C 186.6 25.7 186.4 25.7 186.2 25.8 C 186.1 26.3 187.9 27.0 187.6 25.9 C 187.5 25.7 186.7 24.5 186.4 24.9 C 186.2 25.1 187.4 26.1 186.8 25.9 Z M 185.3 24.4 C 186.0 24.7 185.0 23.4 185.0 23.9 C 185.0 24.1 185.1 24.3 185.3 24.4 Z M 180.8 20.7 C 179.7 20.7 179.3 22.1 181.0 22.0 C 182.8 21.8 183.1 21.3 182.3 21.2 C 181.5 21.1 182.3 20.6 180.8 20.7 Z M 188.4 23.7 C 187.8 24.7 188.4 24.6 188.9 23.9 C 189.1 23.8 188.7 23.2 188.4 23.7 Z M 190.6 24.4 C 190.8 24.6 190.8 24.6 190.7 24.4 C 190.6 24.1 190.3 24.2 190.6 24.4 Z M 179.8 18.7 C 179.4 18.7 179.0 19.0 179.0 18.7 C 179.1 18.5 179.0 18.6 178.7 18.7 C 178.4 18.8 178.9 19.0 179.1 19.0 C 179.3 19.1 180.2 18.6 179.8 18.7 Z M 189.3 18.5 C 189.2 18.7 189.4 18.7 189.5 18.5 C 189.6 18.4 189.5 18.4 189.3 18.5 Z M 197.8 20.7 C 197.8 20.7 197.6 20.6 197.7 20.8 C 197.9 21.0 197.9 21.0 197.8 20.7 Z M 204.2 23.6 C 204.1 23.4 203.9 23.8 203.5 23.6 C 203.4 23.5 203.7 23.4 203.8 23.4 C 203.7 23.4 202.8 23.2 203.2 23.7 C 203.4 24.0 204.4 24.2 204.2 23.6 Z M 191.5 19.7 C 191.9 19.5 190.7 18.7 191.0 18.5 C 191.3 18.4 191.2 18.3 190.8 18.5 C 190.4 18.6 191.0 19.8 191.5 19.7 Z M 187.9 18.5 C 188.2 18.6 189.0 18.1 188.6 18.2 C 188.2 18.2 187.8 18.5 187.8 18.2 C 187.9 18.0 187.8 18.1 187.5 18.2 C 187.2 18.3 187.7 18.5 187.9 18.5 Z M 182.1 16.5 C 182.2 16.5 182.6 16.1 182.3 16.2 C 182.1 16.2 181.9 16.5 182.1 16.5 Z M 197.9 23.2 C 197.7 23.0 197.6 23.0 197.7 23.4 C 197.9 23.7 198.1 23.4 197.9 23.2 Z M 182.2 17.7 C 182.7 17.5 182.0 17.5 182.4 17.3 C 182.7 17.1 182.6 17.1 182.1 17.3 C 181.8 17.4 181.7 17.8 182.2 17.7 Z M 202.8 26.2 C 202.7 26.1 202.4 26.1 202.5 26.3 C 202.6 26.4 202.9 26.3 202.8 26.2 Z M 200.3 26.1 C 200.3 26.0 200.3 25.9 200.3 25.8 C 199.9 24.1 199.6 26.9 200.3 26.1 Z M 197.1 24.6 C 197.6 24.7 197.1 24.3 197.1 24.3 C 197.0 24.4 197.0 24.5 197.1 24.6 Z M 193.5 23.2 C 193.3 23.4 193.7 23.4 193.7 23.2 C 193.7 23.0 193.6 23.1 193.5 23.2 Z M 204.9 28.5 C 204.9 28.3 204.8 28.3 204.8 28.5 C 204.7 28.6 204.9 28.7 204.9 28.5 Z M 195.8 25.1 C 195.9 25.0 195.9 24.9 195.7 24.9 C 195.5 24.9 195.7 25.1 195.8 25.1 Z M 184.7 20.7 C 184.9 20.7 185.0 20.6 185.1 20.5 C 185.1 20.3 184.4 20.0 184.5 19.7 C 184.5 19.7 184.6 19.7 184.6 19.7 C 184.6 19.7 184.6 19.7 184.6 19.6 C 184.6 19.5 184.8 19.5 184.8 19.6 C 184.9 19.6 185.0 19.6 185.2 19.6 C 185.0 19.3 184.8 19.1 184.6 19.2 C 184.3 19.3 184.0 19.7 183.9 20.2 C 184.0 20.3 184.2 20.4 184.3 20.5 C 184.3 20.5 184.3 20.5 184.3 20.5 C 184.6 20.2 184.8 20.2 184.7 20.4 C 184.7 20.5 184.6 20.6 184.5 20.6 C 184.6 20.7 184.7 20.7 184.7 20.7 Z M 194.2 25.0 C 194.6 25.0 194.4 24.8 194.1 24.6 C 193.8 24.4 193.9 25.0 194.2 25.0 Z M 204.3 28.7 C 204.2 28.7 204.1 28.7 204.0 28.7 C 204.1 28.8 204.1 28.8 204.2 28.9 C 204.3 29.0 204.5 29.1 204.7 29.2 C 204.8 29.0 204.7 28.8 204.3 28.7 Z M 200.8 28.5 C 200.9 28.5 202.2 29.1 202.1 28.7 C 201.9 28.1 202.6 27.8 201.6 27.6 C 201.1 27.6 200.5 28.1 199.9 28.0 C 197.4 27.6 200.3 28.9 200.9 29.3 C 201.0 29.3 200.6 28.5 200.8 28.5 Z M 197.4 28.0 C 197.2 28.1 197.5 28.5 197.6 28.6 C 198.2 28.7 197.7 27.8 197.4 28.0 Z M 203.8 30.9 C 203.8 30.9 203.9 30.9 203.9 30.8 C 203.8 30.8 203.8 30.9 203.7 30.9 C 203.7 30.9 203.8 30.9 203.8 30.9 Z M 205.3 31.8 C 205.0 30.9 204.6 32.2 204.6 32.5 C 204.6 33.1 205.5 32.3 205.3 31.8 Z M 198.7 29.8 C 198.3 29.5 197.2 30.7 198.0 31.0 C 198.8 31.2 199.7 30.3 198.7 29.8 Z M 193.2 29.6 C 193.4 29.5 193.8 29.9 193.5 30.0 C 193.3 30.1 193.1 29.6 193.2 29.6 Z M 200.1 33.2 C 200.0 33.1 200.2 33.1 200.2 33.1 C 200.2 33.3 200.2 33.3 200.1 33.2 Z M 199.9 31.9 C 200.0 32.1 200.3 32.3 200.4 32.4 C 200.6 32.5 200.1 32.5 200.0 32.5 C 199.8 32.4 199.9 32.0 199.9 31.9 Z M 196.0 30.3 C 196.2 30.5 195.8 30.4 195.7 30.3 C 195.6 30.2 195.9 30.1 196.0 30.3 Z M 196.8 31.0 C 196.7 30.9 196.9 30.7 197.0 30.8 C 197.2 31.0 196.9 31.1 196.8 31.0 Z M 195.5 29.5 C 196.0 29.6 196.6 29.7 196.4 30.1 C 196.3 30.2 194.6 29.5 195.5 29.5 Z M 195.5 29.5 " fill="#FEFFFE"></path></g></svg>