<?xml version="1.0" encoding="UTF-8" standalone="no"?><svg xmlns="http://www.w3.org/2000/svg" xmlns:xlink="http://www.w3.org/1999/xlink" clip-rule="evenodd" stroke-miterlimit="4.00" viewBox="0 0 430 42"><desc>SVG generated by Keynote</desc><defs></defs><g transform="matrix(1.00, 0.00, -0.00, -1.00, 0.0, 42.0)"><text xml:space="preserve" font-family="Chalkduster" font-size="42.0" fill="#FEFFFE" transform="matrix(1.00, 0.00, -0.00, -1.00, 0.0, 4.0)">I</text><text xml:space="preserve" font-family="Chalkduster" font-size="42.0" fill="#FEFFFE" transform="matrix(1.00, 0.00, -0.00, -1.00, 25.0, 4.0)">t</text><text xml:space="preserve" font-family="Chalkduster" font-size="42.0" fill="#FEFFFE" transform="matrix(1.00, 0.00, -0.00, -1.00, 44.2, 4.0)">’</text><text xml:space="preserve" font-family="Chalkduster" font-size="42.0" fill="#FEFFFE" transform="matrix(1.00, 0.00, -0.00, -1.00, 49.4, 4.0)">s</text><text xml:space="preserve" font-family="Chalkduster" font-size="42.0" fill="#FEFFFE" transform="matrix(1.00, 0.00, -0.00, -1.00, 70.7, 4.0)"> </text><text xml:space="preserve" font-family="Chalkduster" font-size="42.0" fill="#FEFFFE" transform="matrix(1.00, 0.00, -0.00, -1.00, 91.5, 4.0)">a</text><text xml:space="preserve" font-family="Chalkduster" font-size="42.0" fill="#FEFFFE" transform="matrix(1.00, 0.00, -0.00, -1.00, 118.8, 4.0)">l</text><text xml:space="preserve" font-family="Chalkduster" font-size="42.0" fill="#FEFFFE" transform="matrix(1.00, 0.00, -0.00, -1.00, 137.8, 4.0)">l</text><text xml:space="preserve" font-family="Chalkduster" font-size="42.0" fill="#FEFFFE" transform="matrix(1.00, 0.00, -0.00, -1.00, 157.5, 4.0)"> </text><text xml:space="preserve" font-family="Chalkduster" font-size="42.0" fill="#FEFFFE" transform="matrix(1.00, 0.00, -0.00, -1.00, 178.4, 4.0)">c</text><text xml:space="preserve" font-family="Chalkduster" font-size="42.0" fill="#FEFFFE" transform="matrix(1.00, 0.00, -0.00, -1.00, 203.5, 4.0)">o</text><text xml:space="preserve" font-family="Chalkduster" font-size="42.0" fill="#FEFFFE" transform="matrix(1.00, 0.00, -0.00, -1.00, 234.8, 4.0)">n</text><text xml:space="preserve" font-family="Chalkduster" font-size="42.0" fill="#FEFFFE" transform="matrix(1.00, 0.00, -0.00, -1.00, 265.6, 4.0)">n</text><text xml:space="preserve" font-family="Chalkduster" font-size="42.0" fill="#FEFFFE" transform="matrix(1.00, 0.00, -0.00, -1.00, 297.0, 4.0)">e</text><text xml:space="preserve" font-family="Chalkduster" font-size="42.0" fill="#FEFFFE" transform="matrix(1.00, 0.00, -0.00, -1.00, 323.7, 4.0)">c</text><text xml:space="preserve" font-family="Chalkduster" font-size="42.0" fill="#FEFFFE" transform="matrix(1.00, 0.00, -0.00, -1.00, 348.7, 4.0)">t</text><text xml:space="preserve" font-family="Chalkduster" font-size="42.0" fill="#FEFFFE" transform="matrix(1.00, 0.00, -0.00, -1.00, 367.4, 4.0)">e</text><text xml:space="preserve" font-family="Chalkduster" font-size="42.0" fill="#FEFFFE" transform="matrix(1.00, 0.00, -0.00, -1.00, 394.7, 4.0)">d</text></g></svg>